<svg xmlns="http://www.w3.org/2000/svg" viewBox="0 0 116.5 92.1"><path d="M65.1 62.7l5.5 12.1c-6.4 2.9-13.6 3.6-20.5 2.1l2.9-13c1.3.3 2.7.4 4.1.4 2.9.2 5.6-.5 8-1.6" fill="#002a5f"/><path d="M76.5 43.4l20-1.7c-.4-4.5-1.5-8.8-3.4-12.9C84.1 8.9 60.7.1 40.8 9.1l8.3 18.3c2.4-1.1 5.2-1.7 8-1.7 10.2-.1 18.6 7.7 19.4 17.7" fill="#00a7e5"/><path d="M65.2 62.7l6.8 15C85.8 71.4 94.2 57.1 92.9 42l-16.4 1.4c0 .5.1 1.1.1 1.6 0 7.9-4.7 14.7-11.4 17.7" fill="#d7d9db"/><path d="M43.8 59.2L26.2 77.9C17.2 69.4 12 57.5 12 45.1 12 20.2 32.2 0 57.1 0v25.7c-10.7 0-19.4 8.7-19.4 19.4 0 5.5 2.4 10.5 6.1 14.1" fill="#fbc300"/><path fill="none" stroke="#ad7b00" stroke-width=".24" stroke-linecap="round" stroke-miterlimit="22.926" d="M.1 12.8h20.5l7.1 8.1"/><path fill="none" stroke="#00a7e5" stroke-width=".24" stroke-linecap="round" stroke-miterlimit="22.926" d="M111.7 17.2H91.2l-7.1 8.1"/><path fill="none" stroke="#504f53" stroke-width=".24" stroke-linecap="round" stroke-miterlimit="22.926" d="M116.4 62.5H96l-7.1-8"/><path fill="none" stroke="#002a5f" stroke-width=".24" stroke-linecap="round" stroke-miterlimit="22.926" d="M95.7 92H75.3L60.8 72.5"/></svg>