<svg xmlns="http://www.w3.org/2000/svg" viewBox="0 0 116.5 90.2"><path d="M73.9 55.7l7.1 7c-2.2 2.2-4.9 3.9-7.9 4.9l-3.9-6.9c1.8-1.4 3.4-3.1 4.7-5" fill="#002a5f"/><path d="M76.7 41.9l17.1-3.6c.4 2 .6 4 .6 6 0 9.5-4.7 18.5-12.5 23.9l-8.4-12.1c2.2-3.1 3.4-6.9 3.4-11 .1-1.1 0-2.2-.2-3.2" fill="#d7d9db"/><path d="M63.8 26.8l6.3-19C85.5 12.9 96.2 27 97 43.3l-20 .9c-.4-8.1-5.8-15-13.2-17.4" fill="#00a7e5"/><path d="M62.4 63.9l6.3 25c-3.6.9-7.3 1.3-10.9 1.3-24.9 0-45.1-20.2-45.1-45.1S32.9 0 57.8 0c5.3 0 10.5.9 15.5 2.8L64.4 27c-2.1-.8-4.3-1.2-6.6-1.2-10.7 0-19.3 8.7-19.3 19.3 0 10.7 8.7 19.3 19.3 19.3 1.5 0 3-.2 4.6-.5" fill="#fbc300"/><path fill="none" stroke="#ad7b00" stroke-width=".24" stroke-linecap="round" stroke-miterlimit="22.926" d="M.1 12.7h20.4l7.1 8"/><path fill="none" stroke="#00a7e5" stroke-width=".24" stroke-linecap="round" stroke-miterlimit="22.926" d="M111.6 17H91.1L84 25.1"/><path fill="none" stroke="#504f53" stroke-width=".24" stroke-linecap="round" stroke-miterlimit="22.926" d="M116.4 62.4H95.9l-7.1-8.1"/><path fill="none" stroke="#002a5f" stroke-width=".24" stroke-linecap="round" stroke-miterlimit="22.926" d="M110.6 84H90.2L75.7 64.5"/></svg>