<svg width="512" height="486" viewBox="0 0 512 486" fill="none" xmlns="http://www.w3.org/2000/svg">
<g opacity="0.2">
<path d="M466.839 136.493C458.549 133.712 449.704 134.295 441.944 138.135L441.493 138.347C429.708 122.8 411.434 113.902 392.471 113.61L373.455 82.4115L373.031 81.7759C338.231 35.4281 285.076 5.71256 227.155 0.203793C222.864 -0.193474 219.05 2.93169 218.653 7.22217C218.256 11.5127 221.381 15.2999 225.672 15.7237C279.117 20.7822 328.166 48.1671 360.319 90.8336L375.468 115.702C371.522 116.762 367.628 118.192 363.841 120.072L351.579 126.111L348.242 120.602C301.046 43.1086 199.558 18.4251 122.011 65.6469C84.6153 88.4235 58.2632 124.363 47.8018 166.87C37.3405 209.352 43.9616 253.422 66.4999 290.95L70.3401 297.227L58.1573 306.205C55.0056 308.509 52.1453 311.105 49.5498 313.886L37.9231 294.605C-8.50415 205.67 22.3238 95.0976 108.133 42.8438C132.499 28.0125 159.143 18.9548 187.296 15.9356C191.56 15.4853 194.658 11.6451 194.208 7.35459C193.758 3.0906 189.918 -0.00808318 185.627 0.442153C155.17 3.69974 126.381 13.4725 100.029 29.5221C54.8467 57.0394 22.2178 100.289 8.15458 151.271C-5.82922 202.015 -0.108572 255.567 24.2042 302.074L24.4425 302.471L39.7506 327.843C36.6519 333.855 34.5066 340.397 33.4473 347.282C31.5404 359.889 33.4208 372.443 38.7706 383.619L38.3734 383.937C31.3815 389.075 26.7997 396.676 25.4754 405.31C24.1512 413.97 26.27 422.578 31.4344 429.57L61.0706 469.8C71.1347 483.519 90.0181 487.014 104.32 478.301C105.114 477.798 105.909 477.295 106.703 476.712L109.06 474.991C116.714 480.208 125.507 483.651 134.962 485.108C149.661 487.332 164.36 484.393 176.834 476.791C178.397 475.838 179.959 474.805 181.469 473.693L200.299 459.815C208.721 453.644 214.23 444.507 215.793 434.099C217.355 423.717 214.813 413.388 208.642 404.939L131.864 300.749C120.978 285.945 101.592 281.045 85.2774 287.745C62.3683 227.017 90.4418 154.767 153.078 116.629C215.634 78.5183 292.624 86.6755 336.112 134.745C321.757 145.974 316.725 166.102 325.121 183.026L382.46 299.081C387.121 308.43 395.146 315.448 405.077 318.812C415.036 322.202 425.682 321.487 435.031 316.852L456.007 306.496C457.676 305.675 459.291 304.775 460.88 303.822C482.174 290.871 493.297 266.664 490.41 242.775L493.059 241.451C493.906 241.027 494.727 240.55 495.548 240.073C509.823 231.387 515.385 213.006 507.837 197.725L485.67 152.966C481.803 145.153 475.129 139.3 466.839 136.493ZM97.1159 464.397C89.5414 469.667 79.08 467.999 73.5977 460.53L43.9616 420.3C41.2602 416.645 40.1743 412.169 40.8629 407.641C41.525 403.324 43.7232 399.51 47.1132 396.835L93.9113 460.371L93.9643 460.424C94.5204 461.192 95.1031 461.934 95.7122 462.675L96.1625 463.231L97.1159 464.397ZM119.31 309.939L196.062 414.129C199.796 419.188 201.332 425.438 200.352 431.715C199.399 437.992 196.088 443.501 191.03 447.208L172.199 461.086C162.135 468.502 149.741 471.548 137.266 469.667C128.474 468.316 120.449 464.662 113.854 459.073C111.1 456.743 108.584 454.041 106.438 451.128L57.3892 384.546C49.9736 374.482 46.9278 362.087 48.8347 349.64C50.7416 337.192 57.3098 326.227 67.4003 318.812L84.9596 305.861L85.6746 305.358L85.8335 305.252L86.2308 304.96L87.9258 303.822C98.3077 297.465 111.974 300.008 119.31 309.939ZM258.963 78.6772C220.269 73.3274 179.774 82.0672 144.947 103.281C110.146 124.469 83.7942 156.409 70.7904 193.222C65.5994 207.921 62.6861 222.938 62.024 237.769C49.0731 177.464 74.6836 112.71 130.142 78.9686C185.733 45.1214 254.937 52.0868 302.556 91.3368C289.075 85.0865 274.403 80.796 258.963 78.6772ZM452.749 290.5C451.558 291.215 450.339 291.877 449.095 292.513L428.092 302.868C422.478 305.649 416.068 306.073 410.056 304.033C404.044 302.021 399.198 297.783 396.417 292.142L339.052 176.087C333.569 165.043 337.595 151.721 347.95 145.392L349.778 144.385L351.923 143.326L352.161 143.22L370.753 134.03C376.448 131.222 382.433 129.66 388.419 129.263L388.895 129.236C406.004 128.283 422.875 136.758 432.039 152.145L432.197 152.41L432.939 153.708L433.786 155.323L470.415 229.48C472.083 232.87 473.301 236.419 474.175 240.1C478.466 259.46 470.097 279.933 452.749 290.5C451.584 291.215 470.097 279.933 452.749 290.5ZM471.686 159.852L493.853 204.611C497.958 212.927 494.595 222.991 486.464 227.281L485.828 225.772L485.59 225.216C485.193 224.315 484.796 223.441 484.372 222.567L449.412 151.827C453.332 150.053 457.702 149.841 461.834 151.245C466.203 152.728 469.699 155.773 471.686 159.852Z" fill="white"/>
</g>
</svg>
