<svg width="582" height="500" viewBox="0 0 582 500" fill="none" xmlns="http://www.w3.org/2000/svg">
<g opacity="0.2">
<path d="M406.7 442.857C403.02 445.065 398.518 445.714 394.362 444.676L294.059 419.74L170.206 494.243C152.544 504.849 129.514 499.134 118.865 481.472L5.57464 293.16C-5.0747 275.498 0.639582 252.468 18.3452 241.862L411.072 5.5844C428.734 -5.06495 451.765 0.692627 462.414 18.355L575.704 206.667C586.353 224.329 580.595 247.359 562.933 258.009L439.081 332.511L414.189 432.814C412.89 437.273 410.293 440.693 406.7 442.857ZM31.0724 263.074C25.0984 266.667 23.1504 274.459 26.7434 280.476L140.033 468.788C143.626 474.805 151.462 476.71 157.436 473.117L290.076 393.334L392.197 418.745L417.522 316.667L550.163 236.797C556.137 233.204 558.085 225.411 554.492 219.394L441.202 31.0823C437.609 25.1082 429.816 23.1602 423.842 26.7532L31.0724 263.074Z" fill="white"/>
<path d="M339.773 331.602L230.163 304.286C217.046 301.429 205.704 293.333 198.648 281.602C184.579 258.182 192.155 227.749 215.531 213.636C227.219 206.623 240.942 204.805 254.232 208.442L267.912 212.251L270.986 198.398C273.886 184.978 281.981 173.636 293.756 166.58C317.133 152.511 347.566 160.13 361.678 183.507C368.735 195.195 370.596 209.004 366.83 222.251L339.773 331.602ZM228.302 234.849C216.613 241.905 212.804 257.143 219.86 268.874C223.367 274.762 229.038 278.788 235.791 280.216L321.722 301.645L342.934 215.974C344.925 208.874 344.016 202.165 340.466 196.277C333.41 184.589 318.172 180.736 306.484 187.792C300.639 191.342 296.57 196.97 295.141 203.723L286.44 243.03L247.652 232.338C240.986 230.476 234.103 231.342 228.302 234.849Z" fill="white"/>
</g>
</svg>
