<svg width="661" height="490" viewBox="0 0 661 490" fill="none" xmlns="http://www.w3.org/2000/svg">
<g opacity="0.2">
<path d="M624.905 80.9871C628.276 80.8143 631.15 83.4069 631.322 86.7988C631.495 90.1692 628.903 93.0426 625.51 93.2155C622.14 93.3883 619.266 90.7957 619.093 87.4254C618.92 84.0334 621.513 81.16 624.905 80.9871Z" fill="white"/>
<path d="M623.133 46.4194C626.504 46.2466 629.377 48.8392 629.55 52.2311C629.722 55.6015 627.13 58.475 623.738 58.6478C620.368 58.8206 617.495 56.228 617.322 52.8577C617.171 49.4657 619.763 46.5923 623.133 46.4194Z" fill="white"/>
<path d="M644.133 129.101C655.864 114.064 661.741 95.5055 660.769 76.2557C659.688 55.0398 650.42 35.4874 634.648 21.2498C618.877 7.01228 598.504 -0.246932 577.288 0.811704C558.038 1.78392 540.192 9.51844 526.387 22.6974L524.68 21.1634C522.152 18.9165 518.285 19.1326 516.038 21.6603C513.791 24.1881 514.007 28.0554 516.535 30.3023L518.22 31.793C506.683 46.7867 500.893 65.1724 501.865 84.271C501.995 86.734 502.233 89.1753 502.578 91.5735L342.573 289.733C340.542 292.26 340.823 295.933 343.243 298.115L361.391 314.513L358.085 318.165C345.814 331.754 324.749 332.834 311.16 320.541C297.57 308.27 296.49 287.205 308.783 273.616L417.758 152.996C434.566 134.394 433.097 105.595 414.496 88.7648C395.894 71.9563 367.073 73.4254 350.286 92.0272L0.958008 481.086L10.032 489.296L359.36 100.259C371.632 86.6692 392.696 85.5889 406.286 97.8821C419.875 110.154 420.955 131.218 408.662 144.808L299.688 265.406C282.879 284.007 284.348 312.828 302.95 329.637C312.262 338.041 324.101 341.887 335.724 341.282C347.348 340.698 358.755 335.686 367.159 326.374L370.443 322.723L388.613 339.121C389.866 340.245 391.465 340.785 393.02 340.698C394.468 340.634 395.894 340.029 397.017 338.927L552.226 185.252L578.001 159.737C580.42 159.823 582.883 159.823 585.325 159.693C604.423 158.721 622.139 151.116 635.88 138.132L637.565 139.666C638.818 140.789 640.417 141.329 641.994 141.243C643.55 141.156 645.084 140.487 646.229 139.234C648.497 136.728 648.303 132.86 645.797 130.592L644.133 129.101ZM392.523 326.202L374.116 309.566L355.709 292.93L483.285 134.913C489.227 145.607 496.875 155.178 506.078 163.496C515.282 171.814 525.609 178.446 536.822 183.264L392.523 326.202ZM546.306 173.909C534.489 169.502 523.751 162.977 514.288 154.443C504.825 145.888 497.242 135.863 491.668 124.564L506.186 106.589C510.529 119.033 517.918 130.246 527.964 139.32C538.01 148.394 549.914 154.616 562.726 157.684L546.306 173.909ZM584.72 147.508C566.766 148.416 549.526 142.28 536.174 130.224C522.844 118.169 514.979 101.641 514.072 83.6877C513.273 67.8298 517.961 52.5336 527.381 39.9812L540.905 52.0151C542.158 53.1169 543.735 53.6354 545.291 53.549C546.868 53.4626 548.424 52.7712 549.547 51.4966C551.794 48.9688 551.578 45.1015 549.05 42.8546L535.569 30.864C547.127 20.1264 561.948 13.8394 577.893 13.04C595.846 12.1326 613.087 18.2684 626.439 30.3239C639.769 42.3793 647.633 58.907 648.54 76.8606C649.34 92.8265 644.565 108.231 635.016 120.826L567.263 59.3175C564.757 57.049 560.89 57.2218 558.621 59.728C556.353 62.2341 556.526 66.1014 559.032 68.3699L626.784 129.879C615.269 140.487 600.556 146.687 584.72 147.508Z" fill="white"/>
</g>
</svg>
