<svg width="566" height="500" viewBox="0 0 566 500" fill="none" xmlns="http://www.w3.org/2000/svg">
<g opacity="0.2">
<path d="M261.932 246.99C256.864 243.857 253.732 238.483 253.517 232.494C253.302 226.321 256.281 220.577 261.441 217.168L305.083 188.268C310.243 184.859 316.662 184.367 322.282 186.947C327.872 189.558 331.68 194.748 332.448 200.891L339.543 258.968C340.372 265.663 337.362 272.144 331.742 275.891C326.121 279.607 318.996 279.822 313.16 276.474L262.423 247.297L261.932 246.99ZM270.839 231.357L270.531 231.941L270.869 232.494L321.576 261.671L322.282 261.64L322.589 260.995L315.525 202.887L315.126 202.365L314.45 202.396L270.839 231.357Z" fill="white"/>
<path d="M559.106 199.324L440.218 17.414C428.762 -0.122851 405.144 -5.06757 387.607 6.3882L17.9517 248.034C0.41481 259.521 -4.52991 283.108 6.92586 300.645L125.814 482.555C137.27 500.092 160.888 505.037 178.425 493.581L548.08 251.965C565.617 240.479 570.562 216.861 559.106 199.324ZM371.084 37.8378L512.669 254.484L238.252 433.845L96.6678 217.168L371.084 37.8378ZM425.752 26.8735L544.64 208.784C550.906 218.366 548.203 231.235 538.621 237.5L527.104 245.024L385.519 28.3784L397.036 20.8538C406.618 14.5884 419.518 17.2911 425.752 26.8735ZM140.28 473.096L21.3915 291.185C15.1261 281.603 17.8288 268.704 27.4111 262.469L82.2636 226.628L223.848 443.274L168.996 479.115C159.413 485.381 146.514 482.678 140.28 473.096Z" fill="white"/>
<path d="M143.166 341.4C133.707 326.935 114.266 322.85 99.8004 332.31C85.3348 341.769 81.25 361.21 90.7095 375.676C100.169 390.141 119.61 394.226 134.076 384.766C148.541 375.307 152.595 355.866 143.166 341.4ZM103.824 367.107C99.094 359.859 101.121 350.154 108.369 345.424C115.587 340.694 125.323 342.721 130.052 349.969C134.782 357.187 132.755 366.923 125.507 371.652C118.259 376.382 108.523 374.355 103.824 367.107Z" fill="white"/>
<path d="M444.671 103.102L463.56 131.972C466.17 135.964 471.515 137.101 475.507 134.49C479.5 131.88 480.606 126.536 477.995 122.543L459.106 93.6425C456.496 89.6498 451.152 88.5442 447.159 91.124C443.197 93.7653 442.061 99.1093 444.671 103.102Z" fill="white"/>
<path d="M477.718 153.655L482.448 160.872C485.059 164.865 490.403 165.971 494.395 163.36C498.388 160.749 499.494 155.405 496.883 151.413L492.153 144.195C489.543 140.203 484.199 139.097 480.206 141.677C476.213 144.318 475.107 149.662 477.718 153.655Z" fill="white"/>
</g>
</svg>
