<?xml version="1.0" encoding="utf-8"?>
<!-- Generator: Adobe Illustrator 22.0.1, SVG Export Plug-In . SVG Version: 6.00 Build 0)  -->
<svg version="1.1" id="Capa_1" xmlns="http://www.w3.org/2000/svg" xmlns:xlink="http://www.w3.org/1999/xlink" x="0px" y="0px"
	 viewBox="0 0 380 502" style="enable-background:new 0 0 380 502;" xml:space="preserve">
<style type="text/css">
	.st0{fill:#002A5F;}
</style>
<g>
	<g>
		<g>
			<g>
				<path class="st0" d="M380,130c0-22-17.9-40-40-40h-21.1l-1.2-3.3C312.1,70.7,296.9,60,280,60h-22.2l-7.4-29.7
					C245.9,12.5,230,0,211.6,0h-43.1c-18.4,0-34.4,12.5-38.8,30.3L122.2,60H100c-16.9,0-32,10.7-37.7,26.7L61.1,90H40
					c-22,0-40,18-40,40v332c0,22.1,18,40,40,40h300c10.7,0,20.7-4.1,28.3-11.6c7.6-7.5,11.7-17.6,11.7-28.2L380,130z M80,100
					c0-11,9-20,20-20h30c4.6,0,8.6-3.1,9.7-7.6l9.3-37.3c2.2-8.9,10.2-15.2,19.4-15.2h43.1c9.2,0,17.2,6.2,19.4,15.2l9.3,37.3
					c1.1,4.5,5.1,7.6,9.7,7.6h30c11,0,20,9,20,20v20H80V100z M354.2,476.2c-1.9,1.9-4.1,3.3-6.5,4.3c-2.4,1-5,1.5-7.7,1.5H40
					c-5.3,0-10.3-2.1-14.1-5.9c-3.8-3.8-5.9-8.8-5.9-14.1V130c0-11,9-20,20-20h20v20c0,5.5,4.5,10,10,10h240c5.5,0,10-4.5,10-10v-20
					h20c11,0,20,9,20,20c0,0,0,236.4,0,332.1C360,467.5,357.9,472.5,354.2,476.2z"/>
			</g>
		</g>
	</g>
	<g>
		<g>
			<g>
				<path class="st0" d="M170,191c0,2.7-1,5.2-2.9,7.1l-60,60c-1.9,1.9-4.4,2.9-7.1,2.9c-2.7,0-5.2-1-7.1-2.9l-30-30
					c-1.9-1.9-2.9-4.4-2.9-7.1c0-2.7,1-5.2,2.9-7.1c1.9-1.9,4.4-2.9,7.1-2.9c2.7,0,5.2,1,7.1,2.9l22.9,22.9l52.9-52.9
					c1.9-1.9,4.4-2.9,7.1-2.9c1.3,0,2.6,0.3,3.8,0.8c1.2,0.5,2.3,1.2,3.2,2.2C169,185.8,170,188.3,170,191z"/>
			</g>
		</g>
	</g>
	<g>
		<g>
			<g>
				<path class="st0" d="M170,281c0,2.7-1,5.2-2.9,7.1l-60,60c-1.9,1.9-4.4,2.9-7.1,2.9c-2.7,0-5.2-1-7.1-2.9l-30-30
					c-1.9-1.9-2.9-4.4-2.9-7.1c0-2.7,1-5.2,2.9-7.1c1.9-1.9,4.4-2.9,7.1-2.9c2.7,0,5.2,1,7.1,2.9l22.9,22.9l52.9-52.9
					c1.9-1.9,4.4-2.9,7.1-2.9c1.3,0,2.6,0.3,3.8,0.8c1.2,0.5,2.3,1.2,3.2,2.2C169,275.8,170,278.3,170,281z"/>
			</g>
		</g>
	</g>
	<g>
		<g>
			<g>
				<path class="st0" d="M170,371c0,2.7-1,5.2-2.9,7.1l-60,60c-1.9,1.9-4.4,2.9-7.1,2.9c-2.7,0-5.2-1-7.1-2.9l-30-30
					c-1.9-1.9-2.9-4.4-2.9-7.1c0-2.7,1-5.2,2.9-7.1c1.9-1.9,4.4-2.9,7.1-2.9c2.7,0,5.2,1,7.1,2.9l22.9,22.9l52.9-52.9
					c1.9-1.9,4.4-2.9,7.1-2.9c1.3,0,2.6,0.3,3.8,0.8c1.2,0.5,2.3,1.2,3.2,2.2C169,365.8,170,368.3,170,371z"/>
			</g>
		</g>
	</g>
	<g>
		<g>
			<g>
				<path class="st0" d="M320,221c0,5.5-4.5,10-10,10h-90c-5.5,0-10-4.5-10-10c0-5.5,4.5-10,10-10h90C315.5,211,320,215.5,320,221z"
					/>
			</g>
		</g>
	</g>
	<g>
		<g>
			<g>
				<path class="st0" d="M320,311c0,5.5-4.5,10-10,10h-90c-5.5,0-10-4.5-10-10c0-5.5,4.5-10,10-10h90C315.5,301,320,305.5,320,311z"
					/>
			</g>
		</g>
	</g>
	<g>
		<g>
			<g>
				<path class="st0" d="M320,401c0,5.5-4.5,10-10,10h-90c-5.5,0-10-4.5-10-10c0-5.5,4.5-10,10-10h90C315.5,391,320,395.5,320,401z"
					/>
			</g>
		</g>
	</g>
	<g>
		<g>
			<g>
				<circle class="st0" cx="190" cy="70" r="10"/>
				<path class="st0" d="M190,80c-5.5,0-10-4.5-10-10c0-5.5,4.5-10,10-10c5.5,0,10,4.5,10,10C200,75.5,195.5,80,190,80z"/>
			</g>
		</g>
	</g>
</g>
</svg>
