<?xml version="1.0" encoding="utf-8"?>
<!-- Generator: Adobe Illustrator 21.0.0, SVG Export Plug-In . SVG Version: 6.00 Build 0)  -->
<svg version="1.1" id="Слой_1" xmlns="http://www.w3.org/2000/svg" xmlns:xlink="http://www.w3.org/1999/xlink" x="0px" y="0px"
	 viewBox="0 0 1691 2175.8" style="enable-background:new 0 0 1691 2175.8;" xml:space="preserve">
<style type="text/css">
	.st0{fill:none;stroke:#FF0000;stroke-width:70;stroke-linecap:round;stroke-linejoin:round;}
</style>
<g>
	<path class="st0" d="M1493.8,367.2h66.8c52.6,0,95.4,42.8,95.4,95.4c0,0,0,1127.2,0,1583.5c0,25.4-9.9,49.2-27.8,67
		c-9,9-19.4,15.9-30.9,20.5c-11.4,4.7-23.8,7.2-36.6,7.2H130.4c-25.4,0-49.3-9.9-67.4-27.9c-18.1-18-28-42-28-67.4V462.6
		c0-52.5,42.8-95.4,95.4-95.4h72.3"/>
	<path class="st0" d="M849,510.3H273.4c-26.3,0-47.7-21.4-47.7-47.7v-95.4c0,0,24-46.2,58.6-46.2h275.1c21.9,0,41-14.8,46.2-36.1
		l44.4-177.7C660.7,64.7,698.8,35,742.7,35h205.7c43.8,0,81.9,29.7,92.5,72.2l44.4,177.7c5.3,21.3,24.4,36.1,46.2,36.1h280.6
		c34.6,0,53.1,46.2,53.1,46.2v95.4c0,26.3-21.4,47.7-47.7,47.7H851"/>
	<polyline class="st0" points="268.5,896.4 409.3,1039.5 707.5,747.7 	"/>
	<polyline class="st0" points="268.5,1328.4 409.3,1471.4 707.5,1179.6 	"/>
	<polyline class="st0" points="268.5,1757.4 409.3,1900.5 707.5,1608.7 	"/>
	<line class="st0" x1="968.4" y1="893.6" x2="1439.4" y2="893.6"/>
	<line class="st0" x1="967.5" y1="1325.5" x2="1438.6" y2="1325.5"/>
	<line class="st0" x1="967.5" y1="1754.6" x2="1438.6" y2="1754.6"/>
	<g>
		<g>
			<path class="st0" d="M871.5,278.1c-0.1-1.2-0.3-2-0.8-3.2c-1.1-3.7-3.1-7.2-5.8-9.9c-4.4-4.4-10.5-6.8-16.6-6.8
				c-6.2,0-12.2,2.5-16.6,6.8c-4.4,4.4-6.8,10.3-6.8,16.5s2.5,12.2,6.8,16.6c4.4,4.4,10.5,6.8,16.6,6.8c6.2,0,12.2-2.5,16.6-6.8
				c4.4-4.4,6.8-10.3,6.8-16.6c0-1,0-1.7-0.1-2.6"/>
		</g>
	</g>
</g>
</svg>
