<?xml version="1.0" encoding="utf-8"?>
<!-- Generator: Adobe Illustrator 21.0.0, SVG Export Plug-In . SVG Version: 6.00 Build 0)  -->
<svg version="1.1" id="Слой_1" xmlns="http://www.w3.org/2000/svg" xmlns:xlink="http://www.w3.org/1999/xlink" x="0px" y="0px"
	 viewBox="0 0 2186.5 2172" style="enable-background:new 0 0 2186.5 2172;" xml:space="preserve">
<style type="text/css">
	.st0{fill:none;stroke:#FF0000;stroke-width:70;stroke-linecap:round;stroke-linejoin:round;}
</style>
<g>
	<path class="st0" d="M1465.5,1421.8c0,395-320.2,715.2-715.2,715.2c-395,0-715.2-320.2-715.2-715.2
		c0-356.6,234.6-650.6,573.8-704.7l68,39.5l-19.8,33.9c-20.8,38.5-7.8,86.6,29.5,109.4c13.4,8.2,28.2,12.1,42.9,12.1
		c27,0,53.4-13.3,69.2-37.6l22.1-34.2l149.4,82.7c18.7-5,37.8-7.3,56.8-7.5c86.6-1,216.4,94.5,224.8,99
		c55.7,29.9,90.5,159.1,90.5,159.1l53.6,28.2l-4.4,9.4c-16,34-2.4,74.5,30.8,92c10.4,5.5,21.6,8.1,32.7,8.1c0.7,0,1.4,0,2,0
		C1462.6,1347.1,1465.5,1384.1,1465.5,1421.8z"/>
	<path class="st0" d="M1373.5,445.9c0,0-5.2,73.3,63.1,108.9L1738,708.4l-209.9,92.6l464.4-204.7l82.4-150.3l-81.1,149.7l-1.3,0.6
		l-15.1,27.5c-9.8,18-14.7,37.7-14.7,57.3c0,29.2,10.7,58.1,31.4,80.7c4.7,6.8,5,15.7,0.6,22.7l-260.9,416.1
		c-30.8,49.2-83.9,76.7-138.7,76.7c-24,0-48.3-5.3-71.2-16.4l-7.2,13.3c-12.3,22.9-35.5,36.2-59.8,36.9"/>
	<path class="st0" d="M618,722.4L457,629l-28.3,34.6c-15.3,18.7-37.6,28.5-60.1,28.5c-16.6,0-33.4-5.3-47.5-16.3
		c-33.1-25.6-39.9-72.9-15.4-106.8l13.3-20.1c0,0-45.5-27.8-47.5-29.3c-125-88.3-47.2-285.4,104.6-265.9
		c179.3,23,524.8,94.5,542.7,98.8l409.1,99.1c21.9,4.6,44.2-5.4,55.4-24.7L1610.5,35"/>
	<polyline class="st0" points="726.5,1024.4 553.2,1049.2 409.2,897.3 449.5,767.1 409.2,897.3 120.7,1074.9 190.2,1350.3 
		106,1624.5 68,1637.2 106,1624.5 295.1,1879.3 296.5,1974.7 295.1,1879.3 558.4,1844.2 813.1,1981.4 813.1,2072.1 715.3,2131.5 
		813.1,2072.1 813.1,1981.4 1062.1,1795.8 1242.1,1779.3 1313.5,1862.6 1242.1,1779.3 1465.5,1481.4 1242.1,1779.3 1062.1,1795.8 
		947.4,1518.5 1002.8,1399.8 947.4,1518.5 652.2,1540 558.4,1844.2 652.2,1540 455.3,1302.9 190.2,1350.3 455.3,1302.9 
		553.2,1049.2 	"/>
	<g>
		<g>
			<path class="st0" d="M1438.2,845.4c0-0.4-0.1-0.6-0.2-1c-0.4-1.2-1-2.3-1.9-3.2c-1.4-1.4-3.4-2.2-5.3-2.2s-3.9,0.8-5.3,2.2
				c-1.4,1.4-2.2,3.3-2.2,5.3s0.8,3.9,2.2,5.3c1.4,1.4,3.4,2.2,5.3,2.2s3.9-0.8,5.3-2.2c1.4-1.4,2.2-3.3,2.2-5.3c0-0.3,0-0.5,0-0.8"
				/>
		</g>
	</g>
	<g>
		<g>
			<path class="st0" d="M2151.5,320.7c0-0.4-0.1-0.6-0.2-1c-0.4-1.2-1-2.3-1.9-3.2c-1.4-1.4-3.4-2.2-5.3-2.2s-3.9,0.8-5.3,2.2
				c-1.4,1.4-2.2,3.3-2.2,5.3s0.8,3.9,2.2,5.3c1.4,1.4,3.4,2.2,5.3,2.2s3.9-0.8,5.3-2.2c1.4-1.4,2.2-3.3,2.2-5.3c0-0.3,0-0.5,0-0.8"
				/>
		</g>
	</g>
	<polyline class="st0" points="831,334.2 901.1,512.2 1072.2,557.6 1014.4,375.6 	"/>
	<path class="st0" d="M268.5,284.9l16.9,44.4c11.1,29.3,31.9,54,58.8,70l643.1,381.9c28.7,17.1,62.7,23.2,95.6,17.2h0
		c31.6-5.8,64.2-0.4,92.2,15.2l143.7,80c29.5,16.4,51.9,43,63.2,74.8l6.6,18.7c12,33.8,36.5,61.6,68.6,77.6l135.8,68
		c24,12,51,16.8,77.7,13.8l95.2-10.8"/>
</g>
</svg>
