<?xml version="1.0" encoding="utf-8"?>
<!-- Generator: Adobe Illustrator 22.0.1, SVG Export Plug-In . SVG Version: 6.00 Build 0)  -->
<svg version="1.1" id="Capa_1" xmlns="http://www.w3.org/2000/svg" xmlns:xlink="http://www.w3.org/1999/xlink" x="0px" y="0px"
	 viewBox="0 0 522.7 496.4" style="enable-background:new 0 0 522.7 496.4;" xml:space="preserve">
<style type="text/css">
	.st0{fill:#002A5F;}
</style>
<g>
	<path class="st0" d="M504.9,83.3c2.7-4.6,1.1-10.5-3.5-13.2c-4.6-2.7-10.5-1.1-13.1,3.5l-13.4,23.2l-30.3,52.7
		c-0.3,0-0.6-0.1-0.9-0.1c-3.7-0.4-7.3-0.4-11,0.1h0c-2.7,0.4-24.6,6.6-24.6,6.6c-5.9,0.5-12.2-0.9-17.8-4.1l-51.4-29.7
		c-6.5-3.7-8.7-12-5-18.5l9.5-16.5l42.2-72.9c2.7-4.6,1.1-10.5-3.5-13.2c-4.6-2.7-10.5-1.1-13.2,3.5l-13.5,23.3l-23.9,41.3L321.9,86
		l-4.7,8.1c-0.2,0.3-0.3,0.6-0.5,0.9c-1.2-0.6-9.3-4.4-21.1-7.7c-6-1.7-13.3-3.6-21.4-5.6c-4.4-1.1-9.1-2.2-14-3.3
		c-6.7-1.6-13.9-3.1-21.2-4.7c-4.6-1-9.3-2-14.1-3c-7-1.5-14-2.9-21.1-4.4c-4.6-0.9-9.3-1.9-13.9-2.8c-7.2-1.4-14.2-2.8-21.1-4.2
		c-28.4-5.5-52.6-10-63-11.9c-0.1,0-0.1,0-0.2,0c-3.1-0.5-6.1-0.7-9.1-0.6c-0.6,0-1.2,0-1.8,0.1C80.8,47.8,68.4,56,61.4,68l-0.2,0.3
		c-6.8,11.8-6.5,26-0.5,38.2c3.7,7.5,9.5,14.2,17.2,19.2l-1.9,2.7c-0.7,1.1-1.2,2.3-1.7,3.5c-1.8,4.8-2.1,10-0.8,15.1
		c1.2,4.3,3.4,8.2,6.5,11.2c1.4,1.4,3.1,2.6,4.8,3.7l2,1.2c1.3,0.7,2.6,1.4,4,1.8c1.9,0.7,3.9,1.1,5.8,1.3c0.8,0.1,1.6,0.1,2.4,0.1
		c2.1,0,4.3-0.3,6.4-0.8c3.7-1,7.1-2.8,9.9-5.3c1-0.9,1.9-1.8,2.7-2.9c0.8-1,1.6-2.1,2.2-3.2l1.8-2.6l9.3,5.4l5.4,3.1
		c-4.5,1.1-10,2.6-16.6,4.5c-36,10.9-67.7,33.9-89.5,65c-11.8,16.8-20.4,35.4-25.5,55c-0.1,0.5-0.3,1-0.4,1.4
		c-4.5,18-6.1,36.8-4.5,55.5c4,46,25.8,87.4,61.6,116.7c29.7,24.4,65.8,37.6,103.5,38.4c1.2,0,2.4,0,3.6,0c6.5,0,13-0.4,19.5-1.1
		c44-5,83.7-26.7,112-61.2c28.2-34.5,41.7-77.8,37.9-121.9c-0.2-1.8-0.3-3.6-0.5-5.5c1.4,0.2,2.8,0.3,4.2,0.4
		c1.6,0.1,14.4-0.2,21.6-10.7l0-0.1l1.2-2.1l1.8-3c5.1,1.8,11,2.8,16.1,2.8c0.2,0,0.4,0,0.6,0c11.7-0.2,22.7-4.7,30.2-13.1
		c1.7-1.9,3.3-4,4.6-6.3l15.9-27.5l37.3-64.5c5.3-9.2,1.6-21.3-8.3-26.9v0L504.9,83.3z M249.1,96l3.9,14.6l0.3,1.2l-3.3-0.6
		l-10.5-1.8l-4.4-16.6L249.1,96z M103.7,144.6c-0.5,1-1.7,1.8-3,2.2c-0.1,0-0.2,0.1-0.4,0.1c-1.2,0.3-2.5,0-3.6-0.6l-2-1.2
		c-1.1-0.6-1.9-1.6-2.3-2.8c0-0.1-0.1-0.2-0.1-0.4c-0.4-1.3-0.2-2.7,0.5-3.9l1.8-2.6l10.9,6.6L103.7,144.6z M113.1,223.4l0.2,0.2
		l14.5,12.7l-3.5,8l-15.6,36.2l-1.8,4l-37.8,5.2l-4.4,0.6l-6-37.6l22.3-17.5l23.9-18.8L113.1,223.4z M98.8,193.2
		c0,0.1,0.1,0.2,0.2,0.2c-0.1,0.1-0.2,0.2-0.3,0.3l-3.8,3l-19.6,15.4l-19.4,15.3C68,213.5,82.5,201.9,98.8,193.2z M19.3,342
		c0-0.1,0-0.2,0-0.3c-3.1-30.6,3.1-60.8,17.9-87.5l0.1,0.7l7.6,47.5c-0.3,0.6-0.5,1.2-0.7,1.8l-5.9,20.4l-5.1,17.8l-4.3,15.1L22,359
		C20.8,353.4,19.9,347.7,19.3,342z M65.3,436c-17.3-16.4-30.3-36.5-38.3-59.1l7.3-1.8l33.4,44.8l2.6,3.5l1.2,18.1
		C69.4,439.7,67.4,437.9,65.3,436z M83,409.3l-30.9-41.5l-2.7-3.6c0-0.1,0-0.2,0.1-0.2l0.3-1l14.6-50.8l16.5-2.3l25.3-3.5
		c0.8,0.9,1.8,2,3,3.2l28.1,31.4l8.9,10l-13.4,44.1l-2.8,9.1c-0.3,0-0.6,0-0.9,0.1l-38.8,3.9l-4,0.4C85.2,408.6,84,408.9,83,409.3z
		 M187.8,468.9l-22.2,8.8c-10.9-0.3-21.8-1.8-32.3-4.4c-14.8-3.7-29.1-9.7-42.3-17.7l-0.9-13.1L89.4,430l42.2-4.2
		c1.3-0.1,2.6-0.4,3.7-0.9l53.3,28.3L187.8,468.9z M151.3,408.8l2.8-9.3l6.6-21.9l6.1-20.1l39.5-2.7l13-0.9l5.4,12.5l14.9,34.6
		l-44,31.3L151.3,408.8z M209.3,472.5l-3-1.9l1-19.8l52.2-37.1c0.5-0.4,0.9-0.7,1.3-1.1c1,0.1,2,0.1,3,0l29.5-2.9c0,0,0.1,0,0.1,0
		l0.7,2.8C273.7,441.9,243.7,463.2,209.3,472.5z M291.3,388l-29.9,3c-0.8,0.1-1.5,0.2-2.2,0.4l-21.9-50.8l10.7-22.3l0.1-0.2
		c0.2-0.4,0.3-0.8,0.5-1.2c1.6-5.2-1-10.8-6-13c-3.9-1.7-8.3-0.9-11.4,1.7c-1.2,1-2.1,2.3-2.8,3.7l-11.1,23.1l-48.5,3.3l-8.2-8.6
		L128.8,294c-0.5-0.6-1.1-1.1-1.8-1.5l1-2.4l20.9-48.4l22.8-2.3c6.2-0.6,11.1-4.3,12.1-9.2c0.6-3-0.2-6-2.3-8.3
		c-2.7-3-7.1-4.5-11.8-4l-26,3.7l-9.9-8.7l-15.1-13.2l-3.5-3.1l1.8-10.3c19.2-6.3,33-9.4,42-11.1c-2,3.8-5.6,12-3.9,18.6
		c1.1,4.3,4.5,8.7,7.6,11.8c1.4,1.4,3.1,2.6,4.8,3.6l2,1.2c1.3,0.7,2.6,1.3,4,1.8c2.7,1,5.4,1.4,8.2,1.4c2.1,0,4.3-0.3,6.4-0.8
		c5-1.4,9.4-4.2,12.6-8.2c0.1-0.2,0.3-0.3,0.4-0.5c0.7-0.9,1.3-1.8,1.8-2.7l1.8-2.6l11.8,6.8l10.5,6.1c7.7,4.5,16.5,6,24.9,4.3
		c3.7-0.7,7.9,0,11.5,2.1l26.6,15.4c8.9,5.1,15.7,13.3,18.8,22.3c0.7,2.2,2.3,4.1,4.3,5.3l3,1.8l6.1,3.5l0.1,0l-3,4.9
		c0,0-0.1,0.1-0.1,0.2c-0.6,1-1.1,2-1.5,3.1c-2.7,6.7-2.1,13.1,1.1,18.7c0.3,4.3,0.7,11.1,0.7,12c0.1,2.4,0.3,4.9,0.4,6.2
		c0.2,5,0.7,18,0.6,22.8l-25.7,53.4C294.9,387.6,292.4,387.9,291.3,388z M188.1,189.3l-1.8,2.6c-0.8,1.4-2.1,2.2-3.5,2.5
		c-0.5,0.1-1.1,0.1-1.7,0.1h0c-0.7-0.1-1.3-0.3-1.9-0.7l-2-1.1h0c-0.2-0.1-0.3-0.2-0.5-0.4l0,0c-1.2-0.9-3-3-1.4-6.1
		c0.8-1.7,1.9-3.3,1.9-3.3l0,0l0.1-0.1l11,6.4L188.1,189.3L188.1,189.3z M305.3,398.6l13.4-27.8c-3.2,10.7-7.4,20.9-12.7,30.5
		L305.3,398.6z M347.1,287.2c-0.7,1.2-1.8,2-3,2.4c-0.8,0.3-1.8,0.3-2.7,0.1c-0.1,0-0.1,0-0.2,0c-0.1,0-0.2-0.1-0.3-0.1
		c-0.3-0.1-0.6-0.3-0.9-0.4l-2-1.2c-1.3-0.8-2.1-2-2.4-3.3c-0.3-1.2-0.1-2.6,0.6-3.8l2.8-4.6l11,6.3L347.1,287.2z M368.5,270.8
		l-14.5-8.3l-16.4-9.5l-11.8-6.8c-5-12.1-14.2-22.4-26.1-29.2l-22-12.7l-4.7-2.7c-7.7-4.5-16.6-6-24.9-4.3c-3.7,0.7-7.8,0-11.5-2.1
		l-69.5-40.1c0,0,0,0,0,0l-71.2-41.1v0l-6.1-3.5c-8.1-4.7-13.2-12.3-14.2-19.9c-0.5-3.6-0.1-7.3,1.4-10.6c4.1,7.9,10.5,14.8,19,19.7
		l105.3,60.8l12.8,7.4l19.4,11.2l9.4,5.4c5.5,3.2,11.6,4.9,17.7,5c2.4,0,4.8-0.2,7.2-0.7c0.3-0.1,0.6-0.1,0.9-0.1
		c3.5-0.5,7.3,0.3,10.6,2.3l26.6,15.4c8.9,5.1,20.5,16,23.5,25c0.8,2.2,2.3,4.1,4.3,5.3l8.1,4.7l32.8,19c7.6,4.4,15.9,6.6,24.2,6.6
		c0.2,0,0.4,0,0.5,0c0.4,0,0.8,0,1.3,0C394.2,275.6,380.2,277.5,368.5,270.8z M449,183.1l-17.1,29.7L421,231.6l-0.1,0.2l-3.3,5.8
		c-0.5,0.8-1,1.5-1.5,2.2c-0.6,0.8-1.2,1.4-1.9,2.1c-2.7,2.5-6.2,4.2-10.2,5c-6.5,1.3-13.4,0-19.6-3.5l-39.9-23
		c-5-12.1-17-24-28.9-30.9L288.9,174c-7.7-4.5-16.6-6-24.9-4.3c-3.7,0.7-7.9,0-11.4-2.1l-57.4-33.1l-34.7-20l-54.8-31.6
		c-6.8-3.9-11.4-9.9-13.4-16.2c3.2-0.7,6.6-0.7,10.2-0.2c14.4,2.6,30.6,5.7,47.5,9c0,0,46.7,9.3,63.9,12.8l4.1,15.3l4.5,16.8
		c1,3.6,4,6.4,7.7,7l4.5,0.8l20.9,3.6l9.3,1.6c0.5,0.1,1.1,0.1,1.6,0.1c0.9,0,1.8-0.1,2.6-0.4c1.7-0.5,3.3-1.4,4.5-2.8
		c2.2-2.4,3-5.8,2.2-9l-5.5-20.7l6.2,1.4c13,3.2,19.2,5.2,28.1,8.5l8.4,3.8c0.6,5.2,2.4,10.1,5.4,14.5c2.7,4,6.3,7.5,10.8,10.1
		l45.1,26.1l-13.8,3.7c-0.6,0.2-1.1,0.4-1.6,0.6c-4.1,2-6.4,6.6-5.2,11.2c1.1,4.3,5,7.1,9.3,7.1c0.8,0,1.7-0.1,2.5-0.3l19.9-5.3
		l46.6-12.5l3.9-1c5.6-0.6,11.6,0.7,17,3.5c0.3,0.2,0.6,0.4,0.9,0.5c0.5,0.3,0.8,0.6,0.9,0.8L449,183.1z"/>
	<path class="st0" d="M344.4,178.8c-1.8-1.8-4.3-2.8-6.8-2.8c-2.5,0-5,1-6.8,2.8c-1.8,1.8-2.8,4.3-2.8,6.8c0,2.5,1,5,2.8,6.8
		c1.8,1.8,4.3,2.8,6.8,2.8c2.5,0,5-1,6.8-2.8c1.8-1.8,2.8-4.3,2.8-6.8C347.3,183,346.2,180.6,344.4,178.8L344.4,178.8z"/>
	<path class="st0" d="M519.9,42.9c-1.8-1.8-4.3-2.8-6.8-2.8c-2.5,0-5,1-6.8,2.8c-1.8,1.8-2.8,4.3-2.8,6.8c0,2.5,1,5,2.8,6.8
		c1.8,1.8,4.3,2.8,6.8,2.8c2.5,0,5-1,6.8-2.8c1.8-1.8,2.8-4.3,2.8-6.8C522.7,47.2,521.7,44.7,519.9,42.9L519.9,42.9z"/>
</g>
</svg>
