<?xml version="1.0" encoding="utf-8"?>
<!-- Generator: Adobe Illustrator 21.0.0, SVG Export Plug-In . SVG Version: 6.00 Build 0)  -->
<svg version="1.1" id="Слой_1" xmlns="http://www.w3.org/2000/svg" xmlns:xlink="http://www.w3.org/1999/xlink" x="0px" y="0px"
	 viewBox="0 0 1615.8 2104.7" style="enable-background:new 0 0 1615.8 2104.7;" xml:space="preserve">
<style type="text/css">
	.st0{fill:none;stroke:#FF0000;stroke-width:70;stroke-linecap:round;stroke-linejoin:round;}
</style>
<g>
	<g>
		<path class="st0" d="M417.9,1162.1c0,0,580.5,177.1,748.3-524.1"/>
		<path class="st0" d="M1252.4,785.4L1166.2,638l-155.3,73.9"/>
	</g>
	<g>
		<g>
			<path class="st0" d="M828.9,339.3c-0.1-1.1-0.3-1.8-0.7-2.9c-1-3.4-2.8-6.5-5.3-9c-4-4-9.5-6.2-15.1-6.2s-11.1,2.3-15.1,6.2
				c-4,4-6.2,9.4-6.2,15c0,5.6,2.3,11.1,6.2,15.1c4,4,9.5,6.2,15.1,6.2c5.6,0,11.1-2.3,15.1-6.2c4-4,6.2-9.4,6.2-15.1
				c0-0.9,0-1.5-0.1-2.4"/>
		</g>
	</g>
	<path class="st0" d="M1580.8,1820.1l0-1427c0-89.4-72.8-162.3-162.3-162.3h-28.4l-206.3-0.3h-0.1v-38.5
		c-2.7-87-74.5-157.1-162.2-157.1H593.6c-1.1,0-2.3,0-3.4,0c-0.6,0-1.2,0-1.9,0c-1.7,0-3.3,0.1-5,0.2c-0.6,0-1.1,0.1-1.7,0.1
		c-2.6,0.2-5.1,0.4-7.6,0.7c-0.8,0.1-1.6,0.2-2.4,0.3c-0.2,0-0.4,0.1-0.6,0.1c-0.8,0.1-1.6,0.2-2.4,0.3c0,0-0.1,0-0.1,0
		c-0.9,0.1-1.8,0.3-2.7,0.4c-0.8,0.1-1.6,0.3-2.4,0.4c-0.1,0-0.2,0-0.4,0.1c-0.9,0.2-1.7,0.3-2.6,0.5c-0.9,0.2-1.8,0.4-2.7,0.6
		c-0.7,0.2-1.5,0.3-2.2,0.5c-0.6,0.1-1.2,0.3-1.8,0.5c-0.4,0.1-0.8,0.2-1.3,0.3c-0.8,0.2-1.7,0.4-2.5,0.7c-0.7,0.2-1.4,0.4-2.1,0.6
		c-0.5,0.2-1.1,0.3-1.6,0.5c-0.9,0.3-1.8,0.6-2.7,0.9c-0.9,0.3-1.9,0.6-2.8,0.9c-0.1,0-0.1,0-0.2,0.1c-0.6,0.2-1.2,0.4-1.8,0.6
		c-0.6,0.2-1.2,0.4-1.8,0.7c-0.6,0.2-1.2,0.5-1.8,0.7c-0.5,0.2-1,0.4-1.5,0.6c-0.2,0.1-0.3,0.1-0.5,0.2c-0.5,0.2-1.1,0.4-1.6,0.7
		c-0.6,0.2-1.2,0.5-1.8,0.8c-0.7,0.3-1.4,0.6-2,0.9c-0.5,0.2-1.1,0.5-1.6,0.7c0,0,0,0,0,0c-0.8,0.4-1.5,0.7-2.3,1.1
		c-0.7,0.4-1.5,0.7-2.2,1.1c-0.8,0.4-1.5,0.8-2.3,1.2c-0.4,0.2-0.9,0.5-1.4,0.7c-0.1,0-0.2,0.1-0.3,0.2c-3,1.6-6,3.3-8.9,5.1
		c-0.7,0.4-1.4,0.9-2.1,1.3c-0.4,0.3-0.8,0.5-1.3,0.8c-3.6,2.3-7,4.8-10.4,7.4c-0.5,0.4-1,0.8-1.5,1.2c-0.9,0.7-1.7,1.4-2.6,2.1
		c-0.5,0.4-0.9,0.8-1.4,1.2c-1,0.8-2,1.7-2.9,2.5c0,0-0.1,0.1-0.1,0.1c-0.3,0.3-0.6,0.5-0.9,0.8c-0.4,0.4-0.8,0.8-1.2,1.1
		c-0.3,0.2-0.5,0.5-0.8,0.7c-0.3,0.2-0.5,0.5-0.8,0.7c-0.2,0.2-0.5,0.4-0.7,0.6c-0.1,0.1-0.2,0.2-0.3,0.3c-0.2,0.2-0.4,0.3-0.5,0.5
		c-0.2,0.2-0.4,0.4-0.6,0.6l0,0c-0.2,0.2-0.4,0.4-0.6,0.6c-0.3,0.3-0.6,0.6-0.9,0.9c-0.2,0.2-0.4,0.4-0.5,0.5
		c-0.1,0.1-0.3,0.3-0.4,0.4c-0.9,0.9-1.7,1.8-2.6,2.7c-0.1,0.1-0.1,0.2-0.2,0.2c-0.9,0.9-1.7,1.8-2.5,2.8c0,0-0.1,0.1-0.1,0.1
		c-0.4,0.5-0.9,1-1.3,1.5c0.6-0.7,1.2-1.4,1.8-2c-0.2,0.2-0.3,0.3-0.4,0.5c0,0-0.1,0.1-0.1,0.1c-0.5,0.5-0.9,1-1.4,1.5
		c-0.8,0.9-1.5,1.8-2.3,2.7c-2.8,3.3-5.4,6.7-7.9,10.3c-0.4,0.6-0.8,1.2-1.2,1.8c-0.5,0.7-1,1.5-1.5,2.2c-0.5,0.8-1,1.5-1.5,2.3
		c-0.4,0.6-0.8,1.3-1.2,1.9c-0.4,0.7-0.8,1.3-1.2,2c-1.3,2.1-2.5,4.2-3.7,6.4c0,0,0,0,0,0c-0.6,1.1-1.2,2.2-1.7,3.3
		c-0.6,1.1-1.1,2.2-1.7,3.3c-1.2,2.5-2.4,5-3.5,7.6c-0.4,0.9-0.7,1.7-1.1,2.6c-0.2,0.6-0.5,1.1-0.7,1.7c-0.4,1.1-0.9,2.2-1.3,3.3
		c-0.2,0.6-0.5,1.3-0.7,1.9c-0.2,0.5-0.4,1-0.5,1.5c-0.2,0.6-0.4,1.2-0.6,1.9c0,0.1-0.1,0.2-0.1,0.3c-0.2,0.5-0.4,1.1-0.5,1.6
		c-0.2,0.6-0.4,1.2-0.5,1.8c-0.3,0.8-0.5,1.7-0.7,2.5c-0.1,0.5-0.3,0.9-0.4,1.4c-0.3,1.1-0.6,2.2-0.9,3.3c-0.2,0.7-0.3,1.4-0.5,2.1
		c-0.1,0.5-0.3,1.1-0.4,1.6c-0.1,0.4-0.2,0.8-0.3,1.3c-0.1,0.6-0.3,1.3-0.4,1.9c-0.3,1.4-0.6,2.8-0.8,4.2c-0.1,0.4-0.1,0.7-0.2,1.1
		c-0.1,0.5-0.2,1-0.3,1.5c-0.1,0.5-0.1,0.9-0.2,1.4c0,0,0,0.1,0,0.1c-0.1,0.5-0.1,1-0.2,1.5c-0.1,0.5-0.1,0.9-0.2,1.4
		c-0.1,0.7-0.2,1.5-0.3,2.2c-0.1,0.7-0.2,1.3-0.2,2c-0.2,1.6-0.3,3.2-0.4,4.7c0,0.7-0.1,1.3-0.1,2c0,0.9-0.1,1.7-0.1,2.6
		c0,0.8-0.1,1.5-0.1,2.3c0,1.7-0.1,3.5-0.1,5.2v33l-205.4,0.3h-28.4C107.8,230.8,35,303.7,35,393.1v1514.3
		c0,89.4,72.8,162.3,162.3,162.3h1221.3c89.4,0,162.3-72.8,162.3-162.3l0-85"/>
	<path class="st0" d="M1406,1795.8c0,50.9-41.5,95.4-91.6,99.7c-2.7,0.3-5.4,0.4-8.1,0.4h-34.1v0.1H301.4
		c-49.4-4.3-90.3-47.4-91.6-97.3V503c0-50.9,41.5-95,91.6-99.3c2.7-0.3,5.4-0.4,8.2-0.4h293.5V309l0.2,8.8v-53.9
		c0-1.4,0-2.8,0.1-4.2c2.2-40.6,35.9-75.4,76.2-78.9c1.7-0.2,3.4-0.3,5.1-0.3h251.8c40.4,3.5,74,38.2,76.2,78.9v143.8h301.6
		c50.1,4.3,91.6,48.8,91.6,99.7v1286.9"/>
	<line class="st0" x1="392.5" y1="866.4" x2="618.7" y2="636.9"/>
	<line class="st0" x1="389.1" y1="640.4" x2="622.1" y2="862.9"/>
	<g>
		<g>
			<line class="st0" x1="392.5" y1="1667.5" x2="618.7" y2="1438.1"/>
			<line class="st0" x1="389.1" y1="1441.8" x2="622.1" y2="1664.4"/>
		</g>
		<line class="st0" x1="1022.1" y1="1671.2" x2="1248.3" y2="1441.8"/>
		<line class="st0" x1="1018.7" y1="1445.5" x2="1251.7" y2="1668.1"/>
	</g>
</g>
</svg>
