<?xml version="1.0" encoding="utf-8"?>
<!-- Generator: Adobe Illustrator 22.0.1, SVG Export Plug-In . SVG Version: 6.00 Build 0)  -->
<svg version="1.1" id="Capa_1" xmlns="http://www.w3.org/2000/svg" xmlns:xlink="http://www.w3.org/1999/xlink" x="0px" y="0px"
	 viewBox="0 0 381.4 502" style="enable-background:new 0 0 381.4 502;" xml:space="preserve">
<style type="text/css">
	.st0{fill:#002A5F;}
</style>
<g>
	<g>
		<g>
			<path class="st0" d="M197.5,51.2c-1.8-1.8-4.3-2.8-6.9-2.8c-2.6,0-5.1,1-6.9,2.8C182,53,181,55.5,181,58c0,2.6,1,5.1,2.8,6.9
				c1.8,1.8,4.3,2.8,6.9,2.8c2.6,0,5.1-1,6.9-2.8c1.8-1.8,2.8-4.3,2.8-6.9C200.4,55.5,199.4,53,197.5,51.2z"/>
		</g>
	</g>
	<g>
		<g>
			<g>
				<path class="st0" d="M40,48.3c-22.1,0-40,18-40,40v22.9h19.5V67.8H47V48.3H40z"/>
				<path class="st0" d="M19.5,67.8v20.6c0-11,9.5-20.6,20.5-20.6H19.5z M19.5,67.8v20.6c0-11,9.5-20.6,20.5-20.6H19.5z"/>
				<path class="st0" d="M160.7,0c-21.6,0-39.3,17.3-40,38.8c0,0.4,0,0.9,0,1.3V63h19.5V19.5h20.1c0.1,0,0.3,0,0.4,0h7V0H160.7z"/>
			</g>
			<g>
				<path class="st0" d="M288.5,177.4c0,2.5-1,4.9-2.9,6.8c-1.7,1.7-3.4,1.7-5.6,1.7c-3.9,0-5.7-1.8-8-4.2l-8.4-8.4l-0.4,5
					c-4.7,63.6-54.4,101.6-132.8,101.6h-12.1c-5.9,0-9.8-3.8-9.8-9.8c0-5.9,3.8-9.8,9.8-9.8c31.8,0,56.6-4.3,75.8-13.2
					c29.1-13.5,45-37.4,47.2-71l0.4-6.1l-11.8,11.8l-0.2,0.3c-0.6,1.1-1.9,1.9-3.8,2.2c-3.3,0.5-7.2-0.6-9.4-2.8
					c-1.9-1.9-2.9-4.3-2.9-6.8c0-2.5,1.1-4.9,2.9-6.8l26.5-26.5c2.1-2.1,6.4-4.2,8-4.2c3.9,0,5.7,1.8,8,4.1l26.6,29
					C287.5,172.5,288.5,174.9,288.5,177.4z"/>
			</g>
		</g>
	</g>
	<path class="st0" d="M281.4,316.1c3.8,3.8,3.9,10,0.1,13.8l-14.3,14.5l14.5,14.3c3.8,3.8,3.9,10,0.1,13.8c-3.8,3.8-10,3.9-13.8,0.1
		l-14.5-14.3l-14.3,14.5c-1.9,1.9-4.4,2.9-6.9,2.9c-2.5,0-5-0.9-6.9-2.8c-3.8-3.8-3.9-10-0.1-13.8l14.3-14.5l-14.5-14.3
		c-3.8-3.8-3.9-10-0.1-13.8c1.9-1.9,4.4-2.9,6.9-2.9c2.5,0,5,0.9,6.9,2.8l14.5,14.3l14.3-14.5C271.4,312.4,277.6,312.3,281.4,316.1z
		"/>
	<path class="st0" d="M158.6,316.1c3.8,3.8,3.9,10,0.1,13.8l-14.3,14.5l14.5,14.3c3.8,3.8,3.9,10,0.1,13.8c-3.8,3.8-10,3.9-13.8,0.1
		l-14.5-14.3l-14.3,14.5c-1.9,1.9-4.4,2.9-6.9,2.9c-2.5,0-5-0.9-6.9-2.8c-3.8-3.8-3.9-10-0.1-13.8l14.3-14.5l-14.5-14.3
		c-3.8-3.8-3.9-10-0.1-13.8c1.9-1.9,4.4-2.9,6.9-2.9c2.5,0,5,0.9,6.9,2.8l14.5,14.3l14.3-14.5C148.6,312.4,154.8,312.3,158.6,316.1z
		"/>
	<path class="st0" d="M158.4,148.4c3.8,3.8,3.9,10,0.1,13.8l-14.3,14.5l14.5,14.3c3.8,3.8,3.9,10,0.1,13.8c-3.8,3.8-10,3.9-13.8,0.1
		l-14.5-14.3l-14.3,14.5c-1.9,1.9-4.4,2.9-6.9,2.9c-2.5,0-5-0.9-6.9-2.8c-3.8-3.8-3.9-10-0.1-13.8l14.3-14.5l-14.5-14.3
		c-3.8-3.8-3.9-10-0.1-13.8c1.9-1.9,4.4-2.9,6.9-2.9c2.5,0,5,0.9,6.9,2.8l14.5,14.3l14.3-14.5C148.3,144.7,154.5,144.7,158.4,148.4z
		"/>
	<path class="st0" d="M260.8,40V63h-19.5V40c0-0.3,0-0.7,0-1c-0.5-10-8.8-18.6-18.8-19.5c-0.6-0.1-1.1-0.1-1.7-0.1h-7V0h7
		c21.6,0,39.3,17.3,40,38.7C260.8,39.2,260.8,39.6,260.8,40z"/>
	<path class="st0" d="M167.7,0v19.5h-7c-0.1,0-0.3,0-0.4,0c-0.4,0-0.8,0-1.3,0.1c-10,0.9-18.3,9.4-18.8,19.5c0,0.3,0,0.7,0,1V63
		h-19.6V40.1c0-0.4,0-0.9,0-1.3c0.4-12.1,6.2-22.8,15-30c0,0,0,0,0,0c0.7-0.6,1.5-1.2,2.3-1.7c0.3-0.2,0.5-0.4,0.8-0.5
		c0.5-0.3,1.1-0.7,1.6-1c6-3.6,13-5.6,20.4-5.6H167.7z"/>
	<path class="st0" d="M381.4,439V462c0,22.1-18,40-40,40h-7v-19.5h7c0.6,0,1.1,0,1.7-0.1c10.3-0.9,18.8-10,18.8-20.5V439H381.4z"/>
	<path class="st0" d="M47,482.5V502h-7C18,502,0,484,0,462V439h19.5V462c0,10.5,8.5,19.6,18.8,20.5c0.6,0.1,1.1,0.1,1.7,0.1H47z"/>
	<path class="st0" d="M341.3,48.3h-7l-73.6-0.1h0v-9.5C260.1,17.3,242.4,0,220.7,0h-53v19.5h-7c-0.1,0-0.3,0-0.4,0h80.9v76.9H140.2
		V63h-19.5V40.1c0-0.4,0-0.9,0-1.3c0.3-10.2,4.5-19.6,11.2-26.5c-6.7,6.9-10.9,16.3-11.2,26.5c0,0.4,0,0.9,0,1.3v8.1L47,48.3h-7
		c-22.1,0-40,18-40,40V462c0,22.1,18,40,40,40h301.3c22.1,0,40-18,40-40V88.4C381.4,66.3,363.4,48.3,341.3,48.3z M294.8,116
		c10.3,0.9,18.8,10,18.8,20.5v297.7h-227c-10.1-0.9-18.6-9.7-18.8-20V116H294.8z M361.8,482.5H19.5V67.8h101.1v28.7H88.3
		c-22.1,0-40,18-40,40v278.2c0.5,21.3,17.7,38.5,39,39h205.9c22.1,0,40-18.1,40-40.1V136.5c0-22.1-18-40-40-40h-32.3V67.8h80.6
		c11,0,20.5,9.5,20.5,20.6V482.5z"/>
	<path class="st0" d="M48.3,390.8v24c0-0.3,0-0.7,0-1L48.3,390.8L48.3,390.8z"/>
	<path class="st0" d="M95.3,453.7L95.3,453.7l-7,0c-0.3,0-0.7,0-1,0H95.3z"/>
	<path class="st0" d="M333.1,390.7v22.9c0,22.1-18,40.1-40,40.1h-7v-19.6h7c0.6,0,1.1,0,1.7-0.1c10.3-0.9,18.8-10,18.8-20.5v-22.9
		H333.1z"/>
	<path class="st0" d="M95.3,96.5V116h-7c-0.6,0-1.1,0-1.7,0.1c-10.3,0.9-18.8,9.9-18.8,20.4v22.9H48.3v-22.9c0-22.1,18-40,40-40
		H95.3z"/>
</g>
</svg>
