<?xml version="1.0" encoding="utf-8"?>
<!-- Generator: Adobe Illustrator 22.0.1, SVG Export Plug-In . SVG Version: 6.00 Build 0)  -->
<svg version="1.1" id="Capa_1" xmlns="http://www.w3.org/2000/svg" xmlns:xlink="http://www.w3.org/1999/xlink" x="0px" y="0px"
	 viewBox="0 0 485.8 502" style="enable-background:new 0 0 485.8 502;" xml:space="preserve">
<style type="text/css">
	.st0{fill:#002A5F;}
</style>
<g>
	<g>
		<g>
			<g>
				<g>
					<g>
						<g>
							<g>
								<path class="st0" d="M197.5,268.9l-10.9-21.9c-0.7-1.4-0.7-3.1,0-4.5c5-10,7.6-20.5,7.6-31.1c0-12.7-3.6-25-10.8-36.7
									c-16.7-27.2-49.6-44.8-83.7-45l-3.1,0h-0.1c-25.9,0.8-50.1,11.5-68.2,30.2C10,178.7,0,203.3,0,229.3
									c0,26.1,10,50.6,28.1,69.2v57.1c0,8.9,7.3,16.2,16.2,16.2h68.4c8.9,0,16.2-7.3,16.2-16.2v-12.7c6.8,1.2,13.9,1.8,20.9,1.8
									c10.2,0,19.2-6.5,22.4-16.1l11.2-33.5l11.7-11.7C198.9,279.5,199.9,273.7,197.5,268.9z M180.3,274.6l-11.5,11.5l-12.4,37.2
									c-0.9,2.8-3.6,4.7-6.6,4.7c-33.9,0-55.4-15.1-68.3-24.1c-0.5-0.3-1-0.7-1.4-1l-0.1-0.1c-2-1.4-4.4-1.8-6.7-1.3
									c-2.3,0.6-4.3,2.1-5.4,4.2c-0.6,1.2-0.9,2.5-0.9,3.9c0,2.7,1.3,5.3,3.6,6.8l0.4,0.3c0.4,0.3,0.7,0.5,1.1,0.8
									c8.7,6.1,21.7,15.2,40.3,21.3v15.7c0,0.4-0.3,0.7-0.7,0.7H45.5c-0.4,0-0.7-0.3-0.7-0.7v-56.8c0-3.8-1.5-7.5-4.2-10.2
									c-15.4-15.7-23.9-36.3-23.9-58.2c0-20,7.3-39.4,20.5-54.5c13.1-15,31-24.7,50.6-27.5l1.1-0.2l1.7-0.2
									c2.7-0.3,5.4-0.4,8.1-0.4H99c14.1,0,28.1,3.5,40.7,10.2c12.4,6.6,22.5,15.8,29.2,26.5c10.3,16.5,11.2,34.9,2.7,52l-1,2
									c-2.4,4.8-2.4,10.6,0,15.4l10,20C181,273.2,180.9,274,180.3,274.6z"/>
							</g>
						</g>
					</g>
				</g>
			</g>
		</g>
	</g>
	<g>
		<g>
			<g>
				<g>
					<g>
						<g>
							<g>
								<g>
									<path class="st0" d="M457.7,160c-18.1-18.7-42.3-29.4-68.2-30.2h-0.1l-3.1,0c-34.2,0.2-67.1,17.9-83.8,45
										c-13.2,21.5-14.3,45.5-3.2,67.7c0.3,0.7,0.5,1.5,0.5,2.2c0,0.8-0.2,1.6-0.5,2.2l-10.9,21.9c-2.4,4.8-1.5,10.6,2.3,14.4
										l11.7,11.7l11.1,33.5c3.2,9.6,12.2,16.1,22.4,16.1c7.1,0,14.1-0.6,20.9-1.8v12.7c0,8.9,7.3,16.2,16.2,16.2h68.4
										c8.9,0,16.2-7.3,16.2-16.2v-57.1c9-9.2,15.9-19.8,20.7-31.6c4.9-11.9,7.3-24.6,7.3-37.6C485.8,203.3,475.8,178.7,457.7,160
										z M445.3,287.4L445.3,287.4c-2.7,2.8-4.2,6.4-4.2,10.2v56.8c0,0.4-0.3,0.7-0.8,0.7h-66.1c-0.4,0-0.7-0.3-0.7-0.7v-15.7
										c18.5-6,31.6-15.2,40.2-21.2l1.6-1.1c3.4-2.4,4.5-7,2.6-10.7c-1.4-2.8-4.3-4.5-7.4-4.5c-1.7,0-3.4,0.5-4.7,1.5
										c-0.5,0.4-1.1,0.7-1.6,1.1c-12.9,9-34.4,24.1-68.3,24.1c-3,0-5.6-1.9-6.6-4.7L317,286.1l-11.5-11.5
										c-0.5-0.5-0.7-1.4-0.3-2.1l10-20c2.4-4.8,2.4-10.6,0-15.4l-1-2c-8.5-17-7.5-35.5,2.7-52c6.7-10.7,16.8-19.9,29.2-26.5
										c12.6-6.7,26.6-10.2,40.7-10.2h0.4c2.7,0,5.4,0.2,8.1,0.4l1.2,0.1l1.6,0.2c19.5,2.8,37.5,12.6,50.6,27.6
										c13.2,15.1,20.5,34.5,20.5,54.5C469.2,251.1,460.7,271.7,445.3,287.4z"/>
								</g>
							</g>
						</g>
					</g>
				</g>
			</g>
		</g>
	</g>
	<g>
		<path class="st0" d="M397.3,77.7c-0.4,2.6-1.8,4.8-3.9,6.3v0c-4.2,2.9-9.9,2.1-13-1.9C353.3,47.1,305.3,23,255.1,19.4
			C203.4,15.7,154.6,33,116.4,68.3l17.1,0.8c2.4,0.1,4.6,1.1,6.2,2.9c1.6,1.8,2.4,4.1,2.3,6.5c-0.2,4.8-4.2,8.6-9,8.6
			c-0.1,0-0.3,0-0.5,0l-37.9-1.7c-3.6-0.2-6.5-2.9-6.9-6.5L84.1,41c-0.2-2.4,0.5-4.7,2-6.6c1.5-1.9,3.7-3,6-3.2
			c4.9-0.5,9.3,3.1,9.8,8l1.5,15.2c42-38.9,96-57.9,152.9-53.9c28.7,2.1,57,10.1,82,23.2c22.9,12,42.6,28.2,57,46.8
			C397,72.6,397.7,75.2,397.3,77.7z"/>
	</g>
	<g>
		<g>
			<path class="st0" d="M390.6,467.6c-1.5,1.9-3.7,3-6.1,3.2c-4.9,0.5-9.3-3.1-9.8-8l-1.5-15.2C334.9,483,286.7,502,235.3,502
				c-5,0-10-0.2-15-0.5c-28.7-2.1-57-10.1-82-23.2c-22.9-12-42.6-28.2-57-46.8c-1.6-2.1-2.3-4.6-1.9-7.2c0.4-2.5,1.8-4.9,3.9-6.3
				c4.2-3,9.9-2.1,13,1.9c27.1,35.1,75.2,59.1,125.4,62.7c51.6,3.7,100.5-13.6,138.6-48.9l-17.1-0.8c-2.4-0.1-4.6-1.2-6.2-2.9
				c-1.6-1.8-2.4-4.1-2.3-6.5c0.2-4.8,4.1-8.5,9-8.5c0.2,0,0.3,0,0.5,0l37.8,1.7c3.5,0.2,6.5,3,6.9,6.5l3.8,37.8
				C392.8,463.4,392.1,465.7,390.6,467.6z"/>
		</g>
	</g>
	<g>
	</g>
</g>
</svg>
