<?xml version="1.0" encoding="utf-8"?>
<!-- Generator: Adobe Illustrator 21.0.0, SVG Export Plug-In . SVG Version: 6.00 Build 0)  -->
<svg version="1.1" id="Слой_1" xmlns="http://www.w3.org/2000/svg" xmlns:xlink="http://www.w3.org/1999/xlink" x="0px" y="0px"
	 viewBox="0 0 2096.3 2174.7" style="enable-background:new 0 0 2096.3 2174.7;" xml:space="preserve">
<style type="text/css">
	.st0{fill:none;stroke:#FF0000;stroke-width:70;stroke-linecap:round;stroke-linejoin:round;}
</style>
<path class="st0" d="M1577.7,1444.6l2.1,113.9l356.3,6.2l10.4-279.6c0,0,149-163.6,107.7-352.1s-153.6-323.1-374.9-325.2
	s-352.5,116-372.8,240.3c-20.3,124.3,26.9,211.3,26.9,211.3l-58,130.5l55.9,68.4c0,0,59.8,180.2,76.6,192.6s118.1,60.1,370.8-116
	 M317.7,1335.8c252.7,176.1,353.9,128.4,370.8,116s76.6-192.6,76.6-192.6l55.9-68.4l-58-130.5c0,0,47.2-87,26.9-211.3
	S638.5,606.7,417.1,608.8S83.6,745.5,42.2,934s107.7,352.1,107.7,352.1l10.4,279.6l356.3-6.2l2.1-113.9"/>
<path class="st0" d="M380.5,1834c0,0,556.2,683.5,1258.3,6.2"/>
<path class="st0" d="M1651.2,2012.2l-2.1-178.1l-182.3-8.3"/>
<path class="st0" d="M1677.1,340.6c0,0-556.2-683.5-1258.3-6.2"/>
<path class="st0" d="M406.4,162.5l2.1,178.1l182.3,8.3"/>
</svg>
