<?xml version="1.0" encoding="utf-8"?>
<!-- Generator: Adobe Illustrator 21.0.0, SVG Export Plug-In . SVG Version: 6.00 Build 0)  -->
<svg version="1.1" id="Слой_1" xmlns="http://www.w3.org/2000/svg" xmlns:xlink="http://www.w3.org/1999/xlink" x="0px" y="0px"
	 viewBox="0 0 473.4 475.4" style="enable-background:new 0 0 473.4 475.4;" xml:space="preserve">
<style type="text/css">
	.st0{fill:none;stroke:#FF0000;stroke-width:15;stroke-linecap:round;stroke-linejoin:round;}
</style>
<g>
	<path class="st0" d="M355.6,153.7c-9,9-23.8,9-32.8,0c-9-9-9-23.8,0-32.8c4.4-4.4,10.2-6.8,16.4-6.8c6.2,0,12,2.4,16.4,6.8
		C364.7,129.9,364.7,144.6,355.6,153.7"/>
	<path class="st0" d="M79.4,347.1l-24.6,12.2c-17.2,8.6-28.7,25.8-30,45l-1,14.2c-0.5,7.7,2.3,15.2,7.7,20.7c5,5,11.8,7.8,18.9,7.8
		c0.6,0,1.2,0,1.8-0.1l14.2-1c19.2-1.3,36.4-12.8,45-30l12.2-24.6"/>
	<path class="st0" d="M209.4,160.6l-32.5-1c-41.2,0-80,16.1-109.1,45.3L23.7,249l109.3,5.6 M234.7,322.7l-13.6,10.5 M221.1,333.3
		l5.6,108.1l44.1-44.1c29.2-29.2,45.3-68,45.3-109.3v-28.4"/>
	<path class="st0" d="M465.9,10.9l-0.3,5c-4.1,84.3-44.7,162.3-111.4,214.1L192.9,355.2c-13.4-7.8-25.8-17.1-37.3-27.5l54.4-54.4
		c4-4,4-10.5,0-14.5c-4-4-10.5-4-14.5,0l-54.3,54.3c-10-11.1-18.8-23.1-26.4-36l18.3-22.5l76.4-94l37.6-46.3
		c50.6-62.3,125.7-101,205.8-106.2l9.6-0.6c1.3-0.1,2.1,0.5,2.5,0.9C465.3,8.8,466,9.6,465.9,10.9z"/>
	<path class="st0" d="M175.2,344.1c-3.5,2.9-7.2,6-10.8,9c-5.4,4.5-10.9,9.1-16,13.3c-9.9-5.4-18.8-12-26.6-19.9
		c-7.6-7.6-14-16.3-19.2-25.9l22.2-26.4"/>
	<g>
		<g>
			<path class="st0" d="M237.4,235.8c0-0.1,0-0.2-0.1-0.4c-0.1-0.4-0.4-0.8-0.7-1.1c-0.5-0.5-1.2-0.8-1.9-0.8
				c-0.7,0-1.4,0.3-1.9,0.8c-0.5,0.5-0.8,1.2-0.8,1.9c0,0.7,0.3,1.4,0.8,1.9c0.5,0.5,1.2,0.8,1.9,0.8c0.7,0,1.4-0.3,1.9-0.8
				c0.5-0.5,0.8-1.2,0.8-1.9C237.4,236,237.4,236,237.4,235.8"/>
		</g>
	</g>
	<g>
		<g>
			<path class="st0" d="M12.9,464.8c0-0.1,0-0.2-0.1-0.4c-0.1-0.4-0.4-0.8-0.7-1.1c-0.5-0.5-1.2-0.8-1.9-0.8c-0.7,0-1.4,0.3-1.9,0.8
				c-0.5,0.5-0.8,1.2-0.8,1.9s0.3,1.4,0.8,1.9c0.5,0.5,1.2,0.8,1.9,0.8c0.7,0,1.4-0.3,1.9-0.8c0.5-0.5,0.8-1.2,0.8-1.9
				C12.9,465.1,12.9,465,12.9,464.8"/>
		</g>
	</g>
</g>
</svg>
