<?xml version="1.0" encoding="utf-8"?>
<!-- Generator: Adobe Illustrator 22.0.1, SVG Export Plug-In . SVG Version: 6.00 Build 0)  -->
<svg version="1.1" id="Layer_1" xmlns="http://www.w3.org/2000/svg" xmlns:xlink="http://www.w3.org/1999/xlink" x="0px" y="0px"
	 viewBox="0 0 512 512" style="enable-background:new 0 0 512 512;" xml:space="preserve">
<style type="text/css">
	.st0{fill:#002A5F;}
</style>
<g>
	<g>
		<g>
			<path class="st0" d="M405.3,166.2c-1.4-1.5-3.3-2.4-5.4-2.6l-91.8-8.4h-35.1l1.7-26l33.2-6.7l46.4,10.4c0.9,0.2,1.9,0.3,2.9,0.2
				l36.7-4.4c4.7-0.6,8-4.8,7.4-9.5v0c-0.6-4.7-4.8-8-9.4-7.5l-35.2,4.2l-46.7-10.5c-1.2-0.3-2.4-0.3-3.5,0l-31.8,6.4
				c-4.9-8.8-11.3-16.7-18.9-23.3l34.4-17.3c2.9-1.4,6.2-1.6,9.2-0.4l26.4,10.6c4.4,1.8,9.3-0.4,11.1-4.8v0
				c1.7-4.4-0.4-9.4-4.7-11.1l-34.6-13.9c-2.3-0.9-4.8-0.8-7,0.3l-51,25.6l0.1,0.2c-7.4-3.8-15.2-6.6-23.4-8.1l65.6-48
				c3.7-2.7,8.3-3.6,12.7-2.6l131.9,31.2l68.3,53.4c3.7,2.9,9,2.2,11.9-1.5v0c2.9-3.7,2.2-9.1-1.5-12l-69.8-54.6
				c-1-0.8-2.1-1.3-3.3-1.6l-142-33.6c-5.2-1.8-9.1,0.6-11.1,2.1l-91,66.6c-46.4,7.1-78.2,50.7-71.2,97.3s50.4,78.7,96.8,71.6
				c34.6-5.3,62.5-31.4,70.1-65.8h23.6l87.9,8l42.3,44.5c5.3,6,11.2,5.7,13.5,5.7h47.2c4.7,0,8.5-3.8,8.5-8.5v0
				c0-4.7-3.8-8.5-8.5-8.5h-41.6c-4.1,0-8-1.7-10.8-4.7L405.3,166.2z M182.1,219.8c-36.2-10.2-57.3-48.1-47.2-84.5
				s47.8-57.7,84-47.4c16.8,4.7,31.1,15.8,40.1,30.8l0,0c-0.4,0.9-0.7,1.9-0.8,2.9l-2.8,41.6c-0.3,4.7,3.2,8.8,7.9,9.1
				c0.2,0,0.4,0,0.6,0h2.1C256,208.8,218.3,230,182.1,219.8z"/>
		</g>
	</g>
	<g>
		<g>
			<path class="st0" d="M234.8,138.5v-2.3c-1.1-13.5-12-24.1-25.5-24.8v-9h-17v9c-13.5,0.7-24.4,11.3-25.5,24.8
				c1.2,13.4,11.9,24,25.3,24.8l14.9,2.2c6.7,1,10.8,4.8,10.8,7.9c0,3.8-5.9,8.2-13.9,8.2h-6.2c-8,0-13.9-4.2-13.9-8.1v-2.3h-17v2.3
				c1.1,13.5,12,24.1,25.5,24.8v9h17v-9c13.5-0.7,24.4-11.3,25.5-24.8c-1.2-13.4-11.9-24-25.3-24.8l-14.9-2.2
				c-6.7-1-10.8-4.8-10.8-7.9c0-3.8,5.9-8.2,13.9-8.2h6.2c8,0,13.9,4.3,13.9,8.2v2.3H234.8z"/>
		</g>
	</g>
	<g>
		<g>
			<path class="st0" d="M395.3,346.1c-6.3-41.8-42-72.8-84.1-72.7c-39.8,0.1-74.2,27.8-82.9,66.8h-23.6l-82.5-7.5
				c-3.4-0.3-6.6-1.9-9-4.4l-41.5-43.7c-1.6-1.7-3.8-2.6-6.1-2.6H13.8c-4.7,0-8.5,3.8-8.5,8.5l0,0c0,4.7,3.8,8.5,8.5,8.5h43.9
				c2.6,0,5.2,1.1,7,3l40.4,42.6c3.3,3.2,6.7,4.5,11.5,4.8l87.3,7.9h35l-1.7,26l-28,5.6c-3.5,0.7-7,0.7-10.5-0.1l-38-8.5
				c-4-1.1-9.2-0.5-10.2-0.4l-32.5,3.9c-4.7,0.6-8,4.8-7.4,9.5l0,0c0.6,4.7,4.8,8,9.4,7.5l26.7-3.2c5.7-0.7,11.4-0.4,16.9,0.9
				l37.1,8.3c3.6,0.8,5,0.2,7-0.1l29.6-6c4.9,8.8,11.3,16.7,18.9,23.3l-34.7,17.4c-2.7,1.4-5.9,1.5-8.8,0.4L186.3,431
				c-4.4-1.8-9.3,0.4-11.1,4.8h0c-1.7,4.4,0.4,9.4,4.7,11.1l34.6,13.9c2.3,0.9,4.8,0.8,7-0.3l51-25.6l-0.1-0.2
				c7.4,3.8,15.2,6.6,23.4,8.1l-66.2,48.4c-3.3,2.4-7.5,3.3-11.5,2.3L85.5,462l-68.3-53.4c-3.7-2.9-9-2.2-11.9,1.5h0
				c-2.9,3.7-2.2,9.1,1.5,12l69.8,54.6c1,0.8,2.1,1.3,3.3,1.6l138,32.7c6.8,1.5,10.2,1.5,14.9-1l91.2-66.7
				C370.4,436.2,402.3,392.7,395.3,346.1z M376.7,377.5c-8.3,29.4-35,49.7-65.5,49.7c-23.9-0.1-46-12.8-58.3-33.4
				c0.4-0.9,0.7-1.9,0.8-2.9l2.8-41.6c0.3-4.7-3.2-8.8-7.9-9.1c-0.2,0-0.4,0-0.6,0h-2.1c10.3-36.3,47.9-57.4,84-47.1
				C366,303.4,386.9,341.2,376.7,377.5z"/>
		</g>
	</g>
	<g>
		<g>
			<path class="st0" d="M352.3,367.7c-1.1-3.3-2.9-6.3-5.2-8.9c9.4-10.3,8.7-26.4-1.6-35.9c-2.5-2.3-5.5-4.1-8.8-5.3v-10.1h-17v8.5
				h-17v-8.5h-17v8.5h-8.5v17.1h8.5v51.3h-8.5v17.1h8.5v8.5h17v-8.5h17v8.5h17V400C349.9,395.4,356.9,380.9,352.3,367.7z
				 M328.2,384.5h-25.5v-17.1h25.5c4.7,0,8.5,3.8,8.5,8.5C336.7,380.6,332.9,384.5,328.2,384.5z M328.2,350.3h-25.5v-17.1h25.5
				c4.7,0,8.5,3.8,8.5,8.5S332.9,350.3,328.2,350.3z"/>
		</g>
	</g>
</g>
</svg>
