<?xml version="1.0" encoding="utf-8"?>
<!-- Generator: Adobe Illustrator 21.0.0, SVG Export Plug-In . SVG Version: 6.00 Build 0)  -->
<svg version="1.1" id="Слой_1" xmlns="http://www.w3.org/2000/svg" xmlns:xlink="http://www.w3.org/1999/xlink" x="0px" y="0px"
	 viewBox="0 0 473.8 476.7" style="enable-background:new 0 0 473.8 476.7;" xml:space="preserve">
<style type="text/css">
	.st0{fill:none;stroke:#FF0000;stroke-width:15;stroke-linecap:round;stroke-linejoin:round;}
</style>
<g>
	<g>
		<path class="st0" d="M252.8,152.2c-4.5,36-35.1,63.8-72.3,63.8c-40.2,0-72.8-32.6-72.8-72.8c0-40.2,32.6-72.8,72.8-72.8
			c30,0,55.8,18.2,67,44.1l-2.1,0.6l-3.5,36.5L252.8,152.2z"/>
		<polyline class="st0" points="466.3,95.1 395.3,38.5 261.3,7.5 176.8,70.3 		"/>
		<polyline class="st0" points="219.2,81.4 267.8,55.5 308.5,71.2 		"/>
		<polyline class="st0" points="252.8,152.2 366.8,159.5 411.8,208.5 463.3,208.5 		"/>
		<polyline class="st0" points="247.5,114.4 280.8,105.5 326.3,115 364.6,111.2 		"/>
	</g>
	<g>
		<path class="st0" d="M221,324.5c4.5-36,35.1-63.8,72.3-63.8c40.2,0,72.8,32.6,72.8,72.8c0,40.2-32.6,72.8-72.8,72.8
			c-30,0-55.8-18.2-67-44.1l2.1-0.6l3.5-36.5L221,324.5z"/>
		<polyline class="st0" points="7.5,381.5 78.5,438.2 212.5,469.2 297,406.4 		"/>
		<polyline class="st0" points="254.7,395.3 206,421.2 165.3,405.5 		"/>
		<polyline class="st0" points="221,324.5 107,317.2 62,268.2 10.5,268.2 		"/>
		<polyline class="st0" points="226.4,362.2 193,371.2 147.5,361.7 109.2,365.4 		"/>
	</g>
	<line class="st0" x1="180.2" y1="175.8" x2="180.2" y2="191.6"/>
	<line class="st0" x1="180.2" y1="108.3" x2="180.2" y2="91.6"/>
	<path class="st0" d="M200,125.5c0-9.4-9.4-16.9-20.7-16.5c-10.1,0.4-18.3,7.3-18.8,15.7c-0.5,9.3,8.3,16.3,19.1,17.3
		c15.2,1.4,20.4,7.6,20.4,16.5c0,9.1-8.8,16.5-19.8,16.5c-8.4,0-15.6-4.4-18.5-10.7"/>
</g>
<path class="st0" d="M273.2,307.4c0,0,23.7,0,31.4,0c7.7,0,13.9,6.2,13.9,13.9c0,7.3-5.7,13.4-12.9,13.9c-0.3,0-26.5,0-26.8,0
	c-0.1,0,26.5,0,26.5,0c0.1,0,0.2,0,0.3,0c7.5,0.1,12.9,6.3,12.9,13.9c0,7.7-6.2,13.9-13.9,13.9c-4.4,0-32,0-32,0"/>
<line class="st0" x1="278.9" y1="299.2" x2="278.9" y2="371.2"/>
<line class="st0" x1="304.6" y1="363.6" x2="304.6" y2="370.9"/>
<line class="st0" x1="304.6" y1="299.4" x2="304.6" y2="307.5"/>
</svg>
