<svg width="50" height="50" viewBox="0 0 50 50" fill="none" xmlns="http://www.w3.org/2000/svg">
<path d="M39.4864 19.8708C39.8147 19.556 39.9993 19.1301 40 18.6861C40.0007 18.242 39.8175 17.8157 39.4903 17.4999C39.163 17.1841 38.7183 17.0045 38.2528 17.0001C37.7874 16.9957 37.339 17.1669 37.0053 17.4765C37.0015 17.4818 36.9966 17.4865 36.991 17.4901L24.9954 28.9344L12.9997 17.4901C12.6676 17.1796 12.2206 17.0067 11.7557 17.009C11.2908 17.0112 10.8456 17.1884 10.5168 17.502C10.1881 17.8157 10.0024 18.2404 10 18.6839C9.99767 19.1275 10.1789 19.554 10.5043 19.8708L23.7477 32.5054C24.0739 32.8193 24.5172 32.9971 24.9805 33C25.4438 33.0028 25.8894 32.8305 26.2199 32.5207L26.2359 32.5054L39.4864 19.8708Z" fill="#333333"/>
</svg>
