<svg width="50" height="50" viewBox="0 0 50 50" fill="none" xmlns="http://www.w3.org/2000/svg">
<path d="M10.5136 30.1292C10.1853 30.444 10.0007 30.8698 10 31.3139C9.99928 31.758 10.1825 32.1843 10.5097 32.5001C10.837 32.8159 11.2817 32.9955 11.7472 32.9999C12.2126 33.0043 12.661 32.8331 12.9947 32.5235C12.9985 32.5182 13.0034 32.5135 13.009 32.5099L25.0046 21.0656L37.0003 32.5099C37.3324 32.8204 37.7794 32.9933 38.2443 32.991C38.7092 32.9888 39.1544 32.8116 39.4832 32.498C39.8119 32.1843 39.9976 31.7596 40 31.3161C40.0023 30.8725 39.8211 30.446 39.4957 30.1292L26.2523 17.4946C25.9261 17.1807 25.4828 17.0029 25.0195 17C24.5562 16.9972 24.1106 17.1695 23.7801 17.4793L23.7641 17.4946L10.5136 30.1292Z" fill="#333333"/>
</svg>
