<svg width="50" height="50" viewBox="0 0 50 50" fill="none" xmlns="http://www.w3.org/2000/svg">
<path d="M30.1292 39.4864C30.444 39.8147 30.8698 39.9993 31.3139 40C31.758 40.0007 32.1843 39.8175 32.5001 39.4903C32.8159 39.163 32.9955 38.7183 32.9999 38.2528C33.0043 37.7874 32.8331 37.339 32.5235 37.0053C32.5182 37.0015 32.5135 36.9966 32.5099 36.991L21.0656 24.9954L32.5099 12.9997C32.8204 12.6676 32.9933 12.2206 32.991 11.7557C32.9888 11.2908 32.8116 10.8456 32.498 10.5168C32.1843 10.1881 31.7596 10.0024 31.3161 10C30.8725 9.99767 30.446 10.1789 30.1292 10.5043L17.4946 23.7477C17.1807 24.0739 17.0029 24.5172 17 24.9805C16.9972 25.4438 17.1695 25.8894 17.4793 26.2199L17.4946 26.2359L30.1292 39.4864Z" fill="#333333"/>
</svg>
