<svg width="50" height="50" viewBox="0 0 50 50" fill="none" xmlns="http://www.w3.org/2000/svg">
<path d="M50 25C50 11.2132 38.7868 0 25 0C11.2132 0 0 11.2132 0 25C0 38.7868 11.2132 50 25 50C38.7868 50 50 38.7868 50 25ZM2.02206 25C2.02206 12.3264 12.3264 2.02206 25 2.02206C37.6736 2.02206 47.9779 12.3264 47.9779 25C47.9779 37.6736 37.6736 47.9779 25 47.9779C12.3264 47.9779 2.02206 37.6736 2.02206 25Z" fill="#333333"/>
<path d="M28.0775 33.4919C28.2664 33.6888 28.5219 33.7996 28.7883 33.8C29.0548 33.8004 29.3106 33.6905 29.5 33.4942C29.6895 33.2978 29.7973 33.031 29.7999 32.7517C29.8026 32.4724 29.6998 32.2034 29.5141 32.0032C29.5109 32.0009 29.5081 31.998 29.5059 31.9946L22.6394 24.7972L29.5059 17.5998C29.6922 17.4006 29.7959 17.1324 29.7946 16.8534C29.7933 16.5745 29.6869 16.3074 29.4988 16.1101C29.3106 15.9129 29.0557 15.8014 28.7896 15.8C28.5235 15.7986 28.2676 15.9073 28.0775 16.1026L20.4968 24.0486C20.3084 24.2443 20.2017 24.5103 20.2 24.7883C20.1983 25.0663 20.3017 25.3337 20.4876 25.5319L20.4967 25.5416L28.0775 33.4919Z" fill="#333333"/>
</svg>
