<svg width="50" height="50" viewBox="0 0 50 50" fill="none" xmlns="http://www.w3.org/2000/svg">
<path d="M50 25C50 11.2132 38.7868 0 25 0C11.2132 0 0 11.2132 0 25C0 38.7868 11.2132 50 25 50C38.7868 50 50 38.7868 50 25ZM2.02206 25C2.02206 12.3264 12.3264 2.02206 25 2.02206C37.6736 2.02206 47.9779 12.3264 47.9779 25C47.9779 37.6736 37.6736 47.9779 25 47.9779C12.3264 47.9779 2.02206 37.6736 2.02206 25Z" fill="#333333"/>
<path d="M21.9225 16.1082C21.7336 15.9112 21.4781 15.8004 21.2117 15.8C20.9452 15.7996 20.6894 15.9095 20.4999 16.1058C20.3105 16.3022 20.2027 16.569 20.2 16.8483C20.1974 17.1276 20.3002 17.3966 20.4859 17.5968C20.4891 17.5991 20.4919 17.602 20.494 17.6054L27.3606 24.8028L20.494 32.0002C20.3078 32.1994 20.204 32.4677 20.2054 32.7466C20.2067 33.0255 20.313 33.2927 20.5012 33.4899C20.6894 33.6871 20.9442 33.7986 21.2104 33.8C21.4765 33.8014 21.7324 33.6927 21.9225 33.4974L29.5032 25.5514C29.6916 25.3557 29.7983 25.0897 29.8 24.8117C29.8017 24.5337 29.6983 24.2664 29.5124 24.0681L29.5032 24.0584L21.9225 16.1082Z" fill="#333333"/>
</svg>
