<svg width="50" height="50" viewBox="0 0 50 50" fill="none" xmlns="http://www.w3.org/2000/svg">
<path d="M19.8708 10.5136C19.5559 10.1853 19.1301 10.0007 18.6861 10C18.242 9.99928 17.8157 10.1825 17.4999 10.5097C17.1841 10.837 17.0045 11.2817 17.0001 11.7472C16.9957 12.2126 17.1669 12.661 17.4765 12.9947C17.4818 12.9985 17.4865 13.0034 17.4901 13.009L28.9344 25.0046L17.4901 37.0003C17.1796 37.3324 17.0067 37.7794 17.009 38.2443C17.0112 38.7092 17.1884 39.1544 17.502 39.4832C17.8157 39.8119 18.2404 39.9976 18.6839 40C19.1275 40.0023 19.554 39.8211 19.8708 39.4957L32.5054 26.2523C32.8193 25.9261 32.9971 25.4828 33 25.0195C33.0028 24.5562 32.8305 24.1106 32.5207 23.7801L32.5054 23.7641L19.8708 10.5136Z" fill="#333333"/>
</svg>
