<svg width="50" height="50" viewBox="0 0 50 50" fill="none" xmlns="http://www.w3.org/2000/svg">
<path d="M50 25C50 11.2132 38.7868 0 25 0C11.2132 0 0 11.2132 0 25C0 38.7868 11.2132 50 25 50C38.7868 50 50 38.7868 50 25ZM2.02206 25C2.02206 12.3264 12.3264 2.02206 25 2.02206C37.6736 2.02206 47.9779 12.3264 47.9779 25C47.9779 37.6736 37.6736 47.9779 25 47.9779C12.3264 47.9779 2.02206 37.6736 2.02206 25Z" fill="#333333"/>
<path d="M16.3081 27.8775C16.1112 28.0664 16.0004 28.3219 16 28.5883C15.9996 28.8548 16.1095 29.1106 16.3058 29.3001C16.5022 29.4895 16.769 29.5973 17.0483 29.6C17.3276 29.6026 17.5966 29.4998 17.7968 29.3141C17.7991 29.3109 17.802 29.3081 17.8054 29.306L25.0028 22.4394L32.2002 29.306C32.3994 29.4922 32.6676 29.596 32.9466 29.5946C33.2255 29.5933 33.4927 29.487 33.6899 29.2988C33.8871 29.1106 33.9986 28.8558 34 28.5896C34.0014 28.3235 33.8927 28.0676 33.6974 27.8775L25.7514 20.2968C25.5557 20.1084 25.2897 20.0017 25.0117 20C24.7337 19.9983 24.4664 20.1017 24.2681 20.2876L24.2584 20.2968L16.3081 27.8775Z" fill="#333333"/>
</svg>
