<svg width="50" height="50" viewBox="0 0 50 50" fill="none" xmlns="http://www.w3.org/2000/svg">
<path d="M50 25C50 11.2132 38.7868 0 25 0C11.2132 0 0 11.2132 0 25C0 38.7868 11.2132 50 25 50C38.7868 50 50 38.7868 50 25ZM2.02206 25C2.02206 12.3264 12.3264 2.02206 25 2.02206C37.6736 2.02206 47.9779 12.3264 47.9779 25C47.9779 37.6736 37.6736 47.9779 25 47.9779C12.3264 47.9779 2.02206 37.6736 2.02206 25Z" fill="#333333"/>
<path d="M33.6919 21.7225C33.8888 21.5336 33.9996 21.2781 34 21.0117C34.0004 20.7452 33.8905 20.4894 33.6942 20.2999C33.4978 20.1105 33.231 20.0027 32.9517 20C32.6724 19.9974 32.4034 20.1002 32.2032 20.2859C32.2009 20.2891 32.198 20.2919 32.1946 20.2941L24.9972 27.1606L17.7998 20.2941C17.6006 20.1078 17.3324 20.004 17.0534 20.0054C16.7745 20.0067 16.5073 20.1131 16.3101 20.3012C16.1129 20.4894 16.0014 20.7442 16 21.0104C15.9986 21.2765 16.1073 21.5324 16.3026 21.7225L24.2486 29.3032C24.4443 29.4916 24.7103 29.5983 24.9883 29.6C25.2663 29.6017 25.5336 29.4983 25.7319 29.3124L25.7416 29.3032L33.6919 21.7225Z" fill="#333333"/>
</svg>
