<svg width="50" height="50" viewBox="0 0 50 50" fill="none" xmlns="http://www.w3.org/2000/svg">
<path d="M10.5136 37.1292C10.1853 37.444 10.0007 37.8698 10 38.3139C9.99928 38.758 10.1825 39.1843 10.5097 39.5001C10.837 39.8159 11.2817 39.9955 11.7472 39.9999C12.2126 40.0043 12.661 39.8331 12.9947 39.5235C12.9985 39.5182 13.0034 39.5135 13.009 39.5099L25.0046 28.0656L37.0003 39.5099C37.3324 39.8204 37.7794 39.9933 38.2443 39.991C38.7092 39.9888 39.1544 39.8116 39.4832 39.498C39.8119 39.1843 39.9976 38.7596 40 38.3161C40.0023 37.8725 39.8211 37.446 39.4957 37.1292L26.2523 24.4946C25.9261 24.1807 25.4828 24.0029 25.0195 24C24.5562 23.9972 24.1106 24.1695 23.7801 24.4793L10.5136 37.1292Z" fill="#333333"/>
<path d="M39.4864 13.8708C39.8147 13.556 39.9993 13.1301 40 12.6861C40.0007 12.242 39.8175 11.8157 39.4903 11.4999C39.163 11.1841 38.7183 11.0045 38.2528 11.0001C37.7874 10.9957 37.339 11.1669 37.0053 11.4765C37.0015 11.4818 36.9966 11.4865 36.991 11.4901L24.9954 22.9344L12.9997 11.4901C12.6676 11.1796 12.2206 11.0067 11.7557 11.009C11.2908 11.0112 10.8456 11.1884 10.5168 11.502C10.1881 11.8157 10.0024 12.2404 10 12.6839C9.99767 13.1275 10.1789 13.554 10.5043 13.8708L23.7477 26.5054C24.0739 26.8193 24.5172 26.9971 24.9805 27C25.4438 27.0028 25.8894 26.8305 26.2199 26.5207L39.4864 13.8708Z" fill="#333333"/>
</svg>
