<svg width="50" height="50" viewBox="0 0 50 50" fill="none" xmlns="http://www.w3.org/2000/svg">
<g clip-path="url(#clip0)">
<path d="M22.3752 16.8675C22.2908 16.844 22.2015 16.844 22.117 16.8675C22.0552 16.8498 21.9896 16.8498 21.9277 16.8675C21.854 16.9036 21.7921 16.96 21.7494 17.0302C21.7067 17.1003 21.685 17.1812 21.6867 17.2633V32.8744C21.6865 32.9518 21.7072 33.0278 21.7466 33.0944C21.786 33.1611 21.8426 33.2159 21.9105 33.253C21.9805 33.2956 22.0609 33.3181 22.1429 33.3181C22.2248 33.3181 22.3052 33.2956 22.3752 33.253L33.1153 25.4561C33.1682 25.4117 33.211 25.3565 33.2407 25.2941C33.2704 25.2317 33.2863 25.1637 33.2874 25.0947C33.2862 25.0281 33.2701 24.9626 33.2403 24.9031C33.2105 24.8435 33.1678 24.7914 33.1153 24.7504L22.3752 16.8675Z" fill="#333333"/>
<path d="M50 25.0086C50.0034 20.0609 48.5391 15.2234 45.7925 11.1081C43.0458 6.99282 39.1402 3.78473 34.5697 1.88976C29.9993 -0.00521568 24.9695 -0.50192 20.1167 0.462494C15.2639 1.42691 10.8062 3.8091 7.30765 7.30765C3.8091 10.8062 1.42691 15.2639 0.462494 20.1167C-0.50192 24.9695 -0.00521568 29.9993 1.88976 34.5697C3.78473 39.1402 6.99282 43.0458 11.1081 45.7925C15.2234 48.5391 20.0609 50.0034 25.0086 50C28.2944 50.0137 31.5503 49.3766 34.5885 48.1255C37.6268 46.8744 40.3873 45.034 42.7107 42.7107C45.0341 40.3873 46.8744 37.6268 48.1255 34.5885C49.3766 31.5503 50.0137 28.2944 50 25.0086V25.0086ZM25.0086 47.3838C19.8326 47.3817 14.8174 45.5852 10.8174 42.3004C6.81735 39.0155 4.07987 34.4454 3.07129 29.3686C2.0627 24.2918 2.8454 19.0224 5.28604 14.458C7.72669 9.89354 11.6743 6.31643 16.4564 4.336C21.2386 2.35558 26.5594 2.09434 31.5125 3.59679C36.4657 5.09924 40.7447 8.27245 43.6207 12.5759C46.4968 16.8793 47.7919 22.0467 47.2855 27.1978C46.779 32.349 44.5024 37.1652 40.8434 40.8262C38.7658 42.9093 36.2979 44.5623 33.5807 45.6905C30.8636 46.8187 27.9507 47.4 25.0086 47.401V47.3838Z" fill="#333333"/>
</g>
<defs>
<clipPath id="clip0">
<rect width="50" height="50" fill="white"/>
</clipPath>
</defs>
</svg>
