<svg version="1.1" id="Режим_изоляции" xmlns="http://www.w3.org/2000/svg" x="0" y="0" viewBox="0 0 91.5 95.9" xml:space="preserve"><switch><g><path class="st0" d="M84.3 89.7c-11.4 10.6-32.5 7.2-51.5-6.8v11H19.2c-3.4 0-6.2-2.8-6.2-6.2V62.6C-1.7 41.7-4.5 18.4 7.6 7.1c14.3-13.3 39.7-5.9 53.2 4.8-9.5-6.9-35.9-16.5-49-4.3C.1 18.4 5 42.7 22.8 61.8 38 78.1 57.6 85.4 70.3 80.3c5.3-2.1 5.7-8.1 4.7-12.6h15.5c.6 1.1 1.6 4.7.8 9.3-1.2 5-3.5 9.4-7 12.7"/><path class="st0" d="M22.9 13.3c6.5 0 11.7 5.2 11.7 11.7 0 6.5-5.2 11.7-11.7 11.7-6.5 0-11.7-5.2-11.7-11.7 0-6.5 5.3-11.7 11.7-11.7m16.3 55.9v.8c6.8 3.9 13.6 6.2 19.8 6.7V56.6h29.2l-4.5-10.2c-1.7-3.9-4-5.6-8.4-5.6H59V23.7c0-3.4-2.8-6.2-6.2-6.2H39.2v51.7zM13 40.9c-.1 3.2.5 3.9 2.6 7s4.5 6.1 7.1 8.9c3.2 3.4 6.6 6.5 10.1 9.1v-25H13z"/><path class="st0" d="M70.3 27C56.8 9.4 30.6 1.1 11.8 11.9 30-4.8 61.1 9.9 71 21.5c1.9 1.9 3.6 4 4.9 6.3l2.5-5.9H83l-4.6 10.9H73.7v-.1c-.8-2-2-3.9-3.4-5.7"/></g></switch></svg>