<?xml version="1.0" encoding="utf-8"?>
<!-- Generator: Adobe Illustrator 22.0.1, SVG Export Plug-In . SVG Version: 6.00 Build 0)  -->
<svg version="1.1" id="Режим_изоляции"
	 xmlns="http://www.w3.org/2000/svg" xmlns:xlink="http://www.w3.org/1999/xlink" x="0px" y="0px" viewBox="0 0 154.8 137.5"
	 style="enable-background:new 0 0 154.8 137.5;" xml:space="preserve">
<style type="text/css">
	.st0{fill:#002169;}
</style>
<g>
	<g>
		<path class="st0" d="M154.8,41.7c0-20.2-14.2-36.6-31.6-36.6c-7.9,0.1-15.4,3.4-20.8,9.1C97,5.7,87.6,0.2,77.4,0
			C67.2,0.3,57.8,5.7,52.4,14.2c-5.4-5.7-12.9-9-20.9-9.1C14.2,5.1,0,21.5,0,41.7c0,17.6,11,32.7,25.7,36l-4.6,7.7
			c-1.1,1.8-0.5,4.1,1.3,5.2c0.6,0.3,1.2,0.5,1.9,0.5h4.3c0.6,3.6,0.4,7.3-0.6,10.7c-0.6,1.9-1.4,3.8-2.5,5.5
			c-1.4,2.4-2.3,5-2.7,7.8c-0.7,5.7,1.2,11.7,5.7,17.8c0.5,0.8,1.3,1.3,2.2,1.5c0.9,0.2,1.9,0,2.7-0.5s1.3-1.3,1.5-2.2
			c0.2-0.9,0-1.9-0.5-2.7c-0.1-0.1-0.2-0.2-0.2-0.3c-3.4-4.6-4.9-8.9-4.4-12.7c0.3-1.9,1-3.6,2-5.3c1.3-2.2,2.3-4.5,3.1-7
			c1.1-4.1,1.4-8.5,0.7-12.7l2.8,0c1.2,0,2.4-0.5,3.2-1.4c1-1.3,1.1-3,0.3-4.3l-4.6-7.6c7.9-1.9,14.8-6.7,19.2-13.6
			c4,4.2,9.3,7.2,15,8.5L67,80.3c-1.1,1.8-0.5,4.1,1.3,5.2c0.6,0.3,1.2,0.5,1.9,0.5h3.6v47.9c0,2,1.6,3.5,3.5,3.5l0,0
			c2,0,3.5-1.6,3.5-3.5V86h3.6c2.1,0,3.8-1.7,3.8-3.8c0-0.7-0.2-1.4-0.6-2l-4.6-7.7c5.7-1.3,10.9-4.3,15-8.5
			c4.4,6.9,11.2,11.7,19.2,13.6l-4.6,7.6c-0.5,0.9-0.7,1.9-0.5,2.9c0.2,1,0.8,1.8,1.7,2.4c0.6,0.4,1.3,0.6,2,0.6h3
			c-0.6,4.2-0.4,8.6,0.7,12.7c0.7,2.4,1.7,4.7,3,7c1,1.6,1.7,3.4,2,5.2c0.5,3.7-1,8-4.4,12.7c-1.3,1.5-1,3.8,0.5,5
			c1.5,1.3,3.8,1,5-0.5c0.1-0.1,0.2-0.2,0.2-0.3c4.6-6.2,6.5-12.2,5.8-17.9c-0.4-2.7-1.4-5.3-2.8-7.7c-1-1.7-1.8-3.6-2.4-5.5
			c-0.9-3.5-1.1-7.3-0.4-10.8l4.1,0c1.2,0,2.4-0.5,3.2-1.4c1-1.3,1.1-3,0.3-4.3l-4.6-7.7C143.8,74.5,154.8,59.3,154.8,41.7z
			 M30.2,84l1.4-2.3l1.4,2.3H30.2z M31.6,71.3C18.1,71.3,7.1,58,7.1,41.7c0-16.3,11-29.5,24.5-29.6c6.8,0.1,13.2,3.4,17.4,8.8
			c-2,5-3.1,10.3-3.1,15.7c0,7.6,2.1,15,6.1,21.5C47.3,66.4,39.8,71.3,31.6,71.3z M76,78.9l1.4-2.3l1.4,2.3H76z M77.4,66.2
			c-13.5,0-24.5-13.3-24.5-29.6c0-16.3,11-29.5,24.5-29.5c9,0,17.3,6,21.6,15.7c1.9,4.4,2.9,9.1,2.8,13.9
			C101.8,52.9,90.9,66.2,77.4,66.2z M121.8,84l1.4-2.3l1.4,2.3H121.8z M123.2,71.3c-8.2,0-15.8-4.9-20.3-13.1
			c4-6.5,6.1-13.9,6.1-21.5c0-5.4-1-10.7-3.1-15.7c4.1-5.3,10.6-8.6,17.3-8.8c13.5,0,24.5,13.3,24.5,29.6
			C147.7,58,136.7,71.3,123.2,71.3z"/>
	</g>
</g>
</svg>
