<?xml version="1.0" encoding="utf-8"?>
<!-- Generator: Adobe Illustrator 22.0.1, SVG Export Plug-In . SVG Version: 6.00 Build 0)  -->
<svg version="1.1" id="Режим_изоляции"
	 xmlns="http://www.w3.org/2000/svg" xmlns:xlink="http://www.w3.org/1999/xlink" x="0px" y="0px" viewBox="0 0 128.9 149.8"
	 style="enable-background:new 0 0 128.9 149.8;" xml:space="preserve">
<style type="text/css">
	.st0{fill:#002169;}
</style>
<g>
	<g>
		<path class="st0" d="M99.7,67c0.2-1.3,0.5-3.7,0.5-6.3c0-2.9-0.4-5.6-0.6-6.5c-0.2-10.3-17.8-15.6-35-15.6
			c-17.3,0-34.8,5.4-35,15.7c-0.2,1.1-0.6,3.7-0.6,6.4c0,2.6,0.4,5.1,0.5,6.3c-0.2,1.1-0.5,3.6-0.5,6.3c0,2.5,0.3,4.9,0.5,6.2
			c-0.2,0.9-0.4,2.8-0.5,4.9C12.7,86.2,0,100.3,0,116.9c0,18.1,14.7,32.9,32.9,32.9c12.1,0,23.1-6.6,28.9-17.2
			c1.8,0.1,3.1,0.1,4.7,0c0.6,0,1.2,0,1.8-0.1c0.3,0,0.5,0,0.8,0c0.1,0,0.2,0,0.2,0l1.7-0.1c0.4,0,0.9-0.1,1.5-0.1
			c16.2-1.5,26.6-7.2,27.2-14.7c0.1-0.8,0.6-3.8,0.6-6.8c0-2.8-0.4-5.4-0.5-6.3c0.4-2.8,0.5-5,0.5-6.3c0-1.3-0.1-3.4-0.5-6.3
			c0.4-2.8,0.5-5,0.5-6.3c0-2.7-0.3-5.1-0.5-6.2c0.2-1.1,0.5-3.6,0.5-6.2C100.2,70.7,99.9,68.3,99.7,67z M64.6,45.5
			c18.1,0,28,5.9,28,8.8v0.1c-0.1,3.1-9.8,8.9-28,8.9c-18.2,0-27.9-5.8-28-8.8c0-0.1,0-0.2,0-0.2C36.7,51.3,46.4,45.5,64.6,45.5z
			 M32.9,142.9c-14.3,0-25.9-11.6-25.9-26C6.9,102.6,18.6,91,32.9,91c14.3,0,26,11.6,26,25.9C58.8,131.2,47.2,142.9,32.9,142.9z
			 M61.4,100.7c-1.2-2.1-2.6-4-4.3-5.8c2.5,0.2,5,0.3,7.5,0.3c7.2,0,14.1-0.9,19.9-2.6c0.9-0.3,1.6-0.8,2.1-1.7
			c0.4-0.8,0.5-1.7,0.3-2.6c-0.5-1.8-2.5-2.9-4.3-2.3c-5.2,1.5-11.4,2.3-17.9,2.3c-10.5,0-20.2-2.1-25.3-5.5l-0.1-0.1
			c-1.7-1.1-2.6-2.3-2.7-3.3c0-0.1,0-0.2,0-0.4c0-0.1,0-0.1,0-0.2l0-0.2c-0.1-0.3-0.2-1.2-0.3-2.3c1.4,0.5,3.1-0.1,4-1.3
			c0.5-0.8,0.7-1.7,0.5-2.6c-0.2-0.9-0.7-1.7-1.5-2.2c-1.6-1.1-2.6-2.3-2.7-3.2c0-0.1,0-0.2,0-0.4c0-0.1,0-0.2,0-0.3
			c0,0-0.2-1-0.3-2.3c6.4,3.9,17,6.3,28.4,6.3c11.5,0,22.1-2.4,28.4-6.3c-0.1,0.7-0.1,1.3-0.2,1.7c-0.1,0.4-0.1,0.6-0.1,0.6l0,0.4
			c0,0.1,0,0.2,0,0.2c0,0.9-1,2.2-2.8,3.3c-5.1,3.4-14.8,5.5-25.3,5.5c-7.3,0-14.3-1-19.7-2.9c-0.9-0.3-1.8-0.3-2.7,0.2
			c-0.8,0.4-1.5,1.1-1.8,2c-0.6,1.8,0.3,3.8,2.1,4.4c6.1,2.1,13.9,3.3,22,3.3c11.5,0,22.1-2.3,28.4-6.3c-0.1,1.1-0.3,1.9-0.3,2.1
			c0,0.1,0,0.1,0,0.2l0,0.1c0,0.1,0,0.3,0,0.4v0c0,0.9-1,2.2-2.8,3.3c-0.4,0.3-0.8,0.5-1.2,0.7c-1.7,0.9-2.3,3-1.3,4.7
			c0.6,1.1,1.8,1.8,3,1.8c0.6,0,1.2-0.2,1.7-0.4c0.3-0.2,0.6-0.4,0.9-0.5c-0.1,0.7-0.2,1.5-0.3,2.2c0,0.2-0.1,0.5-0.1,0.7v0
			c-0.1,0.9-1,2.1-2.5,3.1l-0.2,0.1c-5.1,3.4-14.8,5.5-25.3,5.5C63.6,100.8,62.6,100.7,61.4,100.7z M92.8,116.3c0,0.1,0,0.3,0,0.4
			l0,0.2c-0.1,2.8-7.5,7.3-21.1,8.5c-0.4,0-0.7,0.1-1.2,0.1l-1.6,0.1c-0.1,0-0.2,0-0.3,0l-0.3,0c-0.2,0-0.3,0-0.5,0
			c-0.5,0-1,0-1.5,0.1h-0.1c-0.5,0-1,0-1.4,0h-0.2c0.5-1.8,0.8-3.6,1-5.6c1,0,2,0,2.9-0.1c0.9,0,1.8-0.4,2.4-1.1
			c0.6-0.7,0.9-1.6,0.9-2.5c-0.1-1.9-1.7-3.3-3.6-3.3c-0.8,0-1.7,0.1-2.7,0.1c-0.2-1.9-0.6-3.7-1.1-5.6c0.1,0,0.2,0,0.3,0
			c11.6,0,22.2-2.4,28.4-6.3c-0.1,0.7-0.2,1.5-0.3,2.2c0,0.3-0.1,0.5-0.1,0.7v0.1c-0.1,0.9-1.1,2.1-2.8,3.3c0,0-0.1,0.1-0.1,0.1
			c-3.1,2-8,3.7-13.8,4.6c-0.9,0.1-1.7,0.6-2.3,1.4c-0.5,0.8-0.8,1.7-0.6,2.6c0.3,1.9,2,3.2,4,2.9c6.6-1,12.1-2.9,16-5.3
			C93,115.1,92.8,116,92.8,116.3z"/>
		<path class="st0" d="M43.2,122.9c0,4.2-2.5,7.9-6.4,9.4v2.1c0,2-1.6,3.6-3.6,3.6s-3.6-1.6-3.6-3.6v-1.9c-4.2-1.3-7.1-5.2-7.1-9.7
			c0-2,1.6-3.6,3.6-3.6s3.6,1.6,3.6,3.6c0,1.6,1.3,2.9,2.9,2.9h0.5c1.6,0,2.9-1.3,2.9-2.9c0-0.9-0.5-1.9-1.4-2.5
			c-0.5-0.4-1-0.6-1.6-0.7c-0.3,0-0.5-0.1-0.8-0.1l-0.1,0c-0.7-0.1-1.7-0.2-2.8-0.5c-3.9-1.4-6.5-5.1-6.5-9.3c0-4.3,2.7-8,6.8-9.3
			v-1.1c0-2,1.6-3.6,3.6-3.6s3.6,1.6,3.6,3.6v1.3c3.7,1.5,6.1,5.1,6.1,9.1c0,2-1.6,3.6-3.6,3.6c-2,0-3.6-1.6-3.6-3.6
			c0-1.4-1.2-2.6-2.6-2.6h-0.4c-1.4,0-2.6,1.2-2.6,2.6c0,1.1,0.7,2.1,1.7,2.4c0.2,0.1,0.6,0.1,0.9,0.1c0.6,0,1.2,0.1,1.8,0.2
			c1.5,0.3,3,1,4.3,1.9C41.6,116.6,43.2,119.7,43.2,122.9z"/>
	</g>
	<g>
		<path class="st0" d="M24.3,64.3c0,1.9-1.5,3.5-3.5,3.5h-17c-1.9,0-3.5-1.6-3.5-3.5c0-1.9,1.6-3.5,3.5-3.5h17
			C22.8,60.8,24.3,62.4,24.3,64.3z"/>
	</g>
	<g>
		<path class="st0" d="M128.9,64.3c0,1.9-1.6,3.5-3.5,3.5h-17c-1.9,0-3.5-1.6-3.5-3.5c0-1.9,1.6-3.5,3.5-3.5h17
			C127.4,60.8,128.9,62.4,128.9,64.3z"/>
	</g>
	<g>
		<path class="st0" d="M37.2,33.3c0,0.9-0.4,1.8-1,2.4c-0.7,0.7-1.5,1-2.5,1c-0.9,0-1.8-0.4-2.5-1l-12-12c-0.7-0.6-1-1.5-1-2.5
			c0-0.9,0.4-1.8,1-2.4c1.3-1.3,3.6-1.3,4.9,0l12,12C36.8,31.5,37.2,32.4,37.2,33.3z"/>
	</g>
	<g>
		<path class="st0" d="M68.1,3.5v17c0,1.9-1.5,3.5-3.5,3.5c-1.9,0-3.5-1.6-3.5-3.5v-17c0-1.9,1.6-3.5,3.5-3.5
			C66.6,0,68.1,1.5,68.1,3.5z"/>
	</g>
	<g>
		<path class="st0" d="M111.1,21.3c0,0.9-0.4,1.8-1,2.5l-12,12c-0.7,0.7-1.5,1-2.5,1c-0.9,0-1.8-0.4-2.4-1c-0.7-0.7-1-1.5-1-2.4
			c0-0.9,0.4-1.8,1-2.5l12-12c1.3-1.3,3.6-1.3,4.9,0C110.8,19.5,111.1,20.3,111.1,21.3z"/>
	</g>
</g>
</svg>
