<?xml version="1.0" encoding="utf-8"?>
<!-- Generator: Adobe Illustrator 22.0.1, SVG Export Plug-In . SVG Version: 6.00 Build 0)  -->
<svg version="1.1" id="Режим_изоляции"
	 xmlns="http://www.w3.org/2000/svg" xmlns:xlink="http://www.w3.org/1999/xlink" x="0px" y="0px" viewBox="0 0 147.2 151.9"
	 style="enable-background:new 0 0 147.2 151.9;" xml:space="preserve">
<style type="text/css">
	.st0{fill:#002169;}
</style>
<g>
	<g>
		<g>
			<g>
				<path class="st0" d="M141,87.2h-0.7V68.6c0-3.3-1.5-6.4-4-8.4v-2c0-4.4-3.3-8.1-7.6-8.6l4.8-7.1c2.6-3.8,1.6-9-2.2-11.6
					L88.1,1.5c-1.8-1.3-4.1-1.7-6.3-1.3c-2.2,0.4-4.1,1.7-5.3,3.5l-9.9,14.4c0-0.9-0.2-1.8-0.8-2.5c-0.6-0.7-1.5-1.2-2.5-1.3
					l-32.9-3.3c-2.2-0.2-4.4,0.4-6.1,1.9c-1.7,1.4-2.8,3.4-3,5.6l-3.1,30.9h-4.1c-4.8,0-8.7,3.9-8.7,8.7v1C2.1,61.1,0,64.7,0,68.6
					V141c0,6,4.9,10.9,10.9,10.9h118.4c6,0,10.9-4.9,10.9-10.9v-18.6h0.7c3.5,0,6.3-2.8,6.3-6.3V93.5C147.2,90,144.4,87.2,141,87.2z
					 M128.9,57.7h-5.8l0.6-1h3.8C128.2,56.8,128.7,57.2,128.9,57.7z M82.4,7.7c0.2-0.3,0.4-0.4,0.7-0.5c0.3-0.1,0.6,0,0.9,0.2
					l43.2,29.4c0.5,0.3,0.6,1,0.3,1.6l-13.1,19.3h-1.1l5.1-8.2c1.4-2.1,1.5-4.7,0.3-6.8c-1.1-1.9-1.5-4.2-1.2-6.4
					c0.3-2.4-0.8-4.8-2.8-6.2L95.3,17c-2-1.4-4.6-1.5-6.8-0.3c-1.1,0.6-2,0.5-3.7,0.1c-0.6-0.1-1.1-0.2-1.8-0.3
					c-2.4-0.3-4.9,0.8-6.3,2.8L50.5,57.7h-2.1L82.4,7.7z M84.1,41.4c-9.5,0-17.5,7-18.8,16.3h-6.1l23.2-34c0.3,0,0.5,0.1,0.8,0.1
					c2.8,0.4,5.4,0.8,8.3-0.6l18.6,12.6c-0.4,3.4,0.3,6.9,1.9,10l-7.5,11.9h-1.6C101.6,48.5,93.6,41.4,84.1,41.4z M95.6,57.7H72.7
					c1.2-5.2,6-9,11.4-9C89.6,48.7,94.3,52.5,95.6,57.7z M28.5,19.3c0-0.3,0.2-0.6,0.4-0.8c0.2-0.2,0.5-0.3,0.8-0.3l32.9,3.3
					c0.7,0.1,1.3-0.1,1.9-0.3L39.6,57.7l-6,0.1l2.3-23.2c3.2-1.3,6-3.6,7.9-6.4l9.4,0.9c2,0.2,3.8-1.3,4-3.3c0.2-2-1.3-3.8-3.3-4
					l-9.9-1c-2.5-0.3-4.8,0.9-6.1,3c-1.2,1.9-3,3.3-5,4.1c-2.3,0.9-3.9,3-4.2,5.4l-2.4,24.4l-1.6,0L28.5,19.3z M14.2,56.8h3.4
					l-0.1,1h-4.6C13,57.2,13.6,56.8,14.2,56.8z M7.2,68.6c0-2,1.7-3.7,3.7-3.7h118.4c2,0,3.7,1.7,3.7,3.7V73H7.2V68.6z M133,129.3
					H30.8c-2,0-3.6,1.6-3.6,3.6c0,2,1.6,3.6,3.6,3.6H133v4.4c0,2-1.6,3.7-3.7,3.7H10.9c-2,0-3.7-1.6-3.7-3.7v-4.4h9.9
					c2,0,3.6-1.6,3.6-3.6c0-2-1.6-3.6-3.6-3.6H7.2V80.3H133v6.9h-18.7c-6.7,0-12.9,3.9-15.8,9.9l-0.1,0.2c-0.3,0.7-0.6,1.4-0.8,2.1
					l0,0.1c0,0,0,0,0,0l-0.1,0.2v0c-0.5,1.6-0.7,3.3-0.7,5c0,9.7,7.9,17.6,17.6,17.6H133V129.3z M140,115.1h-25.7
					c-3.8,0-7.3-2.1-9.1-5.4c-0.1-0.2-0.2-0.3-0.2-0.5c-0.1-0.3-0.3-0.6-0.4-0.9c-0.4-1.1-0.6-2.3-0.6-3.5c0-1.2,0.2-2.4,0.6-3.5
					c0.1-0.3,0.3-0.6,0.4-0.9c0.1-0.2,0.2-0.3,0.2-0.5c1.8-3.3,5.3-5.4,9.1-5.4H140V115.1z"/>
			</g>
		</g>
	</g>
	<g>
		<g>
			<g>
				<path class="st0" d="M116.8,97.5c-4,0-7.3,3.3-7.3,7.3c0,4,3.3,7.3,7.3,7.3c4,0,7.3-3.3,7.3-7.3
					C124.1,100.8,120.8,97.5,116.8,97.5z M116.8,103.4c0.8,0,1.4,0.6,1.4,1.4c0,0.8-0.6,1.4-1.4,1.4c-0.8,0-1.4-0.7-1.4-1.4
					C115.3,104,116,103.4,116.8,103.4z"/>
			</g>
		</g>
	</g>
</g>
</svg>
