<?xml version="1.0" encoding="utf-8"?>
<!-- Generator: Adobe Illustrator 22.0.1, SVG Export Plug-In . SVG Version: 6.00 Build 0)  -->
<svg version="1.1" id="Режим_изоляции"
	 xmlns="http://www.w3.org/2000/svg" xmlns:xlink="http://www.w3.org/1999/xlink" x="0px" y="0px" viewBox="0 0 152.8 152.8"
	 style="enable-background:new 0 0 152.8 152.8;" xml:space="preserve">
<style type="text/css">
	.st0{fill:#002169;}
</style>
<g>
	<g>
		<path class="st0" d="M148.8,144.8h-8.5V53.9c0-2.2-1.8-4-4-4H96.4c-2.2,0-4,1.8-4,4v18.5h-36c-2.2,0-4,1.8-4,4v23.5h-36
			c-2.2,0-4,1.8-4,4v41H4c-2.2,0-4,1.8-4,4c0,2.2,1.8,4,4,4h144.8c2.2,0,4-1.8,4-4C152.8,146.6,151,144.8,148.8,144.8z M52.4,144.8
			h-32v-37h32V144.8z M92.4,144.8h-32V80.4h32V144.8z M100.4,144.8V57.9h32v86.9H100.4z"/>
	</g>
	<g>
		<path class="st0" d="M140.2,21.3c-0.7-6.4-3.9-12.1-8.9-16.1c-5-4-11.3-5.8-17.6-5.1c-10.8,1.2-19.2,9.3-21,19.8H76.4
			c-2.2,0-4,1.8-4,4v24.2c-3.1,1.2-5.6,3.6-6.7,6.7H36.5c-2.2,0-4,1.8-4,4v21.9c-1.8,0.9-3.2,2.3-4.1,4.2c-1,2.2-1.2,4.6-0.4,6.8
			c1.3,3.6,4.7,6,8.5,6h0c2.4,0,4.6-0.9,6.3-2.6c1.7-1.7,2.6-3.9,2.6-6.3c0-3.4-2-6.6-5-8.1V62.9h25.2c2,5.4,7.9,8.6,13.6,7.1
			c6.1-1.6,9.8-7.8,8.3-13.9c-0.9-3.7-3.6-6.6-7.1-7.9V28h12.3c1,5.8,4,11,8.7,14.7c5,4,11.3,5.8,17.6,5.1
			c6.4-0.7,12.1-3.9,16.1-8.9C139.1,33.9,140.9,27.7,140.2,21.3z M36.5,89.9c-0.5,0-1-0.5-1-1s0.5-1,1-1c0.6,0,1,0.4,1,1
			S37,89.9,36.5,89.9z M76.4,62.4c-1.9,0-3.5-1.6-3.5-3.5c0-1.9,1.6-3.5,3.5-3.5c1.9,0,3.5,1.6,3.5,3.5
			C79.9,60.9,78.3,62.4,76.4,62.4z M116.3,40c-8.8,0-16-7.2-16-16c0-8.8,7.2-16,16-16c8.8,0,16,7.2,16,16S125.2,40,116.3,40z"/>
		<path class="st0" d="M122,27.2c0,2.3-1.4,4.3-3.5,5.1v1.1c0,1.1-0.9,2-2,2s-2-0.9-2-2v-1c-2.3-0.7-3.9-2.8-3.9-5.3
			c0-1.1,0.9-2,2-2s2,0.9,2,2c0,0.9,0.7,1.6,1.6,1.6h0.2c0.9,0,1.6-0.7,1.6-1.6c0-0.5-0.3-1-0.8-1.4c-0.3-0.2-0.6-0.3-0.9-0.4
			c-0.1,0-0.3,0-0.4,0l-0.1,0c-0.4,0-0.9-0.1-1.5-0.3c-2.1-0.8-3.6-2.8-3.6-5c0-2.3,1.5-4.4,3.7-5.1v-0.6c0-1.1,0.9-2,2-2s2,0.9,2,2
			v0.7c2,0.8,3.3,2.8,3.3,4.9c0,1.1-0.9,2-2,2c-1.1,0-2-0.9-2-2c0-0.8-0.6-1.4-1.4-1.4h-0.2c-0.8,0-1.4,0.6-1.4,1.4
			c0,0.6,0.4,1.1,0.9,1.3c0.1,0,0.3,0.1,0.5,0.1c0.3,0,0.6,0.1,1,0.1c0.8,0.2,1.7,0.5,2.4,1.1C121.1,23.8,122,25.5,122,27.2z"/>
	</g>
</g>
</svg>
