<svg width="158" height="48" viewBox="0 0 158 48" fill="none" xmlns="http://www.w3.org/2000/svg">
<path d="M46.9984 24.9822L46.9842 25.0035L46.9716 25.0257L45.0117 28.4665C44.6285 29.1393 44.427 29.9002 44.427 30.6744V34.4465C44.427 35.2736 43.9929 36.036 43.33 36.4054L43.324 36.4088L43.318 36.4123L40.0442 38.3179C39.3713 38.7097 38.8126 39.2707 38.4237 39.9454L36.4759 43.3242C36.0443 44.0274 35.3139 44.4435 34.5151 44.4435H30.6134C29.833 44.4435 29.0663 44.6482 28.3897 45.0372L25.0742 46.9437C24.7072 47.1474 24.3224 47.2565 23.9618 47.2565C23.6011 47.2565 23.2163 47.1474 22.8493 46.9437L19.5338 45.0372C18.8573 44.6482 18.0905 44.4435 17.3101 44.4435H13.5104C12.6889 44.4435 11.9296 44.0097 11.5607 43.3436L11.5573 43.3375L11.5538 43.3315L9.65868 40.055C9.26488 39.3741 8.69807 38.8095 8.01571 38.4183L4.61137 36.4668C3.9123 36.0342 3.49655 35.3014 3.49655 34.4976V30.5775C3.49655 29.7992 3.29292 29.0344 2.90588 28.3591L1.05577 25.1313C0.852567 24.7628 0.743494 24.3759 0.743494 24.0128C0.743494 23.6497 0.85257 23.2628 1.05578 22.8943L2.90588 19.6664C3.29292 18.9912 3.49655 18.2264 3.49655 17.4481V13.528C3.49655 12.7008 3.93059 11.9385 4.5935 11.569L4.59352 11.569L4.60131 11.5646L7.99055 9.62168C8.69198 9.21958 9.27094 8.63442 9.66553 7.92876L11.501 4.6464C11.9329 3.94548 12.6621 3.53092 13.4594 3.53092H17.2591C18.0395 3.53092 18.8063 3.3262 19.4828 2.93719L22.7983 1.03079C23.489 0.647736 24.3835 0.64773 25.0742 1.03077L28.3897 2.93719C29.0663 3.3262 29.833 3.53092 30.6134 3.53092H34.5151C35.3365 3.53092 36.0959 3.96469 36.4648 4.63084L36.4679 4.63643L36.4711 4.64197L38.4237 8.02906C38.8126 8.70368 39.3713 9.26475 40.0442 9.65649L43.3101 11.5576C44.0104 11.9899 44.427 12.7234 44.427 13.528V17.3C44.427 18.0743 44.6285 18.8352 45.0117 19.5079L46.9692 22.9446C47.3659 23.6638 47.3289 24.4848 46.9984 24.9822Z" stroke="white" stroke-width="2"/>
<path d="M36.8897 25.4119H36.8501L34.0968 18.7235C34.7709 17.9064 34.3716 16.668 33.366 16.3908L26.0759 14.3812C25.9243 14.0419 25.6948 13.7456 25.41 13.5154V12.4561C25.41 11.6532 24.7612 11 23.9638 11C23.1664 11 22.5177 11.6532 22.5177 12.4561V13.5154C22.2328 13.7456 22.0033 14.0419 21.8517 14.3812L14.5615 16.3908C13.5202 16.6779 13.1451 17.9769 13.8798 18.78L11.1496 25.4119C10.4444 25.4119 10 25.9533 10 26.5296V26.9149C10 27.5312 10.498 28.0326 11.1102 28.0326H11.3828C12.8839 30.5998 16.5721 30.5954 18.0709 28.0326H18.3437C18.9559 28.0326 19.4538 27.5313 19.4538 26.9149V26.5296C19.4538 25.9551 19.0115 25.4119 18.3042 25.4119L15.7039 19.0952L22.5176 17.2169V30.7049H22.3866C21.8135 30.7049 21.3472 31.1743 21.3472 31.7513C21.3472 32.3206 21.3407 32.3588 21.371 32.4997H20.3471C19.7349 32.4997 19.237 33.0011 19.237 33.6176V34.3803C18.6347 34.3919 18.1481 34.8879 18.1481 35.4971V35.8823C18.1481 36.4986 18.646 37 19.2582 37H23.0068C23.2333 37 23.4169 36.8152 23.4169 36.5871C23.4169 36.359 23.2333 36.1742 23.0068 36.1742H19.2582C19.0983 36.1742 18.9683 36.0433 18.9683 35.8823V35.4971C18.9683 35.3361 19.0983 35.2051 19.2582 35.2051C19.6019 35.2051 28.1146 35.2051 28.6694 35.2051C28.8292 35.2051 28.9593 35.3361 28.9593 35.4971V35.8823C28.9593 36.0433 28.8292 36.1742 28.6694 36.1742H24.9207C24.6941 36.1742 24.5106 36.359 24.5106 36.5871C24.5106 36.8152 24.6942 37 24.9207 37H28.6694C29.2815 37 29.7795 36.4987 29.7795 35.8823V35.4971C29.7795 34.888 29.293 34.3919 28.6907 34.3803V33.6176C28.6907 33.0012 28.1928 32.4997 27.5805 32.4997H26.5566C26.5864 32.3606 26.5803 32.3278 26.5803 31.7513C26.5803 31.1744 26.114 30.7049 25.5408 30.7049H25.4098V24.9937C25.4098 24.7655 25.2263 24.5808 24.9997 24.5808C24.7732 24.5808 24.5896 24.7656 24.5896 24.9937V30.705H23.3378V17.5778C23.7327 17.6913 24.187 17.6929 24.5896 17.5777V23.0666C24.5896 23.2948 24.7732 23.4795 24.9997 23.4795C25.2263 23.4795 25.4098 23.2947 25.4098 23.0666V17.2169L32.2883 19.1132L29.6956 25.4118C28.9903 25.4118 28.546 25.9533 28.546 26.5295V26.9148C28.546 27.5311 29.0441 28.0325 29.6562 28.0325H29.929C31.4298 30.5991 35.1179 30.5959 36.6171 28.0325H36.8898C37.502 28.0325 38 27.5311 38 26.9148V26.5295C37.9999 25.9133 37.502 25.4119 36.8897 25.4119ZM14.3167 19.8754V25.412H12.0375L14.3167 19.8754ZM12.4393 28.0983H17.0145C15.7986 29.4774 13.6539 29.4763 12.4393 28.0983ZM18.3418 26.2378C18.3418 26.2378 18.3418 26.2378 18.3437 26.2378C18.5035 26.2378 18.6336 26.3687 18.6336 26.5296V26.9149C18.6336 27.0758 18.5035 27.2068 18.3437 27.2068H11.1102C10.9503 27.2068 10.8203 27.0758 10.8203 26.9149V26.5296C10.8203 26.3687 10.9503 26.2378 11.1102 26.2378C11.3028 26.2378 18.1745 26.2378 18.3418 26.2378ZM17.4161 25.4119H15.137V19.8753L17.4161 25.4119ZM15.0002 18.4218C14.8472 18.4365 14.7188 18.3966 14.5919 18.316C14.1473 18.0108 14.2684 17.3278 14.7782 17.1872L21.6492 15.2932C21.6426 15.7082 21.7463 16.1329 21.9677 16.5123C14.7807 18.4936 15.0906 18.4133 15.0002 18.4218ZM23.3378 12.4561H23.3379C23.3379 12.1085 23.6187 11.8259 23.9637 11.8259C24.309 11.8259 24.5897 12.1086 24.5897 12.4561V13.0893C24.1855 12.9748 23.7391 12.9749 23.3378 13.0892V12.4561ZM27.5807 33.3256C27.7406 33.3256 27.8706 33.4566 27.8706 33.6176V34.3793H20.0573V33.6175C20.0573 33.4565 20.1873 33.3256 20.3472 33.3256C20.7046 33.3256 27.3049 33.3256 27.5807 33.3256ZM25.5409 31.5308C25.6618 31.5308 25.7601 31.6297 25.7601 31.7514V32.2792C25.7601 32.4009 25.6618 32.4998 25.5409 32.4998H22.3866C22.2658 32.4998 22.1675 32.4009 22.1675 32.2792V31.7514C22.1675 31.6297 22.2658 31.5308 22.3866 31.5308C22.7629 31.5308 25.1721 31.5308 25.5409 31.5308ZM24.0606 16.835C23.4812 16.8728 22.9427 16.5708 22.6627 16.0727C21.9172 14.7418 23.4328 13.219 24.761 14.0613C25.9882 14.844 25.4923 16.745 24.0606 16.835ZM33.6831 19.8754L35.9623 25.412H33.6831V19.8754ZM25.96 16.5124C26.1811 16.1294 26.2852 15.7127 26.2784 15.2933L33.1493 17.1873C33.4823 17.2791 33.679 17.6265 33.5879 17.9616C33.5031 18.2735 33.1923 18.464 32.935 18.4124C32.899 18.4051 32.863 18.4027 32.8277 18.405C32.7849 18.3942 26.032 16.5322 25.96 16.5124ZM32.8629 19.8751V25.412H30.5836L32.8629 19.8751ZM30.9854 28.0983H35.5606C34.3448 29.4775 32.2001 29.4763 30.9854 28.0983ZM37.1797 26.9149C37.1796 27.0758 37.0496 27.2068 36.8897 27.2068H29.6562C29.4963 27.2068 29.3662 27.0758 29.3662 26.9149V26.5296C29.3662 26.3687 29.4963 26.2378 29.6562 26.2378C29.8489 26.2378 36.4088 26.2378 36.5762 26.2378C36.5766 26.2377 36.577 26.2377 36.5773 26.2378H36.8898C37.0497 26.2378 37.1797 26.3687 37.1797 26.5296V26.9149H37.1797Z" fill="white"/>
<path d="M69.5645 31.6748C69.5645 32.3714 69.4473 32.9801 69.2129 33.501C68.9785 34.0186 68.6465 34.4141 68.2168 34.6875C67.7871 34.9609 67.2858 35.0977 66.7129 35.0977C66.1725 35.0977 65.6875 34.9674 65.2578 34.707C64.8314 34.4466 64.4961 34.0739 64.252 33.5889C64.0111 33.1038 63.8776 32.5374 63.8516 31.8896H62.8311V35H61.8936V27.8906H62.8311V31.1523H63.8467C63.8564 30.4818 63.9785 29.8942 64.2129 29.3896C64.4473 28.8818 64.7809 28.4896 65.2139 28.2129C65.6468 27.9329 66.1432 27.793 66.7031 27.793C67.2728 27.793 67.7741 27.9313 68.207 28.208C68.6432 28.4814 68.9785 28.8802 69.2129 29.4043C69.4473 29.9251 69.5645 30.5322 69.5645 31.2256V31.6748ZM68.6318 31.2158C68.6318 30.3727 68.4626 29.7266 68.124 29.2773C67.7855 28.8249 67.3118 28.5986 66.7031 28.5986C66.1107 28.5986 65.6436 28.8249 65.3018 29.2773C64.9632 29.7266 64.7891 30.3516 64.7793 31.1523V31.6748C64.7793 32.4919 64.9502 33.1348 65.292 33.6035C65.637 34.069 66.1107 34.3018 66.7129 34.3018C67.3184 34.3018 67.7871 34.082 68.1191 33.6426C68.4512 33.1999 68.6221 32.5667 68.6318 31.7432V31.2158ZM75.0918 32.417C75.0918 33.221 74.9079 33.8688 74.54 34.3604C74.1722 34.8519 73.6742 35.0977 73.0459 35.0977C72.4046 35.0977 71.9001 34.8942 71.5322 34.4873V37.0312H70.6289V29.7168H71.4541L71.498 30.3027C71.8659 29.847 72.377 29.6191 73.0312 29.6191C73.666 29.6191 74.1673 29.8584 74.5352 30.3369C74.9062 30.8154 75.0918 31.4811 75.0918 32.334V32.417ZM74.1885 32.3145C74.1885 31.7188 74.0615 31.2484 73.8076 30.9033C73.5537 30.5583 73.2054 30.3857 72.7627 30.3857C72.2158 30.3857 71.8057 30.6283 71.5322 31.1133V33.6377C71.8024 34.1195 72.2158 34.3604 72.7725 34.3604C73.2054 34.3604 73.5488 34.1895 73.8027 33.8477C74.0599 33.5026 74.1885 32.9915 74.1885 32.3145ZM79.6621 29.7168H80.5654V35H79.6621V31.1475L77.2256 35H76.3223V29.7168H77.2256V33.5742L79.6621 29.7168ZM81.9717 34.2627L82.2842 33.877C82.6357 33.4212 82.8359 32.7376 82.8848 31.8262L82.9678 29.7168H86.3711V34.2627H87.0498V36.5527H86.1465V35H82.46V36.5527H81.5566L81.5615 34.2627H81.9717ZM83.041 34.2627H85.4678V30.5518H83.8418L83.7881 31.8115C83.7327 32.863 83.4837 33.68 83.041 34.2627ZM91.4688 29.7168H92.3721V35H91.4688V31.1475L89.0322 35H88.1289V29.7168H89.0322V33.5742L91.4688 29.7168ZM97.8115 35H96.9033V33.0859C96.5062 33.1901 96.0993 33.2422 95.6826 33.2422C95.0218 33.2422 94.5173 33.0729 94.1689 32.7344C93.8239 32.3958 93.6481 31.9141 93.6416 31.2891V29.7119H94.5449V31.3184C94.5612 32.1061 94.9404 32.5 95.6826 32.5C96.0993 32.5 96.5062 32.4479 96.9033 32.3438V29.7168H97.8115V35ZM101.454 35.0977C100.738 35.0977 100.155 34.8633 99.7061 34.3945C99.2568 33.9225 99.0322 33.2926 99.0322 32.5049V32.3389C99.0322 31.8148 99.1315 31.3477 99.3301 30.9375C99.5319 30.5241 99.8118 30.2018 100.17 29.9707C100.531 29.7363 100.922 29.6191 101.342 29.6191C102.029 29.6191 102.562 29.8454 102.943 30.2979C103.324 30.7503 103.515 31.3981 103.515 32.2412V32.6172H99.9355C99.9486 33.138 100.1 33.5596 100.39 33.8818C100.683 34.2008 101.054 34.3604 101.503 34.3604C101.822 34.3604 102.092 34.2952 102.313 34.165C102.535 34.0348 102.729 33.8623 102.895 33.6475L103.446 34.0771C103.004 34.7575 102.34 35.0977 101.454 35.0977ZM101.342 30.3613C100.977 30.3613 100.671 30.4948 100.424 30.7617C100.176 31.0254 100.023 31.3965 99.9648 31.875H102.611V31.8066C102.585 31.3477 102.462 30.9928 102.24 30.7422C102.019 30.4883 101.719 30.3613 101.342 30.3613ZM106.684 34.3604C107.006 34.3604 107.287 34.2627 107.528 34.0674C107.769 33.8721 107.903 33.6279 107.929 33.335H108.783C108.767 33.6377 108.663 33.9258 108.471 34.1992C108.279 34.4727 108.021 34.6908 107.699 34.8535C107.38 35.0163 107.042 35.0977 106.684 35.0977C105.964 35.0977 105.391 34.8584 104.965 34.3799C104.542 33.8981 104.33 33.2406 104.33 32.4072V32.2559C104.33 31.7415 104.424 31.2842 104.613 30.8838C104.802 30.4834 105.072 30.1725 105.424 29.9512C105.779 29.7298 106.197 29.6191 106.679 29.6191C107.271 29.6191 107.763 29.7965 108.153 30.1514C108.547 30.5062 108.757 30.9668 108.783 31.5332H107.929C107.903 31.1914 107.772 30.9115 107.538 30.6934C107.307 30.472 107.021 30.3613 106.679 30.3613C106.22 30.3613 105.863 30.5273 105.609 30.8594C105.359 31.1882 105.233 31.665 105.233 32.29V32.4609C105.233 33.0697 105.359 33.5384 105.609 33.8672C105.86 34.196 106.218 34.3604 106.684 34.3604ZM111.444 32.749H110.785V35H109.877V29.7168H110.785V31.9531H111.376L113.153 29.7168H114.247L112.157 32.2559L114.423 35H113.275L111.444 32.749ZM118.461 35C118.409 34.8958 118.367 34.7103 118.334 34.4434C117.914 34.8796 117.413 35.0977 116.83 35.0977C116.309 35.0977 115.881 34.9512 115.546 34.6582C115.214 34.362 115.048 33.9876 115.048 33.5352C115.048 32.985 115.256 32.5586 115.673 32.2559C116.093 31.9499 116.682 31.7969 117.44 31.7969H118.319V31.3818C118.319 31.0661 118.225 30.8154 118.036 30.6299C117.847 30.4411 117.569 30.3467 117.201 30.3467C116.879 30.3467 116.609 30.4281 116.391 30.5908C116.173 30.7536 116.063 30.9505 116.063 31.1816H115.155C115.155 30.918 115.248 30.6641 115.434 30.4199C115.622 30.1725 115.876 29.9772 116.195 29.834C116.518 29.6908 116.871 29.6191 117.255 29.6191C117.864 29.6191 118.34 29.7721 118.686 30.0781C119.031 30.3809 119.21 30.7992 119.223 31.333V33.7646C119.223 34.2497 119.285 34.6354 119.408 34.9219V35H118.461ZM116.962 34.3115C117.245 34.3115 117.514 34.2383 117.768 34.0918C118.021 33.9453 118.205 33.7549 118.319 33.5205V32.4365H117.611C116.505 32.4365 115.951 32.7604 115.951 33.4082C115.951 33.6914 116.046 33.9128 116.234 34.0723C116.423 34.2318 116.666 34.3115 116.962 34.3115ZM124.677 29.7168V35H123.769V32.9443H122.406L121.161 35H120.185L121.513 32.8076C121.174 32.6839 120.914 32.4935 120.731 32.2363C120.552 31.9759 120.463 31.6732 120.463 31.3281C120.463 30.8464 120.644 30.459 121.005 30.166C121.366 29.8698 121.85 29.7201 122.455 29.7168H124.677ZM121.371 31.3379C121.371 31.5951 121.459 31.8034 121.635 31.9629C121.811 32.1191 122.043 32.1989 122.333 32.2021H123.769V30.4492H122.47C122.134 30.4492 121.868 30.5322 121.669 30.6982C121.47 30.861 121.371 31.0742 121.371 31.3379ZM63.3291 41.749H62.6699V44H61.7617V38.7168H62.6699V40.9531H63.2607L65.0381 38.7168H66.1318L64.042 41.2559L66.3076 44H65.1602L63.3291 41.749ZM66.7373 41.3096C66.7373 40.792 66.8382 40.3265 67.04 39.9131C67.2451 39.4997 67.5283 39.1807 67.8896 38.9561C68.2542 38.7314 68.6693 38.6191 69.1348 38.6191C69.8542 38.6191 70.4352 38.8682 70.8779 39.3662C71.3239 39.8643 71.5469 40.5267 71.5469 41.3535V41.417C71.5469 41.9313 71.4476 42.3936 71.249 42.8037C71.0537 43.2106 70.7721 43.528 70.4043 43.7559C70.0397 43.9837 69.6198 44.0977 69.1445 44.0977C68.4284 44.0977 67.8473 43.8486 67.4014 43.3506C66.9587 42.8525 66.7373 42.1934 66.7373 41.373V41.3096ZM67.6455 41.417C67.6455 42.0029 67.7806 42.4733 68.0508 42.8281C68.3242 43.1829 68.6888 43.3604 69.1445 43.3604C69.6035 43.3604 69.9681 43.1813 70.2383 42.8232C70.5085 42.4619 70.6436 41.9574 70.6436 41.3096C70.6436 40.7301 70.5052 40.2614 70.2285 39.9033C69.9551 39.542 69.5905 39.3613 69.1348 39.3613C68.6888 39.3613 68.3291 39.5387 68.0557 39.8936C67.7822 40.2484 67.6455 40.7562 67.6455 41.417ZM75.7217 42.8037L77.5186 38.7168H78.6465V44H77.7432V40.1572L76.0342 44H75.4092L73.666 40.0742V44H72.7627V38.7168H73.9346L75.7217 42.8037ZM84.4229 44H83.5195V39.4639H81.0879V44H80.1797V38.7168H84.4229V44ZM89.1348 44C89.0827 43.8958 89.0404 43.7103 89.0078 43.4434C88.5879 43.8796 88.0866 44.0977 87.5039 44.0977C86.9831 44.0977 86.555 43.9512 86.2197 43.6582C85.8877 43.362 85.7217 42.9876 85.7217 42.5352C85.7217 41.985 85.93 41.5586 86.3467 41.2559C86.7666 40.9499 87.3558 40.7969 88.1143 40.7969H88.9932V40.3818C88.9932 40.0661 88.8988 39.8154 88.71 39.6299C88.5212 39.4411 88.2428 39.3467 87.875 39.3467C87.5527 39.3467 87.2826 39.4281 87.0645 39.5908C86.8464 39.7536 86.7373 39.9505 86.7373 40.1816H85.8291C85.8291 39.918 85.9219 39.6641 86.1074 39.4199C86.2962 39.1725 86.5501 38.9772 86.8691 38.834C87.1914 38.6908 87.5446 38.6191 87.9287 38.6191C88.5374 38.6191 89.0143 38.7721 89.3594 39.0781C89.7044 39.3809 89.8835 39.7992 89.8965 40.333V42.7646C89.8965 43.2497 89.9583 43.6354 90.082 43.9219V44H89.1348ZM87.6357 43.3115C87.9189 43.3115 88.1875 43.2383 88.4414 43.0918C88.6953 42.9453 88.8792 42.7549 88.9932 42.5205V41.4365H88.2852C87.1784 41.4365 86.625 41.7604 86.625 42.4082C86.625 42.6914 86.7194 42.9128 86.9082 43.0723C87.097 43.2318 87.3395 43.3115 87.6357 43.3115ZM95.6289 44H94.7256V41.7441H92.2988V44H91.3906V38.7168H92.2988V41.0068H94.7256V38.7168H95.6289V44ZM100.502 38.7168H101.405V44H100.502V40.1475L98.0654 44H97.1621V38.7168H98.0654V42.5742L100.502 38.7168ZM106.894 38.7168V44H105.985V41.9443H104.623L103.378 44H102.401L103.729 41.8076C103.391 41.6839 103.131 41.4935 102.948 41.2363C102.769 40.9759 102.68 40.6732 102.68 40.3281C102.68 39.8464 102.86 39.459 103.222 39.166C103.583 38.8698 104.066 38.7201 104.672 38.7168H106.894ZM103.588 40.3379C103.588 40.5951 103.676 40.8034 103.852 40.9629C104.027 41.1191 104.26 41.1989 104.55 41.2021H105.985V39.4492H104.687C104.351 39.4492 104.084 39.5322 103.886 39.6982C103.687 39.861 103.588 40.0742 103.588 40.3379Z" fill="white" fill-opacity="0.5"/>
<path d="M64.6191 17.4893V23H61.3965V7.35938H67.498C68.6725 7.35938 69.7038 7.57422 70.5918 8.00391C71.487 8.43359 72.1745 9.0459 72.6543 9.84082C73.1341 10.6286 73.374 11.5273 73.374 12.5371C73.374 14.0697 72.8477 15.2799 71.7949 16.168C70.7493 17.0488 69.2992 17.4893 67.4443 17.4893H64.6191ZM64.6191 14.8789H67.498C68.3503 14.8789 68.9984 14.6784 69.4424 14.2773C69.8936 13.8763 70.1191 13.3034 70.1191 12.5586C70.1191 11.7923 69.8936 11.1729 69.4424 10.7002C68.9912 10.2275 68.3682 9.98405 67.5732 9.96973H64.6191V14.8789ZM82 23C81.8568 22.7207 81.7529 22.3734 81.6885 21.958C80.9365 22.7959 79.959 23.2148 78.7559 23.2148C77.6172 23.2148 76.6719 22.8854 75.9199 22.2266C75.1751 21.5677 74.8027 20.737 74.8027 19.7344C74.8027 18.5026 75.2575 17.5573 76.167 16.8984C77.0837 16.2396 78.4049 15.9066 80.1309 15.8994H81.5596V15.2334C81.5596 14.6963 81.4199 14.2666 81.1406 13.9443C80.8685 13.6221 80.4352 13.4609 79.8408 13.4609C79.318 13.4609 78.9062 13.5863 78.6055 13.8369C78.3118 14.0876 78.165 14.4313 78.165 14.8682H75.0605C75.0605 14.195 75.2682 13.5719 75.6836 12.999C76.099 12.4261 76.6862 11.9785 77.4453 11.6562C78.2044 11.3268 79.0566 11.1621 80.002 11.1621C81.4342 11.1621 82.5693 11.5238 83.4072 12.2471C84.2523 12.9632 84.6748 13.973 84.6748 15.2764V20.3145C84.682 21.4173 84.8359 22.2516 85.1367 22.8174V23H82ZM79.4326 20.8408C79.891 20.8408 80.3135 20.7406 80.7002 20.54C81.0869 20.3324 81.3734 20.0566 81.5596 19.7129V17.7148H80.3994C78.8454 17.7148 78.0182 18.252 77.918 19.3262L77.9072 19.5088C77.9072 19.8955 78.0433 20.2142 78.3154 20.4648C78.5876 20.7155 78.96 20.8408 79.4326 20.8408ZM93.1611 14.8037C93.1611 14.3955 93.0251 14.0804 92.7529 13.8584C92.488 13.6292 92.1084 13.5146 91.6143 13.5146C91.1058 13.5146 90.6904 13.6221 90.3682 13.8369C90.0531 14.0446 89.8955 14.3418 89.8955 14.7285H86.791C86.791 13.6758 87.2279 12.82 88.1016 12.1611C88.9753 11.5023 90.0924 11.1729 91.4531 11.1729C92.9499 11.1729 94.1243 11.4665 94.9766 12.0537C95.8359 12.641 96.2656 13.4753 96.2656 14.5566C96.2656 15.0723 96.1081 15.5485 95.793 15.9854C95.485 16.415 95.0482 16.7588 94.4824 17.0166C95.8073 17.4821 96.4697 18.3809 96.4697 19.7129C96.4697 20.7799 96.0114 21.6322 95.0947 22.2695C94.1852 22.8997 92.9714 23.2148 91.4531 23.2148C90.0423 23.2148 88.8822 22.8854 87.9727 22.2266C87.0632 21.5677 86.6084 20.6797 86.6084 19.5625H89.7129C89.7129 19.9564 89.8883 20.2751 90.2393 20.5186C90.5902 20.762 91.0485 20.8838 91.6143 20.8838C92.1657 20.8838 92.5954 20.7549 92.9033 20.4971C93.2113 20.2393 93.3652 19.9027 93.3652 19.4873C93.3652 18.9788 93.2184 18.6172 92.9248 18.4023C92.6312 18.1803 92.1908 18.0693 91.6035 18.0693H89.917V16.0498H91.7109C92.6777 16.0212 93.1611 15.6058 93.1611 14.8037ZM98.5645 23V11.377H103.42C105.003 11.377 106.216 11.6562 107.062 12.2148C107.907 12.7734 108.329 13.5755 108.329 14.6211C108.329 15.1582 108.15 15.6416 107.792 16.0713C107.441 16.4938 106.925 16.8197 106.245 17.0488C107.076 17.2064 107.728 17.5179 108.2 17.9834C108.68 18.4417 108.92 19.0075 108.92 19.6807C108.92 20.762 108.512 21.5856 107.695 22.1514C106.886 22.7171 105.708 23 104.161 23H98.5645ZM101.669 18.1768V20.5186H104.172C105.268 20.5186 105.815 20.1354 105.815 19.3691C105.815 18.5885 105.293 18.1911 104.247 18.1768H101.669ZM101.669 16.0928H103.592C104.68 16.0785 105.225 15.7275 105.225 15.04C105.225 14.6175 105.074 14.3167 104.773 14.1377C104.48 13.9587 104.029 13.8691 103.42 13.8691H101.669V16.0928ZM117.825 11.377H120.93V23H117.825V15.8242L113.937 23H110.821V11.377H113.937V18.542L117.825 11.377ZM132.95 13.8691H129.223V23H126.107V13.8691H122.444V11.377H132.95V13.8691ZM141.522 11.377H144.627V23H141.522V15.8242L137.634 23H134.519V11.377H137.634V18.542L141.522 11.377ZM152.351 23.2148C150.646 23.2148 149.257 22.6921 148.183 21.6465C147.116 20.6009 146.582 19.208 146.582 17.4678V17.167C146.582 15.9997 146.808 14.9577 147.259 14.041C147.71 13.1172 148.347 12.4082 149.171 11.9141C150.002 11.4128 150.947 11.1621 152.007 11.1621C153.597 11.1621 154.846 11.6634 155.756 12.666C156.673 13.6686 157.131 15.0902 157.131 16.9307V18.1982H149.729C149.83 18.9574 150.131 19.5661 150.632 20.0244C151.14 20.4827 151.781 20.7119 152.555 20.7119C153.751 20.7119 154.685 20.2786 155.358 19.4121L156.884 21.1201C156.418 21.779 155.788 22.2946 154.993 22.667C154.198 23.0322 153.317 23.2148 152.351 23.2148ZM151.996 13.6758C151.38 13.6758 150.879 13.8835 150.492 14.2988C150.113 14.7142 149.869 15.3086 149.762 16.082H154.08V15.835C154.066 15.1475 153.88 14.6175 153.521 14.2451C153.163 13.8656 152.655 13.6758 151.996 13.6758Z" fill="white"/>
</svg>
