<?xml version="1.0" encoding="utf-8"?>
<!-- Generator: Adobe Illustrator 22.0.1, SVG Export Plug-In . SVG Version: 6.00 Build 0)  -->
<svg version="1.1" id="Слой_1" xmlns="http://www.w3.org/2000/svg" xmlns:xlink="http://www.w3.org/1999/xlink" x="0px" y="0px"
	 viewBox="0 0 116.5 90.2" style="enable-background:new 0 0 116.5 90.2;" xml:space="preserve">
<style type="text/css">
	.st0{fill:#002A5F;}
	.st1{fill:#D7D9DB;}
	.st2{fill:#00A7E5;}
	.st3{fill:#FBC300;}
	.st4{fill:none;stroke:#AD7B00;stroke-width:0.2401;stroke-linecap:round;stroke-miterlimit:22.9256;}
	.st5{fill:none;stroke:#00A7E5;stroke-width:0.2401;stroke-linecap:round;stroke-miterlimit:22.9256;}
	.st6{fill:none;stroke:#504F53;stroke-width:0.2401;stroke-linecap:round;stroke-miterlimit:22.9256;}
	.st7{fill:none;stroke:#002A5F;stroke-width:0.2401;stroke-linecap:round;stroke-miterlimit:22.9256;}
</style>
<path class="st0" d="M73.9,55.7l7.1,7c-2.2,2.2-4.9,3.9-7.9,4.9l-3.9-6.9C71,59.3,72.6,57.6,73.9,55.7"/>
<path class="st1" d="M76.7,41.9l17.1-3.6c0.4,2,0.6,4,0.6,6c0,9.5-4.7,18.5-12.5,23.9l-8.4-12.1c2.2-3.1,3.4-6.9,3.4-11
	C77,44,76.9,42.9,76.7,41.9"/>
<path class="st2" d="M63.8,26.8l6.3-19C85.5,12.9,96.2,27,97,43.3l-20,0.9C76.6,36.1,71.2,29.2,63.8,26.8"/>
<path class="st3" d="M62.4,63.9l6.3,25c-3.6,0.9-7.3,1.3-10.9,1.3c-24.9,0-45.1-20.2-45.1-45.1S32.9,0,57.8,0
	c5.3,0,10.5,0.9,15.5,2.8L64.4,27c-2.1-0.8-4.3-1.2-6.6-1.2c-10.7,0-19.3,8.7-19.3,19.3c0,10.7,8.7,19.3,19.3,19.3
	C59.3,64.4,60.8,64.2,62.4,63.9"/>
<polyline class="st4" points="0.1,12.7 20.5,12.7 27.6,20.7 "/>
<polyline class="st5" points="111.6,17 91.1,17 84,25.1 "/>
<polyline class="st6" points="116.4,62.4 95.9,62.4 88.8,54.3 "/>
<polyline class="st7" points="110.6,84 90.2,84 75.7,64.5 "/>
</svg>
