<?xml version="1.0" encoding="utf-8"?>
<!-- Generator: Adobe Illustrator 22.0.1, SVG Export Plug-In . SVG Version: 6.00 Build 0)  -->
<svg version="1.1" id="Слой_1" xmlns="http://www.w3.org/2000/svg" xmlns:xlink="http://www.w3.org/1999/xlink" x="0px" y="0px"
	 viewBox="0 0 116.5 90.2" style="enable-background:new 0 0 116.5 90.2;" xml:space="preserve">
<style type="text/css">
	.st0{fill:#1C01C8;}
	.st1{fill:#E72FED;}
	.st2{fill:#FFFA4D;}
	.st3{fill:#32DCCC;}
	.st4{fill:none;stroke:#27BAAB;stroke-width:0.2401;stroke-linecap:round;stroke-miterlimit:22.9256;}
	.st5{fill:none;stroke:#FCC500;stroke-width:0.2401;stroke-linecap:round;stroke-miterlimit:22.9256;}
	.st6{fill:none;stroke:#A82388;stroke-width:0.2401;stroke-linecap:round;stroke-miterlimit:22.9256;}
	.st7{fill:none;stroke:#233B66;stroke-width:0.2401;stroke-linecap:round;stroke-miterlimit:22.9256;}
</style>
<path class="st0" d="M81,62.7c-0.6,0.6-1.2,1.1-1.8,1.6c-1.8,1.4-3.9,2.6-6.1,3.3l-3.8-6.8c1.7-1.3,3.2-2.8,4.4-4.5
	c0.1-0.2,0.2-0.3,0.4-0.5L81,62.7z"/>
<path class="st1" d="M94.4,44.3c0,9.5-4.7,18.5-12.5,23.9l-2.7-3.9l-5.5-7.9c0.1-0.2,0.2-0.3,0.4-0.5c2-3.1,3.2-6.8,3.2-10.7
	c0-0.3,0-0.6,0-0.9c0-0.3,0-0.6-0.1-0.9c0-0.5-0.1-1-0.2-1.4l16.8-3.5c0.3,1.7,0.5,3.4,0.6,5.1C94.4,43.7,94.4,44,94.4,44.3z"/>
<path class="st2" d="M97,43.3l-2.6,0.1l-17.1,0.8c0-0.3,0-0.6-0.1-0.9c0-0.5-0.1-1-0.2-1.4c-0.2-1-0.4-2-0.7-2.9
	c-0.1-0.2-0.1-0.4-0.2-0.6c-0.1-0.2-0.2-0.4-0.2-0.6c-2.1-5.1-6.2-9.1-11.3-11c-0.2-0.1-0.4-0.2-0.6-0.2l6.2-18.8
	c0.4,0.1,0.8,0.3,1.2,0.4C86.1,13.7,96.2,27.4,97,43.3z"/>
<path class="st3" d="M38.2,45.1c0,5.6,2.3,10.6,6.1,14.2c2.6,2.4,5.8,4.2,9.4,4.9c1.3,0.3,2.7,0.4,4.1,0.4c1.6,0,3.2-0.2,4.7-0.6
	l6.3,24.9c-3.6,0.9-7.3,1.3-10.9,1.3c-24.9,0-45.1-20.2-45.1-45.1C12.7,20.2,32.9,0,57.8,0c5.3,0,10.5,0.9,15.5,2.8l-2,5.4
	l-6.8,18.5c-0.2-0.1-0.4-0.2-0.6-0.2c-1-0.3-2.1-0.6-3.2-0.8c-0.2,0-0.5-0.1-0.7-0.1c0,0-0.1,0-0.2,0c-0.3,0-0.6-0.1-0.9-0.1
	c-0.4,0-0.8,0-1.1,0c-0.8,0-1.6,0-2.4,0.2c-0.2,0-0.4,0-0.6,0.1c-0.3,0-0.6,0.1-0.8,0.2c-0.3,0-0.5,0.1-0.8,0.2
	c-0.1,0-0.2,0.1-0.4,0.1c-0.1,0-0.3,0.1-0.4,0.1c-0.2,0.1-0.5,0.1-0.7,0.2c-0.3,0.1-0.6,0.2-0.9,0.3c0,0-0.1,0-0.1,0
	c-0.3,0.1-0.6,0.2-0.9,0.4C42.9,30.3,38.2,37.2,38.2,45.1z"/>
<polyline class="st4" points="0.1,12.7 20.5,12.7 27.6,20.7 "/>
<polyline class="st5" points="111.6,17 91.1,17 84,25.1 "/>
<polyline class="st6" points="116.4,62.4 95.9,62.4 88.8,54.3 "/>
<polyline class="st7" points="110.6,84 90.2,84 75.7,64.5 "/>
</svg>
