<?xml version="1.0" encoding="utf-8"?>
<!-- Generator: Adobe Illustrator 22.0.1, SVG Export Plug-In . SVG Version: 6.00 Build 0)  -->
<svg version="1.1" id="Слой_1" xmlns="http://www.w3.org/2000/svg" xmlns:xlink="http://www.w3.org/1999/xlink" x="0px" y="0px"
	 viewBox="0 0 116.5 92.1" style="enable-background:new 0 0 116.5 92.1;" xml:space="preserve">
<style type="text/css">
	.st0{fill:#1C01C8;}
	.st1{fill:#FFFA4D;}
	.st2{fill:#E72FED;}
	.st3{fill:#32DCCC;}
	.st4{fill:none;stroke:#27BAAB;stroke-width:0.2401;stroke-linecap:round;stroke-miterlimit:22.9256;}
	.st5{fill:none;stroke:#FCC500;stroke-width:0.2401;stroke-linecap:round;stroke-miterlimit:22.9256;}
	.st6{fill:none;stroke:#A82388;stroke-width:0.2401;stroke-linecap:round;stroke-miterlimit:22.9256;}
	.st7{fill:none;stroke:#233B66;stroke-width:0.2401;stroke-linecap:round;stroke-miterlimit:22.9256;}
</style>
<path class="st0" d="M70.7,74.8L70.7,74.8c-6.4,2.9-13.6,3.6-20.5,2.1L53,64.3c1.3,0.3,2.7,0.4,4.1,0.4c2.9,0,5.7-0.6,8.2-1.8
	L70.7,74.8z"/>
<path class="st1" d="M96.5,41.7L92.9,42l-16.4,1.4c-0.1-1.5-0.4-2.9-0.9-4.3c-0.1-0.2-0.1-0.4-0.2-0.6c-0.1-0.2-0.2-0.4-0.2-0.6
	c-2.5-6.3-8.3-11-15.2-12c-0.2,0-0.5-0.1-0.7-0.1c0,0-0.1,0-0.2,0c-0.3,0-0.6,0-0.9-0.1c-0.4,0-0.8,0-1.1,0c-0.8,0-1.6,0.1-2.4,0.2
	c-0.2,0-0.4,0-0.6,0.1c-0.3,0-0.6,0.1-0.8,0.2c-0.1,0-0.2,0-0.2,0c-0.1,0-0.2,0-0.3,0.1c-0.4,0.1-0.7,0.2-1,0.3
	c-0.2,0.1-0.5,0.1-0.7,0.2c-0.3,0.1-0.6,0.2-0.9,0.3c0,0-0.1,0-0.1,0c-0.3,0.1-0.6,0.2-0.9,0.4L40.8,9.1c5.3-2.4,10.9-3.5,16.3-3.5
	c15.1,0,29.4,8.6,36,23.2C95,32.9,96.1,37.2,96.5,41.7z"/>
<path class="st2" d="M72,77.7l-1.3-2.9l-5.4-11.9c6.7-3.1,11.3-9.9,11.3-17.7c0-0.6,0-1.2-0.1-1.8L92.9,42v0
	C94.2,57.1,85.8,71.4,72,77.7z"/>
<path class="st3" d="M57.1,0v25.7c-0.8,0-1.6,0.1-2.4,0.2c-0.2,0-0.4,0-0.6,0.1c-0.3,0-0.6,0.1-0.8,0.2c-0.3,0-1.4,0.3-1.5,0.4
	c-0.2,0.1-0.5,0.1-0.7,0.2c-0.3,0.1-0.6,0.2-0.9,0.3c0,0-0.1,0-0.1,0c-0.3,0.1-0.6,0.2-0.9,0.4c-6.8,3-11.5,9.9-11.5,17.8
	c0,5.6,2.3,10.6,6.1,14.2L26.2,77.9C17.2,69.4,12,57.5,12,45.1C12,20.2,32.2,0,57.1,0z"/>
<polyline class="st4" points="0.1,12.8 20.6,12.8 27.7,20.9 "/>
<polyline class="st5" points="111.7,17.2 91.2,17.2 84.1,25.3 "/>
<polyline class="st6" points="116.4,62.5 96,62.5 88.9,54.5 "/>
<polyline class="st7" points="95.7,92 75.3,92 60.8,72.5 "/>
</svg>
