<?xml version="1.0" encoding="UTF-8"?>
<svg width="454px" height="500px" viewBox="0 0 454 500" version="1.1" xmlns="http://www.w3.org/2000/svg" xmlns:xlink="http://www.w3.org/1999/xlink">
    <!-- Generator: sketchtool 61.2 (101010) - https://sketch.com -->
    <title>938D83C8-5030-4C3A-AD2E-6A0DA9DDD290</title>
    <desc>Created with sketchtool.</desc>
    <g id="04_elements" stroke="none" stroke-width="1" fill="none" fill-rule="evenodd">
        <g id="01_images" transform="translate(-165.000000, -6167.000000)">
            <g id="Юк" transform="translate(165.000000, 6167.000000)">
                <path d="M0.657204659,383.851964 C-1.94895175,433.534743 71.5068885,512.205438 136.683461,498.066465 C211.551913,481.827795 292.652479,457.167674 293.490982,417.734139 C293.929118,396.94864 272.339567,383.089124 280.210915,364.380665 C286.155973,350.271903 304.436839,343.942598 321.758336,337.945619 C349.292945,328.413897 358.093444,334.607251 370.859834,323.595166 C382.538436,313.519637 390.674176,294.954683 384.457171,282.809668 C383.505358,280.951662 380.430849,275.76284 371.615241,272.23565 C344.654742,261.450151 308.032579,283.753776 293.868686,291.117825 C208.371647,335.589124 129.038735,258.187311 57.3807654,303.202417 C39.1981032,314.599698 22.7075541,331.570997 8.88359401,356.344411 C4.1548318,364.798516 1.34618802,374.190111 0.657204659,383.851964 Z" id="Path" fill="#00BCFE" fill-rule="nonzero"></path>
                <path d="M47.4547088,240.86858 C7.50875208,304.327795 7.55407654,402.643505 50.6123128,432.061934 C58.988838,437.733043 68.7733604,440.972243 78.8796672,441.41994 C151.670749,443.564955 158.099268,330.060423 254.459068,330.060423 C270.6399,330.060423 280.943661,329.584592 295.039567,320.891239 C324.825291,302.507553 319.106855,268.376133 347.260899,257.975831 C362.172646,252.469789 385.212579,256.858006 387.229517,257.265861 C395.433245,258.91994 402.163927,261.533233 410.073045,258.693353 C410.073045,258.693353 419.289018,255.385196 425.77797,243.700906 C436.844692,223.783988 428.527654,139.924471 365.103627,86.6918429 C300.803328,32.7190332 203.061131,29.7129909 161.898968,63.1873112 C156.714968,67.5504345 151.873684,72.3050938 147.417804,77.4093656 C121.461997,107.681269 122.277837,137.212991 113.160067,163.768882 C98.8753078,205.279456 74.7853577,197.454683 47.4547088,240.86858 Z" id="Path" fill="#FFFBFD" fill-rule="nonzero"></path>
                <path d="M117.322363,357.031722 C117.322363,357.031722 53.2184692,421.231118 79.2875874,435.929003 C105.356705,450.626888 139.198968,467.39426 179.915441,447.968278 C220.631913,428.542296 208.129917,397.666163 233.889318,394.969789 C259.648719,392.273414 272.815474,366.759819 253.597903,354.524169 C234.380333,342.28852 226.622296,348.942598 204.360433,338.602719 C182.098569,328.26284 166.529617,323.179758 132.015042,335.098187" id="Path" fill="#000000" fill-rule="nonzero" opacity="0.15"></path>
                <path d="M156.996373,263.595227 L205.871248,263.595227 C210.043249,263.595227 213.425324,260.213631 213.425324,256.042296 L213.425324,232.077039 C213.425324,225.166163 208.892879,219.23716 202.464359,217.681269 C195.333926,215.961203 188.028423,215.071604 180.693511,215.030211 C173.787384,215.044861 166.907562,215.881566 160.199301,217.522659 C153.868985,219.070997 149.41208,225.030211 149.41208,231.873112 L149.41208,256.042296 C149.41208,258.050687 150.212084,259.976382 151.63529,261.393692 C153.058496,262.811001 154.987677,263.6032 156.996373,263.595227 Z" id="Path" fill="#4835DE" fill-rule="nonzero"></path>
                <path d="M243.007088,274.486405 L232.068785,263.549849 L231.985691,263.481873 L231.985691,209.312689 C231.985691,209.274924 231.985691,209.23716 231.985691,209.199396 L231.985691,196.223565 C231.972007,185.868286 224.785088,176.904107 214.679301,174.637462 C203.401615,172.066658 191.875227,170.744501 180.308253,170.694864 C169.400389,170.725112 158.531135,171.992018 147.908819,174.471299 C137.915716,176.813875 130.856304,185.734545 130.874376,195.996979 L130.874376,209.214502 C130.87761,210.016934 130.922997,210.818643 131.010349,211.616314 L131.010349,263.512085 L130.934809,263.564955 L119.996506,274.501511 C119.318195,275.180898 118.937749,276.101973 118.938935,277.061934 L118.938935,281.072508 C118.938935,281.072508 118.938935,281.125378 118.938935,281.148036 C118.919898,281.323756 118.919898,281.501017 118.938935,281.676737 L122.104093,357.39426 C122.148338,358.757102 123.255961,359.844595 124.619601,359.864048 L129.499534,359.864048 C130.863173,359.844595 131.970797,358.757102 132.015042,357.39426 L135.036672,284.690332 L139.856173,284.690332 L142.250815,342.031722 C142.287007,343.128078 143.17829,344.002592 144.275308,344.018127 L148.203428,344.018127 C149.299108,344.00243 150.18813,343.126865 150.220366,342.031722 L152.592346,284.675227 L209.111947,284.675227 L211.514143,342.016616 C211.550335,343.112972 212.441618,343.987487 213.538636,344.003021 L217.459201,344.003021 C218.556219,343.987487 219.447502,343.112972 219.483694,342.016616 L221.878336,284.675227 L227.823394,284.675227 L230.845025,357.379154 C230.889269,358.741996 231.996893,359.829489 233.360532,359.848943 L238.240466,359.848943 C239.604105,359.829489 240.711729,358.741996 240.755973,357.379154 L243.906023,281.971299 C243.9934,281.67442 244.039161,281.366856 244.042078,281.057402 L244.042078,277.046828 C244.048385,276.090264 243.676396,275.169943 243.007088,274.486405 Z M149.41208,240.725076 L149.41208,231.873112 C149.41208,225.030211 153.868985,219.070997 160.199301,217.522659 C166.917075,215.876639 173.807188,215.037381 180.723727,215.022659 C188.058639,215.064051 195.364143,215.95365 202.494576,217.673716 C208.900433,219.18429 213.455541,225.15861 213.455541,232.069486 L213.455541,256.042296 C213.455541,260.213631 210.073465,263.595166 205.901464,263.595166 L157.026589,263.595166 C152.854588,263.595166 149.472512,260.213631 149.472512,256.042296 L149.41208,240.725076 Z M222.905691,276.978852 L219.634775,277.077039 L211.00802,277.258308 C207.434942,277.303625 203.272646,277.39426 198.808186,277.416918 L184.825591,277.484894 L170.842995,277.416918 C166.378536,277.416918 162.21624,277.303625 158.643161,277.265861 C155.070083,277.228097 152.101331,277.114804 150.016406,277.077039 L146.745491,276.978852 C146.629266,276.974914 146.519375,276.924939 146.440028,276.839938 C146.36068,276.754936 146.318386,276.641881 146.322193,276.52568 C146.333827,276.296957 146.516731,276.114081 146.745491,276.102719 L150.016406,276.004532 C152.101331,275.966767 155.077637,275.861027 158.643161,275.81571 C162.208686,275.770393 166.378536,275.679758 170.842995,275.664653 L184.825591,275.596677 L198.808186,275.664653 C203.272646,275.664653 207.434942,275.777946 211.00802,275.823263 L219.634775,276.012085 L222.905691,276.102719 C223.147667,276.102719 223.343827,276.298848 223.343827,276.540785 C223.343827,276.782723 223.147667,276.978852 222.905691,276.978852 L222.905691,276.978852 Z" id="Shape" fill="#4835DE" fill-rule="nonzero"></path>
                <path d="M194.464592,256.450151 C171.448685,265.495244 146.471961,268.384824 121.998336,264.833837 L121.545092,277.145015 C121.545092,277.145015 162.276672,286.691843 195.363527,277.145015 L195.25777,274.743202 L194.464592,256.450151 Z" id="Path" fill="#7ACCE4" fill-rule="nonzero"></path>
                <path d="M210.834276,221.925982 C210.365314,220.554608 209.825736,219.2084 209.217704,217.892749 C207.874175,214.908113 206.292796,212.036321 204.488852,209.305136 C202.445447,206.198172 200.077817,203.31696 197.42579,200.70997 C191.705099,194.964249 184.320899,191.164399 176.3197,189.848943 C150.63584,185.76284 137.922329,190.793051 137.922329,190.793051 C137.922329,190.793051 127.052013,193.610272 118.757637,201.759819 C117.388315,203.087093 116.178997,204.569982 115.154343,206.178248 C113.127978,209.373509 111.444185,212.773468 110.130882,216.321752 C107.577604,223.300604 107.622875,228.043807 107.622875,228.043807 C108.712758,228.842113 109.894641,229.506499 111.143128,230.022659 C114.613765,231.485 118.301742,232.36538 122.058769,232.628399 C122.428918,232.628399 122.814176,232.688822 123.199434,232.71148 L122.957704,239.176737 L122.587554,249.123867 C145.786123,253.617825 173.773977,263.47432 196.481531,254.833837 L193.4599,233.149547 C193.4599,233.149547 202.962928,231.306647 210.834276,221.925982 Z" id="Path" fill="#F45B25" fill-rule="nonzero"></path>
                <path d="M147.735075,190.92145 C147.548649,191.744468 147.248648,192.537563 146.843694,193.277946 C146.843694,193.277946 157.275874,204.607251 170.865657,195.347432 C170.757719,192.492755 170.838472,189.634066 171.107388,186.79003 C163.170564,187.149513 155.314064,188.538271 147.735075,190.92145 L147.735075,190.92145 Z" id="Path" fill="#FFB19B" fill-rule="nonzero"></path>
                <path d="M175.647388,173.716012 L145.748353,168.799094 C145.748353,168.799094 148.951281,185.981873 147.735075,190.959215 C155.314064,188.576036 163.170564,187.187277 171.107388,186.827795 C171.394443,183.791541 174.597371,176.457704 175.647388,173.716012 Z" id="Path" fill="#E89E90" fill-rule="nonzero"></path>
                <path d="M226.743161,143.685801 C224.983062,149.962236 217.54985,155.362538 205.191381,148.97281 L206.316938,139.909366 C213.298081,137.270086 221.167581,138.725013 226.743161,143.685801 L226.743161,143.685801 Z" id="Path" fill="#F5A999" fill-rule="nonzero"></path>
                <path d="M224.091681,134.13142 C226.909351,136.268882 227.7403,140.120846 226.743161,143.685801 C221.173925,138.736648 213.319604,137.282377 206.347155,139.909366 L207.102562,133.678248 C207.102562,133.678248 216.310982,128.232628 224.091681,134.13142 Z" id="Path" fill="#F5A999" fill-rule="nonzero"></path>
                <path d="M108.967554,130.664653 C109.118636,137.175227 115.010815,144.259819 128.540166,141.110272 L129.673278,132.046828 C123.568201,127.764358 115.587829,127.231642 108.967554,130.664653 L108.967554,130.664653 Z" id="Path" fill="#F0A087" fill-rule="nonzero"></path>
                <path d="M116.181697,123.867069 C112.92589,125.249245 108.876905,126.888218 108.967554,130.619335 C115.590598,127.190743 123.571092,127.729289 129.673278,132.016616 L130.428686,125.785498 C130.428686,125.785498 125.186156,120.090634 116.181697,123.867069 Z" id="Path" fill="#F0A087" fill-rule="nonzero"></path>
                <path d="M148.951281,177.054381 C135.474809,173.081571 123.365624,165.634441 120.646156,155.861027 C116.642496,141.510574 115.584925,131.759819 119.067354,118.058912 C122.549784,104.358006 124.068153,98.2401813 137.771248,93.6480363 C151.474343,89.0558912 225.746023,66.4577039 214.898369,138.965257 C214.898369,138.965257 214.626423,141.669184 213.99188,145.438066 C198.317171,165.407855 174.189451,175.702417 148.951281,177.054381 Z" id="Path" fill="#FFB19B" fill-rule="nonzero"></path>
                <path d="M213.99188,145.438066 C213.00985,151.314199 211.113777,159.78852 207.880632,164.765861 C202.592779,172.930514 187.182463,180.853474 168.078203,180.226586 C161.596019,179.962848 155.171468,178.897335 148.951281,177.054381 C174.189451,175.702417 198.317171,165.407855 213.99188,145.438066 Z" id="Path" fill="#F5A999" fill-rule="nonzero"></path>
                <path d="M142.545424,370.090634 C165.472047,378.247734 161.203993,361.276435 162.548619,369.546828 C162.548619,369.546828 154.11827,397.990937 139.365158,396.89577 C126.266389,395.906344 142.545424,370.090634 142.545424,370.090634 Z" id="Path" fill="#635BA5" fill-rule="nonzero"></path>
                <path d="M154.473311,385.045317 C159.406123,377.492447 161.581697,368.345921 161.581697,368.345921 C154.881231,369.924471 142.568087,368.255287 142.568087,368.255287 C142.568087,368.255287 137.280233,376.601208 135.1802,383.987915 C141.578502,381.925982 148.210982,382.635952 154.473311,385.045317 Z" id="Path" fill="#E8E6F1" fill-rule="nonzero"></path>
                <path d="M135.21797,383.987915 C133.593844,389.592145 133.775141,394.637462 139.425591,395.060423 C145.763461,395.528701 150.809584,390.702417 154.533744,385.045317 C148.210982,382.635952 141.578502,381.925982 135.21797,383.987915 Z" id="Path" fill="#635BA5" fill-rule="nonzero"></path>
                <polygon id="Path" fill="#4D1CD3" fill-rule="nonzero" points="139.493577 339.592145 142.651181 369.040785 162.065158 369.524169 163.387121 329.939577 163.855474 317.137462 137.053611 316.782477"></polygon>
                <polygon id="Path" fill="#4D1CD3" fill-rule="nonzero" points="164.044326 317.145015 166.491847 339.94713 169.641897 369.39577 188.935008 369.879154 190.377837 330.294562 190.84619 317.5"></polygon>
                <path d="M169.53614,370.430514 C187.446855,376.805136 188.579967,367.454683 189.040765,367.258308 C189.169185,367.205438 189.146522,368.013595 189.539334,369.886707 C189.539334,369.886707 181.108985,398.338369 166.363428,397.23565 C153.257105,396.261329 169.53614,370.430514 169.53614,370.430514 Z" id="Path" fill="#635BA5" fill-rule="nonzero"></path>
                <path d="M181.471581,385.400302 C186.396839,377.847432 188.376007,368.625378 188.376007,368.625378 C181.675541,370.21148 169.558802,368.625378 169.558802,368.625378 C169.558802,368.625378 164.270948,376.971299 162.170915,384.358006 C168.569218,382.28852 175.201697,382.990937 181.471581,385.400302 Z" id="Path" fill="#E8E6F1" fill-rule="nonzero"></path>
                <path d="M162.170915,384.3429 C160.554343,389.94713 160.728087,394.992447 166.38609,395.415408 C172.716406,395.891239 177.762529,391.064955 181.494243,385.400302 C175.201697,382.990937 168.569218,382.28852 162.170915,384.3429 Z" id="Path" fill="#635BA5" fill-rule="nonzero"></path>
                <polygon id="Path" fill="#FFB30D" fill-rule="nonzero" points="112.608619 293.066465 116.362995 387.907855 125.480765 388.028701 124.000166 293.217523"></polygon>
                <polygon id="Path" fill="#FFB30D" fill-rule="nonzero" points="222.361797 293.194864 223.751747 389.335347 232.869517 389.456193 231.388918 294.645015"></polygon>
                <polygon id="Path" fill="#FFB30D" fill-rule="nonzero" points="74.5285191 315.959215 78.2828952 410.793051 87.4006656 410.913897 85.9276206 316.110272"></polygon>
                <polygon id="Path" fill="#FFB30D" fill-rule="nonzero" points="198.052779 317.598187 201.807155 412.432024 210.917371 412.55287 209.444326 317.749245"></polygon>
                <polygon id="Path" fill="#E5981C" fill-rule="nonzero" points="241.987288 268.089124 218.849151 302.069486 130.141631 300.898792 129.967887 293.300604 124.000166 293.217523 124.121032 300.81571 68.7496506 300.083082 68.5381364 315.876133 124.362762 316.616314 125.480765 388.028701 132.007488 383.10423 130.496672 316.699396 209.444326 317.749245 210.917371 412.55287 217.444093 407.628399 215.404493 317.824773 214.278935 317.809668 220.103128 317.885196 231.456905 298.738671 232.869517 389.456193 239.388686 384.531722 238.021398 287.65861 241.813544 281.261329"></polygon>
                <polygon id="Path" fill="#E5981C" fill-rule="nonzero" points="85.9276206 316.110272 87.4006656 410.913897 93.9273877 405.989426 91.887787 316.185801"></polygon>
                <path d="M57.4109817,284.743202 L60.0246922,299.962236 L99.388985,300.490937 C95.9141098,296.397281 92.3712479,289.592145 89.0852246,285.15861 L57.4109817,284.743202 Z" id="Path" fill="#FFB30D" fill-rule="nonzero"></path>
                <path d="M89.0701165,285.15861 C92.3561398,289.592145 95.8687854,296.397281 99.3738769,300.490937 L111.279101,300.641994 C108.091281,296.246224 103.725025,289.652568 100.272812,285.309668 L89.0701165,285.15861 Z" id="Path" fill="#FFC248" fill-rule="nonzero"></path>
                <path d="M100.272812,285.309668 C103.740133,289.652568 108.091281,296.246224 111.279101,300.641994 L124.876439,300.823263 C122.610216,296.397281 118.719867,289.909366 116.430982,285.521148 L100.272812,285.309668 Z" id="Path" fill="#FFB30D" fill-rule="nonzero"></path>
                <path d="M221.047388,286.910876 L137.484193,285.800604 C139.750416,290.445619 143.572779,296.593656 146.345125,301.110272 L218.86426,302.077039 L245.107121,263.557402 L245.726556,250.083082 L221.047388,286.910876 Z" id="Path" fill="#FFB30D" fill-rule="nonzero"></path>
                <path d="M116.415874,285.498489 C118.682097,289.886707 122.572446,296.374622 124.861331,300.800604 L146.322463,301.087613 C143.550116,296.555891 139.705092,290.422961 137.461531,285.777946 L116.415874,285.498489 Z" id="Path" fill="#FFC248" fill-rule="nonzero"></path>
                <polygon id="Path" fill="#FFCB64" fill-rule="nonzero" points="245.711448 250.060423 99.2605657 245.196375 57.3883195 284.743202 221.493078 286.918429"></polygon>
                <path d="M132.151015,260.906344 C132.151015,260.906344 143.48213,263.927492 147.259168,260.906344 C151.036206,257.885196 157.578037,251.8429 152.040899,249.577039 C146.50376,247.311178 139.705092,247.311178 138.949684,247.311178 C138.194276,247.311178 126.107754,254.108761 126.107754,254.864048 C126.107754,255.619335 132.151015,260.906344 132.151015,260.906344 Z" id="Path" fill="#FFB30D" fill-rule="nonzero"></path>
                <path d="M80.6246589,176.223565 C80.3829285,176.41994 78.2526789,171.767372 76.4019301,172.703927 C75.8580366,172.975831 77.1573378,176.752266 78.2980033,179.358006 L82.0070549,186.63142 C83.2610316,194.239678 84.5200444,201.845418 85.7840932,209.44864 C87.4400095,209.257065 89.1177555,209.461573 90.6791348,210.045317 C93.2475208,211.049849 94.5317138,213.134441 95.1058236,213.451662 C95.8612313,213.851964 113.507554,222.326284 113.507554,222.326284 L116.937105,217.60574 L102.123561,212.439577 C98.2206212,204.44864 94.3176816,196.455186 90.4147421,188.459215 C89.8028619,187.243202 88.7906156,184.682779 89.7046589,182.092145 C89.9214046,181.529951 90.189446,180.988897 90.505391,180.475831 C91.8651248,178.089124 92.771614,176.457704 94.6979035,175.619335 C95.2871215,175.362538 96.2918136,175.037764 96.3144759,174.471299 C96.3371381,173.904834 95.6723794,173.58006 95.3777704,173.444109 C93.3759401,172.515106 89.7650915,175.966767 89.1078869,176.608761 C89.1078869,176.608761 90.7395674,167.084592 89.1607654,165.490937 C87.5819634,163.897281 87.1362729,168.074018 86.7661231,170.981873 C86.5697171,172.567976 86.4639601,174.584592 86.4639601,174.584592 C86.4639601,174.584592 86.7434609,162.318731 83.0495175,163.617825 C81.3951747,164.191843 82.9966389,174.94713 82.9966389,174.94713 C81.7048918,170.415408 80.9192679,167.167674 79.6955075,167.296073 C79.5594549,167.316544 79.435732,167.386463 79.34802,167.492447 C77.4141764,169.380665 81.2365391,175.725076 80.6246589,176.223565 Z" id="Path" fill="#F0A087" fill-rule="nonzero"></path>
                <path d="M81.6973378,267.734139 C81.6973378,267.734139 79.0005324,272.356495 82.1430283,272.771903 C85.2855241,273.187311 168.372812,274.282477 173.411381,273.987915 C178.44995,273.693353 183.103261,274.350453 183.616938,273.602719 C184.130616,272.854985 181.645324,269.546828 180.391348,269.531722 C179.137371,269.516616 81.6973378,267.734139 81.6973378,267.734139 Z" id="Path" fill="#FFB30D" fill-rule="nonzero"></path>
                <path d="M146.549085,266.827795 L133.646722,209.365559 C133.293455,207.791947 131.905608,206.666845 130.292712,206.646526 L70.1169384,205.845672 C69.0540889,205.833222 68.0433849,206.305503 67.3713419,207.128881 C66.6992989,207.95226 66.4391805,209.036974 66.6647255,210.075529 L79.2724792,267.537764 C79.6228576,269.118544 81.0147912,270.250678 82.6340433,270.271903 L143.066656,271.072508 C144.139049,271.098637 145.163643,270.629156 145.843968,269.799911 C146.524294,268.970666 146.784422,267.874206 146.549085,266.827795 L146.549085,266.827795 Z" id="Path" fill="#00BAFF" fill-rule="nonzero"></path>
                <path d="M180.194942,265.060423 L140.505824,264.539275 L128.1398,209.29003 C127.784054,207.717956 126.397693,206.594059 124.78579,206.570997 L70.1169384,205.81546 C69.0540889,205.80301 68.0433849,206.275291 67.3713419,207.09867 C66.6992989,207.922048 66.4391805,209.006763 66.6647255,210.045317 L79.2724792,267.507553 C79.6228576,269.088333 81.0147912,270.220466 82.6340433,270.241692 L101.715641,270.490937 L101.715641,270.490937 L180.104293,271.533513 C180.786785,271.543315 181.44522,271.281358 181.934203,270.805207 C182.423186,270.329056 182.702494,269.677879 182.710449,268.995468 L182.710449,267.643505 C182.710449,266.243038 181.595147,265.097277 180.194942,265.060423 L180.194942,265.060423 Z" id="Path" fill="#5245EE" fill-rule="nonzero"></path>
                <ellipse id="Oval" fill="#FFFFFF" fill-rule="nonzero" cx="183.60183" cy="141.427492" rx="9.2084193" ry="9.20694864"></ellipse>
                <path d="M192.092612,131.049849 C192.476996,131.355307 192.922749,131.574283 193.399468,131.691843 C193.892841,131.804566 194.39835,131.5597 194.615674,131.102719 C194.689276,130.605697 194.510896,130.104615 194.139767,129.765861 C191.737571,126.888218 188.096506,124.924471 184.319468,125.090634 C183.609633,125.087713 182.910596,125.264393 182.287421,125.60423 C181.418702,126.140483 180.8597,127.44713 181.76619,128.232628 C182.521597,128.867069 183.949318,128.459215 184.878469,128.549849 C187.449221,128.791226 189.923865,129.648793 192.092612,131.049849 Z" id="Path" fill="#8A400F" fill-rule="nonzero"></path>
                <path d="M186.223095,133.783988 C182.662283,132.527941 178.695346,133.541811 176.174189,136.352288 C173.653032,139.162765 173.074863,143.215583 174.709594,146.618742 C176.344324,150.021901 179.86956,152.104251 183.639597,151.893676 C187.409635,151.683102 190.680968,149.221131 191.926423,145.6571 C192.745106,143.32645 192.60413,140.766073 191.534514,138.539361 C190.464899,136.31265 188.554286,134.602057 186.223095,133.783988 L186.223095,133.783988 Z" id="Path" fill="#FFFFFF" fill-rule="nonzero"></path>
                <ellipse id="Oval" fill="#8A400F" fill-rule="nonzero" cx="183.141032" cy="142.575529" rx="6.20945092" ry="6.20845921"></ellipse>
                <ellipse id="Oval" fill="#1D1D1B" fill-rule="nonzero" cx="183.141032" cy="142.575529" rx="3.22559068" ry="3.22507553"></ellipse>
                <ellipse id="Oval" fill="#FFFFFF" fill-rule="nonzero" cx="148.868186" cy="132.507553" rx="9.06489185" ry="9.06344411"></ellipse>
                <path d="M145.884326,119.441088 C145.403317,119.539364 144.907398,119.539364 144.426389,119.441088 C143.934388,119.3208 143.592041,118.874877 143.602995,118.36858 C143.670982,117.877644 144.169551,117.613293 144.622795,117.386707 C148.052346,115.876133 152.176872,115.740181 155.478003,117.55287 C156.116381,117.86335 156.663051,118.334451 157.064359,118.91994 C157.608253,119.78852 157.525158,121.185801 156.369384,121.503021 C155.432679,121.744713 154.307121,120.747734 153.438403,120.407855 C151.036246,119.47709 148.44351,119.145273 145.884326,119.441088 L145.884326,119.441088 Z" id="Path" fill="#8A400F" fill-rule="nonzero"></path>
                <path d="M149.925757,123.746224 C153.668892,124.209524 156.763931,126.882445 157.766744,130.517815 C158.769558,134.153185 157.482503,138.034517 154.506113,140.350799 C151.529723,142.667081 147.450609,142.961803 144.172066,141.097448 C140.893523,139.233093 139.061712,135.577104 139.531348,131.835347 C140.167706,126.731792 144.821353,123.110237 149.925757,123.746224 Z" id="Path" fill="#FFFFFF" fill-rule="nonzero"></path>
                <ellipse id="Oval" fill="#8A400F" fill-rule="nonzero" cx="148.769983" cy="133.746224" rx="6.20945092" ry="6.20845921"></ellipse>
                <ellipse id="Oval" fill="#1D1D1B" fill-rule="nonzero" cx="148.769983" cy="133.746224" rx="3.22559068" ry="3.22507553"></ellipse>
                <ellipse id="Oval" fill="#FFFFFF" fill-rule="nonzero" cx="151.353478" cy="132.560423" rx="1.45793677" ry="1.45770393"></ellipse>
                <ellipse id="Oval" fill="#FFFFFF" fill-rule="nonzero" cx="186.10223" cy="142.379154" rx="1.45793677" ry="1.45770393"></ellipse>
                <path d="M166.869551,151.623867 C167.57208,149.637462 165.509817,148.293051 162.729917,147.311178 C159.950017,146.329305 157.502496,146.064955 156.792413,148.066465 C156.082329,150.067976 157.774443,152.454683 160.569451,153.444109 C163.364459,154.433535 166.189684,153.602719 166.869551,151.623867 Z" id="Path" fill="#F0A087" fill-rule="nonzero"></path>
                <path d="M230.233145,96.2160121 C233.889318,101.299094 236.608785,108.225076 235.989351,117.364048 C235.989351,117.734139 235.936473,118.119335 235.91381,118.459215 C227.170034,124.724231 216.823068,128.370895 206.082762,128.97281 C204.70792,126.706949 203.340632,124.214502 202.139534,121.699396 C212.753012,115.26435 222.021864,106.329305 230.233145,96.2160121 Z" id="Path" fill="#894824" fill-rule="nonzero"></path>
                <path d="M164.845058,106.276435 C164.845058,106.276435 164.693977,106.52568 164.474908,106.94864 C162.714809,110.10574 154.843461,123.26284 146.2998,122.809668 C152.018236,101.095166 162.201131,80.7628399 177.860732,66.163142 C188.381854,68.3120662 198.427043,72.3474124 207.510483,78.0740181 C204.609717,73.0060423 204.791015,68.3685801 206.936373,66.805136 C208.306295,65.8825413 210.098896,65.8825413 211.468819,66.805136 C211.468819,66.805136 213.281797,68.1873112 212.080699,80.1888218 L212.080699,80.1888218 C212.442277,77.7263272 213.6303,75.4598561 215.449817,73.7613293 C216.613145,72.7719033 217.240133,72.8021148 217.51208,72.847432 C218.894476,73.0891239 219.627221,75.3549849 219.778303,76.6238671 C220.25421,80.6495468 216.001265,83.897281 215.374276,84.358006 C221.290095,86.9288959 226.41757,91.0234442 230.233145,96.223565 C222.021864,106.336858 212.753012,115.271903 202.139534,121.729607 C199.873311,116.910876 198.16609,111.910876 198.188752,107.583082 C198.188752,107.583082 186.993611,117.250755 176.795607,120.717523 C176.476049,120.042741 176.368083,119.287101 176.48589,118.549849 C176.368083,119.287101 176.476049,120.042741 176.795607,120.717523 C173.698436,121.774924 170.691913,122.265861 168.115973,121.729607 C166.26645,121.380357 164.58783,120.420159 163.349351,119.003021 C161.037804,116.057402 161.581697,110.86858 164.845058,106.276435 Z" id="Path" fill="#803E12" fill-rule="nonzero"></path>
                <path d="M152.282629,66.3217523 C156.788377,65.0793766 161.458824,64.5392912 166.129251,64.7205438 C170.071863,64.8841005 173.994969,65.3639917 177.860732,66.1555891 C162.201131,80.7779456 152.018236,101.110272 146.2998,122.802115 C145.92299,122.791896 145.54713,122.759108 145.174243,122.703927 C142.009085,122.084592 140.12812,120.521148 139.032779,118.663142 C139.682429,100.226586 143.837171,82.0543807 152.282629,66.3217523 Z" id="Path" fill="#894824" fill-rule="nonzero"></path>
                <path d="M122.957704,88.6706949 C126.734742,82.0468278 136.887421,70.5438066 152.282629,66.3217523 C143.837171,82.0543807 139.682429,100.226586 139.032779,118.685801 C136.623028,114.599698 138.035641,109.093656 138.035641,109.093656 C138.035641,109.093656 129.174709,130.664653 117.239268,128.20997 C105.303827,125.755287 118.145757,97.1148036 122.957704,88.6706949 Z" id="Path" fill="#803E12" fill-rule="nonzero"></path>
                <path d="M226.75827,140.347432 C222.690221,140.248601 218.6227,140.564941 214.618869,141.291541 C211.518535,137.375798 208.66754,133.269003 206.082762,128.995468 C216.823068,128.393553 227.170034,124.746889 235.91381,118.481873 C231.109418,141.570997 226.75827,140.347432 226.75827,140.347432 Z" id="Path" fill="#803E12" fill-rule="nonzero"></path>
                <path d="M169.619235,380.838369 C176.908918,382.175227 178.631248,381.918429 178.797438,381.412387 C179.175141,380.196375 170.880765,377.160121 171.33401,375.370091 C171.787255,373.58006 180.8597,374.667674 181.02589,373.610272 C181.086323,373.179758 179.658602,372.348943 173.116772,370.634441" id="Path" stroke="#635BA5" stroke-linecap="round" stroke-linejoin="round"></path>
                <path d="M143.240399,381.533233 C147.28183,381.533233 150.552745,381.208459 150.696273,380.309668 C150.900233,379.010574 144.433943,377.5 144.615241,375.951662 C144.834309,374.093656 154.337338,374.138973 154.375108,373.187311 C154.375108,372.726586 152.161764,372.084592 144.554809,371.170695" id="Path" stroke="#635BA5" stroke-linecap="round" stroke-linejoin="round"></path>
                <path d="M165.887521,261.79003 C165.887521,261.79003 161.10579,265.188822 161.611913,265.944109 C162.118037,266.699396 167.526755,263.799094 168.282163,263.172205 C169.037571,262.545317 164.127421,267.077039 165.388952,267.326284 C166.650483,267.575529 172.565324,262.545317 172.943028,262.039275 C173.320732,261.533233 169.415275,265.687311 169.664559,266.570997 C169.913844,267.454683 174.574709,263.549849 176.213943,262.545317 C177.853178,261.540785 189.561997,257.756798 192.832912,256.246224 C196.103827,254.73565 212.979634,249.954683 216.001265,247.688822 C219.022895,245.422961 210.834276,221.925982 210.834276,221.925982 C210.834276,221.925982 200.636273,230.566465 199.382296,230.944109 C198.128319,231.321752 193.452346,233.20997 193.452346,233.20997 L195.718569,241.925982 C195.718569,241.925982 184.644293,249.229607 175.700266,253.889728 C166.75624,258.549849 161.098236,256.02719 159.338136,256.654079 C157.578037,257.280967 160.969817,259.297583 162.231348,259.297583 C163.266256,259.297583 166.42386,259.214502 167.519201,259.18429 C167.753378,259.18429 168.403028,257.726586 168.403028,257.726586 C168.403028,257.726586 162.480632,258.91994 159.965125,260.936556 C157.449617,262.953172 158.076606,263.957704 161.47594,262.824773 C164.875275,261.691843 166.824226,261.185801 166.824226,261.185801" id="Path" fill="#F0A087" fill-rule="nonzero"></path>
                <path d="M210.834276,221.925982 C210.834276,221.925982 200.636273,230.566465 199.382296,230.944109 C198.128319,231.321752 193.452346,233.20997 193.452346,233.20997 L194.577903,237.515106 L213.840799,231.47281 C212.352646,226.291541 210.834276,221.925982 210.834276,221.925982 Z" id="Path" fill="#E39884" fill-rule="nonzero"></path>
                <path d="M150.658502,159.320242 C150.809584,159.765861 153.680133,168.066465 165.766656,164.456193" id="Path" stroke="#E39884" stroke-width="3.01" stroke-linecap="round" stroke-linejoin="round"></path>
                <ellipse id="Oval" fill="#00BAFF" fill-rule="nonzero" transform="translate(103.445387, 239.572934) rotate(-17.820000) translate(-103.445387, -239.572934) " cx="103.445387" cy="239.572934" rx="3.77698178" ry="7.74180766"></ellipse>
                <path d="M275.723794,98.3232628 C275.867321,66.4728097 256.476007,51.6389728 267.021498,28.1495468 C272.709717,15.4909366 285.604526,6.6918429 299.179201,2.4244713 C324.795075,-5.61178248 346.649018,14.2598187 354.497704,39.1314199 C366.79574,78.0966767 345.674542,118.927492 331.533311,142.001511 C320.202196,160.536254 310.789817,168.081571 307.178968,170.808157 C283.761331,188.496979 248.151414,195.732628 240.340499,184.667674 C230.716606,171.019637 275.534942,146.608761 275.723794,98.3232628 Z" id="Path" fill="#202BBA" fill-rule="nonzero"></path>
                <path d="M417.574243,235.649547 C434.661564,234.712991 451.499601,213.36858 453.282363,191.941088 C454.793178,173.549849 444.821797,160.219033 442.706656,157.583082 C426.268985,136.661631 394.98,132.65861 372.295108,140.362538 C335.400998,152.915408 316.515807,198.285498 325.308752,208.58006 C331.140499,215.422961 345.047554,201.956193 368.797571,207.598187 C395.833611,214.02568 399.52,236.608761 417.574243,235.649547 Z" id="Path" fill="#4276FA" fill-rule="nonzero"></path>
            </g>
        </g>
    </g>
</svg>