<?xml version="1.0" standalone="no"?>
<!DOCTYPE svg PUBLIC "-//W3C//DTD SVG 1.1//EN" "http://www.w3.org/Graphics/SVG/1.1/DTD/svg11.dtd" >
<svg xmlns="http://www.w3.org/2000/svg" xmlns:xlink="http://www.w3.org/1999/xlink" version="1.1">
<metadata>
Created by FontForge 20161116 at Tue Oct  2 11:25:54 2012
 By Jimmy Wärting
Copyright (c) 2012 by Manuel Eduardo Corradine - Sergio Andre's Rami'rez. All rights reserved.
</metadata>
<defs>
<font id="Neuron-DemiBold" horiz-adv-x="464" >
  <font-face 
    font-family="Neuron"
    font-weight="600"
    font-stretch="normal"
    units-per-em="1000"
    panose-1="0 0 0 0 0 0 0 0 0 0"
    ascent="750"
    descent="-250"
    x-height="492"
    cap-height="618"
    bbox="-57 -239 867 865"
    underline-thickness="50"
    underline-position="-100"
    stemh="84"
    stemv="97"
    unicode-range="U+000D-2212"
  />
<missing-glyph horiz-adv-x="459" 
 />
    <glyph glyph-name=".notdef" horiz-adv-x="459" 
 />
    <glyph glyph-name="CR" unicode="&#xd;" horiz-adv-x="424" 
 />
    <glyph glyph-name="space" unicode=" " horiz-adv-x="205" 
 />
    <glyph glyph-name="exclam" unicode="!" horiz-adv-x="207" 
d="M103 151c-36 0 -42 5 -42 30c0 125 -7 270 -7 407c0 25 11 30 49 30c39 0 50 -5 50 -30c0 -137 -7 -282 -7 -407c0 -25 -6 -30 -43 -30zM104 0c-43 0 -52 6 -52 36v26c0 30 9 36 52 36c42 0 51 -6 51 -36v-26c0 -30 -9 -36 -51 -36z" />
    <glyph glyph-name="quotedbl" unicode="&#x22;" horiz-adv-x="284" 
d="M74 399c-26 0 -33 5 -35 23c-7 51 -15 140 -15 164c0 25 7 32 50 32c42 0 50 -7 50 -32c0 -24 -8 -113 -15 -164c-2 -18 -9 -23 -35 -23zM211 399c-27 0 -34 5 -36 23c-6 51 -14 140 -14 164c0 25 7 32 50 32c42 0 49 -7 49 -32c0 -24 -8 -113 -14 -164
c-2 -18 -9 -23 -35 -23z" />
    <glyph glyph-name="numbersign" unicode="#" 
d="M314 38c-32 0 -41 4 -41 30v110h-84v-110c0 -26 -9 -30 -41 -30s-41 4 -41 30v110h-52c-25 0 -30 5 -30 36c0 32 5 36 30 36h52v135h-52c-25 0 -30 5 -30 36s5 36 30 36h52v99c0 26 9 30 41 30s41 -4 41 -30v-99h84v99c0 26 9 30 41 30c31 0 40 -4 40 -30v-99h54
c25 0 30 -5 30 -36s-5 -36 -30 -36h-54v-135h54c25 0 30 -4 30 -36c0 -31 -5 -36 -30 -36h-54v-110c0 -26 -9 -30 -40 -30zM189 385v-135h84v135h-84z" />
    <glyph glyph-name="dollar" unicode="$" 
d="M243 723c37 0 44 -4 44 -30v-73c34 -4 68 -10 94 -17c16 -4 24 -11 24 -45c0 -33 -6 -39 -18 -39c-14 0 -65 17 -136 17c-73 0 -100 -7 -100 -76c0 -43 10 -57 44 -72l131 -57c71 -31 95 -71 95 -159c0 -118 -62 -166 -151 -178v-76c0 -26 -7 -30 -45 -30s-44 4 -44 30
v73c-41 3 -82 9 -111 17c-18 6 -27 14 -27 47c0 34 6 39 18 39c19 0 64 -17 139 -17c87 0 126 23 126 89c0 48 -9 70 -50 88l-123 54c-67 29 -97 62 -97 152c0 124 65 156 142 161v72c0 26 7 30 45 30z" />
    <glyph glyph-name="percent" unicode="%" horiz-adv-x="521" 
d="M384 0c-97 0 -117 29 -117 139c0 111 24 138 117 138c94 0 117 -27 117 -138c0 -110 -19 -139 -117 -139zM384 61c42 0 46 13 46 77c0 65 -4 78 -46 78c-41 0 -45 -13 -45 -78c0 -64 4 -77 45 -77zM136 341c-97 0 -116 29 -116 139c0 111 23 138 116 138
c94 0 118 -27 118 -138c0 -110 -20 -139 -118 -139zM136 402c42 0 46 13 46 77s-4 77 -46 77c-41 0 -45 -13 -45 -77s4 -77 45 -77zM82 0c-25 0 -34 5 -34 15c0 7 2 13 11 28l324 555c8 15 17 20 54 20c25 0 34 -5 34 -15c0 -7 -2 -13 -11 -29l-324 -554
c-8 -15 -17 -20 -54 -20z" />
    <glyph glyph-name="ampersand" unicode="&#x26;" horiz-adv-x="517" 
d="M483 276h-51v-140c0 -119 -69 -144 -189 -144c-144 0 -200 45 -200 173c0 92 32 142 128 149c-74 12 -103 70 -103 151c0 130 61 158 152 158c55 0 114 -8 158 -20c16 -4 21 -10 21 -43c0 -32 -7 -39 -20 -39c-17 0 -79 17 -141 17c-55 0 -71 -15 -71 -88
c0 -60 14 -102 117 -102h63v57c0 26 5 29 41 29c35 0 41 -3 41 -29v-57h54c22 0 27 -8 27 -36s-5 -36 -27 -36zM245 75c75 0 102 16 102 76v125h-66c-123 0 -139 -40 -139 -104c0 -65 15 -97 103 -97z" />
    <glyph glyph-name="quotesingle" unicode="'" horiz-adv-x="148" 
d="M74 399c-26 0 -33 5 -35 23c-7 51 -15 140 -15 164c0 25 7 32 50 32c42 0 50 -7 50 -32c0 -24 -8 -113 -15 -164c-2 -18 -9 -23 -35 -23z" />
    <glyph glyph-name="parenleft" unicode="(" horiz-adv-x="208" 
d="M41 305c0 159 41 283 69 343c9 18 20 24 51 24c25 0 34 -7 34 -20c0 -31 -56 -140 -56 -347s56 -315 56 -346c0 -14 -9 -21 -34 -21c-31 0 -42 7 -51 24c-28 61 -69 185 -69 343z" />
    <glyph glyph-name="parenright" unicode=")" horiz-adv-x="208" 
d="M167 305c0 -158 -41 -282 -69 -343c-9 -17 -19 -24 -51 -24c-24 0 -34 7 -34 21c0 31 56 140 56 346c0 207 -56 316 -56 347c0 13 10 20 34 20c32 0 42 -6 51 -24c28 -60 69 -184 69 -343z" />
    <glyph glyph-name="asterisk" unicode="*" horiz-adv-x="391" 
d="M195 623c33 0 39 -6 39 -24v-82c0 -10 -1 -16 -3 -22c4 5 10 8 20 11l73 23c17 5 25 2 35 -29c10 -32 6 -39 -11 -45l-73 -23c-11 -3 -17 -5 -24 -4c6 -3 11 -7 18 -16l48 -66c10 -14 10 -22 -18 -42c-26 -19 -34 -18 -45 -3l-48 66c-6 8 -9 14 -11 20
c-1 -6 -4 -12 -10 -20l-48 -66c-11 -15 -19 -16 -45 3c-28 19 -28 28 -18 42l47 66c6 8 11 13 18 16c-7 0 -13 1 -23 4l-73 23c-17 6 -21 13 -11 45c10 31 18 34 35 29l73 -23c10 -3 16 -7 20 -12c-2 6 -3 12 -3 23v82c0 18 6 24 38 24z" />
    <glyph glyph-name="plus" unicode="+" 
d="M232 92c-36 0 -43 5 -43 28v110h-98c-23 0 -28 4 -28 39c0 36 5 39 28 39h98v111c0 23 7 28 43 28s43 -5 43 -28v-111h98c23 0 28 -3 28 -39c0 -35 -5 -39 -28 -39h-98v-110c0 -23 -7 -28 -43 -28z" />
    <glyph glyph-name="comma" unicode="," horiz-adv-x="165" 
d="M81 105c42 0 50 -7 50 -36v-27c0 -28 -6 -55 -15 -84l-16 -55c-11 -28 -19 -33 -52 -33c-25 0 -30 5 -30 18c0 20 13 75 13 125v56c0 29 7 36 50 36z" />
    <glyph glyph-name="hyphen" unicode="-" horiz-adv-x="321" 
d="M33 261c0 36 5 43 28 43h199c23 0 28 -7 28 -43s-5 -43 -28 -43h-199c-23 0 -28 7 -28 43z" />
    <glyph glyph-name="period" unicode="." horiz-adv-x="180" 
d="M91 0c-43 0 -52 6 -52 36v33c0 31 9 36 52 36c42 0 51 -5 51 -36v-33c0 -30 -9 -36 -51 -36z" />
    <glyph glyph-name="slash" unicode="/" horiz-adv-x="267" 
d="M214 672c31 0 42 -7 42 -19c0 -5 -1 -15 -7 -40l-145 -647c-5 -21 -20 -27 -50 -27c-31 0 -41 7 -41 19c0 5 1 15 7 40l145 647c5 21 19 27 49 27z" />
    <glyph glyph-name="zero" unicode="0" 
d="M232 76c84 0 105 28 105 163v132c0 144 -15 168 -105 168c-84 0 -105 -24 -105 -168v-132c0 -135 15 -163 105 -163zM232 -8c-142 0 -202 41 -202 234v151c0 211 64 246 202 246c150 0 202 -41 202 -246v-150c0 -200 -72 -235 -202 -235z" />
    <glyph glyph-name="one" unicode="1" 
d="M372 0h-277c-21 0 -28 8 -28 43c0 36 7 44 28 44h89v428l-80 -23c-10 -3 -18 -4 -23 -4c-9 0 -17 5 -17 42c0 35 5 43 22 48l103 32c14 6 30 8 44 8c38 0 48 -5 48 -30v-501h91c20 0 27 -8 27 -44c0 -35 -7 -43 -27 -43z" />
    <glyph glyph-name="two" unicode="2" 
d="M157 87h230c21 0 28 -8 28 -44c0 -35 -7 -43 -28 -43h-309c-22 0 -30 5 -30 31v64c0 75 30 108 86 161l134 128c25 23 39 39 39 78c0 68 -20 76 -92 76c-69 0 -117 -19 -135 -19c-11 0 -17 6 -17 39c0 34 8 40 26 46c38 11 100 19 153 19c85 0 164 -10 164 -151
c0 -78 -32 -107 -101 -172l-110 -103c-23 -22 -38 -36 -38 -79v-31z" />
    <glyph glyph-name="three" unicode="3" 
d="M234 -8c-55 0 -126 7 -164 18c-19 6 -27 12 -27 45c0 34 5 39 18 39c19 0 84 -17 154 -17c87 0 103 36 103 100c0 63 -21 100 -153 100c-22 0 -27 10 -27 40s5 39 27 39c111 0 141 37 141 99c0 66 -15 83 -88 83c-63 0 -122 -18 -139 -18c-12 0 -18 7 -18 40
c0 34 8 39 24 44c41 11 104 19 161 19c98 0 159 -28 159 -158c0 -81 -38 -134 -113 -146c95 -7 125 -56 125 -148c0 -128 -63 -179 -183 -179z" />
    <glyph glyph-name="four" unicode="4" 
d="M328 0c-38 0 -48 5 -48 30v123h-222c-27 0 -34 5 -34 49c0 21 1 32 13 54l183 330c16 30 34 32 87 32c56 0 69 -5 69 -30v-353h36c21 0 28 -5 28 -41c0 -35 -7 -41 -28 -41h-36v-123c0 -25 -10 -30 -48 -30zM279 530l-158 -295h163l1 295h-6z" />
    <glyph glyph-name="five" unicode="5" 
d="M214 -8c-46 0 -96 8 -134 19c-19 5 -27 9 -27 43s5 39 18 39c16 0 56 -17 127 -17c93 0 115 17 115 104v33c0 78 -22 88 -84 88c-64 0 -109 -16 -135 -16c-16 0 -31 1 -31 25v280c0 23 6 28 32 28h267c21 0 28 -8 28 -44c0 -35 -7 -43 -28 -43h-210v-160
c20 6 62 12 100 12c76 0 158 -5 158 -165v-46c0 -160 -89 -180 -196 -180z" />
    <glyph glyph-name="six" unicode="6" 
d="M230 -8c-119 0 -190 25 -190 243v130c0 236 106 258 209 258c36 0 88 -7 117 -14c17 -4 24 -7 24 -44c0 -31 -7 -39 -19 -39c-13 0 -61 13 -112 13c-79 0 -126 -9 -126 -177v-40c21 39 62 59 137 59c103 0 153 -29 153 -189c0 -156 -60 -200 -193 -200zM231 76
c70 0 101 16 101 109s-16 116 -95 116c-72 0 -104 -20 -104 -95c0 -116 27 -130 98 -130z" />
    <glyph glyph-name="seven" unicode="7" 
d="M168 0c-34 0 -43 9 -43 21c0 11 3 19 10 38l175 472h-240c-21 0 -28 8 -28 43c0 36 7 44 28 44h310c27 0 34 -6 34 -49c0 -21 -4 -32 -12 -54l-179 -490c-8 -22 -26 -25 -55 -25z" />
    <glyph glyph-name="eight" unicode="8" 
d="M232 -8c-155 0 -196 47 -196 183c0 94 35 134 83 151c-43 19 -68 58 -68 141c0 139 77 156 181 156c103 0 180 -17 180 -156c0 -83 -25 -122 -68 -141c49 -17 84 -57 84 -151c0 -136 -42 -183 -196 -183zM232 74c78 0 98 17 98 109s-28 103 -98 103
c-71 0 -99 -11 -99 -103s20 -109 99 -109zM232 365c64 0 85 7 85 92c0 78 -23 86 -85 86c-63 0 -86 -8 -86 -86c0 -85 21 -92 86 -92z" />
    <glyph glyph-name="nine" unicode="9" 
d="M205 -8c-44 0 -75 6 -113 14c-19 4 -26 6 -26 44c0 31 7 39 18 39c14 0 53 -13 107 -13c98 0 136 10 136 178v35c-20 -36 -60 -56 -133 -56c-104 0 -151 30 -151 191c0 153 53 199 186 199c119 0 191 -25 191 -243v-129c0 -243 -103 -259 -215 -259zM226 313
c72 0 101 21 101 95c0 118 -19 133 -97 133c-74 0 -96 -17 -96 -112c0 -93 12 -116 92 -116z" />
    <glyph glyph-name="colon" unicode=":" horiz-adv-x="180" 
d="M91 0c-43 0 -52 6 -52 36v33c0 31 9 36 52 36c42 0 51 -5 51 -36v-33c0 -30 -9 -36 -51 -36zM91 393c-43 0 -52 6 -52 36v33c0 31 9 36 52 36c42 0 51 -5 51 -36v-33c0 -30 -9 -36 -51 -36z" />
    <glyph glyph-name="semicolon" unicode=";" horiz-adv-x="167" 
d="M77 105c42 0 50 -7 50 -36v-27c0 -28 -6 -55 -15 -84l-16 -55c-11 -28 -19 -33 -52 -33c-25 0 -30 5 -30 18c0 20 13 75 13 125v56c0 29 7 36 50 36zM78 393c-43 0 -52 6 -52 36v33c0 31 9 36 52 36c42 0 51 -5 51 -36v-33c0 -30 -9 -36 -51 -36z" />
    <glyph glyph-name="less" unicode="&#x3c;" 
d="M144 264l200 -69c29 -10 32 -15 32 -57c0 -32 -7 -39 -19 -39c-7 0 -14 2 -23 6l-236 90c-29 11 -36 22 -36 74c0 53 7 62 36 73l236 90c9 4 16 5 23 5c12 0 19 -6 19 -39c0 -42 -3 -46 -32 -56l-200 -70v-8z" />
    <glyph glyph-name="equal" unicode="=" 
d="M78 198c0 35 5 39 28 39h251c23 0 28 -4 28 -39c0 -36 -5 -40 -28 -40h-251c-23 0 -28 4 -28 40zM78 347c0 36 5 39 28 39h251c23 0 28 -3 28 -39c0 -35 -5 -39 -28 -39h-251c-23 0 -28 4 -28 39z" />
    <glyph glyph-name="greater" unicode="&#x3e;" 
d="M119 195l200 69v8l-200 70c-29 10 -32 14 -32 56c0 33 7 39 19 39c7 0 14 -1 23 -5l236 -90c29 -11 36 -20 36 -73c0 -52 -7 -63 -36 -74l-236 -90c-9 -4 -16 -6 -23 -6c-12 0 -19 7 -19 39c0 42 3 47 32 57z" />
    <glyph glyph-name="question" unicode="?" horiz-adv-x="363" 
d="M156 151c-34 0 -44 5 -44 30v37c0 52 11 72 36 99l71 77c18 19 29 38 29 79c0 57 -20 65 -88 65c-65 0 -109 -18 -126 -18c-13 0 -18 6 -18 39c0 34 8 39 26 45c38 11 88 19 141 19c85 0 164 -15 164 -133c0 -68 -20 -97 -54 -134l-68 -75c-15 -17 -24 -32 -24 -72v-28
c0 -25 -10 -30 -45 -30zM156 0c-42 0 -51 6 -51 36v26c0 30 9 36 51 36c43 0 52 -6 52 -36v-26c0 -30 -9 -36 -52 -36z" />
    <glyph glyph-name="at" unicode="@" horiz-adv-x="839" 
d="M376 -10c-130 0 -158 54 -158 256c0 216 54 256 175 256c61 0 103 -18 125 -70v30c0 26 7 30 45 30s44 -4 44 -30v-314c0 -59 18 -85 53 -85c42 0 64 25 64 152v94c0 234 -71 283 -307 283s-302 -62 -302 -301v-102c0 -240 88 -290 313 -290c20 0 27 -7 27 -39
c0 -33 -7 -39 -35 -39c-280 0 -394 79 -394 374v89c0 291 106 384 391 384c286 0 396 -81 396 -356v-95c0 -197 -84 -227 -163 -227c-68 0 -105 26 -124 90c-21 -59 -69 -90 -150 -90zM403 72c74 0 109 19 109 139v71c0 104 -16 138 -98 138c-76 0 -97 -24 -97 -180
c0 -142 16 -168 86 -168z" />
    <glyph glyph-name="A" unicode="A" horiz-adv-x="523" 
d="M62 0c-39 0 -46 6 -46 23c0 7 2 15 6 29l149 522c11 39 24 44 91 44c66 0 79 -5 90 -44l149 -522c4 -14 6 -22 6 -29c0 -16 -7 -23 -46 -23c-42 0 -49 6 -55 27l-43 150h-206l-40 -150c-6 -22 -13 -27 -55 -27zM255 535l-77 -282h167l-77 282h-13z" />
    <glyph glyph-name="B" unicode="B" horiz-adv-x="514" 
d="M256 -8c-66 0 -112 2 -164 8c-29 3 -34 11 -34 34v545c0 26 9 33 32 36c44 5 104 8 144 8c145 0 213 -13 213 -153c0 -78 -16 -126 -74 -144c69 -15 96 -59 96 -159c0 -130 -41 -175 -213 -175zM155 536v-177h87c89 0 105 15 105 100c0 71 -11 81 -102 81
c-36 0 -67 -1 -90 -4zM155 286v-210c26 -3 65 -5 105 -5c98 0 109 14 109 109c0 86 -17 106 -105 106h-109z" />
    <glyph glyph-name="C" unicode="C" horiz-adv-x="452" 
d="M255 -8c-124 0 -210 18 -210 270v81c0 260 85 280 213 280c48 0 97 -8 138 -19c16 -5 24 -9 24 -46c0 -30 -6 -38 -17 -38c-13 0 -59 17 -124 17c-107 0 -137 -16 -137 -203v-52c0 -193 34 -204 137 -204c69 0 109 17 124 17c13 0 17 -7 17 -39c0 -35 -8 -40 -24 -45
c-41 -12 -92 -19 -141 -19z" />
    <glyph glyph-name="D" unicode="D" horiz-adv-x="526" 
d="M251 78c103 0 133 14 133 204v62c0 176 -34 196 -145 196c-34 0 -63 -2 -84 -4v-454c25 -2 55 -4 96 -4zM251 -8c-66 0 -103 2 -158 8c-28 3 -35 12 -35 34v545c0 25 11 33 32 36c51 7 106 8 146 8c164 0 245 -20 245 -276v-65c0 -270 -90 -290 -230 -290z" />
    <glyph glyph-name="E" unicode="E" horiz-adv-x="455" 
d="M428 43c0 -35 -7 -43 -28 -43h-309c-26 0 -33 5 -33 28v562c0 23 7 28 33 28h299c21 0 28 -8 28 -44c0 -35 -7 -43 -28 -43h-235v-163h177c23 0 28 -7 28 -43c0 -35 -5 -42 -28 -42h-177v-196h245c21 0 28 -8 28 -44z" />
    <glyph glyph-name="F" unicode="F" horiz-adv-x="425" 
d="M107 0c-39 0 -49 5 -49 30v560c0 23 7 28 33 28h293c21 0 28 -8 28 -44c0 -35 -7 -43 -28 -43h-229v-163h171c23 0 28 -7 28 -43c0 -35 -5 -42 -28 -42h-171v-253c0 -25 -10 -30 -48 -30z" />
    <glyph glyph-name="G" unicode="G" horiz-adv-x="493" 
d="M250 -8c-123 0 -208 18 -208 270v81c0 260 84 280 215 280c48 0 107 -8 148 -19c16 -5 24 -9 24 -46c0 -30 -6 -38 -17 -38c-14 0 -71 17 -136 17c-106 0 -137 -16 -137 -203v-52c0 -193 36 -204 121 -204c72 0 101 17 101 115v63h-85c-19 0 -24 8 -24 44
c0 32 5 39 24 39h134c33 0 38 -8 38 -27v-137c0 -141 -57 -183 -198 -183z" />
    <glyph glyph-name="H" unicode="H" horiz-adv-x="524" 
d="M155 360h214v228c0 25 10 30 49 30c38 0 48 -5 48 -30v-558c0 -25 -10 -30 -48 -30c-39 0 -49 5 -49 30v246h-214v-246c0 -25 -10 -30 -48 -30c-39 0 -49 5 -49 30v558c0 25 10 30 49 30c38 0 48 -5 48 -30v-228z" />
    <glyph glyph-name="I" unicode="I" horiz-adv-x="213" 
d="M107 0c-39 0 -49 5 -49 30v558c0 25 10 30 49 30c38 0 48 -5 48 -30v-558c0 -25 -10 -30 -48 -30z" />
    <glyph glyph-name="J" unicode="J" horiz-adv-x="341" 
d="M134 -8c-45 0 -78 7 -99 13c-19 5 -27 12 -27 45c0 34 5 37 18 37c15 0 46 -9 85 -9c59 0 75 16 75 83v427c0 25 10 30 48 30s48 -5 48 -30v-430c0 -121 -48 -166 -148 -166z" />
    <glyph glyph-name="K" unicode="K" horiz-adv-x="469" 
d="M107 0c-39 0 -49 5 -49 30v558c0 25 10 30 49 30c38 0 48 -5 48 -30v-242h15l164 249c12 18 20 23 63 23c35 0 45 -6 45 -20c0 -9 -3 -18 -12 -31l-177 -253l181 -254c14 -20 20 -29 20 -38c0 -13 -7 -22 -49 -22c-35 0 -49 5 -62 23l-174 258h-14v-251
c0 -25 -10 -30 -48 -30z" />
    <glyph glyph-name="L" unicode="L" horiz-adv-x="424" 
d="M155 87h225c21 0 28 -8 28 -44c0 -35 -7 -43 -28 -43h-289c-26 0 -33 5 -33 28v560c0 25 10 30 49 30c38 0 48 -5 48 -30v-501z" />
    <glyph glyph-name="M" unicode="M" horiz-adv-x="639" 
d="M107 0c-39 0 -49 5 -49 30v553c0 26 9 35 66 35c52 0 68 -4 81 -38l112 -299h5l113 299c13 34 28 38 81 38c56 0 65 -9 65 -35v-553c0 -25 -10 -30 -48 -30c-39 0 -49 5 -49 30c0 145 1 303 2 448h-7l-106 -284c-11 -30 -20 -34 -53 -34c-34 0 -43 4 -54 34l-106 284h-7
c1 -145 2 -303 2 -448c0 -25 -10 -30 -48 -30z" />
    <glyph glyph-name="N" unicode="N" horiz-adv-x="547" 
d="M107 0c-39 0 -49 5 -49 30v558c0 25 12 30 64 30c40 0 56 -3 68 -29l193 -428h9v427c0 25 10 30 48 30c39 0 49 -5 49 -30v-558c0 -25 -10 -30 -63 -30c-40 0 -51 1 -64 29l-198 428h-9v-427c0 -25 -10 -30 -48 -30z" />
    <glyph glyph-name="O" unicode="O" horiz-adv-x="526" 
d="M263 76c99 0 121 21 121 206v51c0 185 -16 206 -121 206c-99 0 -121 -21 -121 -206v-51c0 -185 16 -206 121 -206zM263 -8c-160 0 -218 30 -218 282v63c0 262 66 286 218 286c164 0 218 -30 218 -286v-63c0 -258 -70 -282 -218 -282z" />
    <glyph glyph-name="P" unicode="P" horiz-adv-x="488" 
d="M107 0c-39 0 -49 5 -49 30v548c0 25 12 33 32 36c51 6 112 9 162 9c142 0 201 -23 201 -185c0 -160 -66 -210 -226 -210h-72v-198c0 -25 -10 -30 -48 -30zM155 536v-228h76c97 0 122 26 122 126c0 89 -21 106 -110 106c-31 0 -64 -2 -88 -4z" />
    <glyph glyph-name="Q" unicode="Q" horiz-adv-x="526" 
d="M263 -8c-160 0 -218 30 -218 282v63c0 262 66 286 218 286c164 0 218 -30 218 -286v-63c0 -162 -28 -232 -84 -261l45 -77c10 -16 13 -24 13 -31c0 -13 -9 -21 -44 -21c-32 0 -40 5 -52 27l-45 83c-16 -1 -33 -2 -51 -2zM263 76c99 0 121 21 121 206v51
c0 185 -16 206 -121 206c-99 0 -121 -21 -121 -206v-51c0 -185 16 -206 121 -206z" />
    <glyph glyph-name="R" unicode="R" horiz-adv-x="502" 
d="M107 0c-39 0 -49 5 -49 30v548c0 25 12 33 32 36c51 6 112 9 162 9c142 0 201 -23 201 -175c0 -100 -31 -153 -99 -177l104 -222c8 -17 9 -23 9 -29c0 -11 -6 -20 -41 -20c-47 0 -54 4 -63 26l-94 230c-11 -1 -22 -1 -34 -1h-80v-225c0 -25 -10 -30 -48 -30zM155 536
v-208h83c90 0 115 22 115 116c0 79 -21 96 -110 96c-31 0 -66 -2 -88 -4z" />
    <glyph glyph-name="S" unicode="S" horiz-adv-x="458" 
d="M213 -8c-51 0 -108 7 -146 18c-18 6 -27 14 -27 47c0 34 6 39 19 39c18 0 63 -17 138 -17c87 0 126 23 126 89c0 48 -9 67 -49 85l-124 56c-67 30 -97 61 -97 151c0 140 83 163 172 163c51 0 113 -8 154 -20c15 -4 23 -11 23 -45c0 -33 -6 -39 -18 -39
c-14 0 -65 17 -136 17c-72 0 -100 -7 -100 -76c0 -44 15 -57 52 -73l123 -55c71 -31 95 -70 95 -158c0 -140 -88 -182 -205 -182z" />
    <glyph glyph-name="T" unicode="T" horiz-adv-x="434" 
d="M217 0c-39 0 -49 5 -49 30v501h-130c-21 0 -28 8 -28 43c0 36 7 44 28 44h358c21 0 28 -8 28 -44c0 -35 -7 -43 -28 -43h-131v-501c0 -25 -10 -30 -48 -30z" />
    <glyph glyph-name="U" unicode="U" horiz-adv-x="524" 
d="M262 -8c-146 0 -204 50 -204 188v408c0 25 10 30 49 30c38 0 48 -5 48 -30v-412c0 -73 20 -99 107 -99c86 0 107 26 107 99v412c0 25 10 30 48 30s48 -5 48 -30v-408c0 -138 -58 -188 -203 -188z" />
    <glyph glyph-name="V" unicode="V" horiz-adv-x="514" 
d="M264 83l131 508c6 22 15 27 57 27c39 0 46 -5 46 -22c0 -6 -2 -19 -7 -35l-146 -522c-9 -34 -22 -39 -88 -39s-78 5 -87 39l-147 522c-5 16 -7 29 -7 35c0 17 7 22 46 22c42 0 53 -5 57 -27l132 -508h13z" />
    <glyph glyph-name="W" unicode="W" horiz-adv-x="798" 
d="M213 0c-57 0 -77 4 -84 39l-110 527c-2 10 -3 21 -3 29c0 17 7 23 46 23c42 0 52 -5 56 -27l95 -501h11l106 486c6 27 24 32 69 32s64 -5 70 -32l105 -486h12l95 501c2 22 13 27 55 27c39 0 46 -6 46 -23c0 -8 -1 -19 -3 -29l-110 -527c-7 -35 -27 -39 -84 -39
c-56 0 -75 6 -83 41l-98 438h-10l-98 -438c-8 -35 -27 -41 -83 -41z" />
    <glyph glyph-name="X" unicode="X" horiz-adv-x="488" 
d="M68 0c-38 0 -48 8 -48 24c0 7 4 17 14 34l158 260l-146 240c-11 17 -15 28 -15 36c0 15 10 24 49 24s49 -4 60 -27l102 -182h4l102 182c11 23 21 27 60 27s49 -9 49 -24c0 -8 -4 -19 -14 -36l-148 -240l159 -259c10 -17 14 -27 14 -35c0 -16 -10 -24 -48 -24
c-39 0 -47 4 -60 27l-115 203h-4l-113 -203c-12 -23 -21 -27 -60 -27z" />
    <glyph glyph-name="Y" unicode="Y" horiz-adv-x="463" 
d="M232 0c-39 0 -49 5 -49 30v203l-155 324c-10 22 -12 31 -12 38c0 13 8 23 43 23c46 0 55 -5 64 -27l106 -255h5l106 255c9 22 17 27 62 27c38 0 46 -9 46 -22c0 -7 -3 -17 -13 -39l-155 -324v-203c0 -25 -10 -30 -48 -30z" />
    <glyph glyph-name="Z" unicode="Z" horiz-adv-x="411" 
d="M278 531h-215c-21 0 -28 8 -28 43c0 36 7 44 28 44h301c22 0 27 -9 27 -42c0 -21 -4 -33 -21 -64l-241 -425h236c21 0 28 -8 28 -44c0 -35 -7 -43 -28 -43h-321c-23 0 -28 9 -28 42c0 20 4 34 23 67z" />
    <glyph glyph-name="bracketleft" unicode="[" horiz-adv-x="261" 
d="M247 -17c0 -34 -7 -40 -28 -40h-134c-26 0 -35 8 -35 31v662c0 23 9 31 35 31h128c21 0 28 -6 28 -39c0 -35 -7 -41 -28 -41h-70v-564h76c21 0 28 -6 28 -40z" />
    <glyph glyph-name="backslash" unicode="\" horiz-adv-x="267" 
d="M215 -62c-30 0 -44 7 -49 28l-145 647c-7 30 -8 36 -8 40c0 12 11 19 42 19c30 0 44 -6 49 -27l145 -647c7 -30 7 -37 7 -41c0 -11 -10 -19 -41 -19z" />
    <glyph glyph-name="bracketright" unicode="]" horiz-adv-x="261" 
d="M14 -17c0 34 7 40 27 40h77v564h-70c-21 0 -28 6 -28 41c0 33 7 39 28 39h128c26 0 34 -8 34 -31v-662c0 -23 -8 -31 -34 -31h-135c-20 0 -27 6 -27 40z" />
    <glyph glyph-name="asciicircum" unicode="^" 
d="M236 536h-6l-73 -163c-8 -22 -13 -26 -55 -26c-33 0 -40 7 -40 19c0 7 5 16 10 27l87 191c12 28 20 35 75 35c56 0 62 -7 74 -35l84 -191c4 -10 9 -20 9 -27c0 -12 -7 -19 -39 -19c-43 0 -47 4 -56 26z" />
    <glyph glyph-name="underscore" unicode="_" horiz-adv-x="486" 
d="M28 -61c0 36 5 43 28 43h374c23 0 28 -7 28 -43c0 -35 -5 -43 -28 -43h-374c-23 0 -28 8 -28 43z" />
    <glyph glyph-name="grave" unicode="`" horiz-adv-x="210" 
d="M146 539c-40 0 -45 9 -56 26l-52 82c-7 13 -15 26 -15 36c0 12 11 18 54 18c44 0 47 -7 59 -31l41 -83c5 -10 10 -22 10 -31c0 -11 -9 -17 -41 -17z" />
    <glyph glyph-name="a" unicode="a" horiz-adv-x="486" 
d="M167 -10c-88 0 -129 40 -129 143s46 145 185 145h99v65c0 68 -24 76 -88 76c-76 0 -129 -18 -148 -18c-13 0 -18 10 -18 39s6 37 22 42c33 10 97 20 154 20c117 0 174 -20 174 -137v-174c0 -104 21 -150 21 -168c0 -15 -6 -23 -45 -23c-33 0 -40 3 -46 26l-16 60
c-29 -66 -92 -96 -165 -96zM199 70c64 0 123 37 123 114v33l-101 -3c-72 -3 -90 -17 -90 -71c0 -64 21 -73 68 -73z" />
    <glyph glyph-name="b" unicode="b" horiz-adv-x="508" 
d="M244 -10c-157 0 -188 44 -188 118v516c0 26 11 30 49 30s48 -4 48 -30v-202c26 52 76 80 149 80c124 0 158 -40 158 -250c0 -215 -56 -262 -216 -262zM249 72c90 0 112 31 112 171c0 153 -12 177 -90 177c-91 0 -119 -45 -119 -172v-127c0 -32 11 -49 97 -49z" />
    <glyph glyph-name="c" unicode="c" horiz-adv-x="429" 
d="M245 -10c-133 0 -197 30 -197 251c0 237 77 261 197 261c43 0 91 -8 124 -18c19 -6 26 -13 26 -43c0 -31 -6 -39 -18 -39s-72 17 -122 17c-82 0 -109 -16 -109 -168c0 -155 12 -177 111 -177c67 0 108 19 122 19c10 0 16 -8 16 -39c0 -29 -6 -37 -25 -43
c-34 -12 -86 -21 -125 -21z" />
    <glyph glyph-name="d" unicode="d" horiz-adv-x="519" 
d="M216 -10c-136 0 -168 54 -168 252c0 220 58 260 185 260c62 0 104 -14 127 -57v179c0 26 11 30 49 30s48 -4 48 -30v-433c0 -104 22 -150 22 -168c0 -15 -6 -23 -45 -23c-34 0 -40 3 -47 26l-13 49c-23 -55 -72 -85 -158 -85zM243 72c80 0 119 22 119 140v66
c0 108 -20 142 -108 142c-86 0 -107 -24 -107 -180c0 -142 16 -168 96 -168z" />
    <glyph glyph-name="e" unicode="e" horiz-adv-x="471" 
d="M255 -10c-143 0 -207 30 -207 251c0 237 75 261 201 261c160 0 180 -75 180 -233c0 -32 -7 -48 -40 -48h-243c2 -128 19 -147 117 -147c78 0 128 19 143 19c10 0 16 -8 16 -39c0 -29 -7 -37 -26 -43c-33 -12 -96 -21 -141 -21zM247 421c-72 0 -97 -16 -101 -136h190
c0 95 -3 136 -89 136z" />
    <glyph glyph-name="f" unicode="f" horiz-adv-x="313" 
d="M28 451c0 31 5 39 24 39h42v57c0 90 36 121 113 121c26 0 54 -4 74 -9c19 -5 25 -9 25 -38s-6 -38 -18 -38c-10 0 -32 5 -60 5c-33 0 -41 -7 -41 -62v-36h82c19 0 24 -8 24 -39s-5 -39 -24 -39h-78v-382c0 -26 -10 -30 -48 -30s-49 4 -49 30v382h-42c-19 0 -24 8 -24 39z
" />
    <glyph glyph-name="g" unicode="g" horiz-adv-x="515" 
d="M48 250c0 212 58 252 189 252c66 0 113 -17 137 -72l9 36c6 23 12 26 46 26c39 0 45 -8 45 -23c0 -18 -22 -64 -22 -168v-261c0 -196 -92 -234 -223 -234c-48 0 -98 5 -137 13c-17 4 -26 11 -26 44c0 30 5 40 18 40c15 0 63 -11 143 -11c105 0 129 37 129 145v13
c-25 -39 -70 -60 -145 -60c-132 0 -163 54 -163 260zM147 240c0 -142 16 -168 96 -168s119 22 119 140v66c0 108 -20 142 -108 142c-86 0 -107 -24 -107 -180z" />
    <glyph glyph-name="h" unicode="h" horiz-adv-x="500" 
d="M105 0c-38 0 -49 4 -49 30v594c0 26 11 30 49 30s48 -4 48 -30v-192c26 48 74 70 152 70c109 0 136 -44 136 -134v-338c0 -26 -10 -30 -48 -30s-48 4 -48 30v315c0 54 -14 73 -74 73c-88 0 -118 -47 -118 -166v-222c0 -26 -10 -30 -48 -30z" />
    <glyph glyph-name="i" unicode="i" horiz-adv-x="214" 
d="M105 0c-38 0 -49 4 -49 30v432c0 26 11 30 49 30s48 -4 48 -30v-432c0 -26 -10 -30 -48 -30zM105 562c-47 0 -54 7 -54 37v19c0 29 7 36 54 36s53 -7 53 -36v-19c0 -30 -6 -37 -53 -37z" />
    <glyph glyph-name="j" unicode="j" horiz-adv-x="214" 
d="M105 492c38 0 48 -4 48 -30v-531c0 -90 -35 -125 -109 -125c-27 0 -55 4 -74 10c-19 5 -27 12 -27 41c0 34 6 38 19 38c10 0 31 -5 54 -5c33 0 40 6 40 61v511c0 26 11 30 49 30zM105 562c-47 0 -54 7 -54 37v19c0 29 7 36 54 36s53 -7 53 -36v-19c0 -30 -6 -37 -53 -37z
" />
    <glyph glyph-name="k" unicode="k" horiz-adv-x="440" 
d="M105 0c-38 0 -49 4 -49 30v594c0 26 11 30 49 30s48 -4 48 -30v-336h10l142 180c15 19 22 24 63 24c36 0 47 -5 47 -17c0 -9 -6 -20 -14 -30l-152 -188l165 -211c7 -9 13 -17 13 -27c0 -12 -14 -19 -50 -19c-38 0 -45 4 -60 24l-155 201h-9v-195c0 -26 -10 -30 -48 -30z
" />
    <glyph glyph-name="l" unicode="l" horiz-adv-x="211" 
d="M105 0c-38 0 -49 4 -49 30v594c0 26 11 30 49 30s48 -4 48 -30v-594c0 -26 -10 -30 -48 -30z" />
    <glyph glyph-name="m" unicode="m" horiz-adv-x="780" 
d="M117 0c-38 0 -49 4 -49 30v271c0 104 -22 150 -22 168c0 15 7 23 45 23c34 0 41 -3 47 -26l12 -52c24 60 72 88 157 88c81 0 117 -25 130 -75c24 51 70 75 149 75c109 0 136 -44 136 -134v-338c0 -26 -11 -30 -49 -30s-48 4 -48 30v315c0 54 -14 73 -74 73
c-86 0 -108 -47 -108 -166v-222c0 -26 -10 -30 -48 -30s-48 4 -48 30v315c0 54 -14 73 -74 73c-86 0 -108 -47 -108 -166v-222c0 -26 -11 -30 -48 -30z" />
    <glyph glyph-name="n" unicode="n" horiz-adv-x="512" 
d="M117 0c-38 0 -49 4 -49 30v271c0 104 -22 150 -22 168c0 15 7 23 45 23c34 0 41 -3 47 -26l14 -57c26 62 79 93 165 93c109 0 136 -44 136 -134v-338c0 -26 -10 -30 -48 -30s-48 4 -48 30v315c0 54 -14 73 -74 73c-88 0 -118 -47 -118 -166v-222c0 -26 -11 -30 -48 -30z
" />
    <glyph glyph-name="o" unicode="o" horiz-adv-x="500" 
d="M242 -10c-148 0 -194 42 -194 252s58 260 210 260c148 0 193 -40 193 -250s-57 -262 -209 -262zM244 72c91 0 109 31 109 171c0 153 -14 177 -99 177c-90 0 -107 -29 -107 -169c0 -153 12 -179 97 -179z" />
    <glyph glyph-name="p" unicode="p" horiz-adv-x="525" 
d="M117 -188c-38 0 -49 4 -49 30v459c0 104 -22 150 -22 168c0 15 7 23 45 23c34 0 41 -3 47 -26l12 -49c26 54 76 85 160 85c136 0 167 -54 167 -252c0 -220 -58 -260 -185 -260c-62 0 -104 14 -127 54v-202c0 -26 -11 -30 -48 -30zM272 72c85 0 106 24 106 180
c0 142 -15 168 -95 168s-120 -25 -120 -151v-55c0 -108 20 -142 109 -142z" />
    <glyph glyph-name="q" unicode="q" horiz-adv-x="515" 
d="M404 -188c-38 0 -48 4 -48 30v208c-25 -39 -70 -60 -145 -60c-132 0 -163 54 -163 260c0 212 58 252 189 252c66 0 113 -17 137 -72l9 36c6 23 12 26 46 26c39 0 45 -8 45 -23c0 -18 -22 -64 -22 -168v-459c0 -26 -10 -30 -48 -30zM238 72c81 0 120 18 120 138v68
c0 107 -20 142 -107 142s-107 -23 -107 -174c0 -147 16 -174 94 -174z" />
    <glyph glyph-name="r" unicode="r" horiz-adv-x="348" 
d="M117 0c-38 0 -49 4 -49 30v271c0 104 -22 150 -22 168c0 15 7 23 45 23c34 0 41 -3 47 -26l13 -51c25 58 69 85 123 85c18 0 38 -4 45 -6c14 -5 19 -13 19 -45c0 -34 -10 -40 -19 -40c-8 0 -27 5 -53 5c-73 0 -101 -69 -101 -185v-199c0 -26 -11 -30 -48 -30z" />
    <glyph glyph-name="s" unicode="s" horiz-adv-x="433" 
d="M200 -10c-45 0 -97 7 -132 18c-19 6 -26 14 -26 43c0 31 6 40 16 40c15 0 67 -17 133 -17c76 0 101 22 101 69c0 28 -11 40 -35 50l-128 54c-41 18 -72 52 -72 121c0 108 80 134 161 134c45 0 98 -7 136 -17c19 -5 25 -12 25 -46c0 -35 -9 -37 -18 -37
c-14 0 -69 18 -128 18c-60 0 -78 -17 -78 -53c0 -27 7 -41 35 -53l125 -50c57 -23 75 -58 75 -116c0 -117 -79 -158 -190 -158z" />
    <glyph glyph-name="t" unicode="t" horiz-adv-x="323" 
d="M201 -10c-77 0 -107 35 -107 125v297h-48c-19 0 -24 8 -24 39s5 39 24 39h48v74c0 26 11 30 49 30s48 -4 48 -30v-74h85c18 0 23 -8 23 -39s-5 -39 -23 -39h-85v-278c0 -52 6 -58 40 -58c25 0 43 5 53 5c12 0 19 -5 19 -37c0 -29 -9 -35 -26 -41c-19 -8 -48 -13 -76 -13z
" />
    <glyph glyph-name="u" unicode="u" horiz-adv-x="503" 
d="M191 -10c-105 0 -135 40 -135 130v342c0 26 11 30 49 30s48 -4 48 -30v-319c0 -54 14 -69 74 -69c88 0 117 47 117 166v222c0 26 10 30 48 30s49 -4 49 -30v-271c0 -104 22 -150 22 -168c0 -15 -7 -23 -46 -23c-33 0 -40 3 -46 26l-14 53c-27 -61 -80 -89 -166 -89z" />
    <glyph glyph-name="v" unicode="v" horiz-adv-x="463" 
d="M229 0c-59 0 -72 7 -81 36l-117 389c-6 18 -9 33 -9 39c0 20 6 28 48 28c43 0 50 -4 58 -36l97 -369h11l99 369c8 32 15 36 58 36c42 0 48 -8 48 -28c0 -6 -3 -21 -8 -39l-122 -389c-9 -29 -24 -36 -82 -36z" />
    <glyph glyph-name="w" unicode="w" horiz-adv-x="703" 
d="M190 0c-55 0 -72 6 -78 36l-84 389c-4 17 -6 31 -6 39c0 21 6 28 48 28c43 0 51 -4 56 -31l71 -374h11l79 360c6 28 20 35 65 35s59 -7 65 -35l79 -360h11l71 374c5 27 13 31 55 31c43 0 48 -7 48 -28c0 -8 -1 -22 -5 -39l-85 -389c-6 -30 -23 -36 -78 -36
c-58 0 -80 6 -87 36l-71 309h-7l-71 -309c-7 -30 -28 -36 -87 -36z" />
    <glyph glyph-name="x" unicode="x" horiz-adv-x="446" 
d="M70 0c-37 0 -48 7 -48 21c0 6 3 13 11 26l133 207l-119 184c-9 14 -14 24 -14 31c0 17 13 23 52 23c41 0 49 -3 58 -23l79 -135h4l77 135c10 21 17 23 58 23c39 0 52 -6 52 -23c0 -7 -4 -16 -13 -29l-121 -181l133 -211c8 -12 12 -21 12 -26c0 -14 -11 -22 -48 -22
c-41 0 -53 4 -64 30l-88 153h-4l-86 -153c-11 -26 -23 -30 -64 -30z" />
    <glyph glyph-name="y" unicode="y" horiz-adv-x="461" 
d="M22 467c0 15 5 25 50 25c38 0 47 -3 53 -25l100 -384h9l102 384c6 22 14 25 52 25c44 0 52 -8 52 -24c0 -8 -2 -22 -14 -61l-136 -448c-34 -113 -56 -153 -152 -153c-34 0 -66 5 -88 12c-17 5 -25 12 -25 40c0 31 5 40 18 40c12 0 38 -8 84 -8c48 0 60 12 72 58l13 52
c-45 1 -58 14 -69 50l-105 344c-16 52 -16 65 -16 73z" />
    <glyph glyph-name="z" unicode="z" horiz-adv-x="398" 
d="M371 42c0 -28 -5 -42 -24 -42h-298c-19 0 -24 11 -24 39c0 31 4 45 24 73l215 297h-195c-19 0 -24 13 -24 41s5 42 24 42h278c18 0 24 -11 24 -39c0 -26 -5 -45 -21 -67l-218 -303h215c19 0 24 -13 24 -41z" />
    <glyph glyph-name="braceleft" unicode="{" horiz-adv-x="310" 
d="M102 215c0 33 -11 49 -42 49c-23 0 -28 6 -28 42c0 35 5 41 28 41c31 0 42 16 42 49c0 59 -2 109 -2 171c0 68 19 107 91 107c28 0 61 -3 85 -8c17 -4 21 -13 21 -41c0 -29 -7 -36 -21 -36s-45 2 -65 2c-15 0 -19 -10 -19 -36c0 -52 2 -107 2 -159c0 -45 -15 -80 -50 -88
v-5c35 -7 50 -43 50 -88c0 -52 -2 -106 -2 -158c0 -26 4 -36 19 -36c20 0 51 2 65 2s21 -7 21 -36c0 -28 -4 -37 -21 -41c-24 -5 -57 -8 -85 -8c-72 0 -91 39 -91 107c0 62 2 111 2 170z" />
    <glyph glyph-name="bar" unicode="|" horiz-adv-x="176" 
d="M88 -188c-35 0 -40 4 -40 33v794c0 29 5 33 40 33s39 -4 39 -33v-794c0 -29 -4 -33 -39 -33z" />
    <glyph glyph-name="braceright" unicode="}" horiz-adv-x="310" 
d="M119 -62c-28 0 -61 3 -85 8c-17 4 -21 13 -21 41c0 29 7 36 20 36c15 0 46 -2 66 -2c15 0 18 10 18 36c0 52 -2 106 -2 158c0 45 15 81 51 88v5c-36 8 -51 43 -51 88c0 52 2 107 2 159c0 26 -3 36 -18 36c-20 0 -51 -2 -66 -2c-13 0 -20 7 -20 36c0 28 4 37 21 41
c24 5 57 8 85 8c72 0 90 -39 90 -107c0 -62 -1 -112 -1 -171c0 -33 11 -49 42 -49c22 0 27 -6 27 -42c0 -35 -5 -41 -27 -41c-31 0 -42 -16 -42 -49c0 -59 1 -108 1 -170c0 -68 -18 -107 -90 -107z" />
    <glyph glyph-name="asciitilde" unicode="~" 
d="M79 264c0 24 7 36 25 48c12 8 36 18 63 18c44 0 96 -22 134 -22c36 0 55 19 67 19c10 0 16 -5 16 -34c0 -25 -7 -37 -25 -49c-12 -7 -36 -18 -63 -18c-44 0 -96 23 -134 23c-36 0 -56 -20 -67 -20c-10 0 -16 6 -16 35z" />
    <glyph glyph-name="exclamdown" unicode="&#xa1;" horiz-adv-x="207" 
d="M104 467c36 0 42 -5 42 -30c0 -125 7 -270 7 -407c0 -25 -11 -30 -49 -30c-39 0 -50 5 -50 30c0 137 7 282 7 407c0 25 6 30 43 30zM103 618c43 0 52 -6 52 -36v-26c0 -30 -9 -36 -52 -36c-42 0 -51 6 -51 36v26c0 30 9 36 51 36z" />
    <glyph glyph-name="cent" unicode="&#xa2;" 
d="M251 618c33 0 42 -4 42 -30v-67c32 -3 62 -8 86 -15c19 -6 26 -12 26 -42s-6 -39 -18 -39s-72 17 -134 17c-70 0 -97 -12 -97 -124c0 -114 12 -132 103 -132c75 0 116 19 130 19c10 0 16 -9 16 -39c0 -29 -6 -35 -25 -42c-23 -8 -54 -15 -87 -18v-76
c0 -26 -9 -30 -42 -30c-34 0 -43 4 -43 30v75c-99 5 -150 41 -150 204c0 172 59 207 150 213v66c0 26 9 30 43 30z" />
    <glyph glyph-name="sterling" unicode="&#xa3;" 
d="M293 305c0 -29 -6 -33 -26 -33h-74v-44c0 -68 -17 -112 -29 -141h229c21 0 28 -8 28 -44c0 -35 -7 -43 -28 -43h-304c-26 0 -33 5 -33 28c0 46 42 88 42 186v58h-45c-21 0 -26 4 -26 33s5 33 26 33h45v120c0 132 63 165 157 165c50 0 100 -8 125 -14c15 -4 23 -10 23 -45
c0 -31 -6 -37 -17 -37c-16 0 -60 10 -102 10c-68 0 -91 -14 -91 -90v-109h74c20 0 26 -4 26 -33z" />
    <glyph glyph-name="currency" unicode="&#xa4;" 
d="M125 63c-27 0 -35 5 -35 13c0 9 4 18 11 36l19 44c-22 22 -30 57 -30 113s8 91 30 113l-19 45c-7 17 -11 27 -11 35c0 9 8 13 35 13c33 0 39 -2 46 -19l20 -47c12 1 26 2 42 2c15 0 28 -1 41 -2l20 47c7 17 14 19 46 19c27 0 35 -4 35 -13c0 -8 -4 -18 -11 -35l-19 -44
c22 -22 31 -57 31 -114s-9 -92 -31 -113l19 -44c7 -18 11 -27 11 -36c0 -8 -8 -13 -35 -13c-32 0 -39 3 -46 20l-20 47c-12 -2 -26 -2 -41 -2c-16 0 -29 0 -42 1l-20 -46c-7 -17 -13 -20 -46 -20zM233 195c53 0 61 9 61 75c0 65 -8 73 -61 73s-62 -8 -62 -73
c0 -66 9 -75 62 -75z" />
    <glyph glyph-name="yen" unicode="&#xa5;" 
d="M232 0c-38 0 -48 5 -48 30v78h-88c-20 0 -26 4 -26 33s6 33 26 33h88v53h-89c-20 0 -26 6 -26 35s6 34 26 34h67l-128 262c-7 14 -12 27 -12 37c0 17 8 23 47 23c42 0 49 -5 58 -27l103 -247h4l103 247c9 22 16 27 58 27c39 0 47 -6 47 -23c0 -10 -5 -23 -12 -37
l-129 -262h68c21 0 26 -5 26 -34s-5 -35 -26 -35h-89v-53h88c21 0 27 -4 27 -33s-6 -33 -27 -33h-88v-78c0 -25 -10 -30 -48 -30z" />
    <glyph glyph-name="brokenbar" unicode="&#xa6;" horiz-adv-x="176" 
d="M88 281c-35 0 -40 4 -40 33v325c0 29 5 33 40 33s39 -4 39 -33v-325c0 -29 -4 -33 -39 -33zM88 -188c-35 0 -40 4 -40 33v325c0 29 5 33 40 33s39 -4 39 -33v-325c0 -29 -4 -33 -39 -33z" />
    <glyph glyph-name="section" unicode="&#xa7;" horiz-adv-x="454" 
d="M45 244c0 57 19 92 46 112c-28 23 -40 55 -40 114c0 134 83 153 172 153c51 0 113 -8 154 -20c15 -4 23 -11 23 -45c0 -33 -6 -39 -18 -39c-14 0 -65 17 -136 17c-72 0 -100 -9 -100 -66c0 -38 11 -53 44 -66l126 -53c71 -30 97 -73 97 -143c0 -54 -16 -87 -41 -106
c32 -26 44 -62 44 -124c0 -134 -88 -166 -205 -166c-51 0 -108 7 -146 18c-18 6 -27 14 -27 47c0 34 6 39 19 39c18 0 63 -17 138 -17c90 0 126 18 126 72c0 46 -9 66 -49 82l-132 55c-68 28 -95 66 -95 136zM140 260c0 -39 11 -60 44 -74l118 -49c11 10 17 28 17 57
c0 38 -8 63 -47 79l-114 47c-12 -11 -18 -29 -18 -60z" />
    <glyph glyph-name="dieresis" unicode="&#xa8;" horiz-adv-x="312" 
d="M78 562c-44 0 -51 7 -51 37v19c0 29 7 36 51 36s51 -7 51 -36v-19c0 -30 -7 -37 -51 -37zM234 562c-44 0 -51 7 -51 37v19c0 29 7 36 51 36c43 0 50 -7 50 -36v-19c0 -30 -7 -37 -50 -37z" />
    <glyph glyph-name="copyright" unicode="&#xa9;" horiz-adv-x="886" 
d="M443 -57c285 0 335 101 335 375c0 267 -50 369 -335 369s-334 -102 -334 -369c0 -274 49 -375 334 -375zM443 -130c-362 0 -417 159 -417 445s55 445 417 445s417 -159 417 -445s-55 -445 -417 -445zM452 60c-133 0 -197 30 -197 251c0 237 77 261 197 261
c43 0 91 -8 124 -18c19 -6 26 -13 26 -43c0 -31 -6 -39 -18 -39s-72 17 -122 17c-82 0 -109 -16 -109 -168c0 -155 12 -177 111 -177c67 0 108 19 122 19c10 0 16 -8 16 -39c0 -29 -6 -37 -25 -43c-33 -12 -86 -21 -125 -21z" />
    <glyph glyph-name="ordfeminine" unicode="&#xaa;" horiz-adv-x="368" 
d="M131 250c-73 0 -101 31 -101 106c0 76 29 109 131 109h78v26c0 51 -12 62 -59 62c-58 0 -94 -13 -112 -13c-11 0 -15 9 -15 33c0 22 3 28 17 34c19 7 69 16 116 16c90 0 131 -18 131 -109v-99c0 -81 14 -121 14 -137c0 -12 -5 -19 -35 -19c-26 0 -34 3 -38 22l-10 42
c-18 -47 -57 -73 -117 -73zM153 315c41 0 86 15 86 91v8l-88 -4c-36 -2 -45 -11 -45 -49c0 -39 15 -46 47 -46z" />
    <glyph glyph-name="guillemotleft" unicode="&#xab;" horiz-adv-x="598" 
d="M414 250v-8l128 -111c20 -18 24 -25 24 -62c0 -30 -8 -35 -17 -35c-6 0 -15 4 -23 9l-171 124c-24 18 -35 26 -35 79c0 52 11 60 35 78l171 124c8 5 17 9 23 9c9 0 17 -5 17 -35c0 -37 -4 -44 -24 -62zM129 250v-8l134 -101c20 -16 24 -23 24 -62c0 -30 -8 -35 -18 -35
c-6 0 -14 4 -22 9l-179 118c-25 17 -36 26 -36 75c0 48 11 57 36 74l179 118c8 5 16 9 22 9c10 0 18 -5 18 -35c0 -39 -3 -47 -24 -62z" />
    <glyph glyph-name="logicalnot" unicode="&#xac;" 
d="M352 142c-39 0 -45 5 -45 30v72h-211c-21 0 -28 6 -28 42c0 35 7 41 28 41h267c26 0 33 -5 33 -28v-127c0 -25 -6 -30 -44 -30z" />
    <glyph glyph-name="registered" unicode="&#xae;" horiz-adv-x="886" 
d="M443 -130c-362 0 -417 159 -417 445s55 445 417 445s417 -159 417 -445s-55 -445 -417 -445zM443 -57c285 0 335 101 335 375c0 267 -50 369 -335 369s-334 -102 -334 -369c0 -274 49 -375 334 -375zM313 70c-38 0 -49 5 -49 30v431c0 24 12 32 32 35c51 7 102 9 152 9
c140 0 188 -23 188 -155c0 -82 -23 -124 -85 -143l89 -161c6 -12 10 -20 10 -27c0 -14 -10 -19 -45 -19c-45 0 -50 4 -60 26l-77 169h-106v-165c0 -25 -10 -30 -49 -30zM362 489v-153h75c86 0 101 11 101 87c0 60 -16 70 -96 70c-31 0 -57 -2 -80 -4z" />
    <glyph glyph-name="macron" unicode="&#xaf;" horiz-adv-x="266" 
d="M26 608c0 35 5 42 28 42h159c22 0 27 -7 27 -42c0 -34 -5 -41 -27 -41h-159c-23 0 -28 7 -28 41z" />
    <glyph glyph-name="degree" unicode="&#xb0;" horiz-adv-x="424" 
d="M210 333c-115 0 -139 30 -139 143s22 147 142 147c111 0 140 -29 140 -143c0 -111 -19 -147 -143 -147zM152 476c0 -66 10 -72 58 -72c56 0 62 10 62 75c0 66 -11 72 -59 72c-55 0 -61 -11 -61 -75z" />
    <glyph glyph-name="plusminus" unicode="&#xb1;" 
d="M80 308c0 31 5 36 28 36h83v91c0 23 5 28 40 28c36 0 41 -5 41 -28v-91h83c23 0 28 -5 28 -36c0 -32 -5 -37 -28 -37h-83v-91c0 -23 -5 -28 -41 -28c-35 0 -40 5 -40 28v91h-83c-23 0 -28 5 -28 37zM96 69c0 34 5 39 28 39h215c23 0 28 -5 28 -39s-5 -39 -28 -39h-215
c-23 0 -28 5 -28 39z" />
    <glyph glyph-name="twosuperior" unicode="&#xb2;" horiz-adv-x="356" 
d="M139 365h136c18 0 25 -3 25 -35c0 -31 -7 -35 -25 -35h-203c-19 0 -27 5 -27 29v15c0 23 10 35 31 57l96 101c26 28 33 44 33 64c0 34 -12 41 -48 41c-41 0 -67 -11 -81 -11c-11 0 -15 2 -15 30s7 33 23 37c26 7 59 12 91 12c61 0 112 -12 112 -90
c0 -51 -14 -71 -57 -118z" />
    <glyph glyph-name="threesuperior" unicode="&#xb3;" horiz-adv-x="364" 
d="M178 290c-32 0 -72 5 -97 12c-16 5 -23 10 -23 37s5 30 14 30c15 0 49 -11 89 -11s62 9 62 48c0 30 -11 50 -88 50c-15 0 -19 8 -19 28c0 21 4 29 19 29c67 0 81 13 81 49c0 33 -15 40 -52 40s-70 -11 -83 -11c-10 0 -16 2 -16 30s8 33 24 37c25 7 62 12 93 12
c62 0 112 -13 112 -91c0 -56 -25 -88 -71 -96c59 -3 82 -36 82 -89c0 -89 -65 -104 -127 -104z" />
    <glyph glyph-name="acute" unicode="&#xb4;" horiz-adv-x="210" 
d="M63 539c-29 0 -41 6 -41 18c0 7 6 20 11 30l41 83c12 25 16 31 59 31s53 -6 53 -18c0 -10 -7 -23 -15 -36l-51 -82c-11 -17 -16 -26 -57 -26z" />
    <glyph glyph-name="mu" unicode="&#xb5;" horiz-adv-x="495" 
d="M99 -188c-38 0 -49 4 -49 30v620c0 26 11 30 49 30s48 -4 48 -30v-319c0 -54 14 -69 74 -69c88 0 117 47 117 166v222c0 26 11 30 48 30c38 0 49 -4 49 -30v-271c0 -104 22 -150 22 -168c0 -15 -7 -23 -45 -23c-34 0 -41 3 -47 26l-14 53c-26 -61 -78 -89 -157 -89
c-19 0 -34 1 -47 4v-152c0 -26 -10 -30 -48 -30z" />
    <glyph glyph-name="paragraph" unicode="&#xb6;" horiz-adv-x="577" 
d="M245 -194c-42 0 -86 5 -125 13c-17 4 -26 11 -26 44c0 30 5 40 18 40c15 0 63 -11 130 -11c105 0 117 37 117 145v494h-49v-312c0 -22 -7 -32 -30 -37c-24 -6 -48 -9 -82 -9c-106 0 -134 55 -134 216c0 170 33 229 151 229h293c21 0 28 -8 28 -44c0 -35 -7 -43 -28 -43
h-52v-491c0 -196 -80 -234 -211 -234z" />
    <glyph glyph-name="middot" unicode="&#xb7;" horiz-adv-x="187" 
d="M94 222c-43 0 -52 6 -52 36v33c0 31 9 36 52 36c42 0 51 -5 51 -36v-33c0 -30 -9 -36 -51 -36z" />
    <glyph glyph-name="cedilla" unicode="&#xb8;" horiz-adv-x="231" 
d="M109 -213c-23 0 -39 1 -56 5c-19 4 -27 9 -27 37c0 29 6 35 20 35c10 0 24 -4 48 -4c16 0 26 2 26 16c0 13 -9 15 -28 27c-23 13 -32 25 -32 57v58h70v-43c0 -11 1 -16 14 -24c48 -27 61 -40 61 -86c0 -55 -35 -78 -96 -78z" />
    <glyph glyph-name="onesuperior" unicode="&#xb9;" horiz-adv-x="354" 
d="M69 330c0 32 6 35 25 35h52v223l-46 -14c-6 -1 -15 -3 -19 -3c-8 0 -16 5 -16 33c0 25 5 30 20 35l64 22c13 4 28 7 45 7c26 0 30 -5 30 -27v-276h54c17 0 24 -3 24 -35c0 -31 -7 -35 -24 -35h-184c-19 0 -25 4 -25 35z" />
    <glyph glyph-name="ordmasculine" unicode="&#xba;" horiz-adv-x="386" 
d="M186 249c-95 0 -146 19 -146 183c0 171 51 191 160 191c95 0 146 -17 146 -181c0 -172 -50 -193 -160 -193zM188 316c60 0 77 13 77 117c0 113 -17 123 -67 123c-60 0 -77 -11 -77 -116c0 -112 17 -124 67 -124z" />
    <glyph glyph-name="guillemotright" unicode="&#xbb;" horiz-adv-x="598" 
d="M279 246c0 -53 -12 -61 -36 -79l-171 -124c-8 -5 -16 -9 -22 -9c-10 0 -18 5 -18 35c0 37 4 44 24 62l128 111v8l-128 110c-20 18 -24 25 -24 62c0 30 8 35 18 35c6 0 14 -4 22 -9l171 -124c24 -18 36 -26 36 -78zM566 246c0 -49 -10 -59 -35 -75l-179 -118
c-8 -5 -17 -9 -23 -9c-10 0 -17 5 -17 35c0 39 3 46 24 62l134 101v8l-134 100c-21 16 -24 23 -24 62c0 30 7 35 17 35c6 0 15 -4 23 -9l179 -118c25 -16 35 -26 35 -74z" />
    <glyph glyph-name="onequarter" unicode="&#xbc;" horiz-adv-x="750" 
d="M633 0c-27 0 -40 4 -40 23v54h-150c-16 0 -20 8 -20 33c0 20 1 34 12 51l120 191c11 17 24 22 66 22c41 0 51 -4 51 -29v-205h27c16 0 21 -8 21 -33s-5 -30 -21 -30h-27v-54c0 -19 -11 -23 -39 -23zM271 0c-26 0 -34 4 -34 15c0 7 2 14 7 28l207 560c6 17 15 23 45 23
c26 0 34 -3 34 -15c0 -7 -2 -14 -7 -28l-207 -559c-6 -18 -15 -24 -45 -24zM39 559c0 26 5 32 19 36l65 22c12 4 27 6 45 6c25 0 29 -4 29 -26v-277h54c17 0 25 -3 25 -34s-8 -35 -25 -35h-184c-19 0 -25 4 -25 35s6 34 25 34h52v224l-46 -14c-6 -2 -15 -4 -19 -4
c-8 0 -15 6 -15 33zM597 306l-101 -166h101v166z" />
    <glyph glyph-name="onehalf" unicode="&#xbd;" horiz-adv-x="752" 
d="M271 0c-26 0 -34 4 -34 15c0 7 2 14 7 28l207 560c6 17 15 23 45 23c26 0 34 -3 34 -15c0 -7 -2 -14 -7 -28l-207 -559c-6 -18 -15 -24 -45 -24zM42 286c0 31 6 34 25 34h52v224l-46 -14c-6 -2 -15 -4 -19 -4c-8 0 -15 6 -15 33c0 26 5 31 19 36l65 22c12 4 27 6 45 6
c25 0 29 -4 29 -26v-277h54c17 0 25 -3 25 -34s-8 -35 -25 -35h-184c-19 0 -25 4 -25 35zM726 35c0 -31 -7 -35 -25 -35h-203c-19 0 -27 5 -27 28v16c0 23 11 35 31 57l96 100c27 28 34 45 34 65c0 34 -12 41 -48 41c-42 0 -68 -11 -82 -11c-10 0 -15 2 -15 30
c0 27 8 32 24 37c25 7 58 11 90 11c62 0 112 -12 112 -90c0 -50 -14 -70 -57 -117l-90 -97h135c18 0 25 -3 25 -35z" />
    <glyph glyph-name="threequarters" unicode="&#xbe;" horiz-adv-x="736" 
d="M619 0c-27 0 -39 4 -39 23v54h-150c-17 0 -21 8 -21 33c0 20 1 34 12 51l120 191c11 17 25 22 66 22s51 -4 51 -29v-205h27c16 0 21 -8 21 -33s-5 -30 -21 -30h-27v-54c0 -19 -11 -23 -39 -23zM147 245c-32 0 -72 5 -97 12c-16 4 -23 10 -23 37s5 30 14 30
c15 0 49 -11 89 -11s62 9 62 48c0 31 -11 51 -88 51c-15 0 -19 8 -19 28c0 21 4 29 19 29c67 0 81 13 81 49c0 32 -15 40 -52 40s-70 -11 -83 -11c-10 0 -16 1 -16 30c0 27 8 32 24 36c25 7 62 12 94 12c61 0 111 -12 111 -90c0 -57 -25 -88 -71 -96c59 -4 82 -37 82 -90
c0 -89 -65 -104 -127 -104zM256 0c-25 0 -33 4 -33 15c0 7 2 14 7 28l207 560c6 17 15 23 45 23c26 0 34 -3 34 -15c0 -7 -2 -14 -7 -28l-207 -559c-7 -18 -15 -24 -46 -24zM583 306l-100 -166h100v166z" />
    <glyph glyph-name="questiondown" unicode="&#xbf;" horiz-adv-x="363" 
d="M206 469c35 0 45 -5 45 -30v-37c0 -52 -13 -72 -37 -99l-70 -78c-18 -18 -29 -37 -29 -78c0 -57 20 -65 88 -65c65 0 109 17 126 17c12 0 18 -6 18 -39s-8 -39 -26 -44c-38 -12 -89 -19 -141 -19c-85 0 -164 15 -164 133c0 68 20 97 54 134l68 75c15 17 24 32 24 72v28
c0 25 10 30 44 30zM206 620c43 0 52 -6 52 -36v-26c0 -30 -9 -36 -52 -36c-42 0 -51 6 -51 36v26c0 30 9 36 51 36z" />
    <glyph glyph-name="Agrave" unicode="&#xc0;" horiz-adv-x="523" 
d="M62 0c-39 0 -46 6 -46 23c0 7 2 15 6 29l149 522c11 39 24 44 91 44c66 0 79 -5 90 -44l149 -522c4 -14 6 -22 6 -29c0 -16 -7 -23 -46 -23c-42 0 -49 6 -55 27l-43 150h-206l-40 -150c-6 -22 -13 -27 -55 -27zM255 535l-77 -282h167l-77 282h-13zM270 662
c-40 0 -45 9 -56 26l-52 82c-7 13 -15 26 -15 36c0 12 11 18 54 18c44 0 47 -7 59 -31l41 -83c5 -10 10 -22 10 -31c0 -11 -9 -17 -41 -17z" />
    <glyph glyph-name="Aacute" unicode="&#xc1;" horiz-adv-x="523" 
d="M62 0c-39 0 -46 6 -46 23c0 7 2 15 6 29l149 522c11 39 24 44 91 44c66 0 79 -5 90 -44l149 -522c4 -14 6 -22 6 -29c0 -16 -7 -23 -46 -23c-42 0 -49 6 -55 27l-43 150h-206l-40 -150c-6 -22 -13 -27 -55 -27zM255 535l-77 -282h167l-77 282h-13zM251 662
c-29 0 -41 6 -41 18c0 7 6 20 11 30l41 83c12 25 16 31 59 31s53 -6 53 -18c0 -10 -7 -23 -15 -36l-51 -82c-11 -17 -16 -26 -57 -26z" />
    <glyph glyph-name="Acircumflex" unicode="&#xc2;" horiz-adv-x="523" 
d="M62 0c-39 0 -46 6 -46 23c0 7 2 15 6 29l149 522c11 39 24 44 91 44c66 0 79 -5 90 -44l149 -522c4 -14 6 -22 6 -29c0 -16 -7 -23 -46 -23c-42 0 -49 6 -55 27l-43 150h-206l-40 -150c-6 -22 -13 -27 -55 -27zM255 535l-77 -282h167l-77 282h-13zM264 753h-5l-45 -68
c-13 -19 -22 -23 -53 -23c-26 0 -34 7 -34 18c0 7 3 14 11 29l57 94c8 15 15 21 46 21h40c31 0 38 -6 47 -21l56 -94c9 -15 11 -22 11 -29c0 -11 -7 -18 -34 -18c-30 0 -39 4 -52 23z" />
    <glyph glyph-name="Atilde" unicode="&#xc3;" horiz-adv-x="523" 
d="M62 0c-39 0 -46 6 -46 23c0 7 2 15 6 29l149 522c11 39 24 44 91 44c66 0 79 -5 90 -44l149 -522c4 -14 6 -22 6 -29c0 -16 -7 -23 -46 -23c-42 0 -49 6 -55 27l-43 150h-206l-40 -150c-6 -22 -13 -27 -55 -27zM255 535l-77 -282h167l-77 282h-13zM125 715
c0 27 6 35 24 46c10 6 35 18 62 18c44 0 73 -20 107 -20c35 0 55 18 66 18c10 0 14 -5 14 -34c0 -27 -7 -35 -25 -46c-9 -6 -34 -18 -62 -18c-43 0 -72 20 -107 20c-34 0 -54 -18 -65 -18s-14 5 -14 34z" />
    <glyph glyph-name="Adieresis" unicode="&#xc4;" horiz-adv-x="523" 
d="M62 0c-39 0 -46 6 -46 23c0 7 2 15 6 29l149 522c11 39 24 44 91 44c66 0 79 -5 90 -44l149 -522c4 -14 6 -22 6 -29c0 -16 -7 -23 -46 -23c-42 0 -49 6 -55 27l-43 150h-206l-40 -150c-6 -22 -13 -27 -55 -27zM255 535l-77 -282h167l-77 282h-13zM183 689
c-44 0 -51 7 -51 37v19c0 29 7 36 51 36s51 -7 51 -36v-19c0 -30 -7 -37 -51 -37zM339 689c-44 0 -51 7 -51 37v19c0 29 7 36 51 36c43 0 50 -7 50 -36v-19c0 -30 -7 -37 -50 -37z" />
    <glyph glyph-name="Aring" unicode="&#xc5;" horiz-adv-x="523" 
d="M62 0c-39 0 -46 6 -46 23c0 7 2 15 6 29l149 522c11 39 24 44 91 44c66 0 79 -5 90 -44l149 -522c4 -14 6 -22 6 -29c0 -16 -7 -23 -46 -23c-42 0 -49 6 -55 27l-43 150h-206l-40 -150c-6 -22 -13 -27 -55 -27zM255 535l-77 -282h167l-77 282h-13zM261 734
c40 0 44 8 44 34c0 27 -4 35 -44 35c-39 0 -42 -8 -42 -35c0 -26 3 -34 42 -34zM261 671c-88 0 -113 24 -113 97s25 97 113 97c89 0 114 -24 114 -97s-25 -97 -114 -97z" />
    <glyph glyph-name="AE" unicode="&#xc6;" horiz-adv-x="725" 
d="M62 0c-39 0 -46 6 -46 23c0 7 2 15 6 29l149 522c11 39 24 44 91 44h398c21 0 28 -8 28 -44c0 -35 -7 -43 -28 -43h-231v-163h173c23 0 28 -7 28 -43c0 -35 -5 -42 -28 -42h-173v-196h241c21 0 28 -8 28 -44c0 -35 -7 -43 -28 -43h-305c-26 0 -33 5 -33 28v149h-175
l-40 -150c-6 -22 -13 -27 -55 -27zM255 535l-77 -282h154v282h-77z" />
    <glyph glyph-name="Ccedilla" unicode="&#xc7;" horiz-adv-x="452" 
d="M252 -213c-23 0 -39 1 -56 5c-19 4 -27 9 -27 37c0 29 6 35 20 35c10 0 24 -4 48 -4c16 0 26 2 26 16c0 13 -9 15 -28 27c-23 13 -32 25 -32 57v34c-96 8 -158 53 -158 268v81c0 260 85 280 213 280c48 0 97 -8 138 -19c16 -5 24 -9 24 -46c0 -30 -6 -38 -17 -38
c-13 0 -59 17 -124 17c-107 0 -137 -16 -137 -203v-52c0 -193 34 -204 137 -204c69 0 109 17 124 17c13 0 17 -7 17 -39c0 -35 -8 -40 -24 -45c-36 -11 -80 -17 -123 -19v-17c0 -11 1 -16 14 -24c48 -27 61 -40 61 -86c0 -55 -35 -78 -96 -78z" />
    <glyph glyph-name="Egrave" unicode="&#xc8;" horiz-adv-x="455" 
d="M428 43c0 -35 -7 -43 -28 -43h-309c-26 0 -33 5 -33 28v562c0 23 7 28 33 28h299c21 0 28 -8 28 -44c0 -35 -7 -43 -28 -43h-235v-163h177c23 0 28 -7 28 -43c0 -35 -5 -42 -28 -42h-177v-196h245c21 0 28 -8 28 -44zM251 662c-40 0 -45 9 -56 26l-52 82
c-7 13 -15 26 -15 36c0 12 11 18 54 18c44 0 47 -7 59 -31l41 -83c5 -10 10 -22 10 -31c0 -11 -9 -17 -41 -17z" />
    <glyph glyph-name="Eacute" unicode="&#xc9;" horiz-adv-x="455" 
d="M428 43c0 -35 -7 -43 -28 -43h-309c-26 0 -33 5 -33 28v562c0 23 7 28 33 28h299c21 0 28 -8 28 -44c0 -35 -7 -43 -28 -43h-235v-163h177c23 0 28 -7 28 -43c0 -35 -5 -42 -28 -42h-177v-196h245c21 0 28 -8 28 -44zM208 662c-29 0 -41 6 -41 18c0 7 6 20 11 30l41 83
c12 25 16 31 59 31s53 -6 53 -18c0 -10 -7 -23 -15 -36l-51 -82c-11 -17 -16 -26 -57 -26z" />
    <glyph glyph-name="Ecircumflex" unicode="&#xca;" horiz-adv-x="455" 
d="M428 43c0 -35 -7 -43 -28 -43h-309c-26 0 -33 5 -33 28v562c0 23 7 28 33 28h299c21 0 28 -8 28 -44c0 -35 -7 -43 -28 -43h-235v-163h177c23 0 28 -7 28 -43c0 -35 -5 -42 -28 -42h-177v-196h245c21 0 28 -8 28 -44zM243 753h-5l-45 -68c-13 -19 -22 -23 -53 -23
c-26 0 -34 7 -34 18c0 7 3 14 11 29l57 94c8 15 15 21 46 21h40c31 0 38 -6 47 -21l56 -94c9 -15 11 -22 11 -29c0 -11 -7 -18 -34 -18c-30 0 -39 4 -52 23z" />
    <glyph glyph-name="Edieresis" unicode="&#xcb;" horiz-adv-x="455" 
d="M428 43c0 -35 -7 -43 -28 -43h-309c-26 0 -33 5 -33 28v562c0 23 7 28 33 28h299c21 0 28 -8 28 -44c0 -35 -7 -43 -28 -43h-235v-163h177c23 0 28 -7 28 -43c0 -35 -5 -42 -28 -42h-177v-196h245c21 0 28 -8 28 -44zM163 685c-44 0 -51 7 -51 37v19c0 29 7 36 51 36
s51 -7 51 -36v-19c0 -30 -7 -37 -51 -37zM319 685c-44 0 -51 7 -51 37v19c0 29 7 36 51 36c43 0 50 -7 50 -36v-19c0 -30 -7 -37 -50 -37z" />
    <glyph glyph-name="Igrave" unicode="&#xcc;" horiz-adv-x="213" 
d="M107 0c-39 0 -49 5 -49 30v558c0 25 10 30 49 30c38 0 48 -5 48 -30v-558c0 -25 -10 -30 -48 -30zM121 662c-40 0 -45 9 -56 26l-52 82c-7 13 -15 26 -15 36c0 12 11 18 54 18c44 0 47 -7 59 -31l41 -83c5 -10 10 -22 10 -31c0 -11 -9 -17 -41 -17z" />
    <glyph glyph-name="Iacute" unicode="&#xcd;" horiz-adv-x="213" 
d="M107 0c-39 0 -49 5 -49 30v558c0 25 10 30 49 30c38 0 48 -5 48 -30v-558c0 -25 -10 -30 -48 -30zM93 662c-29 0 -41 6 -41 18c0 7 6 20 11 30l41 83c12 25 16 31 59 31s53 -6 53 -18c0 -10 -7 -23 -15 -36l-51 -82c-11 -17 -16 -26 -57 -26z" />
    <glyph glyph-name="Icircumflex" unicode="&#xce;" horiz-adv-x="213" 
d="M107 0c-39 0 -49 5 -49 30v558c0 25 10 30 49 30c38 0 48 -5 48 -30v-558c0 -25 -10 -30 -48 -30zM110 753h-5l-45 -68c-13 -19 -22 -23 -53 -23c-26 0 -34 7 -34 18c0 7 3 14 11 29l57 94c8 15 15 21 46 21h40c31 0 38 -6 47 -21l56 -94c9 -15 11 -22 11 -29
c0 -11 -7 -18 -34 -18c-30 0 -39 4 -52 23z" />
    <glyph glyph-name="Idieresis" unicode="&#xcf;" horiz-adv-x="213" 
d="M107 0c-39 0 -49 5 -49 30v558c0 25 10 30 49 30c38 0 48 -5 48 -30v-558c0 -25 -10 -30 -48 -30zM29 685c-44 0 -51 7 -51 37v19c0 29 7 36 51 36s51 -7 51 -36v-19c0 -30 -7 -37 -51 -37zM185 685c-44 0 -51 7 -51 37v19c0 29 7 36 51 36c43 0 50 -7 50 -36v-19
c0 -30 -7 -37 -50 -37z" />
    <glyph glyph-name="Eth" unicode="&#xd0;" horiz-adv-x="526" 
d="M3 313c0 35 5 43 28 43h27v223c0 25 11 33 32 36c51 7 106 8 146 8c164 0 245 -20 245 -276v-65c0 -270 -90 -290 -230 -290c-66 0 -103 2 -158 8c-28 3 -35 12 -35 34v236h-27c-23 0 -28 7 -28 43zM251 78c103 0 133 14 133 204v62c0 176 -34 196 -145 196
c-34 0 -63 -2 -84 -4v-182h34c23 0 28 -7 28 -41c0 -35 -5 -42 -28 -42h-34v-189c25 -2 55 -4 96 -4z" />
    <glyph glyph-name="Ntilde" unicode="&#xd1;" horiz-adv-x="547" 
d="M107 0c-39 0 -49 5 -49 30v558c0 25 12 30 64 30c40 0 56 -3 68 -29l193 -428h9v427c0 25 10 30 48 30c39 0 49 -5 49 -30v-558c0 -25 -10 -30 -63 -30c-40 0 -51 1 -64 29l-198 428h-9v-427c0 -25 -10 -30 -48 -30zM137 721c0 27 6 35 24 46c10 6 35 18 62 18
c44 0 73 -20 107 -20c35 0 55 18 66 18c10 0 14 -5 14 -34c0 -27 -7 -35 -25 -46c-9 -6 -34 -18 -62 -18c-43 0 -72 20 -107 20c-34 0 -54 -18 -65 -18s-14 5 -14 34z" />
    <glyph glyph-name="Ograve" unicode="&#xd2;" horiz-adv-x="526" 
d="M263 76c99 0 121 21 121 206v51c0 185 -16 206 -121 206c-99 0 -121 -21 -121 -206v-51c0 -185 16 -206 121 -206zM263 -8c-160 0 -218 30 -218 282v63c0 262 66 286 218 286c164 0 218 -30 218 -286v-63c0 -258 -70 -282 -218 -282zM288 662c-40 0 -45 9 -56 26l-52 82
c-7 13 -15 26 -15 36c0 12 11 18 54 18c44 0 47 -7 59 -31l41 -83c5 -10 10 -22 10 -31c0 -11 -9 -17 -41 -17z" />
    <glyph glyph-name="Oacute" unicode="&#xd3;" horiz-adv-x="526" 
d="M263 76c99 0 121 21 121 206v51c0 185 -16 206 -121 206c-99 0 -121 -21 -121 -206v-51c0 -185 16 -206 121 -206zM263 -8c-160 0 -218 30 -218 282v63c0 262 66 286 218 286c164 0 218 -30 218 -286v-63c0 -258 -70 -282 -218 -282zM236 662c-29 0 -41 6 -41 18
c0 7 6 20 11 30l41 83c12 25 16 31 59 31s53 -6 53 -18c0 -10 -7 -23 -15 -36l-51 -82c-11 -17 -16 -26 -57 -26z" />
    <glyph glyph-name="Ocircumflex" unicode="&#xd4;" horiz-adv-x="526" 
d="M263 76c99 0 121 21 121 206v51c0 185 -16 206 -121 206c-99 0 -121 -21 -121 -206v-51c0 -185 16 -206 121 -206zM263 -8c-160 0 -218 30 -218 282v63c0 262 66 286 218 286c164 0 218 -30 218 -286v-63c0 -258 -70 -282 -218 -282zM266 753h-5l-45 -68
c-13 -19 -22 -23 -53 -23c-26 0 -34 7 -34 18c0 7 3 14 11 29l57 94c8 15 15 21 46 21h40c31 0 38 -6 47 -21l56 -94c9 -15 11 -22 11 -29c0 -11 -7 -18 -34 -18c-30 0 -39 4 -52 23z" />
    <glyph glyph-name="Otilde" unicode="&#xd5;" horiz-adv-x="526" 
d="M263 76c99 0 121 21 121 206v51c0 185 -16 206 -121 206c-99 0 -121 -21 -121 -206v-51c0 -185 16 -206 121 -206zM263 -8c-160 0 -218 30 -218 282v63c0 262 66 286 218 286c164 0 218 -30 218 -286v-63c0 -258 -70 -282 -218 -282zM127 715c0 27 6 35 24 46
c10 6 35 18 62 18c44 0 73 -20 107 -20c35 0 55 18 66 18c10 0 14 -5 14 -34c0 -27 -7 -35 -25 -46c-9 -6 -34 -18 -62 -18c-43 0 -72 20 -107 20c-34 0 -54 -18 -65 -18s-14 5 -14 34z" />
    <glyph glyph-name="Odieresis" unicode="&#xd6;" horiz-adv-x="526" 
d="M263 76c99 0 121 21 121 206v51c0 185 -16 206 -121 206c-99 0 -121 -21 -121 -206v-51c0 -185 16 -206 121 -206zM263 -8c-160 0 -218 30 -218 282v63c0 262 66 286 218 286c164 0 218 -30 218 -286v-63c0 -258 -70 -282 -218 -282zM186 687c-44 0 -51 7 -51 37v19
c0 29 7 36 51 36s51 -7 51 -36v-19c0 -30 -7 -37 -51 -37zM342 687c-44 0 -51 7 -51 37v19c0 29 7 36 51 36c43 0 50 -7 50 -36v-19c0 -30 -7 -37 -50 -37z" />
    <glyph glyph-name="multiply" unicode="&#xd7;" 
d="M82 126c0 8 8 19 15 28l89 115l-89 122c-7 9 -15 20 -15 28c0 11 7 16 39 16c27 0 39 -4 48 -16l60 -89l61 89c9 12 21 16 48 16c32 0 39 -5 39 -16c0 -8 -8 -19 -15 -28l-89 -122l89 -115c7 -9 15 -20 15 -28c0 -11 -7 -17 -39 -17c-27 0 -39 5 -48 17l-61 83l-60 -83
c-9 -12 -21 -17 -48 -17c-32 0 -39 6 -39 17z" />
    <glyph glyph-name="Oslash" unicode="&#xd8;" horiz-adv-x="526" 
d="M263 -8c-148 0 -218 24 -218 282v63c0 256 54 286 218 286s218 -30 218 -286v-63c0 -258 -70 -282 -218 -282zM142 333c0 -81 0 -106 2 -128l225 286c-15 41 -46 48 -106 48c-105 0 -121 -21 -121 -206zM263 76c99 0 121 21 121 206c0 75 -1 97 -1 116l-220 -280
c18 -37 48 -42 100 -42z" />
    <glyph glyph-name="Ugrave" unicode="&#xd9;" horiz-adv-x="524" 
d="M262 -8c-146 0 -204 50 -204 188v408c0 25 10 30 49 30c38 0 48 -5 48 -30v-412c0 -73 20 -99 107 -99c86 0 107 26 107 99v412c0 25 10 30 48 30s48 -5 48 -30v-408c0 -138 -58 -188 -203 -188zM283 662c-40 0 -45 9 -56 26l-52 82c-7 13 -15 26 -15 36
c0 12 11 18 54 18c44 0 47 -7 59 -31l41 -83c5 -10 10 -22 10 -31c0 -11 -9 -17 -41 -17z" />
    <glyph glyph-name="Uacute" unicode="&#xda;" horiz-adv-x="524" 
d="M262 -8c-146 0 -204 50 -204 188v408c0 25 10 30 49 30c38 0 48 -5 48 -30v-412c0 -73 20 -99 107 -99c86 0 107 26 107 99v412c0 25 10 30 48 30s48 -5 48 -30v-408c0 -138 -58 -188 -203 -188zM240 662c-29 0 -41 6 -41 18c0 7 6 20 11 30l41 83c12 25 16 31 59 31
s53 -6 53 -18c0 -10 -7 -23 -15 -36l-51 -82c-11 -17 -16 -26 -57 -26z" />
    <glyph glyph-name="Ucircumflex" unicode="&#xdb;" horiz-adv-x="524" 
d="M262 -8c-146 0 -204 50 -204 188v408c0 25 10 30 49 30c38 0 48 -5 48 -30v-412c0 -73 20 -99 107 -99c86 0 107 26 107 99v412c0 25 10 30 48 30s48 -5 48 -30v-408c0 -138 -58 -188 -203 -188zM265 753h-5l-45 -68c-13 -19 -22 -23 -53 -23c-26 0 -34 7 -34 18
c0 7 3 14 11 29l57 94c8 15 15 21 46 21h40c31 0 38 -6 47 -21l56 -94c9 -15 11 -22 11 -29c0 -11 -7 -18 -34 -18c-30 0 -39 4 -52 23z" />
    <glyph glyph-name="Udieresis" unicode="&#xdc;" horiz-adv-x="524" 
d="M262 -8c-146 0 -204 50 -204 188v408c0 25 10 30 49 30c38 0 48 -5 48 -30v-412c0 -73 20 -99 107 -99c86 0 107 26 107 99v412c0 25 10 30 48 30s48 -5 48 -30v-408c0 -138 -58 -188 -203 -188zM184 687c-44 0 -51 7 -51 37v19c0 29 7 36 51 36s51 -7 51 -36v-19
c0 -30 -7 -37 -51 -37zM340 687c-44 0 -51 7 -51 37v19c0 29 7 36 51 36c43 0 50 -7 50 -36v-19c0 -30 -7 -37 -50 -37z" />
    <glyph glyph-name="Yacute" unicode="&#xdd;" horiz-adv-x="463" 
d="M232 0c-39 0 -49 5 -49 30v203l-155 324c-10 22 -12 31 -12 38c0 13 8 23 43 23c46 0 55 -5 64 -27l106 -255h5l106 255c9 22 17 27 62 27c38 0 46 -9 46 -22c0 -7 -3 -17 -13 -39l-155 -324v-203c0 -25 -10 -30 -48 -30zM212 662c-29 0 -41 6 -41 18c0 7 6 20 11 30
l41 83c12 25 16 31 59 31s53 -6 53 -18c0 -10 -7 -23 -15 -36l-51 -82c-11 -17 -16 -26 -57 -26z" />
    <glyph glyph-name="Thorn" unicode="&#xde;" horiz-adv-x="472" 
d="M107 0c-39 0 -49 5 -49 30v558c0 25 10 30 49 30c38 0 48 -5 48 -30v-86c32 2 65 4 91 4c138 0 197 -23 197 -179c0 -154 -62 -204 -222 -204h-66v-93c0 -25 -10 -30 -48 -30zM155 419v-216h70c97 0 122 24 122 123c0 83 -22 98 -110 98c-31 0 -58 -3 -82 -5z" />
    <glyph glyph-name="germandbls" unicode="&#xdf;" horiz-adv-x="486" 
d="M209 668c121 0 172 -30 172 -115c0 -80 -47 -143 -47 -191c0 -27 8 -40 28 -54l59 -41c40 -29 51 -64 51 -124c0 -107 -55 -153 -143 -153c-40 0 -69 6 -93 14c-19 7 -26 14 -26 44s6 39 16 39c13 0 42 -12 85 -12c53 0 63 25 63 71c0 33 -2 49 -24 63l-54 35
c-34 22 -51 55 -51 99c0 68 43 129 43 191c0 46 -22 54 -78 54c-50 0 -57 -7 -57 -66v-492c0 -26 -10 -30 -48 -30s-49 4 -49 30v506c0 92 28 132 153 132z" />
    <glyph glyph-name="agrave" unicode="&#xe0;" horiz-adv-x="486" 
d="M167 -10c-88 0 -129 40 -129 143s46 145 185 145h99v65c0 68 -24 76 -88 76c-76 0 -129 -18 -148 -18c-13 0 -18 10 -18 39s6 37 22 42c33 10 97 20 154 20c117 0 174 -20 174 -137v-174c0 -104 21 -150 21 -168c0 -15 -6 -23 -45 -23c-33 0 -40 3 -46 26l-16 60
c-29 -66 -92 -96 -165 -96zM199 70c64 0 123 37 123 114v33l-101 -3c-72 -3 -90 -17 -90 -71c0 -64 21 -73 68 -73zM267 539c-40 0 -45 9 -56 26l-52 82c-7 13 -15 26 -15 36c0 12 11 18 54 18c44 0 47 -7 59 -31l41 -83c5 -10 10 -22 10 -31c0 -11 -9 -17 -41 -17z" />
    <glyph glyph-name="aacute" unicode="&#xe1;" horiz-adv-x="486" 
d="M167 -10c-88 0 -129 40 -129 143s46 145 185 145h99v65c0 68 -24 76 -88 76c-76 0 -129 -18 -148 -18c-13 0 -18 10 -18 39s6 37 22 42c33 10 97 20 154 20c117 0 174 -20 174 -137v-174c0 -104 21 -150 21 -168c0 -15 -6 -23 -45 -23c-33 0 -40 3 -46 26l-16 60
c-29 -66 -92 -96 -165 -96zM199 70c64 0 123 37 123 114v33l-101 -3c-72 -3 -90 -17 -90 -71c0 -64 21 -73 68 -73zM217 539c-29 0 -41 6 -41 18c0 7 6 20 11 30l41 83c12 25 16 31 59 31s53 -6 53 -18c0 -10 -7 -23 -15 -36l-51 -82c-11 -17 -16 -26 -57 -26z" />
    <glyph glyph-name="acircumflex" unicode="&#xe2;" horiz-adv-x="486" 
d="M167 -10c-88 0 -129 40 -129 143s46 145 185 145h99v65c0 68 -24 76 -88 76c-76 0 -129 -18 -148 -18c-13 0 -18 10 -18 39s6 37 22 42c33 10 97 20 154 20c117 0 174 -20 174 -137v-174c0 -104 21 -150 21 -168c0 -15 -6 -23 -45 -23c-33 0 -40 3 -46 26l-16 60
c-29 -66 -92 -96 -165 -96zM199 70c64 0 123 37 123 114v33l-101 -3c-72 -3 -90 -17 -90 -71c0 -64 21 -73 68 -73zM240 630h-5l-45 -68c-13 -19 -22 -23 -53 -23c-26 0 -34 7 -34 18c0 7 3 14 11 29l57 94c8 15 15 21 46 21h40c31 0 38 -6 47 -21l56 -94
c9 -15 11 -22 11 -29c0 -11 -7 -18 -34 -18c-30 0 -39 4 -52 23z" />
    <glyph glyph-name="atilde" unicode="&#xe3;" horiz-adv-x="486" 
d="M167 -10c-88 0 -129 40 -129 143s46 145 185 145h99v65c0 68 -24 76 -88 76c-76 0 -129 -18 -148 -18c-13 0 -18 10 -18 39s6 37 22 42c33 10 97 20 154 20c117 0 174 -20 174 -137v-174c0 -104 21 -150 21 -168c0 -15 -6 -23 -45 -23c-33 0 -40 3 -46 26l-16 60
c-29 -66 -92 -96 -165 -96zM199 70c64 0 123 37 123 114v33l-101 -3c-72 -3 -90 -17 -90 -71c0 -64 21 -73 68 -73zM101 596c0 27 6 35 24 46c10 6 35 18 62 18c44 0 73 -20 107 -20c35 0 55 18 66 18c10 0 14 -5 14 -34c0 -27 -7 -35 -25 -46c-9 -6 -34 -18 -62 -18
c-43 0 -72 20 -107 20c-34 0 -54 -18 -65 -18s-14 5 -14 34z" />
    <glyph glyph-name="adieresis" unicode="&#xe4;" horiz-adv-x="486" 
d="M167 -10c-88 0 -129 40 -129 143s46 145 185 145h99v65c0 68 -24 76 -88 76c-76 0 -129 -18 -148 -18c-13 0 -18 10 -18 39s6 37 22 42c33 10 97 20 154 20c117 0 174 -20 174 -137v-174c0 -104 21 -150 21 -168c0 -15 -6 -23 -45 -23c-33 0 -40 3 -46 26l-16 60
c-29 -66 -92 -96 -165 -96zM199 70c64 0 123 37 123 114v33l-101 -3c-72 -3 -90 -17 -90 -71c0 -64 21 -73 68 -73zM159 562c-44 0 -51 7 -51 37v19c0 29 7 36 51 36s51 -7 51 -36v-19c0 -30 -7 -37 -51 -37zM315 562c-44 0 -51 7 -51 37v19c0 29 7 36 51 36
c43 0 50 -7 50 -36v-19c0 -30 -7 -37 -50 -37z" />
    <glyph glyph-name="aring" unicode="&#xe5;" horiz-adv-x="486" 
d="M167 -10c-88 0 -129 40 -129 143s46 145 185 145h99v65c0 68 -24 76 -88 76c-76 0 -129 -18 -148 -18c-13 0 -18 10 -18 39s6 37 22 42c33 10 97 20 154 20c117 0 174 -20 174 -137v-174c0 -104 21 -150 21 -168c0 -15 -6 -23 -45 -23c-33 0 -40 3 -46 26l-16 60
c-29 -66 -92 -96 -165 -96zM199 70c64 0 123 37 123 114v33l-101 -3c-72 -3 -90 -17 -90 -71c0 -64 21 -73 68 -73zM235 613c40 0 44 8 44 34c0 27 -4 35 -44 35c-39 0 -42 -8 -42 -35c0 -26 3 -34 42 -34zM235 550c-88 0 -113 24 -113 97s25 97 113 97
c89 0 114 -24 114 -97s-25 -97 -114 -97z" />
    <glyph glyph-name="ae" unicode="&#xe6;" horiz-adv-x="743" 
d="M508 -10c-101 0 -154 12 -171 107c-27 -74 -93 -107 -170 -107c-88 0 -129 40 -129 143s46 145 185 145h99v65c0 68 -24 76 -88 76c-76 0 -129 -18 -148 -18c-13 0 -18 10 -18 39s6 37 22 42c33 10 97 20 154 20c69 0 115 -8 141 -38c34 30 81 38 143 38
c153 0 173 -75 173 -233c0 -32 -7 -48 -40 -48h-243c2 -138 26 -147 102 -147c93 0 144 19 158 19c10 0 16 -8 16 -39c0 -29 -6 -37 -25 -43c-34 -12 -111 -21 -161 -21zM199 70c64 0 123 37 123 114v33l-101 -3c-72 -3 -90 -17 -90 -71c0 -64 21 -73 68 -73zM520 421
c-77 0 -99 -16 -102 -136h190c0 95 -3 136 -88 136z" />
    <glyph glyph-name="ccedilla" unicode="&#xe7;" horiz-adv-x="429" 
d="M228 -213c-23 0 -39 1 -56 5c-19 4 -27 9 -27 37c0 29 6 35 20 35c10 0 24 -4 48 -4c16 0 26 2 26 16c0 13 -9 15 -28 27c-23 13 -32 25 -32 57v34c-88 13 -131 66 -131 247c0 237 77 261 197 261c43 0 91 -8 124 -18c19 -6 26 -13 26 -43c0 -31 -6 -39 -18 -39
s-72 17 -122 17c-82 0 -109 -16 -109 -168c0 -155 12 -177 111 -177c67 0 108 19 122 19c10 0 16 -8 16 -39c0 -29 -6 -37 -25 -43c-33 -11 -83 -20 -121 -21v-15c0 -11 1 -16 14 -24c48 -27 61 -40 61 -86c0 -55 -35 -78 -96 -78z" />
    <glyph glyph-name="egrave" unicode="&#xe8;" horiz-adv-x="471" 
d="M255 -10c-143 0 -207 30 -207 251c0 237 75 261 201 261c160 0 180 -75 180 -233c0 -32 -7 -48 -40 -48h-243c2 -128 19 -147 117 -147c78 0 128 19 143 19c10 0 16 -8 16 -39c0 -29 -7 -37 -26 -43c-33 -12 -96 -21 -141 -21zM247 421c-72 0 -97 -16 -101 -136h190
c0 95 -3 136 -89 136zM268 539c-40 0 -45 9 -56 26l-52 82c-7 13 -15 26 -15 36c0 12 11 18 54 18c44 0 47 -7 59 -31l41 -83c5 -10 10 -22 10 -31c0 -11 -9 -17 -41 -17z" />
    <glyph glyph-name="eacute" unicode="&#xe9;" horiz-adv-x="471" 
d="M255 -10c-143 0 -207 30 -207 251c0 237 75 261 201 261c160 0 180 -75 180 -233c0 -32 -7 -48 -40 -48h-243c2 -128 19 -147 117 -147c78 0 128 19 143 19c10 0 16 -8 16 -39c0 -29 -7 -37 -26 -43c-33 -12 -96 -21 -141 -21zM247 421c-72 0 -97 -16 -101 -136h190
c0 95 -3 136 -89 136zM217 539c-29 0 -41 6 -41 18c0 7 6 20 11 30l41 83c12 25 16 31 59 31s53 -6 53 -18c0 -10 -7 -23 -15 -36l-51 -82c-11 -17 -16 -26 -57 -26z" />
    <glyph glyph-name="ecircumflex" unicode="&#xea;" horiz-adv-x="471" 
d="M255 -10c-143 0 -207 30 -207 251c0 237 75 261 201 261c160 0 180 -75 180 -233c0 -32 -7 -48 -40 -48h-243c2 -128 19 -147 117 -147c78 0 128 19 143 19c10 0 16 -8 16 -39c0 -29 -7 -37 -26 -43c-33 -12 -96 -21 -141 -21zM247 421c-72 0 -97 -16 -101 -136h190
c0 95 -3 136 -89 136zM245 630h-5l-45 -68c-13 -19 -22 -23 -53 -23c-26 0 -34 7 -34 18c0 7 3 14 11 29l57 94c8 15 15 21 46 21h40c31 0 38 -6 47 -21l56 -94c9 -15 11 -22 11 -29c0 -11 -7 -18 -34 -18c-30 0 -39 4 -52 23z" />
    <glyph glyph-name="edieresis" unicode="&#xeb;" horiz-adv-x="471" 
d="M255 -10c-143 0 -207 30 -207 251c0 237 75 261 201 261c160 0 180 -75 180 -233c0 -32 -7 -48 -40 -48h-243c2 -128 19 -147 117 -147c78 0 128 19 143 19c10 0 16 -8 16 -39c0 -29 -7 -37 -26 -43c-33 -12 -96 -21 -141 -21zM247 421c-72 0 -97 -16 -101 -136h190
c0 95 -3 136 -89 136zM165 562c-44 0 -51 7 -51 37v19c0 29 7 36 51 36s51 -7 51 -36v-19c0 -30 -7 -37 -51 -37zM321 562c-44 0 -51 7 -51 37v19c0 29 7 36 51 36c43 0 50 -7 50 -36v-19c0 -30 -7 -37 -50 -37z" />
    <glyph glyph-name="igrave" unicode="&#xec;" horiz-adv-x="214" 
d="M123 539c-40 0 -45 9 -56 26l-52 82c-7 13 -15 26 -15 36c0 12 11 18 54 18c44 0 47 -7 59 -31l41 -83c5 -10 10 -22 10 -31c0 -11 -9 -17 -41 -17zM105 0c-38 0 -49 4 -49 30v432c0 26 11 30 49 30s48 -4 48 -30v-432c0 -26 -10 -30 -48 -30z" />
    <glyph glyph-name="iacute" unicode="&#xed;" horiz-adv-x="214" 
d="M88 539c-29 0 -41 6 -41 18c0 7 6 20 11 30l41 83c12 25 16 31 59 31s53 -6 53 -18c0 -10 -7 -23 -15 -36l-51 -82c-11 -17 -16 -26 -57 -26zM105 0c-38 0 -49 4 -49 30v432c0 26 11 30 49 30s48 -4 48 -30v-432c0 -26 -10 -30 -48 -30z" />
    <glyph glyph-name="icircumflex" unicode="&#xee;" horiz-adv-x="214" 
d="M106 0c-38 0 -49 4 -49 30v432c0 26 11 30 49 30s48 -4 48 -30v-432c0 -26 -10 -30 -48 -30zM109 630h-5l-45 -68c-13 -19 -22 -23 -53 -23c-26 0 -34 7 -34 18c0 7 3 14 11 29l57 94c8 15 15 21 46 21h40c31 0 38 -6 47 -21l56 -94c9 -15 11 -22 11 -29
c0 -11 -7 -18 -34 -18c-30 0 -39 4 -52 23z" />
    <glyph glyph-name="idieresis" unicode="&#xef;" horiz-adv-x="214" 
d="M29 562c-44 0 -51 7 -51 37v19c0 29 7 36 51 36s51 -7 51 -36v-19c0 -30 -7 -37 -51 -37zM185 562c-44 0 -51 7 -51 37v19c0 29 7 36 51 36c43 0 50 -7 50 -36v-19c0 -30 -7 -37 -50 -37zM105 0c-38 0 -49 4 -49 30v432c0 26 11 30 49 30s48 -4 48 -30v-432
c0 -26 -10 -30 -48 -30z" />
    <glyph glyph-name="eth" unicode="&#xf0;" horiz-adv-x="500" 
d="M427 592c0 -8 -4 -12 -14 -15l-43 -11c41 -79 81 -192 81 -314c0 -210 -57 -262 -209 -262c-148 0 -194 42 -194 252c0 215 50 260 167 260c46 0 77 -10 98 -27c-9 26 -19 49 -28 69l-44 -11c-5 -1 -10 -2 -13 -2c-9 0 -13 6 -16 18c-4 13 -4 20 -4 24c0 8 3 12 13 15
l37 9c-12 22 -19 37 -19 48c0 10 3 19 36 19c29 0 36 -3 44 -16l21 -30l54 14c5 1 10 2 13 2c8 0 11 -6 15 -19c4 -12 5 -19 5 -23zM244 72c91 0 109 31 109 171c0 153 -24 177 -99 177c-96 0 -107 -23 -107 -169c0 -153 12 -179 97 -179z" />
    <glyph glyph-name="ntilde" unicode="&#xf1;" horiz-adv-x="512" 
d="M117 0c-38 0 -49 4 -49 30v271c0 104 -22 150 -22 168c0 15 7 23 45 23c34 0 41 -3 47 -26l14 -57c26 62 79 93 165 93c109 0 136 -44 136 -134v-338c0 -26 -10 -30 -48 -30s-48 4 -48 30v315c0 54 -14 73 -74 73c-88 0 -118 -47 -118 -166v-222c0 -26 -11 -30 -48 -30z
M126 596c0 27 6 35 24 46c10 6 35 18 62 18c44 0 73 -20 107 -20c35 0 55 18 66 18c10 0 14 -5 14 -34c0 -27 -7 -35 -25 -46c-9 -6 -34 -18 -62 -18c-43 0 -72 20 -107 20c-34 0 -54 -18 -65 -18s-14 5 -14 34z" />
    <glyph glyph-name="ograve" unicode="&#xf2;" horiz-adv-x="500" 
d="M242 -10c-148 0 -194 42 -194 252s58 260 210 260c148 0 193 -40 193 -250s-57 -262 -209 -262zM244 72c91 0 109 31 109 171c0 153 -14 177 -99 177c-90 0 -107 -29 -107 -169c0 -153 12 -179 97 -179zM272 539c-40 0 -45 9 -56 26l-52 82c-7 13 -15 26 -15 36
c0 12 11 18 54 18c44 0 47 -7 59 -31l41 -83c5 -10 10 -22 10 -31c0 -11 -9 -17 -41 -17z" />
    <glyph glyph-name="oacute" unicode="&#xf3;" horiz-adv-x="500" 
d="M242 -10c-148 0 -194 42 -194 252s58 260 210 260c148 0 193 -40 193 -250s-57 -262 -209 -262zM244 72c91 0 109 31 109 171c0 153 -14 177 -99 177c-90 0 -107 -29 -107 -169c0 -153 12 -179 97 -179zM228 539c-29 0 -41 6 -41 18c0 7 6 20 11 30l41 83
c12 25 16 31 59 31s53 -6 53 -18c0 -10 -7 -23 -15 -36l-51 -82c-11 -17 -16 -26 -57 -26z" />
    <glyph glyph-name="ocircumflex" unicode="&#xf4;" horiz-adv-x="500" 
d="M242 -10c-148 0 -194 42 -194 252s58 260 210 260c148 0 193 -40 193 -250s-57 -262 -209 -262zM244 72c91 0 109 31 109 171c0 153 -14 177 -99 177c-90 0 -107 -29 -107 -169c0 -153 12 -179 97 -179zM253 630h-5l-45 -68c-13 -19 -22 -23 -53 -23c-26 0 -34 7 -34 18
c0 7 3 14 11 29l57 94c8 15 15 21 46 21h40c31 0 38 -6 47 -21l56 -94c9 -15 11 -22 11 -29c0 -11 -7 -18 -34 -18c-30 0 -39 4 -52 23z" />
    <glyph glyph-name="otilde" unicode="&#xf5;" horiz-adv-x="500" 
d="M242 -10c-148 0 -194 42 -194 252s58 260 210 260c148 0 193 -40 193 -250s-57 -262 -209 -262zM244 72c91 0 109 31 109 171c0 153 -14 177 -99 177c-90 0 -107 -29 -107 -169c0 -153 12 -179 97 -179zM114 596c0 27 6 35 24 46c10 6 35 18 62 18c44 0 73 -20 107 -20
c35 0 55 18 66 18c10 0 14 -5 14 -34c0 -27 -7 -35 -25 -46c-9 -6 -34 -18 -62 -18c-43 0 -72 20 -107 20c-34 0 -54 -18 -65 -18s-14 5 -14 34z" />
    <glyph glyph-name="odieresis" unicode="&#xf6;" horiz-adv-x="500" 
d="M242 -10c-148 0 -194 42 -194 252s58 260 210 260c148 0 193 -40 193 -250s-57 -262 -209 -262zM244 72c91 0 109 31 109 171c0 153 -14 177 -99 177c-90 0 -107 -29 -107 -169c0 -153 12 -179 97 -179zM172 562c-44 0 -51 7 -51 37v19c0 29 7 36 51 36s51 -7 51 -36v-19
c0 -30 -7 -37 -51 -37zM328 562c-44 0 -51 7 -51 37v19c0 29 7 36 51 36c43 0 50 -7 50 -36v-19c0 -30 -7 -37 -50 -37z" />
    <glyph glyph-name="divide" unicode="&#xf7;" 
d="M85 269c0 36 5 39 27 39h239c23 0 28 -3 28 -39c0 -35 -5 -39 -28 -39h-239c-22 0 -27 4 -27 39zM232 369c-35 0 -43 4 -43 29v30c0 25 8 30 43 30c36 0 43 -5 43 -30v-30c0 -25 -7 -29 -43 -29zM232 66c-35 0 -43 4 -43 29v30c0 25 8 30 43 30c36 0 43 -5 43 -30v-30
c0 -25 -7 -29 -43 -29z" />
    <glyph glyph-name="oslash" unicode="&#xf8;" horiz-adv-x="500" 
d="M242 -10c-148 0 -194 42 -194 252s58 260 210 260c148 0 193 -40 193 -250s-57 -262 -209 -262zM244 72c91 0 109 31 109 171c0 32 -1 59 -3 81l-186 -220c14 -25 38 -32 80 -32zM147 251c0 -32 0 -58 2 -80l185 219c-14 24 -39 30 -80 30c-90 0 -107 -29 -107 -169z" />
    <glyph glyph-name="ugrave" unicode="&#xf9;" horiz-adv-x="503" 
d="M191 -10c-105 0 -135 40 -135 130v342c0 26 11 30 49 30s48 -4 48 -30v-319c0 -54 14 -69 74 -69c88 0 117 47 117 166v222c0 26 10 30 48 30s49 -4 49 -30v-271c0 -104 22 -150 22 -168c0 -15 -7 -23 -46 -23c-33 0 -40 3 -46 26l-14 53c-27 -61 -80 -89 -166 -89z
M268 539c-40 0 -45 9 -56 26l-52 82c-7 13 -15 26 -15 36c0 12 11 18 54 18c44 0 47 -7 59 -31l41 -83c5 -10 10 -22 10 -31c0 -11 -9 -17 -41 -17z" />
    <glyph glyph-name="uacute" unicode="&#xfa;" horiz-adv-x="503" 
d="M191 -10c-105 0 -135 40 -135 130v342c0 26 11 30 49 30s48 -4 48 -30v-319c0 -54 14 -69 74 -69c88 0 117 47 117 166v222c0 26 10 30 48 30s49 -4 49 -30v-271c0 -104 22 -150 22 -168c0 -15 -7 -23 -46 -23c-33 0 -40 3 -46 26l-14 53c-27 -61 -80 -89 -166 -89z
M229 539c-29 0 -41 6 -41 18c0 7 6 20 11 30l41 83c12 25 16 31 59 31s53 -6 53 -18c0 -10 -7 -23 -15 -36l-51 -82c-11 -17 -16 -26 -57 -26z" />
    <glyph glyph-name="ucircumflex" unicode="&#xfb;" horiz-adv-x="503" 
d="M191 -10c-105 0 -135 40 -135 130v342c0 26 11 30 49 30s48 -4 48 -30v-319c0 -54 14 -69 74 -69c88 0 117 47 117 166v222c0 26 10 30 48 30s49 -4 49 -30v-271c0 -104 22 -150 22 -168c0 -15 -7 -23 -46 -23c-33 0 -40 3 -46 26l-14 53c-27 -61 -80 -89 -166 -89z
M252 630h-5l-45 -68c-13 -19 -22 -23 -53 -23c-26 0 -34 7 -34 18c0 7 3 14 11 29l57 94c8 15 15 21 46 21h40c31 0 38 -6 47 -21l56 -94c9 -15 11 -22 11 -29c0 -11 -7 -18 -34 -18c-30 0 -39 4 -52 23z" />
    <glyph glyph-name="udieresis" unicode="&#xfc;" horiz-adv-x="503" 
d="M191 -10c-105 0 -135 40 -135 130v342c0 26 11 30 49 30s48 -4 48 -30v-319c0 -54 14 -69 74 -69c88 0 117 47 117 166v222c0 26 10 30 48 30s49 -4 49 -30v-271c0 -104 22 -150 22 -168c0 -15 -7 -23 -46 -23c-33 0 -40 3 -46 26l-14 53c-27 -61 -80 -89 -166 -89z
M171 562c-44 0 -51 7 -51 37v19c0 29 7 36 51 36s51 -7 51 -36v-19c0 -30 -7 -37 -51 -37zM327 562c-44 0 -51 7 -51 37v19c0 29 7 36 51 36c43 0 50 -7 50 -36v-19c0 -30 -7 -37 -50 -37z" />
    <glyph glyph-name="yacute" unicode="&#xfd;" horiz-adv-x="461" 
d="M22 467c0 15 5 25 50 25c38 0 47 -3 53 -25l100 -384h9l102 384c6 22 14 25 52 25c44 0 52 -8 52 -24c0 -8 -2 -22 -14 -61l-136 -448c-34 -113 -56 -153 -152 -153c-34 0 -66 5 -88 12c-17 5 -25 12 -25 40c0 31 5 40 18 40c12 0 38 -8 84 -8c48 0 60 12 72 58l13 52
c-45 1 -58 14 -69 50l-105 344c-16 52 -16 65 -16 73zM212 539c-29 0 -41 6 -41 18c0 7 6 20 11 30l41 83c12 25 16 31 59 31s53 -6 53 -18c0 -10 -7 -23 -15 -36l-51 -82c-11 -17 -16 -26 -57 -26z" />
    <glyph glyph-name="thorn" unicode="&#xfe;" horiz-adv-x="525" 
d="M165 624v-183c28 39 75 61 145 61c136 0 167 -54 167 -252c0 -220 -58 -260 -185 -260c-62 0 -104 14 -127 54v-202c0 -26 -11 -30 -48 -30c-38 0 -49 4 -49 30v782c0 26 11 30 49 30c37 0 48 -4 48 -30zM272 72c85 0 106 24 106 180c0 142 -15 168 -95 168
s-120 -25 -120 -151v-55c0 -108 20 -142 109 -142z" />
    <glyph glyph-name="ydieresis" unicode="&#xff;" horiz-adv-x="461" 
d="M22 467c0 15 5 25 50 25c38 0 47 -3 53 -25l100 -384h9l102 384c6 22 14 25 52 25c44 0 52 -8 52 -24c0 -8 -2 -22 -14 -61l-136 -448c-34 -113 -56 -153 -152 -153c-34 0 -66 5 -88 12c-17 5 -25 12 -25 40c0 31 5 40 18 40c12 0 38 -8 84 -8c48 0 60 12 72 58l13 52
c-45 1 -58 14 -69 50l-105 344c-16 52 -16 65 -16 73zM154 562c-44 0 -51 7 -51 37v19c0 29 7 36 51 36s51 -7 51 -36v-19c0 -30 -7 -37 -51 -37zM310 562c-44 0 -51 7 -51 37v19c0 29 7 36 51 36c43 0 50 -7 50 -36v-19c0 -30 -7 -37 -50 -37z" />
    <glyph glyph-name="Amacron" unicode="&#x100;" horiz-adv-x="523" 
d="M62 0c-39 0 -46 6 -46 23c0 7 2 15 6 29l149 522c11 39 24 44 91 44c66 0 79 -5 90 -44l149 -522c4 -14 6 -22 6 -29c0 -16 -7 -23 -46 -23c-42 0 -49 6 -55 27l-43 150h-206l-40 -150c-6 -22 -13 -27 -55 -27zM255 535l-77 -282h167l-77 282h-13zM154 731
c0 35 5 42 28 42h159c22 0 27 -7 27 -42c0 -34 -5 -41 -27 -41h-159c-23 0 -28 7 -28 41z" />
    <glyph glyph-name="amacron" unicode="&#x101;" horiz-adv-x="486" 
d="M167 -10c-88 0 -129 40 -129 143s46 145 185 145h99v65c0 68 -24 76 -88 76c-76 0 -129 -18 -148 -18c-13 0 -18 10 -18 39s6 37 22 42c33 10 97 20 154 20c117 0 174 -20 174 -137v-174c0 -104 21 -150 21 -168c0 -15 -6 -23 -45 -23c-33 0 -40 3 -46 26l-16 60
c-29 -66 -92 -96 -165 -96zM199 70c64 0 123 37 123 114v33l-101 -3c-72 -3 -90 -17 -90 -71c0 -64 21 -73 68 -73zM129 608c0 35 5 42 28 42h159c22 0 27 -7 27 -42c0 -34 -5 -41 -27 -41h-159c-23 0 -28 7 -28 41z" />
    <glyph glyph-name="Abreve" unicode="&#x102;" horiz-adv-x="523" 
d="M62 0c-39 0 -46 6 -46 23c0 7 2 15 6 29l149 522c11 39 24 44 91 44c66 0 79 -5 90 -44l149 -522c4 -14 6 -22 6 -29c0 -16 -7 -23 -46 -23c-42 0 -49 6 -55 27l-43 150h-206l-40 -150c-6 -22 -13 -27 -55 -27zM255 535l-77 -282h167l-77 282h-13zM262 672
c-92 0 -115 28 -115 102c0 26 6 30 36 30s34 -4 35 -25c2 -27 4 -35 44 -35c39 0 42 8 43 35c1 21 6 25 36 25s35 -4 35 -30c0 -74 -23 -102 -114 -102z" />
    <glyph glyph-name="abreve" unicode="&#x103;" horiz-adv-x="486" 
d="M167 -10c-88 0 -129 40 -129 143s46 145 185 145h99v65c0 68 -24 76 -88 76c-76 0 -129 -18 -148 -18c-13 0 -18 10 -18 39s6 37 22 42c33 10 97 20 154 20c117 0 174 -20 174 -137v-174c0 -104 21 -150 21 -168c0 -15 -6 -23 -45 -23c-33 0 -40 3 -46 26l-16 60
c-29 -66 -92 -96 -165 -96zM199 70c64 0 123 37 123 114v33l-101 -3c-72 -3 -90 -17 -90 -71c0 -64 21 -73 68 -73zM237 551c-92 0 -115 28 -115 102c0 26 6 30 36 30s34 -4 35 -25c2 -27 4 -35 44 -35c39 0 42 8 43 35c1 21 6 25 36 25s35 -4 35 -30
c0 -74 -23 -102 -114 -102z" />
    <glyph glyph-name="Aogonek" unicode="&#x104;" horiz-adv-x="523" 
d="M423 -194c-48 0 -73 19 -73 72c0 48 29 85 73 125c-11 4 -13 11 -17 24l-43 150h-206l-40 -150c-6 -22 -13 -27 -55 -27c-39 0 -46 6 -46 23c0 7 2 15 6 29l149 522c11 39 24 44 91 44c66 0 79 -5 90 -44l149 -522c4 -14 6 -22 6 -29v-4c-1 -11 -5 -21 -27 -47
c-31 -36 -39 -50 -39 -67s3 -21 17 -21c15 0 20 2 30 2c13 0 19 -5 19 -33s-8 -33 -27 -39c-16 -5 -31 -8 -57 -8zM255 535l-77 -282h167l-77 282h-13z" />
    <glyph glyph-name="aogonek" unicode="&#x105;" horiz-adv-x="486" 
d="M359 -194c-48 0 -73 19 -73 72c0 45 22 80 71 129c-4 4 -7 10 -9 19l-16 60c-29 -66 -92 -96 -165 -96c-88 0 -129 40 -129 143s46 145 185 145h99v65c0 68 -24 76 -88 76c-76 0 -129 -18 -148 -18c-13 0 -18 10 -18 39s6 37 22 42c33 10 97 20 154 20
c117 0 174 -20 174 -137v-174c0 -104 21 -150 21 -168c0 -10 -2 -19 -26 -48c-30 -35 -37 -52 -37 -70c0 -17 3 -21 17 -21c16 0 20 2 30 2c13 0 19 -5 19 -33s-8 -33 -27 -39c-16 -5 -30 -8 -56 -8zM199 70c64 0 123 37 123 114v33l-101 -3c-72 -3 -90 -17 -90 -71
c0 -64 21 -73 68 -73z" />
    <glyph glyph-name="Cacute" unicode="&#x106;" horiz-adv-x="452" 
d="M255 -8c-124 0 -210 18 -210 270v81c0 260 85 280 213 280c48 0 97 -8 138 -19c16 -5 24 -9 24 -46c0 -30 -6 -38 -17 -38c-13 0 -59 17 -124 17c-107 0 -137 -16 -137 -203v-52c0 -193 34 -204 137 -204c69 0 109 17 124 17c13 0 17 -7 17 -39c0 -35 -8 -40 -24 -45
c-41 -12 -92 -19 -141 -19zM234 662c-29 0 -41 6 -41 18c0 7 6 20 11 30l41 83c12 25 16 31 59 31s53 -6 53 -18c0 -10 -7 -23 -15 -36l-51 -82c-11 -17 -16 -26 -57 -26z" />
    <glyph glyph-name="cacute" unicode="&#x107;" horiz-adv-x="429" 
d="M245 -10c-133 0 -197 30 -197 251c0 237 77 261 197 261c43 0 91 -8 124 -18c19 -6 26 -13 26 -43c0 -31 -6 -39 -18 -39s-72 17 -122 17c-82 0 -109 -16 -109 -168c0 -155 12 -177 111 -177c67 0 108 19 122 19c10 0 16 -8 16 -39c0 -29 -6 -37 -25 -43
c-34 -12 -86 -21 -125 -21zM214 539c-29 0 -41 6 -41 18c0 7 6 20 11 30l41 83c12 25 16 31 59 31s53 -6 53 -18c0 -10 -7 -23 -15 -36l-51 -82c-11 -17 -16 -26 -57 -26z" />
    <glyph glyph-name="Ccircumflex" unicode="&#x108;" horiz-adv-x="452" 
d="M255 -8c-124 0 -210 18 -210 270v81c0 260 85 280 213 280c48 0 97 -8 138 -19c16 -5 24 -9 24 -46c0 -30 -6 -38 -17 -38c-13 0 -59 17 -124 17c-107 0 -137 -16 -137 -203v-52c0 -193 34 -204 137 -204c69 0 109 17 124 17c13 0 17 -7 17 -39c0 -35 -8 -40 -24 -45
c-41 -12 -92 -19 -141 -19zM247 753h-5l-45 -68c-13 -19 -22 -23 -53 -23c-26 0 -34 7 -34 18c0 7 3 14 11 29l57 94c8 15 15 21 46 21h40c31 0 38 -6 47 -21l56 -94c9 -15 11 -22 11 -29c0 -11 -7 -18 -34 -18c-30 0 -39 4 -52 23z" />
    <glyph glyph-name="ccircumflex" unicode="&#x109;" horiz-adv-x="429" 
d="M245 -10c-133 0 -197 30 -197 251c0 237 77 261 197 261c43 0 91 -8 124 -18c19 -6 26 -13 26 -43c0 -31 -6 -39 -18 -39s-72 17 -122 17c-82 0 -109 -16 -109 -168c0 -155 12 -177 111 -177c67 0 108 19 122 19c10 0 16 -8 16 -39c0 -29 -6 -37 -25 -43
c-34 -12 -86 -21 -125 -21zM241 630h-5l-45 -68c-13 -19 -22 -23 -53 -23c-26 0 -34 7 -34 18c0 7 3 14 11 29l57 94c8 15 15 21 46 21h40c31 0 38 -6 47 -21l56 -94c9 -15 11 -22 11 -29c0 -11 -7 -18 -34 -18c-30 0 -39 4 -52 23z" />
    <glyph glyph-name="Cdotaccent" unicode="&#x10a;" horiz-adv-x="452" 
d="M255 -8c-124 0 -210 18 -210 270v81c0 260 85 280 213 280c48 0 97 -8 138 -19c16 -5 24 -9 24 -46c0 -30 -6 -38 -17 -38c-13 0 -59 17 -124 17c-107 0 -137 -16 -137 -203v-52c0 -193 34 -204 137 -204c69 0 109 17 124 17c13 0 17 -7 17 -39c0 -35 -8 -40 -24 -45
c-41 -12 -92 -19 -141 -19zM243 685c-46 0 -53 7 -53 37v19c0 29 7 36 53 36c47 0 54 -7 54 -36v-19c0 -30 -7 -37 -54 -37z" />
    <glyph glyph-name="cdotaccent" unicode="&#x10b;" horiz-adv-x="429" 
d="M245 -10c-133 0 -197 30 -197 251c0 237 77 261 197 261c43 0 91 -8 124 -18c19 -6 26 -13 26 -43c0 -31 -6 -39 -18 -39s-72 17 -122 17c-82 0 -109 -16 -109 -168c0 -155 12 -177 111 -177c67 0 108 19 122 19c10 0 16 -8 16 -39c0 -29 -6 -37 -25 -43
c-34 -12 -86 -21 -125 -21zM237 562c-46 0 -53 7 -53 37v19c0 29 7 36 53 36c47 0 54 -7 54 -36v-19c0 -30 -7 -37 -54 -37z" />
    <glyph glyph-name="Ccaron" unicode="&#x10c;" horiz-adv-x="452" 
d="M255 -8c-124 0 -210 18 -210 270v81c0 260 85 280 213 280c48 0 97 -8 138 -19c16 -5 24 -9 24 -46c0 -30 -6 -38 -17 -38c-13 0 -59 17 -124 17c-107 0 -137 -16 -137 -203v-52c0 -193 34 -204 137 -204c69 0 109 17 124 17c13 0 17 -7 17 -39c0 -35 -8 -40 -24 -45
c-41 -12 -92 -19 -141 -19zM102 807c0 10 8 17 34 17c31 0 41 -3 53 -22l45 -69h5l44 69c13 18 23 22 53 22c27 0 34 -7 34 -17c0 -7 -2 -14 -11 -29l-56 -95c-8 -14 -16 -21 -47 -21h-40c-31 0 -38 7 -46 21l-57 95c-9 15 -11 22 -11 29z" />
    <glyph glyph-name="ccaron" unicode="&#x10d;" horiz-adv-x="429" 
d="M245 -10c-133 0 -197 30 -197 251c0 237 77 261 197 261c43 0 91 -8 124 -18c19 -6 26 -13 26 -43c0 -31 -6 -39 -18 -39s-72 17 -122 17c-82 0 -109 -16 -109 -168c0 -155 12 -177 111 -177c67 0 108 19 122 19c10 0 16 -8 16 -39c0 -29 -6 -37 -25 -43
c-34 -12 -86 -21 -125 -21zM104 684c0 10 8 17 34 17c31 0 41 -3 53 -22l45 -69h5l44 69c13 18 23 22 53 22c27 0 34 -7 34 -17c0 -7 -2 -14 -11 -29l-56 -95c-8 -14 -16 -21 -47 -21h-40c-31 0 -38 7 -46 21l-57 95c-9 15 -11 22 -11 29z" />
    <glyph glyph-name="Dcaron" unicode="&#x10e;" horiz-adv-x="526" 
d="M251 78c103 0 133 14 133 204v62c0 176 -34 196 -145 196c-34 0 -63 -2 -84 -4v-454c25 -2 55 -4 96 -4zM251 -8c-66 0 -103 2 -158 8c-28 3 -35 12 -35 34v545c0 25 11 33 32 36c51 7 106 8 146 8c164 0 245 -20 245 -276v-65c0 -270 -90 -290 -230 -290zM123 807
c0 10 8 17 34 17c31 0 41 -3 53 -22l45 -69h5l44 69c13 18 23 22 53 22c27 0 34 -7 34 -17c0 -7 -2 -14 -11 -29l-56 -95c-8 -14 -16 -21 -47 -21h-40c-31 0 -38 7 -46 21l-57 95c-9 15 -11 22 -11 29z" />
    <glyph glyph-name="dcaron" unicode="&#x10f;" horiz-adv-x="649" 
d="M216 -10c-136 0 -168 54 -168 252c0 220 58 260 185 260c62 0 104 -14 127 -57v179c0 26 11 30 49 30s48 -4 48 -30v-433c0 -104 22 -150 22 -168c0 -15 -6 -23 -45 -23c-34 0 -40 3 -47 26l-13 49c-23 -55 -72 -85 -158 -85zM243 72c80 0 119 22 119 140v66
c0 108 -20 142 -108 142c-86 0 -107 -24 -107 -180c0 -142 16 -168 96 -168zM574 654c43 0 50 -7 50 -36v-27c0 -28 -6 -55 -15 -84l-16 -55c-11 -28 -19 -33 -51 -33c-26 0 -31 5 -31 18c0 20 14 75 14 125v56c0 29 7 36 49 36z" />
    <glyph glyph-name="Dcroat" unicode="&#x110;" horiz-adv-x="526" 
d="M251 -8c-66 0 -103 2 -158 8c-28 3 -35 12 -35 34v236h-26c-23 0 -28 7 -28 43c0 35 5 43 28 43h26v223c0 25 11 33 32 36c51 7 106 8 146 8c164 0 245 -20 245 -276v-65c0 -270 -90 -290 -230 -290zM251 78c103 0 133 14 133 204v62c0 176 -34 196 -145 196
c-34 0 -63 -2 -84 -4v-182h71c22 0 27 -7 27 -41c0 -35 -5 -42 -27 -42h-71v-189c25 -2 55 -4 96 -4z" />
    <glyph glyph-name="dcroat" unicode="&#x111;" horiz-adv-x="519" 
d="M216 -10c-136 0 -168 54 -168 252c0 220 58 260 185 260c62 0 104 -14 127 -57v86h-32c-19 0 -24 5 -24 30c0 26 5 31 24 31h32v32c0 26 11 30 49 30s48 -4 48 -30v-32h40c20 0 24 -6 24 -32c0 -25 -4 -31 -24 -31h-40v-338c0 -104 22 -150 22 -168c0 -15 -6 -23 -45 -23
c-34 0 -40 3 -47 26l-13 49c-23 -55 -72 -85 -158 -85zM243 72c80 0 119 22 119 140v66c0 108 -20 142 -108 142c-86 0 -107 -24 -107 -180c0 -142 16 -168 96 -168z" />
    <glyph glyph-name="Emacron" unicode="&#x112;" horiz-adv-x="455" 
d="M428 43c0 -35 -7 -43 -28 -43h-309c-26 0 -33 5 -33 28v562c0 23 7 28 33 28h299c21 0 28 -8 28 -44c0 -35 -7 -43 -28 -43h-235v-163h177c23 0 28 -7 28 -43c0 -35 -5 -42 -28 -42h-177v-196h245c21 0 28 -8 28 -44zM133 731c0 35 5 42 28 42h159c22 0 27 -7 27 -42
c0 -34 -5 -41 -27 -41h-159c-23 0 -28 7 -28 41z" />
    <glyph glyph-name="emacron" unicode="&#x113;" horiz-adv-x="471" 
d="M255 -10c-143 0 -207 30 -207 251c0 237 75 261 201 261c160 0 180 -75 180 -233c0 -32 -7 -48 -40 -48h-243c2 -128 19 -147 117 -147c78 0 128 19 143 19c10 0 16 -8 16 -39c0 -29 -7 -37 -26 -43c-33 -12 -96 -21 -141 -21zM247 421c-72 0 -97 -16 -101 -136h190
c0 95 -3 136 -89 136zM135 608c0 35 5 42 28 42h159c22 0 27 -7 27 -42c0 -34 -5 -41 -27 -41h-159c-23 0 -28 7 -28 41z" />
    <glyph glyph-name="Ebreve" unicode="&#x114;" horiz-adv-x="455" 
d="M428 43c0 -35 -7 -43 -28 -43h-309c-26 0 -33 5 -33 28v562c0 23 7 28 33 28h299c21 0 28 -8 28 -44c0 -35 -7 -43 -28 -43h-235v-163h177c23 0 28 -7 28 -43c0 -35 -5 -42 -28 -42h-177v-196h245c21 0 28 -8 28 -44zM241 678c-92 0 -115 28 -115 102c0 26 6 30 36 30
s34 -4 35 -25c2 -27 4 -35 44 -35c39 0 42 8 43 35c1 21 6 25 36 25s35 -4 35 -30c0 -74 -23 -102 -114 -102z" />
    <glyph glyph-name="ebreve" unicode="&#x115;" horiz-adv-x="471" 
d="M255 -10c-143 0 -207 30 -207 251c0 237 75 261 201 261c160 0 180 -75 180 -233c0 -32 -7 -48 -40 -48h-243c2 -128 19 -147 117 -147c78 0 128 19 143 19c10 0 16 -8 16 -39c0 -29 -7 -37 -26 -43c-33 -12 -96 -21 -141 -21zM247 421c-72 0 -97 -16 -101 -136h190
c0 95 -3 136 -89 136zM242 551c-92 0 -115 28 -115 102c0 26 6 30 36 30s34 -4 35 -25c2 -27 4 -35 44 -35c39 0 42 8 43 35c1 21 6 25 36 25s35 -4 35 -30c0 -74 -23 -102 -114 -102z" />
    <glyph glyph-name="Edotaccent" unicode="&#x116;" horiz-adv-x="455" 
d="M428 43c0 -35 -7 -43 -28 -43h-309c-26 0 -33 5 -33 28v562c0 23 7 28 33 28h299c21 0 28 -8 28 -44c0 -35 -7 -43 -28 -43h-235v-163h177c23 0 28 -7 28 -43c0 -35 -5 -42 -28 -42h-177v-196h245c21 0 28 -8 28 -44zM240 687c-46 0 -53 7 -53 37v19c0 29 7 36 53 36
c47 0 54 -7 54 -36v-19c0 -30 -7 -37 -54 -37z" />
    <glyph glyph-name="edotaccent" unicode="&#x117;" horiz-adv-x="471" 
d="M255 -10c-143 0 -207 30 -207 251c0 237 75 261 201 261c160 0 180 -75 180 -233c0 -32 -7 -48 -40 -48h-243c2 -128 19 -147 117 -147c78 0 128 19 143 19c10 0 16 -8 16 -39c0 -29 -7 -37 -26 -43c-33 -12 -96 -21 -141 -21zM247 421c-72 0 -97 -16 -101 -136h190
c0 95 -3 136 -89 136zM242 562c-46 0 -53 7 -53 37v19c0 29 7 36 53 36c47 0 54 -7 54 -36v-19c0 -30 -7 -37 -54 -37z" />
    <glyph glyph-name="Eogonek" unicode="&#x118;" horiz-adv-x="455" 
d="M360 325c0 -35 -5 -42 -28 -42h-177v-196h245c21 0 28 -8 28 -43c0 -24 -2 -39 -28 -70c-30 -37 -39 -52 -39 -69s4 -21 18 -21c15 0 20 2 30 2c13 0 19 -5 19 -33s-8 -33 -27 -39c-16 -5 -31 -8 -57 -8c-48 0 -73 19 -73 72c0 46 24 79 67 122h-247c-26 0 -33 5 -33 28
v562c0 23 7 28 33 28h299c21 0 28 -8 28 -44c0 -35 -7 -43 -28 -43h-235v-163h177c23 0 28 -7 28 -43z" />
    <glyph glyph-name="eogonek" unicode="&#x119;" horiz-adv-x="471" 
d="M338 -194c-48 0 -73 19 -73 72c0 44 20 76 59 117c-24 -3 -48 -5 -69 -5c-143 0 -207 30 -207 251c0 237 75 261 201 261c160 0 180 -75 180 -233c0 -32 -7 -48 -40 -48h-243c2 -128 19 -147 117 -147c78 0 128 19 143 19c10 0 16 -8 16 -39s-7 -44 -33 -80
c-24 -33 -34 -51 -34 -69c0 -17 4 -21 17 -21c16 0 21 2 31 2c13 0 19 -5 19 -33s-8 -33 -28 -39c-15 -5 -30 -8 -56 -8zM247 421c-72 0 -97 -16 -101 -136h190c0 95 -3 136 -89 136z" />
    <glyph glyph-name="Ecaron" unicode="&#x11a;" horiz-adv-x="455" 
d="M428 43c0 -35 -7 -43 -28 -43h-309c-26 0 -33 5 -33 28v562c0 23 7 28 33 28h299c21 0 28 -8 28 -44c0 -35 -7 -43 -28 -43h-235v-163h177c23 0 28 -7 28 -43c0 -35 -5 -42 -28 -42h-177v-196h245c21 0 28 -8 28 -44zM106 807c0 10 8 17 34 17c31 0 41 -3 53 -22l45 -69
h5l44 69c13 18 23 22 53 22c27 0 34 -7 34 -17c0 -7 -2 -14 -11 -29l-56 -95c-8 -14 -16 -21 -47 -21h-40c-31 0 -38 7 -46 21l-57 95c-9 15 -11 22 -11 29z" />
    <glyph glyph-name="ecaron" unicode="&#x11b;" horiz-adv-x="471" 
d="M255 -10c-143 0 -207 30 -207 251c0 237 75 261 201 261c160 0 180 -75 180 -233c0 -32 -7 -48 -40 -48h-243c2 -128 19 -147 117 -147c78 0 128 19 143 19c10 0 16 -8 16 -39c0 -29 -7 -37 -26 -43c-33 -12 -96 -21 -141 -21zM247 421c-72 0 -97 -16 -101 -136h190
c0 95 -3 136 -89 136zM108 684c0 10 8 17 34 17c31 0 41 -3 53 -22l45 -69h5l44 69c13 18 23 22 53 22c27 0 34 -7 34 -17c0 -7 -2 -14 -11 -29l-56 -95c-8 -14 -16 -21 -47 -21h-40c-31 0 -38 7 -46 21l-57 95c-9 15 -11 22 -11 29z" />
    <glyph glyph-name="Gcircumflex" unicode="&#x11c;" horiz-adv-x="493" 
d="M250 -8c-123 0 -208 18 -208 270v81c0 260 84 280 215 280c48 0 107 -8 148 -19c16 -5 24 -9 24 -46c0 -30 -6 -38 -17 -38c-14 0 -71 17 -136 17c-106 0 -137 -16 -137 -203v-52c0 -193 36 -204 121 -204c72 0 101 17 101 115v63h-85c-19 0 -24 8 -24 44
c0 32 5 39 24 39h134c33 0 38 -8 38 -27v-137c0 -141 -57 -183 -198 -183zM244 753h-5l-45 -68c-13 -19 -22 -23 -53 -23c-26 0 -34 7 -34 18c0 7 3 14 11 29l57 94c8 15 15 21 46 21h40c31 0 38 -6 47 -21l56 -94c9 -15 11 -22 11 -29c0 -11 -7 -18 -34 -18
c-30 0 -39 4 -52 23z" />
    <glyph glyph-name="gcircumflex" unicode="&#x11d;" horiz-adv-x="515" 
d="M48 250c0 212 58 252 189 252c66 0 113 -17 137 -72l9 36c6 23 12 26 46 26c39 0 45 -8 45 -23c0 -18 -22 -64 -22 -168v-261c0 -196 -92 -234 -223 -234c-48 0 -98 5 -137 13c-17 4 -26 11 -26 44c0 30 5 40 18 40c15 0 63 -11 143 -11c105 0 129 37 129 145v13
c-25 -39 -70 -60 -145 -60c-132 0 -163 54 -163 260zM147 240c0 -142 16 -168 96 -168s119 22 119 140v66c0 108 -20 142 -108 142c-86 0 -107 -24 -107 -180zM261 630h-5l-45 -68c-13 -19 -22 -23 -53 -23c-26 0 -34 7 -34 18c0 7 3 14 11 29l57 94c8 15 15 21 46 21h40
c31 0 38 -6 47 -21l56 -94c9 -15 11 -22 11 -29c0 -11 -7 -18 -34 -18c-30 0 -39 4 -52 23z" />
    <glyph glyph-name="Gbreve" unicode="&#x11e;" horiz-adv-x="493" 
d="M250 -8c-123 0 -208 18 -208 270v81c0 260 84 280 215 280c48 0 107 -8 148 -19c16 -5 24 -9 24 -46c0 -30 -6 -38 -17 -38c-14 0 -71 17 -136 17c-106 0 -137 -16 -137 -203v-52c0 -193 36 -204 121 -204c72 0 101 17 101 115v63h-85c-19 0 -24 8 -24 44
c0 32 5 39 24 39h134c33 0 38 -8 38 -27v-137c0 -141 -57 -183 -198 -183zM241 674c-92 0 -115 28 -115 102c0 26 6 30 36 30s34 -4 35 -25c2 -27 4 -35 44 -35c39 0 42 8 43 35c1 21 6 25 36 25s35 -4 35 -30c0 -74 -23 -102 -114 -102z" />
    <glyph glyph-name="gbreve" unicode="&#x11f;" horiz-adv-x="515" 
d="M48 250c0 212 58 252 189 252c66 0 113 -17 137 -72l9 36c6 23 12 26 46 26c39 0 45 -8 45 -23c0 -18 -22 -64 -22 -168v-261c0 -196 -92 -234 -223 -234c-48 0 -98 5 -137 13c-17 4 -26 11 -26 44c0 30 5 40 18 40c15 0 63 -11 143 -11c105 0 129 37 129 145v13
c-25 -39 -70 -60 -145 -60c-132 0 -163 54 -163 260zM147 240c0 -142 16 -168 96 -168s119 22 119 140v66c0 108 -20 142 -108 142c-86 0 -107 -24 -107 -180zM258 551c-92 0 -115 28 -115 102c0 26 6 30 36 30s34 -4 35 -25c2 -27 4 -35 44 -35c39 0 42 8 43 35
c1 21 6 25 36 25s35 -4 35 -30c0 -74 -23 -102 -114 -102z" />
    <glyph glyph-name="Gdotaccent" unicode="&#x120;" horiz-adv-x="493" 
d="M250 -8c-123 0 -208 18 -208 270v81c0 260 84 280 215 280c48 0 107 -8 148 -19c16 -5 24 -9 24 -46c0 -30 -6 -38 -17 -38c-14 0 -71 17 -136 17c-106 0 -137 -16 -137 -203v-52c0 -193 36 -204 121 -204c72 0 101 17 101 115v63h-85c-19 0 -24 8 -24 44
c0 32 5 39 24 39h134c33 0 38 -8 38 -27v-137c0 -141 -57 -183 -198 -183zM241 687c-46 0 -53 7 -53 37v19c0 29 7 36 53 36c47 0 54 -7 54 -36v-19c0 -30 -7 -37 -54 -37z" />
    <glyph glyph-name="gdotaccent" unicode="&#x121;" horiz-adv-x="515" 
d="M48 250c0 212 58 252 189 252c66 0 113 -17 137 -72l9 36c6 23 12 26 46 26c39 0 45 -8 45 -23c0 -18 -22 -64 -22 -168v-261c0 -196 -92 -234 -223 -234c-48 0 -98 5 -137 13c-17 4 -26 11 -26 44c0 30 5 40 18 40c15 0 63 -11 143 -11c105 0 129 37 129 145v13
c-25 -39 -70 -60 -145 -60c-132 0 -163 54 -163 260zM147 240c0 -142 16 -168 96 -168s119 22 119 140v66c0 108 -20 142 -108 142c-86 0 -107 -24 -107 -180zM257 562c-46 0 -53 7 -53 37v19c0 29 7 36 53 36c47 0 54 -7 54 -36v-19c0 -30 -7 -37 -54 -37z" />
    <glyph glyph-name="Gcommaaccent" unicode="&#x122;" horiz-adv-x="493" 
d="M250 -8c-123 0 -208 18 -208 270v81c0 260 84 280 215 280c48 0 107 -8 148 -19c16 -5 24 -9 24 -46c0 -30 -6 -38 -17 -38c-14 0 -71 17 -136 17c-106 0 -137 -16 -137 -203v-52c0 -193 36 -204 121 -204c72 0 101 17 101 115v63h-85c-19 0 -24 8 -24 44
c0 32 5 39 24 39h134c33 0 38 -8 38 -27v-137c0 -141 -57 -183 -198 -183zM227 -233c-25 0 -30 5 -30 18c0 20 11 67 11 131c0 32 7 38 49 38c40 0 50 -7 50 -29c0 -29 -2 -53 -11 -74l-21 -61c-8 -18 -15 -23 -48 -23z" />
    <glyph glyph-name="gcommaaccent" unicode="&#x123;" horiz-adv-x="515" 
d="M48 250c0 212 58 252 189 252c66 0 113 -17 137 -72l9 36c6 23 12 26 46 26c39 0 45 -8 45 -23c0 -18 -22 -64 -22 -168v-261c0 -196 -92 -234 -223 -234c-48 0 -98 5 -137 13c-17 4 -26 11 -26 44c0 30 5 40 18 40c15 0 63 -11 143 -11c105 0 129 37 129 145v13
c-25 -39 -70 -60 -145 -60c-132 0 -163 54 -163 260zM147 240c0 -142 16 -168 96 -168s119 22 119 140v66c0 108 -20 142 -108 142c-86 0 -107 -24 -107 -180zM289 723c25 0 30 -5 30 -18c0 -20 -11 -67 -11 -131c0 -32 -7 -38 -49 -38c-40 0 -50 7 -50 29c0 29 2 53 11 74
l21 61c8 18 15 23 48 23z" />
    <glyph glyph-name="Hcircumflex" unicode="&#x124;" horiz-adv-x="524" 
d="M155 360h214v228c0 25 10 30 49 30c38 0 48 -5 48 -30v-558c0 -25 -10 -30 -48 -30c-39 0 -49 5 -49 30v246h-214v-246c0 -25 -10 -30 -48 -30c-39 0 -49 5 -49 30v558c0 25 10 30 49 30c38 0 48 -5 48 -30v-228zM265 753h-5l-45 -68c-13 -19 -22 -23 -53 -23
c-26 0 -34 7 -34 18c0 7 3 14 11 29l57 94c8 15 15 21 46 21h40c31 0 38 -6 47 -21l56 -94c9 -15 11 -22 11 -29c0 -11 -7 -18 -34 -18c-30 0 -39 4 -52 23z" />
    <glyph glyph-name="hcircumflex" unicode="&#x125;" horiz-adv-x="500" 
d="M105 0c-38 0 -49 4 -49 30v594c0 26 11 30 49 30s48 -4 48 -30v-192c26 48 74 70 152 70c109 0 136 -44 136 -134v-338c0 -26 -10 -30 -48 -30s-48 4 -48 30v315c0 54 -14 73 -74 73c-88 0 -118 -47 -118 -166v-222c0 -26 -10 -30 -48 -30zM269 761h-5l-45 -68
c-13 -19 -22 -23 -53 -23c-26 0 -34 7 -34 18c0 7 3 14 11 29l57 94c8 15 15 21 46 21h40c31 0 38 -6 47 -21l56 -94c9 -15 11 -22 11 -29c0 -11 -7 -18 -34 -18c-30 0 -39 4 -52 23z" />
    <glyph glyph-name="Hbar" unicode="&#x126;" horiz-adv-x="524" 
d="M9 484c0 32 4 38 25 38h24v66c0 25 10 30 49 30c38 0 48 -5 48 -30v-66h214v66c0 25 10 30 49 30c38 0 48 -5 48 -30v-66h22c20 0 25 -6 25 -38c0 -31 -5 -37 -25 -37h-22v-417c0 -25 -10 -30 -48 -30c-39 0 -49 5 -49 30v246h-214v-246c0 -25 -10 -30 -48 -30
c-39 0 -49 5 -49 30v417h-24c-21 0 -25 6 -25 37zM155 360h214v87h-214v-87z" />
    <glyph glyph-name="hbar" unicode="&#x127;" horiz-adv-x="500" 
d="M105 0c-38 0 -49 4 -49 30v499h-36c-19 0 -24 6 -24 31c0 26 5 32 24 32h36v32c0 26 11 30 49 30s48 -4 48 -30v-32h40c20 0 25 -6 25 -31s-5 -30 -25 -30h-40v-99c26 48 74 70 152 70c109 0 136 -44 136 -134v-338c0 -26 -10 -30 -48 -30s-48 4 -48 30v315
c0 54 -14 73 -74 73c-88 0 -118 -47 -118 -166v-222c0 -26 -10 -30 -48 -30z" />
    <glyph glyph-name="Itilde" unicode="&#x128;" horiz-adv-x="213" 
d="M107 0c-39 0 -49 5 -49 30v558c0 25 10 30 49 30c38 0 48 -5 48 -30v-558c0 -25 -10 -30 -48 -30zM-29 715c0 27 6 35 24 46c10 6 35 18 62 18c44 0 73 -20 107 -20c35 0 55 18 66 18c10 0 14 -5 14 -34c0 -27 -7 -35 -25 -46c-9 -6 -34 -18 -62 -18
c-43 0 -72 20 -107 20c-34 0 -54 -18 -65 -18s-14 5 -14 34z" />
    <glyph glyph-name="itilde" unicode="&#x129;" horiz-adv-x="214" 
d="M-30 596c0 27 6 35 24 46c10 6 35 18 62 18c44 0 73 -20 107 -20c35 0 55 18 66 18c10 0 14 -5 14 -34c0 -27 -7 -35 -25 -46c-9 -6 -34 -18 -62 -18c-43 0 -72 20 -107 20c-34 0 -54 -18 -65 -18s-14 5 -14 34zM105 0c-38 0 -49 4 -49 30v432c0 26 11 30 49 30
s48 -4 48 -30v-432c0 -26 -10 -30 -48 -30z" />
    <glyph glyph-name="Imacron" unicode="&#x12a;" horiz-adv-x="213" 
d="M107 0c-39 0 -49 5 -49 30v558c0 25 10 30 49 30c38 0 48 -5 48 -30v-558c0 -25 -10 -30 -48 -30zM0 731c0 35 5 42 28 42h159c22 0 27 -7 27 -42c0 -34 -5 -41 -27 -41h-159c-23 0 -28 7 -28 41z" />
    <glyph glyph-name="imacron" unicode="&#x12b;" horiz-adv-x="214" 
d="M-1 608c0 35 5 42 28 42h159c22 0 27 -7 27 -42c0 -34 -5 -41 -27 -41h-159c-23 0 -28 7 -28 41zM105 0c-38 0 -49 4 -49 30v432c0 26 11 30 49 30s48 -4 48 -30v-432c0 -26 -10 -30 -48 -30z" />
    <glyph glyph-name="Ibreve" unicode="&#x12c;" horiz-adv-x="213" 
d="M107 0c-39 0 -49 5 -49 30v558c0 25 10 30 49 30c38 0 48 -5 48 -30v-558c0 -25 -10 -30 -48 -30zM107 672c-92 0 -115 28 -115 102c0 26 6 30 36 30s34 -4 35 -25c2 -27 4 -35 44 -35c39 0 42 8 43 35c1 21 6 25 36 25s35 -4 35 -30c0 -74 -23 -102 -114 -102z" />
    <glyph glyph-name="ibreve" unicode="&#x12d;" horiz-adv-x="214" 
d="M107 551c-92 0 -115 28 -115 102c0 26 6 30 36 30s34 -4 35 -25c2 -27 4 -35 44 -35c39 0 42 8 43 35c1 21 6 25 36 25s35 -4 35 -30c0 -74 -23 -102 -114 -102zM105 0c-38 0 -49 4 -49 30v432c0 26 11 30 49 30s48 -4 48 -30v-432c0 -26 -10 -30 -48 -30z" />
    <glyph glyph-name="Iogonek" unicode="&#x12e;" horiz-adv-x="213" 
d="M107 618c38 0 48 -5 48 -30v-543c0 -26 -2 -40 -27 -71c-31 -37 -39 -52 -39 -69s3 -21 17 -21c16 0 20 2 30 2c13 0 19 -5 19 -33s-8 -33 -27 -39c-16 -5 -30 -8 -56 -8c-48 0 -74 19 -74 72c0 47 27 81 72 126c-9 4 -12 12 -12 26v558c0 25 10 30 49 30z" />
    <glyph glyph-name="iogonek" unicode="&#x12f;" horiz-adv-x="214" 
d="M70 -194c-48 0 -73 19 -73 72c0 42 19 75 71 126c-9 4 -12 12 -12 26v432c0 26 11 30 49 30s48 -4 48 -30v-432c0 -18 -3 -29 -31 -60c-27 -31 -35 -47 -35 -65c0 -17 3 -21 17 -21c16 0 20 2 30 2c13 0 19 -5 19 -33s-8 -33 -27 -39c-16 -5 -30 -8 -56 -8zM105 562
c-47 0 -54 7 -54 37v19c0 29 7 36 54 36s53 -7 53 -36v-19c0 -30 -6 -37 -53 -37z" />
    <glyph glyph-name="Idotaccent" unicode="&#x130;" horiz-adv-x="213" 
d="M107 0c-39 0 -49 5 -49 30v558c0 25 10 30 49 30c38 0 48 -5 48 -30v-558c0 -25 -10 -30 -48 -30zM106 687c-46 0 -53 7 -53 37v19c0 29 7 36 53 36c47 0 54 -7 54 -36v-19c0 -30 -7 -37 -54 -37z" />
    <glyph glyph-name="dotlessi" unicode="&#x131;" horiz-adv-x="214" 
d="M105 0c-38 0 -49 4 -49 30v432c0 26 11 30 49 30s48 -4 48 -30v-432c0 -26 -10 -30 -48 -30z" />
    <glyph glyph-name="IJ" unicode="&#x132;" horiz-adv-x="554" 
d="M107 0c-39 0 -49 5 -49 30v558c0 25 10 30 49 30c38 0 48 -5 48 -30v-558c0 -25 -10 -30 -48 -30zM347 -8c-45 0 -78 7 -99 13c-19 5 -27 12 -27 45c0 34 5 37 18 37c15 0 46 -9 85 -9c59 0 75 16 75 83v427c0 25 10 30 48 30s48 -5 48 -30v-430
c0 -121 -48 -166 -148 -166z" />
    <glyph glyph-name="ij" unicode="&#x133;" horiz-adv-x="429" 
d="M105 0c-38 0 -49 4 -49 30v432c0 26 11 30 49 30s48 -4 48 -30v-432c0 -26 -10 -30 -48 -30zM105 562c-47 0 -54 7 -54 37v19c0 29 7 36 54 36s53 -7 53 -36v-19c0 -30 -6 -37 -53 -37zM319 492c38 0 48 -4 48 -30v-531c0 -90 -35 -125 -109 -125c-27 0 -55 4 -74 10
c-19 5 -27 12 -27 41c0 34 6 38 19 38c10 0 31 -5 54 -5c33 0 40 6 40 61v511c0 26 11 30 49 30zM319 562c-47 0 -54 7 -54 37v19c0 29 7 36 54 36s53 -7 53 -36v-19c0 -30 -6 -37 -53 -37z" />
    <glyph glyph-name="Jcircumflex" unicode="&#x134;" horiz-adv-x="341" 
d="M134 -8c-45 0 -78 7 -99 13c-19 5 -27 12 -27 45c0 34 5 37 18 37c15 0 46 -9 85 -9c59 0 75 16 75 83v427c0 25 10 30 48 30s48 -5 48 -30v-430c0 -121 -48 -166 -148 -166zM236 753h-5l-45 -68c-13 -19 -22 -23 -53 -23c-26 0 -34 7 -34 18c0 7 3 14 11 29l57 94
c8 15 15 21 46 21h40c31 0 38 -6 47 -21l56 -94c9 -15 11 -22 11 -29c0 -11 -7 -18 -34 -18c-30 0 -39 4 -52 23z" />
    <glyph glyph-name="jcircumflex" unicode="&#x135;" horiz-adv-x="214" 
d="M105 492c38 0 48 -4 48 -30v-531c0 -90 -35 -125 -109 -125c-27 0 -55 4 -74 10c-19 5 -27 12 -27 41c0 34 6 38 19 38c10 0 31 -5 54 -5c33 0 40 6 40 61v511c0 26 11 30 49 30zM107 630h-5l-45 -68c-13 -19 -22 -23 -53 -23c-26 0 -34 7 -34 18c0 7 3 14 11 29l57 94
c8 15 15 21 46 21h40c31 0 38 -6 47 -21l56 -94c9 -15 11 -22 11 -29c0 -11 -7 -18 -34 -18c-30 0 -39 4 -52 23z" />
    <glyph glyph-name="Kcommaaccent" unicode="&#x136;" horiz-adv-x="469" 
d="M107 0c-39 0 -49 5 -49 30v558c0 25 10 30 49 30c38 0 48 -5 48 -30v-242h15l164 249c12 18 20 23 63 23c35 0 45 -6 45 -20c0 -9 -3 -18 -12 -31l-177 -253l182 -254c14 -20 19 -29 19 -38c0 -13 -7 -22 -49 -22c-35 0 -48 5 -61 23l-175 258h-14v-251
c0 -25 -10 -30 -48 -30zM210 -233c-25 0 -30 5 -30 18c0 20 11 67 11 131c0 32 7 38 49 38c40 0 50 -7 50 -29c0 -29 -2 -53 -11 -74l-21 -61c-8 -18 -15 -23 -48 -23z" />
    <glyph glyph-name="kcommaaccent" unicode="&#x137;" horiz-adv-x="440" 
d="M105 0c-38 0 -49 4 -49 30v594c0 26 11 30 49 30s48 -4 48 -30v-336h10l142 180c15 19 22 24 63 24c36 0 47 -5 47 -17c0 -9 -6 -20 -14 -30l-152 -188l165 -211c7 -9 13 -17 13 -27c0 -12 -14 -19 -50 -19c-38 0 -45 4 -60 24l-155 201h-9v-195c0 -26 -10 -30 -48 -30z
M197 -233c-25 0 -30 5 -30 18c0 20 11 67 11 131c0 32 7 38 49 38c40 0 50 -7 50 -29c0 -29 -2 -53 -11 -74l-21 -61c-8 -18 -15 -23 -48 -23z" />
    <glyph glyph-name="Lacute" unicode="&#x139;" horiz-adv-x="424" 
d="M155 87h225c21 0 28 -8 28 -44c0 -35 -7 -43 -28 -43h-289c-26 0 -33 5 -33 28v560c0 25 10 30 49 30c38 0 48 -5 48 -30v-501zM112 662c-29 0 -41 6 -41 18c0 7 6 20 11 30l41 83c12 25 16 31 59 31s53 -6 53 -18c0 -10 -7 -23 -15 -36l-51 -82c-11 -17 -16 -26 -57 -26
z" />
    <glyph glyph-name="lacute" unicode="&#x13a;" horiz-adv-x="211" 
d="M105 0c-38 0 -49 4 -49 30v594c0 26 11 30 49 30s48 -4 48 -30v-594c0 -26 -10 -30 -48 -30zM93 689c-29 0 -41 6 -41 18c0 7 6 20 11 30l41 83c12 25 16 31 59 31s53 -6 53 -18c0 -10 -7 -23 -15 -36l-51 -82c-11 -17 -16 -26 -57 -26z" />
    <glyph glyph-name="Lcommaaccent" unicode="&#x13b;" horiz-adv-x="424" 
d="M155 87h225c21 0 28 -8 28 -44c0 -35 -7 -43 -28 -43h-289c-26 0 -33 5 -33 28v560c0 25 10 30 49 30c38 0 48 -5 48 -30v-501zM203 -233c-25 0 -30 5 -30 18c0 20 11 67 11 131c0 32 7 38 49 38c40 0 50 -7 50 -29c0 -29 -2 -53 -11 -74l-21 -61c-8 -18 -15 -23 -48 -23
z" />
    <glyph glyph-name="lcommaaccent" unicode="&#x13c;" horiz-adv-x="211" 
d="M105 0c-38 0 -49 4 -49 30v594c0 26 11 30 49 30s48 -4 48 -30v-594c0 -26 -10 -30 -48 -30zM76 -233c-25 0 -30 5 -30 18c0 20 11 67 11 131c0 32 7 38 49 38c40 0 50 -7 50 -29c0 -29 -2 -53 -11 -74l-21 -61c-8 -18 -15 -23 -48 -23z" />
    <glyph glyph-name="Lcaron" unicode="&#x13d;" horiz-adv-x="424" 
d="M155 87h225c21 0 28 -8 28 -44c0 -35 -7 -43 -28 -43h-289c-26 0 -33 5 -33 28v560c0 25 10 30 49 30c38 0 48 -5 48 -30v-501zM288 618c43 0 50 -7 50 -36v-27c0 -28 -6 -55 -15 -84l-16 -55c-11 -28 -19 -33 -51 -33c-26 0 -31 5 -31 18c0 20 14 75 14 125v56
c0 29 7 36 49 36z" />
    <glyph glyph-name="lcaron" unicode="&#x13e;" horiz-adv-x="347" 
d="M276 654c43 0 50 -7 50 -36v-27c0 -28 -6 -55 -15 -84l-16 -55c-11 -28 -19 -33 -52 -33c-25 0 -30 5 -30 18c0 20 14 75 14 125v56c0 29 7 36 49 36zM105 0c-38 0 -49 4 -49 30v594c0 26 11 30 49 30s48 -4 48 -30v-594c0 -26 -10 -30 -48 -30z" />
    <glyph glyph-name="Ldot" unicode="&#x13f;" horiz-adv-x="424" 
d="M155 87h225c21 0 28 -8 28 -44c0 -35 -7 -43 -28 -43h-289c-26 0 -33 5 -33 28v560c0 25 10 30 49 30c38 0 48 -5 48 -30v-501zM271 279c-46 0 -53 7 -53 37v19c0 29 7 36 53 36c47 0 54 -7 54 -36v-19c0 -30 -7 -37 -54 -37z" />
    <glyph glyph-name="ldot" unicode="&#x140;" horiz-adv-x="326" 
d="M105 0c-38 0 -49 4 -49 30v594c0 26 11 30 49 30s48 -4 48 -30v-594c0 -26 -10 -30 -48 -30zM256 213c-46 0 -53 7 -53 37v19c0 29 7 36 53 36c47 0 54 -7 54 -36v-19c0 -30 -7 -37 -54 -37z" />
    <glyph glyph-name="Lslash" unicode="&#x141;" horiz-adv-x="424" 
d="M155 87h225c21 0 28 -8 28 -44c0 -35 -7 -43 -28 -43h-289c-26 0 -33 5 -33 28v196l-26 -16c-12 -7 -17 -9 -22 -9c-9 0 -15 5 -15 36c0 32 7 44 24 55l39 24v274c0 25 10 30 49 30c38 0 48 -5 48 -30v-214l104 65c12 7 17 9 22 9c9 0 15 -5 15 -36c0 -32 -7 -44 -24 -55
l-117 -73v-197z" />
    <glyph glyph-name="lslash" unicode="&#x142;" horiz-adv-x="238" 
d="M119 0c-38 0 -49 4 -49 30v214l-33 -21c-11 -7 -16 -8 -21 -8c-8 0 -14 4 -14 34c0 32 6 44 23 55l45 29v291c0 26 11 30 49 30s48 -4 48 -30v-229l34 22c11 7 17 8 22 8c8 0 14 -5 14 -34c0 -32 -6 -44 -23 -55l-47 -30v-276c0 -26 -10 -30 -48 -30z" />
    <glyph glyph-name="Nacute" unicode="&#x143;" horiz-adv-x="547" 
d="M107 0c-39 0 -49 5 -49 30v558c0 25 12 30 64 30c40 0 56 -3 68 -29l193 -428h9v427c0 25 10 30 48 30c39 0 49 -5 49 -30v-558c0 -25 -10 -30 -63 -30c-40 0 -51 1 -64 29l-198 428h-9v-427c0 -25 -10 -30 -48 -30zM253 662c-29 0 -41 6 -41 18c0 7 6 20 11 30l41 83
c12 25 16 31 59 31s53 -6 53 -18c0 -10 -7 -23 -15 -36l-51 -82c-11 -17 -16 -26 -57 -26z" />
    <glyph glyph-name="nacute" unicode="&#x144;" horiz-adv-x="512" 
d="M117 0c-38 0 -49 4 -49 30v271c0 104 -22 150 -22 168c0 15 7 23 45 23c34 0 41 -3 47 -26l14 -57c26 62 79 93 165 93c109 0 136 -44 136 -134v-338c0 -26 -10 -30 -48 -30s-48 4 -48 30v315c0 54 -14 73 -74 73c-88 0 -118 -47 -118 -166v-222c0 -26 -11 -30 -48 -30z
M239 539c-29 0 -41 6 -41 18c0 7 6 20 11 30l41 83c12 25 16 31 59 31s53 -6 53 -18c0 -10 -7 -23 -15 -36l-51 -82c-11 -17 -16 -26 -57 -26z" />
    <glyph glyph-name="Ncommaaccent" unicode="&#x145;" horiz-adv-x="547" 
d="M107 0c-39 0 -49 5 -49 30v558c0 25 12 30 64 30c40 0 56 -3 68 -29l193 -428h9v427c0 25 10 30 48 30c39 0 49 -5 49 -30v-558c0 -25 -10 -30 -63 -30c-40 0 -51 1 -64 29l-198 428h-9v-427c0 -25 -10 -30 -48 -30zM249 -233c-25 0 -30 5 -30 18c0 20 11 67 11 131
c0 32 7 38 49 38c40 0 50 -7 50 -29c0 -29 -2 -53 -11 -74l-21 -61c-8 -18 -15 -23 -48 -23z" />
    <glyph glyph-name="ncommaaccent" unicode="&#x146;" horiz-adv-x="512" 
d="M117 0c-38 0 -49 4 -49 30v271c0 104 -22 150 -22 168c0 15 7 23 45 23c34 0 41 -3 47 -26l14 -57c26 62 79 93 165 93c109 0 136 -44 136 -134v-338c0 -26 -10 -30 -48 -30s-48 4 -48 30v315c0 54 -14 73 -74 73c-88 0 -118 -47 -118 -166v-222c0 -26 -11 -30 -48 -30z
M234 -233c-25 0 -30 5 -30 18c0 20 11 67 11 131c0 32 7 38 49 38c40 0 50 -7 50 -29c0 -29 -2 -53 -11 -74l-21 -61c-8 -18 -15 -23 -48 -23z" />
    <glyph glyph-name="Ncaron" unicode="&#x147;" horiz-adv-x="547" 
d="M107 0c-39 0 -49 5 -49 30v558c0 25 12 30 64 30c40 0 56 -3 68 -29l193 -428h9v427c0 25 10 30 48 30c39 0 49 -5 49 -30v-558c0 -25 -10 -30 -63 -30c-40 0 -51 1 -64 29l-198 428h-9v-427c0 -25 -10 -30 -48 -30zM142 807c0 10 8 17 34 17c31 0 41 -3 53 -22l45 -69h5
l44 69c13 18 23 22 53 22c27 0 34 -7 34 -17c0 -7 -2 -14 -11 -29l-56 -95c-8 -14 -16 -21 -47 -21h-40c-31 0 -38 7 -46 21l-57 95c-9 15 -11 22 -11 29z" />
    <glyph glyph-name="ncaron" unicode="&#x148;" horiz-adv-x="512" 
d="M117 0c-38 0 -49 4 -49 30v271c0 104 -22 150 -22 168c0 15 7 23 45 23c34 0 41 -3 47 -26l14 -57c26 62 79 93 165 93c109 0 136 -44 136 -134v-338c0 -26 -10 -30 -48 -30s-48 4 -48 30v315c0 54 -14 73 -74 73c-88 0 -118 -47 -118 -166v-222c0 -26 -11 -30 -48 -30z
M127 684c0 10 8 17 34 17c31 0 41 -3 53 -22l45 -69h5l44 69c13 18 23 22 53 22c27 0 34 -7 34 -17c0 -7 -2 -14 -11 -29l-56 -95c-8 -14 -16 -21 -47 -21h-40c-31 0 -38 7 -46 21l-57 95c-9 15 -11 22 -11 29z" />
    <glyph glyph-name="Eng" unicode="&#x14a;" horiz-adv-x="547" 
d="M380 -194c-28 0 -55 4 -74 10c-19 5 -28 12 -28 41c0 34 7 38 19 38c10 0 32 -5 55 -5c32 0 40 6 40 61v51c-14 3 -22 10 -30 27l-198 428h-9v-427c0 -25 -10 -30 -48 -30c-39 0 -49 5 -49 30v558c0 25 12 30 64 30c40 0 56 -3 68 -29l193 -428h9v427c0 25 10 30 48 30
c39 0 49 -5 49 -30v-657c0 -90 -35 -125 -109 -125z" />
    <glyph glyph-name="eng" unicode="&#x14b;" horiz-adv-x="512" 
d="M117 0c-38 0 -49 4 -49 30v271c0 104 -22 150 -22 168c0 15 7 23 45 23c34 0 41 -3 47 -26l14 -57c26 62 79 93 165 93c109 0 136 -44 136 -134v-437c0 -90 -34 -125 -109 -125c-27 0 -55 5 -73 10c-20 6 -28 12 -28 41c0 34 6 38 19 38c10 0 31 -5 54 -5
c33 0 41 6 41 61v394c0 54 -14 73 -74 73c-88 0 -118 -47 -118 -166v-222c0 -26 -11 -30 -48 -30z" />
    <glyph glyph-name="Omacron" unicode="&#x14c;" horiz-adv-x="526" 
d="M263 76c99 0 121 21 121 206v51c0 185 -16 206 -121 206c-99 0 -121 -21 -121 -206v-51c0 -185 16 -206 121 -206zM263 -8c-160 0 -218 30 -218 282v63c0 262 66 286 218 286c164 0 218 -30 218 -286v-63c0 -258 -70 -282 -218 -282zM156 731c0 35 5 42 28 42h159
c22 0 27 -7 27 -42c0 -34 -5 -41 -27 -41h-159c-23 0 -28 7 -28 41z" />
    <glyph glyph-name="omacron" unicode="&#x14d;" horiz-adv-x="500" 
d="M242 -10c-148 0 -194 42 -194 252s58 260 210 260c148 0 193 -40 193 -250s-57 -262 -209 -262zM244 72c91 0 109 31 109 171c0 153 -14 177 -99 177c-90 0 -107 -29 -107 -169c0 -153 12 -179 97 -179zM143 608c0 35 5 42 28 42h159c22 0 27 -7 27 -42
c0 -34 -5 -41 -27 -41h-159c-23 0 -28 7 -28 41z" />
    <glyph glyph-name="Obreve" unicode="&#x14e;" horiz-adv-x="526" 
d="M263 76c99 0 121 21 121 206v51c0 185 -16 206 -121 206c-99 0 -121 -21 -121 -206v-51c0 -185 16 -206 121 -206zM263 -8c-160 0 -218 30 -218 282v63c0 262 66 286 218 286c164 0 218 -30 218 -286v-63c0 -258 -70 -282 -218 -282zM263 674c-92 0 -115 28 -115 102
c0 26 6 30 36 30s34 -4 35 -25c2 -27 4 -35 44 -35c39 0 42 8 43 35c1 21 6 25 36 25s35 -4 35 -30c0 -74 -23 -102 -114 -102z" />
    <glyph glyph-name="obreve" unicode="&#x14f;" horiz-adv-x="500" 
d="M242 -10c-148 0 -194 42 -194 252s58 260 210 260c148 0 193 -40 193 -250s-57 -262 -209 -262zM244 72c91 0 109 31 109 171c0 153 -14 177 -99 177c-90 0 -107 -29 -107 -169c0 -153 12 -179 97 -179zM250 551c-92 0 -115 28 -115 102c0 26 6 30 36 30s34 -4 35 -25
c2 -27 4 -35 44 -35c39 0 42 8 43 35c1 21 6 25 36 25s35 -4 35 -30c0 -74 -23 -102 -114 -102z" />
    <glyph glyph-name="Ohungarumlaut" unicode="&#x150;" horiz-adv-x="526" 
d="M263 76c99 0 121 21 121 206v51c0 185 -16 206 -121 206c-99 0 -121 -21 -121 -206v-51c0 -185 16 -206 121 -206zM263 -8c-160 0 -218 30 -218 282v63c0 262 66 286 218 286c164 0 218 -30 218 -286v-63c0 -258 -70 -282 -218 -282zM146 680c0 7 1 16 42 124
c4 15 10 20 54 20c18 0 31 -1 37 -3c9 -3 12 -8 12 -15c0 -8 -3 -19 -57 -122c-7 -15 -13 -22 -51 -22c-32 0 -37 6 -37 18zM282 680c0 7 2 15 58 125c6 13 12 19 54 19c16 0 29 -1 37 -3c9 -3 12 -9 12 -15c0 -9 -1 -17 -73 -122c-9 -16 -14 -22 -53 -22
c-29 0 -35 7 -35 18z" />
    <glyph glyph-name="ohungarumlaut" unicode="&#x151;" horiz-adv-x="500" 
d="M242 -10c-148 0 -194 42 -194 252s58 260 210 260c148 0 193 -40 193 -250s-57 -262 -209 -262zM244 72c91 0 109 31 109 171c0 153 -14 177 -99 177c-90 0 -107 -29 -107 -169c0 -153 12 -179 97 -179zM131 557c0 7 1 16 42 124c4 15 10 20 54 20c18 0 31 -1 37 -3
c9 -3 12 -8 12 -15c0 -8 -3 -19 -57 -122c-7 -15 -13 -22 -51 -22c-32 0 -37 6 -37 18zM267 557c0 7 2 15 58 125c6 13 12 19 54 19c16 0 29 -1 37 -3c9 -3 12 -9 12 -15c0 -9 -1 -17 -73 -122c-9 -16 -14 -22 -53 -22c-29 0 -35 7 -35 18z" />
    <glyph glyph-name="OE" unicode="&#x152;" horiz-adv-x="781" 
d="M263 -8c-148 0 -218 24 -218 282v63c0 256 54 286 218 286c61 0 105 -5 137 -25c3 16 14 20 36 20h280c21 0 28 -8 28 -44c0 -35 -7 -43 -28 -43h-235v-163h177c23 0 28 -7 28 -43c0 -35 -5 -42 -28 -42h-177v-196h245c21 0 28 -8 28 -44c0 -35 -7 -43 -28 -43h-290
c-22 0 -33 3 -36 19c-33 -22 -79 -27 -137 -27zM263 76c100 0 121 20 121 194v65c0 181 -15 204 -121 204c-105 0 -121 -21 -121 -206v-51c0 -185 22 -206 121 -206z" />
    <glyph glyph-name="oe" unicode="&#x153;" horiz-adv-x="776" 
d="M242 -10c-148 0 -194 42 -194 252s58 260 210 260c72 0 119 -10 148 -47c34 41 85 47 148 47c160 0 180 -75 180 -233c0 -32 -7 -48 -40 -48h-243c2 -128 19 -147 117 -147c78 0 128 19 142 19c10 0 16 -8 16 -39c0 -29 -6 -37 -25 -43c-33 -12 -96 -21 -141 -21
c-77 0 -129 9 -161 52c-32 -39 -83 -52 -157 -52zM244 72c91 0 109 31 109 171c0 153 -14 177 -99 177c-90 0 -107 -29 -107 -169c0 -153 12 -179 97 -179zM552 421c-72 0 -97 -16 -101 -136h190c0 95 -3 136 -89 136z" />
    <glyph glyph-name="Racute" unicode="&#x154;" horiz-adv-x="502" 
d="M107 0c-39 0 -49 5 -49 30v548c0 25 12 33 32 36c51 6 112 9 162 9c142 0 201 -23 201 -175c0 -100 -31 -153 -99 -177l104 -222c8 -17 9 -23 9 -29c0 -11 -6 -20 -41 -20c-47 0 -54 4 -63 26l-94 230c-11 -1 -22 -1 -34 -1h-80v-225c0 -25 -10 -30 -48 -30zM155 536
v-208h83c90 0 115 22 115 116c0 79 -21 96 -110 96c-31 0 -66 -2 -88 -4zM216 662c-29 0 -41 6 -41 18c0 7 6 20 11 30l41 83c12 25 16 31 59 31s53 -6 53 -18c0 -10 -7 -23 -15 -36l-51 -82c-11 -17 -16 -26 -57 -26z" />
    <glyph glyph-name="racute" unicode="&#x155;" horiz-adv-x="348" 
d="M117 0c-38 0 -49 4 -49 30v271c0 104 -22 150 -22 168c0 15 7 23 45 23c34 0 41 -3 47 -26l13 -51c25 58 69 85 123 85c18 0 38 -4 45 -6c14 -5 19 -13 19 -45c0 -34 -10 -40 -19 -40c-8 0 -27 5 -53 5c-73 0 -101 -69 -101 -185v-199c0 -26 -11 -30 -48 -30zM140 539
c-29 0 -41 6 -41 18c0 7 6 20 11 30l41 83c12 25 16 31 59 31s53 -6 53 -18c0 -10 -7 -23 -15 -36l-51 -82c-11 -17 -16 -26 -57 -26z" />
    <glyph glyph-name="Rcommaaccent" unicode="&#x156;" horiz-adv-x="502" 
d="M107 0c-39 0 -49 5 -49 30v548c0 25 12 33 32 36c51 6 112 9 162 9c142 0 201 -23 201 -175c0 -100 -31 -153 -99 -177l104 -222c8 -17 9 -23 9 -29c0 -11 -6 -20 -41 -20c-47 0 -54 4 -63 26l-94 230c-11 -1 -22 -1 -34 -1h-80v-225c0 -25 -10 -30 -48 -30zM155 536
v-208h83c90 0 115 22 115 116c0 79 -21 96 -110 96c-31 0 -66 -2 -88 -4zM228 -233c-25 0 -30 5 -30 18c0 20 11 67 11 131c0 32 7 38 49 38c40 0 50 -7 50 -29c0 -29 -2 -53 -11 -74l-21 -61c-8 -18 -15 -23 -48 -23z" />
    <glyph glyph-name="rcommaaccent" unicode="&#x157;" horiz-adv-x="348" 
d="M117 0c-38 0 -49 4 -49 30v271c0 104 -22 150 -22 168c0 15 7 23 45 23c34 0 41 -3 47 -26l13 -51c25 58 69 85 123 85c18 0 38 -4 45 -6c14 -5 19 -13 19 -45c0 -34 -10 -40 -19 -40c-8 0 -27 5 -53 5c-73 0 -101 -69 -101 -185v-199c0 -26 -11 -30 -48 -30zM89 -239
c-25 0 -30 5 -30 18c0 20 11 67 11 131c0 32 7 38 49 38c40 0 50 -7 50 -29c0 -29 -2 -53 -11 -74l-21 -61c-8 -18 -15 -23 -48 -23z" />
    <glyph glyph-name="Rcaron" unicode="&#x158;" horiz-adv-x="502" 
d="M107 0c-39 0 -49 5 -49 30v548c0 25 12 33 32 36c51 6 112 9 162 9c142 0 201 -23 201 -175c0 -100 -31 -153 -99 -177l104 -222c8 -17 9 -23 9 -29c0 -11 -6 -20 -41 -20c-47 0 -54 4 -63 26l-94 230c-11 -1 -22 -1 -34 -1h-80v-225c0 -25 -10 -30 -48 -30zM155 536
v-208h83c90 0 115 22 115 116c0 79 -21 96 -110 96c-31 0 -66 -2 -88 -4zM118 807c0 10 8 17 34 17c31 0 41 -3 53 -22l45 -69h5l44 69c13 18 23 22 53 22c27 0 34 -7 34 -17c0 -7 -2 -14 -11 -29l-56 -95c-8 -14 -16 -21 -47 -21h-40c-31 0 -38 7 -46 21l-57 95
c-9 15 -11 22 -11 29z" />
    <glyph glyph-name="rcaron" unicode="&#x159;" horiz-adv-x="348" 
d="M117 0c-38 0 -49 4 -49 30v271c0 104 -22 150 -22 168c0 15 7 23 45 23c34 0 41 -3 47 -26l13 -51c25 58 69 85 123 85c18 0 38 -4 45 -6c14 -5 19 -13 19 -45c0 -34 -10 -40 -19 -40c-8 0 -27 5 -53 5c-73 0 -101 -69 -101 -185v-199c0 -26 -11 -30 -48 -30zM43 684
c0 10 8 17 34 17c31 0 41 -3 53 -22l45 -69h5l44 69c13 18 23 22 53 22c27 0 34 -7 34 -17c0 -7 -2 -14 -11 -29l-56 -95c-8 -14 -16 -21 -47 -21h-40c-31 0 -38 7 -46 21l-57 95c-9 15 -11 22 -11 29z" />
    <glyph glyph-name="Sacute" unicode="&#x15a;" horiz-adv-x="458" 
d="M213 -8c-51 0 -108 7 -146 18c-18 6 -27 14 -27 47c0 34 6 39 19 39c18 0 63 -17 138 -17c87 0 126 23 126 89c0 48 -9 67 -49 85l-124 56c-67 30 -97 61 -97 151c0 140 83 163 172 163c51 0 113 -8 154 -20c15 -4 23 -11 23 -45c0 -33 -6 -39 -18 -39
c-14 0 -65 17 -136 17c-72 0 -100 -7 -100 -76c0 -44 15 -57 52 -73l123 -55c71 -31 95 -70 95 -158c0 -140 -88 -182 -205 -182zM211 662c-29 0 -41 6 -41 18c0 7 6 20 11 30l41 83c12 25 16 31 59 31s53 -6 53 -18c0 -10 -7 -23 -15 -36l-51 -82c-11 -17 -16 -26 -57 -26z
" />
    <glyph glyph-name="sacute" unicode="&#x15b;" horiz-adv-x="433" 
d="M200 -10c-45 0 -97 7 -132 18c-19 6 -26 14 -26 43c0 31 6 40 16 40c15 0 67 -17 133 -17c76 0 101 22 101 69c0 28 -11 40 -35 50l-128 54c-41 18 -72 52 -72 121c0 108 80 134 161 134c45 0 98 -7 136 -17c19 -5 25 -12 25 -46c0 -35 -9 -37 -18 -37
c-14 0 -69 18 -128 18c-60 0 -78 -17 -78 -53c0 -27 7 -41 35 -53l125 -50c57 -23 75 -58 75 -116c0 -117 -79 -158 -190 -158zM195 539c-29 0 -41 6 -41 18c0 7 6 20 11 30l41 83c12 25 16 31 59 31s53 -6 53 -18c0 -10 -7 -23 -15 -36l-51 -82c-11 -17 -16 -26 -57 -26z
" />
    <glyph glyph-name="Scircumflex" unicode="&#x15c;" horiz-adv-x="458" 
d="M213 -8c-51 0 -108 7 -146 18c-18 6 -27 14 -27 47c0 34 6 39 19 39c18 0 63 -17 138 -17c87 0 126 23 126 89c0 48 -9 67 -49 85l-124 56c-67 30 -97 61 -97 151c0 140 83 163 172 163c51 0 113 -8 154 -20c15 -4 23 -11 23 -45c0 -33 -6 -39 -18 -39
c-14 0 -65 17 -136 17c-72 0 -100 -7 -100 -76c0 -44 15 -57 52 -73l123 -55c71 -31 95 -70 95 -158c0 -140 -88 -182 -205 -182zM239 753h-5l-45 -68c-13 -19 -22 -23 -53 -23c-26 0 -34 7 -34 18c0 7 3 14 11 29l57 94c8 15 15 21 46 21h40c31 0 38 -6 47 -21l56 -94
c9 -15 11 -22 11 -29c0 -11 -7 -18 -34 -18c-30 0 -39 4 -52 23z" />
    <glyph glyph-name="scircumflex" unicode="&#x15d;" horiz-adv-x="433" 
d="M200 -10c-45 0 -97 7 -132 18c-19 6 -26 14 -26 43c0 31 6 40 16 40c15 0 67 -17 133 -17c76 0 101 22 101 69c0 28 -11 40 -35 50l-128 54c-41 18 -72 52 -72 121c0 108 80 134 161 134c45 0 98 -7 136 -17c19 -5 25 -12 25 -46c0 -35 -9 -37 -18 -37
c-14 0 -69 18 -128 18c-60 0 -78 -17 -78 -53c0 -27 7 -41 35 -53l125 -50c57 -23 75 -58 75 -116c0 -117 -79 -158 -190 -158zM221 630h-5l-45 -68c-13 -19 -22 -23 -53 -23c-26 0 -34 7 -34 18c0 7 3 14 11 29l57 94c8 15 15 21 46 21h40c31 0 38 -6 47 -21l56 -94
c9 -15 11 -22 11 -29c0 -11 -7 -18 -34 -18c-30 0 -39 4 -52 23z" />
    <glyph glyph-name="Scedilla" unicode="&#x15e;" horiz-adv-x="458" 
d="M231 -213c-23 0 -39 1 -56 5c-19 4 -27 9 -27 37c0 29 6 35 20 35c10 0 24 -4 48 -4c16 0 26 2 26 16c0 13 -9 15 -28 27c-23 13 -32 25 -32 57v33c-42 2 -85 8 -115 17c-18 6 -27 14 -27 47c0 34 6 39 19 39c18 0 63 -17 138 -17c87 0 126 23 126 89c0 48 -9 67 -49 85
l-124 56c-67 30 -97 61 -97 151c0 140 83 163 172 163c51 0 113 -8 154 -20c15 -4 23 -11 23 -45c0 -33 -6 -39 -18 -39c-14 0 -65 17 -136 17c-72 0 -100 -7 -100 -76c0 -44 15 -57 52 -73l123 -55c71 -31 95 -70 95 -158c0 -124 -69 -172 -166 -180v-19
c0 -11 1 -16 14 -24c48 -27 61 -40 61 -86c0 -55 -35 -78 -96 -78z" />
    <glyph glyph-name="scedilla" unicode="&#x15f;" horiz-adv-x="433" 
d="M219 -213c-23 0 -39 1 -56 5c-19 4 -27 9 -27 37c0 29 6 35 20 35c10 0 24 -4 48 -4c16 0 26 2 26 16c0 13 -9 15 -28 27c-23 13 -32 25 -32 57v31c-37 3 -75 9 -102 17c-19 6 -26 14 -26 43c0 31 6 40 16 40c15 0 67 -17 133 -17c76 0 101 22 101 69c0 28 -11 40 -35 50
l-128 54c-41 18 -72 52 -72 121c0 108 80 134 161 134c45 0 98 -7 136 -17c19 -5 25 -12 25 -46c0 -35 -9 -37 -18 -37c-14 0 -69 18 -128 18c-60 0 -78 -17 -78 -53c0 -27 7 -41 35 -53l125 -50c57 -23 75 -58 75 -116c0 -103 -61 -147 -150 -156v-17c0 -11 1 -16 14 -24
c48 -27 61 -40 61 -86c0 -55 -35 -78 -96 -78z" />
    <glyph glyph-name="Scaron" unicode="&#x160;" horiz-adv-x="458" 
d="M213 -8c-51 0 -108 7 -146 18c-18 6 -27 14 -27 47c0 34 6 39 19 39c18 0 63 -17 138 -17c87 0 126 23 126 89c0 48 -9 67 -49 85l-124 56c-67 30 -97 61 -97 151c0 140 83 163 172 163c51 0 113 -8 154 -20c15 -4 23 -11 23 -45c0 -33 -6 -39 -18 -39
c-14 0 -65 17 -136 17c-72 0 -100 -7 -100 -76c0 -44 15 -57 52 -73l123 -55c71 -31 95 -70 95 -158c0 -140 -88 -182 -205 -182zM105 807c0 10 8 17 34 17c31 0 41 -3 53 -22l45 -69h5l44 69c13 18 23 22 53 22c27 0 34 -7 34 -17c0 -7 -2 -14 -11 -29l-56 -95
c-8 -14 -16 -21 -47 -21h-40c-31 0 -38 7 -46 21l-57 95c-9 15 -11 22 -11 29z" />
    <glyph glyph-name="scaron" unicode="&#x161;" horiz-adv-x="433" 
d="M200 -10c-45 0 -97 7 -132 18c-19 6 -26 14 -26 43c0 31 6 40 16 40c15 0 67 -17 133 -17c76 0 101 22 101 69c0 28 -11 40 -35 50l-128 54c-41 18 -72 52 -72 121c0 108 80 134 161 134c45 0 98 -7 136 -17c19 -5 25 -12 25 -46c0 -35 -9 -37 -18 -37
c-14 0 -69 18 -128 18c-60 0 -78 -17 -78 -53c0 -27 7 -41 35 -53l125 -50c57 -23 75 -58 75 -116c0 -117 -79 -158 -190 -158zM83 684c0 10 8 17 34 17c31 0 41 -3 53 -22l45 -69h5l44 69c13 18 23 22 53 22c27 0 34 -7 34 -17c0 -7 -2 -14 -11 -29l-56 -95
c-8 -14 -16 -21 -47 -21h-40c-31 0 -38 7 -46 21l-57 95c-9 15 -11 22 -11 29z" />
    <glyph glyph-name="Tcommaaccent" unicode="&#x162;" horiz-adv-x="434" 
d="M217 0c-39 0 -49 5 -49 30v501h-130c-21 0 -28 8 -28 43c0 36 7 44 28 44h358c21 0 28 -8 28 -44c0 -35 -7 -43 -28 -43h-131v-501c0 -25 -10 -30 -48 -30zM189 -233c-25 0 -30 5 -30 18c0 20 11 67 11 131c0 32 7 38 49 38c40 0 50 -7 50 -29c0 -29 -2 -53 -11 -74
l-21 -61c-8 -18 -15 -23 -48 -23z" />
    <glyph glyph-name="tcommaaccent" unicode="&#x163;" horiz-adv-x="323" 
d="M201 -10c-77 0 -107 35 -107 125v297h-48c-19 0 -24 8 -24 39s5 39 24 39h48v74c0 26 11 30 49 30s48 -4 48 -30v-74h85c18 0 23 -8 23 -39s-5 -39 -23 -39h-85v-278c0 -52 6 -58 40 -58c25 0 43 5 53 5c12 0 19 -5 19 -37c0 -29 -9 -35 -26 -41c-19 -8 -48 -13 -76 -13z
M160 -233c-25 0 -30 5 -30 18c0 20 11 67 11 131c0 32 7 38 49 38c40 0 50 -7 50 -29c0 -29 -2 -53 -11 -74l-21 -61c-8 -18 -15 -23 -48 -23z" />
    <glyph glyph-name="Tcaron" unicode="&#x164;" horiz-adv-x="434" 
d="M217 0c-39 0 -49 5 -49 30v501h-130c-21 0 -28 8 -28 43c0 36 7 44 28 44h358c21 0 28 -8 28 -44c0 -35 -7 -43 -28 -43h-131v-501c0 -25 -10 -30 -48 -30zM82 807c0 10 8 17 34 17c31 0 41 -3 53 -22l45 -69h5l44 69c13 18 23 22 53 22c27 0 34 -7 34 -17
c0 -7 -2 -14 -11 -29l-56 -95c-8 -14 -16 -21 -47 -21h-40c-31 0 -38 7 -46 21l-57 95c-9 15 -11 22 -11 29z" />
    <glyph glyph-name="tcaron" unicode="&#x165;" horiz-adv-x="466" 
d="M393 654c42 0 49 -7 49 -36v-27c0 -28 -5 -55 -14 -84l-16 -55c-11 -28 -19 -33 -52 -33c-25 0 -30 5 -30 18c0 20 13 75 13 125v56c0 29 7 36 50 36zM201 -10c-77 0 -107 35 -107 125v297h-48c-19 0 -24 8 -24 39s5 39 24 39h48v74c0 26 11 30 49 30s48 -4 48 -30v-74
h85c18 0 23 -8 23 -39s-5 -39 -23 -39h-85v-278c0 -52 6 -58 40 -58c25 0 43 5 53 5c12 0 19 -5 19 -37c0 -29 -9 -35 -26 -41c-19 -8 -48 -13 -76 -13z" />
    <glyph glyph-name="Tbar" unicode="&#x166;" horiz-adv-x="434" 
d="M217 0c-39 0 -49 5 -49 30v246h-109c-23 0 -28 7 -28 38c0 30 5 37 28 37h109v180h-130c-21 0 -28 8 -28 43c0 36 7 44 28 44h358c21 0 28 -8 28 -44c0 -35 -7 -43 -28 -43h-131v-180h109c23 0 28 -7 28 -37c0 -31 -5 -38 -28 -38h-109v-246c0 -25 -10 -30 -48 -30z" />
    <glyph glyph-name="tbar" unicode="&#x167;" horiz-adv-x="323" 
d="M201 -10c-77 0 -107 35 -107 125v96h-47c-17 0 -22 7 -22 39c0 31 5 38 22 38h47v124h-48c-19 0 -24 8 -24 39s5 39 24 39h48v74c0 26 11 30 49 30s48 -4 48 -30v-74h85c18 0 23 -8 23 -39s-5 -39 -23 -39h-85v-124h83c18 0 23 -7 23 -38c0 -32 -5 -39 -23 -39h-83v-77
c0 -52 6 -58 40 -58c25 0 43 5 53 5c12 0 19 -5 19 -37c0 -29 -9 -35 -26 -41c-19 -8 -48 -13 -76 -13z" />
    <glyph glyph-name="Utilde" unicode="&#x168;" horiz-adv-x="524" 
d="M262 -8c-146 0 -204 50 -204 188v408c0 25 10 30 49 30c38 0 48 -5 48 -30v-412c0 -73 20 -99 107 -99c86 0 107 26 107 99v412c0 25 10 30 48 30s48 -5 48 -30v-408c0 -138 -58 -188 -203 -188zM126 715c0 27 6 35 24 46c10 6 35 18 62 18c44 0 73 -20 107 -20
c35 0 55 18 66 18c10 0 14 -5 14 -34c0 -27 -7 -35 -25 -46c-9 -6 -34 -18 -62 -18c-43 0 -72 20 -107 20c-34 0 -54 -18 -65 -18s-14 5 -14 34z" />
    <glyph glyph-name="utilde" unicode="&#x169;" horiz-adv-x="503" 
d="M191 -10c-105 0 -135 40 -135 130v342c0 26 11 30 49 30s48 -4 48 -30v-319c0 -54 14 -69 74 -69c88 0 117 47 117 166v222c0 26 10 30 48 30s49 -4 49 -30v-271c0 -104 22 -150 22 -168c0 -15 -7 -23 -46 -23c-33 0 -40 3 -46 26l-14 53c-27 -61 -80 -89 -166 -89z
M113 596c0 27 6 35 24 46c10 6 35 18 62 18c44 0 73 -20 107 -20c35 0 55 18 66 18c10 0 14 -5 14 -34c0 -27 -7 -35 -25 -46c-9 -6 -34 -18 -62 -18c-43 0 -72 20 -107 20c-34 0 -54 -18 -65 -18s-14 5 -14 34z" />
    <glyph glyph-name="Umacron" unicode="&#x16a;" horiz-adv-x="524" 
d="M262 -8c-146 0 -204 50 -204 188v408c0 25 10 30 49 30c38 0 48 -5 48 -30v-412c0 -73 20 -99 107 -99c86 0 107 26 107 99v412c0 25 10 30 48 30s48 -5 48 -30v-408c0 -138 -58 -188 -203 -188zM154 731c0 35 5 42 28 42h159c22 0 27 -7 27 -42c0 -34 -5 -41 -27 -41
h-159c-23 0 -28 7 -28 41z" />
    <glyph glyph-name="umacron" unicode="&#x16b;" horiz-adv-x="503" 
d="M191 -10c-105 0 -135 40 -135 130v342c0 26 11 30 49 30s48 -4 48 -30v-319c0 -54 14 -69 74 -69c88 0 117 47 117 166v222c0 26 10 30 48 30s49 -4 49 -30v-271c0 -104 22 -150 22 -168c0 -15 -7 -23 -46 -23c-33 0 -40 3 -46 26l-14 53c-27 -61 -80 -89 -166 -89z
M142 608c0 35 5 42 28 42h159c22 0 27 -7 27 -42c0 -34 -5 -41 -27 -41h-159c-23 0 -28 7 -28 41z" />
    <glyph glyph-name="Ubreve" unicode="&#x16c;" horiz-adv-x="524" 
d="M262 -8c-146 0 -204 50 -204 188v408c0 25 10 30 49 30c38 0 48 -5 48 -30v-412c0 -73 20 -99 107 -99c86 0 107 26 107 99v412c0 25 10 30 48 30s48 -5 48 -30v-408c0 -138 -58 -188 -203 -188zM262 672c-92 0 -115 28 -115 102c0 26 6 30 36 30s34 -4 35 -25
c2 -27 4 -35 44 -35c39 0 42 8 43 35c1 21 6 25 36 25s35 -4 35 -30c0 -74 -23 -102 -114 -102z" />
    <glyph glyph-name="ubreve" unicode="&#x16d;" horiz-adv-x="503" 
d="M191 -10c-105 0 -135 40 -135 130v342c0 26 11 30 49 30s48 -4 48 -30v-319c0 -54 14 -69 74 -69c88 0 117 47 117 166v222c0 26 10 30 48 30s49 -4 49 -30v-271c0 -104 22 -150 22 -168c0 -15 -7 -23 -46 -23c-33 0 -40 3 -46 26l-14 53c-27 -61 -80 -89 -166 -89z
M249 551c-92 0 -115 28 -115 102c0 26 6 30 36 30s34 -4 35 -25c2 -27 4 -35 44 -35c39 0 42 8 43 35c1 21 6 25 36 25s35 -4 35 -30c0 -74 -23 -102 -114 -102z" />
    <glyph glyph-name="Uring" unicode="&#x16e;" horiz-adv-x="524" 
d="M262 -8c-146 0 -204 50 -204 188v408c0 25 10 30 49 30c38 0 48 -5 48 -30v-412c0 -73 20 -99 107 -99c86 0 107 26 107 99v412c0 25 10 30 48 30s48 -5 48 -30v-408c0 -138 -58 -188 -203 -188zM261 734c40 0 44 8 44 34c0 27 -4 35 -44 35c-39 0 -42 -8 -42 -35
c0 -26 3 -34 42 -34zM261 671c-88 0 -113 24 -113 97s25 97 113 97c89 0 114 -24 114 -97s-25 -97 -114 -97z" />
    <glyph glyph-name="uring" unicode="&#x16f;" horiz-adv-x="503" 
d="M191 -10c-105 0 -135 40 -135 130v342c0 26 11 30 49 30s48 -4 48 -30v-319c0 -54 14 -69 74 -69c88 0 117 47 117 166v222c0 26 10 30 48 30s49 -4 49 -30v-271c0 -104 22 -150 22 -168c0 -15 -7 -23 -46 -23c-33 0 -40 3 -46 26l-14 53c-27 -61 -80 -89 -166 -89z
M248 613c40 0 44 8 44 34c0 27 -4 35 -44 35c-39 0 -42 -8 -42 -35c0 -26 3 -34 42 -34zM248 550c-88 0 -113 24 -113 97s25 97 113 97c89 0 114 -24 114 -97s-25 -97 -114 -97z" />
    <glyph glyph-name="Uhungarumlaut" unicode="&#x170;" horiz-adv-x="524" 
d="M262 -8c-146 0 -204 50 -204 188v408c0 25 10 30 49 30c38 0 48 -5 48 -30v-412c0 -73 20 -99 107 -99c86 0 107 26 107 99v412c0 25 10 30 48 30s48 -5 48 -30v-408c0 -138 -58 -188 -203 -188zM145 680c0 7 1 16 42 124c4 15 10 20 54 20c18 0 31 -1 37 -3
c9 -3 12 -8 12 -15c0 -8 -3 -19 -57 -122c-7 -15 -13 -22 -51 -22c-32 0 -37 6 -37 18zM281 680c0 7 2 15 58 125c6 13 12 19 54 19c16 0 29 -1 37 -3c9 -3 12 -9 12 -15c0 -9 -1 -17 -73 -122c-9 -16 -14 -22 -53 -22c-29 0 -35 7 -35 18z" />
    <glyph glyph-name="uhungarumlaut" unicode="&#x171;" horiz-adv-x="503" 
d="M191 -10c-105 0 -135 40 -135 130v342c0 26 11 30 49 30s48 -4 48 -30v-319c0 -54 14 -69 74 -69c88 0 117 47 117 166v222c0 26 10 30 48 30s49 -4 49 -30v-271c0 -104 22 -150 22 -168c0 -15 -7 -23 -46 -23c-33 0 -40 3 -46 26l-14 53c-27 -61 -80 -89 -166 -89z
M129 557c0 7 1 16 42 124c4 15 10 20 54 20c18 0 31 -1 37 -3c9 -3 12 -8 12 -15c0 -8 -3 -19 -57 -122c-7 -15 -13 -22 -51 -22c-32 0 -37 6 -37 18zM265 557c0 7 2 15 58 125c6 13 12 19 54 19c16 0 29 -1 37 -3c9 -3 12 -9 12 -15c0 -9 -1 -17 -73 -122
c-9 -16 -14 -22 -53 -22c-29 0 -35 7 -35 18z" />
    <glyph glyph-name="Uogonek" unicode="&#x172;" horiz-adv-x="524" 
d="M360 -5c-70 -34 -82 -68 -82 -90c0 -17 4 -21 17 -21c16 0 21 2 31 2c13 0 18 -5 18 -33s-7 -33 -27 -39c-16 -5 -30 -8 -56 -8c-48 0 -73 19 -73 72c0 44 18 81 62 114c-137 3 -192 53 -192 188v408c0 25 10 30 49 30c38 0 48 -5 48 -30v-412c0 -73 20 -99 107 -99
c86 0 107 26 107 99v412c0 25 10 30 48 30s48 -5 48 -30v-408c0 -89 -19 -143 -105 -185z" />
    <glyph glyph-name="uogonek" unicode="&#x173;" horiz-adv-x="503" 
d="M379 -194c-48 0 -73 19 -73 72c0 46 20 78 75 129c-2 3 -4 7 -6 13l-18 58c-27 -61 -80 -88 -166 -88c-105 0 -135 40 -135 130v342c0 26 11 30 49 30s48 -4 48 -30v-319c0 -54 14 -69 74 -69c88 0 117 47 117 166v222c0 26 10 30 48 30s49 -4 49 -30v-271
c0 -104 22 -150 22 -168c0 -12 -4 -21 -29 -50c-30 -34 -38 -50 -38 -68c0 -17 4 -21 17 -21c16 0 21 2 31 2c13 0 19 -5 19 -33s-8 -33 -28 -39c-15 -5 -30 -8 -56 -8z" />
    <glyph glyph-name="Wcircumflex" unicode="&#x174;" horiz-adv-x="798" 
d="M213 0c-57 0 -77 4 -84 39l-110 527c-2 10 -3 21 -3 29c0 17 7 23 46 23c42 0 52 -5 56 -27l95 -501h11l106 486c6 27 24 32 69 32s64 -5 70 -32l105 -486h12l95 501c2 22 13 27 55 27c39 0 46 -6 46 -23c0 -8 -1 -19 -3 -29l-110 -527c-7 -35 -27 -39 -84 -39
c-56 0 -75 6 -83 41l-98 438h-10l-98 -438c-8 -35 -27 -41 -83 -41zM402 753h-5l-45 -68c-13 -19 -22 -23 -53 -23c-26 0 -34 7 -34 18c0 7 3 14 11 29l57 94c8 15 15 21 46 21h40c31 0 38 -6 47 -21l56 -94c9 -15 11 -22 11 -29c0 -11 -7 -18 -34 -18c-30 0 -39 4 -52 23z
" />
    <glyph glyph-name="wcircumflex" unicode="&#x175;" horiz-adv-x="703" 
d="M190 0c-55 0 -72 6 -78 36l-84 389c-4 17 -6 31 -6 39c0 21 6 28 48 28c43 0 51 -4 56 -31l71 -374h11l79 360c6 28 20 35 65 35s59 -7 65 -35l79 -360h11l71 374c5 27 13 31 55 31c43 0 48 -7 48 -28c0 -8 -1 -22 -5 -39l-85 -389c-6 -30 -23 -36 -78 -36
c-58 0 -80 6 -87 36l-71 309h-7l-71 -309c-7 -30 -28 -36 -87 -36zM354 630h-5l-45 -68c-13 -19 -22 -23 -53 -23c-26 0 -34 7 -34 18c0 7 3 14 11 29l57 94c8 15 15 21 46 21h40c31 0 38 -6 47 -21l56 -94c9 -15 11 -22 11 -29c0 -11 -7 -18 -34 -18c-30 0 -39 4 -52 23z
" />
    <glyph glyph-name="Ycircumflex" unicode="&#x176;" horiz-adv-x="463" 
d="M232 0c-39 0 -49 5 -49 30v203l-155 324c-10 22 -12 31 -12 38c0 13 8 23 43 23c46 0 55 -5 64 -27l106 -255h5l106 255c9 22 17 27 62 27c38 0 46 -9 46 -22c0 -7 -3 -17 -13 -39l-155 -324v-203c0 -25 -10 -30 -48 -30zM235 753h-5l-45 -68c-13 -19 -22 -23 -53 -23
c-26 0 -34 7 -34 18c0 7 3 14 11 29l57 94c8 15 15 21 46 21h40c31 0 38 -6 47 -21l56 -94c9 -15 11 -22 11 -29c0 -11 -7 -18 -34 -18c-30 0 -39 4 -52 23z" />
    <glyph glyph-name="ycircumflex" unicode="&#x177;" horiz-adv-x="461" 
d="M22 467c0 15 5 25 50 25c38 0 47 -3 53 -25l100 -384h9l102 384c6 22 14 25 52 25c44 0 52 -8 52 -24c0 -8 -2 -22 -14 -61l-136 -448c-34 -113 -56 -153 -152 -153c-34 0 -66 5 -88 12c-17 5 -25 12 -25 40c0 31 5 40 18 40c12 0 38 -8 84 -8c48 0 60 12 72 58l13 52
c-45 1 -58 14 -69 50l-105 344c-16 52 -16 65 -16 73zM234 630h-5l-45 -68c-13 -19 -22 -23 -53 -23c-26 0 -34 7 -34 18c0 7 3 14 11 29l57 94c8 15 15 21 46 21h40c31 0 38 -6 47 -21l56 -94c9 -15 11 -22 11 -29c0 -11 -7 -18 -34 -18c-30 0 -39 4 -52 23z" />
    <glyph glyph-name="Ydieresis" unicode="&#x178;" horiz-adv-x="463" 
d="M232 0c-39 0 -49 5 -49 30v203l-155 324c-10 22 -12 31 -12 38c0 13 8 23 43 23c46 0 55 -5 64 -27l106 -255h5l106 255c9 22 17 27 62 27c38 0 46 -9 46 -22c0 -7 -3 -17 -13 -39l-155 -324v-203c0 -25 -10 -30 -48 -30zM155 687c-44 0 -51 7 -51 37v19c0 29 7 36 51 36
s51 -7 51 -36v-19c0 -30 -7 -37 -51 -37zM311 687c-44 0 -51 7 -51 37v19c0 29 7 36 51 36c43 0 50 -7 50 -36v-19c0 -30 -7 -37 -50 -37z" />
    <glyph glyph-name="Zacute" unicode="&#x179;" horiz-adv-x="411" 
d="M278 531h-215c-21 0 -28 8 -28 43c0 36 7 44 28 44h301c22 0 27 -9 27 -42c0 -21 -4 -33 -21 -64l-241 -425h236c21 0 28 -8 28 -44c0 -35 -7 -43 -28 -43h-321c-23 0 -28 9 -28 42c0 20 4 34 23 67zM190 662c-29 0 -41 6 -41 18c0 7 6 20 11 30l41 83c12 25 16 31 59 31
s53 -6 53 -18c0 -10 -7 -23 -15 -36l-51 -82c-11 -17 -16 -26 -57 -26z" />
    <glyph glyph-name="zacute" unicode="&#x17a;" horiz-adv-x="398" 
d="M371 42c0 -28 -5 -42 -24 -42h-298c-19 0 -24 11 -24 39c0 31 4 45 24 73l215 297h-195c-19 0 -24 13 -24 41s5 42 24 42h278c18 0 24 -11 24 -39c0 -26 -5 -45 -21 -67l-218 -303h215c19 0 24 -13 24 -41zM185 539c-29 0 -41 6 -41 18c0 7 6 20 11 30l41 83
c12 25 16 31 59 31s53 -6 53 -18c0 -10 -7 -23 -15 -36l-51 -82c-11 -17 -16 -26 -57 -26z" />
    <glyph glyph-name="Zdotaccent" unicode="&#x17b;" horiz-adv-x="411" 
d="M278 531h-215c-21 0 -28 8 -28 43c0 36 7 44 28 44h301c22 0 27 -9 27 -42c0 -21 -4 -33 -21 -64l-241 -425h236c21 0 28 -8 28 -44c0 -35 -7 -43 -28 -43h-321c-23 0 -28 9 -28 42c0 20 4 34 23 67zM211 687c-46 0 -53 7 -53 37v19c0 29 7 36 53 36c47 0 54 -7 54 -36
v-19c0 -30 -7 -37 -54 -37z" />
    <glyph glyph-name="zdotaccent" unicode="&#x17c;" horiz-adv-x="398" 
d="M371 42c0 -28 -5 -42 -24 -42h-298c-19 0 -24 11 -24 39c0 31 4 45 24 73l215 297h-195c-19 0 -24 13 -24 41s5 42 24 42h278c18 0 24 -11 24 -39c0 -26 -5 -45 -21 -67l-218 -303h215c19 0 24 -13 24 -41zM206 562c-46 0 -53 7 -53 37v19c0 29 7 36 53 36
c47 0 54 -7 54 -36v-19c0 -30 -7 -37 -54 -37z" />
    <glyph glyph-name="Zcaron" unicode="&#x17d;" horiz-adv-x="411" 
d="M278 531h-215c-21 0 -28 8 -28 43c0 36 7 44 28 44h301c22 0 27 -9 27 -42c0 -21 -4 -33 -21 -64l-241 -425h236c21 0 28 -8 28 -44c0 -35 -7 -43 -28 -43h-321c-23 0 -28 9 -28 42c0 20 4 34 23 67zM77 807c0 10 8 17 34 17c31 0 41 -3 53 -22l45 -69h5l44 69
c13 18 23 22 53 22c27 0 34 -7 34 -17c0 -7 -2 -14 -11 -29l-56 -95c-8 -14 -16 -21 -47 -21h-40c-31 0 -38 7 -46 21l-57 95c-9 15 -11 22 -11 29z" />
    <glyph glyph-name="zcaron" unicode="&#x17e;" horiz-adv-x="398" 
d="M371 42c0 -28 -5 -42 -24 -42h-298c-19 0 -24 11 -24 39c0 31 4 45 24 73l215 297h-195c-19 0 -24 13 -24 41s5 42 24 42h278c18 0 24 -11 24 -39c0 -26 -5 -45 -21 -67l-218 -303h215c19 0 24 -13 24 -41zM73 684c0 10 8 17 34 17c31 0 41 -3 53 -22l45 -69h5l44 69
c13 18 23 22 53 22c27 0 34 -7 34 -17c0 -7 -2 -14 -11 -29l-56 -95c-8 -14 -16 -21 -47 -21h-40c-31 0 -38 7 -46 21l-57 95c-9 15 -11 22 -11 29z" />
    <glyph glyph-name="florin" unicode="&#x192;" 
d="M110 388c0 30 5 38 24 38h61l10 76c12 90 39 121 116 121c25 0 54 -4 73 -9s26 -9 26 -38s-6 -38 -18 -38c-11 0 -32 5 -60 5c-33 0 -37 -7 -44 -62l-7 -55h64c19 0 24 -8 24 -38s-5 -37 -24 -37h-73l-28 -240c-11 -90 -40 -121 -117 -121c-26 0 -51 4 -70 9
s-26 9 -26 37c0 29 6 39 19 39c10 0 28 -5 56 -5c33 0 38 7 44 62l26 219h-52c-19 0 -24 7 -24 37z" />
    <glyph glyph-name="AEacute" unicode="&#x1fc;" horiz-adv-x="725" 
d="M62 0c-39 0 -46 6 -46 23c0 7 2 15 6 29l149 522c11 39 24 44 91 44h398c21 0 28 -8 28 -44c0 -35 -7 -43 -28 -43h-231v-163h173c23 0 28 -7 28 -43c0 -35 -5 -42 -28 -42h-173v-196h241c21 0 28 -8 28 -44c0 -35 -7 -43 -28 -43h-305c-26 0 -33 5 -33 28v149h-175
l-40 -150c-6 -22 -13 -27 -55 -27zM255 535l-77 -282h154v282h-77zM386 662c-29 0 -41 6 -41 18c0 7 6 20 11 30l41 83c12 25 16 31 59 31s53 -6 53 -18c0 -10 -7 -23 -15 -36l-51 -82c-11 -17 -16 -26 -57 -26z" />
    <glyph glyph-name="aeacute" unicode="&#x1fd;" horiz-adv-x="743" 
d="M508 -10c-101 0 -154 12 -171 107c-27 -74 -93 -107 -170 -107c-88 0 -129 40 -129 143s46 145 185 145h99v65c0 68 -24 76 -88 76c-76 0 -129 -18 -148 -18c-13 0 -18 10 -18 39s6 37 22 42c33 10 97 20 154 20c69 0 115 -8 141 -38c34 30 81 38 143 38
c153 0 173 -75 173 -233c0 -32 -7 -48 -40 -48h-243c2 -138 26 -147 102 -147c93 0 144 19 158 19c10 0 16 -8 16 -39c0 -29 -6 -37 -25 -43c-34 -12 -111 -21 -161 -21zM199 70c64 0 123 37 123 114v33l-101 -3c-72 -3 -90 -17 -90 -71c0 -64 21 -73 68 -73zM520 421
c-77 0 -99 -16 -102 -136h190c0 95 -3 136 -88 136zM373 539c-29 0 -41 6 -41 18c0 7 6 20 11 30l41 83c12 25 16 31 59 31s53 -6 53 -18c0 -10 -7 -23 -15 -36l-51 -82c-11 -17 -16 -26 -57 -26z" />
    <glyph glyph-name="Oslashacute" unicode="&#x1fe;" horiz-adv-x="526" 
d="M238 662c-29 0 -41 6 -41 18c0 7 6 20 11 30l41 83c12 25 16 31 59 31s53 -6 53 -18c0 -10 -7 -23 -15 -36l-51 -82c-11 -17 -16 -26 -57 -26zM263 -8c-148 0 -218 24 -218 282v63c0 256 54 286 218 286s218 -30 218 -286v-63c0 -258 -70 -282 -218 -282zM142 333
c0 -81 0 -106 2 -128l225 286c-15 41 -46 48 -106 48c-105 0 -121 -21 -121 -206zM263 76c99 0 121 21 121 206c0 75 -1 97 -1 116l-220 -280c18 -37 48 -42 100 -42z" />
    <glyph glyph-name="oslashacute" unicode="&#x1ff;" horiz-adv-x="500" 
d="M228 539c-29 0 -41 6 -41 18c0 7 6 20 11 30l41 83c12 25 16 31 59 31s53 -6 53 -18c0 -10 -7 -23 -15 -36l-51 -82c-11 -17 -16 -26 -57 -26zM242 -10c-148 0 -194 42 -194 252s58 260 210 260c148 0 193 -40 193 -250s-57 -262 -209 -262zM244 72c91 0 109 31 109 171
c0 32 -1 59 -3 81l-186 -220c14 -25 38 -32 80 -32zM147 251c0 -32 0 -58 2 -80l185 219c-14 24 -39 30 -80 30c-90 0 -107 -29 -107 -169z" />
    <glyph glyph-name="Scommaaccent" unicode="&#x218;" horiz-adv-x="458" 
d="M213 -8c-51 0 -108 7 -146 18c-18 6 -27 14 -27 47c0 34 6 39 19 39c18 0 63 -17 138 -17c87 0 126 23 126 89c0 48 -9 67 -49 85l-124 56c-67 30 -97 61 -97 151c0 140 83 163 172 163c51 0 113 -8 154 -20c15 -4 23 -11 23 -45c0 -33 -6 -39 -18 -39
c-14 0 -65 17 -136 17c-72 0 -100 -7 -100 -76c0 -44 15 -57 52 -73l123 -55c71 -31 95 -70 95 -158c0 -140 -88 -182 -205 -182zM211 -233c-25 0 -30 5 -30 18c0 20 11 67 11 131c0 32 7 38 49 38c40 0 50 -7 50 -29c0 -29 -2 -53 -11 -74l-21 -61c-8 -18 -15 -23 -48 -23z
" />
    <glyph glyph-name="scommaaccent" unicode="&#x219;" horiz-adv-x="433" 
d="M200 -10c-45 0 -97 7 -132 18c-19 6 -26 14 -26 43c0 31 6 40 16 40c15 0 67 -17 133 -17c76 0 101 22 101 69c0 28 -11 40 -35 50l-128 54c-41 18 -72 52 -72 121c0 108 80 134 161 134c45 0 98 -7 136 -17c19 -5 25 -12 25 -46c0 -35 -9 -37 -18 -37
c-14 0 -69 18 -128 18c-60 0 -78 -17 -78 -53c0 -27 7 -41 35 -53l125 -50c57 -23 75 -58 75 -116c0 -117 -79 -158 -190 -158zM192 -233c-25 0 -30 5 -30 18c0 20 11 67 11 131c0 32 7 38 49 38c40 0 50 -7 50 -29c0 -29 -2 -53 -11 -74l-21 -61c-8 -18 -15 -23 -48 -23z
" />
    <glyph glyph-name="dotlessj" unicode="&#x237;" horiz-adv-x="214" 
d="M105 492c38 0 48 -4 48 -30v-531c0 -90 -35 -125 -109 -125c-27 0 -55 4 -74 10c-19 5 -27 12 -27 41c0 34 6 38 19 38c10 0 31 -5 54 -5c33 0 40 6 40 61v511c0 26 11 30 49 30z" />
    <glyph glyph-name="circumflex" unicode="&#x2c6;" horiz-adv-x="321" 
d="M174 630h-5l-45 -68c-13 -19 -22 -23 -53 -23c-26 0 -34 7 -34 18c0 7 3 14 11 29l57 94c8 15 15 21 46 21h40c31 0 38 -6 47 -21l56 -94c9 -15 11 -22 11 -29c0 -11 -7 -18 -34 -18c-30 0 -39 4 -52 23z" />
    <glyph glyph-name="caron" unicode="&#x2c7;" horiz-adv-x="321" 
d="M26 684c0 10 8 17 34 17c31 0 41 -3 53 -22l45 -69h5l44 69c13 18 23 22 53 22c27 0 34 -7 34 -17c0 -7 -2 -14 -11 -29l-56 -95c-8 -14 -16 -21 -47 -21h-40c-31 0 -38 7 -46 21l-57 95c-9 15 -11 22 -11 29z" />
    <glyph glyph-name="breve" unicode="&#x2d8;" horiz-adv-x="281" 
d="M141 551c-92 0 -115 28 -115 102c0 26 6 30 36 30s34 -4 35 -25c2 -27 4 -35 44 -35c39 0 42 8 43 35c1 21 6 25 36 25s35 -4 35 -30c0 -74 -23 -102 -114 -102z" />
    <glyph glyph-name="dotaccent" unicode="&#x2d9;" horiz-adv-x="159" 
d="M78 562c-46 0 -53 7 -53 37v19c0 29 7 36 53 36c47 0 54 -7 54 -36v-19c0 -30 -7 -37 -54 -37z" />
    <glyph glyph-name="ring" unicode="&#x2da;" horiz-adv-x="279" 
d="M139 613c40 0 44 8 44 34c0 27 -4 35 -44 35c-39 0 -42 -8 -42 -35c0 -26 3 -34 42 -34zM139 550c-88 0 -113 24 -113 97s25 97 113 97c89 0 114 -24 114 -97s-25 -97 -114 -97z" />
    <glyph glyph-name="ogonek" unicode="&#x2db;" horiz-adv-x="209" 
d="M99 -194c-48 0 -73 19 -73 72c0 62 42 102 118 176h39c0 -31 -7 -44 -33 -80c-24 -33 -34 -51 -34 -69c0 -17 4 -21 18 -21c15 0 20 2 30 2c13 0 19 -5 19 -33s-8 -33 -28 -39c-15 -5 -30 -8 -56 -8z" />
    <glyph glyph-name="tilde" unicode="&#x2dc;" horiz-adv-x="325" 
d="M26 596c0 27 6 35 24 46c10 6 35 18 62 18c44 0 73 -20 107 -20c35 0 55 18 66 18c10 0 14 -5 14 -34c0 -27 -7 -35 -25 -46c-9 -6 -34 -18 -62 -18c-43 0 -72 20 -107 20c-34 0 -54 -18 -65 -18s-14 5 -14 34z" />
    <glyph glyph-name="hungarumlaut" unicode="&#x2dd;" horiz-adv-x="349" 
d="M26 557c0 7 1 16 42 124c4 15 10 20 54 20c18 0 31 -1 37 -3c9 -3 12 -8 12 -15c0 -8 -3 -19 -57 -122c-7 -15 -13 -22 -51 -22c-32 0 -37 6 -37 18zM162 557c0 7 2 15 58 125c6 13 12 19 54 19c16 0 29 -1 37 -3c9 -3 12 -9 12 -15c0 -9 -1 -17 -73 -122
c-9 -16 -14 -22 -53 -22c-29 0 -35 7 -35 18z" />
    <glyph glyph-name="commaaccent" unicode="&#x326;" horiz-adv-x="164" 
d="M58 -233c-25 0 -30 5 -30 18c0 20 11 67 11 131c0 32 7 38 49 38c40 0 50 -7 50 -29c0 -29 -2 -53 -11 -74l-21 -61c-8 -18 -15 -23 -48 -23z" />
    <glyph glyph-name="afii10023" unicode="&#x401;" horiz-adv-x="455" 
d="M428 43c0 -35 -7 -43 -28 -43h-309c-26 0 -33 5 -33 28v562c0 23 7 28 33 28h299c21 0 28 -8 28 -44c0 -35 -7 -43 -28 -43h-235v-163h177c23 0 28 -7 28 -43c0 -35 -5 -42 -28 -42h-177v-196h245c21 0 28 -8 28 -44zM155 688c-44 0 -51 7 -51 37v19c0 29 7 36 51 36
s51 -7 51 -36v-19c0 -30 -7 -37 -51 -37zM311 688c-44 0 -51 7 -51 37v19c0 29 7 36 51 36c43 0 50 -7 50 -36v-19c0 -30 -7 -37 -50 -37z" />
    <glyph glyph-name="afii10051" unicode="&#x402;" horiz-adv-x="582" 
d="M207 0c-38 0 -49 4 -49 30v501h-120c-21 0 -28 8 -28 43c0 36 7 44 28 44h342c21 0 27 -8 27 -44c0 -35 -6 -43 -27 -43h-125v-143c26 49 71 72 140 72c101 0 128 -44 128 -134v-213c0 -87 -34 -118 -102 -118c-23 0 -46 3 -64 8c-20 5 -28 13 -28 43c0 34 6 37 18 37
c9 0 25 -4 45 -4c29 0 35 6 35 61v164c0 54 -14 72 -74 72c-67 0 -98 -43 -98 -148v-198c0 -26 -10 -30 -48 -30z" />
    <glyph glyph-name="afii10052" unicode="&#x403;" horiz-adv-x="404" 
d="M185 674c-29 0 -41 6 -41 18c0 7 6 20 11 30l41 83c12 25 16 31 59 31s53 -6 53 -18c0 -10 -7 -23 -15 -36l-51 -82c-11 -17 -16 -26 -57 -26zM107 0c-39 0 -49 5 -49 30v560c0 23 7 28 33 28h269c21 0 28 -8 28 -44c0 -35 -7 -43 -28 -43h-205v-501
c0 -25 -10 -30 -48 -30z" />
    <glyph glyph-name="afii10053" unicode="&#x404;" horiz-adv-x="452" 
d="M367 320c0 -33 -5 -40 -28 -40h-201c0 -191 30 -202 128 -202c77 0 122 15 137 15c13 0 17 -7 17 -38c0 -35 -8 -41 -24 -45c-43 -11 -96 -18 -147 -18c-113 0 -204 18 -204 270v81c0 260 86 280 210 280c44 0 99 -7 141 -18c16 -4 24 -9 24 -44c0 -30 -6 -38 -17 -38
c-13 0 -59 14 -124 14c-110 0 -139 -15 -141 -177h201c23 0 28 -7 28 -40z" />
    <glyph glyph-name="afii10054" unicode="&#x405;" horiz-adv-x="458" 
d="M213 -8c-51 0 -108 7 -146 18c-18 6 -27 14 -27 47c0 34 6 39 19 39c18 0 63 -17 138 -17c87 0 126 23 126 89c0 48 -9 67 -49 85l-124 56c-67 30 -97 61 -97 151c0 140 83 163 172 163c51 0 113 -8 154 -20c15 -4 23 -11 23 -45c0 -33 -6 -39 -18 -39
c-14 0 -65 17 -136 17c-72 0 -100 -7 -100 -76c0 -44 15 -57 52 -73l123 -55c71 -31 95 -70 95 -158c0 -140 -88 -182 -205 -182z" />
    <glyph glyph-name="afii10055" unicode="&#x406;" horiz-adv-x="213" 
d="M107 0c-39 0 -49 5 -49 30v558c0 25 10 30 49 30c38 0 48 -5 48 -30v-558c0 -25 -10 -30 -48 -30z" />
    <glyph glyph-name="afii10056" unicode="&#x407;" horiz-adv-x="213" 
d="M107 0c-39 0 -49 5 -49 30v558c0 25 10 30 49 30c38 0 48 -5 48 -30v-558c0 -25 -10 -30 -48 -30zM29 685c-44 0 -51 7 -51 37v19c0 29 7 36 51 36s51 -7 51 -36v-19c0 -30 -7 -37 -51 -37zM185 685c-44 0 -51 7 -51 37v19c0 29 7 36 51 36c43 0 50 -7 50 -36v-19
c0 -30 -7 -37 -50 -37z" />
    <glyph glyph-name="afii10057" unicode="&#x408;" horiz-adv-x="341" 
d="M134 -8c-45 0 -78 7 -99 13c-19 5 -27 12 -27 45c0 34 5 37 18 37c15 0 46 -9 85 -9c59 0 75 16 75 83v427c0 25 10 30 48 30s48 -5 48 -30v-430c0 -121 -48 -166 -148 -166z" />
    <glyph glyph-name="afii10058" unicode="&#x409;" horiz-adv-x="841" 
d="M95 -8c-21 0 -39 2 -58 6c-20 4 -27 12 -27 45c0 32 6 35 18 35s21 -3 37 -3c22 0 29 6 33 46l49 470c2 21 6 27 33 27h277c26 0 33 -5 33 -28v-229c44 5 85 8 144 8c138 0 165 -56 165 -190c0 -140 -38 -187 -210 -187c-66 0 -110 2 -162 8c-29 3 -34 11 -34 34v497
h-160l-48 -452c-6 -56 -26 -87 -90 -87zM594 290c-20 0 -60 -2 -104 -4v-210c25 -3 62 -5 103 -5c95 0 106 17 106 111c0 92 -18 108 -105 108z" />
    <glyph glyph-name="afii10059" unicode="&#x40a;" horiz-adv-x="817" 
d="M107 0c-39 0 -49 5 -49 30v558c0 25 10 30 49 30c38 0 48 -5 48 -30v-228h214v228c0 25 10 30 49 30c38 0 48 -5 48 -30v-227c44 5 85 8 144 8c138 0 165 -56 165 -190c0 -140 -38 -187 -210 -187c-66 0 -110 2 -162 8c-29 3 -34 11 -34 34v242h-214v-246
c0 -25 -10 -30 -48 -30zM570 290c-20 0 -60 -2 -104 -4v-210c25 -3 63 -5 103 -5c95 0 107 17 107 111c0 92 -19 108 -106 108z" />
    <glyph glyph-name="afii10060" unicode="&#x40b;" horiz-adv-x="582" 
d="M207 0c-38 0 -49 4 -49 30v501h-120c-21 0 -28 8 -28 43c0 36 7 44 28 44h342c21 0 27 -8 27 -44c0 -35 -6 -43 -27 -43h-125v-143c26 49 71 72 140 72c101 0 128 -44 128 -134v-296c0 -26 -10 -30 -48 -30s-48 4 -48 30v274c0 54 -14 72 -74 72c-67 0 -98 -43 -98 -148
v-198c0 -26 -10 -30 -48 -30z" />
    <glyph glyph-name="afii10061" unicode="&#x40c;" horiz-adv-x="469" 
d="M107 0c-39 0 -49 5 -49 30v558c0 25 10 30 49 30c38 0 48 -5 48 -30v-242h15l164 249c12 18 20 23 63 23c35 0 45 -6 45 -20c0 -9 -3 -18 -12 -31l-177 -253l184 -254c14 -20 17 -29 17 -38c0 -13 -7 -22 -49 -22c-35 0 -46 5 -59 23l-177 258h-14v-251
c0 -25 -10 -30 -48 -30zM204 674c-29 0 -41 6 -41 18c0 7 6 20 11 30l41 83c12 25 16 31 59 31s53 -6 53 -18c0 -10 -7 -23 -15 -36l-51 -82c-11 -17 -16 -26 -57 -26z" />
    <glyph glyph-name="afii10062" unicode="&#x40e;" horiz-adv-x="481" 
d="M241 686c-92 0 -115 28 -115 102c0 26 6 30 36 30s34 -4 35 -25c2 -27 4 -35 44 -35c39 0 42 8 43 35c1 21 6 25 36 25s35 -4 35 -30c0 -74 -23 -102 -114 -102zM16 598c0 12 8 20 48 20s46 -6 53 -25l121 -352h11l112 350c7 23 14 27 57 27c39 0 47 -9 47 -20
c0 -9 -5 -25 -13 -48l-168 -456c-23 -62 -55 -99 -131 -99c-33 0 -62 2 -88 9c-18 4 -26 11 -26 44c0 34 5 36 18 36c15 0 44 -6 79 -6c47 0 65 10 82 64l6 19h-7c-36 0 -47 14 -55 37l-134 354c-8 20 -12 36 -12 46z" />
    <glyph glyph-name="afii10145" unicode="&#x40f;" horiz-adv-x="520" 
d="M260 -108c-30 0 -33 4 -34 26l-5 82h-130c-26 0 -33 5 -33 28v560c0 25 10 30 49 30c38 0 48 -5 48 -30v-501h210v501c0 25 10 30 49 30c38 0 48 -5 48 -30v-560c0 -23 -7 -28 -33 -28h-131l-4 -82c-1 -22 -3 -26 -34 -26z" />
    <glyph glyph-name="afii10017" unicode="&#x410;" horiz-adv-x="523" 
d="M62 0c-39 0 -46 6 -46 23c0 7 2 15 6 29l149 522c11 39 24 44 91 44c66 0 79 -5 90 -44l149 -522c4 -14 6 -22 6 -29c0 -16 -7 -23 -46 -23c-42 0 -49 6 -55 27l-43 150h-206l-40 -150c-6 -22 -13 -27 -55 -27zM255 535l-77 -282h167l-77 282h-13z" />
    <glyph glyph-name="afii10018" unicode="&#x411;" horiz-adv-x="512" 
d="M256 -8c-66 0 -112 2 -164 8c-29 3 -34 11 -34 34v556c0 23 7 28 33 28h310c21 0 28 -8 28 -44c0 -35 -7 -43 -28 -43h-246v-174c45 5 89 8 148 8c138 0 166 -54 166 -188c0 -140 -41 -185 -213 -185zM264 286c-20 0 -82 -2 -109 -4v-206c26 -3 65 -5 105 -5
c98 0 109 14 109 109c0 91 -17 106 -105 106z" />
    <glyph glyph-name="afii10019" unicode="&#x412;" horiz-adv-x="514" 
d="M256 -8c-66 0 -112 2 -164 8c-29 3 -34 11 -34 34v545c0 26 9 33 32 36c44 5 104 8 144 8c145 0 213 -13 213 -153c0 -78 -16 -126 -74 -144c69 -15 96 -59 96 -159c0 -130 -41 -175 -213 -175zM155 536v-177h87c89 0 105 15 105 100c0 71 -11 81 -102 81
c-36 0 -67 -1 -90 -4zM155 286v-210c26 -3 65 -5 105 -5c98 0 109 14 109 109c0 86 -17 106 -105 106h-109z" />
    <glyph glyph-name="afii10020" unicode="&#x413;" horiz-adv-x="404" 
d="M107 0c-39 0 -49 5 -49 30v560c0 23 7 28 33 28h269c21 0 28 -8 28 -44c0 -35 -7 -43 -28 -43h-205v-501c0 -25 -10 -30 -48 -30z" />
    <glyph glyph-name="afii10021" unicode="&#x414;" horiz-adv-x="542" 
d="M52 -108c-28 0 -36 3 -36 24v139c0 28 9 32 36 32h18l53 504c2 21 6 27 33 27h282c26 0 33 -5 33 -28v-503h19c27 0 35 -4 35 -32v-139c0 -21 -8 -24 -36 -24c-31 0 -38 3 -42 24l-15 84h-323l-14 -84c-3 -21 -12 -24 -43 -24zM209 531l-46 -444h211v444h-165z" />
    <glyph glyph-name="afii10022" unicode="&#x415;" horiz-adv-x="455" 
d="M428 43c0 -35 -7 -43 -28 -43h-309c-26 0 -33 5 -33 28v562c0 23 7 28 33 28h299c21 0 28 -8 28 -44c0 -35 -7 -43 -28 -43h-235v-163h177c23 0 28 -7 28 -43c0 -35 -5 -42 -28 -42h-177v-196h245c21 0 28 -8 28 -44z" />
    <glyph glyph-name="afii10024" unicode="&#x416;" horiz-adv-x="698" 
d="M65 0c-43 0 -50 9 -50 22c0 9 5 18 19 38l170 254l-165 253c-8 13 -12 22 -12 31c0 14 10 20 45 20c44 0 52 -4 63 -23l152 -249h13v242c0 25 10 30 48 30c39 0 49 -5 49 -30v-242h14l152 249c12 19 20 23 63 23c36 0 46 -6 46 -20c0 -9 -5 -18 -13 -31l-164 -253
l170 -254c13 -20 18 -29 18 -38c0 -13 -6 -22 -49 -22c-35 0 -49 4 -61 23l-162 258h-14v-251c0 -25 -10 -30 -49 -30c-38 0 -48 5 -48 30v251h-12l-163 -258c-12 -19 -26 -23 -60 -23z" />
    <glyph glyph-name="afii10025" unicode="&#x417;" horiz-adv-x="449" 
d="M91 315c0 30 5 40 28 40h51c103 0 119 38 119 100c0 66 -14 83 -87 83c-70 0 -122 -12 -139 -12c-12 0 -19 5 -19 38c0 34 4 39 24 44c39 9 106 15 162 15c97 0 158 -28 158 -158c0 -81 -38 -134 -106 -146c88 -7 118 -56 118 -148c0 -128 -62 -179 -183 -179
c-54 0 -125 7 -164 16c-18 4 -27 11 -27 44c0 34 6 39 18 39c19 0 84 -14 154 -14c88 0 103 36 103 100c0 63 -13 99 -130 99h-52c-23 0 -28 9 -28 39z" />
    <glyph glyph-name="afii10026" unicode="&#x418;" horiz-adv-x="547" 
d="M440 0c-38 0 -48 5 -48 30v427h-9l-203 -428c-13 -27 -23 -29 -61 -29c-52 0 -61 5 -61 30v558c0 25 10 30 49 30c38 0 48 -5 48 -30v-427h9l201 428c12 26 23 29 61 29c53 0 63 -5 63 -30v-558c0 -25 -10 -30 -49 -30z" />
    <glyph glyph-name="afii10027" unicode="&#x419;" horiz-adv-x="547" 
d="M276 686c-92 0 -115 28 -115 102c0 26 6 30 36 30s34 -4 35 -25c2 -27 4 -35 44 -35c39 0 42 8 43 35c1 21 6 25 36 25s35 -4 35 -30c0 -74 -23 -102 -114 -102zM440 0c-38 0 -48 5 -48 30v427h-9l-203 -428c-13 -27 -23 -29 -61 -29c-52 0 -61 5 -61 30v558
c0 25 10 30 49 30c38 0 48 -5 48 -30v-427h9l201 428c12 26 23 29 61 29c53 0 63 -5 63 -30v-558c0 -25 -10 -30 -49 -30z" />
    <glyph glyph-name="afii10028" unicode="&#x41a;" horiz-adv-x="469" 
d="M107 0c-39 0 -49 5 -49 30v558c0 25 10 30 49 30c38 0 48 -5 48 -30v-242h15l164 249c12 18 20 23 63 23c35 0 45 -6 45 -20c0 -9 -3 -18 -12 -31l-177 -253l182 -254c14 -20 19 -29 19 -38c0 -13 -7 -22 -49 -22c-35 0 -48 5 -61 23l-175 258h-14v-251
c0 -25 -10 -30 -48 -30z" />
    <glyph glyph-name="afii10029" unicode="&#x41b;" horiz-adv-x="558" 
d="M451 0c-38 0 -48 5 -48 30v501h-164l-48 -452c-6 -56 -26 -87 -90 -87c-21 0 -39 2 -58 6c-20 4 -27 12 -27 45c0 32 6 35 18 35s21 -3 37 -3c22 0 29 6 33 46l49 470c1 21 7 27 33 27h281c26 0 33 -5 33 -28v-560c0 -25 -10 -30 -49 -30z" />
    <glyph glyph-name="afii10030" unicode="&#x41c;" horiz-adv-x="639" 
d="M107 0c-39 0 -49 5 -49 30v553c0 26 9 35 66 35c52 0 68 -4 81 -38l112 -299h5l113 299c13 34 28 38 81 38c56 0 65 -9 65 -35v-553c0 -25 -10 -30 -48 -30c-39 0 -49 5 -49 30c0 145 1 303 2 448h-7l-106 -284c-11 -30 -20 -34 -53 -34c-34 0 -43 4 -54 34l-106 284h-7
c1 -145 2 -303 2 -448c0 -25 -10 -30 -48 -30z" />
    <glyph glyph-name="afii10031" unicode="&#x41d;" horiz-adv-x="524" 
d="M155 360h214v228c0 25 10 30 49 30c38 0 48 -5 48 -30v-558c0 -25 -10 -30 -48 -30c-39 0 -49 5 -49 30v246h-214v-246c0 -25 -10 -30 -48 -30c-39 0 -49 5 -49 30v558c0 25 10 30 49 30c38 0 48 -5 48 -30v-228z" />
    <glyph glyph-name="afii10032" unicode="&#x41e;" horiz-adv-x="526" 
d="M263 76c99 0 121 21 121 206v51c0 185 -16 206 -121 206c-99 0 -121 -21 -121 -206v-51c0 -185 16 -206 121 -206zM263 -8c-160 0 -218 30 -218 282v63c0 262 66 286 218 286c164 0 218 -30 218 -286v-63c0 -258 -70 -282 -218 -282z" />
    <glyph glyph-name="afii10033" unicode="&#x41f;" horiz-adv-x="520" 
d="M107 0c-39 0 -49 5 -49 30v560c0 23 7 28 33 28h338c26 0 33 -5 33 -28v-560c0 -25 -10 -30 -48 -30c-39 0 -49 5 -49 30v501h-210v-501c0 -25 -10 -30 -48 -30z" />
    <glyph glyph-name="afii10034" unicode="&#x420;" horiz-adv-x="488" 
d="M107 0c-39 0 -49 5 -49 30v548c0 25 12 33 32 36c51 6 112 9 162 9c142 0 201 -23 201 -185c0 -160 -66 -210 -226 -210h-72v-198c0 -25 -10 -30 -48 -30zM155 536v-228h76c97 0 122 26 122 126c0 89 -21 106 -110 106c-31 0 -64 -2 -88 -4z" />
    <glyph glyph-name="afii10035" unicode="&#x421;" horiz-adv-x="452" 
d="M255 -8c-124 0 -210 18 -210 270v81c0 260 85 280 213 280c48 0 97 -8 138 -19c16 -5 24 -9 24 -46c0 -30 -6 -38 -17 -38c-13 0 -59 17 -124 17c-107 0 -137 -16 -137 -203v-52c0 -193 34 -204 137 -204c69 0 109 17 124 17c13 0 17 -7 17 -39c0 -35 -8 -40 -24 -45
c-41 -12 -92 -19 -141 -19z" />
    <glyph glyph-name="afii10036" unicode="&#x422;" horiz-adv-x="434" 
d="M217 0c-39 0 -49 5 -49 30v501h-130c-21 0 -28 8 -28 43c0 36 7 44 28 44h358c21 0 28 -8 28 -44c0 -35 -7 -43 -28 -43h-131v-501c0 -25 -10 -30 -48 -30z" />
    <glyph glyph-name="afii10037" unicode="&#x423;" horiz-adv-x="481" 
d="M16 598c0 12 8 20 48 20s46 -6 53 -25l121 -352h11l112 350c7 23 14 27 57 27c39 0 47 -9 47 -20c0 -9 -5 -25 -13 -48l-168 -456c-23 -62 -55 -99 -131 -99c-33 0 -62 2 -88 9c-18 4 -26 11 -26 44c0 34 5 36 18 36c15 0 44 -6 79 -6c47 0 65 10 82 64l6 19h-7
c-36 0 -47 14 -55 37l-134 354c-8 20 -12 36 -12 46z" />
    <glyph glyph-name="afii10038" unicode="&#x424;" horiz-adv-x="633" 
d="M28 329c0 174 79 198 208 198h35v65c0 25 10 30 48 30c39 0 49 -5 49 -30v-65h34c129 0 209 -24 209 -198c0 -167 -66 -218 -209 -218h-34v-85c0 -25 -10 -30 -49 -30c-38 0 -48 5 -48 30v85h-35c-142 0 -208 51 -208 218zM124 329c0 -118 25 -138 112 -138h35v255h-35
c-87 0 -112 -14 -112 -117zM402 446h-34v-255h34c87 0 112 20 112 138c0 103 -25 117 -112 117z" />
    <glyph glyph-name="afii10039" unicode="&#x425;" horiz-adv-x="488" 
d="M68 0c-38 0 -48 8 -48 24c0 7 4 17 14 34l158 260l-146 240c-11 17 -15 28 -15 36c0 15 10 24 49 24s49 -4 60 -27l102 -182h4l102 182c11 23 21 27 60 27s49 -9 49 -24c0 -8 -4 -19 -14 -36l-148 -240l159 -259c10 -17 14 -27 14 -35c0 -16 -10 -24 -48 -24
c-39 0 -47 4 -60 27l-115 203h-4l-113 -203c-12 -23 -21 -27 -60 -27z" />
    <glyph glyph-name="afii10040" unicode="&#x426;" horiz-adv-x="542" 
d="M489 -108c-32 0 -41 3 -44 24l-14 84h-340c-26 0 -33 5 -33 28v560c0 25 10 30 49 30c38 0 48 -5 48 -30v-501h210v501c0 25 10 30 49 30c38 0 48 -5 48 -30v-501h21c32 0 43 -4 43 -32v-139c0 -21 -9 -24 -37 -24z" />
    <glyph glyph-name="afii10041" unicode="&#x427;" horiz-adv-x="486" 
d="M203 238c-119 0 -165 26 -165 159v191c0 25 10 30 49 30c38 0 48 -5 48 -30v-177c0 -78 16 -88 92 -88c26 0 67 2 104 5v260c0 25 10 30 49 30c38 0 48 -5 48 -30v-558c0 -25 -10 -30 -48 -30c-39 0 -49 5 -49 30v218c-39 -6 -86 -10 -128 -10z" />
    <glyph glyph-name="afii10042" unicode="&#x428;" horiz-adv-x="801" 
d="M107 618c38 0 48 -5 48 -30v-501h197v501c0 25 10 30 49 30c38 0 48 -5 48 -30v-501h197v501c0 25 10 30 49 30c38 0 48 -5 48 -30v-560c0 -23 -7 -28 -33 -28h-619c-26 0 -33 5 -33 28v560c0 25 10 30 49 30z" />
    <glyph glyph-name="afii10043" unicode="&#x429;" horiz-adv-x="823" 
d="M712 0h-621c-26 0 -33 5 -33 28v560c0 25 10 30 49 30c38 0 48 -5 48 -30v-501h197v501c0 25 10 30 49 30c38 0 48 -5 48 -30v-501h197v501c0 25 10 30 49 30c38 0 48 -5 48 -30v-501h21c32 0 43 -4 43 -32v-139c0 -21 -9 -24 -37 -24c-32 0 -41 3 -44 24z" />
    <glyph glyph-name="afii10044" unicode="&#x42a;" horiz-adv-x="549" 
d="M300 -8c-66 0 -110 2 -162 8c-29 3 -34 11 -34 34v497h-66c-21 0 -28 8 -28 43c0 36 7 44 28 44h115c38 0 48 -5 48 -30v-227c44 5 85 8 144 8c138 0 165 -56 165 -190c0 -140 -38 -187 -210 -187zM305 290c-20 0 -60 -2 -104 -4v-210c25 -3 63 -5 103 -5
c95 0 107 17 107 111c0 92 -19 108 -106 108z" />
    <glyph glyph-name="afii10045" unicode="&#x42b;" horiz-adv-x="713" 
d="M613 0c-39 0 -49 5 -49 30v558c0 25 10 30 49 30c38 0 48 -5 48 -30v-558c0 -25 -10 -30 -48 -30zM107 618c38 0 48 -5 48 -30v-227c44 5 85 8 144 8c138 0 165 -56 165 -190c0 -140 -38 -187 -210 -187c-66 0 -110 2 -162 8c-29 3 -34 11 -34 34v554c0 25 10 30 49 30z
M259 290c-20 0 -60 -2 -104 -4v-210c25 -3 63 -5 103 -5c95 0 107 17 107 111c0 92 -19 108 -106 108z" />
    <glyph glyph-name="afii10046" unicode="&#x42c;" horiz-adv-x="503" 
d="M107 618c38 0 48 -5 48 -30v-227c44 5 85 8 144 8c138 0 165 -56 165 -190c0 -140 -38 -187 -210 -187c-66 0 -110 2 -162 8c-29 3 -34 11 -34 34v554c0 25 10 30 49 30zM259 290c-20 0 -60 -2 -104 -4v-210c25 -3 63 -5 103 -5c95 0 107 17 107 111
c0 92 -19 108 -106 108z" />
    <glyph glyph-name="afii10047" unicode="&#x42d;" horiz-adv-x="456" 
d="M87 320c0 33 5 40 28 40h203c-3 162 -32 177 -141 177c-65 0 -111 -14 -124 -14c-12 0 -17 8 -17 38c0 35 8 40 24 44c42 11 97 18 141 18c123 0 210 -20 210 -280v-81c0 -252 -91 -270 -204 -270c-51 0 -104 7 -147 18c-16 4 -24 10 -24 45c0 31 4 38 17 38
c15 0 60 -15 137 -15c96 0 128 11 128 202h-203c-23 0 -28 7 -28 40z" />
    <glyph glyph-name="afii10048" unicode="&#x42e;" horiz-adv-x="763" 
d="M500 -8c-148 0 -218 24 -218 282v6h-127v-250c0 -25 -10 -30 -48 -30c-39 0 -49 5 -49 30v558c0 25 10 30 49 30c38 0 48 -5 48 -30v-222h127c4 229 60 257 218 257c163 0 217 -30 217 -286v-63c0 -258 -70 -282 -217 -282zM500 76c98 0 121 21 121 206v51
c0 185 -16 206 -121 206s-122 -21 -122 -206v-51c0 -185 23 -206 122 -206z" />
    <glyph glyph-name="afii10049" unicode="&#x42f;" horiz-adv-x="503" 
d="M398 0c-38 0 -48 5 -48 30v225h-72c-15 0 -29 0 -42 1l-94 -230c-9 -22 -16 -26 -63 -26c-35 0 -41 9 -41 20c0 6 1 12 11 33l102 218c-70 25 -100 78 -100 177c0 152 60 175 202 175c50 0 111 -3 162 -9c20 -3 32 -11 32 -36v-548c0 -25 -10 -30 -49 -30zM152 444
c0 -94 25 -116 122 -116h76v208c-22 2 -57 4 -88 4c-89 0 -110 -17 -110 -96z" />
    <glyph glyph-name="afii10065" unicode="&#x430;" horiz-adv-x="486" 
d="M167 -10c-88 0 -129 40 -129 143s46 145 185 145h99v65c0 68 -24 76 -88 76c-76 0 -129 -18 -148 -18c-13 0 -18 10 -18 39s6 37 22 42c33 10 97 20 154 20c117 0 174 -20 174 -137v-174c0 -104 21 -150 21 -168c0 -15 -6 -23 -45 -23c-33 0 -40 3 -46 26l-16 60
c-29 -66 -92 -96 -165 -96zM199 70c64 0 123 37 123 114v33l-101 -3c-72 -3 -90 -17 -90 -71c0 -64 21 -73 68 -73z" />
    <glyph glyph-name="afii10066" unicode="&#x431;" horiz-adv-x="508" 
d="M263 -10c-160 0 -209 54 -209 244v210c0 180 65 223 208 223c54 0 121 -8 157 -14c15 -2 22 -12 22 -41s-5 -37 -18 -37c-20 0 -76 10 -143 10c-93 0 -127 -11 -127 -120v-31c22 47 64 68 141 68c126 0 166 -38 166 -260c0 -212 -54 -252 -197 -252zM263 72
c86 0 98 24 98 180c0 153 -20 168 -107 168c-75 0 -102 -27 -102 -163v-19c0 -138 22 -166 111 -166z" />
    <glyph glyph-name="afii10067" unicode="&#x432;" horiz-adv-x="489" 
d="M250 77c84 0 100 13 100 72c0 53 -24 71 -115 71h-80v-138c24 -3 58 -5 95 -5zM246 -8c-67 0 -106 3 -154 9c-29 4 -34 10 -34 33v422c0 26 9 33 32 36c44 5 96 8 162 8c130 0 184 -16 184 -120c0 -90 -34 -117 -103 -126c79 -10 115 -31 115 -123
c0 -118 -62 -139 -202 -139zM244 415c-33 0 -66 -2 -89 -5v-124h80c77 0 102 16 102 70c0 53 -21 59 -93 59z" />
    <glyph glyph-name="afii10068" unicode="&#x433;" horiz-adv-x="346" 
d="M107 0c-39 0 -49 5 -49 30v434c0 23 7 28 33 28h217c21 0 28 -8 28 -44c0 -35 -7 -43 -28 -43h-153v-375c0 -25 -10 -30 -48 -30z" />
    <glyph glyph-name="afii10069" unicode="&#x434;" horiz-adv-x="506" 
d="M50 -108c-28 0 -36 3 -36 24v128c0 35 5 43 28 43h24l46 375c3 25 10 30 48 30h221c39 0 49 -5 49 -30v-375h20c27 0 36 -4 36 -32v-139c0 -21 -8 -24 -36 -24c-31 0 -40 3 -43 24l-14 84h-286l-14 -84c-3 -21 -12 -24 -43 -24zM196 408l-38 -321h175v321h-137z" />
    <glyph glyph-name="afii10070" unicode="&#x435;" horiz-adv-x="471" 
d="M255 -10c-143 0 -207 30 -207 251c0 237 75 261 201 261c160 0 180 -75 180 -233c0 -32 -7 -48 -40 -48h-243c2 -128 19 -147 117 -147c78 0 128 19 143 19c10 0 16 -8 16 -39c0 -29 -7 -37 -26 -43c-33 -12 -96 -21 -141 -21zM247 421c-72 0 -97 -16 -101 -136h190
c0 95 -3 136 -89 136z" />
    <glyph glyph-name="afii10072" unicode="&#x436;" horiz-adv-x="658" 
d="M64 0c-37 0 -51 7 -51 19c0 10 5 18 12 27l162 211l-149 188c-7 10 -13 21 -13 30c0 12 11 17 48 17c41 0 48 -5 63 -24l135 -180h9v174c0 26 11 30 49 30s48 -4 48 -30v-174h10l134 180c15 20 23 24 64 24c37 0 48 -5 48 -17c0 -9 -6 -20 -14 -30l-149 -188l162 -211
c7 -9 13 -17 13 -27c0 -12 -14 -19 -52 -19c-37 0 -45 5 -59 24l-148 201h-9v-195c0 -26 -10 -30 -48 -30s-49 4 -49 30v195h-9l-147 -201c-15 -20 -22 -24 -60 -24z" />
    <glyph glyph-name="afii10073" unicode="&#x437;" horiz-adv-x="437" 
d="M107 253c0 27 5 37 28 37h37c80 0 105 15 105 68c0 51 -14 57 -84 57s-113 -11 -130 -11c-12 0 -19 7 -19 39c0 35 9 40 24 43c41 9 94 14 150 14c98 0 159 -17 159 -117c0 -98 -35 -120 -104 -129c79 -10 116 -29 116 -120c0 -121 -63 -142 -180 -142
c-57 0 -115 6 -156 15c-21 5 -27 11 -27 45c0 33 6 39 18 39c19 0 69 -14 143 -14c87 0 103 12 103 70c0 52 -21 70 -116 70h-39c-23 0 -28 9 -28 36z" />
    <glyph glyph-name="afii10074" unicode="&#x438;" horiz-adv-x="511" 
d="M397 492c21 0 33 -1 42 -5c10 -5 13 -13 13 -28v-429c0 -25 -10 -30 -48 -30s-48 5 -48 30v327h-8l-168 -326c-14 -27 -27 -31 -66 -31c-21 0 -33 1 -42 5c-10 5 -14 13 -14 28v429c0 25 10 30 49 30c38 0 48 -5 48 -30v-322h7l172 326c13 25 24 26 63 26z" />
    <glyph glyph-name="afii10075" unicode="&#x439;" horiz-adv-x="511" 
d="M254 551c-92 0 -115 28 -115 102c0 26 6 30 36 30s34 -4 35 -25c2 -27 4 -35 44 -35c39 0 42 8 43 35c1 21 6 25 36 25s35 -4 35 -30c0 -74 -23 -102 -114 -102zM397 492c21 0 33 -1 42 -5c10 -5 13 -13 13 -28v-429c0 -25 -10 -30 -48 -30s-48 5 -48 30v327h-8
l-168 -326c-14 -27 -27 -31 -66 -31c-21 0 -33 1 -42 5c-10 5 -14 13 -14 28v429c0 25 10 30 49 30c38 0 48 -5 48 -30v-322h7l172 326c13 25 24 26 63 26z" />
    <glyph glyph-name="afii10076" unicode="&#x43a;" horiz-adv-x="442" 
d="M107 0c-38 0 -49 4 -49 30v432c0 26 11 30 49 30c37 0 48 -4 48 -30v-174h10l142 180c15 19 22 24 63 24c36 0 47 -5 47 -17c0 -9 -6 -20 -14 -30l-152 -188l165 -211c7 -9 13 -17 13 -27c0 -12 -14 -19 -50 -19c-38 0 -45 4 -60 24l-155 201h-9v-195
c0 -26 -11 -30 -48 -30z" />
    <glyph glyph-name="afii10077" unicode="&#x43b;" horiz-adv-x="509" 
d="M402 0c-38 0 -48 5 -48 30v378h-137l-37 -329c-6 -56 -26 -87 -90 -87c-21 0 -39 2 -58 6c-20 4 -27 12 -27 45c0 32 6 35 18 35s21 -3 37 -3c22 0 28 6 33 46l40 341c3 25 9 30 37 30h248c26 0 33 -5 33 -28v-434c0 -25 -10 -30 -49 -30z" />
    <glyph glyph-name="afii10078" unicode="&#x43c;" horiz-adv-x="632" 
d="M107 0c-39 0 -49 5 -49 30v427c0 26 9 35 66 35c52 0 64 -4 77 -38l112 -290h5l113 290c14 34 25 38 77 38c56 0 65 -9 65 -35v-427c0 -25 -10 -30 -48 -30s-49 5 -49 30c0 159 1 179 2 328h-7l-101 -267c-11 -29 -21 -34 -54 -34c-34 0 -43 5 -54 34l-102 267h-7
c1 -149 2 -169 2 -328c0 -25 -10 -30 -48 -30z" />
    <glyph glyph-name="afii10079" unicode="&#x43d;" horiz-adv-x="495" 
d="M155 296h185v166c0 25 10 30 48 30s48 -5 48 -30v-432c0 -25 -10 -30 -48 -30s-48 5 -48 30v183h-185v-183c0 -25 -10 -30 -48 -30c-39 0 -49 5 -49 30v432c0 25 10 30 49 30c38 0 48 -5 48 -30v-166z" />
    <glyph glyph-name="afii10080" unicode="&#x43e;" horiz-adv-x="500" 
d="M242 -10c-148 0 -194 42 -194 252s58 260 210 260c148 0 193 -40 193 -250s-57 -262 -209 -262zM244 72c91 0 109 31 109 171c0 153 -14 177 -99 177c-90 0 -107 -29 -107 -169c0 -153 12 -179 97 -179z" />
    <glyph glyph-name="afii10081" unicode="&#x43f;" horiz-adv-x="495" 
d="M107 0c-39 0 -49 5 -49 30v434c0 23 7 28 33 28h313c26 0 32 -5 32 -28v-434c0 -25 -10 -30 -48 -30s-48 5 -48 30v379h-185v-379c0 -25 -10 -30 -48 -30z" />
    <glyph glyph-name="afii10082" unicode="&#x440;" horiz-adv-x="525" 
d="M117 -188c-38 0 -49 4 -49 30v459c0 104 -22 150 -22 168c0 15 7 23 45 23c34 0 41 -3 47 -26l12 -49c26 54 76 85 160 85c136 0 167 -54 167 -252c0 -220 -58 -260 -185 -260c-62 0 -104 14 -127 54v-202c0 -26 -11 -30 -48 -30zM272 72c85 0 106 24 106 180
c0 142 -15 168 -95 168s-120 -25 -120 -151v-55c0 -108 20 -142 109 -142z" />
    <glyph glyph-name="afii10083" unicode="&#x441;" horiz-adv-x="429" 
d="M245 -10c-133 0 -197 30 -197 251c0 237 77 261 197 261c43 0 91 -8 124 -18c19 -6 26 -13 26 -43c0 -31 -6 -39 -18 -39s-72 17 -122 17c-82 0 -109 -16 -109 -168c0 -155 12 -177 111 -177c67 0 108 19 122 19c10 0 16 -8 16 -39c0 -29 -6 -37 -25 -43
c-34 -12 -86 -21 -125 -21z" />
    <glyph glyph-name="afii10084" unicode="&#x442;" horiz-adv-x="406" 
d="M203 0c-38 0 -49 5 -49 30v375h-110c-21 0 -28 8 -28 43c0 36 7 44 28 44h318c21 0 28 -8 28 -44c0 -35 -7 -43 -28 -43h-111v-375c0 -25 -10 -30 -48 -30z" />
    <glyph glyph-name="afii10085" unicode="&#x443;" horiz-adv-x="461" 
d="M22 467c0 15 5 25 50 25c38 0 47 -3 53 -25l100 -384h9l102 384c6 22 14 25 52 25c44 0 52 -8 52 -24c0 -8 -2 -22 -14 -61l-136 -448c-34 -113 -56 -153 -152 -153c-34 0 -66 5 -88 12c-17 5 -25 12 -25 40c0 31 5 40 18 40c12 0 38 -8 84 -8c48 0 60 12 72 58l13 52
c-45 1 -58 14 -69 50l-105 344c-16 52 -16 65 -16 73z" />
    <glyph glyph-name="afii10086" unicode="&#x444;" horiz-adv-x="798" 
d="M206 -10c-136 0 -164 54 -164 252c0 220 54 260 181 260c62 0 103 -15 124 -63v185c0 26 11 30 49 30c37 0 48 -4 48 -30v-191c24 54 73 69 142 69c136 0 163 -54 163 -252c0 -220 -54 -260 -181 -260c-61 0 -103 18 -124 62v-210c0 -26 -11 -30 -48 -30
c-38 0 -49 4 -49 30v216c-28 -51 -78 -68 -141 -68zM235 72c89 0 114 36 114 140v66c0 108 -15 142 -103 142c-86 0 -105 -24 -105 -180c0 -142 14 -168 94 -168zM546 72c85 0 104 24 104 180c0 142 -13 168 -93 168c-87 0 -114 -24 -114 -142v-68c0 -106 14 -138 103 -138z
" />
    <glyph glyph-name="afii10087" unicode="&#x445;" horiz-adv-x="446" 
d="M70 0c-37 0 -48 7 -48 21c0 6 3 13 11 26l133 207l-119 184c-9 14 -14 24 -14 31c0 17 13 23 52 23c41 0 49 -3 58 -23l79 -135h4l77 135c10 21 17 23 58 23c39 0 52 -6 52 -23c0 -7 -4 -16 -13 -29l-121 -181l133 -211c8 -12 12 -21 12 -26c0 -14 -11 -22 -48 -22
c-41 0 -53 4 -64 30l-88 153h-4l-86 -153c-11 -26 -23 -30 -64 -30z" />
    <glyph glyph-name="afii10088" unicode="&#x446;" horiz-adv-x="497" 
d="M440 -108c-31 0 -40 3 -43 24l-14 84h-292c-26 0 -33 5 -33 28v434c0 25 10 30 49 30c38 0 48 -5 48 -30v-375h168v375c0 25 10 30 49 30c38 0 48 -5 48 -30v-375h21c26 0 35 -4 35 -32v-139c0 -21 -8 -24 -36 -24z" />
    <glyph glyph-name="afii10089" unicode="&#x447;" horiz-adv-x="455" 
d="M193 167c-113 0 -159 26 -159 159v136c0 25 10 30 49 30c38 0 48 -5 48 -30v-123c0 -77 17 -87 82 -87c25 0 57 1 87 4v206c0 25 10 30 48 30s48 -5 48 -30v-432c0 -25 -10 -30 -48 -30s-48 5 -48 30v146c-32 -6 -70 -9 -107 -9z" />
    <glyph glyph-name="afii10090" unicode="&#x448;" horiz-adv-x="729" 
d="M623 492c38 0 48 -5 48 -30v-434c0 -23 -7 -28 -33 -28h-547c-26 0 -33 5 -33 28v434c0 25 10 30 49 30c38 0 48 -5 48 -30v-375h161v375c0 25 10 30 49 30c38 0 48 -5 48 -30v-375h161v375c0 25 10 30 49 30z" />
    <glyph glyph-name="afii10091" unicode="&#x449;" horiz-adv-x="748" 
d="M691 -108c-31 0 -40 3 -43 24l-14 84h-543c-26 0 -33 5 -33 28v434c0 25 10 30 49 30c38 0 48 -5 48 -30v-375h161v375c0 25 10 30 49 30c38 0 48 -5 48 -30v-375h161v375c0 25 10 30 49 30c38 0 48 -5 48 -30v-375h21c26 0 35 -4 35 -32v-139c0 -21 -8 -24 -36 -24z" />
    <glyph glyph-name="afii10092" unicode="&#x44a;" horiz-adv-x="499" 
d="M86 405h-48c-21 0 -28 8 -28 43c0 36 7 44 28 44h96c38 0 49 -4 49 -30v-156h97c138 0 187 -24 187 -148c0 -143 -62 -166 -200 -166c-58 0 -99 3 -147 9c-29 4 -34 10 -34 33v371zM287 226h-104v-148c21 -2 51 -4 90 -4c81 0 97 13 97 81c0 55 -15 71 -83 71z" />
    <glyph glyph-name="afii10093" unicode="&#x44b;" horiz-adv-x="681" 
d="M575 0c-38 0 -49 4 -49 30v432c0 26 11 30 49 30s48 -4 48 -30v-432c0 -26 -10 -30 -48 -30zM240 -8c-58 0 -100 3 -148 9c-29 4 -34 10 -34 33v428c0 26 11 30 49 30c37 0 48 -4 48 -30v-156h97c138 0 187 -24 187 -148c0 -143 -62 -166 -199 -166zM259 226h-104v-148
c21 -2 51 -4 90 -4c81 0 97 13 97 81c0 55 -14 71 -83 71z" />
    <glyph glyph-name="afii10094" unicode="&#x44c;" horiz-adv-x="471" 
d="M240 -8c-58 0 -100 3 -148 9c-29 4 -34 10 -34 33v428c0 26 11 30 49 30c37 0 48 -4 48 -30v-156h97c138 0 187 -24 187 -148c0 -143 -62 -166 -199 -166zM259 226h-104v-148c21 -2 51 -4 90 -4c81 0 97 13 97 81c0 55 -14 71 -83 71z" />
    <glyph glyph-name="afii10095" unicode="&#x44d;" horiz-adv-x="441" 
d="M185 -10c-39 0 -98 9 -132 21c-19 6 -25 14 -25 43c0 31 6 39 16 39c18 0 61 -19 133 -19c103 0 123 18 125 141h-172c-23 0 -28 7 -28 37s5 37 28 37h173c-3 116 -22 130 -108 130c-69 0 -127 -15 -144 -15c-11 0 -17 8 -17 38s7 38 26 43c33 9 95 17 141 17
c144 0 195 -24 195 -261c0 -221 -63 -251 -211 -251z" />
    <glyph glyph-name="afii10096" unicode="&#x44e;" horiz-adv-x="701" 
d="M443 -10c-142 0 -190 38 -194 225h-94v-185c0 -26 -11 -30 -48 -30c-38 0 -49 4 -49 30v432c0 26 11 30 49 30c37 0 48 -4 48 -30v-165h96c10 164 70 205 208 205c148 0 194 -40 194 -250s-58 -262 -210 -262zM446 72c91 0 108 31 108 171c0 153 -13 177 -98 177
c-91 0 -108 -29 -108 -169c0 -153 13 -179 98 -179z" />
    <glyph glyph-name="afii10097" unicode="&#x44f;" horiz-adv-x="490" 
d="M80 0c-38 0 -44 7 -44 18c0 6 4 15 13 31l87 153c-64 16 -87 55 -87 140c0 135 62 158 201 158c56 0 100 -4 147 -9c30 -3 35 -10 35 -33v-428c0 -26 -11 -30 -49 -30s-48 4 -48 30v163h-111l-83 -167c-11 -22 -17 -26 -61 -26zM148 335c0 -53 14 -65 83 -65h104v140
c-22 3 -51 5 -91 5c-80 0 -96 -13 -96 -80z" />
    <glyph glyph-name="afii10071" unicode="&#x451;" horiz-adv-x="471" 
d="M255 -10c-143 0 -207 30 -207 251c0 237 75 261 201 261c160 0 180 -75 180 -233c0 -32 -7 -48 -40 -48h-243c2 -128 19 -147 117 -147c78 0 128 19 143 19c10 0 16 -8 16 -39c0 -29 -7 -37 -26 -43c-33 -12 -96 -21 -141 -21zM247 421c-72 0 -97 -16 -101 -136h190
c0 95 -3 136 -89 136zM157 562c-44 0 -51 7 -51 37v19c0 29 7 36 51 36s51 -7 51 -36v-19c0 -30 -7 -37 -51 -37zM313 562c-44 0 -51 7 -51 37v19c0 29 7 36 51 36c43 0 50 -7 50 -36v-19c0 -30 -7 -37 -50 -37z" />
    <glyph glyph-name="afii10099" unicode="&#x452;" horiz-adv-x="502" 
d="M107 0c-38 0 -48 4 -48 30v498h-29c-21 0 -25 6 -25 31s4 31 25 31h29v34c0 26 10 30 48 30s49 -4 49 -30v-34h121c21 0 26 -6 26 -31s-5 -31 -26 -31h-121v-122c26 48 73 70 152 70c109 0 136 -43 136 -133v-412c0 -90 -35 -125 -109 -125c-28 0 -55 4 -74 10
c-19 5 -27 12 -27 41c0 34 6 38 18 38c11 0 32 -5 55 -5c32 0 40 6 40 61v369c0 54 -13 72 -74 72c-87 0 -117 -47 -117 -166v-196c0 -26 -11 -30 -49 -30z" />
    <glyph glyph-name="afii10100" unicode="&#x453;" horiz-adv-x="346" 
d="M159 539c-29 0 -41 6 -41 18c0 7 6 20 11 30l41 83c12 25 16 31 59 31s53 -6 53 -18c0 -10 -7 -23 -15 -36l-51 -82c-11 -17 -16 -26 -57 -26zM107 0c-39 0 -49 5 -49 30v434c0 23 7 28 33 28h217c21 0 28 -8 28 -44c0 -35 -7 -43 -28 -43h-153v-375
c0 -25 -10 -30 -48 -30z" />
    <glyph glyph-name="afii10101" unicode="&#x454;" horiz-adv-x="445" 
d="M260 -10c-148 0 -212 30 -212 251c0 237 52 261 195 261c46 0 109 -8 142 -17c19 -5 26 -13 26 -43s-6 -38 -18 -38c-16 0 -74 15 -143 15c-87 0 -106 -14 -108 -130h173c23 0 28 -7 28 -37s-5 -37 -28 -37h-173c2 -122 21 -141 126 -141c72 0 115 19 133 19
c10 0 16 -8 16 -39c0 -29 -7 -37 -26 -43c-33 -12 -93 -21 -131 -21z" />
    <glyph glyph-name="afii10102" unicode="&#x455;" horiz-adv-x="433" 
d="M200 -10c-45 0 -97 7 -132 18c-19 6 -26 14 -26 43c0 31 6 40 16 40c15 0 67 -17 133 -17c76 0 101 22 101 69c0 28 -11 40 -35 50l-128 54c-41 18 -72 52 -72 121c0 108 80 134 161 134c45 0 98 -7 136 -17c19 -5 25 -12 25 -46c0 -35 -9 -37 -18 -37
c-14 0 -69 18 -128 18c-60 0 -78 -17 -78 -53c0 -27 7 -41 35 -53l125 -50c57 -23 75 -58 75 -116c0 -117 -79 -158 -190 -158z" />
    <glyph glyph-name="afii10103" unicode="&#x456;" horiz-adv-x="214" 
d="M105 0c-38 0 -49 4 -49 30v432c0 26 11 30 49 30s48 -4 48 -30v-432c0 -26 -10 -30 -48 -30zM105 562c-47 0 -54 7 -54 37v19c0 29 7 36 54 36s53 -7 53 -36v-19c0 -30 -6 -37 -53 -37z" />
    <glyph glyph-name="afii10104" unicode="&#x457;" horiz-adv-x="214" 
d="M30 562c-44 0 -51 7 -51 37v19c0 29 7 36 51 36s51 -7 51 -36v-19c0 -30 -7 -37 -51 -37zM186 562c-44 0 -51 7 -51 37v19c0 29 7 36 51 36c43 0 50 -7 50 -36v-19c0 -30 -7 -37 -50 -37zM105 0c-38 0 -49 4 -49 30v432c0 26 11 30 49 30s48 -4 48 -30v-432
c0 -26 -10 -30 -48 -30z" />
    <glyph glyph-name="afii10105" unicode="&#x458;" horiz-adv-x="214" 
d="M105 492c38 0 48 -4 48 -30v-531c0 -90 -35 -125 -109 -125c-27 0 -55 4 -74 10c-19 5 -27 12 -27 41c0 34 6 38 19 38c10 0 31 -5 54 -5c33 0 40 6 40 61v511c0 26 11 30 49 30zM105 562c-47 0 -54 7 -54 37v19c0 29 7 36 54 36s53 -7 53 -36v-19c0 -30 -6 -37 -53 -37z
" />
    <glyph glyph-name="afii10106" unicode="&#x459;" horiz-adv-x="764" 
d="M93 -8c-21 0 -39 2 -58 6c-20 4 -27 12 -27 45c0 32 6 35 18 35s21 -3 37 -3c22 0 28 6 33 46l40 341c3 25 9 30 37 30h245c26 0 33 -5 33 -28v-158h94c138 0 187 -24 187 -148c0 -143 -62 -166 -200 -166c-58 0 -96 3 -144 9c-29 4 -34 10 -34 33v374h-134l-37 -329
c-6 -56 -26 -87 -90 -87zM552 226h-101v-148c21 -2 48 -4 87 -4c81 0 97 13 97 81c0 55 -15 71 -83 71z" />
    <glyph glyph-name="afii10107" unicode="&#x45a;" horiz-adv-x="746" 
d="M107 0c-39 0 -49 5 -49 30v432c0 25 10 30 49 30c38 0 48 -5 48 -30v-166h182v166c0 25 10 30 48 30s48 -5 48 -30v-156h95c137 0 187 -24 187 -148c0 -143 -63 -166 -200 -166c-58 0 -97 3 -144 9c-29 4 -34 10 -34 33v179h-182v-183c0 -25 -10 -30 -48 -30zM534 226
h-101v-148c22 -2 48 -4 88 -4c80 0 96 13 96 81c0 55 -14 71 -83 71z" />
    <glyph glyph-name="afii10108" unicode="&#x45b;" horiz-adv-x="502" 
d="M5 559c0 25 4 31 25 31h29v34c0 26 10 30 48 30s49 -4 49 -30v-34h121c21 0 26 -6 26 -31s-5 -31 -26 -31h-121v-122c26 48 73 70 152 70c109 0 136 -43 136 -133v-313c0 -26 -11 -30 -49 -30c-37 0 -48 4 -48 30v290c0 54 -13 72 -74 72c-87 0 -117 -47 -117 -166v-196
c0 -26 -11 -30 -49 -30s-48 4 -48 30v498h-29c-21 0 -25 6 -25 31z" />
    <glyph glyph-name="afii10109" unicode="&#x45c;" horiz-adv-x="442" 
d="M193 539c-29 0 -41 6 -41 18c0 7 6 20 11 30l41 83c12 25 16 31 59 31s53 -6 53 -18c0 -10 -7 -23 -15 -36l-51 -82c-11 -17 -16 -26 -57 -26zM107 0c-38 0 -49 4 -49 30v432c0 26 11 30 49 30c37 0 48 -4 48 -30v-174h10l142 180c15 19 22 24 63 24c36 0 47 -5 47 -17
c0 -9 -6 -20 -14 -30l-152 -188l165 -211c7 -9 13 -17 13 -27c0 -12 -14 -19 -50 -19c-38 0 -45 4 -60 24l-155 201h-9v-195c0 -26 -11 -30 -48 -30z" />
    <glyph glyph-name="afii10110" unicode="&#x45e;" horiz-adv-x="461" 
d="M22 467c0 15 5 25 50 25c38 0 47 -3 53 -25l100 -384h9l102 384c6 22 14 25 52 25c44 0 52 -8 52 -24c0 -8 -2 -22 -14 -61l-136 -448c-34 -113 -56 -153 -152 -153c-34 0 -66 5 -88 12c-17 5 -25 12 -25 40c0 31 5 40 18 40c12 0 38 -8 84 -8c48 0 60 12 72 58l13 52
c-45 1 -58 14 -69 50l-105 344c-16 52 -16 65 -16 73zM230 551c-92 0 -115 28 -115 102c0 26 6 30 36 30s34 -4 35 -25c2 -27 4 -35 44 -35c39 0 42 8 43 35c1 21 6 25 36 25s35 -4 35 -30c0 -74 -23 -102 -114 -102z" />
    <glyph glyph-name="afii10193" unicode="&#x45f;" horiz-adv-x="478" 
d="M239 -108c-31 0 -33 4 -34 26l-5 82h-109c-26 0 -33 5 -33 28v434c0 25 10 30 49 30c38 0 48 -5 48 -30v-379h168v379c0 25 10 30 49 30c38 0 48 -5 48 -30v-434c0 -23 -7 -28 -33 -28h-110l-4 -82c-1 -22 -3 -26 -34 -26z" />
    <glyph glyph-name="afii10050" unicode="&#x490;" horiz-adv-x="404" 
d="M351 726c29 0 37 -3 37 -25v-138c0 -28 -9 -32 -36 -32h-197v-501c0 -25 -10 -30 -48 -30c-39 0 -49 5 -49 30v560c0 23 7 28 33 28h203l15 83c6 20 12 25 42 25z" />
    <glyph glyph-name="afii10098" unicode="&#x491;" horiz-adv-x="352" 
d="M299 600c29 0 37 -3 37 -24v-139c0 -28 -9 -32 -36 -32h-145v-375c0 -25 -10 -30 -48 -30c-39 0 -49 5 -49 30v434c0 23 7 28 33 28h151l15 84c6 20 11 24 42 24z" />
    <glyph glyph-name="Wgrave" unicode="&#x1e80;" horiz-adv-x="798" 
d="M213 0c-57 0 -77 4 -84 39l-110 527c-2 10 -3 21 -3 29c0 17 7 23 46 23c42 0 52 -5 56 -27l95 -501h11l106 486c6 27 24 32 69 32s64 -5 70 -32l105 -486h12l95 501c2 22 13 27 55 27c39 0 46 -6 46 -23c0 -8 -1 -19 -3 -29l-110 -527c-7 -35 -27 -39 -84 -39
c-56 0 -75 6 -83 41l-98 438h-10l-98 -438c-8 -35 -27 -41 -83 -41zM404 662c-40 0 -45 9 -56 26l-52 82c-7 13 -15 26 -15 36c0 12 11 18 54 18c44 0 47 -7 59 -31l41 -83c5 -10 10 -22 10 -31c0 -11 -9 -17 -41 -17z" />
    <glyph glyph-name="wgrave" unicode="&#x1e81;" horiz-adv-x="703" 
d="M190 0c-55 0 -72 6 -78 36l-84 389c-4 17 -6 31 -6 39c0 21 6 28 48 28c43 0 51 -4 56 -31l71 -374h11l79 360c6 28 20 35 65 35s59 -7 65 -35l79 -360h11l71 374c5 27 13 31 55 31c43 0 48 -7 48 -28c0 -8 -1 -22 -5 -39l-85 -389c-6 -30 -23 -36 -78 -36
c-58 0 -80 6 -87 36l-71 309h-7l-71 -309c-7 -30 -28 -36 -87 -36zM376 539c-40 0 -45 9 -56 26l-52 82c-7 13 -15 26 -15 36c0 12 11 18 54 18c44 0 47 -7 59 -31l41 -83c5 -10 10 -22 10 -31c0 -11 -9 -17 -41 -17z" />
    <glyph glyph-name="Wacute" unicode="&#x1e82;" horiz-adv-x="798" 
d="M213 0c-57 0 -77 4 -84 39l-110 527c-2 10 -3 21 -3 29c0 17 7 23 46 23c42 0 52 -5 56 -27l95 -501h11l106 486c6 27 24 32 69 32s64 -5 70 -32l105 -486h12l95 501c2 22 13 27 55 27c39 0 46 -6 46 -23c0 -8 -1 -19 -3 -29l-110 -527c-7 -35 -27 -39 -84 -39
c-56 0 -75 6 -83 41l-98 438h-10l-98 -438c-8 -35 -27 -41 -83 -41zM393 662c-29 0 -41 6 -41 18c0 7 6 20 11 30l41 83c12 25 16 31 59 31s53 -6 53 -18c0 -10 -7 -23 -15 -36l-51 -82c-11 -17 -16 -26 -57 -26z" />
    <glyph glyph-name="wacute" unicode="&#x1e83;" horiz-adv-x="703" 
d="M190 0c-55 0 -72 6 -78 36l-84 389c-4 17 -6 31 -6 39c0 21 6 28 48 28c43 0 51 -4 56 -31l71 -374h11l79 360c6 28 20 35 65 35s59 -7 65 -35l79 -360h11l71 374c5 27 13 31 55 31c43 0 48 -7 48 -28c0 -8 -1 -22 -5 -39l-85 -389c-6 -30 -23 -36 -78 -36
c-58 0 -80 6 -87 36l-71 309h-7l-71 -309c-7 -30 -28 -36 -87 -36zM328 539c-29 0 -41 6 -41 18c0 7 6 20 11 30l41 83c12 25 16 31 59 31s53 -6 53 -18c0 -10 -7 -23 -15 -36l-51 -82c-11 -17 -16 -26 -57 -26z" />
    <glyph glyph-name="Wdieresis" unicode="&#x1e84;" horiz-adv-x="798" 
d="M213 0c-57 0 -77 4 -84 39l-110 527c-2 10 -3 21 -3 29c0 17 7 23 46 23c42 0 52 -5 56 -27l95 -501h11l106 486c6 27 24 32 69 32s64 -5 70 -32l105 -486h12l95 501c2 22 13 27 55 27c39 0 46 -6 46 -23c0 -8 -1 -19 -3 -29l-110 -527c-7 -35 -27 -39 -84 -39
c-56 0 -75 6 -83 41l-98 438h-10l-98 -438c-8 -35 -27 -41 -83 -41zM321 690c-44 0 -51 7 -51 37v19c0 29 7 36 51 36s51 -7 51 -36v-19c0 -30 -7 -37 -51 -37zM477 690c-44 0 -51 7 -51 37v19c0 29 7 36 51 36c43 0 50 -7 50 -36v-19c0 -30 -7 -37 -50 -37z" />
    <glyph glyph-name="wdieresis" unicode="&#x1e85;" horiz-adv-x="703" 
d="M190 0c-55 0 -72 6 -78 36l-84 389c-4 17 -6 31 -6 39c0 21 6 28 48 28c43 0 51 -4 56 -31l71 -374h11l79 360c6 28 20 35 65 35s59 -7 65 -35l79 -360h11l71 374c5 27 13 31 55 31c43 0 48 -7 48 -28c0 -8 -1 -22 -5 -39l-85 -389c-6 -30 -23 -36 -78 -36
c-58 0 -80 6 -87 36l-71 309h-7l-71 -309c-7 -30 -28 -36 -87 -36zM274 562c-44 0 -51 7 -51 37v19c0 29 7 36 51 36s51 -7 51 -36v-19c0 -30 -7 -37 -51 -37zM430 562c-44 0 -51 7 -51 37v19c0 29 7 36 51 36c43 0 50 -7 50 -36v-19c0 -30 -7 -37 -50 -37z" />
    <glyph glyph-name="Eszett" unicode="&#x1e9e;" horiz-adv-x="504" 
d="M100 0c-38 0 -48 5 -48 30v443c0 105 46 153 191 153c47 0 106 -10 142 -21c34 -11 49 -25 49 -48c0 -16 -6 -33 -14 -49l-87 -162l77 -73c42 -45 66 -71 66 -134c0 -102 -51 -145 -155 -145c-33 0 -73 6 -100 13c-21 5 -26 12 -26 47c0 33 5 37 15 37
c15 0 49 -11 89 -11c64 0 77 22 77 67c0 27 -10 43 -31 62l-77 72c-17 17 -28 32 -28 51c0 15 5 28 14 46l80 150c-16 6 -57 13 -92 13c-86 0 -94 -21 -94 -64v-447c0 -25 -10 -30 -48 -30z" />
    <glyph glyph-name="Ygrave" unicode="&#x1ef2;" horiz-adv-x="463" 
d="M232 0c-39 0 -49 5 -49 30v203l-155 324c-10 22 -12 31 -12 38c0 13 8 23 43 23c46 0 55 -5 64 -27l106 -255h5l106 255c9 22 17 27 62 27c38 0 46 -9 46 -22c0 -7 -3 -17 -13 -39l-155 -324v-203c0 -25 -10 -30 -48 -30zM252 662c-40 0 -45 9 -56 26l-52 82
c-7 13 -15 26 -15 36c0 12 11 18 54 18c44 0 47 -7 59 -31l41 -83c5 -10 10 -22 10 -31c0 -11 -9 -17 -41 -17z" />
    <glyph glyph-name="ygrave" unicode="&#x1ef3;" horiz-adv-x="461" 
d="M22 467c0 15 5 25 50 25c38 0 47 -3 53 -25l100 -384h9l102 384c6 22 14 25 52 25c44 0 52 -8 52 -24c0 -8 -2 -22 -14 -61l-136 -448c-34 -113 -56 -153 -152 -153c-34 0 -66 5 -88 12c-17 5 -25 12 -25 40c0 31 5 40 18 40c12 0 38 -8 84 -8c48 0 60 12 72 58l13 52
c-45 1 -58 14 -69 50l-105 344c-16 52 -16 65 -16 73zM252 539c-40 0 -45 9 -56 26l-52 82c-7 13 -15 26 -15 36c0 12 11 18 54 18c44 0 47 -7 59 -31l41 -83c5 -10 10 -22 10 -31c0 -11 -9 -17 -41 -17z" />
    <glyph glyph-name="endash" unicode="&#x2013;" horiz-adv-x="419" 
d="M33 261c0 36 5 43 28 43h297c23 0 28 -7 28 -43s-5 -43 -28 -43h-297c-23 0 -28 7 -28 43z" />
    <glyph glyph-name="emdash" unicode="&#x2014;" horiz-adv-x="667" 
d="M33 261c0 36 5 43 28 43h545c23 0 28 -7 28 -43s-5 -43 -28 -43h-545c-23 0 -28 7 -28 43z" />
    <glyph glyph-name="afii00208" unicode="&#x2015;" horiz-adv-x="667" 
d="M33 261c0 36 5 43 28 43h545c23 0 28 -7 28 -43s-5 -43 -28 -43h-545c-23 0 -28 7 -28 43z" />
    <glyph glyph-name="quoteleft" unicode="&#x2018;" horiz-adv-x="195" 
d="M90 419c-42 0 -50 7 -50 36v27c0 27 6 54 15 84l16 54c11 28 19 34 52 34c25 0 30 -6 30 -18c0 -20 -13 -76 -13 -125v-56c0 -29 -7 -36 -50 -36z" />
    <glyph glyph-name="quoteright" unicode="&#x2019;" horiz-adv-x="195" 
d="M105 654c43 0 50 -7 50 -36v-27c0 -28 -6 -55 -15 -84l-16 -55c-11 -28 -19 -33 -51 -33c-26 0 -31 5 -31 18c0 20 14 75 14 125v56c0 29 7 36 49 36z" />
    <glyph glyph-name="quotesinglbase" unicode="&#x201a;" horiz-adv-x="165" 
d="M81 105c42 0 50 -7 50 -36v-27c0 -28 -6 -55 -15 -84l-16 -55c-11 -28 -19 -33 -52 -33c-25 0 -30 5 -30 18c0 20 13 75 13 125v56c0 29 7 36 50 36z" />
    <glyph glyph-name="quotedblleft" unicode="&#x201c;" horiz-adv-x="355" 
d="M90 419c-42 0 -50 7 -50 36v27c0 27 6 54 15 84l16 54c11 28 19 34 52 34c25 0 30 -6 30 -18c0 -20 -13 -76 -13 -125v-56c0 -29 -7 -36 -50 -36zM249 419c-42 0 -49 7 -49 36v27c0 27 6 54 15 84l16 54c10 28 18 34 51 34c25 0 30 -6 30 -18c0 -20 -13 -76 -13 -125v-56
c0 -29 -7 -36 -50 -36z" />
    <glyph glyph-name="quotedblright" unicode="&#x201d;" horiz-adv-x="355" 
d="M265 654c42 0 49 -7 49 -36v-27c0 -28 -6 -55 -15 -84l-16 -55c-11 -28 -18 -33 -51 -33c-25 0 -30 5 -30 18c0 20 13 75 13 125v56c0 29 7 36 50 36zM105 654c43 0 50 -7 50 -36v-27c0 -28 -6 -55 -15 -84l-16 -55c-11 -28 -19 -33 -51 -33c-26 0 -31 5 -31 18
c0 20 14 75 14 125v56c0 29 7 36 49 36z" />
    <glyph glyph-name="quotedblbase" unicode="&#x201e;" horiz-adv-x="324" 
d="M81 105c42 0 50 -7 50 -36v-27c0 -28 -6 -55 -15 -84l-16 -55c-11 -28 -19 -33 -52 -33c-25 0 -30 5 -30 18c0 20 13 75 13 125v56c0 29 7 36 50 36zM240 105c43 0 50 -7 50 -36v-27c0 -28 -6 -55 -15 -84l-16 -55c-11 -28 -19 -33 -52 -33c-25 0 -30 5 -30 18
c0 20 14 75 14 125v56c0 29 7 36 49 36z" />
    <glyph glyph-name="dagger" unicode="&#x2020;" horiz-adv-x="432" 
d="M216 -190c-36 0 -48 4 -48 28v487h-114c-23 0 -28 6 -28 42s5 42 28 42h114v140c0 24 12 28 48 28s48 -4 48 -28v-140h114c23 0 28 -6 28 -42s-5 -42 -28 -42h-114v-487c0 -24 -12 -28 -48 -28z" />
    <glyph glyph-name="daggerdbl" unicode="&#x2021;" horiz-adv-x="432" 
d="M216 -190c-36 0 -48 4 -48 28v140h-114c-23 0 -28 7 -28 43c0 35 5 41 28 41h114v263h-114c-23 0 -28 6 -28 42s5 42 28 42h114v140c0 24 12 28 48 28s48 -4 48 -28v-140h114c23 0 28 -6 28 -42s-5 -42 -28 -42h-114v-263h114c23 0 28 -6 28 -41c0 -36 -5 -43 -28 -43
h-114v-140c0 -24 -12 -28 -48 -28z" />
    <glyph glyph-name="bullet" unicode="&#x2022;" horiz-adv-x="302" 
d="M151 148c-91 0 -121 26 -121 125c0 103 30 122 121 122s121 -19 121 -122c0 -99 -30 -125 -121 -125z" />
    <glyph glyph-name="ellipsis" unicode="&#x2026;" horiz-adv-x="558" 
d="M91 0c-43 0 -52 6 -52 36v33c0 31 9 36 52 36c42 0 51 -5 51 -36v-33c0 -30 -9 -36 -51 -36zM280 0c-43 0 -52 6 -52 36v33c0 31 9 36 52 36c42 0 51 -5 51 -36v-33c0 -30 -9 -36 -51 -36zM469 0c-43 0 -52 6 -52 36v33c0 31 9 36 52 36c42 0 51 -5 51 -36v-33
c0 -30 -9 -36 -51 -36z" />
    <glyph glyph-name="perthousand" unicode="&#x2030;" horiz-adv-x="797" 
d="M384 0c-97 0 -117 29 -117 139c0 111 24 138 117 138c94 0 117 -27 117 -138c0 -110 -19 -139 -117 -139zM384 61c42 0 46 13 46 77c0 65 -4 78 -46 78c-41 0 -45 -13 -45 -78c0 -64 4 -77 45 -77zM136 341c-97 0 -116 29 -116 139c0 111 23 138 116 138
c94 0 118 -27 118 -138c0 -110 -20 -139 -118 -139zM136 402c42 0 46 13 46 77s-4 77 -46 77c-41 0 -45 -13 -45 -77s4 -77 45 -77zM82 0c-25 0 -34 5 -34 15c0 7 2 13 11 28l324 555c8 15 17 20 54 20c25 0 34 -5 34 -15c0 -7 -2 -13 -11 -29l-324 -554
c-8 -15 -17 -20 -54 -20zM660 0c-97 0 -117 29 -117 139c0 111 24 138 117 138s117 -27 117 -138c0 -110 -20 -139 -117 -139zM660 61c41 0 45 13 45 77c0 65 -3 78 -45 78s-45 -13 -45 -78c0 -64 4 -77 45 -77z" />
    <glyph glyph-name="guilsinglleft" unicode="&#x2039;" horiz-adv-x="319" 
d="M129 256v-8l134 -101c20 -16 24 -23 24 -62c0 -29 -8 -35 -18 -35c-6 0 -14 4 -22 9l-179 118c-25 17 -36 26 -36 75c0 48 11 57 36 74l179 118c8 5 16 9 22 9c10 0 18 -5 18 -35c0 -39 -3 -47 -24 -62z" />
    <glyph glyph-name="guilsinglright" unicode="&#x203a;" horiz-adv-x="319" 
d="M287 252c0 -49 -11 -58 -36 -75l-179 -118c-8 -5 -16 -9 -22 -9c-10 0 -18 6 -18 35c0 39 4 46 24 62l134 101v8l-134 100c-21 15 -24 23 -24 62c0 30 8 35 18 35c6 0 14 -4 22 -9l179 -118c25 -17 36 -26 36 -74z" />
    <glyph glyph-name="fraction" unicode="&#x2044;" 
d="M342 626c26 0 34 -3 34 -15c0 -7 -2 -14 -7 -28l-207 -559c-7 -18 -15 -24 -45 -24c-26 0 -34 4 -34 15c0 7 2 14 7 28l207 560c6 17 15 23 45 23z" />
    <glyph glyph-name="Euro" unicode="&#x20ac;" 
d="M323 275c0 -6 -6 -29 -11 -42c-3 -9 -8 -11 -14 -11h-133c4 -135 31 -144 122 -144c69 0 109 17 124 17c13 0 17 -3 17 -39c0 -35 -8 -40 -24 -45c-40 -12 -92 -19 -140 -19c-113 0 -185 16 -192 230h-45c-7 0 -10 4 -10 9c0 7 6 30 10 42c4 10 9 11 15 11h30v59h-45
c-7 0 -10 3 -10 9c0 7 6 29 10 42c4 10 9 11 15 11h31c9 200 81 218 193 218c48 0 98 -8 138 -19c16 -5 24 -9 24 -46c0 -35 -5 -38 -17 -38c-13 0 -59 17 -124 17c-93 0 -118 -13 -122 -132h169c8 0 11 -3 11 -9s-6 -29 -11 -42c-3 -9 -8 -11 -14 -11h-155v-59h147
c8 0 11 -3 11 -9z" />
    <glyph glyph-name="hryvnia" unicode="&#x20b4;" 
d="M50 363c0 28 6 33 26 33h166l30 35c23 27 37 49 37 71c0 26 -20 34 -86 34c-68 0 -130 -17 -144 -17c-12 0 -18 7 -18 39c0 35 8 42 23 46c41 12 113 19 157 19c94 0 157 -17 157 -102c0 -45 -22 -82 -59 -125h46c20 0 26 -5 26 -33c0 -29 -6 -34 -26 -34h-104l-36 -43
h140c20 0 26 -4 26 -33s-6 -33 -26 -33h-196c-42 -47 -51 -65 -51 -93c0 -39 34 -48 109 -48s132 15 151 15c11 0 17 -4 17 -38c0 -33 -6 -41 -24 -46c-41 -10 -109 -18 -168 -18c-107 0 -174 21 -174 123c0 39 14 70 41 105h-14c-20 0 -26 4 -26 33s6 33 26 33h71l37 43
h-108c-20 0 -26 5 -26 34z" />
    <glyph glyph-name="afii61352" unicode="&#x2116;" horiz-adv-x="906" 
d="M575 137c0 36 5 43 27 43h216c23 0 28 -7 28 -43c0 -35 -5 -43 -28 -43h-216c-22 0 -27 8 -27 43zM707 249c-96 0 -147 19 -147 183c0 171 51 191 160 191c95 0 147 -17 147 -181c0 -172 -51 -193 -160 -193zM708 316c60 0 77 13 77 117c0 113 -17 123 -67 123
c-60 0 -76 -11 -76 -116c0 -112 16 -124 66 -124zM104 0c-39 0 -49 5 -49 30v558c0 25 12 30 64 30c40 0 56 -3 68 -29l193 -428h9v427c0 25 10 30 48 30c39 0 49 -5 49 -30v-558c0 -25 -10 -30 -62 -30c-40 0 -52 1 -65 29l-198 428h-9v-427c0 -25 -10 -30 -48 -30z" />
    <glyph glyph-name="trademark" unicode="&#x2122;" horiz-adv-x="770" 
d="M168 276c-37 0 -42 5 -42 30v236h-72c-21 0 -28 3 -28 38s7 38 28 38h229c21 0 28 -3 28 -38s-7 -38 -28 -38h-72v-236c0 -25 -5 -30 -43 -30zM402 273c-37 0 -43 5 -43 29v281c0 28 7 35 68 35c51 0 62 -4 75 -42l50 -145l49 145c13 38 25 42 76 42c61 0 67 -7 67 -35
v-281c0 -24 -5 -29 -42 -29c-38 0 -43 5 -43 29c0 69 1 140 1 208h-8l-55 -152c-10 -27 -15 -32 -45 -32s-36 5 -46 32l-54 152h-8c0 -68 1 -139 1 -208c0 -24 -6 -29 -43 -29z" />
    <glyph glyph-name="minus" unicode="&#x2212;" 
d="M91 261c0 36 5 43 27 43h227c23 0 28 -7 28 -43s-5 -43 -28 -43h-227c-22 0 -27 7 -27 43z" />
    <glyph glyph-name="ruble" 
d="M126 0c-38 0 -48 5 -48 30v117h-36c-20 0 -26 4 -26 33s6 34 26 34h36v49h-36c-20 0 -26 5 -26 34s6 33 26 33h36v248c0 25 11 33 31 36c45 5 94 9 141 9c145 0 183 -22 183 -163c0 -148 -43 -197 -196 -197h-62v-49h164c20 0 26 -5 26 -34s-6 -33 -26 -33h-164v-117
c0 -25 -10 -30 -49 -30zM175 544v-214h61c86 0 102 29 102 122c0 81 -7 96 -93 96c-25 0 -51 -2 -70 -4z" />
    </font>
</defs>
</svg>
