<?xml version="1.0" standalone="no"?>
<!DOCTYPE svg PUBLIC "-//W3C//DTD SVG 20010904//EN"
 "http://www.w3.org/TR/2001/REC-SVG-20010904/DTD/svg10.dtd">
<svg version="1.0" xmlns="http://www.w3.org/2000/svg"
 width="768.000000pt" height="768.000000pt" viewBox="0 0 768.000000 768.000000"
 preserveAspectRatio="xMidYMid meet">
<metadata>
Created by potrace 1.11, written by Peter Selinger 2001-2013
</metadata>
<g transform="translate(0.000000,768.000000) scale(0.100000,-0.100000)"
fill="#000000" stroke="none">
<path d="M2129 7675 c-3 -2 -35 -6 -73 -10 -38 -3 -72 -8 -75 -10 -3 -1 -31
-6 -61 -9 -30 -3 -70 -10 -88 -15 -18 -5 -35 -10 -37 -10 -3 -1 -6 -1 -7 -2
-2 0 -12 -2 -23 -3 -11 -2 -56 -13 -100 -25 -44 -12 -87 -24 -95 -26 -8 -2
-16 -4 -17 -5 -2 -2 -6 -3 -10 -4 -5 -1 -18 -7 -30 -14 -13 -7 -23 -11 -23 -8
0 13 -312 -130 -318 -146 -2 -4 -8 -8 -13 -8 -15 0 -173 -102 -182 -117 -4 -7
-14 -13 -22 -13 -7 0 -15 -3 -17 -7 -1 -5 -28 -28 -58 -52 -131 -106 -269
-260 -364 -406 -81 -125 -205 -391 -221 -477 -2 -10 -7 -23 -10 -28 -3 -5 -8
-18 -10 -27 -1 -10 -11 -47 -20 -83 -20 -75 -19 -71 -35 -170 -6 -41 -13 -86
-16 -100 -21 -128 -26 -653 -6 -693 2 -4 5 -34 7 -66 2 -32 8 -85 14 -117 5
-32 12 -75 15 -94 3 -19 15 -80 26 -135 12 -55 23 -113 25 -128 3 -16 7 -33
11 -38 3 -5 8 -22 11 -37 10 -54 28 -118 59 -215 14 -43 27 -83 28 -90 2 -7 5
-19 8 -27 3 -8 20 -55 38 -105 17 -49 38 -106 46 -125 17 -43 37 -93 39 -100
2 -5 12 -30 37 -90 36 -83 65 -146 156 -330 53 -107 102 -201 109 -208 6 -6
15 -21 18 -33 4 -11 29 -56 56 -100 27 -44 49 -83 49 -85 0 -3 13 -25 30 -49
16 -24 30 -48 30 -54 0 -6 5 -11 10 -11 6 0 10 -5 10 -11 0 -6 25 -47 55 -91
30 -44 55 -83 55 -88 0 -5 3 -10 8 -12 4 -1 22 -25 40 -52 l34 -49 0 -1036 c0
-863 2 -1044 14 -1090 53 -206 228 -357 436 -377 113 -10 119 -10 124 -3 2 4
20 3 39 -1 19 -4 35 -5 35 -1 0 7 120 5 127 -3 2 -2 18 0 34 4 16 5 31 5 34 0
3 -5 16 -5 30 0 15 6 27 6 30 0 3 -6 15 -6 29 0 13 5 27 6 30 3 7 -8 84 -8 92
-1 3 3 21 2 40 -2 18 -4 34 -5 34 -1 0 7 119 5 127 -3 3 -3 13 -2 22 3 9 5 25
5 36 1 11 -4 30 -4 42 1 13 5 25 4 28 -1 4 -7 13 -7 24 0 10 5 21 7 24 3 6 -5
79 -7 102 -3 6 1 20 1 31 1 l22 -2 0 436 c0 240 2 438 4 441 3 2 13 -4 24 -14
10 -9 39 -30 64 -47 25 -16 47 -33 48 -37 2 -5 10 -8 17 -8 7 0 15 -4 17 -8 4
-11 155 -112 167 -112 5 0 11 -4 13 -8 3 -7 233 -152 242 -152 2 0 43 -23 92
-51 109 -63 387 -202 437 -218 20 -7 37 -17 37 -22 0 -5 3 -8 8 -7 4 2 68 -21
142 -51 181 -71 237 -92 255 -96 6 -2 38 -12 71 -23 34 -11 106 -32 160 -47
55 -15 122 -33 149 -40 28 -7 68 -17 90 -21 22 -4 42 -8 45 -9 3 -1 30 -5 60
-10 30 -5 57 -9 60 -10 18 -4 92 -16 130 -20 25 -3 65 -8 90 -12 108 -16 584
-8 673 12 12 2 39 7 59 10 21 2 59 10 85 16 27 6 58 13 70 15 12 2 33 8 45 13
13 5 25 9 28 9 13 0 114 33 190 62 180 70 390 198 519 318 14 13 45 41 68 62
40 37 111 120 163 190 14 18 31 39 38 46 6 7 12 15 12 18 0 4 15 28 33 54 53
79 120 207 162 312 14 36 30 74 35 85 9 21 50 147 54 168 2 7 6 19 9 27 3 8
13 52 22 98 23 118 16 497 -11 572 -3 8 -8 25 -10 38 -2 12 -12 44 -22 70
l-18 47 -622 1 c-457 1 -622 -1 -622 -10 0 -6 5 -30 10 -53 12 -52 21 -149 22
-233 0 -74 -11 -210 -18 -222 -3 -4 -7 -17 -9 -27 -6 -32 -39 -136 -45 -141
-3 -3 -12 -18 -20 -35 -36 -72 -99 -145 -187 -216 -44 -36 -200 -100 -313
-129 -202 -53 -300 -65 -545 -64 -194 0 -263 6 -455 40 -47 8 -98 17 -115 20
-16 3 -41 9 -55 14 -14 5 -36 11 -50 13 -32 5 -120 30 -240 70 -52 17 -97 31
-100 32 -3 0 -9 3 -15 6 -5 4 -28 12 -50 19 -22 7 -44 16 -50 20 -5 3 -32 15
-60 25 -92 34 -400 182 -485 233 -19 12 -51 30 -70 39 -19 10 -36 21 -38 26
-2 4 -10 7 -18 7 -8 0 -14 5 -14 10 0 6 -5 10 -11 10 -5 0 -42 21 -82 47 -40
25 -97 62 -127 82 -93 60 -368 264 -415 307 -14 13 -28 24 -31 24 -3 0 -11 6
-18 12 -7 7 -37 33 -66 58 -29 25 -62 53 -74 63 -114 98 -390 372 -511 507
-100 112 -118 133 -185 215 -36 44 -75 91 -87 105 -13 14 -23 28 -23 31 0 4
-16 24 -35 45 -19 22 -35 44 -35 51 0 6 -3 13 -7 15 -18 7 -233 319 -233 336
0 6 -4 12 -8 14 -10 4 -75 109 -98 157 -8 19 -22 40 -30 48 -8 8 -14 21 -14
28 0 7 -6 20 -14 28 -23 22 -196 378 -253 517 -63 156 -65 163 -69 175 -1 6
-13 42 -27 80 -21 58 -55 166 -63 198 -1 4 -2 8 -4 10 -2 2 -3 5 -30 112 -32
124 -57 250 -75 380 -3 23 -7 52 -10 65 -21 111 -22 483 -1 630 10 71 17 117
21 130 2 8 7 31 10 50 3 19 11 53 16 75 6 22 10 40 9 40 -1 0 4 14 10 30 7 17
13 37 15 45 20 95 165 377 232 450 13 14 23 30 23 37 0 6 4 13 8 15 5 2 32 30
62 63 49 54 83 86 180 166 49 41 46 39 135 95 73 47 221 127 227 122 2 -1 19
6 38 14 96 43 288 99 383 113 16 2 40 6 55 10 96 20 237 30 457 29 230 0 325
-6 485 -30 19 -3 51 -7 70 -10 19 -2 58 -9 85 -14 28 -5 64 -12 80 -15 24 -4
142 -29 227 -50 62 -14 261 -69 298 -82 25 -8 52 -16 60 -18 8 -2 72 -24 142
-49 70 -25 129 -46 133 -46 3 0 31 -11 61 -25 30 -14 61 -25 69 -25 8 0 15 -4
15 -8 0 -5 7 -9 15 -9 8 0 34 -9 57 -21 24 -11 75 -35 113 -52 154 -70 398
-197 403 -212 2 -4 8 -8 13 -8 6 0 37 -18 70 -40 66 -44 94 -55 38 -15 -19 13
-38 28 -44 33 -28 23 -274 182 -282 182 -5 0 -15 6 -21 12 -19 19 -126 77
-317 172 -210 104 -391 181 -575 242 -41 14 -84 29 -95 34 -11 5 -74 23 -140
40 -66 18 -127 35 -135 38 -8 3 -21 6 -29 8 -7 1 -34 7 -60 13 -25 6 -55 13
-66 15 -11 1 -27 6 -35 9 -8 3 -49 11 -90 17 -41 6 -85 13 -97 16 -13 2 -33 6
-45 8 -13 2 -50 8 -83 12 -33 3 -76 9 -95 11 -43 6 -606 13 -611 8z"/>
<path d="M2578 7324 c-3 -2 -35 -6 -74 -8 -38 -3 -87 -8 -109 -11 -134 -21
-170 -27 -265 -50 -58 -14 -110 -26 -117 -28 -7 -2 -16 -6 -19 -10 -4 -4 -15
-7 -25 -7 -26 0 -231 -81 -326 -128 -161 -82 -335 -196 -463 -305 -38 -32 -36
-47 3 -17 14 11 28 20 32 20 3 0 48 20 98 44 111 54 208 92 347 139 91 30 132
42 223 63 9 2 27 7 40 10 12 3 31 7 42 9 11 2 46 9 77 15 31 6 70 13 85 15 15
2 51 6 78 10 28 3 61 8 75 10 128 21 674 22 709 1 3 -2 35 -6 71 -10 36 -3 76
-8 90 -11 14 -2 41 -7 60 -9 35 -5 118 -20 175 -31 17 -3 84 -20 150 -37 66
-16 125 -31 130 -32 18 -4 130 -38 150 -46 127 -49 273 -102 283 -102 6 -1 12
-5 12 -9 0 -5 16 -11 35 -15 19 -3 35 -10 35 -15 0 -5 7 -9 15 -9 8 0 23 -4
33 -10 9 -5 68 -34 130 -65 191 -93 287 -148 477 -274 72 -47 137 -91 145 -98
8 -6 60 -46 115 -89 256 -198 562 -503 710 -709 11 -16 25 -33 30 -39 6 -6 22
-27 35 -46 13 -19 27 -37 30 -40 3 -3 12 -16 20 -30 8 -14 36 -61 62 -105 26
-44 48 -85 48 -92 0 -6 4 -13 8 -15 4 -1 17 -25 28 -53 l20 -50 188 -1 188 0
9 23 c10 26 144 346 159 378 9 21 45 106 59 140 5 11 13 31 20 45 38 87 111
266 111 275 0 8 -56 11 -180 11 l-179 0 -21 -47 c-11 -26 -20 -52 -20 -58 0
-6 -4 -11 -10 -11 -5 0 -9 -3 -8 -7 2 -5 -25 -74 -60 -155 -34 -81 -62 -152
-62 -157 0 -4 -7 -14 -15 -21 -10 -8 -15 -9 -15 -1 0 9 -115 188 -130 201 -3
3 -28 33 -55 68 -101 128 -387 425 -500 518 -33 27 -62 52 -65 55 -3 3 -41 32
-85 65 -44 32 -81 62 -83 67 -2 4 -10 7 -17 7 -7 0 -15 4 -17 8 -4 12 -185
132 -198 132 -5 0 -10 4 -10 8 0 5 -10 14 -22 20 -13 6 -41 23 -63 36 -22 14
-51 31 -65 39 -258 143 -341 183 -675 327 -58 25 -317 115 -322 112 -2 -1 -23
7 -47 18 -24 10 -46 16 -49 14 -3 -3 -19 2 -36 11 -17 8 -31 13 -31 11 0 -3
-15 0 -32 6 -39 12 -65 18 -222 52 -65 15 -135 29 -155 32 -20 3 -60 9 -89 14
-29 5 -56 9 -60 8 -4 -1 -27 2 -52 6 -25 3 -61 9 -80 12 -42 6 -507 14 -512 8z"/>
<path d="M1905 6608 c-204 -24 -390 -113 -544 -261 -109 -105 -185 -227 -237
-380 -13 -40 -24 -73 -24 -74 0 -2 0 -4 -1 -5 -4 -13 -16 -110 -23 -195 -2
-18 1 -33 5 -33 5 0 4 -11 -1 -24 -5 -13 -6 -26 -4 -29 3 -3 7 -25 9 -48 5
-53 10 -75 31 -148 20 -69 94 -231 105 -231 5 0 9 -5 9 -11 0 -11 39 -65 90
-123 20 -23 99 -92 166 -145 46 -37 254 -126 319 -137 210 -36 376 -25 541 37
152 57 319 179 402 294 20 27 39 52 42 55 23 20 113 211 125 264 2 12 7 32 10
46 16 66 20 104 20 215 0 147 -8 202 -44 306 -22 66 -73 173 -83 177 -5 2 -8
8 -8 13 0 25 -127 172 -201 234 -38 32 -136 95 -147 95 -6 0 -17 6 -24 13 -27
27 -284 103 -325 96 -4 -1 -10 0 -13 1 -15 6 -134 5 -195 -2z"/>
<path d="M3321 6216 c-1 -33 -1 -70 -1 -81 1 -11 1 -26 1 -32 -1 -60 -1 -82 2
-105 2 -14 1 -32 -3 -38 -4 -6 -4 -31 0 -56 4 -24 4 -46 1 -49 -4 -2 -4 -31
-1 -65 3 -33 3 -65 -1 -71 -3 -6 -3 -28 1 -49 4 -21 4 -44 -1 -51 -4 -7 -4
-20 1 -29 5 -9 5 -22 0 -30 -4 -7 -5 -23 -1 -34 4 -12 4 -34 1 -51 -4 -16 -3
-37 1 -46 4 -8 4 -21 0 -28 -5 -7 -5 -30 -1 -51 4 -21 4 -44 -1 -51 -4 -7 -4
-20 1 -29 5 -9 5 -22 0 -30 -4 -7 -5 -23 -1 -34 4 -12 4 -34 1 -51 -4 -16 -3
-37 1 -46 4 -8 4 -21 0 -28 -5 -7 -5 -30 -1 -51 4 -21 4 -44 -1 -51 -4 -7 -4
-20 1 -29 5 -9 5 -22 0 -30 -4 -7 -5 -23 -1 -34 4 -12 4 -34 1 -51 -4 -16 -3
-37 1 -46 4 -8 4 -21 0 -28 -5 -7 -5 -30 -1 -51 4 -21 4 -44 -1 -51 -4 -7 -4
-20 1 -29 5 -9 5 -22 0 -30 -4 -7 -5 -22 -1 -34 5 -11 5 -34 2 -51 -7 -30 -7
-40 2 -107 2 -20 1 -42 -3 -48 -4 -6 -4 -31 0 -56 4 -24 3 -47 -2 -50 -4 -3
-6 -9 -4 -13 3 -4 5 -43 5 -87 0 -43 1 -88 1 -99 1 -11 1 -26 1 -32 -1 -60 -1
-82 2 -105 2 -14 1 -32 -3 -38 -4 -6 -4 -31 0 -56 4 -24 3 -47 -2 -50 -4 -3
-6 -9 -4 -13 3 -4 5 -43 5 -87 0 -43 1 -88 1 -99 1 -11 1 -26 1 -32 -1 -60 -1
-82 2 -105 2 -14 1 -32 -3 -38 -4 -6 -4 -31 0 -56 4 -24 4 -46 1 -49 -4 -2 -4
-31 -1 -65 3 -33 3 -65 -1 -71 -3 -6 -3 -28 1 -49 4 -21 4 -44 -1 -51 -4 -7
-4 -20 1 -29 5 -9 5 -22 0 -30 -4 -7 -5 -23 -1 -34 4 -12 4 -34 1 -51 -4 -16
-3 -37 1 -46 4 -8 4 -21 0 -28 -5 -7 -5 -30 -1 -51 4 -21 4 -44 -1 -51 -4 -7
-4 -20 1 -29 5 -9 5 -22 0 -30 -4 -7 -5 -22 -1 -34 5 -11 5 -34 2 -51 -7 -30
-7 -40 2 -107 2 -20 1 -42 -3 -48 -4 -6 -4 -31 0 -56 4 -24 3 -47 -2 -50 -4
-3 -6 -9 -4 -13 4 -6 6 -53 6 -176 0 -72 -1 -71 68 -109 131 -72 390 -196 525
-250 119 -48 385 -138 443 -150 10 -3 48 -12 84 -21 75 -19 68 -17 220 -44 63
-11 144 -22 180 -23 l65 -3 1 790 c1 435 2 795 3 801 1 9 299 12 1149 12 631
1 1157 1 1169 1 21 1 21 2 7 29 -17 32 -71 151 -108 240 -15 34 -39 91 -55
125 -16 34 -43 96 -61 137 -18 41 -43 100 -57 130 -14 30 -32 71 -40 90 -40
94 -77 167 -91 183 -8 9 -12 17 -8 17 10 0 -51 81 -102 134 -40 41 -115 99
-132 101 -3 0 -16 7 -29 14 -37 20 -149 50 -216 57 -33 4 -368 7 -744 8 l-685
1 -2 720 c-1 396 -4 734 -8 750 -21 94 -77 191 -146 255 -57 52 -63 56 -117
83 -105 54 -115 54 -736 55 l-575 0 -1 -62z"/>
<path d="M1229 4405 c-2 0 -10 -41 -10 -50 1 -67 13 -153 26 -192 20 -58 86
-183 97 -183 4 0 8 -4 8 -10 0 -5 24 -43 53 -85 28 -41 57 -83 62 -92 6 -10
15 -23 21 -29 6 -7 25 -35 43 -63 18 -28 37 -51 41 -51 5 0 11 -8 14 -17 3
-10 16 -29 28 -43 13 -14 31 -36 40 -50 21 -32 171 -214 257 -310 129 -146
433 -444 586 -575 38 -33 76 -66 83 -73 8 -7 30 -25 50 -40 20 -15 46 -35 57
-44 65 -54 110 -86 116 -82 4 2 6 451 5 996 l-1 993 -787 0 c-434 0 -788 0
-789 0z"/>
</g>
</svg>
