<?xml version="1.0" encoding="utf-8"?>
<!-- Generator: Adobe Illustrator 22.0.1, SVG Export Plug-In . SVG Version: 6.00 Build 0)  -->
<svg version="1.1" id="Layer_1" xmlns="http://www.w3.org/2000/svg" xmlns:xlink="http://www.w3.org/1999/xlink" x="0px" y="0px"
	 viewBox="0 0 419 419" style="enable-background:new 0 0 419 419;" xml:space="preserve">
<style type="text/css">
	.st0{fill:#FFFFFF;}
	.st1{fill:#004A9D;}
</style>
<g>
	<circle class="st0" cx="209.5" cy="209.5" r="209.5"/>
	<g id="XMLID_496_">
		<g>
			<path id="XMLID_9_" class="st1" d="M73.9,208.1l57.1,21.3l22.1,71.1c1.4,4.6,7,6.2,10.7,3.2l31.9-26c3.3-2.7,8.1-2.9,11.6-0.3
				l57.5,41.7c4,2.9,9.6,0.7,10.6-4.1l42.1-202.4c1.1-5.2-4-9.6-9-7.7L74,195.4C68,197.7,68.1,205.9,73.9,208.1z M149.6,218.1
				l111.7-68.8c2-1.2,4.1,1.5,2.3,3.1l-92.2,85.7c-3.2,3-5.3,7.1-5.9,11.4l-3.1,23.3c-0.4,3.1-4.8,3.4-5.6,0.4l-12.1-42.4
				C143.3,225.9,145.3,220.7,149.6,218.1z"/>
		</g>
	</g>
</g>
</svg>
