<?xml version="1.0" encoding="utf-8"?>
<!-- Generator: Adobe Illustrator 22.0.1, SVG Export Plug-In . SVG Version: 6.00 Build 0)  -->
<svg version="1.1" id="Слой_1" xmlns="http://www.w3.org/2000/svg" xmlns:xlink="http://www.w3.org/1999/xlink" x="0px" y="0px"
	 viewBox="0 0 419 419" style="enable-background:new 0 0 419 419;" xml:space="preserve">
<style type="text/css">
	.st0{clip-path:url(#SVGID_2_);fill:#FFFFFF;}
	.st1{clip-path:url(#SVGID_4_);fill:#004A9D;}
	.st2{clip-path:url(#SVGID_6_);fill:#004A9D;}
	.st3{clip-path:url(#SVGID_8_);fill:#004A9D;}
	.st4{clip-path:url(#SVGID_10_);fill:#004A9D;}
</style>
<g>
	<g>
		<defs>
			<rect id="SVGID_1_" width="419" height="419"/>
		</defs>
		<clipPath id="SVGID_2_">
			<use xlink:href="#SVGID_1_"  style="overflow:visible;"/>
		</clipPath>
		<path class="st0" d="M419,209.5C419,325.2,325.2,419,209.5,419S0,325.2,0,209.5S93.8,0,209.5,0S419,93.8,419,209.5"/>
	</g>
	<g>
		<defs>
			<rect id="SVGID_3_" width="419" height="419"/>
		</defs>
		<clipPath id="SVGID_4_">
			<use xlink:href="#SVGID_3_"  style="overflow:visible;"/>
		</clipPath>
		<path class="st1" d="M259.2,278.2l74.3,37.2c0.1,0.1,0.3,0.1,0.3,0.2v-0.4V156.8L259.2,278.2z"/>
	</g>
	<g>
		<defs>
			<rect id="SVGID_5_" width="419" height="419"/>
		</defs>
		<clipPath id="SVGID_6_">
			<use xlink:href="#SVGID_5_"  style="overflow:visible;"/>
		</clipPath>
		<polygon class="st2" points="254.6,103.5 201.8,188.8 252.5,271.2 331.9,142.2 		"/>
	</g>
	<g>
		<defs>
			<rect id="SVGID_7_" width="419" height="419"/>
		</defs>
		<clipPath id="SVGID_8_">
			<use xlink:href="#SVGID_7_"  style="overflow:visible;"/>
		</clipPath>
		<polygon class="st3" points="171.2,234.2 240,268.6 171.2,156.8 		"/>
	</g>
	<g>
		<defs>
			<rect id="SVGID_9_" width="419" height="419"/>
		</defs>
		<clipPath id="SVGID_10_">
			<use xlink:href="#SVGID_9_"  style="overflow:visible;"/>
		</clipPath>
		<path class="st4" d="M85.1,274.8c0,1.2,1.2,3,2.2,3.5l74.1,37c0.1,0.1,0.3,0.1,0.3,0.2v-0.4V143.2l-76.6-38.4V274.8z"/>
	</g>
</g>
</svg>
