<?xml version="1.0" encoding="utf-8"?>
<!-- Generator: Adobe Illustrator 22.0.1, SVG Export Plug-In . SVG Version: 6.00 Build 0)  -->
<svg version="1.1" id="Layer_1" xmlns="http://www.w3.org/2000/svg" xmlns:xlink="http://www.w3.org/1999/xlink" x="0px" y="0px"
	 viewBox="0 0 419 419" style="enable-background:new 0 0 419 419;" xml:space="preserve">
<style type="text/css">
	.st0{fill:#FFFFFF;}
	.st1{fill:#02458A;}
</style>
<g>
	<circle class="st0" cx="209.5" cy="209.5" r="209.5"/>
	<g>
		<path class="st1" d="M263,88.5l-31.4-0.1c-35.3,0-58,23.4-58,59.6v27.5h-31.5c-2.7,0-4.9,2.2-4.9,4.9v39.8c0,2.7,2.2,4.9,4.9,4.9
			h31.6v100.4c0,2.7,2.2,4.9,4.9,4.9h41.2c2.7,0,4.9-2.2,4.9-4.9V225.1h36.9c2.7,0,4.9-2.2,4.9-4.9v-39.8c0-1.3-0.5-2.6-1.4-3.5
			s-2.2-1.4-3.5-1.4h-36.9v-23.3c0-11.2,2.7-16.9,17.2-16.9H263c2.7,0,4.9-2.2,4.9-4.9V93.5C267.9,90.7,265.7,88.5,263,88.5z"/>
	</g>
</g>
</svg>
