<?xml version="1.0" encoding="utf-8"?>
<!-- Generator: Adobe Illustrator 22.0.1, SVG Export Plug-In . SVG Version: 6.00 Build 0)  -->
<svg version="1.1" id="Layer_1" xmlns="http://www.w3.org/2000/svg" xmlns:xlink="http://www.w3.org/1999/xlink" x="0px" y="0px"
	 viewBox="0 0 419 419" style="enable-background:new 0 0 419 419;" xml:space="preserve">
<style type="text/css">
	.st0{fill:#FFFFFF;}
	.st1{fill:#004A9D;}
</style>
<g>
	<circle class="st0" cx="209.5" cy="209.5" r="209.5"/>
	<g>
		<path class="st1" d="M286.9,215.2c-5.4-7-13.5-11.8-24.4-14.4c13.9-7.1,20-19.1,18.3-36c-0.6-6.1-2.3-11.5-5.1-16
			c-2.8-4.5-6.7-8.1-11.5-10.9c-4.8-2.7-10.1-4.8-15.8-6.3c-5.7-1.4-12.2-2.5-19.6-3.1V93.3h-21.5v34.2c-3.7,0-9.4,0.1-17,0.3V93.3
			h-21.5v35.2c-3.1,0.1-7.6,0.1-13.5,0.1l-29.6-0.1v22.9h15.5c7.1,0,11.2,3.2,12.4,9.5V201c0.9,0,1.7,0,2.2,0.1h-2.2v56.2
			c-0.7,4.7-3.4,7.1-8.1,7.1H130l-4.3,25.6h27.9c1.8,0,4.3,0,7.7,0.1c3.4,0,5.9,0.1,7.5,0.1v35.6h21.5v-35.3c3.9,0.1,9.6,0.1,17,0.1
			v35.1h21.5v-35.6c7.6-0.4,14.4-1.1,20.3-2.1s11.6-2.6,17-4.8c5.4-2.2,9.9-4.9,13.5-8.2c3.6-3.3,6.6-7.4,9-12.4s3.9-10.8,4.5-17.5
			C294.4,232.2,292.3,222.2,286.9,215.2z M190.6,153c0.7,0,2.5,0,5.5-0.1c3,0,5.5-0.1,7.5-0.1s4.7,0.1,8.1,0.3
			c3.4,0.3,6.3,0.7,8.6,1.1c2.3,0.5,4.9,1.2,7.7,2.3s5,2.4,6.7,3.9s3.1,3.5,4.3,5.9s1.7,5.1,1.7,8.2c0,2.6-0.4,5-1.3,7.1
			c-0.8,2.1-2.1,3.9-3.8,5.4c-1.7,1.4-3.4,2.7-5.2,3.8s-4,1.9-6.8,2.6c-2.7,0.7-5.1,1.2-7.2,1.5c-2,0.4-4.6,0.6-7.7,0.8
			c-3.1,0.1-5.4,0.2-7,0.3c-1.6,0-3.7,0-6.5,0c-2.7,0-4.4-0.1-4.8-0.1L190.6,153L190.6,153L190.6,153z M249.4,248.1
			c-0.9,2.1-2,4-3.4,5.6s-3.2,3-5.5,4.2s-4.5,2.2-6.6,2.9s-4.7,1.4-7.7,2s-5.7,1-8,1.2s-5,0.4-8.2,0.6c-3.2,0.1-5.6,0.2-7.4,0.2
			s-4,0-6.7-0.1c-2.7,0-4.4-0.1-5.2-0.1v-47.3c0.7,0,3,0,6.6-0.1c3.7-0.1,6.7-0.1,9-0.1s5.5,0.1,9.6,0.4c4.1,0.3,7.5,0.7,10.3,1.3
			s5.8,1.4,9.1,2.6c3.3,1.2,6,2.6,8,4.3s3.8,3.8,5.2,6.4c1.4,2.6,2.1,5.6,2.1,8.9C250.7,243.5,250.2,245.9,249.4,248.1z"/>
	</g>
</g>
</svg>
