<?xml version="1.0" encoding="utf-8"?>
<!-- Generator: Adobe Illustrator 22.0.1, SVG Export Plug-In . SVG Version: 6.00 Build 0)  -->
<svg version="1.1" id="Layer_1" xmlns="http://www.w3.org/2000/svg" xmlns:xlink="http://www.w3.org/1999/xlink" x="0px" y="0px"
	 viewBox="0 0 419 419" style="enable-background:new 0 0 419 419;" xml:space="preserve">
<style type="text/css">
	.st0{fill:#FFFFFF;}
	.st1{fill:#004A9D;}
</style>
<g>
	<circle class="st0" cx="209.5" cy="209.5" r="209.5"/>
	<g>
		<g>
			<path class="st1" d="M331.4,143c-8.6,3.8-17.8,6.4-27.5,7.6c9.9-5.9,17.5-15.3,21.1-26.5c-9.3,5.5-19.5,9.5-30.5,11.6
				c-8.8-9.3-21.2-15.2-35-15.2c-26.5,0-48,21.5-48,48c0,3.8,0.4,7.4,1.2,10.9c-39.9-2-75.2-21.1-98.9-50.1
				c-4.1,7.1-6.5,15.3-6.5,24.1c0,16.6,8.5,31.3,21.3,39.9c-7.9-0.3-15.3-2.4-21.7-6v0.6c0,23.2,16.5,42.6,38.5,47
				c-4,1.1-8.3,1.7-12.6,1.7c-3.1,0-6.1-0.3-9-0.9c6.1,19.1,23.8,32.9,44.8,33.3c-16.4,12.9-37.1,20.5-59.6,20.5
				c-3.9,0-7.7-0.2-11.4-0.7c21.2,13.6,46.4,21.6,73.5,21.6c88.2,0,136.5-73.1,136.5-136.5l-0.2-6.2
				C316.8,161.1,325,152.6,331.4,143z"/>
		</g>
	</g>
</g>
</svg>
