<?xml version="1.0" encoding="utf-8"?>
<!-- Generator: Adobe Illustrator 22.0.1, SVG Export Plug-In . SVG Version: 6.00 Build 0)  -->
<svg version="1.1" id="Слой_1" xmlns="http://www.w3.org/2000/svg" xmlns:xlink="http://www.w3.org/1999/xlink" x="0px" y="0px"
	 viewBox="0 0 419 419" style="enable-background:new 0 0 419 419;" xml:space="preserve">
<style type="text/css">
	.st0{clip-path:url(#SVGID_2_);fill:#FFFFFF;}
	.st1{clip-path:url(#SVGID_4_);fill:#004A9D;}
</style>
<g>
	<g>
		<g>
			<defs>
				<rect id="SVGID_1_" width="419" height="419"/>
			</defs>
			<clipPath id="SVGID_2_">
				<use xlink:href="#SVGID_1_"  style="overflow:visible;"/>
			</clipPath>
			<path class="st0" d="M419,209.5c0,95.8-64.2,176.5-152,201.5c-18.3,5.2-37.6,8-57.5,8c-16.4,0-32.4-1.9-47.7-5.5
				C69.1,391.9,0,308.8,0,209.5C0,93.8,93.8,0,209.5,0S419,93.8,419,209.5"/>
		</g>
	</g>
	<g>
		<g>
			<defs>
				<rect id="SVGID_3_" width="419" height="419"/>
			</defs>
			<clipPath id="SVGID_4_">
				<use xlink:href="#SVGID_3_"  style="overflow:visible;"/>
			</clipPath>
			<path class="st1" d="M336.6,266c-11.4,24.1-32.4,36.3-57.3,42.6c-8.4,2.1-17,3.4-26.1,5.2c11.9,12.4,13.8,27.6,13.5,43.4
				c-0.2,16.4-0.2,32.8-0.2,49.1c0,1.7,0.2,3.2,0.5,4.6c-18.3,5.2-37.6,8-57.5,8c-16.4,0-32.4-1.9-47.7-5.5c0.3-0.9,0.5-1.8,0.6-2.9
				c0.5-13.3,0.1-26.7,0.1-39.6c-9.7,0.4-18.9,1.7-28.1,1.1c-20.1-1.2-35.6-9.8-43.7-29.5c-4.6-11.5-11.8-21.5-23-28.1
				c-2.1-1.3-3.9-3.1-5.5-4.9c-2.1-2.4-1.7-4.9,1.6-5.6c3.3-0.7,6.9-1.1,10.2-0.5c12.9,2.4,21.8,10.5,28.6,21.2
				c13.5,21.2,34.2,27.7,57.5,17.9c1.3-0.5,3-1.9,3.2-3.1c1.9-9.4,5.4-18,12.5-25.5c-7.9-1.5-15.2-2.5-22.3-4.2
				c-20.6-4.8-39.1-13.3-52.6-30.4c-11-13.9-16.1-30.1-18.4-47.4c-3.6-27.1-0.4-52.5,18.2-74.1c0.9-1.1,1.4-3.3,1-4.7
				c-4.7-15.2-3.9-30.3,0.7-45.4c2.4-7.9,3.1-8.3,11.2-7.2c0.5,0.1,1,0.2,1.5,0.3c16.2,2.7,30.1,10.5,43.8,18.9
				c1.8,1.1,4.7,1.8,6.7,1.3c32.8-7.9,65.4-7.9,98.2,0c1.9,0.5,4.4-0.2,6.3-1.2c7.5-3.9,14.6-8.4,22.1-12.1c8.8-4.3,18-7.5,28-7.3
				c1.8,0,4.4,1.7,5,3.2c6,15.9,7.3,32.1,2.5,48.6c-0.5,1.8,0.3,4.3,1.2,6c4.7,8.7,11.3,16.6,14.3,25.8
				C352.3,212,348.9,239.7,336.6,266"/>
		</g>
	</g>
</g>
</svg>
