<?xml version="1.0" encoding="utf-8"?>
<!-- Generator: Adobe Illustrator 22.0.1, SVG Export Plug-In . SVG Version: 6.00 Build 0)  -->
<svg version="1.1" id="Слой_1" xmlns="http://www.w3.org/2000/svg" xmlns:xlink="http://www.w3.org/1999/xlink" x="0px" y="0px"
	 viewBox="0 0 419 419" style="enable-background:new 0 0 419 419;" xml:space="preserve">
<style type="text/css">
	.st0{fill:#02458A;}
	.st1{fill:#FFFFFF;}
</style>
<g>
	<path class="st0" d="M347.8,209.2c0,11.1-5.8,21.2-15.1,27c0.5,3.1,0.8,6.2,0.8,9.4c0,46.1-55.8,83.6-124.5,83.6
		S84.8,291.6,84.8,245.5c0-3.3,0.3-6.5,0.9-9.7C76.6,230,71,220,71,209.1c0-17.6,14.3-31.9,31.9-31.9c7.7,0,15,2.8,20.8,7.8
		c21.2-13.5,49.4-21.9,80.6-22.8l22.4-76.5l56.2,10.5c1.6-2.9,4-5.4,6.8-7.2s6.1-2.9,9.7-3.1c11.1-0.6,20.6,8,21.2,19.1
		c0.6,11.1-8,20.6-19.1,21.2c-11.1,0.6-20.6-8-21.2-19.1V106l-46.7-8.7l-19,65c31.1,0.9,59.2,9.4,80.3,22.9c5.8-5.1,13.2-7.9,21-7.9
		C333.5,177.3,347.8,191.6,347.8,209.2z"/>
	<path class="st0" d="M377.8,334.3c1-1.4,2-2.7,3-4.1C379.8,331.5,378.8,332.9,377.8,334.3z"/>
	<path class="st0" d="M416.9,239.2c-4.4,30.9-15.5,59.6-31.8,84.6C401.4,298.8,412.5,270,416.9,239.2z"/>
	<path class="st1" d="M38.2,330.1c1,1.4,2,2.8,3,4.1C40.2,332.9,39.2,331.5,38.2,330.1z M2.1,239.2c4.4,30.9,15.5,59.6,31.8,84.6
		C17.6,298.8,6.5,270,2.1,239.2z"/>
	<path class="st1" d="M209.5,0C93.8,0,0,93.8,0,209.5c0,10.1,0.7,20,2.1,29.7c4.4,30.9,15.5,59.6,31.8,84.6c0,0,0,0,0,0
		c0.9,1.4,1.9,2.8,2.8,4.2c0.5,0.7,1,1.4,1.5,2.1c1,1.4,2,2.8,3,4.1c6.6,8.9,13.9,17.2,21.8,25c37.8,37,89.5,59.8,146.5,59.8
		s108.8-22.8,146.5-59.8c7.9-7.7,15.2-16.1,21.8-25c1-1.4,2-2.7,3-4.1c0.5-0.7,1-1.4,1.5-2.1c1-1.4,1.9-2.8,2.8-4.2c0,0,0,0,0,0
		c16.3-25,27.4-53.7,31.8-84.6c1.4-9.7,2.1-19.6,2.1-29.7C419,93.8,325.2,0,209.5,0z M102.9,177.2c7.7,0,15,2.8,20.8,7.8
		c21.2-13.5,49.4-21.9,80.6-22.8l22.4-76.5l56.2,10.5c1.6-2.9,4-5.4,6.8-7.2s6.1-2.9,9.7-3.1c11.1-0.6,20.6,8,21.2,19.1
		c0.6,11.1-8,20.6-19.1,21.2c-11.1,0.6-20.6-8-21.2-19.1V106l-46.7-8.7l-19,65c31.1,0.9,59.2,9.4,80.3,22.9c5.8-5.1,13.2-7.9,21-7.9
		c17.6,0,31.9,14.3,31.9,31.9c0,11.1-5.8,21.2-15.1,27c0.5,3.1,0.8,6.2,0.8,9.4c0,46.1-55.8,83.6-124.5,83.6S84.8,291.6,84.8,245.5
		c0-3.3,0.3-6.5,0.9-9.7C76.6,230,71,220,71,209.1C71,191.5,85.3,177.2,102.9,177.2z"/>
	<path class="st1" d="M248.3,276.9c-0.1,0.1-12,11.9-39.2,11.9c-26.7,0-37.4-11.3-37.7-11.7c-1.8-2.1-4.9-2.3-7-0.5s-2.3,5-0.5,7.1
		c0.5,0.6,13.3,15.1,45.3,15.1c31.8,0,45.9-14.3,46.5-14.9c1.9-2,1.8-5.1-0.1-7C253.4,274.9,250.2,274.9,248.3,276.9L248.3,276.9z"
		/>
	<path class="st1" d="M251.6,211.2c10.8,0,19.6,8.8,19.6,19.6s-8.8,19.6-19.6,19.6c-10.8,0-19.6-8.8-19.6-19.6
		S240.8,211.2,251.6,211.2L251.6,211.2z"/>
	<path class="st1" d="M169.7,211.2c10.8,0,19.6,8.8,19.6,19.6s-8.8,19.6-19.6,19.6s-19.6-8.8-19.6-19.6
		C150.1,220,158.9,211.2,169.7,211.2L169.7,211.2z"/>
</g>
</svg>
