<?xml version="1.0" encoding="utf-8"?>
<!-- Generator: Adobe Illustrator 22.0.1, SVG Export Plug-In . SVG Version: 6.00 Build 0)  -->
<svg version="1.1" id="Слой_1" xmlns="http://www.w3.org/2000/svg" xmlns:xlink="http://www.w3.org/1999/xlink" x="0px" y="0px"
	 viewBox="0 0 419 419" style="enable-background:new 0 0 419 419;" xml:space="preserve">
<style type="text/css">
	.st0{clip-path:url(#SVGID_2_);fill:#FFFFFF;}
	.st1{clip-path:url(#SVGID_4_);fill:#02458A;}
</style>
<g>
	<g>
		<defs>
			<rect id="SVGID_1_" width="419" height="419"/>
		</defs>
		<clipPath id="SVGID_2_">
			<use xlink:href="#SVGID_1_"  style="overflow:visible;"/>
		</clipPath>
		<path class="st0" d="M419,209.5C419,325.2,325.2,419,209.5,419S0,325.2,0,209.5S93.8,0,209.5,0S419,93.8,419,209.5"/>
	</g>
	<g>
		<defs>
			<rect id="SVGID_3_" width="419" height="419"/>
		</defs>
		<clipPath id="SVGID_4_">
			<use xlink:href="#SVGID_3_"  style="overflow:visible;"/>
		</clipPath>
		<path class="st1" d="M329.3,216.1v84.1h-48.8v-78.5c0-19.7-7.1-33.2-24.7-33.2c-13.5,0-21.5,9.1-25,17.8
			c-1.3,3.1-1.6,7.5-1.6,11.9v81.9h-48.8c0,0,0.7-132.9,0-146.7h48.8v20.8c-0.1,0.2-0.2,0.3-0.3,0.5h0.3v-0.5
			c6.5-10,18.1-24.2,44-24.2C305.2,150.1,329.3,171,329.3,216.1 M129.3,82.8c-16.7,0-27.6,10.9-27.6,25.3c0,14.1,10.6,25.4,27,25.4
			h0.3c17,0,27.6-11.3,27.6-25.4C156.3,93.7,146,82.8,129.3,82.8 M104.6,300.2h48.8V153.5h-48.8
			C104.6,153.5,104.6,300.2,104.6,300.2z"/>
	</g>
</g>
</svg>
