<?xml version="1.0" encoding="utf-8"?>
<!-- Generator: Adobe Illustrator 22.0.1, SVG Export Plug-In . SVG Version: 6.00 Build 0)  -->
<svg version="1.1" id="Слой_1" xmlns="http://www.w3.org/2000/svg" xmlns:xlink="http://www.w3.org/1999/xlink" x="0px" y="0px"
	 viewBox="0 0 419 419" style="enable-background:new 0 0 419 419;" xml:space="preserve">
<style type="text/css">
	.st0{clip-path:url(#SVGID_2_);fill:#FFFFFF;}
	.st1{clip-path:url(#SVGID_2_);fill:#02458A;}
</style>
<g>
	<defs>
		<rect id="SVGID_1_" width="419" height="419"/>
	</defs>
	<clipPath id="SVGID_2_">
		<use xlink:href="#SVGID_1_"  style="overflow:visible;"/>
	</clipPath>
	<path class="st0" d="M419,209.5c0,95.8-64.2,176.5-152,201.5c-18.3,5.2-37.6,8-57.5,8c-16.4,0-32.4-1.9-47.7-5.5
		C69.1,391.9,0,308.8,0,209.5C0,93.8,93.8,0,209.5,0C325.2,0,419,93.8,419,209.5"/>
	<path class="st1" d="M277.3,127.5H141.7c-26.6,0-48.2,21.6-48.2,48.2v67.8c0,26.6,21.6,48.2,48.2,48.2h135.6
		c26.6,0,48.2-21.6,48.2-48.2v-67.8C325.4,149,303.9,127.5,277.3,127.5 M244.7,212.8L181.3,243c-1.7,0.8-3.6-0.4-3.6-2.3v-62.4
		c0-1.9,2-3.1,3.7-2.3l63.4,32.1C246.6,209.2,246.6,211.9,244.7,212.8"/>
</g>
</svg>
