<?xml version="1.0" encoding="utf-8"?>
<!-- Generator: Adobe Illustrator 22.0.1, SVG Export Plug-In . SVG Version: 6.00 Build 0)  -->
<svg version="1.1" id="Слой_1" xmlns="http://www.w3.org/2000/svg" xmlns:xlink="http://www.w3.org/1999/xlink" x="0px" y="0px"
	 viewBox="0 0 419 419" style="enable-background:new 0 0 419 419;" xml:space="preserve">
<style type="text/css">
	.st0{clip-path:url(#SVGID_2_);fill:#FFFFFF;}
	.st1{clip-path:url(#SVGID_4_);fill:#004A9D;}
	.st2{clip-path:url(#SVGID_6_);fill:#004A9D;}
</style>
<g>
	<g>
		<defs>
			<rect id="SVGID_1_" width="419" height="419"/>
		</defs>
		<clipPath id="SVGID_2_">
			<use xlink:href="#SVGID_1_"  style="overflow:visible;"/>
		</clipPath>
		<path class="st0" d="M419,209.5c0,95.8-64.2,176.5-152,201.5c-18.3,5.2-37.6,8-57.5,8c-16.4,0-32.4-1.9-47.7-5.5
			C69.1,391.9,0,308.8,0,209.5C0,93.8,93.8,0,209.5,0S419,93.8,419,209.5"/>
	</g>
	<g>
		<defs>
			<rect id="SVGID_3_" width="419" height="419"/>
		</defs>
		<clipPath id="SVGID_4_">
			<use xlink:href="#SVGID_3_"  style="overflow:visible;"/>
		</clipPath>
		<path class="st1" d="M122.7,177.1c2.7,1.9,10.9,7.6,24.6,17.1c13.7,9.5,24.1,16.8,31.4,21.9c0.8,0.6,2.5,1.8,5.1,3.7
			s4.8,3.4,6.5,4.6c1.7,1.2,3.8,2.5,6.2,3.9s4.7,2.5,6.9,3.2s4.2,1.1,6,1.1h0.1h0.1c1.8,0,3.8-0.4,6-1.1c2.2-0.7,4.5-1.8,6.9-3.2
			s4.5-2.7,6.2-3.9s3.9-2.7,6.5-4.6c2.6-1.9,4.3-3.1,5.1-3.7c7.4-5.1,26.1-18.1,56.1-39c5.8-4.1,10.7-9,14.6-14.8s5.9-11.8,5.9-18.1
			c0-5.3-1.9-9.8-5.7-13.6c-3.8-3.8-8.3-5.6-13.5-5.6H121.2c-6.2,0-10.9,2.1-14.2,6.2c-3.3,4.2-5,9.4-5,15.6c0,5,2.2,10.5,6.6,16.4
			C113,169.1,117.7,173.8,122.7,177.1"/>
	</g>
	<g>
		<defs>
			<rect id="SVGID_5_" width="419" height="419"/>
		</defs>
		<clipPath id="SVGID_6_">
			<use xlink:href="#SVGID_5_"  style="overflow:visible;"/>
		</clipPath>
		<path class="st2" d="M305,189.9c-26.2,17.8-46.1,31.5-59.7,41.4c-4.6,3.4-8.3,6-11.1,7.9s-6.6,3.8-11.3,5.8s-9.1,2.9-13.2,2.9
			h-0.1h-0.1c-4.1,0-8.5-1-13.2-2.9c-4.7-2-8.5-3.9-11.3-5.8c-2.8-1.9-6.5-4.5-11.1-7.9c-10.8-7.9-30.7-21.7-59.6-41.4
			c-4.6-3-8.6-6.5-12.1-10.4v95.2c0,5.3,1.9,9.8,5.6,13.6c3.8,3.8,8.3,5.6,13.6,5.6H298c5.3,0,9.8-1.9,13.6-5.6
			c3.8-3.8,5.6-8.3,5.6-13.6v-95.2C313.5,183.4,309.5,186.8,305,189.9"/>
	</g>
</g>
</svg>
