<?xml version="1.0" encoding="utf-8"?>
<!-- Generator: Adobe Illustrator 22.0.1, SVG Export Plug-In . SVG Version: 6.00 Build 0)  -->
<svg version="1.1" id="Слой_1" xmlns="http://www.w3.org/2000/svg" xmlns:xlink="http://www.w3.org/1999/xlink" x="0px" y="0px"
	 viewBox="0 0 419 419" style="enable-background:new 0 0 419 419;" xml:space="preserve">
<style type="text/css">
	.st0{clip-path:url(#SVGID_2_);fill:#FFFFFF;}
	.st1{clip-path:url(#SVGID_4_);fill:#FFFFFF;}
	.st2{clip-path:url(#SVGID_6_);fill:#FFFFFF;}
	.st3{clip-path:url(#SVGID_8_);fill:#FFFFFF;}
	.st4{clip-path:url(#SVGID_10_);fill:#FFFFFF;}
	.st5{clip-path:url(#SVGID_12_);fill:#004A9D;}
	.st6{clip-path:url(#SVGID_14_);fill:#FFFFFF;}
</style>
<g>
	<g>
		<defs>
			<rect id="SVGID_1_" width="419" height="419"/>
		</defs>
		<clipPath id="SVGID_2_">
			<use xlink:href="#SVGID_1_"  style="overflow:visible;"/>
		</clipPath>
		<path class="st0" d="M167.6,209.5c0-9.1,3-17.6,7.9-24.4c7.6-10.6,20-17.5,34-17.5s26.4,6.9,34,17.5c4.9,6.9,7.9,15.3,7.9,24.4
			c0,23.1-18.8,41.9-42,41.9S167.5,232.6,167.6,209.5"/>
	</g>
	<g>
		<defs>
			<rect id="SVGID_3_" width="419" height="419"/>
		</defs>
		<clipPath id="SVGID_4_">
			<use xlink:href="#SVGID_3_"  style="overflow:visible;"/>
		</clipPath>
		<polygon class="st1" points="260.8,158.3 260.7,117.9 295.8,117.8 301.1,117.8 301.1,158.2 		"/>
	</g>
	<g>
		<defs>
			<rect id="SVGID_5_" width="419" height="419"/>
		</defs>
		<clipPath id="SVGID_6_">
			<use xlink:href="#SVGID_5_"  style="overflow:visible;"/>
		</clipPath>
		<path class="st2" d="M282.6,305.4H136.4c-12.6,0-22.8-10.2-22.8-22.8V185h35.6c-3.1,7.6-4.8,15.8-4.8,24.4
			c0,35.9,29.2,65.2,65.2,65.2s65.2-29.2,65.2-65.2c0-8.6-1.7-16.9-4.8-24.4h35.6v97.6C305.4,295.2,295.2,305.4,282.6,305.4"/>
	</g>
	<g>
		<defs>
			<rect id="SVGID_7_" width="419" height="419"/>
		</defs>
		<clipPath id="SVGID_8_">
			<use xlink:href="#SVGID_7_"  style="overflow:visible;"/>
		</clipPath>
		<path class="st3" d="M417.6,185.4c-11-96.4-87.6-173-184-184c-7.9-0.9-16-1.4-24.1-1.4s-16.2,0.5-24.1,1.4
			c-96.4,11-173,87.6-184,184c-0.9,7.9-1.4,16-1.4,24.1c0,0.9,0,1.8,0,2.7s0,1.8,0.1,2.7c0,0.8,0,1.5,0.1,2.2c0,1.1,0.1,2.2,0.1,3.3
			c0.1,1.7,0.2,3.5,0.3,5.2c0.1,1.8,0.3,3.6,0.5,5.4c9.1,89.6,74.8,162.5,160.7,182.5c1.2,0.3,2.3,0.5,3.5,0.8
			c0.5,0.1,1,0.2,1.5,0.3c1,0.2,2.1,0.4,3.1,0.6c1.7,0.3,3.4,0.6,5.2,0.9c2.6,0.4,5.2,0.8,7.8,1.1c1.6,0.2,3.1,0.4,4.7,0.5
			c1.1,0.1,2.1,0.2,3.2,0.3c0.7,0.1,1.4,0.1,2,0.2c1.1,0.1,2.2,0.2,3.3,0.2c0.6,0.1,1.3,0.1,2,0.1c0.8,0,1.5,0.1,2.3,0.1
			c0.9,0,1.8,0.1,2.7,0.1c0.6,0,1.2,0,1.8,0c0.7,0,1.3,0,2,0c0.9,0,1.8,0,2.7,0c1,0,1.9,0,2.9,0c0.7,0,1.3,0,2,0
			c0.9,0,1.8,0,2.7-0.1c1.1,0,2.2-0.1,3.2-0.1c1.5-0.1,3-0.2,4.4-0.3c1.1-0.1,2.2-0.2,3.3-0.3c0.1,0,0.2,0,0.3,0
			c1.1-0.1,2.1-0.2,3.1-0.3c0.8-0.1,1.5-0.2,2.3-0.3c0.8-0.1,1.7-0.2,2.5-0.3c1.7-0.2,3.5-0.5,5.2-0.7c0.9-0.1,1.7-0.3,2.6-0.4
			c1.5-0.3,3.1-0.5,4.6-0.8c1.2-0.2,2.4-0.5,3.5-0.7l0.7-0.2c4.8-1,9.5-2.2,14.2-3.5c78.9-22.5,138.8-90,150.1-173v-0.1
			c0.2-1.4,0.4-2.9,0.5-4.3c0.2-1.8,0.4-3.5,0.5-5.3c0.1-0.9,0.2-1.7,0.2-2.6c0.1-0.9,0.1-1.8,0.2-2.7c0-0.8,0.1-1.5,0.1-2.3
			c0-0.7,0.1-1.5,0.1-2.2s0.1-1.5,0.1-2.2c0.1-1.3,0.1-2.7,0.1-4c0-0.9,0-1.8,0-2.7C419,201.4,418.5,193.3,417.6,185.4 M136.4,328.7
			c-25.4,0-46.1-20.6-46.1-46V136.4c0-25.4,20.7-46.1,46.1-46.1h146.2c25.4,0,46.1,20.7,46.1,46.1v146.2c0,25.4-20.7,46-46.1,46
			H136.4V328.7z"/>
	</g>
	<g>
		<defs>
			<rect id="SVGID_9_" width="419" height="419"/>
		</defs>
		<clipPath id="SVGID_10_">
			<use xlink:href="#SVGID_9_"  style="overflow:visible;"/>
		</clipPath>
		<path class="st4" d="M251.5,209.5c0,23.1-18.8,41.9-42,41.9s-41.9-18.8-41.9-41.9c0-9.1,3-17.6,7.9-24.4c7.6-10.6,20-17.5,34-17.5
			s26.4,6.9,34,17.5C248.5,191.9,251.5,200.4,251.5,209.5"/>
	</g>
	<g>
		<defs>
			<rect id="SVGID_11_" width="419" height="419"/>
		</defs>
		<clipPath id="SVGID_12_">
			<use xlink:href="#SVGID_11_"  style="overflow:visible;"/>
		</clipPath>
		<path class="st5" d="M282.6,90.4H136.4c-25.4,0-46.1,20.6-46.1,46v146.2c0,25.4,20.6,46.1,46.1,46.1h146.2
			c25.4,0,46.1-20.6,46.1-46.1V136.4C328.7,111,308,90.4,282.6,90.4 M295.8,117.8h5.3v40.4l-40.3,0.1l-0.1-40.4L295.8,117.8z
			 M175.5,185.1c7.6-10.6,20-17.5,34-17.5s26.4,6.9,34,17.5c4.9,6.9,7.9,15.3,7.9,24.4c0,23.1-18.8,41.9-42,41.9
			s-41.9-18.8-41.9-41.9C167.6,200.4,170.5,191.9,175.5,185.1 M305.4,282.6c0,12.6-10.3,22.8-22.8,22.8H136.4
			c-12.6,0-22.8-10.2-22.8-22.8V185h35.6c-3.1,7.6-4.8,15.8-4.8,24.4c0,35.9,29.2,65.2,65.2,65.2s65.2-29.3,65.2-65.2
			c0-8.6-1.7-16.9-4.8-24.4h35.6v97.6H305.4z"/>
	</g>
	<g>
		<defs>
			<rect id="SVGID_13_" width="419" height="419"/>
		</defs>
		<clipPath id="SVGID_14_">
			<use xlink:href="#SVGID_13_"  style="overflow:visible;"/>
		</clipPath>
		<path class="st6" d="M305.4,185.1v97.6c0,12.6-10.3,22.8-22.8,22.8H136.4c-12.6,0-22.8-10.2-22.8-22.8v-97.6h35.6
			c-3.1,7.6-4.8,15.8-4.8,24.4c0,35.9,29.2,65.2,65.2,65.2s65.2-29.3,65.2-65.2c0-8.6-1.7-16.9-4.8-24.4L305.4,185.1L305.4,185.1z"
			/>
	</g>
</g>
</svg>
