<?xml version="1.0" encoding="utf-8"?>
<!-- Generator: Adobe Illustrator 21.0.0, SVG Export Plug-In . SVG Version: 6.00 Build 0)  -->
<svg version="1.1" id="Слой_1" xmlns="http://www.w3.org/2000/svg" xmlns:xlink="http://www.w3.org/1999/xlink" x="0px" y="0px"
	 viewBox="0 0 158.9 83.3" style="enable-background:new 0 0 158.9 83.3;" xml:space="preserve">
<style type="text/css">
	.st0{clip-path:url(#SVGID_2_);fill:#022169;}
	.st1{clip-path:url(#SVGID_2_);fill:#FFD700;}
	.st2{clip-path:url(#SVGID_2_);fill:#FFCB8B;}
	.st3{clip-path:url(#SVGID_2_);fill:#57C1E8;}
	.st4{clip-path:url(#SVGID_2_);fill:#FFFFFF;}
	.st5{clip-path:url(#SVGID_2_);fill:#242A58;}
	.st6{clip-path:url(#SVGID_2_);fill:#E2231A;}
	.st7{clip-path:url(#SVGID_2_);fill:#EE7700;}
</style>
<g>
	<defs>
		<rect id="SVGID_1_" y="0" width="158.9" height="83.3"/>
	</defs>
	<clipPath id="SVGID_2_">
		<use xlink:href="#SVGID_1_"  style="overflow:visible;"/>
	</clipPath>
	<path class="st0" d="M80.4,27.5c0,0.1,0,0.4,0,0.8c0,0.4,0,1,0,1.9c0,0.9,0,1.5,0,1.9c-0.1,1.2-0.1,2.2-0.1,3.2l0,0.4v1.1
		c0,0.9,0,1.5,0,1.5c0,0,0,0,0,0h-2.8c0,0,0,0,0,0c0-0.1,0-0.4,0-1c0-0.1,0-0.2,0-0.4l0-0.4c0-0.1,0-0.3,0-0.4c0-1.1,0-2,0-2.7
		c0-0.1,0-0.2,0-0.3l0-0.4c0-0.1,0-0.3,0-0.3c0-0.3,0-0.7,0-1.3v-1.3v-1c-0.2,0-0.7,0-1.5,0l-0.5,0l-0.5,0c-0.4,0-0.8,0-1,0
		c-0.1,1.7-0.2,3.3-0.4,4.7c-0.2,1.4-0.6,2.5-1,3.2c-0.3,0.4-0.6,0.8-1.1,1.1c-0.4,0.3-1,0.5-1.7,0.7l-0.5,0.1h0h-0.1l-0.1,0h-0.1
		c-0.3,0-0.4,0-0.4,0c0,0-0.1-0.1-0.2-0.2c-0.1-0.2-0.2-0.5-0.3-0.8c-0.2-0.6-0.2-1.2,0-1.7c0.3,0,0.5-0.1,0.7-0.1l0.2-0.1l0.1,0h0
		c0.5-0.2,0.8-0.5,1.2-1c0.4-0.5,0.6-1.2,0.6-2.1c0-0.3,0-0.6,0-1.1l0.1-1c0-0.5,0.1-1.2,0.1-2c0.1-1.1,0.1-1.8,0.1-1.9l0,0
		c0.5-0.2,1.1-0.3,1.8-0.3l1,0c1.2-0.1,2.1-0.1,2.6-0.1c1.2-0.1,2.1-0.1,2.8-0.2c0.3,0,0.7,0,1,0c0,0,0,0,0,0
		C80.4,26,80.4,26.6,80.4,27.5"/>
	<path class="st0" d="M91.8,25.9L91.8,25.9c0,0.4-0.1,1.5-0.2,3.3l-0.1,1.4l-0.1,1.3c-0.1,1.3-0.1,2.3-0.2,2.9c0,0.4-0.1,1-0.2,2
		c0,0.1,0,0.4,0,0.8l0,0.8c0,0,0,0,0,0h-2.7c0,0,0,0,0,0c0-0.3,0.1-0.8,0.1-1.4s0-1.1,0-1.4c0-0.1,0.1-0.7,0.1-1.7
		c0.1-0.8,0.1-1.6,0.2-2.5L88.2,32l-0.6,1c-0.7,1-1.2,1.8-1.5,2.3l-0.9,1.4c-0.2,0.3-0.4,0.6-0.7,1c-0.1,0.1-0.2,0.3-0.3,0.4
		l-0.1,0.1l0,0l0,0h-2.8c0,0,0,0,0,0c0-0.7,0.1-1.3,0-1.8c0-1.5,0-2.4,0-2.7c0-1.6,0-2.4,0-2.6c0-1,0-1.7,0-2.2c0-1.2,0.1-2,0.1-2.6
		v0c0.2-0.1,0.6-0.2,1.2-0.3c0.6-0.1,1.2-0.2,1.8-0.2h0v0c0,0.6,0,1.5-0.2,3c-0.1,0.7-0.1,1.5-0.2,2.3v0.9c0,0.6,0,1.2,0,1.8
		l2.9-4.4c1.1-1.6,1.7-2.6,2-3l0.1-0.2h0v0C89.9,26,90.8,25.8,91.8,25.9L91.8,25.9z"/>
	<path class="st0" d="M101.9,25.9c0.2,0.5,0.3,1.4,0.3,2.7c0,0,0,0,0,0c-0.9,0-1.7,0-2.3-0.1c-1.1-0.1-1.8-0.1-1.9-0.1
		c-1,0-1.7,0-2.2,0.2c0,0-0.1,0.1-0.1,0.2v0.6c0,0.5,0,0.8,0,0.9v1l0,0.4v0.5v1c0,1.8,0,2.9,0,3.2c0,0.9,0,1.5,0,2c0,0,0,0,0,0h-2.9
		c0,0,0,0,0,0c0-0.5,0.1-1.2,0.1-2.3c0-0.1,0-0.2,0-0.4c0-0.2,0-0.4,0-0.5v-0.6c0-0.3,0-0.6,0-0.7c0-0.1,0-0.2,0-0.4
		c0-0.2,0-0.3,0-0.4c0,0,0-0.2,0-0.6s0-0.6,0-0.7c0-0.4,0-0.9,0.1-1.6c0-0.7,0.1-1.2,0.1-1.5c0-0.6,0-1.4,0-2.2c0,0,0,0,0,0
		c0.2-0.1,0.4-0.1,0.5-0.2c0.4-0.1,1.1-0.2,2.1-0.3C96.9,25.9,99,25.8,101.9,25.9L101.9,25.9z"/>
	<path class="st0" d="M113.4,38.3h-1.5h-1.5c0,0,0,0,0,0L110,37l-0.3-1.3c-0.1-0.3-0.2-0.6-0.4-1c-1.1,0.1-2.6,0.1-4.3,0.2
		c-0.3,0.7-0.5,1.3-0.7,1.8c-0.1,0.3-0.5,1.1-0.6,1.5c0,0,0,0,0,0h-3.2c0,0,0,0,0-0.1c0.1-0.2,0.4-0.9,0.6-1.2
		c0.2-0.3,0.4-0.8,0.7-1.3l0.8-1.7c0.3-0.8,0.6-1.3,0.8-1.7c0.4-0.8,1.1-2.1,1.5-2.9c0.2-0.4,0.6-1.2,0.8-1.6
		c0.1-0.3,0.3-0.6,0.4-0.9c0.1-0.2,0.2-0.3,0.2-0.5c0.1-0.2,0.2-0.3,0.2-0.3c0,0,0.2-0.1,0.4-0.2c0.2-0.1,0.4-0.1,0.7-0.2
		c0.5-0.1,1.1-0.1,1.7-0.1c0,0,0,0,0,0c0.1,0.4,0.5,1.5,1.2,3.2c0.3,0.6,0.6,1.6,0.9,2.7c0.4,1.2,0.7,2,0.9,2.5l0.7,1.9
		c0.3,0.9,0.6,1.5,1,2.1C113.9,38.4,113.6,38.3,113.4,38.3 M108.5,32.6c-0.2-0.7-0.4-1.1-0.4-1.3l-0.7-2.2l-0.6,1.3
		c-0.2,0.5-0.4,0.9-0.5,1.2c-0.1,0.3-0.3,0.9-0.4,1.1l1.3-0.1L108.5,32.6z"/>
	<path class="st0" d="M77.8,52.7c0.1,0.9,0,1.8-0.2,2.4c-0.3,0.8-0.7,1.4-1.3,1.7c-0.3,0.2-0.6,0.3-1.1,0.4
		c-0.4,0.1-0.8,0.2-1.3,0.2c-0.7,0.1-1.6,0.2-2.6,0.1c-0.9,0-1.5-0.1-2.1-0.2l-0.5-0.2L68.3,57l0,0c0.1-1.3,0.2-2.9,0.2-4.8
		c0-0.8,0-2.5-0.2-5.1c0-0.6,0-1.2-0.1-1.7v-0.2c0.4-0.1,0.9-0.1,1.5-0.1c1.4-0.1,3.5-0.1,6.4-0.1l0,0c0.2,0.5,0.3,1.4,0.3,2.7
		c0,0,0,0,0,0c-0.9,0-1.7,0-2.4-0.1c-1.2-0.1-1.8-0.1-2-0.1c-0.5,0-0.9,0-1.2,0V48c0,0.5,0,0.7,0,0.8c1.4-0.1,2.1-0.1,2.1-0.1
		c1.1,0,1.9,0.1,2.5,0.3c0.7,0.3,1.2,0.7,1.6,1.2C77.4,50.8,77.7,51.6,77.8,52.7 M75.1,53.5c0.1-0.4,0.1-0.8,0-1.2
		c-0.2-0.6-0.4-1-0.7-1.2c-0.3-0.2-0.7-0.4-1.2-0.4c-0.3,0-0.7,0-1.4,0c-0.3,0-0.6,0-0.9,0.1v3.9c0.9,0.1,1.5,0.1,1.6,0.1
		c0.3,0,0.5,0,0.8,0c0.3,0,0.5,0,0.8-0.1c0.3-0.1,0.5-0.2,0.6-0.3C74.8,54.3,75,54,75.1,53.5"/>
	<path class="st0" d="M91,46.5c0,0.1,0,0.4,0,0.8c0,0.4,0,1,0,1.9c0,0.9,0,1.5,0,1.9c-0.1,1.2-0.1,2.2-0.1,3.2l0,0.4v1.1
		c0,0.9,0,1.5,0,1.5c0,0,0,0,0,0H88c0,0,0,0,0,0c0-0.1,0-0.4,0-1c0-0.1,0-0.2,0-0.4l0-0.4c0-0.1,0-0.3,0-0.4c0-1.1,0-2,0-2.7
		c0-0.1,0-0.2,0-0.3l0-0.4c0-0.1,0-0.3,0-0.3c0-0.3,0-0.7,0-1.3v-1.3v-1c-0.2,0-0.7,0-1.5,0l-0.5,0l-0.5,0c-0.4,0-0.8,0-1,0
		c-0.1,1.7-0.2,3.3-0.4,4.7c-0.2,1.4-0.6,2.5-1,3.2c-0.3,0.4-0.6,0.8-1.1,1.1c-0.4,0.3-1,0.5-1.7,0.7l-0.5,0.1h0h-0.1l-0.1,0h-0.1
		c-0.3,0-0.4,0-0.4,0c0,0-0.1-0.1-0.2-0.2c-0.1-0.2-0.2-0.5-0.3-0.8c-0.2-0.6-0.2-1.2,0-1.7c0.3,0,0.5-0.1,0.7-0.1l0.2-0.1l0.1,0h0
		c0.5-0.2,0.8-0.5,1.2-1c0.4-0.5,0.6-1.2,0.6-2.1c0-0.3,0-0.6,0-1.1l0.1-1c0-0.5,0.1-1.2,0.1-2c0.1-1.1,0.1-1.8,0.1-1.9l0,0
		c0.5-0.2,1.1-0.3,1.8-0.3l1,0c1.2-0.1,2.1-0.1,2.6-0.1c1.2-0.1,2.1-0.1,2.8-0.2c0.3,0,0.7,0,1,0c0,0,0,0,0,0C91,45,91,45.6,91,46.5
		"/>
	<path class="st0" d="M104.2,51.7c-0.1,1.3-0.6,2.5-1.4,3.5c-0.8,1-1.8,1.7-3,2.1c-1.2,0.4-2.5,0.4-3.8,0c-1.3-0.4-2.4-1.1-3.1-2.1
		c-0.7-1-1.1-2.1-1-3.4c0-1.4,0.5-2.8,1.4-4c0.4-0.6,0.9-1.1,1.4-1.5c0.5-0.3,1.1-0.7,1.7-0.9c1.4-0.5,2.8-0.6,4.1-0.2
		c1.1,0.3,2,1.1,2.7,2.2c0.7,1.1,1.1,2.2,1.1,3.5C104.2,51.1,104.2,51.4,104.2,51.7 M99.2,47.2c-1.4-0.4-2.8,0.5-3.5,1.9
		c-0.7,1.4-0.8,2.9-0.4,4.4c0.3,0.7,0.6,1.2,1.1,1.5c0.6,0.4,1.4,0.4,2.2,0c1.3-0.6,2.2-2.1,2.5-3.6C101.4,49.8,101,47.7,99.2,47.2"
		/>
	<path class="st0" d="M114.3,44.9c0.2,0.5,0.3,1.4,0.3,2.7c0,0,0,0,0,0c-0.9,0-1.7,0-2.3-0.1c-1.1-0.1-1.8-0.1-1.9-0.1
		c-1,0-1.7,0-2.2,0.2c0,0-0.1,0.1-0.1,0.2v0.6c0,0.5,0,0.8,0,0.9v1l0,0.4v0.5v1c0,1.8,0,2.9,0,3.2c0,0.9,0,1.5,0,2c0,0,0,0,0,0h-2.9
		c0,0,0,0,0,0c0-0.5,0.1-1.2,0.1-2.3c0-0.1,0-0.2,0-0.4c0-0.2,0-0.4,0-0.5v-0.6c0-0.3,0-0.6,0-0.7c0-0.1,0-0.2,0-0.4
		c0-0.2,0-0.3,0-0.4c0,0,0-0.2,0-0.6c0-0.4,0-0.6,0-0.7c0-0.4,0-0.9,0.1-1.6c0-0.7,0.1-1.2,0.1-1.5c0-0.6,0-1.4,0-2.2c0,0,0,0,0,0
		c0.2-0.1,0.4-0.1,0.5-0.2c0.4-0.1,1.1-0.2,2.1-0.3C109.4,44.9,111.4,44.9,114.3,44.9L114.3,44.9z"/>
	<path class="st0" d="M118.3,47.6c-0.1,0-0.1,0.1-0.1,0.3v0.5c0,0.5,0,1.1,0,1.7h1c0.4,0,0.8,0,0.9,0c0.6,0,1,0,1.3,0
		c0.4,0,0.6,0,0.7,0c0,0,0,0,0,0c-0.1,0.1-0.1,0.4,0,1c0,0.6,0,0.9,0,1c0,0,0,0,0,0c-0.2,0-0.7,0-1.5,0c-0.3,0-1,0-1.2,0
		c-0.3,0-0.8,0-1.2,0h-0.1c0,0.8,0,1.6,0,2.3h1.2c1.7,0,2.6,0,2.6,0c1.2,0,2,0,2.5,0c0,0,0,0,0,0c0.1,0.8,0.1,1.7,0,2.7c0,0,0,0,0,0
		H122h-6.8c0,0,0,0,0,0c0-0.5,0.1-1.2,0.1-2.3c0-0.1,0-0.7,0-0.9c0-0.1,0-0.3,0-0.7c0-0.3,0-0.5,0-0.6c0-0.2,0-0.5,0.1-0.7
		c0,0,0-0.2,0-0.6c0-0.4,0-0.6,0-0.7c0-0.4,0-0.9,0.1-1.6c0-0.7,0.1-1.2,0.1-1.5c0-0.6,0-1.4,0-2.2c0,0,0,0,0,0l1.1-0.2
		c1.7-0.2,4.4-0.3,8-0.3c0,0,0,0,0,0c0.1,0.3,0.1,0.8,0.1,1.4c0,0.6-0.1,1-0.3,1.4c0,0,0,0,0,0c-1,0-1.9,0-2.6-0.1
		c-1.1,0-2-0.1-2.5-0.1C118.9,47.5,118.6,47.5,118.3,47.6L118.3,47.6z"/>
	<path class="st0" d="M135.2,49.7c-0.1,1-0.3,1.8-0.7,2.4c-0.3,0.6-0.9,1-1.6,1.2c-0.6,0.2-1.4,0.3-2.5,0.3c-0.1,0-0.8,0-2.1-0.1
		c0,0,0,0.3,0,0.8c0,0.5,0,0.8,0,1.1c0,0.3,0,0.9-0.1,1.9c0,0,0,0,0,0h-2.5c0,0,0,0,0,0c0.1-0.6,0.1-1.3,0.1-2
		c0.1-2.6,0.2-4.3,0.2-5.1c0-1.8-0.1-3.4-0.2-4.8c0,0,0,0,0,0c0.2,0,0.7-0.2,0.9-0.3c0.5-0.1,1.2-0.2,2.1-0.2c1,0,1.8,0,2.6,0.1
		c0.4,0.1,0.9,0.1,1.3,0.2c0.5,0.1,0.9,0.2,1.1,0.4c0.6,0.3,1,0.9,1.3,1.7C135.2,47.9,135.3,48.7,135.2,49.7 M128.2,50.8v0.6
		c0.3,0.1,0.7,0.1,0.9,0.1c0.6,0,1.1,0.1,1.4,0c0.5,0,0.9-0.2,1.2-0.4c0.3-0.2,0.6-0.6,0.7-1.2c0.1-0.4,0.1-0.8,0-1.2
		c-0.1-0.4-0.2-0.8-0.5-1c-0.6-0.5-1.4-0.5-2.2-0.4c-0.2,0-0.7,0-1.6,0.1v0.8V50.8z"/>
	<path class="st0" d="M148.4,51.7c-0.1,1.3-0.6,2.5-1.4,3.5c-0.8,1-1.8,1.7-3,2.1c-1.2,0.4-2.5,0.4-3.8,0c-1.3-0.4-2.4-1.1-3.1-2.1
		c-0.7-1-1.1-2.1-1-3.4c0-1.4,0.5-2.8,1.4-4c0.4-0.6,0.9-1.1,1.4-1.5c0.5-0.3,1.1-0.7,1.7-0.9c1.4-0.5,2.8-0.6,4.1-0.2
		c1.1,0.3,2,1.1,2.7,2.2c0.7,1.1,1.1,2.2,1.1,3.5C148.5,51.1,148.5,51.4,148.4,51.7 M143.4,47.2c-1.4-0.4-2.8,0.5-3.5,1.9
		c-0.7,1.4-0.9,2.9-0.4,4.4c0.3,0.7,0.6,1.2,1.1,1.5c0.6,0.4,1.4,0.4,2.2,0c1.3-0.6,2.2-2.1,2.5-3.6
		C145.6,49.8,145.2,47.7,143.4,47.2"/>
	<path class="st0" d="M158.7,55.1c-0.3,0.8-0.8,1.3-1.5,1.7c-0.3,0.2-0.7,0.3-1.1,0.4c-0.9,0.2-1.2,0.2-2.3,0.2c-0.5,0-1.9,0-4.4,0
		c0,0,0,0,0,0c0-0.5,0.1-1.2,0.1-2.3c0-0.1,0-0.7,0-0.9c0-0.1,0-0.3,0-0.7c0-0.3,0-0.5,0-0.6c0-0.2,0-0.6,0.1-0.7c0,0,0-0.2,0-0.6
		c0-0.4,0-0.6,0-0.7c0-0.9,0.1-2.3,0.1-3.1c0-0.6,0-1.4,0-2.2c0,0,0,0,0,0l1.3-0.2c0.3-0.1,0.7-0.1,1.2-0.2c0.9-0.1,1.7-0.1,2.6,0
		c0.7,0.1,1.3,0.4,1.8,0.7c0.4,0.3,0.7,0.8,0.9,1.4c0.4,1.1,0.4,2,0,2.8c-0.2,0.4-0.4,0.7-0.8,0.9c0.2,0.1,0.5,0.1,0.7,0.3
		c0.6,0.3,1.1,0.9,1.4,1.7C159,53.5,159,54.3,158.7,55.1 M152.3,54.5c0,0,0.3,0,0.3,0h0.4h1.1c0.6,0,1.1,0,1.3-0.1
		c0.4-0.1,0.7-0.3,0.9-0.6c0.2-0.3,0.3-0.7,0.2-1c-0.1-0.3-0.3-0.5-0.7-0.7c-0.3-0.1-0.7-0.2-1.2-0.3c-0.9-0.1-1.7,0-2.3,0.1
		c0,0.7,0,1.2,0,1.7v0.6v0.2C152.2,54.5,152.2,54.5,152.3,54.5L152.3,54.5L152.3,54.5z M152.3,47.9c0,1.2,0,2,0,2.3
		c0.5,0,0.9,0,1.3-0.1c0.6-0.1,1-0.3,1.3-0.6c0.3-0.3,0.4-0.7,0.3-1.3c-0.1-0.3-0.3-0.6-0.6-0.7c-0.4-0.2-0.9-0.2-1.5-0.1l-0.4,0.1
		l-0.4,0.1c0,0,0,0.1,0,0.2V47.9z"/>
	<path class="st1" d="M41.4,69.4c0-0.1-0.1-0.2-0.1-0.2c0-0.1-0.1-0.1-0.1-0.2c-0.1-0.1-0.1-0.2-0.2-0.3c0,0,0-0.1-0.1-0.1
		c-0.5-0.5-1-0.9-1.6-1.3c-0.8-0.5-1.7-1-2.7-1.4c-0.1,0-0.2-0.1-0.3-0.1c-2-0.8-4.4-1.2-6.7-1.2c-2.3,0-4.6,0.4-6.6,1.1l0,0
		c-0.2,0.1-0.3,0.1-0.5,0.2l0,0l-0.1,0c-0.9,0.4-1.8,0.8-2.5,1.3c-0.6,0.4-1.2,0.9-1.6,1.4c-0.1,0.1-0.1,0.1-0.2,0.2
		c0,0-0.1,0.1-0.1,0.1c-0.1,0.1-0.2,0.2-0.3,0.3c0,0,0,0,0,0c-0.1,0.1-0.2,0.2-0.2,0.3c0,0,0,0.1-0.1,0.1c-0.1,0.1-0.1,0.2-0.2,0.3
		c0,0,0,0,0,0c-0.1,0.1-0.1,0.2-0.2,0.3c-0.6,1-0.9,2.1-0.9,3.2c0,1.4,0.5,2.7,1.4,3.9c0.1,0.1,0.2,0.2,0.3,0.3
		c1.4,1.3,3.5,2.4,5.8,3.1c1.6,0.4,3.4,0.7,5.2,0.7c1.9,0,3.6-0.2,5.2-0.7c2.3-0.6,4.4-1.7,5.8-3.1c1.6-1.4,2.5-3.2,2.5-5.1
		C42.3,71.5,42,70.4,41.4,69.4 M32.2,73.1L32.2,73.1l-5.1,2.1l-1.3,0.6v-6.4l3.2,1.3l4.5,1.8L32.2,73.1z"/>
	<path class="st2" d="M53.6,39.5c0-0.2,0-0.4-0.1-0.6c0,0,0,0,0-0.1c-0.2-1.1-0.9-2.1-1.9-2.7c-0.6-0.4-1.4-0.6-2.2-0.6h-0.1
		c-1.1,0-2.1,0.4-2.9,1.1c-0.1,0.1-0.2,0.2-0.3,0.3c-0.2,0.2-0.3,0.4-0.5,0.6c0,0,0,0,0,0c0,0-0.1,0-0.1,0c-0.1-0.1-0.1-0.3-0.2-0.6
		c0-0.3,0-0.7,0.2-1.1c0-0.1,0.1-0.1,0.1-0.2v0c-0.2-1.4-0.6-3.3-0.7-4.3c-0.2-1.1-0.4-2.2-0.6-3.2c0-0.2-0.1-0.4-0.1-0.6
		c-0.5,0.2-1.5,0.6-1.9,0.7c-1.4,0.4-2.9,0.7-4.4,0.9c-2.9,0.3-5.8,0.2-8.9-0.4c-1.5-0.3-3-0.7-4.5-1.2c-0.1,0-0.2-0.1-0.4-0.1
		c-0.9-0.3-1.8-0.6-2.7-1c-0.6-0.2-1.1-0.5-1.7-0.7c-0.4-0.2-2.1-0.9-2.5-1.1c-0.3-0.2-0.5-0.2-0.8-0.4c0,0,0,0,0,0
		c-0.2,0.3-0.4,0.7-0.6,1.2c-0.2,0.3-0.3,0.7-0.5,1.2c0,0.1-0.1,0.2-0.1,0.3c-0.2,0.5-0.5,1.1-0.7,1.8c-0.5,1.3-1,2.8-1.2,4.5
		c-0.6,4.2-0.2,6.6-0.2,6.5c-0.2-0.2-0.8-0.9-1.2-1.3c-0.4-0.4-0.8-0.8-1.3-1c-0.5-0.2-1.1-0.4-1.7-0.4c0,0-0.1,0-0.1,0h0
		c-1.1,0-2.1,0.4-2.8,1.1c-0.8,0.7-1.4,1.8-1.4,3c0,0,0,0,0,0.1c0,0.1,0,0.1,0.1,0.2C4.6,41.7,4.8,42,5,42.3c0.3,0.3,0.6,0.6,1,0.8
		h0c0.4,0.3,0.9,0.4,1.4,0.5c0,0,0,0,0.1,0c0.2,0,0.4,0.1,0.6,0.1c0.2,0,0.5,0,0.7,0c0.7-0.1,1.3-0.3,1.8-0.5c0.4-0.2,0.8-0.4,1-0.6
		c0.1-0.1,0.2,0,0.2,0.1c-0.1,0.4-0.3,1-0.8,1.6c0.1,0.3,0.2,0.5,0.4,0.8c0.2,0.5,0.5,1.1,0.8,1.7c0.1,0.3,0.3,0.5,0.5,0.8
		c0.3,0.5,0.6,0.9,0.9,1.4c0.3,0.4,0.5,0.7,0.8,1c0.1,0.1,0.2,0.2,0.3,0.3c0,0,0.1,0.1,0.1,0.2c0.1,0.1,0.2,0.2,0.3,0.3
		c0.3,0.4,0.6,0.7,1,1.1c0,0,0,0,0,0.1c0.1,0.1,0.2,0.2,0.2,0.2v0c0.1,0.1,0.2,0.2,0.3,0.3c0.4,0.4,0.8,0.8,1.3,1.2
		c0.1,0.1,0.1,0.1,0.2,0.2c0.4,0.4,0.9,0.8,1.3,1.1c0.1,0,0.1,0.1,0.2,0.1c0.3,0.2,0.6,0.5,0.9,0.7c0.2,0.1,0.4,0.3,0.6,0.4
		c0.2,0.1,0.4,0.2,0.5,0.3c0.2,0.1,0.4,0.2,0.6,0.3c0.5,0.3,0.9,0.5,1.3,0.7c0.2,0.1,0.4,0.2,0.6,0.2c0.8,0.4,1.6,0.6,2.3,0.8
		c1.6,0.4,3.2,0.4,4.9,0c0.7-0.2,1.7-0.5,2.8-1c0.1-0.1,0.2-0.1,0.3-0.2c0.5-0.2,1-0.5,1.6-0.9c0.1,0,0.2-0.1,0.2-0.1
		c0,0,0.1,0,0.1-0.1c0.3-0.2,0.5-0.3,0.8-0.5c0.2-0.2,0.5-0.3,0.7-0.5c0,0,0.1-0.1,0.1-0.1c0.4-0.3,0.9-0.7,1.4-1.1
		c0.1-0.1,0.1-0.1,0.2-0.2c0.1-0.1,0.2-0.1,0.2-0.2c0.4-0.4,0.9-0.8,1.3-1.3c0,0,0.1-0.1,0.1-0.1c0,0,0,0,0.1-0.1
		c0.1-0.1,0.2-0.2,0.2-0.2c0,0,0,0,0-0.1c0.3-0.3,0.7-0.7,1-1.1c0.1-0.1,0.1-0.2,0.2-0.2c0.1-0.1,0.1-0.1,0.2-0.2
		c0.1-0.1,0.2-0.2,0.3-0.3c0.3-0.3,0.5-0.7,0.8-1c0.4-0.5,0.7-1,1-1.5c0.2-0.3,0.4-0.6,0.5-0.9c0.2-0.4,0.4-0.7,0.5-1.1
		c0-0.1,0.1-0.2,0.1-0.2c0-0.1,0.1-0.1,0.1-0.2c0.1-0.2,0.2-0.4,0.2-0.6c0,0,0-0.1,0.1-0.2c-0.3-0.4-0.5-0.8-0.7-1.1
		c-0.1-0.2-0.1-0.4-0.1-0.5c0-0.1,0.1-0.2,0.2-0.1c0.3,0.2,0.6,0.4,1,0.6c0.1,0,0.2,0.1,0.2,0.1h0c0.6,0.3,1.3,0.5,2.1,0.5
		c2.4,0,4.3-1.8,4.3-4.1v0C53.6,39.6,53.6,39.5,53.6,39.5 M28.6,50.9c2-0.3,4.1-1,6-2.3c0.8-0.5,1.5-1.2,2.2-1.9
		C35,51.2,30,51.7,28.6,50.9"/>
	<path class="st3" d="M45.1,61.5c0,1.6-0.6,3.1-1.7,4.3c-0.2,0.3-0.5,0.5-0.7,0.8c-0.1,0.1-0.1,0.1-0.2,0.2
		c-0.1,0.1-0.3,0.1-0.4,0.2c0,0,0,0,0,0c-0.5-0.5-1-1-1.6-1.5v-9.8c0.2-0.2,0.4-0.3,0.6-0.5c0,0,0,0,0,0c0.1,0.1,0.2,0.1,0.3,0.2
		c0.4,0.3,0.7,0.5,1.1,0.8c0.2,0.2,0.4,0.3,0.6,0.5c0.1,0.1,0.2,0.2,0.3,0.3c0,0,0,0,0,0c0.1,0.1,0.2,0.2,0.2,0.3c0,0,0,0,0,0
		c0.1,0.1,0.1,0.2,0.2,0.3c0,0,0,0,0,0c0.1,0.1,0.1,0.2,0.2,0.3c0,0.1,0.1,0.1,0.1,0.2c0,0,0,0,0,0c0,0.1,0.1,0.1,0.1,0.2
		c0.1,0.1,0.1,0.2,0.2,0.3C44.8,59.5,45.1,60.5,45.1,61.5"/>
	<path class="st3" d="M17.2,55.7v9.8c-0.1,0.1-0.1,0.1-0.2,0.2c-0.1,0-0.1,0.1-0.2,0.1c-0.1,0-0.1,0.1-0.2,0.1
		c-0.1,0.1-0.2,0.2-0.3,0.3c-0.1,0.1-0.1,0.1-0.2,0.2c-0.1,0.1-0.3,0.3-0.4,0.4c-0.1,0.1-0.1,0.1-0.2,0.2c-0.1-0.1-0.3-0.1-0.4-0.2
		c-0.1,0-0.2-0.1-0.2-0.1c-0.1-0.1-0.2-0.1-0.3-0.2c-1.5-1.4-2.4-3.1-2.4-5c0-1.1,0.3-2.2,0.9-3.2c0.1-0.1,0.1-0.2,0.2-0.3
		c0,0,0,0,0,0c0.1-0.1,0.1-0.2,0.2-0.3c0,0,0-0.1,0.1-0.1c0.1-0.1,0.6-0.7,0.6-0.7c0.1-0.1,0.1-0.1,0.2-0.2c0.5-0.5,1-0.9,1.6-1.3
		c0.2-0.1,0.3-0.2,0.5-0.3C16.8,55.3,17,55.5,17.2,55.7"/>
	<path class="st0" d="M37,30.3c-1,0-1.9,0.2-2.7,0.4l-0.5,0.1c-3,0.8-6.2,0.8-9.2,0c-0.6-0.2-1.3-0.3-1.9-0.4
		c-0.9-0.1-1.2-0.1-2.2-0.1c-3.7,0-6.7,2.3-6.7,5.1c0,2.8,3,5.1,6.7,5.1h0c1.1,0,3.1,0,4.5-1.2c1.3-1.1,2-2.5,3.7-2.6
		c1.6,0,2.1,1.5,3.4,2.5c1.3,1,3.7,1.4,4.8,1.4h0c3.7,0,6.7-2.3,6.7-5.1C43.7,32.6,40.7,30.3,37,30.3 M22.8,37.6
		c0.1-0.3,0.2-0.7,0.2-1c0-0.8-0.3-1.5-0.7-2c-0.3,0.9-0.8,1.5-1.1,1.5c-0.4-0.1-0.5-1-0.3-2.2c0,0-0.1,0-0.1,0
		c-1.2,0-2.2,1.2-2.2,2.7c0,0.3,0,0.6,0.1,0.9c-1.1-0.4-1.9-1.2-1.9-2c0-1.3,1.8-2.4,4.1-2.4c2.3,0,4.1,1.1,4.1,2.4
		C25,36.3,24.1,37.2,22.8,37.6 M39,37.4c0.1-0.3,0.1-0.5,0.1-0.8c0-0.8-0.3-1.5-0.7-2c-0.3,0.9-0.8,1.5-1.1,1.5
		c-0.4-0.1-0.5-1-0.3-2.2c0,0-0.1,0-0.1,0c-1.2,0-2.2,1.2-2.2,2.7c0,0.4,0.1,0.7,0.2,1c-1.4-0.4-2.4-1.2-2.4-2.2
		c0-1.3,1.8-2.4,4.1-2.4c2.3,0,4.1,1.1,4.1,2.4C40.8,36.2,40.1,36.9,39,37.4"/>
	<path class="st0" d="M35.2,71.2l-9.4-3.9c-0.4-0.2-0.9-0.1-1.3,0.1c-0.4,0.3-0.6,0.7-0.6,1.2v7.8c0,0.5,0.2,0.9,0.6,1.2
		c0.2,0.2,0.5,0.2,0.8,0.2c0.2,0,0.4,0,0.5-0.1l9.4-3.9c0.5-0.2,0.9-0.7,0.9-1.3S35.8,71.5,35.2,71.2 M32.1,73.1l-5,2.1v0l-1.3,0.6
		v-6.4l3.2,1.3l4.5,1.8L32.1,73.1z"/>
	<path class="st0" d="M55.5,61.2c-1.1-3.2-3.7-6.1-7.6-8.4c-1-0.6-2-1.1-3.1-1.6c0,0,0.1-0.1,0.1-0.1c0.1-0.1,0.2-0.2,0.3-0.3
		c0,0,0,0,0,0c0.1-0.1,0.2-0.3,0.3-0.4c0,0,0,0,0,0c0,0,0.1-0.1,0.1-0.1c0.9-1.2,1.6-2.4,2.1-3.5c0.1-0.2,0.2-0.4,0.3-0.7
		c0-0.1,0.1-0.1,0.1-0.2c0-0.1,0.1-0.2,0.1-0.2c0-0.1,0-0.1,0.1-0.2c0.1,0,0.2,0.1,0.3,0.1c0.4,0.1,0.8,0.1,1.3,0.1
		c1.5,0,2.9-0.6,3.9-1.5c0.7-0.7,1.3-1.5,1.6-2.5c0-0.1,0-0.1,0-0.2c0-0.1,0.1-0.2,0.1-0.3v0c0,0,0,0,0,0v0c0,0,0,0,0,0c0,0,0,0,0,0
		c0-0.1,0-0.2,0-0.3c0,0,0-0.1,0-0.1c0-0.1,0-0.2,0-0.3c0-0.1,0-0.1,0-0.2c0-0.1,0-0.1,0-0.2c0-0.1,0-0.1,0-0.2v-0.1
		c0-1.6-0.7-3.1-1.8-4.2c-0.1-0.1-0.2-0.2-0.4-0.3c-0.1-0.1-0.1-0.1-0.2-0.2c0,0,0,0,0,0c-0.2-0.2-0.5-0.3-0.7-0.5c0,0-0.1,0-0.1,0
		c0,0-0.1,0-0.1-0.1c-0.3-0.2-0.7-0.3-1.1-0.4c0.1-0.4,0.2-0.8,0.2-1.2c0.2-0.9,0.3-1.8,0.4-2.8c0.2-1.7,0.4-3.5,0.4-5
		c0-0.4,0-0.8,0-1.2c0-0.7,0-1.5-0.1-2.1c0-0.7-0.1-1.2-0.1-1.5c0.6-0.7,1.2-1.5,1.7-2.2c0,0,0,0,0,0c0.4-0.6,0.7-1.2,1-1.8
		c0.2-0.5,0.5-1,0.6-1.4c0-0.1,0.1-0.2,0.1-0.2c1-2.7,1-5.2-0.1-6.9L55,6.6l-0.8,0.7c0,0-1.5,1.3-3.2,1.7c-0.4,0.1-0.7,0.2-1.1,0.2
		c0,0,0,0,0,0c0,0,0,0,0,0c-0.1,0-0.3,0-0.4,0c0.7-0.9,1.1-1.9,1.2-3C51,3.4,48.9,1,48.8,1l-0.7-0.8l0,0l0,0L47.4,1
		c0,0-0.7,0.8-2.1,1.5c-0.7,0.3-1.5,0.6-2.6,0.9c-0.7,0.1-1.5,0.3-2.4,0.3c-0.9,0-1.9,0-3.1-0.1c-1.7-0.2-3.7-0.5-5.9-1.2
		C30.8,2.3,30.4,2.1,30,2c-0.6-0.2-1.2-0.4-1.8-0.6C28,1.3,27.8,1.2,27.5,1c-0.1-0.1-0.3-0.1-0.4-0.2C21.6-1.4,17.5,1.3,15,4
		c-0.5,0.6-1,1.2-1.4,1.7c-0.1-0.7-0.2-1.4-0.3-1.9c-0.2-1.1-0.4-1.8-0.4-1.9l0-0.1L12.5,0l-1.2,1.4c-0.4,0.4-0.7,0.9-1,1.3
		C9.8,3.2,9.5,3.8,9.2,4.3c0,0.1-0.1,0.1-0.1,0.2C8.2,5.9,7.9,7.2,7.7,8.2C7.6,8.8,7.6,9.3,7.6,9.7C6,9.8,4.8,10.2,3.8,10.7
		c-0.1,0.1-0.3,0.1-0.4,0.2c-0.9,0.5-1.5,1-2,1.4c-0.6,0.6-0.9,1.1-0.9,1.2L0,14.3l0.9,0.4c0,0,0.4,0.2,1,0.5
		c0.2,0.1,0.4,0.2,0.7,0.3c0.7,0.3,1.5,0.7,2.3,1c0.3,0.1,0.7,0.3,1,0.4c-0.1,0.4-0.3,0.8-0.4,1.4c0,0,0,0,0,0
		c-0.1,0.3-0.2,0.7-0.2,1.1c-0.1,0.5-0.2,1-0.2,1.5c0,0.3-0.1,0.6-0.1,0.9c0,0.2,0,0.4,0,0.5c0,0.3,0,0.6,0,0.9v0c0,0.7,0,1.4,0,2.2
		c0,2.7,0.6,5.5,1,7.5C5.8,33.3,6,33.7,6,34c0,0,0,0,0,0c-0.5,0.2-1.1,0.4-1.5,0.7c0,0-0.1,0-0.1,0.1C2.9,35.9,2,37.7,2,39.6
		c0,2.2,1.2,4.1,2.9,5.1c0.1,0,0.1,0.1,0.2,0.1c0.6,0.3,1.2,0.5,1.8,0.6c0.2,0,0.5,0.1,0.7,0.1c0.1,0,0.3,0,0.4,0c0.5,0,1,0,1.4-0.1
		c0,0.1,0.1,0.2,0.1,0.3c0.5,1.2,1.4,2.9,2.5,4.5c0,0,0.1,0.1,0.1,0.1c0,0.1,0.1,0.1,0.1,0.2c0.2,0.2,0.3,0.4,0.4,0.6
		c0,0.1,0.1,0.1,0.1,0.2c-1.1,0.5-2.1,1-3.1,1.6C5.9,55,3.3,57.9,2.2,61c-0.3,0.7-0.4,1.5-0.5,2.2c-0.1,0.4-0.1,0.9-0.1,1.3
		c0,4.5,2.9,8.7,8.2,11.8c2.1,1.3,4.6,2.3,7.2,3c2.8,2.4,7.1,3.9,11.9,3.9c4.8,0,9.1-1.5,11.9-3.9c2.6-0.8,5-1.8,7.2-3
		c5.3-3.1,8.2-7.3,8.2-11.8c0-0.4,0-0.8-0.1-1.1C55.9,62.6,55.8,61.9,55.5,61.2 M2.8,13.6c0.8-0.8,2.6-2,5.8-2l1.2,0
		c0,0-0.2-0.4-0.3-1.2c0-0.4,0-0.9,0.1-1.6c0.2-1,0.5-2.2,1.3-3.7c0.1-0.3,0.3-0.6,0.5-0.8c0.1,0.3,0.1,0.7,0.2,1.1
		c0,0.2,0.1,0.3,0.1,0.5c0.1,0.5,0.2,1,0.3,1.5c0,0.3,0.1,0.5,0.1,0.8c0,0.3,0.1,0.5,0.1,0.8c0,0.2,0,0.3,0,0.5c0,0.3,0,0.6,0.1,1
		c0,0.2,0,0.4,0,0.6v1l1.1-2.2l0.4-0.8c0,0,0.1-0.2,0.2-0.4c0.3-0.5,0.9-1.4,1.7-2.5c0.4-0.5,0.9-1,1.4-1.5c0.2-0.2,0.3-0.3,0.5-0.5
		c2.4-1.9,5-2.5,7.7-1.7c0,0,0.1,0,0.1,0c0.2,0.1,0.3,0.1,0.5,0.2c0.1,0,0.2,0.1,0.3,0.1c0.4,0.2,0.9,0.4,1.3,0.5
		c0.2,0.1,0.4,0.1,0.6,0.2c0.3,0.1,0.6,0.2,1,0.3C30,4,30.8,4.2,31.5,4.5c1.4,0.4,2.7,0.7,4,0.9c1.5,0.2,2.8,0.3,4,0.3
		c0.8,0,1.6-0.1,2.3-0.2c0.1,0,0.3,0,0.4-0.1c0.7-0.1,1.4-0.3,2-0.4c0.1,0,0.2-0.1,0.3-0.1c0.7-0.2,1.3-0.5,1.8-0.8
		C47.1,3.8,47.6,3.4,48,3c0,0.1,0.1,0.1,0.1,0.2c0,0,0.1,0.1,0.1,0.2c0,0,0,0.1,0,0.1c0.1,0.1,0.1,0.2,0.2,0.3
		c0,0.1,0.1,0.2,0.1,0.3c0,0,0,0,0,0c0,0,0,0,0,0c0,0,0,0,0,0.1c0,0.1,0,0.1,0.1,0.2c0,0,0,0,0,0c0,0,0,0,0,0v0c0,0.1,0,0.1,0.1,0.2
		v0c0,0,0,0,0,0c0,0,0,0.1,0,0.1c0,0,0,0.1,0,0.1c0,0.1,0,0.1,0,0.2c0,0.1,0,0.2,0,0.3c0,0.1,0,0.2,0,0.3c0,0.1,0,0.2,0,0.4
		c-0.1,0.7-0.3,1.3-0.8,2c-0.2,0.3-0.5,0.5-0.7,0.8c0,0-0.1,0.1-0.1,0.1c-0.4-0.1-0.8-0.3-1.2-0.5c-0.3-0.2-0.6-0.5-0.6-0.5
		s-0.1,1.2,0.8,2.2c0.5,0.6,1.4,1,2.9,1.1c0.7,0,1.5-0.1,2.4-0.3c0.1,0,0.1,0,0.2,0c1.1-0.3,2-0.9,2.7-1.3c0.1,0.4,0.1,1,0.1,1.5
		c0,0.5-0.1,1-0.2,1.5c-0.3,1.1-0.7,2.3-1.4,3.5c-0.1,0.2-0.2,0.4-0.3,0.6l-0.1,0.2c-0.3,0.4-0.5,0.8-0.8,1.2
		c-0.2,0.3-0.5,0.6-0.8,0.9c-0.1,0.1-0.2,0.2-0.3,0.3c-0.1,0.1-0.1,0.1-0.2,0.2c-0.1,0.1-0.3,0.3-0.4,0.4c-0.2,0.2-0.4,0.4-0.7,0.6
		c-0.1,0.1-0.2,0.2-0.3,0.2c-0.1,0.1-0.2,0.2-0.4,0.3c-0.6,0.5-1.4,1.1-2.3,1.6c-1,0.6-2.1,1.2-3.4,1.7c-0.6,0.2-1.2,0.4-1.8,0.6
		c-2.3,0.7-4.9,1.1-8,1c-1.4-0.1-3-0.2-4.6-0.6c-1.7-0.3-3.5-0.8-5.3-1.5c-1-0.4-2-0.8-3-1.3c-0.5-0.2-0.9-0.4-1.4-0.7c0,0,0,0,0,0
		c-0.2-0.1-0.7-0.3-1.3-0.6c-1.4-0.7-3.5-1.9-4.9-3c0,0,0.3,1.7,1.4,3c0.1,0.1,0.1,0.1,0.2,0.2c-0.4,0.7-0.9,1.7-1.5,3.1
		c-0.2,0.5-0.5,1.1-0.7,1.8c-0.2,0.7-0.5,1.5-0.7,2.3c-0.5,1.7-0.8,3.6-1.1,5.7c-0.1,0-0.2-0.1-0.2-0.1c-0.5-0.2-1-0.3-1.6-0.4
		c-0.1,0-0.2,0-0.3,0c-0.5-1.8-1.3-5.3-1.4-8.5c0-0.8,0-1.5,0-2.1c0-0.5,0-1,0.1-1.4v0c0-0.3,0.1-0.6,0.1-0.9c0-0.1,0-0.2,0-0.3
		c0-0.3,0.1-0.6,0.1-0.9c0-0.2,0.1-0.3,0.1-0.5c0.4-1.8,1-2.9,1.5-3.5c0,0,0.1-0.1,0.1-0.1h0C8.9,15.2,9.2,15,9.2,15
		S9.1,15,8.9,14.9c-0.4-0.1-1-0.1-1.8,0.2c-0.1,0-0.1,0.1-0.2,0.1c-0.1,0-0.2-0.1-0.3-0.1c0,0,0,0,0,0C5.3,14.7,3.8,14,2.8,13.6
		 M50.5,24.9c-0.1,2.5-0.6,6.3-1.1,8.9c-0.2,0-0.4,0-0.5,0.1c-0.5,0.1-1,0.2-1.4,0.4h0c-0.1,0-0.1,0.1-0.2,0.1l0,0
		c-0.1-0.7-0.8-4.5-0.9-5.2c-0.3-1.5-0.6-2.8-0.9-3.7c0.5-0.2,0.5-0.2,0.9-0.5c1-0.6,2-1.2,2.9-1.9c0.1,0,0.1-0.1,0.2-0.1
		c0.3-0.2,0.6-0.5,0.9-0.8c0,0,0.1-0.1,0.1-0.1c0,0.1,0,0.1,0,0.2c0,0.4,0,0.8,0.1,1.2c0,0.2,0,0.4,0,0.6
		C50.5,24.3,50.5,24.6,50.5,24.9 M12.7,47.7c-0.2-0.3-0.3-0.5-0.5-0.8c-0.3-0.6-0.6-1.2-0.8-1.7c-0.1-0.3-0.3-0.6-0.4-0.8
		c0.5-0.6,0.7-1.3,0.8-1.6c0-0.1-0.1-0.2-0.2-0.1c-0.3,0.2-0.6,0.4-1,0.6c-0.5,0.3-1.1,0.5-1.8,0.5c-0.2,0-0.5,0-0.7,0
		c-0.2,0-0.4,0-0.6-0.1c0,0,0,0-0.1,0c-0.5-0.1-1-0.3-1.4-0.5h0c-0.4-0.2-0.7-0.5-1-0.8c-0.2-0.3-0.4-0.6-0.6-0.9
		c0-0.1,0-0.1-0.1-0.2c-0.2-0.5-0.3-1-0.3-1.6c0-2.2,1.9-4.1,4.2-4.1h0.1c1,0,1.9,0.4,2.6,1c0.1,0.1,0.2,0.1,0.2,0.2
		c0.2,0.2,0.5,0.5,0.7,0.9c0.1,0.1,0.2,0.1,0.2,0c0.1-0.4,0.2-1.2-0.3-1.9c0.1-1.5,0.3-2.9,0.6-4.1c0.4-1.7,0.8-3.2,1.2-4.5
		c0.2-0.7,0.5-1.3,0.7-1.8c0-0.1,0.1-0.2,0.1-0.3c0.2-0.4,0.4-0.8,0.5-1.2c0.2-0.5,0.5-0.9,0.6-1.2c0,0,0,0,0,0
		c0.3,0.2,0.7,0.4,1,0.5c0.4,0.2,0.8,0.4,1.2,0.6c0,0,0,0,0,0c0.4,0.2,0.9,0.4,1.3,0.6c1.6,0.7,3.2,1.4,4.8,1.9
		c1.5,0.5,3,0.9,4.5,1.2c3.1,0.6,6,0.7,8.9,0.4c1.5-0.2,3-0.5,4.4-0.9c0.5-0.1,1.3-0.5,1.8-0.7c0.1,0.3,0.2,0.6,0.3,1
		c0,0.1,0.1,0.3,0.1,0.5c0.1,0.2,0.1,0.4,0.1,0.6c0.2,0.9,0.4,2,0.6,3.1c0.2,1,0.5,3,0.7,4.3v0c0,0.1-0.1,0.1-0.1,0.2
		c-0.2,0.4-0.2,0.8-0.2,1.1c0.1,0.3,0.1,0.5,0.2,0.6c0,0,0.1,0,0.1,0c0,0,0,0,0,0c0.1-0.2,0.3-0.4,0.5-0.6c0.1-0.1,0.2-0.2,0.3-0.3
		c0.8-0.7,1.8-1.1,2.9-1.1h0.1c0.8,0,1.5,0.2,2.2,0.6c1,0.6,1.7,1.5,1.9,2.7c0,0,0,0,0,0.1c0,0.2,0.1,0.4,0.1,0.6c0,0.1,0,0.1,0,0.2
		v0c0,2.3-1.9,4.1-4.3,4.1c-0.7,0-1.4-0.2-2.1-0.5h0c-0.1,0-0.2-0.1-0.2-0.1c-0.4-0.2-0.8-0.4-1-0.6c-0.1-0.1-0.2,0-0.2,0.1
		c0,0.1,0.1,0.3,0.1,0.5c0.1,0.3,0.3,0.8,0.7,1.1c0,0,0,0.1-0.1,0.2c-0.1,0.2-0.1,0.4-0.2,0.6c0,0.1-0.1,0.2-0.1,0.2
		c0,0.1-0.1,0.1-0.1,0.2c-0.2,0.3-0.3,0.7-0.5,1.1c-0.2,0.3-0.3,0.6-0.5,0.9c-0.3,0.5-0.7,1-1,1.5c-0.3,0.4-0.5,0.7-0.8,1
		c-0.1,0.1-0.2,0.2-0.3,0.3c-0.1,0.1-0.1,0.1-0.2,0.2s-0.1,0.2-0.2,0.2c-0.3,0.4-0.7,0.7-1,1.1c0,0,0,0,0,0.1
		c-0.1,0.1-0.2,0.2-0.2,0.2c0,0,0,0-0.1,0.1c0,0-0.1,0.1-0.1,0.1c-0.4,0.5-0.9,0.9-1.3,1.3c-0.1,0.1-0.2,0.1-0.2,0.2
		c-0.1,0.1-0.1,0.1-0.2,0.2c-0.5,0.4-0.9,0.8-1.4,1.1c0,0-0.1,0.1-0.1,0.1c-0.2,0.2-0.5,0.3-0.7,0.5c-0.3,0.2-0.5,0.3-0.8,0.5
		c0,0-0.1,0-0.1,0.1c-0.1,0-0.2,0.1-0.2,0.1c-0.5,0.3-1.1,0.6-1.6,0.9c-0.1,0.1-0.2,0.1-0.3,0.2c-1.1,0.5-2.1,0.8-2.8,1
		c-1.7,0.4-3.4,0.4-4.9,0c-0.7-0.2-1.5-0.4-2.3-0.8c-0.2-0.1-0.4-0.2-0.6-0.2c-0.4-0.2-0.9-0.4-1.3-0.7c-0.2-0.1-0.4-0.2-0.6-0.3
		c-0.2-0.1-0.3-0.2-0.5-0.3c-0.2-0.1-0.4-0.3-0.6-0.4c-0.3-0.2-0.6-0.4-0.9-0.7c-0.1,0-0.1-0.1-0.2-0.1c-0.4-0.3-0.9-0.7-1.3-1.1
		c-0.1-0.1-0.2-0.1-0.2-0.2c-0.4-0.4-0.8-0.8-1.3-1.2c-0.1-0.1-0.2-0.2-0.3-0.3v0c-0.1-0.1-0.2-0.2-0.2-0.2c0,0,0,0,0-0.1
		c-0.3-0.3-0.6-0.7-1-1.1c-0.1-0.1-0.2-0.2-0.3-0.3c-0.1,0-0.1-0.1-0.1-0.2c-0.1-0.1-0.2-0.2-0.3-0.3c-0.3-0.3-0.5-0.7-0.8-1
		C13.3,48.6,13,48.2,12.7,47.7 M40.4,65.5v-9.8c0.2-0.2,0.4-0.3,0.5-0.5c0.2-0.2,0.5-0.4,0.7-0.7c3.6,1.7,5.7,4,5.7,6.3
		c0,2.4-2.1,4.6-5.4,6.2c0,0,0,0,0,0C41.5,66.5,41,66,40.4,65.5 M38.5,57.2v7c-0.6-0.4-1.3-0.7-2-1c-0.1,0-0.2-0.1-0.2-0.1l0,0
		c-2.3-0.9-4.8-1.3-7.4-1.3c-2.5,0-5,0.4-7.2,1.2c0,0-0.1,0-0.1,0c-0.2,0.1-0.4,0.2-0.6,0.2l-0.1,0l0,0c0,0,0,0-0.1,0
		c-0.6,0.3-1.1,0.5-1.7,0.8v-7c0,0,0.1,0,0.1,0.1c0.5,0.4,1.1,0.7,1.6,1c0.3,0.2,0.5,0.3,0.8,0.4c0,0,0.1,0,0.1,0
		c0.2,0.1,0.4,0.2,0.6,0.3c0.5,0.2,0.9,0.4,1.3,0.6c0.2,0.1,0.4,0.2,0.6,0.2c0.7,0.2,1.3,0.4,1.8,0.6c0.9,0.3,1.9,0.4,2.9,0.4
		c0.2,0,0.3,0,0.5,0c0.8,0,1.7-0.2,2.5-0.4c0.6-0.2,1.4-0.4,2.3-0.8c0.1,0,0.2-0.1,0.3-0.1c0.4-0.2,0.8-0.4,1.2-0.6
		c0.1-0.1,0.3-0.1,0.4-0.2c0.1-0.1,0.2-0.1,0.3-0.2c0.6-0.3,1.1-0.7,1.8-1.1C38.3,57.4,38.4,57.3,38.5,57.2
		C38.5,57.2,38.5,57.2,38.5,57.2 M3.5,64.9c0-0.1,0-0.3,0-0.4c0-0.7,0.1-1.3,0.2-2c0.2-0.8,0.5-1.5,0.9-2.3c1.6-3.1,5.1-5.8,9.6-7.6
		c0.1,0.1,0.2,0.2,0.3,0.3c0,0,0,0.1,0.1,0.1c-1.5,0.7-2.7,1.6-3.7,2.5c-1.7,1.6-2.6,3.4-2.6,5.3c0,0.2,0,0.3,0,0.5
		c0.2,2.9,2.5,5.4,6.2,7.3c-0.2,0.4-0.4,0.7-0.5,1.1c-0.4,0.9-0.6,1.9-0.6,2.9c0,1.4,0.4,2.8,1.1,4C8,74,3.7,69.8,3.5,64.9 M15,66.7
		c-0.1-0.1-0.2-0.1-0.3-0.2c-2.8-1.5-4.5-3.5-4.5-5.7c0-2.4,2.1-4.7,5.7-6.3c0.2,0.2,0.4,0.4,0.6,0.6c0.2,0.2,0.4,0.4,0.7,0.6v9.8
		c-0.1,0.1-0.1,0.1-0.2,0.2c-0.1,0-0.1,0.1-0.2,0.1c-0.1,0-0.1,0.1-0.2,0.1c-0.1,0.1-0.2,0.2-0.3,0.3c-0.1,0.1-0.1,0.1-0.2,0.2
		c-0.1,0.1-0.3,0.3-0.4,0.4c-0.1,0.1-0.1,0.1-0.2,0.2c-0.1-0.1-0.3-0.1-0.4-0.2C15.1,66.8,15.1,66.7,15,66.7 M39.9,77.6
		c-1.5,1.3-3.5,2.4-5.8,3.1c-1.6,0.4-3.4,0.7-5.2,0.7c-1.9,0-3.6-0.2-5.2-0.7c-2.3-0.6-4.4-1.7-5.8-3.1c-0.1-0.1-0.2-0.2-0.3-0.3
		c-1.4-1.4-2.2-3-2.2-4.8c0-1.1,0.3-2.2,0.9-3.2c0.1-0.1,0.1-0.2,0.2-0.3c0,0,0,0,0,0c0.1-0.1,0.1-0.2,0.2-0.3c0,0,0-0.1,0.1-0.1
		c0.1-0.1,0.1-0.2,0.2-0.3c0,0,0,0,0,0c0.1-0.1,0.2-0.2,0.3-0.3c0,0,0-0.1,0.1-0.1c0.1-0.1,0.1-0.1,0.2-0.2c0.5-0.5,1-0.9,1.6-1.3
		c0.7-0.5,1.6-0.9,2.5-1.3l0.1,0l0,0c0.2-0.1,0.4-0.1,0.5-0.2l0,0c2-0.7,4.3-1.1,6.6-1.1c2.4,0,4.7,0.4,6.7,1.2
		c0.1,0,0.2,0.1,0.3,0.1c1,0.4,1.9,0.9,2.7,1.4c0.6,0.4,1.2,0.9,1.6,1.3c0.1,0.1,0.2,0.2,0.3,0.3c0,0,0,0,0,0
		c0.1,0.1,0.2,0.2,0.2,0.3c0,0,0,0,0,0c0.1,0.1,0.1,0.1,0.2,0.2c0,0,0.1,0.1,0.1,0.1c0.1,0.1,0.1,0.2,0.2,0.3c0,0.1,0.1,0.1,0.1,0.2
		c0,0.1,0.1,0.1,0.1,0.2c0.6,1,0.9,2.1,0.9,3.2C42.3,74.5,41.4,76.2,39.9,77.6 M54.1,65.5c-0.5,4.6-4.8,8.6-11,11.1
		c0.7-1.2,1.1-2.6,1.1-4c0-1-0.2-2-0.6-2.9c-0.1-0.3-0.3-0.7-0.5-1c3.5-1.8,5.8-4.2,6.1-6.9c0-0.3,0.1-0.5,0.1-0.8
		c0-1.9-0.9-3.6-2.4-5.1c-1-1-2.3-1.9-3.8-2.6c0,0,0.1-0.1,0.1-0.1c0.1-0.1,0.2-0.2,0.3-0.3c0,0,0,0,0,0c4.6,1.9,8,4.6,9.7,7.8
		c0.4,0.7,0.7,1.5,0.8,2.3c0.1,0.6,0.2,1.2,0.2,1.8C54.2,64.9,54.2,65.2,54.1,65.5"/>
	<path class="st4" d="M40.9,68.6c-0.5-0.5-1-0.9-1.6-1.3c-0.8-0.5-1.7-1-2.7-1.4c-0.1,0-0.2-0.1-0.3-0.1c-2-0.8-4.4-1.2-6.7-1.2
		c-2.3,0-4.6,0.4-6.6,1.1l0,0c-0.2,0.1-0.3,0.1-0.5,0.2l0,0l-0.1,0c-0.9,0.4-1.8,0.8-2.5,1.3c-0.6,0.4-1.2,0.9-1.6,1.4
		c-0.1,0.1-0.1,0.1-0.2,0.2c0,0-0.1,0.1-0.1,0.1c-0.1,0.1-0.2,0.2-0.3,0.3c0,0,0,0,0,0c-0.1,0.1-0.2,0.2-0.2,0.3c0,0,0,0.1-0.1,0.1
		c-0.1,0.1-0.1,0.2-0.2,0.3c0,0,0,0,0,0c-0.1,0.1-0.1,0.2-0.2,0.3c-0.6,1-0.9,2.1-0.9,3.2c0,1.4,0.5,2.7,1.4,3.9
		c-1.4-1.4-2.2-3-2.2-4.8c0-1.1,0.3-2.2,0.9-3.2c0.1-0.1,0.1-0.2,0.2-0.3c0,0,0,0,0,0c0.1-0.1,0.1-0.2,0.2-0.3c0,0,0-0.1,0.1-0.1
		c0.1-0.1,0.1-0.2,0.2-0.3c0,0,0,0,0,0c0.1-0.1,0.2-0.2,0.3-0.3c0,0,0-0.1,0.1-0.1c0.1-0.1,0.1-0.1,0.2-0.2c0.5-0.5,1-0.9,1.6-1.3
		c0.7-0.5,1.6-0.9,2.5-1.3l0.1,0l0,0c0.2-0.1,0.4-0.1,0.5-0.2l0,0c2-0.7,4.3-1.1,6.6-1.1c2.4,0,4.7,0.4,6.7,1.2
		c0.1,0,0.2,0.1,0.3,0.1c1,0.4,1.9,0.9,2.7,1.4c0.6,0.4,1.2,0.9,1.6,1.3c0.1,0.1,0.2,0.2,0.3,0.3c0,0,0,0,0,0
		c0.1,0.1,0.1,0.2,0.2,0.3c0,0,0,0,0,0C40.8,68.5,40.8,68.5,40.9,68.6"/>
	<path class="st4" d="M54.2,64.5c0,0.3,0,0.6-0.1,1c0-0.5-0.1-1-0.2-1.5c-0.2-0.8-0.4-1.5-0.8-2.3c-1.2-2.3-3.3-4.4-6.2-6
		c-1-1-2.3-1.9-3.8-2.6c0,0,0.1-0.1,0.1-0.1c0.1-0.1,0.2-0.2,0.3-0.3c0,0,0,0,0,0c4.6,1.9,8,4.6,9.7,7.8c0.4,0.7,0.7,1.5,0.8,2.3
		C54.1,63.3,54.2,63.9,54.2,64.5"/>
	<path class="st4" d="M49.3,62.1c0,2.9-2.1,5.6-5.7,7.5c-0.1-0.3-0.3-0.7-0.5-1c3.5-1.8,5.8-4.2,6.1-6.9
		C49.3,61.8,49.3,62,49.3,62.1"/>
	<path class="st4" d="M47.4,60.8c0,2.4-2.1,4.6-5.4,6.2c0,0,0,0,0,0c0.1-0.1,0.3-0.1,0.4-0.2c0.1-0.1,0.1-0.1,0.2-0.2
		c0.3-0.2,0.5-0.5,0.7-0.8c1.1-1.3,1.7-2.8,1.7-4.3c0-1-0.3-2-0.8-2.9c-0.1-0.1-0.1-0.2-0.2-0.3c0-0.1-0.1-0.1-0.1-0.2c0,0,0,0,0,0
		c0-0.1-0.1-0.1-0.1-0.2c-0.1-0.1-0.1-0.2-0.2-0.3c0,0,0,0,0,0c-0.1-0.1-0.1-0.2-0.2-0.3c0,0,0,0,0,0c-0.1-0.1-0.2-0.2-0.2-0.3
		c0,0,0,0,0,0c-0.1-0.1-0.2-0.2-0.3-0.3c-0.2-0.2-0.4-0.4-0.6-0.5c-0.3-0.3-0.7-0.6-1.1-0.8c-0.1-0.1-0.2-0.1-0.3-0.2
		c0.2-0.2,0.5-0.4,0.7-0.7C45.3,56.2,47.4,58.5,47.4,60.8"/>
	<path class="st4" d="M20.8,58.2v5.1c-0.6,0.3-1.1,0.5-1.7,0.8v-7c0,0,0.1,0,0.1,0.1C19.7,57.6,20.3,57.9,20.8,58.2"/>
	<path class="st4" d="M14.5,53.1c-1.5,0.7-2.7,1.6-3.7,2.5c-2.9,1.7-5.1,3.7-6.3,6c-0.4,0.7-0.7,1.5-0.9,2.3c-0.1,0.3-0.1,0.7-0.2,1
		c0-0.1,0-0.3,0-0.4c0-0.7,0.1-1.3,0.2-2c0.2-0.8,0.5-1.5,0.9-2.3c1.6-3.1,5.1-5.8,9.6-7.6C14.2,52.8,14.3,52.9,14.5,53.1
		C14.5,53,14.5,53,14.5,53.1"/>
	<path class="st4" d="M14.5,68.6c-0.2,0.4-0.4,0.7-0.5,1.1c-3.6-1.9-5.7-4.6-5.7-7.5c0-0.3,0-0.6,0.1-0.8
		C8.5,64.2,10.8,66.7,14.5,68.6"/>
	<path class="st4" d="M13.2,58.3c-0.6,1-0.9,2.1-0.9,3.2c0,1.9,0.9,3.6,2.4,5c-2.8-1.5-4.4-3.5-4.4-5.7c0-2.4,2.1-4.7,5.7-6.3
		c0.2,0.2,0.4,0.4,0.6,0.6c-0.2,0.1-0.3,0.2-0.5,0.3c-0.6,0.4-1.2,0.9-1.6,1.3c-0.1,0.1-0.1,0.1-0.2,0.2c0,0-0.5,0.6-0.6,0.7
		c0,0,0,0.1-0.1,0.1c-0.1,0.1-0.1,0.2-0.2,0.3c0,0,0,0,0,0C13.3,58.1,13.2,58.2,13.2,58.3"/>
	<polygon class="st4" points="33.4,72.6 32.1,73.1 27.1,71 27.1,75.2 25.7,75.7 25.7,69.4 29,70.7 	"/>
	<path class="st4" d="M54.5,11c-0.3,0.1-0.6,0.2-0.9,0.3c-0.1,0-0.1,0-0.2,0c-1.9,0.4-3.4,0.1-4.3-0.2c0.7,0,1.5-0.1,2.4-0.3
		c0.1,0,0.1,0,0.2,0c1.1-0.3,2-0.9,2.7-1.3C54.5,9.9,54.6,10.4,54.5,11"/>
	<path class="st4" d="M48.1,29.1c0.1,0.6,0.6,3.5,0.8,4.7c-0.5,0.1-1,0.2-1.4,0.4h0c-0.1,0-0.1,0.1-0.2,0.1l0,0
		c-0.1-0.7-0.8-4.5-0.9-5.2c-0.3-1.5-0.6-2.8-0.9-3.7c0.5-0.2,0.5-0.2,0.9-0.5c1-0.6,2-1.2,2.9-1.9c0.1,0,0.1-0.1,0.2-0.1
		c0.3-0.2,0.6-0.5,0.9-0.8c0,0,0.1-0.1,0.1-0.1c0,0.1,0,0.1,0,0.2c0,0.4,0,0.8,0.1,1.2c0,0.2,0,0.4,0,0.6c-0.8,0.6-1.6,1.1-2.4,1.5
		c-0.4,0.2-0.3,0.2-0.8,0.4C47.6,26.8,47.8,27.6,48.1,29.1"/>
	<path class="st4" d="M44.1,27.5c-0.5,0.2-1.5,0.6-1.9,0.7c-1.4,0.4-2.9,0.7-4.4,0.9c-2.9,0.3-5.8,0.2-8.9-0.4
		c-1.5-0.3-3-0.7-4.5-1.2c-0.1,0-0.2-0.1-0.3-0.1c-0.8-0.6-1.7-0.9-2.7-1c-0.6-0.2-1.1-0.5-1.7-0.7c-0.4-0.2-2.1-0.9-2.5-1.1
		c-0.3-0.2-0.5-0.2-0.8-0.4c0,0,0,0,0,0c-0.2,0.3-0.4,0.7-0.6,1.2c-0.2,0.3-0.3,0.7-0.5,1.2c0,0.1-0.1,0.2-0.1,0.3
		c-0.2,0.5-0.5,1.1-0.7,1.8c-0.5,1.3-1,2.8-1.2,4.5c-0.6,4.2-0.2,6.6-0.2,6.5c-0.2-0.2-0.8-0.9-1.2-1.3c-0.4-0.4-0.8-0.8-1.3-1
		c-0.5-0.2-1.1-0.4-1.7-0.4c0,0-0.1,0-0.1,0h0c-1.1,0-2.1,0.4-2.8,1.1c-0.8,0.7-1.4,1.8-1.4,3c0,0,0,0,0,0.1c-0.2-0.5-0.3-1-0.3-1.6
		c0-2.2,1.9-4.1,4.2-4.1h0.1c1,0,1.9,0.4,2.6,1c0.1,0.1,0.2,0.1,0.2,0.2c0.2,0.2,0.5,0.5,0.7,0.9c0.1,0.1,0.2,0.1,0.2,0
		c0.1-0.4,0.2-1.2-0.3-1.9c0.1-1.5,0.3-2.9,0.6-4.1c0.4-1.7,0.8-3.2,1.2-4.5c0.2-0.7,0.5-1.3,0.7-1.8c0-0.1,0.1-0.2,0.1-0.3
		c0.2-0.4,0.4-0.8,0.5-1.2c0.2-0.5,0.5-0.9,0.6-1.2c0,0,0,0,0,0c0.3,0.2,0.7,0.4,1,0.5c0.4,0.2,0.8,0.4,1.2,0.6c0,0,0,0,0,0
		c0.4,0.2,0.9,0.4,1.3,0.6c1.6,0.7,3.2,1.4,4.8,1.9c1.5,0.5,3,0.9,4.5,1.2c3.1,0.6,6,0.7,8.9,0.4c1.5-0.2,3-0.5,4.4-0.9
		c0.5-0.1,1.3-0.5,1.8-0.7c0.1,0.3,0.2,0.6,0.3,1C44,27.2,44,27.4,44.1,27.5"/>
	<path class="st4" d="M8.5,25.9c0.1,3.1,0.9,6.6,1.4,8.4c-0.5-0.2-1-0.3-1.6-0.4c-0.1,0-0.2,0-0.3,0c-0.5-1.8-1.3-5.3-1.4-8.5
		c0-0.8,0-1.5,0-2.1c0-0.5,0-1,0.1-1.4v0c0-0.3,0.1-0.6,0.1-0.9c0-0.1,0-0.2,0-0.3c0-0.3,0.1-0.6,0.1-0.9c0-0.2,0.1-0.3,0.1-0.5
		c0.4-1.8,1-2.9,1.5-3.5c0.8,0.3,1.9-0.1,2-0.2c-0.4,0.7-1.1,2.2-1.6,4.2c0,0.1-0.1,0.3-0.1,0.5c-0.1,0.3-0.1,0.6-0.1,0.9
		c0,0.1,0,0.2,0,0.3c0,0.3-0.1,0.6-0.1,0.9v0c0,0.4-0.1,0.9-0.1,1.4C8.5,24.4,8.5,25.1,8.5,25.9"/>
	<path class="st4" d="M11.6,9.2c-0.1,0.6-0.1,1.2-0.1,1.6c0.1,0.8,0.3,1.2,0.3,1.2l-1.2,0c-3.2,0-5,1.2-5.8,2
		c0.4,0.2,1.4,0.6,2.5,1.1c-0.1,0-0.1,0.1-0.2,0.1c-0.1,0-0.2-0.1-0.3-0.1c0,0,0,0,0,0c-1.3-0.5-2.9-1.1-3.9-1.6
		c0.8-0.8,2.6-2,5.8-2l1.2,0c0,0-0.2-0.4-0.3-1.2c0-0.4,0-0.9,0.1-1.6c0.2-1,0.5-2.2,1.3-3.7c0.1-0.3,0.3-0.6,0.5-0.8
		c0.1,0.3,0.1,0.7,0.2,1.1c0,0.2,0.1,0.3,0.1,0.5c0.1,0.5,0.2,1,0.3,1.5c0,0,0,0,0-0.1C11.8,8.1,11.6,8.9,11.6,9.2"/>
	<path class="st4" d="M26,2.5c-0.1,0-0.1,0-0.2,0c-8.6-0.5-11.4,8.3-11.4,8.3s-0.2-1.5-0.4-2.4c0.3-0.5,0.9-1.5,1.7-2.5
		c0.4-0.5,0.9-1,1.4-1.5c0.2-0.2,0.3-0.3,0.5-0.5c2.4-1.9,5-2.5,7.7-1.7c0,0,0.1,0,0.1,0C25.7,2.4,25.9,2.5,26,2.5"/>
	<path class="st5" d="M48.8,4.9c0-0.1,0-0.2-0.1-0.3C48.7,4.7,48.7,4.8,48.8,4.9"/>
	<path class="st2" d="M38.5,57.2v7c-0.6-0.4-1.3-0.7-2-1c-0.1,0-0.2-0.1-0.2-0.1l0,0c-2.3-0.9-4.8-1.3-7.4-1.3c-2.5,0-5,0.4-7.2,1.2
		c0,0-0.1,0-0.1,0c-0.2,0.1-0.4,0.2-0.6,0.2l-0.1,0l0,0c0,0,0,0-0.1,0v-5.1c0.3,0.2,0.5,0.3,0.8,0.4c0,0,0.1,0,0.1,0
		c0.2,0.1,0.4,0.2,0.6,0.3c0.5,0.2,0.9,0.4,1.3,0.6c0.2,0.1,0.4,0.2,0.6,0.2c0.7,0.2,1.3,0.4,1.8,0.6c0.9,0.3,1.9,0.4,2.9,0.4
		c0.2,0,0.3,0,0.5,0c0.8,0,1.7-0.2,2.5-0.4c0.6-0.2,1.4-0.4,2.3-0.8c0.1,0,0.2-0.1,0.3-0.1c0.4-0.2,0.8-0.4,1.2-0.6
		c0.1-0.1,0.3-0.1,0.4-0.2c0.1-0.1,0.2-0.1,0.3-0.2c0.6-0.3,1.1-0.7,1.8-1.1C38.3,57.4,38.4,57.3,38.5,57.2
		C38.5,57.2,38.5,57.2,38.5,57.2"/>
	<path class="st6" d="M54.1,65.5c-0.5,4.6-4.8,8.6-11,11.1c0.7-1.2,1.1-2.6,1.1-4c0-1-0.2-2-0.6-2.9c3.5-1.9,5.7-4.5,5.7-7.5
		c0-0.2,0-0.3,0-0.5c0-0.3,0.1-0.5,0.1-0.8c0-1.9-0.9-3.6-2.4-5.1c2.9,1.7,5,3.7,6.2,6c0.4,0.7,0.7,1.5,0.8,2.3
		C54,64.5,54.1,65,54.1,65.5"/>
	<path class="st6" d="M14.5,76.5C8,74,3.7,69.8,3.5,64.9c0-0.4,0.1-0.7,0.2-1c0.2-0.8,0.5-1.5,0.9-2.3c1.2-2.3,3.4-4.4,6.3-6
		c-1.7,1.6-2.6,3.4-2.6,5.3c0,0.2,0,0.3,0,0.5c0,0.3-0.1,0.6-0.1,0.8c0,3,2.2,5.6,5.7,7.5c-0.4,0.9-0.6,1.9-0.6,2.9
		C13.4,74,13.8,75.3,14.5,76.5"/>
	<path class="st7" d="M50.5,24.9c-0.1,2.5-0.6,6.3-1.1,8.9c-0.2,0-0.4,0-0.5,0.1c-0.2-1.3-0.7-4.1-0.8-4.7c-0.3-1.5-0.4-2.3-0.8-3.3
		c0.5-0.2,0.3-0.2,0.8-0.4c0.8-0.5,1.6-1,2.4-1.5C50.5,24.3,50.5,24.6,50.5,24.9"/>
	<path class="st7" d="M54.5,11c0,0.5-0.1,1-0.2,1.5c-0.3,1.1-0.7,2.3-1.4,3.5c-0.1,0.2-0.2,0.4-0.3,0.6l-0.1,0.1
		c-0.3,0.4-0.5,0.8-0.8,1.2c-0.2,0.3-0.5,0.6-0.8,1c-0.1,0.1-0.2,0.2-0.3,0.3c-0.1,0.1-0.1,0.1-0.2,0.2c-0.1,0.1-0.3,0.3-0.4,0.4
		c-0.2,0.2-0.4,0.4-0.7,0.6c-0.1,0.1-0.2,0.2-0.3,0.2c-0.1,0.1-0.2,0.2-0.4,0.3c-0.6,0.5-1.4,1.1-2.3,1.6c-1,0.6-2.1,1.2-3.4,1.7
		c-0.6,0.2-1.2,0.4-1.8,0.6c-2.3,0.7-4.9,1.1-8,1c-1.4-0.1-3-0.2-4.6-0.6c-1.7-0.3-3.5-0.8-5.3-1.5c-1-0.4-2-0.8-3-1.3
		c-0.5-0.2-0.9-0.4-1.4-0.7c0,0,0,0,0,0c-0.2-0.1-0.7-0.3-1.3-0.6c-1.4-0.7-3.5-1.9-4.9-3c0,0,0.3,1.7,1.4,3
		c0.1,0.1,0.1,0.1,0.2,0.2c-0.4,0.7-0.9,1.7-1.5,3.1c-0.2,0.5-0.5,1.1-0.7,1.8c-0.2,0.7-0.5,1.5-0.7,2.3c-0.5,1.7-0.8,3.6-1.1,5.7
		c-0.1,0-0.2-0.1-0.2-0.1c-0.5-1.8-1.2-5.3-1.4-8.4c0-0.8,0-1.5,0-2.1c0-0.5,0-1,0.1-1.4v0c0-0.3,0.1-0.6,0.1-0.9c0-0.1,0-0.2,0-0.3
		c0-0.3,0.1-0.6,0.1-0.9c0-0.2,0.1-0.3,0.1-0.5c0.4-2,1.1-3.5,1.6-4.2c-0.1,0-1.2,0.4-2,0.2c0,0,0.1-0.1,0.1-0.1h0
		C8.9,15.2,9.2,15,9.2,15S9.1,15,8.9,14.9c-0.4-0.1-1-0.1-1.8,0.2c-1-0.4-2-0.9-2.5-1.1c0.8-0.8,2.6-2,5.8-2l1.2,0
		c0,0-0.2-0.4-0.3-1.2c0-0.4,0-1,0.1-1.6c0-0.3,0.3-1.2,0.5-2c0,0,0,0,0,0.1c0,0.3,0.1,0.5,0.1,0.8c0,0.3,0.1,0.5,0.1,0.8
		c0,0.2,0,0.3,0,0.5c0,0.3,0,0.6,0.1,1c0,0.2,0,0.4,0,0.6v1l1.1-2.2l0.4-0.8c0,0,0.1-0.2,0.2-0.4c0.1,0.9,0.4,2.4,0.4,2.4
		s2.8-8.7,11.4-8.3c0,0,0.1,0,0.2,0c0.1,0,0.2,0.1,0.3,0.1c0.4,0.2,0.9,0.4,1.3,0.5c0.2,0.1,0.4,0.1,0.6,0.2c0.3,0.1,0.6,0.2,1,0.3
		C30,4,30.8,4.2,31.5,4.5c1.4,0.4,2.7,0.7,4,0.9c1.5,0.2,2.8,0.3,4,0.3c0.8,0,1.6-0.1,2.3-0.2c0.1,0,0.3,0,0.4-0.1
		c0.7-0.1,1.4-0.3,2-0.5c0.1,0,0.2-0.1,0.3-0.1c0.7-0.2,1.3-0.5,1.8-0.8C47.1,3.8,47.6,3.4,48,3c0,0.1,0.1,0.1,0.1,0.2
		c0,0,0.1,0.1,0.1,0.2c0,0,0,0.1,0,0.1c0.1,0.1,0.1,0.2,0.2,0.3c0,0.1,0.1,0.2,0.1,0.3c0,0,0,0,0,0c0,0,0,0,0,0c0,0,0,0,0,0.1
		c0,0.1,0,0.1,0.1,0.2c0,0,0,0,0,0c0,0,0,0,0,0v0c0,0.1,0,0.1,0.1,0.2v0c0,0,0,0,0,0c0,0,0,0.1,0,0.1c0,0,0,0.1,0,0.1
		c0,0.1,0,0.1,0,0.2c0,0.1,0,0.2,0,0.3c0,0.1,0,0.2,0,0.3c0,0.1,0,0.2,0,0.4c-0.1,0.7-0.3,1.3-0.8,2c-0.2,0.3-0.5,0.5-0.7,0.8
		c0,0-0.1,0.1-0.1,0.1c-0.4-0.1-0.8-0.3-1.2-0.5c-0.3-0.2-0.6-0.5-0.6-0.5s-0.1,1.2,0.8,2.2c0.5,0.6,1.4,1,2.9,1.1
		c0.9,0.4,2.4,0.7,4.3,0.2c0.1,0,0.1,0,0.2,0C53.9,11.2,54.2,11.1,54.5,11"/>
	<path class="st0" d="M46.2,39.7C46.2,39.7,46.2,39.7,46.2,39.7C46.2,39.6,46.3,39.6,46.2,39.7c0.5-0.9,1.5-1.2,2.4-0.9
		c0.3,0.1,0.5,0.3,0.7,0.5h0c0.4,0.5,0.5,1.2,0.3,1.8c-0.1,0.3-0.3,0.5-0.6,0.7c-0.5,0.4-1.2,0.5-1.8,0.2c0.2-0.1,0.3-0.3,0.4-0.5
		c0.2-0.5,0.1-1-0.2-1.3c-0.1-0.2-0.3-0.3-0.5-0.4C46.7,39.7,46.4,39.7,46.2,39.7"/>
	<path class="st0" d="M11.9,39.7C11.9,39.7,11.9,39.7,11.9,39.7C11.9,39.6,11.9,39.6,11.9,39.7c-0.5-0.9-1.5-1.2-2.4-0.9
		c-0.3,0.1-0.5,0.3-0.7,0.5h0c-0.4,0.5-0.5,1.2-0.3,1.8c0.1,0.3,0.3,0.5,0.6,0.7c0.5,0.4,1.2,0.5,1.8,0.2c-0.2-0.1-0.3-0.3-0.4-0.5
		c-0.2-0.5-0.1-1,0.2-1.3c0.1-0.2,0.3-0.3,0.5-0.4C11.5,39.7,11.7,39.7,11.9,39.7"/>
	<polygon class="st6" points="32.2,73.1 27.1,75.2 27.1,71 32.1,73.1 32.1,73.1 32.2,73.1 	"/>
	<path class="st0" d="M38.4,45.2c-0.3-0.3-0.7-0.5-1.1-0.6c0,0-0.1,0-0.2,0c-0.1,0-0.3,0-0.4,0c-0.4,0-0.7,0.2-1,0.5
		c-0.1,0.1-0.2,0.2-0.4,0.4c0.8-0.3,1.3,0.2,1.3,0.2c0,0,0,0,0,0c0,0,0,0,0,0c-0.7,0.7-1.4,1.4-2.2,1.9c-1.8,1.3-3.9,2-6,2.4
		c-2.2,0.4-4.5,0.2-6.4-0.3c0,0,0,0,0.1,0.1c0,0,0,0,0,0c0.2,0.2,0.5,0.4,0.7,0.6c5.9,4.7,14.5-0.2,15.2-3.2c0,0,0.5-0.1,0.4,1.1
		C39.4,47.3,39.3,46,38.4,45.2 M28.6,50.9c2-0.3,4.1-1,6-2.3c0.8-0.5,1.5-1.2,2.2-1.9C35,51.2,30,51.7,28.6,50.9"/>
	<path class="st4" d="M36.8,46.7c-1.8,4.5-6.8,4.9-8.2,4.1c2-0.3,4.1-1,6-2.3C35.3,48.1,36.1,47.4,36.8,46.7"/>
	<path class="st0" d="M26.9,53.9C26.9,53.9,26.9,53.8,26.9,53.9c0.7,0.3,1.2,0.4,1.8,0.4c0.6,0,1-0.1,1.7-0.5c0.1,0,0.1,0,0.1,0.1
		c-0.3,0.8-0.9,1-1.6,1.1C28.1,55.1,27.3,54.8,26.9,53.9"/>
	<path class="st0" d="M25,29.6c-1.2-0.6-2.5-0.9-4-0.9c-1.9,0-3.6,0.5-4.9,1.4c-0.3,0.2-0.7-0.4-0.4-0.8c1.1-1.8,2.9-2.9,5.1-2.9
		c0.2,0,0.4,0,0.6,0c1,0.1,1.9,0.5,2.7,1c0.5,0.4,1,0.8,1.4,1.3C25.6,29.2,25.4,29.8,25,29.6"/>
	<path class="st0" d="M42.6,21.4c0.3,0.3,0.2,1-0.2,0.9c-1.3-0.3-2.7-0.3-4.1,0c-1.8,0.4-3.4,1.3-4.5,2.5c-0.3,0.3-0.7-0.2-0.6-0.7
		c0.7-1.9,2.2-3.5,4.3-3.9C39.4,19.7,41.2,20.3,42.6,21.4"/>
	<path class="st0" d="M29,46.1c-0.7,0-1.7-0.3-2.8-1.2c-0.3-0.3-0.8-0.9-0.4-1.6c0.2-0.5,0.4-0.8,0.6-1.1c0.5-0.7,0.7-1.2,1.4-4.4
		c0-0.2,0.2-0.2,0.2-0.2c0.2,0,0.4,0.5,0.4,0.7c0.1,2.2-0.5,3.6-1.3,5.3c-0.1,0.1-0.1,0.3,0,0.4c1.3,1.6,3.5,1,3.5,1
		c0,0,0.1,0,0.1,0c0.1,0,0.3,0.1-0.1,0.5C30.5,45.7,29.9,46.1,29,46.1"/>
</g>
</svg>
