<?xml version="1.0" encoding="utf-8"?>
<!-- Generator: Adobe Illustrator 22.0.1, SVG Export Plug-In . SVG Version: 6.00 Build 0)  -->
<svg version="1.1" id="Layer_1" xmlns="http://www.w3.org/2000/svg" xmlns:xlink="http://www.w3.org/1999/xlink" x="0px" y="0px"
	 viewBox="0 0 496 496" style="enable-background:new 0 0 496 496;" xml:space="preserve">
<style type="text/css">
	.st0{fill:#02458A;}
</style>
<g>
	<g>
		<g>
			<g>
				<path class="st0" d="M364.8,144H354c16.3-13.2,26.8-33.4,26.8-56V64c0-35.3-28.7-64-64-64h-16c-22,0-41.4,11.1-52.9,28
					c-3.7,5.4-6.6,11.4-8.5,17.9c-1.4,4.7-2.3,9.6-2.5,14.7l0,0c-0.1,1.1-0.1,2.2-0.1,3.4v24c0,1.1,0,2.3,0.1,3.4l0,0
					c0,0.3,0,0.5,0,0.8c0.3,5.2,1.2,10.3,2.5,15.1c1.9,6.8,4.8,13.1,8.4,18.9c4.3,6.7,9.6,12.7,15.8,17.7h-10.8
					c-1.7,0-3.3,0.1-4.9,0.2c-3.8,0.3-7.4,0.8-11,1.6l0,0c-10.9,2.5-20.9,7.4-29.3,14.2c-1.5,1.2-3,2.5-4.4,3.8
					c-3.6,3.4-6.8,7.2-9.6,11.2c-2.1,3.1-4,6.3-5.6,9.7c-1.1,2.3-2.1,4.7-3,7.2c-2.7,7.5-4.1,15.6-4.1,24.1v80c0,5.6,1,11,2.8,16
					c0.1,0.4,0.3,0.7,0.4,1.1c0.1,0.3,0.3,0.7,0.4,1c1.3,3.3,3.1,6.4,5.1,9.3c0.2,0.3,0.4,0.6,0.7,1c0.2,0.3,0.5,0.6,0.7,0.9
					s0.5,0.6,0.7,0.9s0.5,0.6,0.7,0.9c0.3,0.3,0.5,0.6,0.8,0.9c8.8,9.8,21.6,16,35.8,16v127.4c0,3,0.5,5.9,1.5,8.6
					c1.4,3.7,3.7,7,6.5,9.7c3.1,2.8,6.8,4.8,11,5.7c1.8,0.4,3.6,0.6,5.5,0.6h110.9c13.6,0,24.6-11,24.6-24.6V344
					c26.5,0,48-21.5,48-48v-80C436.8,176.2,404.5,144,364.8,144z M300.8,16h16c26.5,0,48,21.5,48,48v13c-2-1.6-3.5-3.8-4.1-6.5
					l-0.2-1C357.3,56.8,346,47.9,333,47.9h-48c-11.4,0-21.5,6.7-26,16.8c-0.7,1.5-1.2,3.1-1.7,4.8l-0.2,0.9
					c-0.7,2.6-2.2,4.8-4.1,6.5v-13c0-6.4,1.3-12.5,3.6-18.1C263.5,28.3,280.8,16,300.8,16z M256.3,107.4c-1.5-4.1-2.5-8.3-3.1-12.7
					c2-0.6,3.8-1.4,5.6-2.4c6.6-3.7,11.7-10,13.6-17.8l0.2-0.9c1.4-5.6,6.4-9.5,12.1-9.5h48c5.7,0,10.7,3.9,12.1,9.4l0.2,1
					c2.5,9.9,9.9,17.4,19.2,20.2c-3.3,27.8-27,49.3-55.6,49.3C284.8,144,264.3,128.7,256.3,107.4z M331.3,160
					c-3.3,9.3-12.1,16-22.5,16s-19.2-6.7-22.5-16H331.3z M196.8,248h32v16h-32V248z M224.4,327.7c-0.3,0-0.6-0.1-0.9-0.1
					c-0.9-0.2-1.8-0.3-2.7-0.6c-0.8-0.2-1.5-0.4-2.3-0.7c-0.3-0.1-0.5-0.2-0.7-0.3c-0.3-0.1-0.6-0.2-0.9-0.3
					c-0.3-0.1-0.6-0.3-0.9-0.4c-0.1,0-0.2-0.1-0.4-0.2s-0.5-0.2-0.7-0.3c-0.2-0.1-0.5-0.2-0.7-0.4c-0.2-0.1-0.5-0.2-0.7-0.4
					c-0.5-0.2-0.9-0.5-1.3-0.8c-0.4-0.3-0.9-0.5-1.3-0.8c-0.2-0.1-0.4-0.3-0.6-0.4c-0.2-0.2-0.4-0.3-0.6-0.5
					c-0.2-0.2-0.4-0.3-0.6-0.5c-0.8-0.6-1.6-1.3-2.3-2c-0.2-0.2-0.4-0.4-0.6-0.6c-0.3-0.2-0.5-0.5-0.7-0.7c-0.3-0.3-0.6-0.6-0.9-1
					c-0.2-0.2-0.3-0.4-0.5-0.6c-0.2-0.3-0.4-0.5-0.6-0.8c-0.4-0.5-0.8-1-1.1-1.5c-0.2-0.3-0.4-0.7-0.6-1c-0.2-0.3-0.4-0.6-0.5-0.9
					c-2.7-4.7-4.3-10.2-4.3-16v-16h32v48C227.3,328,225.8,327.9,224.4,327.7z M300.8,480h-44c-1.7,0-3.4-0.4-4.9-1
					c-1.6-0.7-3-1.7-4.1-3c-1.5-1.7-2.5-3.7-2.9-6c-0.1-0.7-0.2-1.3-0.2-2v-68h56v80H300.8z M372.8,467.9c0,6.7-5.4,12.1-12.1,12.1
					h-43.9v-80h56V467.9z M372.8,384h-56v-16c0-4.4-3.6-8-8-8l0,0c-4.4,0-8,3.6-8,8v16h-56v-56h128V384z M420.8,296
					c0,17.7-14.3,32-32,32v-48h32V296z M420.8,264h-32v-16h32V264z M420.8,232h-32v-24c0-4.4-3.6-8-8-8l0,0c-4.4,0-8,3.6-8,8v104
					h-128V208c0-4.4-3.6-8-8-8l0,0c-4.4,0-8,3.6-8,8v24h-32v-16c0-10.2,2.7-19.7,7.5-28c3.4-5.8,7.7-11,12.9-15.2
					c5.7-4.7,12.4-8.3,19.7-10.5c5-1.5,10.4-2.3,15.9-2.3h16.8c0.3,1.3,0.6,2.6,1,3.8c2.6,8.5,8.1,15.9,15.2,20.9l0,0
					c6.5,4.6,14.4,7.3,23,7.3c19.3,0,35.5-13.8,39.2-32h16.8c30.9,0,56,25.1,56,56V232z M218.5,326.3c0.7,0.3,1.5,0.5,2.3,0.7
					C220,326.8,219.3,326.6,218.5,326.3z"/>
			</g>
		</g>
	</g>
	<g>
		<g>
			<g>
				<path class="st0" d="M247.8,126.3c-3.7-5.8-6.5-12.2-8.4-18.9c-7.9,21.4-28.4,36.6-52.5,36.6c-23.2,0-43-14.1-51.5-34.2
					c-2-4.8-3.4-9.8-4-15.1c2.6-0.8,5.1-2,7.3-3.5c5.8-3.8,10.1-9.7,11.9-16.8l0.2-0.9c1.4-5.6,6.4-9.5,12.1-9.5h48
					c5.7,0,10.7,3.9,12.1,9.4l0.2,1c1.9,7.8,7,14.1,13.6,17.8c0-0.3,0-0.5,0-0.8l0,0c-0.1-1.1-0.1-2.3-0.1-3.4V64.5
					c-4.6-9.9-14.6-16.5-25.8-16.5h-48c-10.1,0-19.1,5.3-24.2,13.5c-1.5,2.5-2.7,5.2-3.4,8.1l-0.2,0.9c-0.7,2.6-2.2,4.8-4.1,6.5V64
					c0-7.3,1.6-14.2,4.5-20.3C143.2,27.4,159.8,16,179,16h16c20.1,0,37.3,12.4,44.4,29.9c1.9-6.4,4.8-12.5,8.5-17.9
					C236.4,11.1,217,0,195,0h-16c-21.5,0-40.5,10.6-52.1,26.8c-3.7,5.1-6.6,10.8-8.6,16.9c-1.9,5.6-3,11.6-3.3,17.8
					c0,0.8,0,1.7,0,2.5v24c0,1.1,0,2.2,0.1,3.2c0.3,6.4,1.4,12.7,3.3,18.6c2,6.4,4.9,12.3,8.5,17.8c4.1,6.2,9.2,11.7,14.9,16.4H131
					c-1.4,0-2.7,0-4,0.1c0,0,0,0-0.1,0c-4.1,0.2-8.1,0.8-12,1.7c-10.9,2.5-20.8,7.4-29.2,14.2c-1.7,1.4-3.3,2.8-4.9,4.3
					c-3.5,3.4-6.7,7.2-9.4,11.2c-1.9,2.8-3.6,5.8-5.1,8.8c-1.2,2.4-2.2,4.9-3.2,7.5c-2.7,7.5-4.2,15.7-4.2,24.2v80
					c0,5.6,1,11,2.8,16c2.1,6,5.4,11.4,9.5,16c8.8,9.8,21.5,16,35.6,16h0.2v127.5c0,3,0.5,5.9,1.5,8.5c1.4,3.7,3.6,6.9,6.4,9.5
					c3.3,3,7.4,5.2,12,6.1c1.5,0.3,3.1,0.4,4.6,0.4h110.9c1.9,0,3.7-0.2,5.5-0.6c-4.2-0.9-7.9-3-11-5.7c-2.9-2.6-5.2-5.9-6.5-9.7
					H195v-80h33.8v-16H195v-16c0-4.4-3.6-8-8-8l0,0c-4.4,0-8,3.6-8,8v16h-56v-56h70.1c-0.3-0.3-0.5-0.6-0.8-0.9s-0.5-0.6-0.7-0.9
					c-0.3-0.3-0.5-0.6-0.7-0.9s-0.5-0.6-0.7-0.9s-0.5-0.6-0.7-1c-2-2.9-3.7-6-5.1-9.3c-0.3-0.6-0.5-1.3-0.6-2
					c-0.1-0.1-0.1-0.1-0.2-0.1H123V208c0-4.4-3.6-8-8-8l0,0c-4.4,0-8,3.6-8,8v24H75v-16c0-9.8,2.5-19,6.9-27s10.8-14.8,18.4-19.8
					c4.5-2.9,9.4-5.3,14.6-6.8c5.1-1.5,10.5-2.4,16.1-2.4h16.8c0.3,1.5,0.7,2.9,1.2,4.3c2.6,8.1,7.8,15.1,14.6,20
					c6.1,4.4,13.4,7.2,21.4,7.6c0.9-2.5,1.9-4.9,3-7.2c1.6-3.4,3.5-6.6,5.6-9.7c-2.1,0.6-4.3,0.9-6.6,0.9c-10.4,0-19.2-6.7-22.5-16
					h43.1c8.4-6.8,18.4-11.8,29.3-14.2l0,0c3.6-0.8,7.3-1.4,11-1.6c-1.6-0.1-3.3-0.2-4.9-0.2h-10.8C238.3,139,243.6,133,247.8,126.3
					z M178.9,400v80h-44c-0.9,0-1.8-0.1-2.6-0.3c-2.1-0.5-4-1.5-5.5-2.9c-2.4-2.2-3.9-5.4-3.9-8.9v-68h56V400z M106.8,328
					c-5.2,0-10.1-1.3-14.5-3.6c-5.4-2.8-10-7.2-13-12.4c-2.7-4.7-4.3-10.2-4.3-16v-16h32v48H106.8z M106.9,248v16h-32v-16H106.9z"/>
			</g>
		</g>
	</g>
	<path class="st0" d="M320.4,226v55.1c0,4.4-3.6,8-8,8l0,0c-4.4,0-8-3.6-8-8V234h-6.6c-4.4,0-8-3.6-8-8l0,0c0-4.4,3.6-8,8-8h14.6
		C316.8,218,320.4,221.6,320.4,226z"/>
</g>
</svg>
