<?xml version="1.0" encoding="utf-8"?>
<!-- Generator: Adobe Illustrator 22.0.1, SVG Export Plug-In . SVG Version: 6.00 Build 0)  -->
<svg version="1.1" id="Layer_1" xmlns="http://www.w3.org/2000/svg" xmlns:xlink="http://www.w3.org/1999/xlink" x="0px" y="0px"
	 viewBox="0 0 378.1 496" style="enable-background:new 0 0 378.1 496;" xml:space="preserve">
<style type="text/css">
	.st0{fill:#004A9D;}
</style>
<g>
	<g>
		<g>
			<g>
				<path class="st0" d="M124.9,312.1L124.9,312.1c0,0,0,0.1,0,0.2C124.9,312.2,124.9,312.2,124.9,312.1z M134.6,175
					c-2.1,3.1-3.9,6.2-5.5,9.6c-1.1,2.3-2.1,4.7-3,7.2c0,0,0,0.1,0,0.1h0c0.9-2.5,1.9-4.9,3-7.2C130.7,181.3,132.6,178.1,134.6,175
					C134.7,175,134.6,175,134.6,175z M159.6,326.3c0.5,0.2,1.1,0.4,1.7,0.5C160.7,326.7,160.2,326.5,159.6,326.3z M180.9,44.7
					c1.3-4.2,3.1-8.2,5.2-12C183.9,36.5,182.2,40.5,180.9,44.7z M159.6,326.3c0.5,0.2,1.1,0.4,1.7,0.5
					C160.7,326.7,160.2,326.5,159.6,326.3z"/>
			</g>
		</g>
	</g>
	<g>
		<g>
			<g>
				<path class="st0" d="M124.9,312.1L124.9,312.1c0,0,0,0.1,0,0.2C124.9,312.2,124.9,312.2,124.9,312.1z M134.6,175
					c-2.1,3.1-3.9,6.2-5.5,9.6c-1.1,2.3-2.1,4.7-3,7.2c0,0,0,0.1,0,0.1h0c0.9-2.5,1.9-4.9,3-7.2C130.7,181.3,132.6,178.1,134.6,175
					C134.7,175,134.6,175,134.6,175z M180.9,44.7c1.3-4.2,3.1-8.2,5.2-12C183.9,36.5,182.2,40.5,180.9,44.7z"/>
				<path class="st0" d="M305.9,144h-10.8c16.3-13.2,26.8-33.4,26.8-56V64c0-35.3-28.7-64-64-64h-16c-22,0-41.4,11.1-52.9,28
					c-11.5-16.9-30.9-28-52.9-28h-16C98.6,0,79.6,10.6,68,26.8c-3.7,5.1-6.6,10.8-8.6,16.9c-1.9,5.6-3,11.6-3.3,17.8V88
					c0,1.1,0,2.2,0.1,3.2c0.3,6.4,1.4,12.7,3.3,18.6c2,6.4,4.9,12.3,8.5,17.8c4.1,6.2,9.2,11.7,14.9,16.4H72.1c-1.4,0-2.7,0-4,0.1
					c0,0,0,0-0.1,0c-4.1,0.2-8.1,0.8-12,1.7c-10.9,2.5-20.8,7.4-29.2,14.2c-1.7,1.4-3.3,2.8-4.9,4.3c-3.5,3.4-6.7,7.2-9.4,11.2
					c-1.9,2.8-3.6,5.8-5.1,8.8c-1.2,2.4-2.2,4.9-3.2,7.5C1.5,199.3,0,207.5,0,216v80c0,5.6,1,11,2.8,16c2.1,6,5.4,11.4,9.5,16
					c8.8,9.8,21.5,16,35.6,16h0.2v127.5c0,3,0.5,5.9,1.5,8.5c1.4,3.7,3.6,6.9,6.4,9.5c3.3,3,7.4,5.2,12,6.1c1.5,0.3,3.1,0.4,4.6,0.4
					h110.9c1.1,0,122-0.1,122-0.1c13.6,0,24.6-11,24.6-24.6V344c26.5,0,48-21.5,48-48v-80C377.9,176.2,345.6,144,305.9,144z
					 M249.7,144c-23.8,0-44.3-15.3-52.3-36.6c-1.5-4.1-2.5-8.3-3.1-12.7c2-0.6,3.8-1.4,5.6-2.4c6.6-3.7,11.7-10,13.6-17.8l0.2-0.9
					c1.4-5.6,6.4-9.5,12.1-9.5h48c5.7,0,10.7,3.9,12.1,9.4l0.2,1c2.5,9.9,9.9,17.4,19.2,20.2C302,122.5,278.3,144,249.7,144z
					 M272.4,160c-3.3,9.3-12.1,16-22.5,16c-10.4,0-19.2-6.7-22.5-16H272.4z M194.1,63.9c0-6.4,1.3-12.5,3.6-18.1
					c6.9-17.5,24.2-29.8,44.2-29.8h16c26.5,0,48,21.5,48,48v13c-2-1.6-3.5-3.8-4.1-6.5l-0.2-1c-3.2-12.7-14.5-21.6-27.5-21.6h-48
					c-11.4,0-21.5,6.7-26,16.8c-0.7,1.5-1.2,3.1-1.7,4.8l-0.2,0.9c-0.7,2.6-2.2,4.8-4.1,6.5V63.9z M188.9,126.3
					C188.9,126.3,188.9,126.3,188.9,126.3c4.3,6.6,9.6,12.6,15.8,17.6h-31.4C179.4,139,184.7,133,188.9,126.3z M72.1,64
					c0-7.3,1.6-14.2,4.5-20.3C84.3,27.4,100.9,16,120.1,16h16c20.1,0,37.3,12.4,44.4,29.9c-1.4,4.7-2.3,9.6-2.5,14.7
					c-0.1,1.1-0.1,2.2-0.1,3.4v0.5C173.3,54.6,163.2,48,152,48h-48c-10.1,0-19.1,5.3-24.2,13.5c-1.5,2.5-2.7,5.2-3.4,8.1l-0.2,0.9
					c-0.7,2.6-2.2,4.8-4.1,6.5V64z M76.5,109.8c-2-4.8-3.4-9.8-4-15.1c2.6-0.8,5.1-2,7.3-3.5c5.8-3.8,10.1-9.7,11.9-16.8l0.2-0.9
					c1.4-5.6,6.4-9.5,12.1-9.5h48c5.7,0,10.7,3.9,12.1,9.4l0.2,1c1.9,7.8,7.1,14.1,13.7,17.8c0.3,5.2,1.2,10.3,2.5,15.1
					c-7.9,21.4-28.4,36.7-52.5,36.7C104.8,144,85,129.9,76.5,109.8z M169.9,264h-32v-16h32V264z M170.1,279.9v48
					c-1.7,0.1-3.2,0-4.6-0.2c-0.3,0-0.6-0.1-0.9-0.1c-0.9-0.2-1.8-0.3-2.7-0.6c-0.2,0-0.4-0.1-0.6-0.2c-0.6-0.2-1.2-0.3-1.7-0.5
					c-0.3-0.1-0.5-0.2-0.7-0.3c-0.3-0.1-0.6-0.2-0.9-0.3c-0.3-0.1-0.6-0.3-0.9-0.4c-0.1,0-0.2-0.1-0.4-0.2c-0.2-0.1-0.5-0.2-0.7-0.3
					c-0.2-0.1-0.5-0.2-0.7-0.4c-0.2-0.1-0.5-0.2-0.7-0.4c-0.5-0.2-0.9-0.5-1.3-0.8c-0.4-0.3-0.9-0.5-1.3-0.8
					c-0.2-0.1-0.4-0.3-0.6-0.4c-0.2-0.2-0.4-0.3-0.6-0.5s-0.4-0.3-0.6-0.5c-0.8-0.6-1.6-1.3-2.3-2c-0.2-0.2-0.4-0.4-0.6-0.6
					c-0.3-0.2-0.5-0.5-0.7-0.7c-0.3-0.3-0.6-0.6-0.9-1c-0.2-0.2-0.3-0.4-0.5-0.6c-0.2-0.3-0.4-0.5-0.6-0.8c-0.4-0.5-0.8-1-1.1-1.5
					c-0.2-0.3-0.4-0.7-0.6-1s-0.4-0.6-0.5-0.9c-2.7-4.7-4.3-10.2-4.3-16v-16H170.1z M134.7,174.9c0,0,0,0.1-0.1,0.1
					c-2.1,0.6-4.3,0.9-6.5,0.9c-10.4,0-19.2-6.7-22.5-16h43.1c-1.5,1.2-3,2.5-4.4,3.8C140.7,167.1,137.5,170.9,134.7,174.9z M16,248
					h32v16H16V248z M48.1,328h-0.2c-5.2,0-10.1-1.3-14.5-3.6c-5.4-2.8-10-7.2-13-12.4c-2.7-4.7-4.3-10.2-4.3-16v-16h32V328z
					 M56.1,200c-2.2,0-4.2,0.9-5.7,2.3c-1.4,1.5-2.3,3.5-2.3,5.7v24h-32v-16c0-9.8,2.5-19,6.9-27c4.4-8,10.8-14.8,18.4-19.8
					c4.5-2.9,9.4-5.3,14.6-6.8c5.1-1.5,10.5-2.4,16.1-2.4h16.8c0.3,1.5,0.7,2.9,1.2,4.3c2.6,8.1,7.8,15.1,14.6,20
					c6.1,4.4,13.4,7.2,21.4,7.6c-2.7,7.5-4.1,15.5-4.1,24v80c0,5.6,1,11,2.8,16c0,0,0,0.1,0,0.1c0,0-0.1,0-0.1,0H64.1V208
					C64.1,203.6,60.5,200,56.1,200z M124.9,312.3c0-0.1-0.1-0.2-0.1-0.2l0,0C124.9,312.2,124.9,312.2,124.9,312.3z M120,480H76
					c-0.9,0-1.8-0.1-2.6-0.3c-2.1-0.5-4-1.5-5.5-2.9c-2.4-2.2-3.9-5.4-3.9-8.9v-68h56V480z M128.1,360c-2.2,0-4.2,0.9-5.7,2.3
					c-1.4,1.5-2.3,3.5-2.3,5.7v16h-56v-56h70.3c0,0,0,0,0,0c8.8,9.7,21.5,15.9,35.7,15.9V384h-34v-16
					C136.1,363.6,132.5,360,128.1,360z M136.1,480v-80h34v71.3c0,3,0.5,5.9,1.5,8.6c0,0,0,0.1,0,0.1H136.1z M241.8,480h-43.9
					c-1.7,0-3.4-0.4-4.9-1c-1.6-0.7-3-1.7-4.1-3c-1.5-1.7-2.5-3.7-2.9-6c-0.1-0.7-0.2-1.3-0.2-2v-68h56V480z M313.9,467.9
					c0,6.7-5.4,12.1-12.1,12.1h-43.9v-80h56V467.9z M313.9,384h-56v-16c0-4.4-3.6-8-8-8c-2.2,0-4.2,0.9-5.6,2.3
					c-1.5,1.5-2.4,3.5-2.4,5.7v16h-56v-56h128V384z M361.9,296c0,17.7-14.3,32-32,32v-48h32V296z M361.9,264h-32v-16h32V264z
					 M361.9,232h-32v-24c0-4.4-3.6-8-8-8c-2.2,0-4.2,0.9-5.6,2.3c-1.5,1.5-2.4,3.5-2.4,5.7v104h-128V208c0-4.4-3.6-8-8-8
					c-2.2,0-4.2,0.9-5.6,2.3c-1.5,1.5-2.4,3.5-2.4,5.7v24h-32v-16c0-10.2,2.7-19.7,7.5-28c3.4-5.8,7.7-11,12.9-15.2
					c5.7-4.7,12.4-8.3,19.7-10.5c5-1.5,10.4-2.3,15.9-2.3h16.8c0.3,1.3,0.6,2.6,1,3.8c2.6,8.5,8.1,15.9,15.2,20.9
					c3.3,2.3,6.9,4.1,10.7,5.4c3.9,1.2,8,1.9,12.3,1.9c19.3,0,35.5-13.8,39.2-32h16.8c30.9,0,56,25.1,56,56V232z"/>
			</g>
		</g>
	</g>
	<path class="st0" d="M261.5,226v55.1c0,4.4-3.6,8-8,8l0,0c-4.4,0-8-3.6-8-8V234h-6.6c-4.4,0-8-3.6-8-8l0,0c0-4.4,3.6-8,8-8h14.6
		C257.9,218,261.5,221.6,261.5,226z"/>
</g>
</svg>
