<?xml version="1.0" encoding="utf-8"?>
<!-- Generator: Adobe Illustrator 21.0.0, SVG Export Plug-In . SVG Version: 6.00 Build 0)  -->
<svg version="1.1" id="Layer_1" xmlns="http://www.w3.org/2000/svg" xmlns:xlink="http://www.w3.org/1999/xlink" x="0px" y="0px"
	 viewBox="0 0 378.1 496" style="enable-background:new 0 0 378.1 496;" xml:space="preserve">
<style type="text/css">
	.st0{fill:#02458A;}
</style>
<g>
	<g>
		<g>
			<g>
				<path class="st0" d="M159.6,326.3c0.5,0.2,1.1,0.4,1.7,0.5C160.7,326.7,160.2,326.5,159.6,326.3z M181.3,43.5
					c0.7-2,1.5-4,2.3-5.9C182.7,39.5,181.9,41.5,181.3,43.5z M159.6,326.3c0.5,0.2,1.1,0.4,1.7,0.5
					C160.7,326.7,160.2,326.5,159.6,326.3z M124.9,312.1L124.9,312.1c0,0,0,0.1,0,0.2C124.9,312.2,124.9,312.2,124.9,312.1z"/>
			</g>
		</g>
	</g>
	<g>
		<g>
			<g>
				<path class="st0" d="M181.3,43.5c0.7-2,1.5-4,2.3-5.9C182.7,39.5,181.9,41.5,181.3,43.5z M124.9,312.1L124.9,312.1
					c0,0,0,0.1,0,0.2C124.9,312.2,124.9,312.2,124.9,312.1z"/>
				<path class="st0" d="M170.2,383.7v16h3.1v-16H170.2z M224.7,490c-2.9-2.6-46.4-6.5-47.7-10.2h-5.3c1.4,3.6,3.7,6.9,6.5,9.6
					c3,2.7,6.6,4.7,10.7,5.6C190.4,494,227.6,492.5,224.7,490z"/>
				<path class="st0" d="M306,143.8h-10.8c16.3-13.2,26.8-33.4,26.8-56v-24c0-35.3-28.7-64-64-64h-16c-22,0-41.4,11.1-52.9,28
					c-11.5-16.9-30.9-28-52.9-28h-16c-21.5,0-40.5,10.6-52.1,26.8c-3.7,5.1-6.6,10.8-8.6,16.9c-1.9,5.6-3,11.6-3.3,17.8v26.5
					c0,1.1,0,2.2,0.1,3.2c0.3,6.4,1.4,12.7,3.3,18.6c2,6.4,4.9,12.3,8.5,17.8c4.1,6.2,9.2,11.7,14.9,16.4H72.2c-1.4,0-2.7,0-4,0.1
					c0,0,0,0-0.1,0c-4.1,0.2-8.1,0.8-12,1.7c-10.9,2.5-20.8,7.4-29.2,14.2c-1.7,1.4-3.3,2.8-4.9,4.3c-3.5,3.4-6.7,7.2-9.4,11.2
					c-1.9,2.8-3.6,5.8-5.1,8.8c-1.2,2.4-2.2,4.9-3.2,7.5c-2.7,7.5-4.2,15.7-4.2,24.2v80c0,5.6,1,11,2.8,16c2.1,6,5.4,11.4,9.5,16
					c8.8,9.8,21.5,16,35.6,16h0.2v127.5c0,3,0.5,5.9,1.5,8.5c1.4,3.7,3.6,6.9,6.4,9.5c3.3,3,7.4,5.2,12,6.1c1.5,0.3,3.1,0.4,4.6,0.4
					l232.9-0.1c13.6,0,24.6-11,24.6-24.6V343.8c26.5,0,48-21.5,48-48v-80C378,176,345.7,143.8,306,143.8z M249.8,143.8
					c-23.8,0-44.3-15.3-52.3-36.6c-1.5-4.1-2.5-8.3-3.1-12.7c2-0.6,3.8-1.4,5.6-2.4c6.6-3.7,11.7-10,13.6-17.8l0.2-0.9
					c1.4-5.6,6.4-9.5,12.1-9.5h48c5.7,0,10.7,3.9,12.1,9.4l0.2,1c2.5,9.9,9.9,17.4,19.2,20.2C302.1,122.3,278.4,143.8,249.8,143.8z
					 M272.5,159.8c-3.3,9.3-12.1,16-22.5,16s-19.2-6.7-22.5-16H272.5z M189,126.1C189,126,189,126,189,126.1
					c4.3,6.6,9.6,12.6,15.8,17.6H194c-1.7,0-3.3,0.1-4.9,0.2c-1.6-0.1-3.3-0.2-4.9-0.2h-10.8C179.5,138.8,184.8,132.8,189,126.1z
					 M194.2,63.7c0-6.4,1.3-12.5,3.6-18.1c6.9-17.5,24.2-29.8,44.2-29.8h16c26.5,0,48,21.5,48,48v13c-2-1.6-3.5-3.8-4.1-6.5l-0.2-1
					c-3.2-12.7-14.5-21.6-27.5-21.6h-48c-11.4,0-21.5,6.7-26,16.8c-0.7,1.5-1.2,3.1-1.7,4.8l-0.2,0.9c-0.7,2.6-2.2,4.8-4.1,6.5V63.7
					z M72.2,63.8c0-7.3,1.6-14.2,4.5-20.3c7.7-16.3,24.3-27.7,43.5-27.7h16c20.1,0,37.3,12.4,44.4,29.9c-1.4,4.7-2.3,9.6-2.5,14.7
					c-0.1,1-0.1,2-0.1,3.1c-4.9-9.3-15.2-15.7-25.9-15.7h-48C94,47.8,85,53.1,79.9,61.3c-1.5,2.5-2.7,5.2-3.4,8.1l-0.2,0.9
					c-0.7,2.6-2.2,4.8-4.1,6.5V63.8z M76.6,109.6c-2-4.8-3.4-9.8-4-15.1c2.6-0.8,5.1-2,7.3-3.5c5.8-3.8,10.1-9.7,11.9-16.8l0.2-0.9
					c1.4-5.6,6.4-9.5,12.1-9.5h48c5.7,0,10.7,3.9,12.1,9.4l0.2,1c1.9,7.7,7.2,14.2,13.7,17.9c0.3,5.1,1.2,10.2,2.5,15
					c-8,21.2-28.5,36.8-52.5,36.8C104.9,143.8,85.1,129.7,76.6,109.6z M170,263.8h-32v-16h32V263.8z M170.2,279.7v48
					c-1.7,0.1-3.2,0-4.6-0.2c-0.3,0-0.6-0.1-0.9-0.1c-0.9-0.2-1.8-0.3-2.7-0.6c-0.2,0-0.4-0.1-0.6-0.2c-0.6-0.2-1.2-0.3-1.7-0.5
					c-0.3-0.1-0.5-0.2-0.7-0.3c-0.3-0.1-0.6-0.2-0.9-0.3c-0.3-0.1-0.6-0.3-0.9-0.4c-0.1,0-0.2-0.1-0.4-0.2c-0.2-0.1-0.5-0.2-0.7-0.3
					c-0.2-0.1-0.5-0.2-0.7-0.4c-0.2-0.1-0.5-0.2-0.7-0.4c-0.5-0.2-0.9-0.5-1.3-0.8c-0.4-0.3-0.9-0.5-1.3-0.8
					c-0.2-0.1-0.4-0.3-0.6-0.4c-0.2-0.2-0.4-0.3-0.6-0.5c-0.2-0.2-0.4-0.3-0.6-0.5c-0.8-0.6-1.6-1.3-2.3-2l-0.6-0.6
					c-0.3-0.2-0.5-0.5-0.7-0.7c-0.3-0.3-0.6-0.6-0.9-1c-0.2-0.2-0.3-0.4-0.5-0.6c-0.2-0.3-0.4-0.5-0.6-0.8c-0.4-0.5-0.8-1-1.1-1.5
					c-0.2-0.3-0.4-0.7-0.6-1s-0.4-0.6-0.5-0.9c-2.7-4.7-4.3-10.2-4.3-16v-16H170.2z M134.8,174.7c0,0,0,0.1-0.1,0.1
					c-2.1,0.6-4.3,0.9-6.5,0.9c-10.4,0-19.2-6.7-22.5-16h43.1c-1.5,1.2-3,2.5-4.4,3.8C140.8,166.8,137.6,170.7,134.8,174.7z
					 M16.1,247.8h32v16h-32V247.8z M48.2,327.8H48c-5.2,0-10.1-1.3-14.5-3.6c-5.4-2.8-10-7.2-13-12.4c-2.7-4.7-4.3-10.2-4.3-16v-16
					h32V327.8z M56.2,199.8c-2.2,0-4.2,0.9-5.7,2.3c-1.5,1.5-2.3,3.5-2.3,5.7v24h-32v-16c0-9.8,2.5-19,6.9-27
					c4.4-8,10.8-14.8,18.4-19.8c4.5-2.9,9.4-5.3,14.6-6.8c5.1-1.5,10.5-2.4,16.1-2.4H89c0.3,1.5,0.7,2.9,1.2,4.3
					c2.6,8.1,7.8,15.1,14.6,20c6.1,4.4,13.4,7.2,21.4,7.6c-2.7,7.5-4.1,15.5-4.1,24v80c0,5.6,1,11,2.8,16c0,0,0,0,0,0.1
					c0,0-0.1,0-0.1,0H64.2v-104C64.2,203.3,60.6,199.8,56.2,199.8z M120.1,479.8h-44c-0.9,0-1.8-0.1-2.6-0.3c-2.1-0.5-4-1.5-5.5-2.9
					c-2.4-2.2-3.9-5.4-3.9-8.9v-68h56V479.8z M128.2,359.8c-2.2,0-4.2,0.9-5.7,2.3c-1.5,1.5-2.3,3.5-2.3,5.7v16h-56v-56h70.1
					c8.8,9.8,21.7,15.9,35.9,15.9v40.1l-34,0v-16C136.2,363.3,132.6,359.8,128.2,359.8z M136.2,479.8v-80l34,0V471
					c0,3,0.5,5.9,1.5,8.6c0,0,0,0.1,0,0.1L136.2,479.8z M241.9,479.8H198c-1.7,0-3.4-0.4-4.9-1c-1.6-0.7-3-1.7-4.1-3
					c-1.5-1.7-2.5-3.7-2.9-6c-0.1-0.7-0.2-1.3-0.2-2v-68h56V479.8z M314,467.7c0,6.7-5.4,12.1-12.1,12.1H258v-80h56V467.7z
					 M314,383.8h-56v-16c0-4.4-3.6-8-8-8c-2.2,0-4.2,0.9-5.7,2.3c-1.4,1.5-2.3,3.5-2.3,5.7v16h-56v-56h128V383.8z M362,295.8
					c0,17.7-14.3,32-32,32v-48h32V295.8z M362,263.8h-32v-16h32V263.8z M362,231.8h-32v-24c0-4.4-3.6-8-8-8c-2.2,0-4.2,0.9-5.7,2.3
					c-1.4,1.5-2.3,3.5-2.3,5.7v104H186v-104c0-4.4-3.6-8-8-8c-2.2,0-4.2,0.9-5.7,2.3c-1.4,1.5-2.3,3.5-2.3,5.7v24h-32v-16
					c0-10.2,2.7-19.7,7.5-28c3.4-5.8,7.7-11,12.9-15.2c5.7-4.7,12.4-8.3,19.7-10.5c5-1.5,10.4-2.3,15.9-2.3h16.8
					c0.3,1.3,0.6,2.6,1,3.8c2.6,8.5,8.1,15.9,15.2,20.9c3.3,2.3,6.8,4.1,10.7,5.4c3.9,1.3,8,1.9,12.3,1.9c19.3,0,35.5-13.8,39.2-32
					H306c30.9,0,56,25.1,56,56V231.8z"/>
			</g>
		</g>
	</g>
	<path class="st0" d="M261.5,226v55.1c0,4.4-3.6,8-8,8l0,0c-4.4,0-8-3.6-8-8V234h-6.6c-4.4,0-8-3.6-8-8l0,0c0-4.4,3.6-8,8-8h14.6
		C257.9,218,261.5,221.6,261.5,226z"/>
</g>
</svg>
