<?xml version="1.0" encoding="utf-8"?>
<!-- Generator: Adobe Illustrator 22.0.1, SVG Export Plug-In . SVG Version: 6.00 Build 0)  -->
<svg version="1.1" id="Layer_1" xmlns="http://www.w3.org/2000/svg" xmlns:xlink="http://www.w3.org/1999/xlink" x="0px" y="0px"
	 viewBox="0 0 252.1 555" style="enable-background:new 0 0 252.1 555;" xml:space="preserve">
<style type="text/css">
	.st0{fill:#02458A;}
</style>
<g>
	<g>
		<g>
			<g>
				<path class="st0" d="M35.8,355.3c0.7,0.3,1.5,0.5,2.3,0.7C37.3,355.8,36.5,355.6,35.8,355.3z M35.8,355.3
					c0.7,0.3,1.5,0.5,2.3,0.7C37.3,355.8,36.5,355.6,35.8,355.3z"/>
				<path class="st0" d="M35.8,355.3c0.7,0.3,1.5,0.5,2.3,0.7C37.3,355.8,36.5,355.6,35.8,355.3z"/>
			</g>
			<g>
				<path class="st0" d="M182,144h-16.5l4.4-3.6C186.5,127,196,107.1,196,86V62c0-19.3-8.8-37.2-24.1-49C161,4.5,147.8,0,134,0h-16
					c-14,0-27.2,4.5-38.2,13.2l-0.2,0.1c-5,3.9-9.3,8.6-12.9,13.8c-3.6,5.3-6.4,11.1-8.2,17.3c-1.4,4.6-2.2,9.4-2.4,14.2v0.1
					C56,59.8,56,60.9,56,62v24c0,1.1,0,2.2,0.1,3.3v0.1c0,0.2,0,0.5,0,0.7c0.3,5,1.1,10,2.5,14.7c1.8,6.5,4.6,12.7,8.2,18.4
					c4.1,6.6,9.3,12.3,15.3,17.2l2.9,2.3l1.5,1.2H70c-1.6,0-3.2,0.1-4.8,0.2c-3.6,0.2-7.2,0.8-10.7,1.5l-0.2,0.1
					c-10.3,2.3-20,7.1-28.3,13.8c-1.4,1.1-2.9,2.4-4.3,3.7c-3.5,3.3-6.6,7-9.3,10.9c-2.1,3-3.9,6.2-5.5,9.4c-1.1,2.3-2.1,4.7-2.9,7
					c-2.7,7.5-4,15.4-4,23.4v111c0,5.3,0.9,10.4,2.6,15.3c0.1,0.4,0.3,0.7,0.4,1s0.2,0.5,0.3,0.7l0.1,0.3c1.3,3.1,2.9,6.1,4.9,8.9
					c0.2,0.3,0.4,0.6,0.6,0.9c0.3,0.4,0.5,0.7,0.7,0.9c0.2,0.3,0.5,0.6,0.7,0.9c0.3,0.3,0.5,0.6,0.7,0.9l0.1,0.1
					c0.2,0.3,0.4,0.5,0.7,0.8c8.7,9.7,21.2,15.3,34.3,15.3h2v161.4c0,2.7,0.5,5.4,1.4,7.9c1.3,3.4,3.3,6.4,6,8.9
					c2.9,2.6,6.4,4.4,10.1,5.3c1.6,0.4,3.3,0.6,5,0.6h110.9c12.4,0,22.6-10.1,22.6-22.6V371h2c25.4,0,46-20.6,46-46V214
					C252,175.4,220.6,144,182,144z M169,156v156h-20V180.2l0.8-0.6c6.9-5.6,11.7-13.4,13.5-22l0.3-1.6H169z M135.8,174.1
					c-3.1,1.3-6.4,1.9-9.8,1.9c-2.6,0-5.1-0.4-7.6-1.1c-7.8-2.4-14.1-8.4-16.8-16.2l-1-2.7h50.7l-1,2.7
					C147.9,165.7,142.6,171.3,135.8,174.1z M137,186.5V312h-20V187l2.4,0.4c4.9,0.9,10.3,0.8,15.2-0.4L137,186.5z M68,62
					c0-6.5,1.3-12.9,3.7-18.9C79.4,24.2,97.6,12,118,12h16c27.6,0,50,22.4,50,50v17.3l-3.3-2.8c-2.4-2-4.1-4.6-4.8-7.5l-0.2-1
					c-2.9-11.8-13.5-20.1-25.7-20.1h-48c-10.4,0-19.9,6.1-24.2,15.7c-0.6,1.4-1.2,2.9-1.5,4.4l-0.2,0.9c-0.8,2.9-2.4,5.5-4.8,7.5
					L68,79.2V62z M74,111.6c-0.9-1.8-1.7-3.6-2.4-5.5c-1.6-4.2-2.6-8.7-3.2-13.2l-0.2-1.7l1.6-0.5c1.8-0.6,3.6-1.3,5.2-2.3
					c6.4-3.6,10.9-9.5,12.6-16.6l0.2-0.9c1.6-6.5,7.4-11,14.1-11h48c6.7,0,12.4,4.5,14.1,11l0.2,1c2.3,9,8.9,16,17.9,18.8l1.6,0.5
					l-0.2,1.7c-0.8,6.6-2.7,12.9-5.6,18.8C168,131.6,148.1,144,126,144C103.8,144,83.9,131.6,74,111.6z M88.4,156l0.6,2.4
					c0.2,1,0.5,1.9,0.8,2.8c2.5,8,7.6,15,14.4,19.8l0.9,0.6V312h-20V156H88.4z M48,359h-2c-1.6,0-3.1-0.1-4.6-0.3
					c-0.3,0-0.6-0.1-1-0.2c-1-0.2-1.9-0.4-2.9-0.6l0,0c-0.7-0.2-1.5-0.4-2.4-0.7l-0.8-0.3c-0.3-0.1-0.6-0.2-0.9-0.3
					c-0.4-0.2-0.8-0.3-1.1-0.5c-0.1,0-0.2-0.1-0.3-0.2l-0.7-0.3c-0.2-0.1-0.5-0.3-0.7-0.4c-0.2-0.1-0.5-0.3-0.8-0.4
					c-0.4-0.2-0.9-0.5-1.4-0.8c-0.4-0.3-0.9-0.6-1.4-0.9c-0.2-0.1-0.4-0.3-0.6-0.4l-0.1-0.1c-0.2-0.2-0.4-0.3-0.6-0.4l-0.6-0.5
					c-0.9-0.7-1.8-1.5-2.5-2.2l-0.2-0.2l-0.5-0.5c-0.2-0.2-0.5-0.5-0.7-0.8c-0.3-0.3-0.6-0.7-0.9-1c-0.2-0.2-0.3-0.4-0.5-0.6
					c-0.2-0.3-0.5-0.6-0.7-0.9c-0.3-0.4-0.7-1-1.2-1.6c-0.2-0.3-0.4-0.6-0.6-0.9l-0.1-0.1c-0.2-0.3-0.4-0.7-0.6-1
					c-2.2-3.7-3.6-7.8-4.2-12L12,244h36V359z M54,200c-1.6,0-3.1,0.6-4.3,1.8c-1.1,1.1-1.8,2.7-1.8,4.3v26h-36v-18
					c0-10.2,2.7-20.2,7.8-29c3.5-6,8-11.3,13.3-15.8c6-5,12.9-8.7,20.4-10.9c5.3-1.6,10.8-2.4,16.5-2.4h3v156h-13V206
					C60,202.7,57.3,200,54,200z M120,543H74.1c-2,0-3.9-0.4-5.7-1.2c-1.8-0.8-3.4-1.9-4.8-3.4c-1.8-2-3-4.4-3.4-7
					c-0.1-0.8-0.2-1.6-0.2-2.4V396h60V543z M192,528.9c0,7.8-6.3,14.1-14.1,14.1H132V396h60V528.9z M192,384h-60v-18
					c0-3.3-2.7-6-6-6c-1.6,0-3.1,0.6-4.3,1.8c-1.1,1.1-1.8,2.6-1.8,4.3v18h-60v-60h132V384H192z M239.7,329.9
					c-2.4,16.5-16.8,29.1-33.6,29.1h-2V244h36L239.7,329.9z M240,232h-36v-26c0-3.3-2.7-6-6-6c-1.6,0-3.1,0.6-4.3,1.8
					c-1.1,1.1-1.8,2.7-1.8,4.3v106h-11V156h2c15.3,0.3,29.6,6.4,40.3,17.3c10.7,10.9,16.7,25.4,16.7,40.7v18H240z"/>
				<path class="st0" d="M35.8,355.3c0.7,0.3,1.5,0.5,2.3,0.7C37.3,355.8,36.5,355.6,35.8,355.3z M35.8,355.3
					c0.7,0.3,1.5,0.5,2.3,0.7C37.3,355.8,36.5,355.6,35.8,355.3z M35.8,355.3c0.7,0.3,1.5,0.5,2.3,0.7
					C37.3,355.8,36.5,355.6,35.8,355.3z"/>
			</g>
		</g>
	</g>
</g>
</svg>
