<?xml version="1.0" encoding="utf-8"?>
<!-- Generator: Adobe Illustrator 21.0.0, SVG Export Plug-In . SVG Version: 6.00 Build 0)  -->
<svg version="1.1" id="Capa_1" xmlns="http://www.w3.org/2000/svg" xmlns:xlink="http://www.w3.org/1999/xlink" x="0px" y="0px"
	 viewBox="0 0 397 283.5" style="enable-background:new 0 0 397 283.5;" xml:space="preserve">
<style type="text/css">
	.st0{fill:#02458A;}
</style>
<g>
	<path class="st0" d="M361.9,0H35.1C15.7,0,0,15.7,0,35.1v213.3c0,19.4,15.7,35.1,35.1,35.1h326.8c19.4,0,35.1-15.7,35.1-35.1V35.1
		C397,15.6,381.3,0,361.9,0z M198.5,19.5c20.4,0,38.8,8.3,52.2,21.6c13.4,13.4,21.6,31.8,21.6,52.2c0,1.2,0,2.4-0.1,3.5
		c0,0.4,0,0.7,0,1.1c-0.4,6.4-1.6,12.6-3.5,18.4c-0.1,0.4-0.2,0.7-0.4,1.1c-0.9,2.6-1.9,5.1-3.1,7.5c-0.1,0.3-0.2,0.5-0.3,0.7
		c-2.9,5.8-6.4,11.2-10.7,16c-0.2,0.2-0.3,0.4-0.5,0.5c-13.5,15.2-33.2,24.8-55.2,24.8c-21.9,0-41.6-9.6-55.2-24.8
		c-0.2-0.2-0.3-0.4-0.5-0.6c-4.2-4.8-7.8-10.2-10.7-16c-0.1-0.2-0.2-0.5-0.3-0.7c-1.2-2.4-2.2-4.9-3.1-7.5c-0.1-0.4-0.3-0.7-0.4-1.1
		c-1.9-5.8-3.1-12-3.5-18.4c0-0.4,0-0.7,0-1.1c-0.1-1.2-0.1-2.3-0.1-3.5C124.7,52.6,157.8,19.5,198.5,19.5z M258.5,186.5
		L258.5,186.5l-0.1,0.2l-2.5,3.1c-14.1,17.4-35,27.4-57.3,27.4s-43.2-10-57.3-27.4l-2.5-3.1l-0.1-0.1v-0.1H258.5L258.5,186.5z
		 M19.5,38.3c0-10.4,8.4-18.8,18.8-18.8h102.9l-4,3.5c-20.4,17.8-32,43.4-32,70.3c0,1.2,0,2.3,0.1,3.5c0,0.4,0,0.7,0,1.1
		c0.3,6.3,1.3,12.4,2.8,18.4c0.1,0.4,0.2,0.7,0.3,1.1c2.3,8.5,5.8,16.7,10.4,24.3c0.1,0.2,0.2,0.4,0.3,0.5
		c3.6,5.8,7.9,11.3,12.7,16.2c0.1,0.1,0.2,0.2,0.3,0.4c1.6,1.7,3.3,3.2,5,4.7l4,3.5H19.5V38.3z M19.5,186.5h96.3v0.1v0.1l0.5,0.9
		c5.3,9.9,12.4,18.7,20.9,26.1l4,3.5H19.5V186.5z M38.3,264c-10.4,0-18.8-8.4-18.8-18.8v-8.5h98.1l0.6,1c5.1,8.6,11.5,16.3,19,22.9
		l4,3.5L38.3,264L38.3,264z M198.5,264c-20.6,0-40.5-8.8-54.4-24l-3.1-3.4h115l-3.1,3.4C238.9,255.2,219.1,264,198.5,264z
		 M377.5,245.2c0,10.4-8.4,18.8-18.8,18.8h-103l4-3.5c7.5-6.6,13.9-14.3,19-22.9l0.6-1h98.1L377.5,245.2L377.5,245.2z M377.5,217.2
		H255.7l4-3.5c8.5-7.4,15.5-16.2,20.8-26.1l0.5-0.9v-0.1v-0.1h96.3v30.7H377.5z M377.5,167H255.7l4-3.5c1.7-1.5,3.4-3.1,5-4.7
		c0.1-0.1,0.2-0.2,0.3-0.4c4.9-4.9,9.1-10.4,12.7-16.2c0.1-0.2,0.2-0.4,0.3-0.5c4.6-7.6,8.1-15.7,10.4-24.3c0.1-0.4,0.2-0.7,0.3-1.1
		c1.5-6,2.5-12.2,2.8-18.4c0-0.4,0-0.7,0-1.1c0.1-1.2,0.1-2.4,0.1-3.5c0-26.9-11.7-52.5-32-70.3l-4-3.5h102.9
		c10.4,0,18.8,8.4,18.8,18.8V167L377.5,167L377.5,167z"/>
	<g>
		<g>
			<g>
				<path class="st0" d="M226.2,106.8c0,9.8-7.5,17-20.1,19.2l-0.9,0.1v10.8h-10.9v-10.4H193c-7.8-0.5-15.5-2.3-21.1-5l4.7-10.6
					c6.5,3.1,14.3,5,21.1,5c3.1,0,12.5,0,12.5-7.3c0-6-7-7.5-14.5-9c-13.5-2.8-23.8-5.9-23.8-18.4c0-10.3,8-17.5,21.3-19.3l1-0.2V51
					h10.9v10.5h1.2c6,0.6,11.4,1.9,15.9,3.9L217.9,76c-6-2.6-11.9-3.9-17.4-3.9c-10.9,0-12.5,4.9-12.5,7.8c0,5.9,6.6,7.2,14.3,8.7
					C215.8,91.3,226.2,94.3,226.2,106.8z"/>
			</g>
		</g>
	</g>
	<path class="st0" d="M333.2,103.8c-5.5,0-10-4.5-10-10s4.5-10,10-10s10,4.5,10,10S338.7,103.8,333.2,103.8L333.2,103.8z"/>
	<path class="st0" d="M63.8,103.8c-5.5,0-10-4.5-10-10s4.5-10,10-10s10,4.5,10,10S69.3,103.8,63.8,103.8L63.8,103.8z"/>
</g>
</svg>
