<?xml version="1.0" encoding="utf-8"?>
<!-- Generator: Adobe Illustrator 22.0.1, SVG Export Plug-In . SVG Version: 6.00 Build 0)  -->
<svg version="1.1" id="Capa_1" xmlns="http://www.w3.org/2000/svg" xmlns:xlink="http://www.w3.org/1999/xlink" x="0px" y="0px"
	 viewBox="0 0 512 512" style="enable-background:new 0 0 512 512;" xml:space="preserve">
<style type="text/css">
	.st0{fill:#02458A;}
</style>
<g>
	<path class="st0" d="M419.4,114.3H92.6c-19.4,0-35.1,15.7-35.1,35.1v213.3c0,19.4,15.7,35.1,35.1,35.1h326.8
		c19.4,0,35.1-15.7,35.1-35.1V149.4C454.5,129.9,438.8,114.3,419.4,114.3z M256,133.8c20.4,0,38.8,8.3,52.2,21.6
		c13.4,13.4,21.6,31.8,21.6,52.2c0,1.2,0,2.4-0.1,3.5c0,0.4,0,0.7,0,1.1c-0.4,6.4-1.6,12.6-3.5,18.4c-0.1,0.4-0.2,0.7-0.4,1.1
		c-0.9,2.6-1.9,5.1-3.1,7.5c-0.1,0.3-0.2,0.5-0.3,0.7c-2.9,5.8-6.4,11.2-10.7,16c-0.2,0.2-0.3,0.4-0.5,0.5
		c-13.5,15.2-33.2,24.8-55.2,24.8c-21.9,0-41.6-9.6-55.2-24.8c-0.2-0.2-0.3-0.4-0.5-0.6c-4.2-4.8-7.8-10.2-10.7-16
		c-0.1-0.2-0.2-0.5-0.3-0.7c-1.2-2.4-2.2-4.9-3.1-7.5c-0.1-0.4-0.3-0.7-0.4-1.1c-1.9-5.8-3.1-12-3.5-18.4c0-0.4,0-0.7,0-1.1
		c-0.1-1.2-0.1-2.3-0.1-3.5C182.2,166.9,215.3,133.8,256,133.8z M316,300.8L316,300.8l-0.1,0.2l-2.5,3.1
		c-14.1,17.4-35,27.4-57.3,27.4s-43.2-10-57.3-27.4l-2.5-3.1l-0.1-0.1v-0.1H316L316,300.8z M77,152.6c0-10.4,8.4-18.8,18.8-18.8
		h102.9l-4,3.5c-20.4,17.8-32,43.4-32,70.3c0,1.2,0,2.3,0.1,3.5c0,0.4,0,0.7,0,1.1c0.3,6.3,1.3,12.4,2.8,18.4
		c0.1,0.4,0.2,0.7,0.3,1.1c2.3,8.5,5.8,16.7,10.4,24.3c0.1,0.2,0.2,0.4,0.3,0.5c3.6,5.8,7.9,11.3,12.7,16.2c0.1,0.1,0.2,0.2,0.3,0.4
		c1.6,1.7,3.3,3.2,5,4.7l4,3.5H77V152.6z M77,300.8h96.3v0.1v0.1l0.5,0.9c5.3,9.9,12.4,18.7,20.9,26.1l4,3.5H77V300.8z M95.8,378.3
		c-10.4,0-18.8-8.4-18.8-18.8V351h98.1l0.6,1c5.1,8.6,11.5,16.3,19,22.9l4,3.5H95.8V378.3z M256,378.3c-20.6,0-40.5-8.8-54.4-24
		l-3.1-3.4h115l-3.1,3.4C296.4,369.5,276.6,378.3,256,378.3z M435,359.5c0,10.4-8.4,18.8-18.8,18.8h-103l4-3.5
		c7.5-6.6,13.9-14.3,19-22.9l0.6-1h98.1v8.6H435z M435,331.5H313.2l4-3.5c8.5-7.4,15.5-16.2,20.8-26.1l0.5-0.9v-0.1v-0.1h96.3v30.7
		H435z M435,281.3H313.2l4-3.5c1.7-1.5,3.4-3.1,5-4.7c0.1-0.1,0.2-0.2,0.3-0.4c4.9-4.9,9.1-10.4,12.7-16.2c0.1-0.2,0.2-0.4,0.3-0.5
		c4.6-7.6,8.1-15.7,10.4-24.3c0.1-0.4,0.2-0.7,0.3-1.1c1.5-6,2.5-12.2,2.8-18.4c0-0.4,0-0.7,0-1.1c0.1-1.2,0.1-2.4,0.1-3.5
		c0-26.9-11.7-52.5-32-70.3l-4-3.5H416c10.4,0,18.8,8.4,18.8,18.8v128.7H435z"/>
	<g>
		<g>
			<g>
				<path class="st0" d="M283.7,221.1c0,9.8-7.5,17-20.1,19.2l-0.9,0.1v10.8h-10.9v-10.4h-1.3c-7.8-0.5-15.5-2.3-21.1-5l4.7-10.6
					c6.5,3.1,14.3,5,21.1,5c3.1,0,12.5,0,12.5-7.3c0-6-7-7.5-14.5-9c-13.5-2.8-23.8-5.9-23.8-18.4c0-10.3,8-17.5,21.3-19.3l1-0.2
					v-10.7h10.9v10.5h1.2c6,0.6,11.4,1.9,15.9,3.9l-4.3,10.6c-6-2.6-11.9-3.9-17.4-3.9c-10.9,0-12.5,4.9-12.5,7.8
					c0,5.9,6.6,7.2,14.3,8.7C273.3,205.6,283.7,208.6,283.7,221.1z"/>
			</g>
		</g>
	</g>
	<path class="st0" d="M390.7,218.1c-5.5,0-10-4.5-10-10s4.5-10,10-10s10,4.5,10,10S396.2,218.1,390.7,218.1L390.7,218.1z"/>
	<path class="st0" d="M121.3,218.1c-5.5,0-10-4.5-10-10s4.5-10,10-10s10,4.5,10,10S126.8,218.1,121.3,218.1L121.3,218.1z"/>
</g>
</svg>
