<?xml version="1.0" encoding="utf-8"?>
<!-- Generator: Adobe Illustrator 22.0.1, SVG Export Plug-In . SVG Version: 6.00 Build 0)  -->
<svg version="1.1" id="Capa_1" xmlns="http://www.w3.org/2000/svg" xmlns:xlink="http://www.w3.org/1999/xlink" x="0px" y="0px"
	 viewBox="0 0 512 512" style="enable-background:new 0 0 512 512;" xml:space="preserve">
<style type="text/css">
	.st0{fill:#02458A;}
</style>
<g>
	<g>
		<g>
			<g>
				<path class="st0" d="M419.3,162.8H92.6c-19.4,0-35.1,15.7-35.1,35.1v116.3c0,19.4,15.7,35.1,35.1,35.1h326.8
					c19.4,0,35.1-15.7,35.1-35.1V197.9C454.5,178.4,438.7,162.8,419.3,162.8z M95.8,329.9c-10.4,0-18.9-8.4-18.9-18.9V201.1
					c0-10.4,8.4-18.8,18.9-18.8h102.9l-4,3.5c-20.3,17.8-32,43.4-32,70.3c0,16.8,4.6,33.1,12.9,47.3v0.1c0.3,0.6,0.7,1.1,1,1.7
					c0.2,0.4,0.4,0.7,0.7,1.1c0.3,0.5,0.7,1,1,1.6c0.4,0.6,0.9,1.3,1.3,1.9c0.8,1.1,1.6,2.2,2.4,3.3c0.3,0.4,0.6,0.8,1,1.2
					c0.8,1,1.6,2,2.4,2.9c0.3,0.3,0.6,0.7,0.9,1c0.2,0.2,0.4,0.5,0.6,0.7c0.3,0.4,0.7,0.7,1,1.1c0.8,0.9,1.7,1.8,2.6,2.7
					c0.4,0.4,0.8,0.8,1.3,1.2l0.1,0.1c0.4,0.4,0.9,0.8,1.3,1.2c0.5,0.4,0.9,0.8,1.4,1.3l4,3.5H95.8V329.9z M310.4,305.9
					c-0.8,0.9-1.6,1.7-2.5,2.5c-0.5,0.5-1.1,1.1-1.6,1.6c-0.1,0.1-0.2,0.2-0.3,0.2c-0.2,0.1-0.3,0.3-0.5,0.4
					c-0.2,0.2-0.3,0.3-0.5,0.5s-0.4,0.4-0.6,0.6c-0.4,0.3-0.8,0.7-1.2,1c-0.4,0.3-0.8,0.7-1.2,1c-0.1,0.1-0.2,0.2-0.3,0.2
					c-0.4,0.3-0.8,0.6-1.2,0.9l-0.1,0.1c-0.3,0.2-0.6,0.5-0.9,0.7c-0.1,0.1-0.2,0.2-0.3,0.2c-0.2,0.2-0.5,0.3-0.7,0.5
					c-0.2,0.1-0.3,0.3-0.5,0.3c-0.4,0.3-0.8,0.5-1.1,0.8l-0.1,0.1h-0.1c-0.3,0.2-0.6,0.4-0.9,0.6c-0.5,0.3-1.1,0.7-1.6,1
					c-0.3,0.2-0.6,0.4-0.9,0.6c-0.6,0.3-1.1,0.7-1.7,1c-0.2,0.1-0.4,0.3-0.7,0.4c-0.2,0.1-0.3,0.2-0.5,0.3c-7,3.7-14.6,6.3-22.7,7.6
					c-0.9,0.2-1.9,0.3-2.8,0.4c-0.4,0.1-0.8,0.1-1.2,0.1h-0.1c-0.6,0.1-1.3,0.1-2,0.2c-0.4,0-0.8,0.1-1.2,0.1c-0.1,0-0.1,0-0.2,0
					c-0.1,0-0.2,0-0.3,0c-0.2,0-0.4,0-0.5,0c-0.6,0-1.1,0.1-1.7,0.1c-0.5,0-1.1,0-1.7,0c-0.6,0-1.1,0-1.7,0c-0.6,0-1.1,0-1.7-0.1
					c-0.2,0-0.3,0-0.5,0l0,0c-0.1,0-0.2,0-0.3,0h-0.1c-0.7,0-1.5-0.1-2.2-0.2h-0.1c-0.8-0.1-1.5-0.1-2.3-0.2c-0.4,0-0.8-0.1-1.2-0.2
					c-9.1-1.2-17.6-4.1-25.3-8.4c0,0-0.1,0-0.1-0.1c0,0-0.1,0-0.1-0.1c-0.4-0.2-0.8-0.4-1.1-0.6c-0.5-0.3-1-0.6-1.5-0.9
					s-1.1-0.6-1.6-1l0,0c-0.4-0.3-0.8-0.5-1.1-0.7c-0.2-0.1-0.3-0.2-0.5-0.3c-0.2-0.1-0.4-0.3-0.7-0.4c-0.1-0.1-0.2-0.1-0.3-0.2
					s-0.2-0.1-0.3-0.2s-0.2-0.1-0.3-0.2s-0.2-0.1-0.3-0.2c-0.1,0-0.1-0.1-0.2-0.1l-0.1-0.1l0,0c-0.1-0.1-0.2-0.1-0.3-0.2
					s-0.2-0.2-0.3-0.2c-0.1-0.1-0.3-0.2-0.4-0.3c-0.1-0.1-0.2-0.1-0.2-0.2c-0.1-0.1-0.3-0.2-0.4-0.3c-0.1,0-0.1-0.1-0.2-0.1
					c-0.1,0-0.1-0.1-0.2-0.2c-0.2-0.1-0.4-0.3-0.5-0.4c-0.5-0.4-0.9-0.7-1.3-1.1l-0.1-0.1c-0.9-0.8-1.8-1.6-2.7-2.4
					c-0.6-0.5-1.2-1.1-1.7-1.7c-0.3-0.3-0.7-0.7-1-1c-0.1,0-0.1-0.1-0.2-0.2c-0.1-0.1-0.2-0.3-0.3-0.4c-0.2-0.2-0.3-0.3-0.5-0.5
					s-0.3-0.3-0.5-0.5l-0.8-0.8l-2.3-2.5h0.2c-10.3-12.7-16.5-28.8-16.5-46.4c0-40.7,33.1-73.8,73.8-73.8c20.3,0,38.8,8.3,52.1,21.6
					c13.4,13.4,21.6,31.8,21.6,52.1c0,17.6-6.2,33.7-16.5,46.4h0.2l-2.5,2.7L310.4,305.9z M435,311c0,10.4-8.4,18.9-18.9,18.9H313.2
					l4-3.5c0.5-0.4,0.9-0.8,1.4-1.3c0.4-0.4,0.9-0.8,1.3-1.2c0,0,0.1-0.1,0.2-0.1c0.4-0.4,0.8-0.8,1.3-1.2c0.9-0.9,1.8-1.8,2.6-2.7
					c0.3-0.4,0.7-0.7,1-1.1c0.2-0.2,0.4-0.5,0.6-0.7c0.3-0.3,0.6-0.7,0.9-1c0.8-1,1.6-1.9,2.4-2.9c0.3-0.4,0.7-0.8,1-1.2
					c1.7-2.2,3.3-4.4,4.7-6.7c0.2-0.4,0.5-0.7,0.7-1.1c0.4-0.6,0.7-1.2,1-1.7c8.4-14.2,13-30.5,13-47.3c0-26.9-11.7-52.5-32-70.3
					l-4-3.5h102.9c10.4,0,18.9,8.4,18.9,18.8V311H435z"/>
			</g>
		</g>
	</g>
	<g>
		<g>
			<g>
				<path class="st0" d="M283.6,268.9c0,9.8-7.5,17-20.1,19.2l-0.9,0.1V299h-10.9v-10.4h-1.3c-7.8-0.5-15.5-2.3-21.1-5L234,273
					c6.5,3.1,14.3,5,21.1,5c3.1,0,12.5,0,12.5-7.3c0-6-7-7.5-14.5-9c-13.5-2.8-23.8-5.9-23.8-18.4c0-10.3,8-17.5,21.3-19.3l1-0.2
					v-10.6h10.9v10.5h1.2c6,0.6,11.4,1.9,15.9,3.9l-4.4,10.5c-6-2.6-11.9-3.9-17.4-3.9c-10.9,0-12.5,4.9-12.5,7.8
					c0,5.9,6.6,7.2,14.3,8.7C273.2,253.4,283.6,256.5,283.6,268.9z"/>
			</g>
		</g>
	</g>
	<path class="st0" d="M390.7,266c-5.5,0-10-4.5-10-10s4.5-10,10-10s10,4.5,10,10S396.2,266,390.7,266L390.7,266z"/>
	<path class="st0" d="M121.2,266c-5.5,0-10-4.5-10-10s4.5-10,10-10s10,4.5,10,10S126.7,266,121.2,266L121.2,266z"/>
</g>
</svg>
