<?xml version="1.0" encoding="utf-8"?>
<!-- Generator: Adobe Illustrator 22.0.1, SVG Export Plug-In . SVG Version: 6.00 Build 0)  -->
<svg version="1.1" id="Capa_1" xmlns="http://www.w3.org/2000/svg" xmlns:xlink="http://www.w3.org/1999/xlink" x="0px" y="0px"
	 viewBox="0 0 373 325.7" style="enable-background:new 0 0 373 325.7;" xml:space="preserve">
<style type="text/css">
	.st0{fill:#004A9D;}
</style>
<g>
	<path class="st0" d="M315.3,197.6c-32.2-11.8-74.2-18.7-119.1-19.6V97h90.5c4.9,0,9-4,9-9V8.9C295.5,4,291.5,0,286.5,0h-97
		c-6.3,0-11.4,5.1-11.4,11.4V178c-45.4,0.8-87.9,7.7-120.4,19.6C20.5,211.2,0,230.5,0,251.8s20.5,40.5,57.7,54.2
		c34.5,12.7,80.3,19.7,128.8,19.7s94.2-7,128.8-19.7c37.2-13.6,57.7-32.9,57.7-54.2S352.5,211.3,315.3,197.6z M196,18h81.5v61.2H196
		V18z M214.1,248.1v9.9h-54v-9.9H214.1z M186.5,308.8c-99.9,0-169.5-30-169.5-56.9c0-26.1,65.7-55.2,161.1-56.8v35.2h-18
		c-9.9,0-17.9,8-17.9,17.9V267c0,4.9,4,9,9,9h71.9c4.9,0,9-4,9-9v-18.8c0-9.9-8-17.9-17.9-17.9h-18v-35.2
		C290.9,197,356,225.9,356,251.9C356,278.8,286.4,308.8,186.5,308.8z"/>
</g>
</svg>
