<?xml version="1.0" encoding="utf-8"?>
<!-- Generator: Adobe Illustrator 22.0.1, SVG Export Plug-In . SVG Version: 6.00 Build 0)  -->
<svg version="1.1" id="Capa_1" xmlns="http://www.w3.org/2000/svg" xmlns:xlink="http://www.w3.org/1999/xlink" x="0px" y="0px"
	 viewBox="0 0 512 512" style="enable-background:new 0 0 512 512;" xml:space="preserve">
<style type="text/css">
	.st0{fill:#02458A;}
</style>
<g>
	<path class="st0" d="M384.8,290.7c-32.2-11.8-74.2-18.7-119.1-19.6v-81h90.5c4.9,0,9-4,9-9V102c-0.2-4.9-4.2-8.9-9.2-8.9h-97
		c-6.3,0-11.4,5.1-11.4,11.4v166.6c-45.4,0.8-87.9,7.7-120.4,19.6c-37.2,13.6-57.7,32.9-57.7,54.2s20.5,40.5,57.7,54.2
		c34.5,12.7,80.3,19.7,128.8,19.7s94.2-7,128.8-19.7c37.2-13.6,57.7-32.9,57.7-54.2S422,304.4,384.8,290.7z M265.5,111.1H347v61.2
		h-81.5V111.1z M283.6,341.2v9.9h-54v-9.9H283.6z M256,401.9c-99.9,0-169.5-30-169.5-56.9c0-26.1,65.7-55.2,161.1-56.8v35.2h-18
		c-9.9,0-17.9,8-17.9,17.9v18.8c0,4.9,4,9,9,9h71.9c4.9,0,9-4,9-9v-18.8c0-9.9-8-17.9-17.9-17.9h-18v-35.2
		c94.7,1.9,159.8,30.8,159.8,56.8C425.5,371.9,355.9,401.9,256,401.9z"/>
</g>
</svg>
