<?xml version="1.0" encoding="utf-8"?>
<!-- Generator: Adobe Illustrator 22.0.1, SVG Export Plug-In . SVG Version: 6.00 Build 0)  -->
<svg version="1.1" id="Capa_1" xmlns="http://www.w3.org/2000/svg" xmlns:xlink="http://www.w3.org/1999/xlink" x="0px" y="0px"
	 viewBox="0 0 512 512" style="enable-background:new 0 0 512 512;" xml:space="preserve">
<style type="text/css">
	.st0{fill:#02458A;}
</style>
<g>
	<g>
		<g>
			<g>
				<path class="st0" d="M395.5,388.4c0,3.8-3.3,7.1-7.1,7.1H123.6c-3.8,0-7.1-3.3-7.1-7.1V123.6c0-3.9,3.2-7.1,7.1-7.1
					c3.9,0,7.1,3.2,7.1,7.1v141.8h110l129.5-133.2l-38,3.7c-1.9,0.1-3.7-0.4-5.2-1.6l-0.1-0.1c-1.4-1.3-2.3-3-2.4-4.8
					c-0.2-1.9,0.4-3.7,1.5-5.2c1.2-1.5,3-2.5,4.8-2.6l55.2-5.1l1.2,0c1.5,0.2,3,0.8,4,1.9c1.4,1.2,2.2,3,2.4,4.9l0,0.1v0.1
					l-0.6,52.3c0,3.8-3.1,7.1-6.9,7.3c-0.1,0-0.2,0-0.3,0c-1.8,0-3.5-0.7-4.8-1.9c-1.4-1.3-2.2-3.1-2.3-5V176l0.9-32.9L261.3,265.4
					h127.1c3.9,0,7.1,3.2,7.1,7.1c0,3.8-3.3,7.1-7.1,7.1H247.6l-67.5,69.7c-1.3,1.5-3.3,2.4-5.5,2.4c-2.2,0-4.2-0.9-5.7-2.5
					c-2.6-3-2.5-7.4,0.1-10.2l57.8-59.4h-96.1v101.6h257.6C392.3,381.2,395.5,384.4,395.5,388.4z"/>
			</g>
		</g>
	</g>
</g>
</svg>
