<?xml version="1.0" encoding="utf-8"?>
<!-- Generator: Adobe Illustrator 21.0.0, SVG Export Plug-In . SVG Version: 6.00 Build 0)  -->
<svg version="1.1" id="Capa_1" xmlns="http://www.w3.org/2000/svg" xmlns:xlink="http://www.w3.org/1999/xlink" x="0px" y="0px"
	 viewBox="0 0 279 279" style="enable-background:new 0 0 279 279;" xml:space="preserve">
<style type="text/css">
	.st0{fill:#02458A;}
</style>
<g>
	<g>
		<g>
			<g>
				<path class="st0" d="M279,271.9c0,3.8-3.3,7.1-7.1,7.1H7.1c-3.8,0-7.1-3.3-7.1-7.1V7.1C0,3.2,3.2,0,7.1,0s7.1,3.2,7.1,7.1v141.8
					h110L253.7,15.7l-38,3.7c-1.9,0.1-3.7-0.4-5.2-1.6l-0.1-0.1c-1.4-1.3-2.3-3-2.4-4.8c-0.2-1.9,0.4-3.7,1.5-5.2
					c1.2-1.5,3-2.5,4.8-2.6L269.5,0h1.2c1.5,0.2,3,0.8,4,1.9c1.4,1.2,2.2,3,2.4,4.9v0.1V7l-0.6,52.3c0,3.8-3.1,7.1-6.9,7.3
					c-0.1,0-0.2,0-0.3,0c-1.8,0-3.5-0.7-4.8-1.9c-1.4-1.3-2.2-3.1-2.3-5v-0.2l0.9-32.9L144.8,148.9h127.1c3.9,0,7.1,3.2,7.1,7.1
					c0,3.8-3.3,7.1-7.1,7.1H131.1l-67.5,69.7c-1.3,1.5-3.3,2.4-5.5,2.4s-4.2-0.9-5.7-2.5c-2.6-3-2.5-7.4,0.1-10.2l57.8-59.4H14.2
					v101.6h257.6C275.8,264.7,279,267.9,279,271.9z"/>
			</g>
		</g>
	</g>
</g>
</svg>
