<svg id="Capa_1" data-name="Capa 1" xmlns="http://www.w3.org/2000/svg" viewBox="0 0 272.29 2011.47"><title>Mouse_Scroll</title><path d="M136.14,800.33C61.07,800.33,0,862.37,0,938.61v110.12C0,1125,61.07,1187,136.14,1187s136.15-61.84,136.15-137.85V938.61C272.29,862.37,211.21,800.33,136.14,800.33Zm110.54,248.82c0,61.89-49.58,112.24-110.54,112.24S25.61,1110.85,25.61,1048.72V938.61c0-62.13,49.59-112.67,110.53-112.67s110.54,50.54,110.54,112.67Z" style="fill:#fff"/><path d="M136.14,906.18a12.8,12.8,0,0,0-12.8,12.8v44.81a12.81,12.81,0,1,0,25.61,0V919A12.8,12.8,0,0,0,136.14,906.18Z" style="fill:#fff"/><rect x="123.34" width="25.61" height="705" rx="12.8" ry="12.8" style="fill:#fff"/><rect x="123.34" y="1306.47" width="25.61" height="705" rx="12.8" ry="12.8" style="fill:#fff"/></svg>