<svg id="Слой_1" data-name="Слой 1" xmlns="http://www.w3.org/2000/svg" viewBox="0 0 2500 1689.48"><title>Adidas</title><path d="M2308.45,1688.75c-116.92,0-186.26-59.84-191.57-146h111.79c0,28.73,15.92,67,85.08,69.34,47.94,0,74.46-28.72,74.46-50.31-5.3-33.48-47.93-35.86-90.38-43.18-47.94-6.95-85.08-16.65-111.79-28.54-37.14-19.21-58.55-60-58.55-103,0-76.67,64-136.5,175.65-136.5,106.48,0,175.64,55.08,180.76,138.87H2377.61c0-21.41-5.31-57.45-69.17-57.45-42.63,0-69.15,7.14-74.46,38.24,0,43.18,90.38,40.8,159.54,57.45,63.85,16.83,106.48,57.45,106.48,115.08,0,105.39-85.08,146-191.55,146M271.35,981.69l367-213.16,196.87,337.76H340.51" style="fill:#4375e7"/><rect x="989.52" y="1249.74" width="106.31" height="430.04" style="fill:#4375e7"/><path d="M101,1469.19c0,67,58.55,122,122.21,122,69.35,0,122.41-55.08,122.41-122,0-64.58-53.06-122-122.41-122-63.66,0-122.21,57.45-122.21,122m116.91,220.29C101,1689.48,0,1591.23,0,1469.19s101-217.9,217.91-217.9c47.94,0,90.56,12.07,127.71,38.23V1256H452.1v423.74H345.62v-26.34c-31.83,24-79.76,36-127.7,36m1420.57-583.29L1127.84,215.53,1494.86,0l638.36,1106.19m-1542.8,363c0,67,53.25,122,122.4,122,63.67,0,122.41-55.08,122.41-122,0-64.58-58.74-122-122.41-122-69.15,0-122.4,57.45-122.4,122m117.1,220.29c-122.41,0-218.09-98.25-218.09-220.29s95.68-217.9,218.09-217.9c47.75,0,90.38,12.07,127.71,38.23V1110h106.3v569.75H835.22v-26.34q-56,36-127.71,36M702.27,601,1074.6,390.42l409.66,715.75H1095.83v105.38H989.52V1106.17M2431,1214.87c-26.71,0-53.23-24-53.23-52.69s26.52-52.7,53.23-52.7c31.84,0,53.25,24,53.25,52.7s-21.41,52.7-53.25,52.7m0-98.07c-26.71,0-42.62,21.4-42.62,45.37s15.91,45.56,42.62,45.56c26.54,0,42.45-21.59,42.45-45.56s-15.91-45.37-42.45-45.37" style="fill:#4375e7"/><path d="M2442,1191.09l-10.62-24h-10.61v24h-8.05v-57.46h24c5.31,0,15.92,7.33,15.92,16.84s-5.31,14.27-10.61,16.65l10.61,24M2431.39,1141h-10.61v19h10.61c10.62,0,10.62-2.38,10.62-9.52,0-4.93,0-9.51-10.62-9.51m-702.94,328.23c0,67,53.25,122,122.4,122,63.85,0,122.22-55.08,122.22-122,0-64.58-58.37-122-122.22-122-69.16,0-122.4,57.45-122.4,122m116.92,220.29c-122.22,0-217.92-98.25-217.92-220.29s95.7-217.9,217.91-217.9c47.94,0,90.57,12.07,127.71,38.23V1256h101.18v423.74H1973.08v-26.34q-55.72,36-127.72,36m-606-220.29c0,67,58.54,122,122.39,122,69.17,0,122.4-55.08,122.4-122,0-64.58-53.24-122-122.4-122-63.85,0-122.39,57.45-122.39,122M1484.19,1110H1590.5v569.75H1484.19v-26.34c-32,24-74.64,36-122.4,36-122.39,0-223.4-98.25-223.4-220.29s101-217.9,223.4-217.9c47.75,0,90.39,12.07,122.4,38.23Z" style="fill:#4375e7"/></svg>