<svg id="Слой_1" data-name="Слой 1" xmlns="http://www.w3.org/2000/svg" viewBox="0 0 2670 663.98"><title>Decathlon</title><path d="M0,0V662.19L2670,664V0ZM659.94,288.63l.19,84.88H564.22v48.64H669.74l.19,84.27H466.24V387.71c-21.12,64.61-81.95,112.59-150.81,118.71H160.28V158.84l154.51.59c69.5,6.14,130.33,54.14,151.45,119.34V159.43l203.5-.59.19,85.52H564.22v44.27Zm505.7,217.79h-89.39l-.61-52.31h-103c-32.28,32.63-78.79,52.31-125.33,52.31-96.2,0-175-78.1-175-173.52,0-96,88.11-175.34,184.28-175.34,51.53,0,103,22.83,137.77,58.47l-44.64,67.68c-22.35-22.77-55.24-36.31-87.52-36.31A137.89,137.89,0,0,0,847,248.63c-46.8,0-85.31,38.15-85.31,84.93,0,46.09,38.51,84.3,85,84.3,28.57,0,55.86-14.16,71.4-37.6l149.52-221.42h98.09ZM1406.34,240H1336.9V506.42h-89.37V240H1178V159.43l228.31-.59Zm297.89,266.41h-89.36V369.21H1508.74V506.42h-90V158.84h89.29l.67,129.79h105.52l.61-129.76,89.36,0Zm805.36,0h-81.25L2306.13,337.27V506.42h-90l-.62-126.16c-21.7,73.85-90.59,126.16-168.77,126.16-44.67,0-89.36-18.45-122.23-48.62v48.62H1716.33V158.84h91.07V422.13h88.51c-14.87-27.1-24.16-58.4-24.16-89.23,0-96,78.82-174.06,175-174.06,78.18,0,148.29,53.51,168.77,127.33l.62-126.77,81.32-.56L2420.3,320.59V158.84h89.42Z" style="fill:#4375e7"/><polygon points="1076.25 377.83 1026.64 377.83 1075.64 309.59 1076.25 377.83" style="fill:#4375e7"/><path d="M2136.72,332.9c0,49.26-40.32,88.64-90,88.64-49,0-89.34-39.38-89.34-88.64,0-48.57,40.32-88.54,89.34-88.54C2096.4,244.36,2136.72,284.33,2136.72,332.9Z" style="fill:#4375e7"/><path d="M376.26,332.92a168.15,168.15,0,0,1-8.71,52.92c-5.55,23.39-27.93,40-52.12,40.59H258.35V240h57.08c24.19,0,46.57,17.3,52.12,41.25A160.84,160.84,0,0,1,376.26,332.92Z" style="fill:#4375e7"/></svg>