<svg id="Слой_1" data-name="Слой 1" xmlns="http://www.w3.org/2000/svg" viewBox="0 0 566.93 566.93"><title>Logo Estonia</title><path d="M566.93,283.47C566.93,440,440,566.93,283.46,566.93S0,440,0,283.47,126.94,0,283.46,0,566.93,126.94,566.93,283.47Z" style="fill:#fff;fill-rule:evenodd"/><path d="M283.46,0C126.94,0,0,126.94,0,283.47S126.94,566.93,283.46,566.93,566.93,440,566.93,283.47,440,0,283.46,0ZM165.51,526.59A270.75,270.75,0,0,1,93.74,475.8l-.16-.17q-8.11-8-15.54-16.69A269.89,269.89,0,0,1,65,124.52l.06-.08a271.82,271.82,0,0,1,31.7-36.22,4.89,4.89,0,0,1,.4-.39A270.27,270.27,0,0,1,543.6,356.67c-31.92,113.64-136.32,197-260.14,197A269,269,0,0,1,165.51,526.59Z" style="fill:#f9f9f9;fill-rule:evenodd"/><path d="M94.67,237.18V90.23c52.38-51.7,119.92-77,187.76-77.55,67.46-.55,138.45,26.87,187.26,75.51-21.77,2-41,3.06-62.76,5.1,5.1,21.43,12.25,45.92,13.27,67.35-30.62-25.85-84.3-71-142.87-65.31-75.1,7.37-127.22,21.09-182.66,141.85Z" style="fill:#fcd44e;fill-rule:evenodd"/><path d="M290.33,262q-.37,18.4-.76,36.82c8.78,1.36,18.32,12.79,27.36,12.79,10.52,0,17.88-13.52,28.38-12.79,8.68.6,14.41,10,27.36,13.81V262.23L290.33,262Z" style="fill:#00a1d2;fill-rule:evenodd"/><polygon points="371.9 313.38 357.33 353.52 319.23 373.47 357.07 392.39 372.93 436.37 371.9 313.38 371.9 313.38" style="fill:#00a1d2;fill-rule:evenodd"/><path d="M373.69,312.1c10.4-2.9,19.08-12.67,25.83-13.3,10.79-1,18.32,13.09,29.15,13,10,0,16.62-12.61,27.36-13.3.4,48.17-4.07,78.52-19.76,104.24-13.41,22-34.57,33.35-63.85,44.08l.25-9.47,15.86-45.26,36.56-18.66-36.56-18.16c-4.95-14.66-9.89-28.55-14.84-43.21Z" style="fill:#00a1d2;fill-rule:evenodd"/><path d="M91.39,94a284.21,284.21,0,0,0-55.74,79.27c7.84,3.07,14.6,6.19,22.76,8.69C65.2,184,74.17,177,77.84,171c5.63-9.32,9.63-17.31,14.58-25.83-.35-17.39-.69-33.75-1-51.14Z" style="fill:#00a1d2;fill-rule:evenodd"/><path d="M18,336.65l23.53-1c4,.76,8.78,1.44,11.51,8.7,5.16,21.92,13,42.17,25.82,61.62a33,33,0,0,1,1.79,18.41l-1.53,35.8C50.71,428.56,28.68,389.37,18,336.65Z" style="fill:#00a1d2;fill-rule:evenodd"/><path d="M82.44,463.48h40.15c7.66-.66,13.92,2.9,20.2,6.39,7.2,8.37,19.73,15.15,33.75,21.48-.93,6.94-3.58,13.25-10,18.15a83.19,83.19,0,0,0-1,18.42C134,511.55,105.8,490.75,82.44,463.48Z" style="fill:#00a1d2;fill-rule:evenodd"/><path d="M500.53,120.57a350.25,350.25,0,0,1-46.54,1c-3.71-.81-7.55,4.48-7.42,12.28a79.31,79.31,0,0,0,8.7,36.56c29.15,41.62,35.12,91.27,27.36,149.08-.6,4,1.79,8.14,10.74,12.79L545,357.36c21.57-89.64,3.48-167.61-44.49-236.79Z" style="fill:#00a1d2;fill-rule:evenodd"/><path d="M141.64,191.4c-1.36,4.77-2.34,7.25-2.17,11.51q-4.08,10.47,5.62,14.32c7.26,1.06,11.85-1.21,16.37-3.58,4.48-1.58,8.47,2.43,11.72,3.78,19.08,7.92,36.81,8.49,56.81,5.42,7.24,7.53,15.51,19.65,14.57,29.73-1.79,19.24-22,24.17-22.76,58.24l22,1.53,20.46-18.41,22,8.18q-16.87-19.94-9.2-46c4.6-4.61,8.69-7.67,13.29-12.28,7.85-4.26,16.2-6.31,24-5.11q.76-13.56,9.72-16.88l14.83,16.37,5.11,1c7.84,6.82,9.12,14,3.33,23.53,7.5-.52,14.49.25,22-.26,8.69-12.19,7.92-26.25.25-41.17l2-4.6c-12.78-12.07-25-25.69-38.23-37.61a161.1,161.1,0,0,0-19.05-14.56c-10.91-3.58-19.26,9.21-32.73,11.77-11.59-.34-16.54-2.22-25.06-8.7-13.49,2.62-23.09,2.18-38,9.91-10.72,2.42-27.24,4.32-43.59,6.39-6.3.79-8,5.7-13.87,6.58-4.6.68-17.28-2.16-19.49.9Z" style="fill:#e6e5e6;fill-rule:evenodd"/><polygon points="232.94 311.67 244.53 310.69 263.78 294.27 289.56 304.53 290.01 347.86 277.86 330.57 267.65 340.26 242.18 374.72 238.04 400.96 218.65 429.03 192.12 419.84 206.64 391.35 212.02 358.62 232.94 311.67 232.94 311.67" style="fill:#b1b1b1;fill-rule:evenodd"/><path d="M283.46,10.93C434,10.93,556,133,556,283.47S434,556,283.46,556,10.93,434,10.93,283.47,133,10.93,283.46,10.93ZM164.78,524.58c-.7-5.29-.51-12.81,1.09-16.65,4-3,8.81-8.41,8.8-16.51a144.87,144.87,0,0,1-16.37-7.8c-5.45-3.14-10.73-8.28-15.7-11.81-6-4.3-12.47-7.37-19.87-7.28L85.36,465a269.66,269.66,0,0,0,79.42,59.61Zm-82-62.41,38.35.12c11.18,0,15.59,2.71,21.93,7,5.75,3.86,9,8.08,17.73,13.1,5.19,2.68,10.45,5.22,16.67,7.76-1.55,12.71-5,15.33-9.59,19.33-1.8,5.44-1.33,10.36-.86,16.25a267.47,267.47,0,0,0,116.41,26.48c122.83,0,226.44-82.46,258.47-195L489.12,331c-5-2.48-8.93-6.21-7.59-15.86,3.92-26.75,3.63-53.5-.67-77.82-3.34-19-8.57-35.9-17.65-51.08-4.82-8.08-10.19-17-11.1-18.83-2.16-4.34-7.49-23.35-6.55-34.94.42-5.25,1.58-9.69,4.66-11.57,1.4-.86,3.1-1,5.48-.77a214.8,214.8,0,0,0,41.06,0,268.8,268.8,0,0,0-25.34-28.6l-56.24,5.38c5.85,27.1,10.11,55.41,13.27,82.51v.08h0C393,133.23,341.85,101.31,289.68,98c7.17,2.46,13.3,8.15,14.58,18.72,9.21.71,23,2.51,22.81,10.61-.27,10.82-15.84,16.49-28.26,19.93l.24,3.39a30.62,30.62,0,0,0,11.8,1,17.23,17.23,0,0,1-12.29,3.73v0c1,1.7,1.91,3.51,2.92,5.21,10.6.5,18.15.12,30.86,12.87,13.85,13.89,27.42,28.08,41.55,41.67,2.35,2.26,3.46,4.91-.31,7.48L373,223c4.57,6.77,11,20.22-.4,38h83.48c.22,8.33.5,16.65.76,25,.26,8.16.45,16.32.41,24.49,0,8.54-.29,17.05-1,25.57a221.17,221.17,0,0,1-4.63,31.46c-2.57,11.27-6.05,22-11.55,32.17-6.18,11.44-14.06,19.94-24.59,27.5l-2,1.42a121.21,121.21,0,0,1-29.85,15.24v7.41h-7.17v0H369a20.82,20.82,0,0,0-1-5.5l-4.66-1.91a171.17,171.17,0,0,1-22.8-11.15,21,21,0,0,0-13.41,18.56h-8.51v0H215v-4.8h0a21,21,0,0,0-41.9-.73v5.53H89.12V153L78.3,171.91c-3.81,6.66-13.44,13.28-20.67,10.74l-20.3-7.1a269.46,269.46,0,0,0-17.5,160l21.1-.83c7.66-.3,12.55,5.48,14.06,13a139.3,139.3,0,0,0,10.06,30.69c4.61,8.95,7.26,12.59,10.82,19,3.7,6.68,6.74,12.35,6.25,23.52l-1.68,38.52c.79.91,1.58,1.81,2.38,2.71ZM498.28,122.08a232.71,232.71,0,0,1-42.44.41c-1.95-.17-3.44-.28-4.58.61-2.19,1.7-3.13,5.68-3.68,10.22-.29,2.48,1.74,22.33,6.54,33.29,2.05,4.6,6.62,10.84,11.39,19,19.84,34,25.3,89.22,18.44,128.52-.91,8.58.68,12,6.49,14.84L542.6,354.7a269,269,0,0,0-44.32-232.62Zm-478,215.6,20.26-1c7-.33,11.48,5.05,12.63,11.93.41,2.47,5.26,21.1,10.34,30.95,2.89,5.59,6.58,11.94,10,17.71,3.76,6.38,6.94,14.6,6.51,22l-2.18,37.05A267.74,267.74,0,0,1,20.24,337.68Zm18-164.13,19.55,7.06c6.56,2.37,15.52-4.05,19-10.1L89.12,149V97.93a269.58,269.58,0,0,0-50.91,75.62Zm75.25,38.07c7.84,1.53,14,0,19.24-3.44.07-1.83.26-3.66.37-5.34,0-.63.09-1.26.15-1.86a39.64,39.64,0,0,0-14.71.38q-2.66,5-5.05,10.26Zm19.85,2.6c-5.47,3.29-13.89,3.93-22.27,2.86a222.17,222.17,0,0,0-13.58,44.18V442.89h67.8a29,29,0,0,1,22.28-24.48c11.06-14,17.59-33.88,17.84-49.69a40.09,40.09,0,0,1,.41-6.86,23.14,23.14,0,0,1,3.16-7.7c6.68-10.94,12.32-24.69,19.73-39.09H216.05c4.36-26.77,5.85-26,11-38.73,3.86-9.53,13.15-14.95,13.94-24.1.87-10-6.8-19.93-12.28-27.87a113.45,113.45,0,0,1-33.41,3c-18.53-1-20.52-9.41-30.69-10.12-6.2-.44-7.5,3.7-21.8,3-5.9-.28-8.47-2.78-9.51-6.1ZM121,196.67a42.54,42.54,0,0,1,12.81.13c1.16-5.4,3.52-9.19,7.21-9.67,8.58-1.13,7.92,2.75,13.68,2.53,3.85-.15,5.61-1.79,6.84-4.24,7.94-2,15.27-4.7,23.38-5.93,15.64-2.36,24.54-2.07,32-3.64,6.47-1.35,10.77-5.37,16.32-7.24a71.31,71.31,0,0,1,22.95-3.78c-.1-4.33,1.69-6.65,1.39-9.28a17.27,17.27,0,0,1-12.67-3.7,30.72,30.72,0,0,0,11.49-.87,15.85,15.85,0,0,1-1.09-6.41c-9.88.67-26.5-2.34-26.1-11.78.44-10.42,18.32-14.5,27.33-15.69,3.24-10.72,8.76-16.65,15.31-19.16a166.37,166.37,0,0,0-66,16.78c-34,16.47-64.24,45-84.83,81.95Zm99.73,238.84a199.75,199.75,0,0,0,21.11-30.93c6.11-11.34,1.2-22.14,7.15-31.45,5-7.79,16.32-21.75,23.14-32.31,2.93-4.55,5-7.31,9.78,1.63,5.41,10.21,9.1,20.19,13.47,30.47.32,1.21.67,2.41,1,3.61a106.88,106.88,0,0,0,10.3,24.23c5.87,16.63,9.71,23.5,17.57,34.56a32.32,32.32,0,0,0-4.24,7.57H222.76a28.94,28.94,0,0,0-2-7.38Zm69-93.61a67.92,67.92,0,0,0-7.34-11.21c-3.38-4.51-9.18-2.3-10.72,0-11.77,17.47-25.07,28-31.65,38.86-1.39,2.31-2.85,4.16-3.48,6.09-1.4,4.25-.79,7.93-.74,11,.07,4.43.22,8.18-1.93,12.39-4.8,9.37-11.37,17.7-17.16,24.3l-20.1-8.47c14.63-19,16.95-32.2,18.14-43.3.44-4.1-.12-7.91.83-11.3.73-2.63,2.69-4.61,4.79-8.88,6.93-14,12-25.62,16.82-36.28h8.18c4.73-6,9.76-13.66,18.42-16.09,5.37-1.5,9.33,3,14.42,4.89a31,31,0,0,0,9.81,2l.09.05v.69c.07,9.64.25,19.25,1,28.86q.26,3.22.59,6.43Zm-43.72-33.16c4.14-8.05,9.51-14.66,17.4-17.41,4.49-1.57,11.74,6,17,7.73a38.28,38.28,0,0,1-9.18-25.1,38.7,38.7,0,0,1,2.57-13.91l-3.16,2.56-9.88,7.91-1.2-1.13,9.61-11.1c3-3.43.68-5.71-.15-6.34l-20.58-15.42c-2.89-2.16-3.68-6-1.69-8.56,2.17-2.82,6.37-2.4,8.72-.13l18.88,18.25c1.13,1.09,4.29,1.49,5.58-1l8.27-15.64,1.41.64-5.23,14.7a38.66,38.66,0,0,1,25.67-9.71c1,0,1.91,0,2.86.11.93-8.39,4.37-17.34,11.34-20.69l14.44,20.27c1.31,1.83,3.69,1.64,5.51.32l20.14-14.63a3.86,3.86,0,0,0,.38-5.51l-29-29c-18.3,18.47-39.86,25.24-57.9,25.69-21.78.54-44.44-7.76-59.14-30.38l-21.89,2.27c.64,6.38,0,13.38-.56,19.92-.51,5.84-1.92,11.46-2.78,17.24,10.29,1.37,20.9.7,38-4.59,5.7,7.68,16.61,25.29,16.85,38.25.11,5.79-1.29,8.7-6,14.24a58.7,58.7,0,0,0-7.18,10.73c-4.53,8.52-8.46,20.79-9.1,29.37Zm35.46-19.3,4.74-5.29,2.06.16v-.08c.13-7.17.32-14.33.5-21.5l-6.67-5.38a32.46,32.46,0,0,0-.64,32.09Zm44.59-43.73-5.14,7,2.18,8.28H301.38l1.75-9.82-5.9-7a32.53,32.53,0,0,1,28.9,1.58Zm-34.65,18.11,1.45-.17H371v45.87l-.31.89c-8.46-1.45-16.37-12.63-25.87-12.63-9.2,0-19.22,12.53-28.76,12.53-9.23,0-15.88-11.72-25.25-12.49.05-10.83.33-21.11.65-34Zm25-28.16A38.91,38.91,0,0,1,346.7,261h.87c2.52-10.31-.48-15.14-3.37-18.43l-.91.62c-2.46,1.67-4.62.83-6.09-1.05l-12.47-15.86c-2.61,1.34-6.51,3.52-8.23,9.39ZM366.76,261c10.44-16.6,4.73-28.71,1.18-34.57l-20.31,13.81c4.07,5.29,5.95,10.55,3.21,20.76Zm7.39,49.42c8.46-1.46,16.36-12.63,25.86-12.63,9.2,0,19.22,12.53,28.77,12.53,9.38,0,16.09-12.11,25.7-12.52-.2-10.89-.68-21.33-1-34.14H373.83V309.5l.32.91Zm80.38-10.07c-9,.4-15.2,12.27-25.75,12.52-10.74.26-19.82-12.53-29-12.53-7.14,0-15.16,10.53-24.84,12.28l14.24,41,39.79,20L389,393.77l-15.16,43.9v6.61c9.72-3,32.14-9.94,51.51-28.95,16-15.68,28.17-46.45,29.16-97.83.12-6.11.11-11.71,0-17.16ZM370,312.62c-9.68-1.75-17.7-12.29-24.85-12.29-9.21,0-18.29,12.79-29,12.53-10.36-.24-16.56-11.68-25.26-12.48,0,5.24,0,10.66.16,16.61,1,51.38,13.19,81.13,29.15,96.8,19.27,18.92,41.55,26.34,50.89,30.35v-6.45L355.7,393.57l-39.79-20,39.95-20.17L370,312.62Zm1.07,117V317.67l-13,37.64-36.2,18.28,36,18.09L371,429.59Zm2.81-112V429.53l13-37.65L423,373.6l-36-18.09L373.83,317.6Zm-80.92-170a24.52,24.52,0,0,1-7.32-8.5c-1.7-3.1-7.71-.59-5.33,3.56a27.09,27.09,0,0,0,7.51,8.56c-.43.31-.85.63-1.27,1-3,2.53-3.61,8.23-8.07,8.3-4.27.08-5.7-6.52-10.5-9a27.15,27.15,0,0,0,7.59-8.61c2.37-4.15-3.64-6.66-5.34-3.55a23.62,23.62,0,0,1-9.14,9.64,12,12,0,0,1-4.88-1.08,9,9,0,0,1-.35-3.58c4.31-4.72,3.55-9.6.44-14.09-.79-1.14-.76-2.3.45-2.78,3.82-1.53,7.87-3,12.32-3.1,4.75-.14,6.44,2.37,9.6,2.34,4.42-.05,5.11-3.56,12.52-2.59,3.14.41,7.57,2.15,8.28,5.24a18.44,18.44,0,0,1-6.51,18.24ZM288.21,129a3.49,3.49,0,1,1-3.49,3.49,3.5,3.5,0,0,1,3.49-3.49Zm-18.28.26a3.49,3.49,0,1,1-3.49,3.49,3.48,3.48,0,0,1,3.49-3.49Zm-81.48,55.58c-6.33,1.36-12.16,3.41-19.4,5.08-1.87,4.62-5.89,5.57-12.8,1.64-2.67-.07-6.14-1.8-9.37,1.65-1.75,1.88-2.4,4.1-3.29,7.35a18.68,18.68,0,0,0,2.79,11.27c2.21,4,4.85,3.42,8.18,1.13,2.24-1.54,5-3.18,8.67-2.9,5.72.43,9.74,5.2,14.32,6.49a4.38,4.38,0,0,1,3.18-3.82,14.55,14.55,0,0,1,4.58-.7c1.4,0-.66-9.34-.44-12.3a44.51,44.51,0,0,1,3.58-14.89ZM227,178.38c9.73,18.63,30.79,27.18,48.28,27.18,17.23,0,39.34-7.43,54.21-26-3.2-2.86-4.29-4.59-7.7-7.2-6.88-5.24-13.21-6.37-18.84-2.4-14.66,10.34-34.46,12.11-48.53-.76A120.67,120.67,0,0,0,242,172.24c-2.69.75-5.28,1.34-7.79,2.18s-4.73,2.78-7.19,4Zm51.31-11.56c-4.62-.21-5.85-4.43-11.31-5.31-1.65-.26-4.91.31-2.59,4.75,1.94,3.72,2.85,5.18,6.82,6.56,2.69.93,5-1.47,7.21-1.64,2.33-.18,4,1.25,6.18.95,3.36-.45,8.38-2.95,9-6.32.5-2.82-2.38-4.51-5.24-4.36-3.55.19-5.74,5.57-10.05,5.37Zm17.54-50.69c-2.71-9.07-8.73-13.45-15.45-13.38-6.88.07-12.52,3.63-15.52,13.45a189.53,189.53,0,0,1,31-.07ZM463,83.54l-62.18,6.51c6.24,19.15,12.23,39.79,15,60.68C375,111.65,328.81,90.59,279.67,90.64c-52,0-90.86,19-120.5,44.45-30.4,26.07-50.64,59.78-61.71,84V89.58a268.63,268.63,0,0,1,365.49-6Z" style="fill:#1a171b;fill-rule:evenodd"/><polygon points="84.18 315.66 31.35 315.66 31.35 275.28 40.95 275.28 40.95 303.49 53.06 303.49 53.06 281.76 63.01 281.76 63.01 303.49 84.18 303.49 84.18 315.66 84.18 315.66" style="fill:#1a171b"/><path d="M82.54,219.59c1.78,3.95,2.36,11.16,2.36,16.67,0,15.86-10.3,26.76-26.7,26.88s-27.71-11.69-27.71-28.67a47.64,47.64,0,0,1,2.25-14.87l9.56,2.28a28.37,28.37,0,0,0-2.2,11.81c0,11.66,9.4,16.46,18.17,16.33s16.57-5.46,16.57-15.79a48.38,48.38,0,0,0-1.78-12.35l9.48-2.29Z" style="fill:#1a171b"/><path d="M202.06,35.82l-12.71,4.9,14.25,37c1.06,2.74,2.54,9.12-5.9,12.37a15.54,15.54,0,0,1-6.6,1.28L193,102.4A49.09,49.09,0,0,0,206.29,99c9.73-4.32,15-13.26,9.94-26.35L202.06,35.82Z" style="fill:#1a171b"/><path d="M283.72,24.17h-18L246.8,83.22h13.78l4.53-15.44h18.24L288,83.22h14.64l-18.93-59ZM267.47,57.56l7-23.64,6.41,23.64Z" style="fill:#1a171b"/><path d="M125,77.7l-14,11.23L133,146.87l10.76-8.6-6.11-14.89L151.92,112l13.28,9.15L176.64,112,125,77.7Zm8.16,36.22-9.32-22.81,19.77,14.47-10.45,8.34Z" style="fill:#1a171b"/><polygon points="366.1 72.08 393.77 51.67 379.1 45.55 361.72 62.02 360.7 37.89 346.42 31.94 350.56 65.86 322.88 86.5 337.46 92.58 355.12 76.4 356.75 100.62 371.51 106.77 366.1 72.08 366.1 72.08" style="fill:#1a171b"/><polygon points="196.51 530.27 208.81 485.95 217.78 488.47 207.57 525.25 229.89 531.51 227.8 539.05 196.51 530.27 196.51 530.27" style="fill:#1a171b"/><path d="M281.43,543.31,271.29,543l-3.67-10.68-18.45-.64L245,542l-9.89-.35L254.66,496l9.85.35,16.92,47Zm-16.54-18.94-5.78-17.43-6.81,17,12.59.45Z" style="fill:#1a171b"/><path d="M288.23,528.42l8.86-2.15q1.44,4.44,4.23,6.22a10,10,0,0,0,7,1.18q4.45-.63,6.45-2.85a5.7,5.7,0,0,0,1.64-4.75,4.16,4.16,0,0,0-1.34-2.63,7.47,7.47,0,0,0-3.6-1.53c-1.13-.23-3.69-.54-7.67-1q-7.68-.8-11-3.08a12.2,12.2,0,0,1-4.45-15.49,12.67,12.67,0,0,1,5.06-5.46,23.05,23.05,0,0,1,8.77-2.86c5.74-.82,10.23-.16,13.49,1.95a13.57,13.57,0,0,1,6,9.49l-9.17,1.71a7.94,7.94,0,0,0-3.25-4.74q-2.18-1.28-6.06-.72A10.52,10.52,0,0,0,297,504.3a3.35,3.35,0,0,0-1.07,3.05,3.58,3.58,0,0,0,1.76,2.6q1.95,1.23,8.91,1.87a45,45,0,0,1,10.42,1.9,13,13,0,0,1,5.71,4,13.89,13.89,0,0,1,2.85,7.06,13.68,13.68,0,0,1-1.15,7.69,13.22,13.22,0,0,1-5.46,6,25.88,25.88,0,0,1-9.71,3.08q-8.67,1.23-13.88-2.14t-7.19-11Z" style="fill:#1a171b"/><polygon points="339.37 535.55 324.98 491.47 333.59 488.62 361.16 512.14 351.54 482.7 359.77 479.99 374.17 524.07 365.28 527 338.21 504.08 347.6 532.83 339.37 535.55 339.37 535.55" style="fill:#1a171b"/><path d="M424.64,498.39l-8.9,4.9-8.57-7.3L391,504.9,392.69,516,384,520.75l-6.41-49.37,8.64-4.75,38.39,31.76Zm-23.82-7.81-13.81-12,2.76,18.11,11.05-6.08Z" style="fill:#1a171b"/><polygon points="433.16 492.56 403.81 456.76 414.57 447.84 441.06 466.91 427.42 437.2 438.21 428.26 467.56 464.06 460.89 469.59 437.78 441.41 453.81 475.45 446.89 481.19 416.73 458.85 439.84 487.03 433.16 492.56 433.16 492.56" style="fill:#1a171b"/><path d="M503.82,420.84l-6.41,7.9-10.67-3.51-11.66,14.39,5.73,9.62L474.56,457l-24.42-43.3,6.22-7.68,47.46,14.87Zm-25,1.79-17.3-5.9,9.34,15.72,8-9.82Zm-34.48-6-5.88-4.81,4.79-5.92,5.88,4.81-4.79,5.92ZM452.9,406,447,401.23l4.82-5.94,5.88,4.81L452.9,406Z" style="fill:#1a171b"/><polygon points="508.96 410.57 467.35 390.5 482.15 359.49 489.19 362.89 478.42 385.45 487.65 389.9 497.67 368.91 504.68 372.29 494.65 393.28 505.98 398.75 517.13 375.39 524.15 378.77 508.96 410.57 508.96 410.57" style="fill:#1a171b"/><path d="M395.24,227.43V250.5h-5.87V238.13a21,21,0,0,0-.13-3.22,1.21,1.21,0,0,0-.72-.82,7.42,7.42,0,0,0-2.62-.28h-.58v-2.69a10.79,10.79,0,0,0,6.47-3.69Z" style="fill:#1a171b"/><path d="M400.5,244.37h5.88c0,1.08,0,1.75,0,2a1.09,1.09,0,0,0,.36.71,1.21,1.21,0,0,0,.85.28,1,1,0,0,0,.74-.27,1.08,1.08,0,0,0,.33-.7c0-.28,0-.86,0-1.72V241a2.9,2.9,0,0,1-1.31,1.39,4.54,4.54,0,0,1-2.16.47,4.87,4.87,0,0,1-2.85-.86,3.71,3.71,0,0,1-1.57-2.05,12.19,12.19,0,0,1-.34-3.24V234.9a24.11,24.11,0,0,1,.2-3.61,4.71,4.71,0,0,1,1-2.19,5.28,5.28,0,0,1,2.25-1.56,9.34,9.34,0,0,1,3.35-.55,9.87,9.87,0,0,1,3.86.64,5.26,5.26,0,0,1,3.3,4.37c.09.89.14,2.59.14,5.13v3.21c0,2.75,0,4.58-.12,5.5a5.14,5.14,0,0,1-1,2.63,5.33,5.33,0,0,1-2.42,1.86,10.7,10.7,0,0,1-7.6-.16,4.82,4.82,0,0,1-2.27-2.21,8.24,8.24,0,0,1-.69-3.59Zm5.88-7.19c0,1,.12,1.56.38,1.79a1.18,1.18,0,0,0,.8.34,1,1,0,0,0,.89-.43,3.45,3.45,0,0,0,.28-1.7V233a4.65,4.65,0,0,0-.27-2,.92.92,0,0,0-.89-.48,1.2,1.2,0,0,0-.78.37c-.28.24-.41.89-.41,2v4.32Z" style="fill:#1a171b"/><path d="M419.31,244.37h5.87c0,1.08,0,1.75,0,2a1.09,1.09,0,0,0,.36.71,1.21,1.21,0,0,0,.85.28,1,1,0,0,0,1.07-1c0-.28,0-.86,0-1.72V241a2.86,2.86,0,0,1-1.31,1.39,4.54,4.54,0,0,1-2.16.47,4.89,4.89,0,0,1-2.85-.86,3.71,3.71,0,0,1-1.57-2.05,12.69,12.69,0,0,1-.33-3.24V234.9a24.42,24.42,0,0,1,.19-3.61,4.71,4.71,0,0,1,1-2.19,5.26,5.26,0,0,1,2.26-1.56,9.24,9.24,0,0,1,3.34-.55,9.87,9.87,0,0,1,3.86.64,5.27,5.27,0,0,1,2.35,1.84,5.32,5.32,0,0,1,.95,2.53c.09.89.14,2.59.14,5.13v3.21c0,2.75,0,4.58-.12,5.5a5.05,5.05,0,0,1-1,2.63,5.33,5.33,0,0,1-2.42,1.86,10.7,10.7,0,0,1-7.6-.16A4.76,4.76,0,0,1,420,248a8.09,8.09,0,0,1-.69-3.59Zm5.87-7.19c0,1,.13,1.56.38,1.79a1.18,1.18,0,0,0,.8.34,1,1,0,0,0,.89-.43,3.45,3.45,0,0,0,.28-1.7V233a4.87,4.87,0,0,0-.26-2,1,1,0,0,0-.9-.48,1.22,1.22,0,0,0-.78.37c-.27.24-.41.89-.41,2v4.32Z" style="fill:#1a171b"/><path d="M449.44,237.43a3.68,3.68,0,0,1,2,1.45q.66,1,.66,4.71a11.48,11.48,0,0,1-.64,4.27,4.46,4.46,0,0,1-2.21,2.3,8.93,8.93,0,0,1-4,.79,8.82,8.82,0,0,1-4.38-.91,4.57,4.57,0,0,1-2.1-2.26,14.84,14.84,0,0,1-.5-4.62v-1.82h5.87v3.74a6,6,0,0,0,.19,1.91.8.8,0,0,0,.81.4.86.86,0,0,0,.89-.51,9.2,9.2,0,0,0,.22-2.68v-1.6a4.6,4.6,0,0,0-.3-1.93,1.52,1.52,0,0,0-.9-.81,10.06,10.06,0,0,0-2.32-.22v-3.35a12.6,12.6,0,0,0,2.59-.15,1.11,1.11,0,0,0,.71-.69,4.49,4.49,0,0,0,.22-1.65v-1.28a3.31,3.31,0,0,0-.25-1.6.9.9,0,0,0-.8-.39.87.87,0,0,0-.83.41,4.23,4.23,0,0,0-.23,1.73v1.9h-5.87v-2q0-3.3,1.54-4.46a8.16,8.16,0,0,1,4.9-1.17q4.2,0,5.7,1.61a6.34,6.34,0,0,1,1.5,4.48,5.47,5.47,0,0,1-.54,2.8,4.79,4.79,0,0,1-1.89,1.57Z" style="fill:#1a171b"/></svg>