<svg id="Слой_1" data-name="Слой 1" xmlns="http://www.w3.org/2000/svg" viewBox="0 0 140.4 195.46"><title>Real logo</title><path d="M97.92,56.68A1.48,1.48,0,1,1,99.4,55.2a1.47,1.47,0,0,1-1.48,1.48ZM10.76,125.26A59.44,59.44,0,1,1,70.2,184.7a59.56,59.56,0,0,1-59.44-59.44ZM93.52,34.52a2.65,2.65,0,1,1-3.23,1.91,2.66,2.66,0,0,1,3.23-1.91Zm2.41-5.21a1.48,1.48,0,1,1-1.48,1.48,1.48,1.48,0,0,1,1.48-1.48ZM94.7,24a1.48,1.48,0,1,1-1.47,1.48A1.48,1.48,0,0,1,94.7,24ZM113,38a1.48,1.48,0,1,1-1.47,1.48A1.48,1.48,0,0,1,113,38Zm-1.22-5.27a1.48,1.48,0,1,1-1.48,1.47,1.47,1.47,0,0,1,1.48-1.47Zm-2.2-4.63a1.48,1.48,0,1,1-1.48,1.47,1.47,1.47,0,0,1,1.48-1.47Zm-3.5-4.12a1.48,1.48,0,1,1-1.48,1.48,1.47,1.47,0,0,1,1.48-1.48Zm-4.31-3.13a1.48,1.48,0,1,1-1.48,1.48,1.48,1.48,0,0,1,1.48-1.48ZM97.11,19a1.48,1.48,0,1,1-1.48,1.48A1.48,1.48,0,0,1,97.11,19Zm-4.72.4a1.48,1.48,0,1,1-1.48,1.47,1.47,1.47,0,0,1,1.48-1.47Zm-3.46-4a1.48,1.48,0,1,1-1.48,1.48,1.47,1.47,0,0,1,1.48-1.48Zm-4.53-3a1.48,1.48,0,1,1-1.48,1.48,1.48,1.48,0,0,1,1.48-1.48Zm-4.7-1.75a1.48,1.48,0,1,1-1.48,1.48,1.48,1.48,0,0,1,1.48-1.48ZM74.88,9.8a1.48,1.48,0,1,1-1.48,1.48A1.48,1.48,0,0,1,74.88,9.8ZM29.28,48.64a2.65,2.65,0,1,1,1-3.6,2.65,2.65,0,0,1-1,3.6Zm18.93-9a2.65,2.65,0,1,1,1.9-3.23,2.66,2.66,0,0,1-1.9,3.23Zm22-2.78a2.66,2.66,0,1,1,2.65-2.66,2.66,2.66,0,0,1-2.65,2.66ZM44.47,32.26A1.48,1.48,0,1,1,46,30.79a1.47,1.47,0,0,1-1.48,1.47ZM45.7,27a1.48,1.48,0,1,1,1.47-1.48A1.48,1.48,0,0,1,45.7,27ZM27.43,40.9a1.48,1.48,0,1,1,1.47-1.47,1.47,1.47,0,0,1-1.47,1.47Zm1.22-5.27a1.48,1.48,0,1,1,1.48-1.48,1.48,1.48,0,0,1-1.48,1.48ZM30.85,31a1.48,1.48,0,1,1,1.48-1.48A1.47,1.47,0,0,1,30.85,31Zm3.51-4.12a1.48,1.48,0,1,1,1.47-1.47,1.47,1.47,0,0,1-1.47,1.47Zm4.3-3.12a1.48,1.48,0,1,1,1.48-1.48,1.49,1.49,0,0,1-1.48,1.48Zm4.63-1.82a1.48,1.48,0,1,1,1.48-1.47,1.47,1.47,0,0,1-1.48,1.47Zm4.72.4a1.48,1.48,0,1,1,1.48-1.48A1.47,1.47,0,0,1,48,22.34Zm3.46-4A1.48,1.48,0,1,1,53,16.88a1.47,1.47,0,0,1-1.48,1.47Zm4.53-3a1.48,1.48,0,1,1,1.48-1.47A1.48,1.48,0,0,1,56,15.34Zm4.7-1.74a1.48,1.48,0,1,1,1.48-1.48A1.49,1.49,0,0,1,60.7,13.6Zm9.5,14.45a1.48,1.48,0,1,1,1.48-1.48,1.48,1.48,0,0,1-1.48,1.48Zm0-5.35a1.48,1.48,0,1,1,1.48-1.48A1.48,1.48,0,0,1,70.2,22.7Zm0-5.36a1.48,1.48,0,1,1,1.48-1.47,1.47,1.47,0,0,1-1.48,1.47Zm-4.68-4.59A1.48,1.48,0,1,1,67,11.28a1.47,1.47,0,0,1-1.48,1.47ZM113.68,44a2.65,2.65,0,1,1-3.6,1,2.65,2.65,0,0,1,3.6-1Zm-34,7.75a1.48,1.48,0,1,1,1.48-1.47,1.47,1.47,0,0,1-1.48,1.47Zm-37.2,4.94A1.48,1.48,0,1,1,44,55.2a1.47,1.47,0,0,1-1.48,1.48Zm18.26-4.94a1.48,1.48,0,1,1,1.48-1.47,1.48,1.48,0,0,1-1.48,1.47Z" style="fill:#fff"/><path d="M81.17,41.11a6.53,6.53,0,0,0,1.46,2.14c-1.34-.21-2.7-.38-4.07-.51A6.13,6.13,0,0,0,80.5,41a3,3,0,0,0,.67.08Zm-22,0A3.08,3.08,0,0,0,59.9,41a6.14,6.14,0,0,0,1.94,1.71c-1.37.13-2.73.3-4.07.51a6.2,6.2,0,0,0,1.45-2.14Zm-7.89,3.37c-1.19.27-2.37.58-3.54.91a5.81,5.81,0,0,0,1.15-2.86,5.81,5.81,0,0,0,2.39,1.95ZM37.76,48.91A6.35,6.35,0,0,0,38.52,47l.2,0a3.21,3.21,0,0,0,1-.43,6,6,0,0,0,1.84.84q-1.92.71-3.78,1.5ZM70.2,39.84a5.73,5.73,0,0,0,1.86,2.5l-1.86,0-1.86,0a5.73,5.73,0,0,0,1.86-2.5Zm30.5,6.73a3.21,3.21,0,0,0,1,.43l.2,0a6.35,6.35,0,0,0,.76,1.87q-1.86-.79-3.78-1.5a6.14,6.14,0,0,0,1.84-.84Zm-8.09-1.18c-1.17-.33-2.35-.64-3.54-.91a5.81,5.81,0,0,0,2.39-1.95,5.81,5.81,0,0,0,1.15,2.86ZM97.2,33.84a3.34,3.34,0,0,0,2-2.4A33.71,33.71,0,0,1,104,32.83a11.46,11.46,0,0,1,3.24,2,25.75,25.75,0,0,1,1.49,7.27,4,4,0,0,0-2,2.39c-.58,1.53-.59,3.09,1,4.24a2.63,2.63,0,0,1-2.78-2.78,3.25,3.25,0,0,0,.67-1.29A3.32,3.32,0,0,0,99.28,43a5.81,5.81,0,0,0-.09.58A2.62,2.62,0,0,1,94.54,42c2.78.55,3.95-.85,4.44-2.73.4-1.59.24-3.16-1.57-4.13a3.47,3.47,0,0,0-.21-1.33Z" style="fill:#e42343"/><path d="M50.17,27.28c5.28-2.93,12.19-3.45,17.56-2.66V25a2.88,2.88,0,0,0-.46,1.56,2.92,2.92,0,0,0,1.08,2.27,3.1,3.1,0,0,0-2.08,2.4c-2,.48-2.55,2-2.55,3.6,0,1.94.79,3.59,3.62,3.75a2.62,2.62,0,0,1-5,.06,3,3,0,0,0,.12-.86,3.33,3.33,0,0,0-6.65,0,3.23,3.23,0,0,0,.41,1.58,2.62,2.62,0,0,1-4.84,1.24c2.7-.86,3.05-2.65,2.57-4.54-.41-1.58-1.31-2.88-3.37-2.85a3.18,3.18,0,0,0-1.46-1.5,19.8,19.8,0,0,1,1-4.44Zm22.5-2.66C78,23.83,85,24.35,90.23,27.28a20.36,20.36,0,0,1,1,4.44,3.22,3.22,0,0,0-1.46,1.5c-2.06,0-3,1.27-3.37,2.85C86,38,86.3,39.75,89,40.61a2.62,2.62,0,0,1-4.84-1.24,3.22,3.22,0,0,0,.4-1.58,3.32,3.32,0,0,0-6.64,0,3,3,0,0,0,.12.86,2.62,2.62,0,0,1-5-.06c2.83-.16,3.61-1.81,3.61-3.75,0-1.64-.54-3.12-2.54-3.6a3.1,3.1,0,0,0-2.08-2.4,2.92,2.92,0,0,0,1.08-2.27A2.88,2.88,0,0,0,72.67,25v-.39ZM36.4,32.83a35.48,35.48,0,0,1,4.83-1.4,3.33,3.33,0,0,0,2,2.41A3.47,3.47,0,0,0,43,35.17c-1.81,1-2,2.54-1.56,4.13.48,1.88,1.65,3.28,4.43,2.73a2.62,2.62,0,0,1-4.65,1.51,3.88,3.88,0,0,0-.09-.58,3.32,3.32,0,0,0-6.44,1.65,3.36,3.36,0,0,0,.67,1.3,2.62,2.62,0,0,1-2.78,2.77c1.64-1.15,1.63-2.71,1-4.24a4,4,0,0,0-1.95-2.39,26,26,0,0,1,1.48-7.26,11.17,11.17,0,0,1,3.25-2Zm38.52,17L70.2,51.55l-4.72-1.76L70.2,48l4.72,1.76ZM39.37,56.18,39,57.83l-.15.63-.35-.2L36.9,57.4l.42-1.58.08-.35.54.19,1.43.52Zm61.66,0,2-.75.08.35.4,1.62-1.56.86-.32.18-.17-.61L101,56.18Z" style="fill:#e42343"/><path d="M8.84,121.42c-.08,1.28-.12,2.55-.12,3.84a61.48,61.48,0,0,0,123,0q0-1.94-.12-3.84h6.7c.07,1.28.1,2.55.1,3.84A68.16,68.16,0,0,1,2,125.26c0-1.29,0-2.56.1-3.83Zm12.56,0c-.09,1-.15,2-.19,3.07A44,44,0,0,0,32.7,154.76l-5.33,5.44A53.09,53.09,0,0,1,14.23,125c0-1.21,0-2.42.12-3.61Zm19.15,0c-.11,1-.17,1.94-.19,2.93C40.08,138.18,49,147.83,61.61,152V124.21H80.79v5.72H69v7.44H80.64v6.53H69v9.38c8.6.45,17.74-4.53,23.32-10.71l5.74,5.81c-7.34,8.51-17.93,12.83-29.06,12.9v8.57H61.61v-9.47c-17-4.22-29.2-19.07-29-36.81,0-.72,0-1.44.09-2.15Zm85.35,0c.08,1.2.12,2.4.12,3.62a55.29,55.29,0,0,1-12.87,35.6l-6.1-6.1c6.86-8.37,11.33-16.71,11.33-30,0-1,0-2.06-.12-3.1Z" style="fill:#fcc000"/><path d="M2.14,121.42a68.16,68.16,0,0,1,136.12,0h-6.7a61.48,61.48,0,0,0-122.72,0Zm12.21,0a56.19,56.19,0,0,1,28-44.85L55.59,90.39a40.53,40.53,0,0,1,14.6-2.77,39.22,39.22,0,0,1,14,2.76l.46-.47L97.73,76.42a56,56,0,0,1,28.17,45h-7.64c-1-13.4-8.18-27.63-19.21-35.26l-7.85,8a37.59,37.59,0,0,1,9.91,10.32l-6,5.18a28.8,28.8,0,0,0-9.39-9.78L70.12,116.4,53.92,99.69c-7.6,5.3-12.36,12.66-13.37,21.73H32.73c.84-11.2,7.09-20.41,15.94-27.08l-8-8.23C29.19,95.54,22.65,106.9,21.4,121.42Zm78.26-76a5.81,5.81,0,0,1-1.15-2.86,5.81,5.81,0,0,1-2.39,1.95c1.19.27,2.37.58,3.54.91Zm8.09,1.18a6.14,6.14,0,0,1-1.84.84q1.92.71,3.78,1.5a6.35,6.35,0,0,1-.76-1.87l-.2,0a3.21,3.21,0,0,1-1-.43ZM70.2,39.84a5.73,5.73,0,0,1-1.86,2.5l1.86,0,1.86,0a5.73,5.73,0,0,1-1.86-2.5ZM37.76,48.91q1.86-.79,3.78-1.5a6,6,0,0,1-1.84-.84,3.21,3.21,0,0,1-1,.43l-.2,0a6.35,6.35,0,0,1-.76,1.87Zm13.57-4.43a5.81,5.81,0,0,1-2.39-1.95,5.81,5.81,0,0,1-1.15,2.86c1.17-.33,2.35-.64,3.54-.91Zm7.89-3.37a6.2,6.2,0,0,1-1.45,2.14c1.34-.21,2.7-.38,4.07-.51A6.14,6.14,0,0,1,59.9,41a3.08,3.08,0,0,1-.68.08Zm22,0A3,3,0,0,1,80.5,41a6.13,6.13,0,0,1-1.94,1.71c1.37.13,2.73.3,4.07.51a6.16,6.16,0,0,1-1.39-2l-.07-.14ZM113.68,44a2.65,2.65,0,1,0,1,3.6,2.64,2.64,0,0,0-1-3.6ZM93.52,34.52a2.65,2.65,0,1,0,1.91,3.23,2.65,2.65,0,0,0-1.91-3.23Zm2.41-5.21a1.48,1.48,0,1,0,1.48,1.48,1.48,1.48,0,0,0-1.48-1.48ZM94.7,24a1.48,1.48,0,1,0,1.48,1.48A1.47,1.47,0,0,0,94.7,24ZM113,38a1.48,1.48,0,1,0,1.48,1.48A1.47,1.47,0,0,0,113,38Zm-1.22-5.27a1.48,1.48,0,1,0,1.48,1.47,1.47,1.47,0,0,0-1.48-1.47Zm-2.2-4.63A1.48,1.48,0,1,0,111,29.52a1.47,1.47,0,0,0-1.47-1.47Zm-3.5-4.12a1.48,1.48,0,1,0,1.47,1.48,1.48,1.48,0,0,0-1.47-1.48Zm-4.31-3.13a1.48,1.48,0,1,0,1.48,1.48,1.48,1.48,0,0,0-1.48-1.48ZM97.11,19a1.48,1.48,0,1,0,1.48,1.48A1.48,1.48,0,0,0,97.11,19Zm-4.72.4a1.48,1.48,0,1,0,1.47,1.47,1.47,1.47,0,0,0-1.47-1.47Zm-3.46-4a1.48,1.48,0,1,0,1.47,1.48,1.48,1.48,0,0,0-1.47-1.48Zm-4.53-3a1.48,1.48,0,1,0,1.48,1.48,1.48,1.48,0,0,0-1.48-1.48Zm-4.7-1.75a1.48,1.48,0,1,0,1.48,1.48,1.48,1.48,0,0,0-1.48-1.48ZM74.88,9.8a1.48,1.48,0,1,0,1.48,1.48A1.48,1.48,0,0,0,74.88,9.8ZM29.28,48.64a2.65,2.65,0,1,0-3.61-1,2.65,2.65,0,0,0,3.61,1Zm18.93-9A2.65,2.65,0,1,0,45,37.75a2.65,2.65,0,0,0,3.24,1.91Zm22-2.78a2.66,2.66,0,1,0-2.65-2.66,2.65,2.65,0,0,0,2.65,2.66ZM44.47,32.26A1.48,1.48,0,1,0,43,30.79a1.47,1.47,0,0,0,1.47,1.47ZM45.7,27a1.48,1.48,0,1,0-1.48-1.48A1.48,1.48,0,0,0,45.7,27ZM27.43,40.9A1.48,1.48,0,1,0,26,39.43a1.47,1.47,0,0,0,1.48,1.47Zm1.22-5.27a1.48,1.48,0,1,0-1.48-1.48,1.48,1.48,0,0,0,1.48,1.48ZM30.85,31a1.48,1.48,0,1,0-1.47-1.48A1.48,1.48,0,0,0,30.85,31Zm3.51-4.12a1.48,1.48,0,1,0-1.48-1.47,1.47,1.47,0,0,0,1.48,1.47Zm4.3-3.12a1.48,1.48,0,1,0-1.48-1.48,1.48,1.48,0,0,0,1.48,1.48Zm4.63-1.82a1.48,1.48,0,1,0-1.47-1.47,1.47,1.47,0,0,0,1.47,1.47Zm4.72.4a1.48,1.48,0,1,0-1.47-1.48A1.48,1.48,0,0,0,48,22.34Zm3.46-4A1.48,1.48,0,1,0,50,16.88a1.47,1.47,0,0,0,1.47,1.47Zm4.53-3a1.48,1.48,0,1,0-1.48-1.47A1.47,1.47,0,0,0,56,15.34Zm4.7-1.74a1.48,1.48,0,1,0-1.48-1.48A1.48,1.48,0,0,0,60.7,13.6Zm9.5,14.45a1.48,1.48,0,1,0-1.48-1.48,1.48,1.48,0,0,0,1.48,1.48Zm0-5.35a1.48,1.48,0,1,0-1.48-1.48A1.48,1.48,0,0,0,70.2,22.7Zm0-5.36a1.48,1.48,0,1,0-1.48-1.47,1.47,1.47,0,0,0,1.48,1.47Zm-4.68-4.59A1.48,1.48,0,1,0,64,11.28a1.48,1.48,0,0,0,1.48,1.47ZM106.1,48.91a3.64,3.64,0,0,0,3.38,0c-2-1-3-1.88-2.11-4.19a3.08,3.08,0,0,1,2-2.18c-.7-9-3.22-13.37-11.44-17.47l-.59.17c0,.11,0,.21,0,.32A3,3,0,0,1,95.81,28c1.47.31,2.79,1,2.79,2.76a2.75,2.75,0,0,1-2.27,2.67,3.17,3.17,0,0,1,.42,2.1c1.68.8,2.06,1.86,1.61,3.58-.62,2.43-2.09,2.68-4.41,2.1-.34,3.79,3.82,5.24,5.86,2.53a3,3,0,0,1,.09-.66,2.69,2.69,0,0,1,5.21,1.34,2.71,2.71,0,0,1-.67,1.19,3.27,3.27,0,0,0,1.66,3.27Zm-38.2-33c0-.2,0-.4,0-.6-10.74-.78-18.43,6.53-19.48,16.85a2.79,2.79,0,0,1,1.75,1.75c1.85-.11,2.69.64,3.14,2.36.62,2.43-.55,3.36-2.86,4a3.31,3.31,0,0,0,3.93,2.18,3.25,3.25,0,0,0,2.44-3.17,2.72,2.72,0,0,1-.4-1.42,2.69,2.69,0,1,1,5.37,0,2.77,2.77,0,0,1-.14.86,3.26,3.26,0,0,0,3.14,2.41A3.31,3.31,0,0,0,68.11,38c-2.39,0-3.75-.62-3.75-3.13,0-1.78.63-2.71,2.45-3.07.41-2.22,1.53-2.36,3.39-2.66,1.85.3,3,.44,3.39,2.66,1.82.36,2.45,1.29,2.45,3.07C76,37.35,74.68,38,72.29,38a3.3,3.3,0,0,0,3.26,3.09,3.26,3.26,0,0,0,3.15-2.41,2.78,2.78,0,0,1-.15-.86,2.69,2.69,0,1,1,5,1.42A3.24,3.24,0,0,0,86,42.38,3.31,3.31,0,0,0,89.9,40.2c-2.31-.61-3.48-1.54-2.85-4,.44-1.72,1.28-2.47,3.13-2.36a2.79,2.79,0,0,1,1.75-1.75c-1.05-10.33-8.74-17.63-19.49-16.85,0,.2.06.4.06.6A2.28,2.28,0,0,1,72,17.24v2.6a2.3,2.3,0,0,1,0,2.76l.06,2.68a2.29,2.29,0,0,1,.4,1.29c0,1.54-1.14,2-2.3,2.52-1.16-.51-2.3-1-2.3-2.52a2.35,2.35,0,0,1,.46-1.37V22.6a2.3,2.3,0,0,1,0-2.76v-2.6a2.35,2.35,0,0,1-.46-1.37ZM33,44.66c.88,2.32-.13,3.21-2.11,4.2a3.64,3.64,0,0,0,3.38,0A3.27,3.27,0,0,0,36,45.64a2.68,2.68,0,0,1,1.27-4.46,2.68,2.68,0,0,1,3.27,1.93,3,3,0,0,1,.09.66c2,2.71,6.21,1.26,5.86-2.53-2.32.58-3.79.33-4.41-2.1-.44-1.72-.07-2.78,1.61-3.58a3.17,3.17,0,0,1,.42-2.1,2.75,2.75,0,0,1-2.27-2.67c0-1.78,1.32-2.45,2.79-2.76A3,3,0,0,1,43,25.51c0-.11,0-.22-.6-.44C34.05,29.21,31.72,33.36,31,42.49a3.08,3.08,0,0,1,2,2.17Zm71.05,8.57a79.73,79.73,0,0,0-67.71,0,1.31,1.31,0,0,1-1.76-.68c-.33-.69,0-1.21.31-1.82-2.1.65-3.65.65-5.48-.76-3.38,2.28-7.27-2.42-4.72-4.56-1.2-1.56-1.21-3.25.55-4.37a3,3,0,0,1-.51-1.6c0-1.77,1.31-2.45,2.78-2.76A3,3,0,0,1,26,34.15c0-1.81,1.4-2.56,2.94-2.71a3.12,3.12,0,0,1-.74-1.92,2.68,2.68,0,0,1,2.67-2.67,5.14,5.14,0,0,1,1.35.27,3.83,3.83,0,0,1-.52-1.71,2.68,2.68,0,0,1,2.68-2.68,3.67,3.67,0,0,1,1.76.57,6.77,6.77,0,0,1-.13-1,2.68,2.68,0,0,1,2.67-2.68,3.06,3.06,0,0,1,1.92.76c.31-1.4,1.09-2.57,2.71-2.57a2.79,2.79,0,0,1,2.47,1.58A2.85,2.85,0,0,1,48,18.19a4.79,4.79,0,0,1,1.19.21,3.86,3.86,0,0,1-.4-1.52,2.68,2.68,0,0,1,2.67-2.68,3.53,3.53,0,0,1,2,.78,6.6,6.6,0,0,1-.16-1.11A2.67,2.67,0,0,1,56,11.19,3.08,3.08,0,0,1,58,12c.31-1.4,1.08-2.57,2.71-2.57a2.88,2.88,0,0,1,2.21,1.1,2.79,2.79,0,0,1,2.61-1.94,3.23,3.23,0,0,1,1.07.21,4.79,4.79,0,0,1,2.72-1.66V4.32H67.06V2.66h2.25v-2h1.78v2h2.26V4.32H71.09V7.16a4.85,4.85,0,0,1,2.72,1.66,3.23,3.23,0,0,1,1.07-.21,2.79,2.79,0,0,1,2.61,1.94,2.91,2.91,0,0,1,2.21-1.1c1.63,0,2.4,1.17,2.71,2.57a3.06,3.06,0,0,1,2-.83,2.67,2.67,0,0,1,2.67,2.68A6.74,6.74,0,0,1,86.92,15a3.51,3.51,0,0,1,2-.78,2.68,2.68,0,0,1,2.67,2.68,3.86,3.86,0,0,1-.4,1.52,5.3,5.3,0,0,1,1.19-.21,2.87,2.87,0,0,1,2.25,1.18,2.79,2.79,0,0,1,2.47-1.58c1.62,0,2.41,1.17,2.71,2.57a3.06,3.06,0,0,1,1.92-.76,2.68,2.68,0,0,1,2.67,2.68,7.23,7.23,0,0,1-.12,1,3.45,3.45,0,0,1,1.76-.58,2.68,2.68,0,0,1,2.67,2.68,3.83,3.83,0,0,1-.52,1.71,5.14,5.14,0,0,1,1.35-.27,2.68,2.68,0,0,1,2.67,2.67,3.12,3.12,0,0,1-.74,1.92c1.54.15,2.94.91,2.94,2.71a3,3,0,0,1-1.56,2.52c1.47.31,2.79,1,2.79,2.76a2.93,2.93,0,0,1-.52,1.6c1.76,1.12,1.75,2.81.55,4.37,1.53,1.29.74,3.29-.57,4.31A3.21,3.21,0,0,1,111,50c-1.83,1.4-3.38,1.41-5.48.76l.31.65a1.36,1.36,0,0,1-1.71,1.86ZM39.87,55.92l-2.18-.81-.17-.35a1.12,1.12,0,0,1-.44.13.4.4,0,0,1-.26-.75,78.6,78.6,0,0,1,66.76,0,.4.4,0,0,1-.26.75,1.32,1.32,0,0,1-.44-.13l-.17.36-2.18.8.64,2.51-.2.43c1.16.55.35,1.36-.12,1.14a72.28,72.28,0,0,0-61.3,0,.5.5,0,0,1-.66-.29.5.5,0,0,1,.18-.65,2.53,2.53,0,0,1,.36-.2l-.2-.42.64-2.52ZM52,54.07l4.66-3.25L51,50.22l-4.67,3.25,5.66.6Zm45.93,3A1.9,1.9,0,1,0,96,55.2a1.89,1.89,0,0,0,1.89,1.9ZM60.73,52.17a1.9,1.9,0,1,0-1.9-1.9,1.9,1.9,0,0,0,1.9,1.9ZM42.47,57.1a1.9,1.9,0,1,0-1.89-1.9,1.9,1.9,0,0,0,1.89,1.9Zm37.2-4.93a1.9,1.9,0,1,0-1.9-1.9,1.9,1.9,0,0,0,1.9,1.9Zm8.74,1.9,5.66-.6L89.4,50.22l-5.65.6,4.66,3.25ZM76.14,49.79,70.2,47.58l-5.93,2.21L70.2,52l5.94-2.21ZM61.25,96.29l8.89,9.08,8.33-8.81a38,38,0,0,0-8.75-1.44,32.41,32.41,0,0,0-8.47,1.17Z" style="fill:#fcc000"/><path d="M34.57,51.46a1.37,1.37,0,0,0,1.8,1.76c1.32-.63,2.66-1.21,4-1.76h2.85c-2.18.8-4.32,1.7-6.42,2.68a.4.4,0,0,0,.26.75,1.12,1.12,0,0,0,.44-.13l.17.35,2.18.81-.64,2.52.2.42a2.53,2.53,0,0,0-.36.2.5.5,0,0,0-.18.65.5.5,0,0,0,.66.29,72.28,72.28,0,0,1,61.3,0c.47.22,1.28-.59.12-1.14l.2-.43-.64-2.51,2.18-.8.17-.36a1.32,1.32,0,0,0,.44.13.4.4,0,0,0,.26-.75c-2.1-1-4.24-1.88-6.42-2.68h2.89c1.36.56,2.71,1.15,4,1.77a1.36,1.36,0,0,0,1.75-1.77h3.77a5.88,5.88,0,0,1-3.06.22,2,2,0,0,1-2.27,2.26,1.1,1.1,0,0,1-.79,1.62l.5,2-2,1.14a1.17,1.17,0,0,1,.14,1.22,1.13,1.13,0,0,1-1.5.6,71.65,71.65,0,0,0-60.76,0,1.13,1.13,0,0,1-1.5-.6,1.19,1.19,0,0,1,.14-1.22l-2-1.14.5-2A1.1,1.1,0,0,1,36.13,54,2,2,0,0,1,34,52.81a2,2,0,0,1-.17-1.13,5.78,5.78,0,0,1-3.06-.23Zm21.16,0L52,54.07l-5.66-.6,2.89-2Zm4.14,0a1.43,1.43,0,0,0,.86.28,1.49,1.49,0,0,0,.86-.27h.62a1.9,1.9,0,0,1-3,0Zm10.09,0,.24.09.24-.09h1.21L70.2,52l-1.45-.54Zm8.85,0a1.43,1.43,0,0,0,.86.28,1.49,1.49,0,0,0,.86-.27h.62a1.9,1.9,0,0,1-3,0Zm12.37,0,2.89,2-5.66.6-3.74-2.61Zm49.22,73.8A70.2,70.2,0,1,1,70.2,55a70.34,70.34,0,0,1,70.2,70.27Zm-2,0A68.16,68.16,0,1,0,70.2,193.42a68.31,68.31,0,0,0,68.16-68.16Zm-127.6,0A59.44,59.44,0,1,0,70.2,65.82a59.6,59.6,0,0,0-59.44,59.44Zm-2,0A61.48,61.48,0,1,1,70.2,186.74,61.6,61.6,0,0,1,8.72,125.26Zm68.67-13.58L110.65,146c3.78-6.25,5.69-12.66,5.69-21.47,0-15.41-8.66-29.46-17-35.69l-5,5.13a38.6,38.6,0,0,1,9.47,11l-9.24,8A26.64,26.64,0,0,0,86,102.58l-8.61,9.1Zm42.14,43.47a56.89,56.89,0,0,1-25.95,23l-5.39-5.51L78.13,162.41a39.17,39.17,0,0,1-7.06.88v8.59H59.57V162a39.6,39.6,0,0,1-29-38.42A35.21,35.21,0,0,1,31.75,115l-5.67-5.76a50,50,0,0,0-2.83,15.27,41.49,41.49,0,0,0,12.33,30.17l-8.28,8.47c-9.76-11-15.1-23.3-15.1-38.15,0-21.67,11.88-40.58,30.55-51L56.13,88a42.79,42.79,0,0,1,14.08-2.41A41,41,0,0,1,83.74,88L97.36,73.88c18.83,10.44,30.69,29.36,30.69,51.16a56.22,56.22,0,0,1-8.52,30.11Zm-60-11.68L42.41,126c.4,9.82,6.39,19.05,17.16,23.2v-5.7ZM84.66,89.91l-.46.47a39.22,39.22,0,0,0-14-2.76,40.53,40.53,0,0,0-14.6,2.77L42.37,76.57A56.14,56.14,0,0,0,14.23,125,53.09,53.09,0,0,0,27.37,160.2l5.33-5.44a44,44,0,0,1-11.49-30.27c.56-16,7.18-28.29,19.51-38.38l8,8.23c-9.41,7.1-15.88,17.06-16,29.23-.23,17.74,12,32.59,29,36.81v9.47H69v-8.57c11.13-.07,21.72-4.39,29.06-12.9l-5.74-5.81c-5.58,6.18-14.72,11.16-23.32,10.71V143.9H80.64v-6.53H69v-7.44H80.79v-5.72H61.61V152c-12.57-4.2-21.53-13.85-21.25-27.68.22-10.42,5.16-18.8,13.56-24.66l16.2,16.71,15.6-16.49a28.8,28.8,0,0,1,9.39,9.78l6-5.18A37.59,37.59,0,0,0,91.2,94.19l7.85-8c11.88,8.23,19.33,24.11,19.33,38.36,0,13.31-4.47,21.65-11.33,30l6.1,6.1A55.29,55.29,0,0,0,126,125,56,56,0,0,0,97.73,76.42L84.66,89.91ZM61.25,96.29a32.41,32.41,0,0,1,8.47-1.17,38,38,0,0,1,8.75,1.44l-8.33,8.81-8.89-9.08Zm4,1.23,4.81,4.91,4.49-4.74a31,31,0,0,0-5-.53,22.14,22.14,0,0,0-4.34.36ZM101,56.18l.42,1.65.17.61.32-.18,1.56-.86-.4-1.62-.08-.35-2,.75Zm-61.66,0-1.43-.52-.54-.19-.08.35L36.9,57.4l1.55.86.35.2.15-.63.42-1.65Zm3.1.5A1.48,1.48,0,1,0,41,55.2a1.48,1.48,0,0,0,1.47,1.48Zm0,.42a1.9,1.9,0,1,1,1.91-1.9,1.9,1.9,0,0,1-1.91,1.9Zm55.45-.42a1.48,1.48,0,1,0-1.47-1.48,1.48,1.48,0,0,0,1.47,1.48Zm0,.42a1.9,1.9,0,1,1,1.9-1.9,1.9,1.9,0,0,1-1.9,1.9Z" style="fill:#004b95"/><path d="M26.32,35.46a4.84,4.84,0,0,0,1.22,1.21c-1.47.31-2.78,1-2.78,2.76a3,3,0,0,0,.51,1.6c-1.76,1.12-1.75,2.81-.55,4.37-2.55,2.14,1.34,6.84,4.72,4.56,1.83,1.41,3.38,1.41,5.48.76a8.09,8.09,0,0,0-.35.74H30.8a5.77,5.77,0,0,1-1.39-.73c-3.6,2.17-7.86-3-5.54-5.42a3.28,3.28,0,0,1,.56-4.48,3.45,3.45,0,0,1-.3-1.4,3.3,3.3,0,0,1,2.07-3.07,3.42,3.42,0,0,1-.59-.9Zm1.64,0a1.49,1.49,0,0,0,1.38,0H30a1.89,1.89,0,0,1-1.38.59,1.86,1.86,0,0,1-1.38-.6Zm4.95,0a27.23,27.23,0,0,0-1.24,6.59,4,4,0,0,1,1.95,2.39c.58,1.53.59,3.09-1,4.24a2.62,2.62,0,0,0,2.78-2.77,3.31,3.31,0,0,1,1.72-5.34,3.32,3.32,0,0,1,4,2.39,3.88,3.88,0,0,1,.09.58A2.62,2.62,0,0,0,45.86,42c-2.78.55-4-.85-4.43-2.73-.37-1.44-.28-2.87,1.1-3.84h1.11a.38.38,0,0,0,0,.1c-1.68.8-2,1.86-1.61,3.58.62,2.43,2.09,2.68,4.41,2.1.35,3.79-3.82,5.24-5.86,2.53a3,3,0,0,0-.09-.66,2.69,2.69,0,0,0-5.21,1.34A2.71,2.71,0,0,0,36,45.64a3.27,3.27,0,0,1-1.66,3.27,3.64,3.64,0,0,1-3.38,0c2-1,3-1.88,2.11-4.2a3.08,3.08,0,0,0-2-2.17,31.66,31.66,0,0,1,1.21-7Zm12.54,0a2.65,2.65,0,1,0,4.66,1,2.57,2.57,0,0,0-.48-1h.52a3.08,3.08,0,1,1-5.22,0Zm8.33,0c.07.2.13.4.19.61.48,1.89.13,3.68-2.57,4.54a2.62,2.62,0,0,0,4.84-1.24,3.23,3.23,0,0,1-.41-1.58,3.33,3.33,0,0,1,1-2.33h1a2.68,2.68,0,0,0-1.35,2.33,2.72,2.72,0,0,0,.4,1.42,3.25,3.25,0,0,1-2.44,3.17A3.31,3.31,0,0,1,50.5,40.2c2.31-.61,3.48-1.54,2.86-4a6.3,6.3,0,0,0-.26-.77Zm7.74,0a3.33,3.33,0,0,1,1,2.33,3,3,0,0,1-.12.86,2.62,2.62,0,0,0,5-.06c-2.52-.14-3.42-1.47-3.59-3.13h.64c.21,2,1.54,2.5,3.72,2.51a3.31,3.31,0,0,1-3.27,3.09,3.26,3.26,0,0,1-3.14-2.41,2.77,2.77,0,0,0,.14-.86,2.68,2.68,0,0,0-1.35-2.33Zm6.33,0a2.65,2.65,0,0,0,4.7,0H73a3.08,3.08,0,0,1-5.64,0Zm8.79,0c-.16,1.66-1.06,3-3.58,3.13a2.62,2.62,0,0,0,5,.06,3,3,0,0,1-.12-.86,3.33,3.33,0,0,1,1-2.33h1a2.69,2.69,0,0,0-1.36,2.33,2.78,2.78,0,0,0,.15.86,3.26,3.26,0,0,1-3.15,2.41A3.3,3.3,0,0,1,72.29,38c2.18,0,3.5-.52,3.72-2.51Zm7,0a3.32,3.32,0,0,1,1,2.33,3.22,3.22,0,0,1-.4,1.58A2.62,2.62,0,0,0,89,40.61c-2.7-.86-3-2.65-2.57-4.54.06-.21.12-.41.19-.61h.68a5,5,0,0,0-.25.77c-.63,2.43.54,3.36,2.85,4A3.31,3.31,0,0,1,86,42.38a3.24,3.24,0,0,1-2.44-3.17,2.72,2.72,0,0,0,.4-1.42,2.68,2.68,0,0,0-1.35-2.33Zm7.16,0a2.46,2.46,0,0,0-.48,1,2.65,2.65,0,1,0,4.66-1h.52a3.08,3.08,0,0,1-3.38,4.61,3.08,3.08,0,0,1-1.84-4.61Zm7.1,0c1.38,1,1.47,2.4,1.11,3.84-.49,1.88-1.66,3.28-4.44,2.73a2.62,2.62,0,0,0,4.65,1.51,5.81,5.81,0,0,1,.09-.58,3.32,3.32,0,0,1,6.44,1.65,3.25,3.25,0,0,1-.67,1.29,2.63,2.63,0,0,0,2.78,2.78c-1.64-1.15-1.63-2.71-1-4.24a4,4,0,0,1,2-2.39,27.42,27.42,0,0,0-1.24-6.59h.66a30.29,30.29,0,0,1,1.24,7,3.08,3.08,0,0,0-2,2.18c-.88,2.31.13,3.21,2.11,4.19a3.64,3.64,0,0,1-3.38,0,3.27,3.27,0,0,1-1.66-3.27,2.68,2.68,0,0,0-1.27-4.46,2.68,2.68,0,0,0-3.27,1.93,3,3,0,0,0-.09.66c-2,2.71-6.2,1.26-5.86-2.53,2.32.58,3.79.33,4.41-2.1.45-1.72.07-2.78-1.61-3.58v-.1Zm13.19,0a1.49,1.49,0,0,0,1.38,0h.69a1.9,1.9,0,0,1-2.76,0Zm3.73,0a3.42,3.42,0,0,1-.59.9A3.28,3.28,0,0,1,116,40.83a3.27,3.27,0,0,1,.57,4.48c1.47,1.53.19,3.94-1,4.9a3.88,3.88,0,0,1-4.51.52,5.74,5.74,0,0,1-1.39.72h-3.77a.36.36,0,0,0,0-.09l-.31-.65c2.1.65,3.65.64,5.48-.76a3.21,3.21,0,0,0,4.15-.25c1.31-1,2.1-3,.57-4.31,1.2-1.56,1.21-3.25-.55-4.37a2.93,2.93,0,0,0,.52-1.6c0-1.77-1.32-2.45-2.79-2.76a4.84,4.84,0,0,0,1.22-1.21Zm-74.4,16a79.8,79.8,0,0,1,59.66,0H97.16a78.73,78.73,0,0,0-53.92,0Zm8.83,0L51,50.22l5.65.6-.92.64Zm10,0a1.9,1.9,0,1,1,3,0h-.62a1.44,1.44,0,0,0,.62-1.19,1.48,1.48,0,1,0-3,0,1.5,1.5,0,0,0,.62,1.2Zm9.5,0-4.48-1.67,5.93-2.21,5.94,2.21-4.49,1.67H70.44l4.48-1.67L70.2,48l-4.72,1.76L70,51.46Zm9.44,0a1.9,1.9,0,1,1,3,0h-.62a1.47,1.47,0,1,0-1.72,0Zm6.48,0-.92-.64,5.65-.6,1.78,1.24Zm15.85-5.53.19-.13a3,3,0,0,0,1.12.59c.19,0,.39.06.58.09a5.68,5.68,0,0,0,1.44,3l-.35.51q-2.94-1.3-6-2.37L97.6,47a5.62,5.62,0,0,0,2.92-1Zm.18.64a6.14,6.14,0,0,1-1.84.84q1.92.71,3.78,1.5a6.35,6.35,0,0,1-.76-1.87l-.2,0a3.21,3.21,0,0,1-1-.43Zm-30.81-8h.62a5.11,5.11,0,0,0,2.85,3.87l-.15.6c-1,0-2-.06-3-.06s-2,0-3,.06l-.15-.6a5.11,5.11,0,0,0,2.85-3.87Zm.31,1.3a5.73,5.73,0,0,1-1.86,2.5l1.86,0,1.86,0a5.73,5.73,0,0,1-1.86-2.5ZM36.9,50l-.35-.51a5.68,5.68,0,0,0,1.44-3,2.93,2.93,0,0,0,1.71-.68A5.61,5.61,0,0,0,42.8,47l.08.62q-3,1.07-6,2.37Zm.86-1.06q1.86-.79,3.78-1.5a6,6,0,0,1-1.84-.84,3.21,3.21,0,0,1-1,.43l-.2,0a6.35,6.35,0,0,1-.76,1.87ZM52.6,44.22v.62q-2.91.63-5.75,1.47l-.29-.54a5.11,5.11,0,0,0,1.75-4.43l.61-.15a5.1,5.1,0,0,0,3.68,3Zm-1.27.26a5.81,5.81,0,0,1-2.39-1.95,5.81,5.81,0,0,1-1.15,2.86c1.17-.33,2.35-.64,3.54-.91Zm5.35-.42-.22-.58a5.56,5.56,0,0,0,2.32-3h.38a3.39,3.39,0,0,0,1-.18,5.61,5.61,0,0,0,3,2.34l-.07.61c-2.16.19-4.31.46-6.42.81Zm2.54-3a6.2,6.2,0,0,1-1.45,2.14c1.34-.21,2.7-.38,4.07-.51A6.14,6.14,0,0,1,59.9,41a3.08,3.08,0,0,1-.68.08ZM77.3,43.25l-.07-.61a5.61,5.61,0,0,0,3-2.34,3.39,3.39,0,0,0,1,.18h.38a5.56,5.56,0,0,0,2.32,3l-.22.58c-2.11-.35-4.26-.62-6.42-.81Zm3.87-2.14A3,3,0,0,1,80.5,41a6.13,6.13,0,0,1-1.94,1.71c1.37.13,2.73.3,4.07.51a6.16,6.16,0,0,1-1.39-2l-.07-.14Zm12.67,4.66-.3.54c-1.88-.56-3.8-1.05-5.74-1.47v-.62a5.1,5.1,0,0,0,3.68-3l.6.15a5.14,5.14,0,0,0,1.76,4.43Zm-1.23-.38a5.81,5.81,0,0,1-1.15-2.86,5.81,5.81,0,0,1-2.39,1.95c1.19.27,2.37.58,3.54.91ZM113,38a1.48,1.48,0,1,0,1.48,1.48A1.47,1.47,0,0,0,113,38Zm0-.42a1.9,1.9,0,1,1-1.9,1.9,1.9,1.9,0,0,1,1.9-1.9ZM29.28,48.64a2.65,2.65,0,1,0-3.61-1,2.65,2.65,0,0,0,3.61,1Zm.2.37a3.08,3.08,0,1,1,1.21-4.18A3.08,3.08,0,0,1,29.48,49ZM27.43,40.9A1.48,1.48,0,1,0,26,39.43a1.47,1.47,0,0,0,1.48,1.47Zm0,.43a1.9,1.9,0,1,1,1.9-1.9,1.9,1.9,0,0,1-1.9,1.9ZM113.68,44a2.65,2.65,0,1,0,1,3.6,2.64,2.64,0,0,0-1-3.6Zm.21-.37a3.08,3.08,0,1,1-4.18,1.21,3.08,3.08,0,0,1,4.18-1.21Z" style="fill:#004b95"/><path d="M25.61,35.46a3.33,3.33,0,0,1,2.26-4.52,3.22,3.22,0,0,1-.32-1.42,3.3,3.3,0,0,1,3.3-3.3h.31a3.18,3.18,0,0,1-.11-.82,3.3,3.3,0,0,1,4.31-3.15A3.31,3.31,0,0,1,38.66,19a3.23,3.23,0,0,1,1.52.38,3.31,3.31,0,0,1,3.11-2.19,3.34,3.34,0,0,1,2.56,1.21A3.27,3.27,0,0,1,48,17.56h.23a3.23,3.23,0,0,1-.07-.69,3.3,3.3,0,0,1,4.53-3.07A3.31,3.31,0,0,1,56,10.56a3.21,3.21,0,0,1,1.6.42,3.31,3.31,0,0,1,5.13-1.47A3.32,3.32,0,0,1,65.52,8a3.51,3.51,0,0,1,.87.12,5.39,5.39,0,0,1,2-1.3l.34-.11V5H66.42V2h2.26V0h3V2H74V5H71.72V6.68l.34.11a5.39,5.39,0,0,1,2,1.3A3.51,3.51,0,0,1,74.88,8a3.32,3.32,0,0,1,2.79,1.54A3.31,3.31,0,0,1,82.8,11a3.21,3.21,0,0,1,1.6-.42,3.3,3.3,0,0,1,3.3,3.25,3.3,3.3,0,0,1,4.53,3.07,3.23,3.23,0,0,1-.07.69h.23a3.27,3.27,0,0,1,2.16.81,3.34,3.34,0,0,1,2.56-1.21,3.31,3.31,0,0,1,3.11,2.19,3.23,3.23,0,0,1,1.52-.38,3.3,3.3,0,0,1,3.3,3.29,3.39,3.39,0,0,1,1-.16,3.31,3.31,0,0,1,3.3,3.31,3.18,3.18,0,0,1-.11.82h.31a3.3,3.3,0,0,1,3.3,3.3,3.36,3.36,0,0,1-.32,1.42,3.33,3.33,0,0,1,2.26,4.52h-.71a2.38,2.38,0,0,0,.34-1.31c0-1.8-1.4-2.56-2.94-2.71a3.12,3.12,0,0,0,.74-1.92,2.68,2.68,0,0,0-2.67-2.67,5.14,5.14,0,0,0-1.35.27,3.83,3.83,0,0,0,.52-1.71,2.68,2.68,0,0,0-2.67-2.68,3.45,3.45,0,0,0-1.76.58,7.23,7.23,0,0,0,.12-1,2.68,2.68,0,0,0-2.67-2.68,3.06,3.06,0,0,0-1.92.76c-.3-1.4-1.09-2.57-2.71-2.57a2.79,2.79,0,0,0-2.47,1.58,2.87,2.87,0,0,0-2.25-1.18,5.3,5.3,0,0,0-1.19.21,3.86,3.86,0,0,0,.4-1.52,2.68,2.68,0,0,0-2.67-2.68,3.51,3.51,0,0,0-2,.78,6.74,6.74,0,0,0,.15-1.11,2.67,2.67,0,0,0-2.67-2.68,3.06,3.06,0,0,0-2,.83c-.31-1.4-1.08-2.57-2.71-2.57a2.91,2.91,0,0,0-2.21,1.1,2.79,2.79,0,0,0-2.61-1.94,3.23,3.23,0,0,0-1.07.21,4.85,4.85,0,0,0-2.72-1.66V4.32h2.26V2.66H71.09v-2H69.31v2H67.06V4.32h2.25V7.16a4.79,4.79,0,0,0-2.72,1.66,3.23,3.23,0,0,0-1.07-.21,2.79,2.79,0,0,0-2.61,1.94,2.88,2.88,0,0,0-2.21-1.1c-1.63,0-2.4,1.17-2.71,2.57a3.08,3.08,0,0,0-2-.83,2.67,2.67,0,0,0-2.67,2.68A6.6,6.6,0,0,0,53.49,15a3.53,3.53,0,0,0-2-.78,2.68,2.68,0,0,0-2.67,2.68,3.86,3.86,0,0,0,.4,1.52A4.79,4.79,0,0,0,48,18.19a2.85,2.85,0,0,0-2.25,1.18,2.79,2.79,0,0,0-2.47-1.58c-1.62,0-2.4,1.17-2.71,2.57a3.06,3.06,0,0,0-1.92-.76A2.68,2.68,0,0,0,36,22.28a6.77,6.77,0,0,0,.13,1,3.67,3.67,0,0,0-1.76-.57,2.68,2.68,0,0,0-2.68,2.68,3.83,3.83,0,0,0,.52,1.71,5.14,5.14,0,0,0-1.35-.27,2.68,2.68,0,0,0-2.67,2.67,3.12,3.12,0,0,0,.74,1.92c-1.54.15-2.94.9-2.94,2.71a2.47,2.47,0,0,0,.34,1.31Zm1.66,0a1.92,1.92,0,0,1-.52-1.31,1.9,1.9,0,0,1,3.8,0A1.92,1.92,0,0,1,30,35.46h-.69a1.48,1.48,0,1,0-1.38,0Zm4.94,0C33.66,30.86,36.54,28,42.32,25c.71.26.7.37.7.48A3,3,0,0,0,44.59,28c-1.47.31-2.79,1-2.79,2.76a2.75,2.75,0,0,0,2.27,2.67,3.13,3.13,0,0,0-.43,2H42.53a4,4,0,0,1,.46-.29,3.47,3.47,0,0,1,.21-1.33,3.33,3.33,0,0,1-2-2.41,35.48,35.48,0,0,0-4.83,1.4,11.17,11.17,0,0,0-3.25,2l-.24.67Zm12.72,0a3.11,3.11,0,0,1,1.85-1.35,3.07,3.07,0,0,1,3.37,1.35h-.52a2.65,2.65,0,0,0-4.18,0Zm8.17,0a2.53,2.53,0,0,0-2.88-1.59,2.79,2.79,0,0,0-1.75-1.75C49.52,21.8,57.21,14.49,68,15.27c0,.2,0,.4,0,.6a2.35,2.35,0,0,0,.46,1.37v2.6a2.3,2.3,0,0,0,0,2.76v2.6a2.35,2.35,0,0,0-.46,1.37c0,1.54,1.14,2,2.3,2.52,1.16-.51,2.3-1,2.3-2.52a2.29,2.29,0,0,0-.4-1.29L72,22.6a2.3,2.3,0,0,0,0-2.76v-2.6a2.28,2.28,0,0,0,.46-1.37c0-.2,0-.4-.06-.6,10.75-.78,18.44,6.52,19.49,16.85a2.79,2.79,0,0,0-1.75,1.75,2.53,2.53,0,0,0-2.88,1.59h-.68a3.09,3.09,0,0,1,3.18-2.24,3.22,3.22,0,0,1,1.46-1.5,20.36,20.36,0,0,0-1-4.44C85,24.35,78,23.83,72.67,24.62V25a2.88,2.88,0,0,1,.46,1.56,2.92,2.92,0,0,1-1.08,2.27,3.1,3.1,0,0,1,2.08,2.4c2,.48,2.54,2,2.54,3.6,0,.21,0,.42,0,.62H76a6.13,6.13,0,0,0,0-.62c0-1.78-.63-2.71-2.45-3.07-.41-2.22-1.54-2.36-3.39-2.66-1.86.3-3,.44-3.39,2.66-1.82.36-2.45,1.29-2.45,3.07a6.13,6.13,0,0,0,0,.62h-.64c0-.2,0-.41,0-.62,0-1.64.55-3.12,2.55-3.6a3.1,3.1,0,0,1,2.08-2.4,2.92,2.92,0,0,1-1.08-2.27A2.88,2.88,0,0,1,67.73,25v-.39c-5.37-.79-12.28-.27-17.56,2.66a19.8,19.8,0,0,0-1,4.44,3.18,3.18,0,0,1,1.46,1.5,3.09,3.09,0,0,1,3.18,2.24Zm3.69,0a3.32,3.32,0,0,1,4.73,0h-1a2.66,2.66,0,0,0-2.67,0Zm10.59,0a3.19,3.19,0,0,1-.25-1.24,3.07,3.07,0,1,1,6.14,0A3.19,3.19,0,0,1,73,35.46h-.47a2.7,2.7,0,0,0,.3-1.24,2.65,2.65,0,1,0-5,1.23Zm11.5,0a3.32,3.32,0,0,1,4.73,0h-1a2.66,2.66,0,0,0-2.67,0Zm11.37,0a3.07,3.07,0,0,1,5.22,0H95a2.62,2.62,0,0,0-1.43-.94,2.66,2.66,0,0,0-2.75.93Zm6.51,0a3.13,3.13,0,0,0-.43-2,2.75,2.75,0,0,0,2.27-2.67c0-1.78-1.32-2.45-2.79-2.76a3,3,0,0,0,1.57-2.52c0-.11,0-.21,0-.32L98,25c5.74,2.86,8.7,5.84,10.2,10.45h-.66c-.08-.23-.16-.46-.25-.68a11.23,11.23,0,0,0-3.24-2,34.08,34.08,0,0,0-4.83-1.39,3.34,3.34,0,0,1-2,2.4,3.47,3.47,0,0,1,.21,1.33,4,4,0,0,1,.46.29Zm13.61,0a1.92,1.92,0,0,1-.52-1.31,1.9,1.9,0,1,1,3.28,1.3h-.69a1.48,1.48,0,1,0-1.38,0ZM90,26.68A16.65,16.65,0,0,0,73.13,15.87a2.88,2.88,0,0,1-.46,1.56v2.22a2.91,2.91,0,0,1,0,3.14v1.4C78.3,23.4,84.87,24,90,26.68ZM67.27,15.87A16.65,16.65,0,0,0,50.4,26.68c5.13-2.66,11.72-3.31,17.33-2.49v-1.4a2.91,2.91,0,0,1,0-3.14V17.43a2.88,2.88,0,0,1-.46-1.56ZM95.93,29.31a1.48,1.48,0,1,0,1.48,1.48,1.48,1.48,0,0,0-1.48-1.48Zm0-.42a1.9,1.9,0,1,1-1.9,1.9,1.9,1.9,0,0,1,1.9-1.9ZM94.7,24a1.48,1.48,0,1,0,1.48,1.48A1.47,1.47,0,0,0,94.7,24Zm0-.42a1.9,1.9,0,1,1-1.9,1.9,1.9,1.9,0,0,1,1.9-1.9Zm14.85,4.44A1.48,1.48,0,1,0,111,29.52a1.47,1.47,0,0,0-1.47-1.47Zm0-.43a1.9,1.9,0,1,1-1.9,1.9,1.9,1.9,0,0,1,1.9-1.9Zm-3.5-3.69a1.48,1.48,0,1,0,1.47,1.48,1.48,1.48,0,0,0-1.47-1.48Zm0-.42a1.9,1.9,0,1,1-1.91,1.9,1.9,1.9,0,0,1,1.91-1.9Zm-4.31-2.71a1.48,1.48,0,1,0,1.48,1.48,1.48,1.48,0,0,0-1.48-1.48Zm0-.42a1.9,1.9,0,1,1-1.9,1.9,1.9,1.9,0,0,1,1.9-1.9ZM97.11,19a1.48,1.48,0,1,0,1.48,1.48A1.48,1.48,0,0,0,97.11,19Zm0-.42a1.9,1.9,0,1,1-1.9,1.9,1.9,1.9,0,0,1,1.9-1.9Zm-4.72.82a1.48,1.48,0,1,0,1.47,1.47,1.47,1.47,0,0,0-1.47-1.47Zm0-.43a1.9,1.9,0,1,1-1.9,1.9,1.9,1.9,0,0,1,1.9-1.9ZM88.93,15.4a1.48,1.48,0,1,0,1.47,1.48,1.48,1.48,0,0,0-1.47-1.48Zm0-.42a1.9,1.9,0,1,1-1.9,1.9,1.9,1.9,0,0,1,1.9-1.9ZM84.4,12.39a1.48,1.48,0,1,0,1.48,1.48,1.48,1.48,0,0,0-1.48-1.48Zm0-.42a1.9,1.9,0,1,1-1.9,1.9A1.89,1.89,0,0,1,84.4,12Zm-4.7-1.33a1.48,1.48,0,1,0,1.48,1.48,1.48,1.48,0,0,0-1.48-1.48Zm0-.42a1.9,1.9,0,1,1-1.9,1.9,1.9,1.9,0,0,1,1.9-1.9ZM74.88,9.8a1.48,1.48,0,1,0,1.48,1.48A1.48,1.48,0,0,0,74.88,9.8Zm0-.42a1.9,1.9,0,1,1-1.9,1.9,1.9,1.9,0,0,1,1.9-1.9ZM44.47,32.26A1.48,1.48,0,1,0,43,30.79a1.47,1.47,0,0,0,1.47,1.47Zm0,.43a1.9,1.9,0,1,1,1.9-1.9,1.9,1.9,0,0,1-1.9,1.9ZM45.7,27a1.48,1.48,0,1,0-1.48-1.48A1.48,1.48,0,0,0,45.7,27Zm0,.42a1.9,1.9,0,1,1,1.9-1.9,1.9,1.9,0,0,1-1.9,1.9ZM30.85,31a1.48,1.48,0,1,0-1.47-1.48A1.48,1.48,0,0,0,30.85,31Zm0,.42a1.9,1.9,0,1,1,1.9-1.9,1.9,1.9,0,0,1-1.9,1.9Zm3.51-4.54a1.48,1.48,0,1,0-1.48-1.47,1.47,1.47,0,0,0,1.48,1.47Zm0,.43a1.9,1.9,0,1,1,1.89-1.9,1.9,1.9,0,0,1-1.89,1.9Zm4.3-3.55a1.48,1.48,0,1,0-1.48-1.48,1.48,1.48,0,0,0,1.48,1.48Zm0,.42a1.9,1.9,0,1,1,1.9-1.9,1.9,1.9,0,0,1-1.9,1.9Zm4.63-2.24a1.48,1.48,0,1,0-1.47-1.47,1.47,1.47,0,0,0,1.47,1.47Zm0,.43a1.9,1.9,0,1,1,1.9-1.9,1.9,1.9,0,0,1-1.9,1.9Zm4.72,0a1.48,1.48,0,1,0-1.47-1.48A1.48,1.48,0,0,0,48,22.34Zm0,.42a1.9,1.9,0,1,1,1.9-1.9,1.89,1.89,0,0,1-1.9,1.9Zm3.46-4.41A1.48,1.48,0,1,0,50,16.88a1.47,1.47,0,0,0,1.47,1.47Zm0,.43a1.9,1.9,0,1,1,1.9-1.9,1.91,1.91,0,0,1-1.9,1.9ZM56,15.34a1.48,1.48,0,1,0-1.48-1.47A1.47,1.47,0,0,0,56,15.34Zm0,.42a1.9,1.9,0,1,1,1.9-1.89A1.9,1.9,0,0,1,56,15.76Zm4.7-2.16a1.48,1.48,0,1,0-1.48-1.48A1.48,1.48,0,0,0,60.7,13.6Zm0,.42a1.9,1.9,0,1,1,1.9-1.9A1.9,1.9,0,0,1,60.7,14Zm9.5,14a1.48,1.48,0,1,0-1.48-1.48,1.48,1.48,0,0,0,1.48,1.48Zm0,.42a1.9,1.9,0,1,1,1.9-1.9,1.9,1.9,0,0,1-1.9,1.9Zm0-5.77a1.48,1.48,0,1,0-1.48-1.48A1.48,1.48,0,0,0,70.2,22.7Zm0,.42a1.9,1.9,0,1,1,1.9-1.9,1.9,1.9,0,0,1-1.9,1.9Zm0-5.78a1.48,1.48,0,1,0-1.48-1.47,1.47,1.47,0,0,0,1.48,1.47Zm0,.43a1.9,1.9,0,1,1,1.9-1.9,1.9,1.9,0,0,1-1.9,1.9Zm-4.68-5A1.48,1.48,0,1,0,64,11.28a1.48,1.48,0,0,0,1.48,1.47Zm0,.43a1.9,1.9,0,1,1,1.9-1.9,1.9,1.9,0,0,1-1.9,1.9ZM42.4,25.7c-4.61,2.4-7.32,4.86-8.9,8.26a12,12,0,0,1,2.74-1.52A34.58,34.58,0,0,1,41.17,31v-.22a3.32,3.32,0,0,1,2.07-3.07,3.29,3.29,0,0,1-.84-2ZM98,25.62a3.33,3.33,0,0,1-.85,2.1,3.32,3.32,0,0,1,2.07,3.07V31a34.41,34.41,0,0,1,4.93,1.43A11.63,11.63,0,0,1,106.89,34c-1.57-3.39-4.28-5.87-8.88-8.34Z" style="fill:#004b95"/></svg>