<svg id="Layer_1" data-name="Layer 1" xmlns="http://www.w3.org/2000/svg" viewBox="0 0 340.14 376.64"><title>Gatorade</title><path d="M290.28,111.55,255,123.89l28.25-34L177.93,124.8l-41.49,63.13,25.32-9.71s-38.44,96.9-44.12,111.2Z" style="fill:#4375e7"/><path d="M240.76,172.56,176.5,238.48h59.75V289.1c-13.71,5.8-22.68,7.91-36.91,7.91-23.1,0-44-7.31-60.31-20l-38.27,38.17L122,260.35c-12.84-17.66-21.29-42.71-21.29-68.28,0-55.9,38-97,90.17-97a101.16,101.16,0,0,1,36.49,6.24l74.05-24.09-26.08,32.67,39.69-14.24-25.83,26.48L286,125.43h35.3V7.05h-55.8V24.54C243.17,16,218.65,11.72,191.43,11.72,80.16,11.72,0,89.23,0,197.87,0,303.34,77,376.64,187.74,376.64c52.21,0,99.14-14.24,139.75-42.19l0-161.89Z" style="fill:#4375e7"/><polygon points="242.8 133.81 231.25 137.79 231.32 137.71 242.8 133.81" style="fill:#4375e7"/><polygon points="244.71 108.47 244.7 108.48 181.34 129.48 170.18 146.44 181.33 129.47 244.71 108.47" style="fill:#4375e7"/><path d="M329.58.79H327.3V0h5.43V.79h-2.26V6.92h-.89Z" style="fill:#fff"/><path d="M336.42,6.92,334.53,1.3V6.92h-.91V0h1.26l2,5.89,2-5.89h1.27V6.92h-.92V1.3l-1.88,5.62Z" style="fill:#fff"/></svg>