<svg id="Слой_1" data-name="Слой 1" xmlns="http://www.w3.org/2000/svg" viewBox="0 0 142.28 142.28"><title>Logo</title><path d="M71.14,0a71.14,71.14,0,1,0,71.14,71.14A71.22,71.22,0,0,0,71.14,0Zm0,134.55a63.42,63.42,0,1,1,63.41-63.41A63.41,63.41,0,0,1,71.14,134.55Z" style="fill:#fff"/><path d="M71.14,139.44a68.31,68.31,0,1,1,68.3-68.3A68.38,68.38,0,0,1,71.14,139.44Zm0-131.61a63.31,63.31,0,1,0,63.3,63.31A63.37,63.37,0,0,0,71.14,7.83Z" style="fill:#109eff"/><path d="M134.52,73.1a63.41,63.41,0,0,1-126.76,0L30,78.59a41.8,41.8,0,0,0,82.26,0Z" style="fill:#9fe2ff"/><path d="M134.55,71.14c0,.66,0,1.31,0,2l-22.25,5.49a42.56,42.56,0,0,0,.66-7.45,41.79,41.79,0,0,0-83.58,0A42.56,42.56,0,0,0,30,78.59L7.76,73.1c0-.65,0-1.3,0-2a63.41,63.41,0,1,1,126.82,0Z" style="fill:#1f377c"/><path d="M112.93,71.14a42.56,42.56,0,0,1-.66,7.45,41.8,41.8,0,0,1-82.26,0,42.56,42.56,0,0,1-.66-7.45,41.79,41.79,0,0,1,83.58,0Z" style="fill:#18244f"/><path d="M84,38l2.59,3.22L71.05,46.54,55.52,41.22l2.33-3.11A35.74,35.74,0,0,0,37.3,59.77l5.18,6.8,5.39,7.12s0,9,0,14.19a57.54,57.54,0,0,0,46.83-.16c0-5.27,0-14,0-14l5.39-7.12L105,60.23A35.81,35.81,0,0,0,84,38Zm-13,46.7L55.52,73.32l2.26-6.75,3-8.89h21l2.77,8.89,2.11,6.75Z" style="fill:#fff"/><path d="M101.17,90.36a35.6,35.6,0,0,1-16.65,13.91l2.09-2.6L71.05,96.36l-15.53,5.31,1.89,2.51a35.75,35.75,0,0,1-16.56-14c3,.82,7,1.81,7,1.37,0-.2,0-1.66,0-3.68a57.54,57.54,0,0,0,46.83-.16c0,2.1,0,3.64,0,3.84C94.83,92,98.29,91.12,101.17,90.36Z" style="fill:#c4d2db"/><path d="M105,60.24l-4.81,6.34H84.5l-2.77-8.89h-21l-3,8.89H42.48l-5.18-6.8A35.69,35.69,0,0,1,57.85,38.12l-2.33,3.1,15.53,5.33,15.56-5.33L84,38A35.81,35.81,0,0,1,105,60.24Z" style="fill:#c4d2db"/><path d="M21.24,46.18l-.38.67-2-1.14,3.42-6a1.79,1.79,0,0,1,.52-.62,1.85,1.85,0,0,1,.63-.31,1.63,1.63,0,0,1,.66,0,1.73,1.73,0,0,1,.6.22l2.54,1.45a1.68,1.68,0,0,1,.51.42,2.08,2.08,0,0,1,.36.59A1.75,1.75,0,0,1,28,43l-1.65,2.9,1.54.87.46-.8,2,1.13L28.09,51l-2-1.13.37-.67Zm1.43-2.41,1.63.93,1.15-2-1.63-.93Z" style="fill:#fff"/><path d="M32.1,37.13l-.32.35,1.59,1.45.5-.56,1.69,1.55-2.91,3.19L31,41.56l.51-.56L27,36.92l-.51.57-1.7-1.55,4.66-5.09a2.1,2.1,0,0,1,.65-.49,1.71,1.71,0,0,1,.68-.15,1.45,1.45,0,0,1,.65.12,1.84,1.84,0,0,1,.54.34l2,1.87a2.28,2.28,0,0,1,.39.48,1.5,1.5,0,0,1,.2.57,1.45,1.45,0,0,1-.07.64,1.88,1.88,0,0,1-.42.68l-.15.17,2.32.73.78-.85,1.64,1.51-2,2.22ZM29,34.89,30.11,36l1.57-1.72-1.16-1.06Z" style="fill:#fff"/><path d="M34.24,28.72a1.42,1.42,0,0,1-.24-.61,1.94,1.94,0,0,1,0-.68,2,2,0,0,1,.24-.66,1.77,1.77,0,0,1,.49-.53l3.85-2.74a1.78,1.78,0,0,1,.66-.29,1.89,1.89,0,0,1,.71,0,1.64,1.64,0,0,1,.64.23,1.57,1.57,0,0,1,.49.43l4.13,5.82a1.31,1.31,0,0,1,.25.59,1.89,1.89,0,0,1,0,.67,2.07,2.07,0,0,1-.24.67,1.49,1.49,0,0,1-.49.54l-3.85,2.74a1.46,1.46,0,0,1-.64.27,2,2,0,0,1-1.36-.2,1.39,1.39,0,0,1-.5-.42Zm2.61-1.12,3.45,4.84,2.31-1.64L39.16,26Z" style="fill:#fff"/><path d="M55,27.18l-4.34,1.6-.79-2.15.7-.26L48.5,20.71l-.7.26L47,18.82l7.87-2.91,1.31,3.55L54,20.28l-.52-1.39-2.34.86.72,1.93,2.68-1,.72,1.94-2.69,1,.65,1.76,1-.38Z" style="fill:#fff"/><path d="M57.89,16.9a1.48,1.48,0,0,1,0-.66,2,2,0,0,1,.3-.61,2,2,0,0,1,.5-.5,1.71,1.71,0,0,1,.66-.27L64,14a1.63,1.63,0,0,1,.73,0,2,2,0,0,1,.65.28,2,2,0,0,1,.48.49,1.59,1.59,0,0,1,.25.59l1.27,7a1.74,1.74,0,0,1,0,.64,2.1,2.1,0,0,1-.79,1.12,1.85,1.85,0,0,1-.68.28l-4.65.83a1.61,1.61,0,0,1-.69,0,2.07,2.07,0,0,1-.64-.29,1.94,1.94,0,0,1-.51-.48,1.49,1.49,0,0,1-.27-.59Zm2.84.1,1.05,5.84,2.79-.5-1-5.84Z" style="fill:#fff"/><path d="M69.07,15.16a1.43,1.43,0,0,1,.15-.64,1.81,1.81,0,0,1,.4-.55,1.87,1.87,0,0,1,.59-.4,1.69,1.69,0,0,1,.7-.15l4.72,0a1.71,1.71,0,0,1,.71.15,2,2,0,0,1,.59.4,1.84,1.84,0,0,1,.38.57,1.44,1.44,0,0,1,.14.63l0,7.14a1.41,1.41,0,0,1-.15.62,1.73,1.73,0,0,1-.39.55,2,2,0,0,1-.59.4,1.57,1.57,0,0,1-.71.16l-4.73,0a1.59,1.59,0,0,1-.67-.15,1.94,1.94,0,0,1-.58-.4,1.88,1.88,0,0,1-.41-.56A1.34,1.34,0,0,1,69,22.3Zm2.77.61,0,5.94h2.84l0-5.94Z" style="fill:#fff"/><path d="M87.44,17.47l-1.34-.28L84.89,23.1l1.32.27-.46,2.25-5.3-1.09.46-2.25,1.22.25,1.21-5.9L82,16.35l-.26,1.23-2.32-.47.71-3.49L90.25,15.7l-.72,3.48-2.35-.48Z" style="fill:#fff"/><path d="M88.3,26.21l.93-2.1.71.32,2.45-5.51-.72-.32.93-2.1,6.27,2.78a1.76,1.76,0,0,1,.64.45,1.59,1.59,0,0,1,.36.59A1.91,1.91,0,0,1,100,21a1.82,1.82,0,0,1-.14.63L99.23,23a1.93,1.93,0,0,1-.57.78,1.5,1.5,0,0,1-.88.24,1.22,1.22,0,0,1,.36.43,1.33,1.33,0,0,1,.16.5,1.8,1.8,0,0,1,0,.52,2.43,2.43,0,0,1-.14.48l-1,2.29a1.62,1.62,0,0,1-.36.52,2,2,0,0,1-.54.37,1.87,1.87,0,0,1-.68.14,1.85,1.85,0,0,1-.77-.17Zm4.2-.7,2.25,1,.92-2.09-2.25-1Zm1.77-4,2.09.92L97,21l-2.09-.93Z" style="fill:#fff"/><path d="M104,31.38l-2.57-2-.76.52.91.69-1.4,1.83L96.94,30l1.39-1.82.57.42,7.57-4.82,2.36,1.8-2.71,8.54.57.44-1.39,1.82-4-3.06,1.4-1.82,1,.77Zm1.58-4.79-2.48,1.69,1.53,1.16,1-2.8Z" style="fill:#fff"/><path d="M114.66,34.74l-.55-.66-4.6,3.82,1.82,2.2,1-.85,1.37,1.65-2.82,2.34-5.45-6.55,1.77-1.47.48.58L112.34,32l-.48-.58,1.77-1.47,2.79,3.37Z" style="fill:#fff"/><path d="M120.42,43.39l-.41-.75-5.26,2.86,1.36,2.5,1.17-.64,1,1.89L115.07,51,111,43.51l2-1.09.35.66,5.3-2.88-.35-.66,2-1.09,2.09,3.85Z" style="fill:#fff"/><polygon points="18.71 57.95 20.21 60.99 23.55 61.47 21.13 63.83 21.7 67.17 18.71 65.59 15.72 67.17 16.29 63.83 13.87 61.47 17.21 60.99 18.71 57.95" style="fill:#fff"/><polygon points="123.5 57.95 125 60.99 128.35 61.47 125.92 63.83 126.5 67.17 123.5 65.59 120.51 67.17 121.08 63.83 118.66 61.47 122.01 60.99 123.5 57.95" style="fill:#fff"/><path d="M17.1,83.3l-.32-1.24,5.82-1.47.69,2.73a1.94,1.94,0,0,1-.17,1.57,1.92,1.92,0,0,1-1.21.85,1.87,1.87,0,0,1-1.47-.18,2,2,0,0,1-.9-1.3l-.37-1.48Zm3.49.52a.9.9,0,0,0,.37.56.72.72,0,0,0,.63.1.74.74,0,0,0,.51-.39.92.92,0,0,0,.06-.66l-.33-1.32-1.57.4Z" style="fill:#18244f"/><path d="M20,92.46l-.5-1.38,1.6-1.83-.32-.89-2,.73-.44-1.2,5.65-2,.95,2.64a2,2,0,0,1,0,1.56,1.89,1.89,0,0,1-1.13,1,1.84,1.84,0,0,1-1.26,0,1.67,1.67,0,0,1-.86-.68Zm2.3-3.22a1,1,0,0,0,.42.54.75.75,0,0,0,.64,0,.72.72,0,0,0,.47-.43,1,1,0,0,0,0-.69l-.46-1.26L21.83,88Z" style="fill:#18244f"/><path d="M21.7,96.35a3.1,3.1,0,1,1,5.55-2.77,3.08,3.08,0,0,1,.23,2.4,3.27,3.27,0,0,1-4,2A3.05,3.05,0,0,1,21.7,96.35Zm.92-1.93a1.84,1.84,0,0,0,1.18,2.36,2.24,2.24,0,0,0,2.53-1.26,1.84,1.84,0,0,0-1.18-2.37,2,2,0,0,0-1.49.19A2,2,0,0,0,22.62,94.42Z" style="fill:#18244f"/><path d="M24.62,101.33l-.69-1.07L29,97l2.32,3.56-1,.62-1.62-2.49-1.06.69,1.59,2.44-.95.61L26.71,100Z" style="fill:#18244f"/><path d="M29.69,108.18,27,104.87l4.68-3.76,2.66,3.3-.87.71-1.87-2.31-1,.79,1.82,2.27-.88.7-1.82-2.26-1.06.85,1.86,2.31Z" style="fill:#18244f"/><path d="M32.06,110.82A3.41,3.41,0,0,1,31,108.35l1.18-.2a2.52,2.52,0,0,0,.77,1.93,1.35,1.35,0,0,0,.68.41.55.55,0,0,0,.52-.14.45.45,0,0,0,.11-.47,1.87,1.87,0,0,0-.28-.62,7.81,7.81,0,0,1-.44-.73,7.11,7.11,0,0,1-.37-.81,1.55,1.55,0,0,1-.07-.83,1.58,1.58,0,0,1,.46-.82,1.68,1.68,0,0,1,1.36-.48,2.51,2.51,0,0,1,1.54.81,3.33,3.33,0,0,1,1.05,2.25l-1.16.15a2.49,2.49,0,0,0-.76-1.7,1.07,1.07,0,0,0-.56-.33.51.51,0,0,0-.47.15.41.41,0,0,0-.08.44,2.22,2.22,0,0,0,.29.61,5.57,5.57,0,0,1,.43.74,5.07,5.07,0,0,1,.36.8,1.52,1.52,0,0,1-.39,1.66,1.74,1.74,0,0,1-1.42.54A2.67,2.67,0,0,1,32.06,110.82Z" style="fill:#18244f"/><path d="M36.39,114.74A3.39,3.39,0,0,1,35,112.4l1.15-.32a2.5,2.5,0,0,0,1,1.83,1.31,1.31,0,0,0,.72.34.57.57,0,0,0,.51-.2.45.45,0,0,0,0-.47,1.76,1.76,0,0,0-.35-.59c-.16-.19-.33-.42-.51-.68a5.59,5.59,0,0,1-.45-.76,1.52,1.52,0,0,1,.21-1.69,1.64,1.64,0,0,1,1.3-.61,2.45,2.45,0,0,1,1.62.63A3.32,3.32,0,0,1,41.54,112l-1.15.28a2.48,2.48,0,0,0-.94-1.62,1,1,0,0,0-.59-.27.53.53,0,0,0-.45.2.44.44,0,0,0,0,.45,2.05,2.05,0,0,0,.36.57q.24.3.51.69a6.72,6.72,0,0,1,.44.76,1.66,1.66,0,0,1,.15.83,1.57,1.57,0,0,1-.37.86,1.71,1.71,0,0,1-1.36.69A2.65,2.65,0,0,1,36.39,114.74Z" style="fill:#18244f"/><path d="M40.37,117.55l-1.06-.72,3.42-4.94,1.05.73Z" style="fill:#18244f"/><path d="M44.06,120a3.09,3.09,0,0,1-1.53-1.87,3.23,3.23,0,0,1,2.19-3.88,3.33,3.33,0,0,1,3.92,2.2,3.25,3.25,0,0,1-2.19,3.89A3.09,3.09,0,0,1,44.06,120Zm-.32-2.13a1.71,1.71,0,0,0,.87,1.14,1.69,1.69,0,0,0,1.43.16,2.06,2.06,0,0,0,1.13-1,2,2,0,0,0,.26-1.48,1.84,1.84,0,0,0-2.3-1.3,2.26,2.26,0,0,0-1.39,2.46Z" style="fill:#18244f"/><path d="M53.14,124,52,123.54l-1.2-4.7-1.46,3.64L48.16,122l2.23-5.57,1.22.49,1.18,4.53,1.4-3.5,1.19.48Z" style="fill:#18244f"/><path d="M60.18,126l-1.41-.37-.1-1.08-2.49-.65-.62.88-1.41-.37,3.77-5.21,1.55.4Zm-1.56-2.63-.25-2.73-1.56,2.26Z" style="fill:#18244f"/><path d="M64.94,126.65l-3.77-.57.9-5.94,1.26.19-.73,4.83,2.51.38Z" style="fill:#18244f"/><path d="M70.82,127.07a3.4,3.4,0,0,1-2.53-1l.71-1a2.56,2.56,0,0,0,1.9.83,1.33,1.33,0,0,0,.77-.19.57.57,0,0,0,.28-.47.48.48,0,0,0-.25-.41,1.86,1.86,0,0,0-.64-.24,8.43,8.43,0,0,1-.83-.21,7.2,7.2,0,0,1-.83-.32,1.43,1.43,0,0,1-.63-.54,1.5,1.5,0,0,1-.25-.91,1.62,1.62,0,0,1,.63-1.29,2.44,2.44,0,0,1,1.66-.51,3.32,3.32,0,0,1,2.33.86l-.72.93a2.5,2.5,0,0,0-1.73-.68,1.08,1.08,0,0,0-.64.16.54.54,0,0,0-.23.44.46.46,0,0,0,.26.37,2,2,0,0,0,.63.22c.26,0,.53.13.83.22a7,7,0,0,1,.82.33,1.54,1.54,0,0,1,.64.55,1.48,1.48,0,0,1,.24.9,1.71,1.71,0,0,1-.63,1.39A2.64,2.64,0,0,1,70.82,127.07Z" style="fill:#18244f"/><path d="M77.45,126.71a3.08,3.08,0,0,1-2.33-.61,3.25,3.25,0,0,1-.52-4.43,3.33,3.33,0,0,1,4.47-.52,3,3,0,0,1,1.14,2.11,3.06,3.06,0,0,1-.62,2.32A3.1,3.1,0,0,1,77.45,126.71Zm-1.51-1.53a1.67,1.67,0,0,0,1.38.4,1.73,1.73,0,0,0,1.25-.7,2,2,0,0,0,.33-1.47,2,2,0,0,0-.66-1.34,1.68,1.68,0,0,0-1.38-.4,1.71,1.71,0,0,0-1.25.7,2.13,2.13,0,0,0-.33,1.47A2.07,2.07,0,0,0,75.94,125.18Z" style="fill:#18244f"/><path d="M84.8,125.34a3.2,3.2,0,0,1-2.42-.29,3.2,3.2,0,0,1-1.09-4.34,3.22,3.22,0,0,1,2-1.4,2.69,2.69,0,0,1,2.79.82l-.93.79a1.64,1.64,0,0,0-.71-.47,1.52,1.52,0,0,0-.87,0,1.86,1.86,0,0,0-1.18.87,2,2,0,0,0-.17,1.5,2,2,0,0,0,.86,1.24,1.78,1.78,0,0,0,1.45.22,1.52,1.52,0,0,0,.74-.44,1.55,1.55,0,0,0,.41-.75l1.2.25A2.76,2.76,0,0,1,84.8,125.34Z" style="fill:#18244f"/><path d="M91.17,123.27a3.2,3.2,0,0,1-2.45,0,3.2,3.2,0,0,1-1.6-4.18,3.18,3.18,0,0,1,1.82-1.62,2.68,2.68,0,0,1,2.87.47l-.83.89a1.73,1.73,0,0,0-.77-.37,1.4,1.4,0,0,0-.86.07,1.75,1.75,0,0,0-1.06,1,2.15,2.15,0,0,0,1,2.64,1.77,1.77,0,0,0,1.46,0,1.48,1.48,0,0,0,.69-.52,1.58,1.58,0,0,0,.31-.8L93,121A2.72,2.72,0,0,1,91.17,123.27Z" style="fill:#18244f"/><path d="M98.33,119.78l-3.77,2L91.8,116.4l3.77-2,.52,1-2.64,1.37.59,1.13,2.58-1.34.52,1-2.59,1.34.63,1.2,2.64-1.36Z" style="fill:#18244f"/><path d="M103.63,116.38l-1.22.81-2.16-1.14-.78.52,1.17,1.78-1.07.7-3.3-5,2.34-1.54a2,2,0,0,1,1.53-.36,1.88,1.88,0,0,1,1.22.86,1.85,1.85,0,0,1,.34,1.21,1.64,1.64,0,0,1-.46,1ZM100,114.89a.92.92,0,0,0,.42-.54.77.77,0,0,0-.12-.63.71.71,0,0,0-.53-.35.93.93,0,0,0-.67.17l-1.12.74.9,1.35Z" style="fill:#18244f"/><path d="M110.81,110.22l-1.08,1-1-.5-1.9,1.74.4,1-1.07,1-2.34-6,1.19-1.08Zm-3-.11-2.43-1.28,1,2.54Z" style="fill:#18244f"/><path d="M113.51,107.33a3.18,3.18,0,0,1-2.14,1.15,3.2,3.2,0,0,1-3.41-2.94,3.24,3.24,0,0,1,.84-2.28,2.76,2.76,0,0,1,2.64-1l-.26,1.18a1.73,1.73,0,0,0-.81.08,1.55,1.55,0,0,0-.71.49,1.76,1.76,0,0,0-.46,1.38,2.14,2.14,0,0,0,2.14,1.85,1.78,1.78,0,0,0,1.3-.66,2,2,0,0,0,.38-.64,1.66,1.66,0,0,0,.11-.62l-.55-.48-1,1.2-.85-.73,1.88-2.16,1.74,1.5A3.3,3.3,0,0,1,113.51,107.33Z" style="fill:#18244f"/><path d="M118.37,100.62l-2.41,3.5L111,100.71l2.41-3.5.93.64-1.69,2.45,1,.72,1.65-2.4.93.64-1.65,2.4,1.12.77,1.69-2.45Z" style="fill:#18244f"/><path d="M121.7,94.69l-.59,1.09-4.81.65,3.45,1.86-.61,1.13-5.28-2.86.63-1.16,4.64-.65L115.81,93l.61-1.13Z" style="fill:#18244f"/><path d="M123.58,90.53a3.22,3.22,0,0,1-1.66,1.79,3.2,3.2,0,0,1-4.15-1.67,3.18,3.18,0,0,1,0-2.44,2.69,2.69,0,0,1,2.3-1.78l.09,1.22a1.7,1.7,0,0,0-.8.3,1.49,1.49,0,0,0-.54.68,1.81,1.81,0,0,0,0,1.46,2,2,0,0,0,1.11,1,1.94,1.94,0,0,0,1.51,0,1.81,1.81,0,0,0,1-1.05,1.48,1.48,0,0,0,.08-.86,1.54,1.54,0,0,0-.37-.77l.91-.82A2.74,2.74,0,0,1,123.58,90.53Z" style="fill:#18244f"/><path d="M125.58,84.21l-.35,1.23-2.37-.68-4,1.24.4-1.4,2.73-.77L120,81.75l.4-1.41,2.78,3.19Z" style="fill:#18244f"/></svg>