<?xml version="1.0" encoding="utf-8"?>
<!-- Generator: Adobe Illustrator 22.0.1, SVG Export Plug-In . SVG Version: 6.00 Build 0)  -->
<svg version="1.1" id="Слой_1" xmlns="http://www.w3.org/2000/svg" xmlns:xlink="http://www.w3.org/1999/xlink" x="0px" y="0px"
	 viewBox="0 0 800.1 259.1" style="enable-background:new 0 0 800.1 259.1;" xml:space="preserve">
<style type="text/css">
	.st0{fill:#014587;}
	.st1{fill:#FFFFFF;}
	.st2{fill:#02458A;}
	.st3{fill:#A5C846;}
</style>
<g>
	<path class="st0" d="M751.2,92.5l-13.3,41.2l-9.4-41.2h-47.9l0,0h-20V64.3h-43.5l-16.5,46.4V92.2h-10.2c1-0.8,2-1.7,2.9-2.6
		c4.7-5,7.2-11.4,7.2-18.5c0-7.2-2.5-13.6-7.2-18.6c-4.9-5.1-11.2-7.8-18.3-7.8s-13.4,2.7-18.3,7.9c-4.8,5-7.3,11.4-7.3,18.5
		c0,7,2.5,13.4,7.3,18.4c0.9,1,2,1.9,3,2.7h-10.3v29c-4.5-19.3-18.9-31.2-39.2-31.2c-6.5,0-12.5,1.5-18.1,4.4v-2.2h-51.2l0,0h-101
		V25.7h-51.2v9.4c0,101.8,0,115.9,0,118v3c-0.2,2-0.5,3.9-1.3,4.7c-0.9,0.9-2.7,1.1-4.4,1.1c-0.8,0-1.5-0.1-2.3-0.1
		c-5.7-0.4-11.7-1-19.5-2.1c-1-0.1-1.9-0.3-2.9-0.4l-10.8-1.6v49.6l8.4,0.9c2.3,0.3,23.1,2.6,26.4,2.8c1,0.1,2.2,0.1,3.6,0.1
		c4.6,0,11-0.4,16.5-1.7c8.4-2,15.3-5.7,21.1-11.5l0.2-0.2c1.2-1.1,2-2,2.6-2.6c4.4-4.9,7.8-10.6,10.2-17.1
		c1.7-4.7,2.8-9.6,3.3-14.8c0.3,5.9,1.5,11.4,3.5,16.6c2.4,6.2,6,11.7,10.4,16.4c4.5,4.7,10,8.4,16.3,11s13.3,3.9,20.9,3.9
		c7.5,0,14.4-1.3,20.8-3.9c6.4-2.6,11.9-6.3,16.4-11c4.5-4.6,8-10.2,10.4-16.5c1.1-2.9,2-5.9,2.6-9v37h51v-61.9c0-6.8,3-6.8,4.2-6.8
		c0.9,0,3.5,0,3.5,6.8v61.9h49.6h1.5h49.6v-75.3h12v26c0,17.8,3.2,30.4,9.7,38.5c6.9,8.6,18,13,32.8,13c5.2,0,10.6-0.5,15.8-1.5
		c5.3-1,10.6-2.5,15.9-4.6l6.1-2.4l-0.4-44.2l-13.4,6.5c-2.8,1.4-5.4,2.4-7.7,3l0,0c-2.1,0.6-4.1,0.9-5.9,0.9
		c-2.2,0-3.3-0.3-3.9-0.4c-0.3-0.9-0.9-3.3-0.9-8.7v-26.2h29.2c7.5,32.5,15.6,67.9,16.6,73.4c-0.1,1.7-0.2,2.9-0.4,3.8
		c-2,0.1-5.7,0-12.1-0.6l-10.3-0.9v49.5l16.2,1.4c1,0.1,2.2,0.1,3.6,0.1c4.5,0,10.9-0.4,16.5-1.7c8.4-2,15.3-5.8,21.1-11.6l0.2-0.2
		c1.2-1.2,2.1-2.1,2.6-2.7c4.4-4.9,7.8-10.7,10.2-17.2c0.3-0.9,0.7-1.9,1-2.9l45.1-130.2H751.2z"/>
	<g>
		<path class="st1" d="M575,91.6c5.6,0,10.4-2,14.2-6s5.7-8.9,5.7-14.6c0-5.8-1.9-10.7-5.7-14.7s-8.6-6-14.2-6
			c-5.5,0-10.3,2.1-14.1,6.1s-5.7,8.9-5.7,14.6c0,5.6,1.9,10.5,5.7,14.5C564.7,89.5,569.5,91.6,575,91.6z"/>
		<rect x="555.1" y="97.7" class="st1" width="39.9" height="104.4"/>
		<path class="st1" d="M681.5,169c-3.1,1.5-6.1,2.7-8.7,3.4l0,0c-2.6,0.7-5.1,1-7.4,1c-4.1,0-7-0.8-8.2-2.3
			c-0.7-0.8-2.2-3.6-2.2-12.4v-31.9h29.4V98.2H655V70h-33.9l-16.3,45.9v10.9h13.5v31.7c0,16.5,2.8,27.9,8.4,35
			c5.8,7.2,15.3,10.9,28.4,10.9c4.9,0,9.9-0.5,14.8-1.4c4.9-0.9,9.9-2.4,14.9-4.3l2.4-0.9l-0.3-31.3L681.5,169z"/>
		<path class="st1" d="M396.2,157.9c0,3.2-0.5,5.6-1.6,7.3c-0.5,0.8-1.4,1.7-3.9,1.7s-3.4-0.9-3.9-1.7c-1-1.7-1.6-4.2-1.6-7.3V97.8
			h-40.1v61.9c0,6.5,1.1,12.6,3.3,18.1c2.2,5.5,5.3,10.4,9.2,14.5c4,4.1,8.8,7.4,14.4,9.7s11.9,3.5,18.7,3.5c6.7,0,13-1.2,18.6-3.5
			s10.5-5.6,14.5-9.7c4-4.1,7.1-9,9.2-14.6c2.2-5.6,3.3-11.6,3.3-18V97.8h-40.1V157.9z"/>
		<path class="st1" d="M510.2,95.6c-8.9,0-16.8,3.2-23.8,9.6v-7.4h-39.9v104.4h39.9V146c0-7.8,3.7-12.5,9.8-12.5
			c8.3,0,9.1,8.7,9.1,12.5v56.2h39.9v-67.1C545.3,110.7,531.9,95.6,510.2,95.6z"/>
		<path class="st1" d="M755.3,98.1L737,155l-13-56.9h-36.3l1.1,4.6c9.1,39,22.7,98.1,23.4,102.7v0.5c-0.3,5.6-1.3,7.8-1.7,8.5
			c-0.2,0.2-0.4,0.4-0.6,0.5c-0.9,0.3-4.5,0.9-16.3-0.2l-4.1-0.4v37.9l11,0.9c0.8,0.1,1.9,0.1,3.2,0.1c4.1,0,10.1-0.4,15.3-1.6
			c7.4-1.7,13.4-5,18.4-10.1l0.2-0.2c1-1,1.9-1.9,2.4-2.4c3.9-4.3,7-9.5,9.1-15.4c0.3-0.8,0.6-1.7,0.9-2.6l42.4-122.8L755.3,98.1
			L755.3,98.1z"/>
		<path class="st1" d="M294.3,35.1c0,34.5,0,113.9,0,118v4.4c-0.1,3.3-0.6,7.6-2.2,9c-1,0.9-2.9,1.2-4.9,1.3c-2.1,0-4.2-0.1-6.4-0.3
			c-0.6-0.1-1-0.1-1-0.1c-5.7-0.4-11.8-1.1-19.6-2.1c-1-0.1-2-0.3-3-0.4l-4.3-0.6v38l3.4,0.4c0.9,0.1,22.9,2.5,26.2,2.8
			c0.8,0.1,1.9,0.1,3.2,0.1c4.2,0,10.2-0.4,15.2-1.6c7.4-1.7,13.4-5,18.4-10l0.2-0.2c0.9-0.9,1.9-1.9,2.4-2.4
			c3.9-4.3,7-9.5,9.1-15.3s3.2-12.1,3.2-18.7v-126h-39.9L294.3,35.1z"/>
	</g>
	<g>
		<path class="st2" d="M575,87.8c4.6,0,8.4-1.6,11.5-4.9c3.1-3.2,4.6-7.2,4.6-12s-1.5-8.8-4.6-12.1c-3.1-3.2-6.9-4.9-11.5-4.9
			c-4.5,0-8.3,1.6-11.4,4.9c-3.1,3.3-4.7,7.3-4.7,12s1.6,8.6,4.7,11.9C566.7,86.2,570.5,87.8,575,87.8z"/>
		<rect x="558.9" y="101.5" class="st2" width="32.3" height="96.8"/>
		<path class="st2" d="M673.8,176c-2.9,0.8-5.7,1.2-8.3,1.2c-5.4,0-9.1-1.2-11.1-3.7s-3.1-7.4-3.1-14.8V123h29.4v-21.1h-29.4V73.7
			h-27.5l-15.3,42.8v6.5H622v35.5c0,15.4,2.5,26.3,7.6,32.6s13.5,9.5,25.5,9.5c4.7,0,9.4-0.4,14.1-1.3c4.7-0.9,9.5-2.2,14.2-4.1
			l-0.2-22.7C679.8,174,676.7,175.3,673.8,176z"/>
		<path class="st2" d="M400,157.9c0,3.9-0.7,7-2.1,9.3s-3.8,3.5-7.1,3.5c-3.3,0-5.7-1.2-7.1-3.5s-2.1-5.4-2.1-9.3v-56.4H349v58.1
			c0,6,1,11.6,3,16.7c2,5.1,4.8,9.5,8.4,13.3s8,6.7,13.1,8.8s10.9,3.2,17.2,3.2c6.3,0,12-1.1,17.2-3.2c5.2-2.1,9.6-5.1,13.2-8.8
			c3.6-3.8,6.4-8.2,8.4-13.4c2-5.1,3-10.7,3-16.6v-58.1h-32.6v56.4H400z"/>
		<path class="st2" d="M510.2,99.4c-13.1,0-21.6,7.7-27.5,15.7v-13.6h-32.3v96.8h32.3v-52.4c0-10.6,5.8-16.3,13.6-16.3
			c7.7,0,12.9,5.7,12.9,16.3v52.4h32.3v-63.4C541.5,113,529.8,99.4,510.2,99.4z"/>
		<path class="st2" d="M786.9,101.9l-40.7,117.9c-0.3,0.8-0.5,1.7-0.8,2.5c-2,5.4-4.8,10.2-8.4,14.2c-0.6,0.6-2.2,2.3-2.4,2.5
			c-4.8,4.9-10.3,7.6-16.6,9.1s-14.1,1.6-17.3,1.4c-1.2-0.1-4.1-0.4-7.4-0.6v-30.4c7.2,0.6,15.2,1,18.2-0.1c0.8-0.4,1.5-1,2.1-1.7
			c1.7-2.4,2.3-6.9,2.4-10.7v-0.7c0-2.6-23.5-103.3-23.5-103.3H721l15.4,67.3l21.7-67.3L786.9,101.9L786.9,101.9z"/>
		<path class="st2" d="M298.1,153.1v5.5c-0.1,2.3-0.3,4.6-0.9,6.8c-0.4,1.5-1,3.2-2.2,4.3c-1.5,1.5-3.4,1.6-5.3,1.7
			c-3.3,0.2-6.6,0-9.8-0.3c-6.7-0.5-13.4-1.2-20.1-2.1c-1-0.1-2-0.3-3-0.4v30.2c0,0,22.8,2.5,26,2.7s11,0.1,17.3-1.4
			s11.7-4.2,16.6-9c0.2-0.2,1.9-1.8,2.4-2.5c3.6-4,6.4-8.7,8.4-14.1c2-5.4,3-11.2,3-17.4v-122h-32.4
			C298.1,35.1,298,152.4,298.1,153.1z"/>
	</g>
	<g>
		<path class="st2" d="M209.2,42.2l-1.4-16.5l-14.9-7.1C191.3,17.8,153.4,0,106.3,0C59.4,0,21.4,17.8,19.8,18.6L4.9,25.7L3.5,42.2
			c-0.4,5.6-4.3,55.1-3.4,82.7c0.7,17.6,9,78.4,92,126l14.3,8.2l14.3-8.2c83-47.5,91.3-108.4,91.9-125.9
			C213.4,97.3,209.6,47.7,209.2,42.2z"/>
		<path class="st1" d="M204.6,42.5l-1.1-13.9L191,22.7c-1.6-0.7-38.6-18.2-84.6-18.2s-83,17.4-84.5,18.2l-12.5,6L8.2,42.5
			c-0.2,2.2-4.3,54-3.3,82.2c0.6,16.9,8.6,75.7,89.6,122.1l12,6.9l12-6.9c80.9-46.4,89-105.2,89.6-122.1
			C208.9,96.6,204.8,44.7,204.6,42.5z"/>
		<path class="st2" d="M201.5,42.8l-1-12.1l-10.9-5.2c-1.5-0.7-37.9-17.9-83.2-17.9S24.7,24.8,23.2,25.5l-10.9,5.2l-1,12.1
			C11.1,45,7,96.5,8,124.7c0.5,16.5,8.5,74,88,119.5l10.5,6l10.5-6c79.5-45.6,87.5-103,88-119.5C205.8,96.5,201.7,45,201.5,42.8z"/>
		<path class="st1" d="M185.2,44.1l-0.2-2.6l-2.4-1.1c-0.3-0.2-34.2-16.3-76.2-16.3c-41.9,0-75.8,16.1-76.2,16.3l-2.4,1.1l-0.2,2.6
			c0,0.5-4.2,52.6-3.3,80c0.5,14.4,7.6,64.5,79.8,105.8l2.3,1.3l2.3-1.3c72.2-41.3,79.3-91.4,79.8-105.8
			C189.4,96.7,185.2,44.6,185.2,44.1z"/>
		<path class="st2" d="M182.9,44.3l-0.1-1.3l-1.2-0.6c-0.3-0.2-34.1-16-75.2-16c-41,0-74.8,15.9-75.2,16L30,43l-0.1,1.3
			c0,0.5-4.2,52.5-3.3,79.8c0.5,14.1,7.5,63.1,78.6,103.9l1.1,0.7l1.1-0.7c71.1-40.8,78.2-89.8,78.6-103.9
			C187,96.8,182.9,44.8,182.9,44.3z"/>
		<path class="st1" d="M106.4,226C49,193.1,29.8,151.5,28.9,124s3.3-79.5,3.3-79.5s33.2-15.8,74.2-15.8s74.2,15.8,74.2,15.8
			s4.2,52,3.3,79.5C183,151.5,163.8,193.1,106.4,226L106.4,226z"/>
		<path class="st3" d="M126.5,118.1c0.1,0.1,0.1,0.1,0.2,0.2c3.9,4.9,5.8,10,6.8,15.9c0.1,0,0.3-0.1,0.4-0.1
			c0.9-0.4,1.8-0.9,2.7-1.3c0.2-0.1,0.4-0.2,0.6-0.3c-1.7-5.8,1.1-8.2,2.4-9c2.5-1.5,5.9-0.9,7.9,1.2c0.6,0.7,0.9,1.3,1.1,1.6
			c0,0.1,0.1,0.1,0.1,0.2c0,0,0.3,0.2,1,0.4c0.5,0.2,1,0.2,1.6,0.3c2.9,0.4,5.8,1.2,7.8,7.1l0,0c0.5,1.5,2.1,6.2-1.2,8.7
			c-0.8,0.6-1.9,0.8-2.8,0.5c-0.8-0.3-1.5-0.5-2-0.6c-1.1-0.4-1.1-0.4-3-0.1l-0.5,0.1c-0.1,0-0.3,0-0.4,0c-0.5,0.5-0.9,1-1.4,1.7
			c-1.5,2-3,4.1-5,6.8c-0.3,0.5-0.8,0.8-1.3,1.1c-0.8,1.4-1.9,2.2-2.8,2.9c-0.5,0.4-1,0.8-1.5,1.3l-0.4,0.5c-1.6,1.9-5,5.8-10.1,2.8
			c-4-2.3-6.6-7.4-8.9-11.8c-1-1.9-1.9-3.8-2.7-4.9c-0.2,0-0.5,0-0.6,0h-0.2c-2.4,0.4-3.5-0.8-5.1-2.5c-0.4-0.5-0.8-0.9-1.2-1.4
			c-0.8,1.3-1.8,2.5-2.9,3.5c-0.3,0.3-0.7,0.5-1.1,0.6c-1.1,0.4-2.1,0.7-3.2,1c-1.1,0.4-2.2,0.7-3.3,1.1c-0.2,0.1-0.3,0.1-0.5,0.1
			c-0.6,0.7-1.3,1.3-2,1.9c-0.3,0.3-0.7,0.6-0.9,0.8c-1.5,1.2-1.5,1.2-1.8,4.2c0,0.1,0,0.1,0,0.2c0,0.2-0.1,0.3-0.1,0.5
			c0.2,0.4,0.4,0.8,0.4,1.2c0.6,4.4,0.8,5.8,0.4,10.5c-0.3,3.2-1,6.1-2.2,9.7l-0.3,0.8c-0.3,1-0.5,1.6-0.7,2.9
			c-0.9,6-0.7,7.3-0.6,7.6l0,0c0.5,0.6,1,1.4,1.3,2.9c0,0.1,0,0.3,0.1,0.4c0,0.3,0.1,0.7,0.1,1c0.1,0.5,0.1,1,0.1,1.5
			c0,0.9-0.3,1.7-0.9,2.4c0,0.8-0.2,1.7-0.7,2.7c-0.8,1.6-2.2,2.6-3.8,2.9c-0.3,0.1-0.7,0.1-1.1,0.1c-1.8,0-3.6-0.8-5.2-2.1
			l-0.1-0.1c-0.3-0.3-0.7-0.7-1-1c-0.8-0.9-1.4-1.5-2.4-1.9c-0.1,0-0.1-0.1-0.2-0.1c-0.3-0.2-0.6-0.3-0.9-0.4
			c-0.5-0.2-1.2-0.4-1.9-0.9c-1.1-0.6-2-1.2-2.9-2.1c-2.1-1.9-3.4-4-4-6.2c-0.7-2.7-0.3-5.1,1-6.7c1.2-1.4,2.9-2.1,4.9-2
			c0.3,0,0.6,0.1,0.9,0.2c1,0.4,1.8,0.7,2.5,1.1c0.1,0,0.2,0,0.3-0.1c0-0.1,0-0.2,0-0.3c0-0.3,0-0.5,0-0.7c-0.4-0.8-0.8-1.9-1.3-3.9
			c-0.9-3.7-1.7-7.9-0.5-10.8c0.2-0.4,0.4-0.8,0.6-1c0-0.1,0-0.2,0-0.3c0-0.9,0.1-1.9,0.2-2.8l0.1-0.6c0.1-1.2,0.4-2.5,0.6-3.6
			c0.2-0.8,0.3-1.6,0.4-2.2c0.1-0.7,0-0.9-0.3-1.6c-0.3-0.8-0.7-2-0.8-3.7c0-1.8,0.1-3,0.6-4V142c-0.4-2.6,0.1-5.8,0.9-8.3
			c-0.2-0.4-0.4-0.8-0.5-1.3c-0.4-4.2,1.7-6.7,4.1-8.5c0-0.4,0.1-0.8,0.2-1.2c0.6-1.5,1.7-3,2.9-4.1c-23.1,2.8-42.3,9-53.2,13.1
			c3.9,27.2,24.4,64.4,76.8,94.4c52.4-30,72.9-67.2,76.8-94.4C171.7,127.2,151.2,120.6,126.5,118.1z M105.3,200.6
			c-0.1,0-0.2,0-0.2,0c-7.6-0.1-13.7-6.7-13.5-14.6c0.1-7.9,6.4-14.2,14-14.1l0,0c7.6,0.1,13.7,6.7,13.6,14.6
			C119,194.3,112.8,200.6,105.3,200.6z"/>
		<path class="st2" d="M156.1,135.4c-2.2-6.2-4.4-4.4-7.5-5.5c-3-1.1-2.4-1.9-3.4-3.1c-1.8-1.9-7.1-1.5-4.7,5.4
			c0.3,1,0.3,1.5,1.4,1.8c1.2,0.3,1.7,0.2,2.8,0.1c-0.4,0.2-0.6,0.3-1,0.4c-0.6,0.1-1.2,0-1.8-0.1c-0.5,0-0.9-0.1-1.1-0.1
			c-2,0.9-3.9,1.8-5.9,2.8c-1.1,0.3-2.2,0.8-2.7,1.7c-0.8,1.4,0.3,2,1.3,2.6c3.5,2.1,3,5,0.8,4.1c-1.3-0.6-2.6-4-3-5.6
			c-1.2,0.8-2.5,1.6-3.8,2.4c-1.7,0.6-3.4,0.7-4.7-0.4c1.6-0.2,3.2-0.4,4.7-0.6c1.3-0.4,2.2-1.8,3.3-2.4c-0.9-7-2.3-12.9-6.7-18.4
			c-0.5-0.5-1.1-1.1-1.7-1.6c-0.9-0.7-0.8-0.7-2-0.3c-3.4,1.4-12.3,3.2-15.3,1.5c7.8-0.4,10.9-1.6,18.1-4.2c1.9-0.7,3.6-1.3,5.3-2.2
			c-4.3-1.1-8-2.3-11.5-5.3c-2.2-1.9-6.2-7-6.9-10c1.1,1.2,2.1,2.4,3.6,3.1c0.6,0.3,1.5,0.8,2.5,0.5c0.8-0.2,1.7-0.6,1.7-1.5
			c0.1-2.5-4.9-5.1-6.5-6.6c2.2,0.2,4.7,1.2,4.8-2.1c-1.4,0.1-3.1,0.4-4.3-0.4c3.6-1.6,4.2-1.3,4.9-3.8c0.3-1.3,0.1-1-0.5-1.8
			c-1.2-1.9-3.3-6.1-2.8-8.6c1.8,4.9,2.6,7.9,6.7,11.3c1.8,1.5,4.6,2.9,5.2,5.6c0.4-1,0.4-2.2,1-2.9c0.3,0.5,0.5,1.1,0.9,1.7
			c1.1,2.4,3.1,5.4,5,7.1c2.4,2.3,5.7,4,7.3,7c0.5,1.1,0.8,2.4,1.9,3c1.3,0.8,2.4-0.1,3.8-0.1c0.3-0.2,0.4-0.4,0.5-0.7
			c1.4,2.6,1.2,1.7,1.9,0.9c0.1-0.1,0.5-0.1,1-0.2c0.2-0.2,0.7-1,0.9-1.8c0-0.3-0.2-1.6-0.3-2.1c-0.5-2.9-2.4-2.9-4.5-2.9
			c-0.7,0-1.5,0-2.2-0.1c-3-0.5-2.4-5.1-5.4-9.5c-0.8-1.1-3.4-4.7-4.3-5.4c-1.6,0.6-3.2,1.2-4.8,1.7c1.8-1,5.7-3.2,6.8-4.7
			c-2-2-4-4.1-6-6.1c-1-1.2-1.8-2.1-2.8-3.2c-0.7-0.8-2.1-2.4-2.9-2.9c0.8,1.6,1.5,3.1,1.9,4.9c0.2,0.9,0.4,2,0.5,3
			c0.1,1.5,0,2.1-0.7,2.8c-0.5-0.1-1-0.3-1.4-0.5c0.1-1.6,0.2-3.1,0.3-4.6c-0.1-2.7-2.5-7-4.9-7.8c-0.7-0.2-1.3-0.2-1.9-0.5
			c-1.2-0.6-1.4-1.9-2.3-2.8c-0.9-0.9-1.7-1.5-2.8-2.3c-2.4-1.5-2.4-0.3-3.3-1.7c-0.7-1.1-1.7-2-2.2-2.8c-0.1,0.2-0.2,0.3-0.3,0.5
			c-0.2,0.6-0.4,1-0.8,1.3c0.2-1.4,0.2-2.9,0.4-4.3c0.9-1.2,2.1-2.3,3.1-3.6c3.4-4.5,3.7-7.2,3.8-13.2c-1.1,1.4-2,3-3.7,3.7
			c0.4-0.6,0.8-1.1,1.2-1.7c1-1.6,1.5-4.5,1.5-6.5c-1.2,1.8-2.2,3.8-4.5,4.4c0.5-0.9,0.9-1.8,1.3-2.7c-4.8,1.1-3.2,0.8-8.1,0.6
			c-3-0.1-5.1,0.9-6.8,2.3c-1.5,1.4-2.9,3.4-3.2,6.2c-0.3,2.7,0.1,6.5,1.1,8.2c0-0.3,0.1-0.6,0.2-0.9c0.1-0.8,0.3-1.7,0.7-2.3
			c-0.2,3.3-0.6,7.3,1.3,10.1c1.3,1.8,1,3.5,2.8,5c1.1,0.9,1.4,0.8,3.1,0.8c2.3,0,3.1-1.6,4.2-3.4c-1.3,3.6-0.6,3.2-3.7,4.7
			c1.3,0.8,2.5,1.6,3.8,2.4c2.7,2,7.5,6.7,8.1,10.4c-1.1-0.8-2.9-2.6-3.5-0.4c-0.6-1.2-1-2.5-1.6-3.7c-1.7-3.1-4.5-5.7-7.4-7.7
			c-1-0.6-2.3-1.1-3.2-1.8c-0.8-0.7-1.7-1.8-2.2-2.8c-0.4-0.8-0.8-1.6-1.1-2.5c0,0-0.8-0.1-1.6,0.2v-0.1c0,0,0,0-0.1,0.1
			c-0.3,0.1-0.6,0.3-0.8,0.5c-1.4,1.4-3.4,3.5-5.1,5.2l0.7,0.3c0,0-0.1,0.1-0.1,0.2c-0.9,1.8-2,2.6-2.6,2.6s-3.2-0.8-6.4-0.9
			c-3.2-0.1-5.8,0.7-7.5,0.6C68.1,72.3,65,72,63.2,72h-0.4c-1.4,0.1-2.2,0-2.5-0.1c-0.7-0.4-1.7-0.9-2.6-0.9c-0.5,0.2-2.6,1.1-3.8,2
			c-0.2,0.2-0.4,0.4-0.6,0.6c-0.3,0.4-1.5,2.9-0.7,3.2h0.1c0.1,0,0.1-0.1,0.2-0.1c0.2-0.1,0.4-0.3,0.7-0.7c0.3-0.5,0.5-0.8,0.8-1.1
			c0.1-0.1,0.3-0.2,0.4-0.4c0.1-0.1,0.1-0.1,0.2-0.1l0,0c0.3-0.2,0.4-0.2,0.4-0.2c0.2-0.1,0.4-0.1,0.6-0.1c0.4,0,0.9,0.2,1.4,0.6
			c-2-0.3-3.8,0.9-2.6,1.6c0.8-0.2,2.6,0.3,3.5,0.4c0.4,0.1,0.8,0.1,1.1,0.1c0.7,0.1,1.1,0,1.4-0.1c0.5-0.1,0.8-0.3,1.2-0.6V76
			c0.1,0,0.2-0.1,0.3-0.1c1.5-0.4,3,0.7,3,0.7s4.6,1.8,5.7,2.3c1.1,0.6,3.5,2.2,7.4,1.9c2.6-0.1,3.8-0.7,4.4-1.1
			c-0.7,0.6-2.1,1.6-2.9,1.7c0.7,0,3.2-0.3,4.7-1c0.8-0.4,1.3-0.5,1.5-0.5c1.8-5.1,3.7-9.8,4.5-10.6c-0.5,0.7-4.2,7-3.9,17.7
			c0,0.5,0,1,0,1.4c0,2.5,0.4,5.3,0.8,7.6c0.3,2.2,0.6,5,1.3,7.1c0.6,1.6,9.6,11.6,11.7,13.9c-0.2,2.2-7.3-1.2-10.3-8.2
			c-0.2-0.4-0.5-1-0.6-1.5c-0.1-0.3-0.2-0.6-0.3-0.9c-0.1-0.2-0.2-0.5-0.3-0.7c0.1,2.3,0.2,4.4,0.2,6.7c0,2.5-0.7,3.7-1.2,5.7
			c1.8,0.9,3.6,1.7,5.4,2.5c-2.2-0.9-4.1-2-6.5-1.1c-1.7,0.7-3.4,2.5-4,4.1c0.9-0.1,2.5-0.8,3.3,0c-3.1,1.7-7.9,3.3-7.4,8.1
			c0.7-1.6,0.7-2.6,2.7-3.1c1.2-0.3,4.1,0,4.9,0.6c-2.2,1.1-4.3,2.2-6.6,3.4c-0.9,1.7-1.9,5.8-1.4,8.6c0.6,0,1.3,0.1,1.9,0.2
			c-2.1,1.4-2.5,1.2-2.4,4.3c0,2.5,1.3,3.1,1,5.6c-0.2,1.7-0.9,3.9-1,5.9c-0.1,1.1-0.3,2.1-0.2,3.1c0,2.5-0.3,1.3-0.9,2.5
			c-1,2.2,0,6.5,0.6,8.9c1.3,5.4,1.4,1.8,1.4,5.4c-0.1,3,0.4,2.5,2.2,4.3c0.5,0.5,1.2,1.1,1.6,1.7c-2.1-1-4.1-2.2-6.4-2.7
			c0.2,0.5,0.4,1.1,0.6,1.6c-1.5-1-2.6-1.9-5-2.8c-2.7-0.1-3.4,2.1-2.8,4.8c0.5,2,1.9,3.6,3.1,4.7c0.7,0.7,1.4,1.2,2.3,1.6
			c0.8,0.5,1.7,0.7,2.6,1.1c1.9,0.9,2.9,2.2,4.2,3.5c1.5,1.3,4.1,2.2,5.3,0.1c1.4-2.7-1.3-3.7-3.2-4.1c-2.1-0.4-3.8-1.5-3.8-4
			c0.1,0.2,0.2,0.3,0.3,0.6c0.2,0.5,0.5,1.1,0.9,1.5c0.6,0.7,1.1,0.8,2.2,0.9c2.3,0,3.1,0.4,4.8,1.6c0-0.9-0.2-1.7-0.2-2.5
			c-0.6-3-2.5,0-0.8-11.6c0.3-1.9,0.6-2.7,1.1-4.2c0.9-2.7,1.7-5.6,2-8.9c0.4-4.4,0.2-5.6-0.4-9.8c-1.4,0.3-2.7,0.6-4.1,0.7
			c-1.4,0.1-3.2-0.2-4.1-0.7c2.2-0.2,4.8,0,6.8-1.1c0.8-0.4,0.9-0.4,1.1-1.6c0.6-4.8,1.1-4.6,3.9-6.9c1.9-1.7,3.8-3.5,3.4-7.5
			c-0.2-3.1-2.3-4.6-4.2-6.4c1.5,1.3,3.1,2.6,4.6,4c0.4,1,0.6,2.3,0.5,3.8s-0.7,2.4-0.9,3.5c2.2-0.7,4.3-1.4,6.5-2.1
			c1.5-1.3,2.6-2.9,3.6-5.1c-2-2-9-8.5-9.7-11c5,0.7,9.9,1.4,14.8,2.8c2.4,0.6,4.5,1.3,6.6,2.1c1.7,0.7,4.3,1.7,5.8,2.7
			c-1.9-0.6-3.8-1.3-5.6-1.8c-2.2-0.7-15.6-4.4-17.5-4.3c2.2,0.7,4.6,1.5,6.8,2.3s4.1,1.7,6.2,2.9c2,1.1,3.9,2.2,5.6,3.5
			c1.3,1,4.2,3.1,4.8,4.4c-1.6-1.1-3.1-2.2-4.8-3.2c-5.1-2.9-10.5-5.3-16-7.4c2.6,3.5,5.2,7.1,8.1,10.3c1.6,1.8,1.6,1.6,2.4,1.5
			c0.5-0.1,1.3-0.2,2.8,0.2c0.9,0.2,2,0.4,2.8,0.8c-0.8-0.2-1.6-0.3-2.4-0.4c3.1,3.7,6,13.5,11.2,16.5c3.1,1.8,4.8-0.5,6.6-2.6
			c1.9-2.2,3.8-2.3,4.7-5.6c0.6-2.6,0.2-3.9,0.1-6.4c1.4,1.9,0.7,5,0.6,7.1c1.6-2.3,3.3-4.6,5-6.8c2-2.7,3.5-3.2,5-6.6
			c-0.3,1.2-0.6,2.4-1,3.6c4-0.5,2.8-0.4,6.8,0.8C157.4,139.6,156.6,136.9,156.1,135.4z M141.3,106.7c0.2-0.2,0.4-0.1,0.8,0.1
			c1.2,0.5,1.3,0.7,2.2,1.7c-0.5-0.3-0.5-0.4-1.5-0.5h-0.2C141.8,108,140.9,107.2,141.3,106.7z"/>
		<path class="st2" d="M105.5,174.2c-6.3-0.1-11.5,5.2-11.6,11.8s4.9,12.1,11.2,12.2s11.6-5.1,11.7-11.8
			C116.9,179.8,111.8,174.3,105.5,174.2z"/>
	</g>
</g>
</svg>
