<?xml version="1.0" encoding="utf-8"?>
<!-- Generator: Adobe Illustrator 22.0.1, SVG Export Plug-In . SVG Version: 6.00 Build 0)  -->
<svg version="1.1" id="Слой_1" xmlns="http://www.w3.org/2000/svg" xmlns:xlink="http://www.w3.org/1999/xlink" x="0px" y="0px"
	 viewBox="0 0 116.5 92.1" style="enable-background:new 0 0 116.5 92.1;" xml:space="preserve">
<style type="text/css">
	.st0{fill:#002A5F;}
	.st1{fill:#00A7E5;}
	.st2{fill:#D7D9DB;}
	.st3{fill:#FBC300;}
	.st4{fill:none;stroke:#AD7B00;stroke-width:0.2401;stroke-linecap:round;stroke-miterlimit:22.9256;}
	.st5{fill:none;stroke:#00A7E5;stroke-width:0.2401;stroke-linecap:round;stroke-miterlimit:22.9256;}
	.st6{fill:none;stroke:#504F53;stroke-width:0.2401;stroke-linecap:round;stroke-miterlimit:22.9256;}
	.st7{fill:none;stroke:#002A5F;stroke-width:0.2401;stroke-linecap:round;stroke-miterlimit:22.9256;}
</style>
<path class="st0" d="M65.1,62.7l5.5,12.1c-6.4,2.9-13.6,3.6-20.5,2.1l2.9-13c1.3,0.3,2.7,0.4,4.1,0.4C60,64.5,62.7,63.8,65.1,62.7"
	/>
<path class="st1" d="M76.5,43.4l20-1.7c-0.4-4.5-1.5-8.8-3.4-12.9C84.1,8.9,60.7,0.1,40.8,9.1l8.3,18.3c2.4-1.1,5.2-1.7,8-1.7
	C67.3,25.6,75.7,33.4,76.5,43.4"/>
<path class="st2" d="M65.2,62.7l6.8,15C85.8,71.4,94.2,57.1,92.9,42l-16.4,1.4c0,0.5,0.1,1.1,0.1,1.6C76.6,52.9,71.9,59.7,65.2,62.7
	"/>
<path class="st3" d="M43.8,59.2L26.2,77.9C17.2,69.4,12,57.5,12,45.1C12,20.2,32.2,0,57.1,0v25.7c-10.7,0-19.4,8.7-19.4,19.4
	C37.7,50.6,40.1,55.6,43.8,59.2"/>
<polyline class="st4" points="0.1,12.8 20.6,12.8 27.7,20.9 "/>
<polyline class="st5" points="111.7,17.2 91.2,17.2 84.1,25.3 "/>
<polyline class="st6" points="116.4,62.5 96,62.5 88.9,54.5 "/>
<polyline class="st7" points="95.7,92 75.3,92 60.8,72.5 "/>
</svg>
