<svg xmlns="http://www.w3.org/2000/svg" xmlns:xlink="http://www.w3.org/1999/xlink" viewBox="0 0 419 419"><defs><path id="a" d="M0 0h419v419H0z"/></defs><clipPath id="b"><use xlink:href="#a" overflow="visible"/></clipPath><path d="M419 209.5C419 325.2 325.2 419 209.5 419S0 325.2 0 209.5 93.8 0 209.5 0 419 93.8 419 209.5" clip-path="url(#b)" fill="#fff"/><defs><path id="c" d="M0 0h419v419H0z"/></defs><clipPath id="d"><use xlink:href="#c" overflow="visible"/></clipPath><path d="M259.2 278.2l74.3 37.2c.1.1.3.1.3.2V156.8l-74.6 121.4z" clip-path="url(#d)" fill="#004a9d"/><defs><path id="e" d="M0 0h419v419H0z"/></defs><clipPath id="f"><use xlink:href="#e" overflow="visible"/></clipPath><path clip-path="url(#f)" fill="#004a9d" d="M254.6 103.5l-52.8 85.3 50.7 82.4 79.4-129z"/><defs><path id="g" d="M0 0h419v419H0z"/></defs><clipPath id="h"><use xlink:href="#g" overflow="visible"/></clipPath><path clip-path="url(#h)" fill="#004a9d" d="M171.2 234.2l68.8 34.4-68.8-111.8z"/><defs><path id="i" d="M0 0h419v419H0z"/></defs><clipPath id="j"><use xlink:href="#i" overflow="visible"/></clipPath><path d="M85.1 274.8c0 1.2 1.2 3 2.2 3.5l74.1 37c.1.1.3.1.3.2V143.2l-76.6-38.4v170z" clip-path="url(#j)" fill="#004a9d"/></svg>