<svg xmlns="http://www.w3.org/2000/svg" viewBox="0 0 419 419"><circle cx="209.5" cy="209.5" r="209.5" fill="#fff"/><path d="M286.9 215.2c-5.4-7-13.5-11.8-24.4-14.4 13.9-7.1 20-19.1 18.3-36-.6-6.1-2.3-11.5-5.1-16s-6.7-8.1-11.5-10.9c-4.8-2.7-10.1-4.8-15.8-6.3-5.7-1.4-12.2-2.5-19.6-3.1V93.3h-21.5v34.2c-3.7 0-9.4.1-17 .3V93.3h-21.5v35.2c-3.1.1-7.6.1-13.5.1l-29.6-.1v22.9h15.5c7.1 0 11.2 3.2 12.4 9.5V201c.9 0 1.7 0 2.2.1h-2.2v56.2c-.7 4.7-3.4 7.1-8.1 7.1H130l-4.3 25.6h27.9c1.8 0 4.3 0 7.7.1 3.4 0 5.9.1 7.5.1v35.6h21.5v-35.3c3.9.1 9.6.1 17 .1v35.1h21.5v-35.6c7.6-.4 14.4-1.1 20.3-2.1s11.6-2.6 17-4.8c5.4-2.2 9.9-4.9 13.5-8.2 3.6-3.3 6.6-7.4 9-12.4s3.9-10.8 4.5-17.5c1.3-12.9-.8-22.9-6.2-29.9zM190.6 153c.7 0 2.5 0 5.5-.1 3 0 5.5-.1 7.5-.1s4.7.1 8.1.3c3.4.3 6.3.7 8.6 1.1 2.3.5 4.9 1.2 7.7 2.3s5 2.4 6.7 3.9 3.1 3.5 4.3 5.9 1.7 5.1 1.7 8.2c0 2.6-.4 5-1.3 7.1-.8 2.1-2.1 3.9-3.8 5.4-1.7 1.4-3.4 2.7-5.2 3.8s-4 1.9-6.8 2.6c-2.7.7-5.1 1.2-7.2 1.5-2 .4-4.6.6-7.7.8-3.1.1-5.4.2-7 .3h-6.5c-2.7 0-4.4-.1-4.8-.1l.2-42.9zm58.8 95.1c-.9 2.1-2 4-3.4 5.6s-3.2 3-5.5 4.2-4.5 2.2-6.6 2.9-4.7 1.4-7.7 2-5.7 1-8 1.2-5 .4-8.2.6c-3.2.1-5.6.2-7.4.2s-4 0-6.7-.1c-2.7 0-4.4-.1-5.2-.1v-47.3c.7 0 3 0 6.6-.1 3.7-.1 6.7-.1 9-.1s5.5.1 9.6.4c4.1.3 7.5.7 10.3 1.3s5.8 1.4 9.1 2.6c3.3 1.2 6 2.6 8 4.3s3.8 3.8 5.2 6.4c1.4 2.6 2.1 5.6 2.1 8.9.1 2.5-.4 4.9-1.2 7.1z" fill="#004a9d"/></svg>