<svg xmlns="http://www.w3.org/2000/svg" xmlns:xlink="http://www.w3.org/1999/xlink" viewBox="0 0 419 419"><defs><path id="a" d="M0 0h419v419H0z"/></defs><clipPath id="b"><use xlink:href="#a" overflow="visible"/></clipPath><path d="M419 209.5c0 95.8-64.2 176.5-152 201.5-18.3 5.2-37.6 8-57.5 8-16.4 0-32.4-1.9-47.7-5.5C69.1 391.9 0 308.8 0 209.5 0 93.8 93.8 0 209.5 0S419 93.8 419 209.5" clip-path="url(#b)" fill="#fff"/><defs><path id="c" d="M0 0h419v419H0z"/></defs><clipPath id="d"><use xlink:href="#c" overflow="visible"/></clipPath><path d="M336.6 266c-11.4 24.1-32.4 36.3-57.3 42.6-8.4 2.1-17 3.4-26.1 5.2 11.9 12.4 13.8 27.6 13.5 43.4-.2 16.4-.2 32.8-.2 49.1 0 1.7.2 3.2.5 4.6-18.3 5.2-37.6 8-57.5 8-16.4 0-32.4-1.9-47.7-5.5.3-.9.5-1.8.6-2.9.5-13.3.1-26.7.1-39.6-9.7.4-18.9 1.7-28.1 1.1-20.1-1.2-35.6-9.8-43.7-29.5-4.6-11.5-11.8-21.5-23-28.1-2.1-1.3-3.9-3.1-5.5-4.9-2.1-2.4-1.7-4.9 1.6-5.6 3.3-.7 6.9-1.1 10.2-.5 12.9 2.4 21.8 10.5 28.6 21.2 13.5 21.2 34.2 27.7 57.5 17.9 1.3-.5 3-1.9 3.2-3.1 1.9-9.4 5.4-18 12.5-25.5-7.9-1.5-15.2-2.5-22.3-4.2-20.6-4.8-39.1-13.3-52.6-30.4-11-13.9-16.1-30.1-18.4-47.4-3.6-27.1-.4-52.5 18.2-74.1.9-1.1 1.4-3.3 1-4.7-4.7-15.2-3.9-30.3.7-45.4 2.4-7.9 3.1-8.3 11.2-7.2l1.5.3c16.2 2.7 30.1 10.5 43.8 18.9 1.8 1.1 4.7 1.8 6.7 1.3 32.8-7.9 65.4-7.9 98.2 0 1.9.5 4.4-.2 6.3-1.2 7.5-3.9 14.6-8.4 22.1-12.1 8.8-4.3 18-7.5 28-7.3 1.8 0 4.4 1.7 5 3.2 6 15.9 7.3 32.1 2.5 48.6-.5 1.8.3 4.3 1.2 6 4.7 8.7 11.3 16.6 14.3 25.8 9.1 28 5.7 55.7-6.6 82" clip-path="url(#d)" fill="#004a9d"/></svg>