<svg id="Слой_1" xmlns="http://www.w3.org/2000/svg" viewBox="0 0 419 419"><style>.st2{fill:#fff}</style><path d="M347.8 209.2c0 11.1-5.8 21.2-15.1 27 .5 3.1.8 6.2.8 9.4 0 46.1-55.8 83.6-124.5 83.6S84.8 291.6 84.8 245.5c0-3.3.3-6.5.9-9.7C76.6 230 71 220 71 209.1c0-17.6 14.3-31.9 31.9-31.9 7.7 0 15 2.8 20.8 7.8 21.2-13.5 49.4-21.9 80.6-22.8l22.4-76.5 56.2 10.5c1.6-2.9 4-5.4 6.8-7.2s6.1-2.9 9.7-3.1c11.1-.6 20.6 8 21.2 19.1s-8 20.6-19.1 21.2-20.6-8-21.2-19.1V106l-46.7-8.7-19 65c31.1.9 59.2 9.4 80.3 22.9 5.8-5.1 13.2-7.9 21-7.9 17.6 0 31.9 14.3 31.9 31.9z" fill="#004a9d"/><path d="M377.8 334.3c1-1.4 2-2.7 3-4.1-1 1.3-2 2.7-3 4.1zm39.1-95.1c-4.4 30.9-15.5 59.6-31.8 84.6 16.3-25 27.4-53.8 31.8-84.6z" fill="#02458a"/><path class="st2" d="M38.2 330.1c1 1.4 2 2.8 3 4.1-1-1.3-2-2.7-3-4.1zM2.1 239.2c4.4 30.9 15.5 59.6 31.8 84.6-16.3-25-27.4-53.8-31.8-84.6z"/><path class="st2" d="M209.5 0C93.8 0 0 93.8 0 209.5c0 10.1.7 20 2.1 29.7 4.4 30.9 15.5 59.6 31.8 84.6.9 1.4 1.9 2.8 2.8 4.2l1.5 2.1c1 1.4 2 2.8 3 4.1 6.6 8.9 13.9 17.2 21.8 25 37.8 37 89.5 59.8 146.5 59.8s108.8-22.8 146.5-59.8c7.9-7.7 15.2-16.1 21.8-25 1-1.4 2-2.7 3-4.1l1.5-2.1c1-1.4 1.9-2.8 2.8-4.2 16.3-25 27.4-53.7 31.8-84.6 1.4-9.7 2.1-19.6 2.1-29.7C419 93.8 325.2 0 209.5 0zM102.9 177.2c7.7 0 15 2.8 20.8 7.8 21.2-13.5 49.4-21.9 80.6-22.8l22.4-76.5 56.2 10.5c1.6-2.9 4-5.4 6.8-7.2s6.1-2.9 9.7-3.1c11.1-.6 20.6 8 21.2 19.1s-8 20.6-19.1 21.2-20.6-8-21.2-19.1V106l-46.7-8.7-19 65c31.1.9 59.2 9.4 80.3 22.9 5.8-5.1 13.2-7.9 21-7.9 17.6 0 31.9 14.3 31.9 31.9 0 11.1-5.8 21.2-15.1 27 .5 3.1.8 6.2.8 9.4 0 46.1-55.8 83.6-124.5 83.6S84.8 291.6 84.8 245.5c0-3.3.3-6.5.9-9.7C76.6 230 71 220 71 209.1c0-17.6 14.3-31.9 31.9-31.9z"/><path class="st2" d="M248.3 276.9c-.1.1-12 11.9-39.2 11.9-26.7 0-37.4-11.3-37.7-11.7-1.8-2.1-4.9-2.3-7-.5s-2.3 5-.5 7.1c.5.6 13.3 15.1 45.3 15.1 31.8 0 45.9-14.3 46.5-14.9 1.9-2 1.8-5.1-.1-7-2.2-2-5.4-2-7.3 0zm3.3-65.7c10.8 0 19.6 8.8 19.6 19.6s-8.8 19.6-19.6 19.6-19.6-8.8-19.6-19.6 8.8-19.6 19.6-19.6zm-81.9 0c10.8 0 19.6 8.8 19.6 19.6s-8.8 19.6-19.6 19.6-19.6-8.8-19.6-19.6 8.8-19.6 19.6-19.6z"/></svg>