<svg xmlns="http://www.w3.org/2000/svg" xmlns:xlink="http://www.w3.org/1999/xlink" viewBox="0 0 419 419"><defs><path id="a" d="M0 0h419v419H0z"/></defs><clipPath id="b"><use xlink:href="#a" overflow="visible"/></clipPath><path d="M419 209.5C419 325.2 325.2 419 209.5 419S0 325.2 0 209.5 93.8 0 209.5 0 419 93.8 419 209.5" clip-path="url(#b)" fill="#fff"/><defs><path id="c" d="M0 0h419v419H0z"/></defs><clipPath id="d"><use xlink:href="#c" overflow="visible"/></clipPath><path d="M329.3 216.1v84.1h-48.8v-78.5c0-19.7-7.1-33.2-24.7-33.2-13.5 0-21.5 9.1-25 17.8-1.3 3.1-1.6 7.5-1.6 11.9v81.9h-48.8s.7-132.9 0-146.7h48.8v20.8c-.1.2-.2.3-.3.5h.3v-.5c6.5-10 18.1-24.2 44-24.2 32 .1 56.1 21 56.1 66.1m-200-133.3c-16.7 0-27.6 10.9-27.6 25.3 0 14.1 10.6 25.4 27 25.4h.3c17 0 27.6-11.3 27.6-25.4-.3-14.4-10.6-25.3-27.3-25.3m-24.7 217.4h48.8V153.5h-48.8v146.7z" clip-path="url(#d)" fill="#004a9d"/></svg>