<svg xmlns="http://www.w3.org/2000/svg" xmlns:xlink="http://www.w3.org/1999/xlink" viewBox="0 0 419 419"><defs><path id="a" d="M0 0h419v419H0z"/></defs><clipPath id="b"><use xlink:href="#a" overflow="visible"/></clipPath><path d="M419 209.5c0 95.8-64.2 176.5-152 201.5-18.3 5.2-37.6 8-57.5 8-16.4 0-32.4-1.9-47.7-5.5C69.1 391.9 0 308.8 0 209.5 0 93.8 93.8 0 209.5 0S419 93.8 419 209.5" clip-path="url(#b)" fill="#fff"/><defs><path id="c" d="M0 0h419v419H0z"/></defs><clipPath id="d"><use xlink:href="#c" overflow="visible"/></clipPath><path d="M122.7 177.1c2.7 1.9 10.9 7.6 24.6 17.1 13.7 9.5 24.1 16.8 31.4 21.9.8.6 2.5 1.8 5.1 3.7s4.8 3.4 6.5 4.6c1.7 1.2 3.8 2.5 6.2 3.9s4.7 2.5 6.9 3.2 4.2 1.1 6 1.1h.2c1.8 0 3.8-.4 6-1.1 2.2-.7 4.5-1.8 6.9-3.2s4.5-2.7 6.2-3.9 3.9-2.7 6.5-4.6c2.6-1.9 4.3-3.1 5.1-3.7 7.4-5.1 26.1-18.1 56.1-39 5.8-4.1 10.7-9 14.6-14.8s5.9-11.8 5.9-18.1c0-5.3-1.9-9.8-5.7-13.6-3.8-3.8-8.3-5.6-13.5-5.6H121.2c-6.2 0-10.9 2.1-14.2 6.2-3.3 4.2-5 9.4-5 15.6 0 5 2.2 10.5 6.6 16.4 4.4 5.9 9.1 10.6 14.1 13.9" clip-path="url(#d)" fill="#004a9d"/><defs><path id="e" d="M0 0h419v419H0z"/></defs><clipPath id="f"><use xlink:href="#e" overflow="visible"/></clipPath><path d="M305 189.9c-26.2 17.8-46.1 31.5-59.7 41.4-4.6 3.4-8.3 6-11.1 7.9s-6.6 3.8-11.3 5.8-9.1 2.9-13.2 2.9h-.2c-4.1 0-8.5-1-13.2-2.9-4.7-2-8.5-3.9-11.3-5.8-2.8-1.9-6.5-4.5-11.1-7.9-10.8-7.9-30.7-21.7-59.6-41.4-4.6-3-8.6-6.5-12.1-10.4v95.2c0 5.3 1.9 9.8 5.6 13.6 3.8 3.8 8.3 5.6 13.6 5.6H298c5.3 0 9.8-1.9 13.6-5.6 3.8-3.8 5.6-8.3 5.6-13.6v-95.2c-3.7 3.9-7.7 7.3-12.2 10.4" clip-path="url(#f)" fill="#004a9d"/></svg>