<svg xmlns="http://www.w3.org/2000/svg" xmlns:xlink="http://www.w3.org/1999/xlink" viewBox="0 0 419 419"><defs><path id="a" d="M0 0h419v419H0z"/></defs><clipPath id="b"><use xlink:href="#a" overflow="visible"/></clipPath><path d="M419 209.5c0 95.8-64.2 176.5-152 201.5-18.3 5.2-37.6 8-57.5 8-16.4 0-32.4-1.9-47.7-5.5C69.1 391.9 0 308.8 0 209.5 0 93.8 93.8 0 209.5 0S419 93.8 419 209.5" clip-path="url(#b)" fill="#fff"/><defs><path id="c" d="M0 0h419v419H0z"/></defs><clipPath id="d"><use xlink:href="#c" overflow="visible"/></clipPath><path d="M277.3 127.5H141.7c-26.6 0-48.2 21.6-48.2 48.2v67.8c0 26.6 21.6 48.2 48.2 48.2h135.6c26.6 0 48.2-21.6 48.2-48.2v-67.8c-.1-26.7-21.6-48.2-48.2-48.2m-32.6 85.3L181.3 243c-1.7.8-3.6-.4-3.6-2.3v-62.4c0-1.9 2-3.1 3.7-2.3l63.4 32.1c1.8 1.1 1.8 3.8-.1 4.7" clip-path="url(#d)" fill="#004a9d"/></svg>