<svg xmlns="http://www.w3.org/2000/svg" xmlns:xlink="http://www.w3.org/1999/xlink" viewBox="0 0 419 419"><defs><path id="a" d="M0 0h419v419H0z"/></defs><clipPath id="b"><use xlink:href="#a" overflow="visible"/></clipPath><path d="M167.6 209.5c0-9.1 3-17.6 7.9-24.4 7.6-10.6 20-17.5 34-17.5s26.4 6.9 34 17.5c4.9 6.9 7.9 15.3 7.9 24.4 0 23.1-18.8 41.9-42 41.9s-41.9-18.8-41.8-41.9" clip-path="url(#b)" fill="#fff"/><defs><path id="c" d="M0 0h419v419H0z"/></defs><clipPath id="d"><use xlink:href="#c" overflow="visible"/></clipPath><path clip-path="url(#d)" fill="#fff" d="M260.8 158.3l-.1-40.4 35.1-.1h5.3v40.4z"/><defs><path id="e" d="M0 0h419v419H0z"/></defs><clipPath id="f"><use xlink:href="#e" overflow="visible"/></clipPath><path d="M282.6 305.4H136.4c-12.6 0-22.8-10.2-22.8-22.8V185h35.6c-3.1 7.6-4.8 15.8-4.8 24.4 0 35.9 29.2 65.2 65.2 65.2s65.2-29.2 65.2-65.2c0-8.6-1.7-16.9-4.8-24.4h35.6v97.6c-.2 12.6-10.4 22.8-23 22.8" clip-path="url(#f)" fill="#fff"/><defs><path id="g" d="M0 0h419v419H0z"/></defs><clipPath id="h"><use xlink:href="#g" overflow="visible"/></clipPath><path d="M417.6 185.4c-11-96.4-87.6-173-184-184-7.9-.9-16-1.4-24.1-1.4s-16.2.5-24.1 1.4c-96.4 11-173 87.6-184 184-.9 7.9-1.4 16-1.4 24.1v2.7c0 .9 0 1.8.1 2.7 0 .8 0 1.5.1 2.2 0 1.1.1 2.2.1 3.3.1 1.7.2 3.5.3 5.2.1 1.8.3 3.6.5 5.4 9.1 89.6 74.8 162.5 160.7 182.5 1.2.3 2.3.5 3.5.8l1.5.3c1 .2 2.1.4 3.1.6 1.7.3 3.4.6 5.2.9 2.6.4 5.2.8 7.8 1.1 1.6.2 3.1.4 4.7.5 1.1.1 2.1.2 3.2.3.7.1 1.4.1 2 .2 1.1.1 2.2.2 3.3.2.6.1 1.3.1 2 .1.8 0 1.5.1 2.3.1.9 0 1.8.1 2.7.1h11.4c.9 0 1.8 0 2.7-.1 1.1 0 2.2-.1 3.2-.1 1.5-.1 3-.2 4.4-.3l3.3-.3h.3c1.1-.1 2.1-.2 3.1-.3.8-.1 1.5-.2 2.3-.3.8-.1 1.7-.2 2.5-.3 1.7-.2 3.5-.5 5.2-.7.9-.1 1.7-.3 2.6-.4 1.5-.3 3.1-.5 4.6-.8 1.2-.2 2.4-.5 3.5-.7l.7-.2c4.8-1 9.5-2.2 14.2-3.5 78.9-22.5 138.8-90 150.1-173v-.1c.2-1.4.4-2.9.5-4.3.2-1.8.4-3.5.5-5.3.1-.9.2-1.7.2-2.6.1-.9.1-1.8.2-2.7 0-.8.1-1.5.1-2.3 0-.7.1-1.5.1-2.2s.1-1.5.1-2.2c.1-1.3.1-2.7.1-4v-2.7c0-7.9-.5-16-1.4-23.9M136.4 328.7c-25.4 0-46.1-20.6-46.1-46V136.4c0-25.4 20.7-46.1 46.1-46.1h146.2c25.4 0 46.1 20.7 46.1 46.1v146.2c0 25.4-20.7 46-46.1 46H136.4v.1z" clip-path="url(#h)" fill="#fff"/><defs><path id="i" d="M0 0h419v419H0z"/></defs><clipPath id="j"><use xlink:href="#i" overflow="visible"/></clipPath><path d="M251.5 209.5c0 23.1-18.8 41.9-42 41.9s-41.9-18.8-41.9-41.9c0-9.1 3-17.6 7.9-24.4 7.6-10.6 20-17.5 34-17.5s26.4 6.9 34 17.5c5 6.8 8 15.3 8 24.4" clip-path="url(#j)" fill="#fff"/><defs><path id="k" d="M0 0h419v419H0z"/></defs><clipPath id="l"><use xlink:href="#k" overflow="visible"/></clipPath><path d="M282.6 90.4H136.4c-25.4 0-46.1 20.6-46.1 46v146.2c0 25.4 20.6 46.1 46.1 46.1h146.2c25.4 0 46.1-20.6 46.1-46.1V136.4c0-25.4-20.7-46-46.1-46m13.2 27.4h5.3v40.4l-40.3.1-.1-40.4 35.1-.1zm-120.3 67.3c7.6-10.6 20-17.5 34-17.5s26.4 6.9 34 17.5c4.9 6.9 7.9 15.3 7.9 24.4 0 23.1-18.8 41.9-42 41.9s-41.9-18.8-41.9-41.9c.1-9.1 3-17.6 8-24.4m129.9 97.5c0 12.6-10.3 22.8-22.8 22.8H136.4c-12.6 0-22.8-10.2-22.8-22.8V185h35.6c-3.1 7.6-4.8 15.8-4.8 24.4 0 35.9 29.2 65.2 65.2 65.2s65.2-29.3 65.2-65.2c0-8.6-1.7-16.9-4.8-24.4h35.6v97.6h-.2z" clip-path="url(#l)" fill="#004a9d"/><defs><path id="m" d="M0 0h419v419H0z"/></defs><clipPath id="n"><use xlink:href="#m" overflow="visible"/></clipPath><path d="M305.4 185.1v97.6c0 12.6-10.3 22.8-22.8 22.8H136.4c-12.6 0-22.8-10.2-22.8-22.8v-97.6h35.6c-3.1 7.6-4.8 15.8-4.8 24.4 0 35.9 29.2 65.2 65.2 65.2s65.2-29.3 65.2-65.2c0-8.6-1.7-16.9-4.8-24.4h35.4z" clip-path="url(#n)" fill="#fff"/></svg>