<?xml version="1.0" encoding="iso-8859-1"?>
<!-- Generator: Adobe Illustrator 19.0.0, SVG Export Plug-In . SVG Version: 6.00 Build 0)  -->
<svg version="1.1" id="Capa_1" xmlns="http://www.w3.org/2000/svg" xmlns:xlink="http://www.w3.org/1999/xlink" x="0px" y="0px"
	 viewBox="0 0 512.267 512.267" style="enable-background:new 0 0 512.267 512.267;" xml:space="preserve">
<path style="fill:#E8EAE9;" d="M362.667,0.133h-262.4L0,100.4v379.733c0,18.133,13.867,32,32,32h330.667c18.133,0,32-13.867,32-32
	v-448C394.667,14,380.8,0.133,362.667,0.133z"/>
<g>
	<path style="fill:#CED6E0;" d="M0,100.4h68.267c18.133,0,32-13.867,32-32V0.133L0,100.4z"/>
	<rect x="42.667" y="437.467" style="fill:#CED6E0;" width="309.333" height="32"/>
	<rect x="42.667" y="362.8" style="fill:#CED6E0;" width="309.333" height="32"/>
	<rect x="42.667" y="288.133" style="fill:#CED6E0;" width="309.333" height="32"/>
	<rect x="42.667" y="213.467" style="fill:#CED6E0;" width="309.333" height="32"/>
	<rect x="42.667" y="138.8" style="fill:#CED6E0;" width="142.933" height="32"/>
</g>
<rect x="219.733" y="42.8" style="fill:#66C6B9;" width="132.267" height="132.267"/>
<path style="fill:#415A6B;" d="M506.667,422.533L506.667,422.533c-6.4,6.4-18.133,6.4-24.533,0L377.6,318l24.533-24.533L506.667,398
	C514.133,404.4,514.133,415.067,506.667,422.533z"/>
<rect x="333.711" y="239.647" transform="matrix(-0.7071 -0.7071 0.7071 -0.7071 428.9484 750.8359)" style="fill:#344A5E;" width="72.533" height="93.866"/>
<g>
	<path style="fill:#415A6B;" d="M448,281.733L448,281.733c-5.333,5.333-14.933,5.333-20.267,0l-52.267-52.267
		c-5.333-5.333-5.333-14.933,0-20.267l0,0c5.333-5.333,14.933-5.333,20.267,0L448,261.467
		C453.333,267.867,453.333,276.4,448,281.733z"/>
	<path style="fill:#415A6B;" d="M366.933,362.8L366.933,362.8c-5.333,5.333-14.933,5.333-20.267,0L294.4,310.533
		c-5.333-5.333-5.333-14.933,0-20.267l0,0c5.333-5.333,14.933-5.333,20.267,0l52.267,52.267
		C372.267,347.867,372.267,357.467,366.933,362.8z"/>
</g>
<polygon style="fill:#F05540;" points="72.533,360.667 146.133,512.133 160,471.6 200.533,485.467 126.933,334 "/>
<polygon style="fill:#F3705A;" points="128,360.667 55.467,512.133 40.533,471.6 0,485.467 73.6,334 "/>
<path style="fill:#FFD15C;" d="M200.533,324.4c0,9.6-22.4,16-25.6,24.533c-3.2,8.533,11.733,26.667,6.4,34.133
	c-5.333,7.467-26.667-1.067-35.2,5.333c-7.467,5.333-6.4,28.8-14.933,32c-8.533,3.2-21.333-16-30.933-16c-9.6,0-22.4,19.2-30.933,16
	c-8.533-3.2-7.467-25.6-14.933-32c-7.467-5.333-28.8,3.2-35.2-5.333c-5.333-7.467,8.533-25.6,6.4-34.133
	C22.4,340.4,0,335.067,0,324.4c0-9.6,22.4-16,25.6-24.533s-11.733-26.667-6.4-34.133s26.667,1.067,35.2-5.333
	c7.467-5.333,6.4-28.8,14.933-32c8.533-3.2,21.333,16,30.933,16s22.4-19.2,30.933-16c8.533,3.2,7.467,25.6,14.933,32
	c7.467,5.333,28.8-3.2,35.2,5.333c5.333,7.467-8.533,25.6-6.4,34.133C178.133,309.467,200.533,314.8,200.533,324.4z"/>
<circle style="fill:#F7B64C;" cx="100.267" cy="324.4" r="51.2"/>
<g>
</g>
<g>
</g>
<g>
</g>
<g>
</g>
<g>
</g>
<g>
</g>
<g>
</g>
<g>
</g>
<g>
</g>
<g>
</g>
<g>
</g>
<g>
</g>
<g>
</g>
<g>
</g>
<g>
</g>
</svg>
