<svg id="Слой_1" xmlns="http://www.w3.org/2000/svg" viewBox="0 0 416.6 142"><style>.st0{fill:#004a9d}.st1{fill:#fff}</style><path class="st0" d="M114.5 23.2l-.8-9.1-8.1-3.9C104.7 9.8 84 0 58.2 0 32.5 0 11.7 9.8 10.8 10.2l-8.2 3.9-.7 9.1c-.2 3-2.3 30.2-1.8 45.3.3 9.6 4.9 42.9 50.3 69l7.8 4.5 7.8-4.5c45.5-26.1 50-59.4 50.3-69 .5-15.1-1.6-42.3-1.8-45.3z"/><path class="st1" d="M112 23.4l-.6-7.6-6.8-3.3c-.9-.4-21.1-10-46.3-10S12.8 12 12 12.4l-6.9 3.3-.6 7.6c-.1 1.2-2.3 29.6-1.8 45.1.3 9.3 4.7 41.5 49.1 66.9l6.6 3.8 6.6-3.8c44.3-25.4 48.8-57.6 49.1-66.9.2-15.4-2-43.8-2.1-45z"/><path class="st0" d="M110.3 23.5l-.5-6.6-6-2.8c-.8-.4-20.8-9.8-45.6-9.8s-44.8 9.4-45.6 9.8l-6 2.8-.5 6.6C6 24.7 3.8 52.9 4.3 68.4c.3 9.1 4.6 40.5 48.2 65.5l5.7 3.3 5.7-3.3c43.6-25 47.9-56.4 48.2-65.5.5-15.5-1.7-43.7-1.8-44.9z"/><path class="st1" d="M101.3 24.2l-.1-1.5-1.3-.6c-.2-.1-18.8-8.9-41.7-8.9-23 0-41.6 8.8-41.7 8.9l-1.3.6-.1 1.5c0 .3-2.3 28.8-1.8 43.9.3 7.9 4.2 35.3 43.7 58l1.3.7 1.3-.7c39.5-22.7 43.5-50.1 43.7-58 .3-15.1-1.9-43.6-2-43.9z"/><path class="st0" d="M100.1 24.3l-.1-.7-.7-.3c-.2-.1-18.7-8.8-41.2-8.8s-41 8.7-41.2 8.8l-.7.3-.1.7c0 .3-2.3 28.7-1.8 43.7.3 7.7 4.1 34.6 43.1 56.9l.6.4.6-.4c39-22.3 42.8-49.2 43.1-56.9.7-14.9-1.6-43.4-1.6-43.7z"/><path class="st1" d="M58.2 123.9c-31.5-18-42-40.8-42.4-55.9-.5-15.1 1.8-43.6 1.8-43.6s18.2-8.7 40.6-8.7 40.6 8.7 40.6 8.7 2.3 28.5 1.8 43.6c-.5 15.1-11 37.8-42.4 55.9z"/><path class="st0" d="M85.4 74.3c-1.2-3.4-2.4-2.4-4.1-3-1.6-.6-1.3-1.1-1.8-1.7-1-1.1-3.9-.8-2.6 3 .2.6.2.8.8 1 .7.2.9.1 1.6 0-.2.1-.3.2-.5.2-.3 0-.7 0-1-.1-.3 0-.5-.1-.6-.1-1.1.5-2.1 1-3.2 1.5-.6.2-1.2.4-1.5.9-.5.8.2 1.1.7 1.4 1.9 1.2 1.7 2.8.5 2.2-.7-.3-1.4-2.2-1.7-3.1-.7.4-1.4.9-2.1 1.3-.9.3-1.9.4-2.6-.2.9-.1 1.7-.2 2.6-.3.7-.2 1.2-1 1.8-1.3-.5-3.9-1.2-7.1-3.7-10.1l-.9-.9c-.5-.4-.4-.4-1.1-.1-1.9.8-6.7 1.8-8.4.8 4.3-.2 6-.9 9.9-2.3 1-.4 2-.7 2.9-1.2-2.4-.6-4.4-1.2-6.3-2.9-1.2-1.1-3.4-3.9-3.8-5.5.6.6 1.2 1.3 2 1.7.3.2.8.4 1.4.3.4-.1.9-.3.9-.8.1-1.4-2.7-2.8-3.6-3.6 1.2.1 2.6.7 2.6-1.1-.8.1-1.7.2-2.4-.2 1.9-.9 2.3-.7 2.7-2.1.2-.7.1-.6-.3-1-.7-1-1.8-3.4-1.6-4.7 1 2.7 1.4 4.3 3.7 6.2 1 .8 2.5 1.6 2.8 3.1.2-.5.2-1.2.6-1.6.2.3.3.6.5.9.6 1.3 1.7 2.9 2.7 3.9 1.3 1.2 3.1 2.2 4 3.8.3.6.4 1.3 1 1.7.7.4 1.3 0 2.1 0 .2-.1.2-.2.3-.4.8 1.4.7.9 1 .5 0-.1.3 0 .6-.1.1-.1.4-.5.5-1 0-.2-.1-.9-.2-1.1-.3-1.6-1.3-1.6-2.5-1.6-.4 0-.8 0-1.2-.1-1.6-.3-1.3-2.8-3-5.2-.4-.6-1.9-2.6-2.4-2.9-.9.3-1.8.6-2.6 1 1-.5 3.1-1.8 3.7-2.6l-3.3-3.3c-.6-.7-1-1.2-1.5-1.8-.4-.5-1.1-1.3-1.6-1.6.4.9.8 1.7 1.1 2.7.1.5.2 1.1.3 1.6.1.8 0 1.1-.4 1.5-.3-.1-.5-.2-.8-.3 0-.9.1-1.7.2-2.5-.1-1.5-1.3-3.9-2.7-4.3-.4-.1-.7-.1-1-.3-.7-.3-.8-1.1-1.2-1.5-.5-.5-.9-.8-1.5-1.2-1.3-.8-1.3-.1-1.8-.9-.4-.6-.9-1.1-1.2-1.5-.1.1-.1.2-.2.3-.1.3-.2.5-.5.7.1-.8.1-1.6.2-2.4.5-.7 1.2-1.3 1.7-2 1.9-2.5 2-3.9 2.1-7.2-.6.8-1.1 1.6-2.1 2 .2-.3.4-.6.7-.9.6-.9.8-2.5.8-3.6-.7 1-1.2 2.1-2.4 2.4.3-.5.5-1 .7-1.5-2.6.6-1.8.4-4.4.3-1.7-.1-2.8.5-3.7 1.3-.8.7-1.6 1.8-1.8 3.4-.1 1.5.1 3.5.6 4.5 0-.2.1-.3.1-.5.1-.4.2-.9.4-1.3-.1 1.8-.3 4 .7 5.5.7 1 .6 1.9 1.5 2.8.6.5.8.4 1.7.5 1.3 0 1.7-.9 2.3-1.9-.7 2-.3 1.8-2 2.6.7.4 1.4.9 2.1 1.3 1.5 1.1 4.1 3.7 4.4 5.7-.6-.4-1.6-1.4-1.9-.2-.3-.7-.5-1.4-.9-2-.9-1.7-2.4-3.1-4.1-4.2-.5-.3-1.2-.6-1.7-1-.4-.4-.9-1-1.2-1.6-.2-.4-.4-.9-.6-1.4 0 0-.4-.1-.9.1-.2.1-.3.1-.5.3-.8.7-1.9 1.9-2.8 2.8l.4.2s0 .1-.1.1c-.5 1-1.1 1.4-1.4 1.4-.3 0-1.7-.5-3.5-.5-1.7 0-3.2.4-4.1.3-.7-.1-2.4-.2-3.4-.2h-.2c-.8.1-1.2 0-1.4-.1-.4-.2-.9-.5-1.4-.5-.3.1-1.4.6-2.1 1.1l-.3.3c-.2.2-.8 1.6-.4 1.8h.2l.4-.4c.1-.3.3-.4.4-.6l.2-.2c.1 0 .1-.1.1-.1.1-.1.2-.1.2-.1h.3c.2 0 .5.1.8.3-1.1-.2-2.1.5-1.4.9.4-.1 1.4.2 1.9.2.2 0 .4.1.6.1.4 0 .6 0 .8-.1.3-.1.5-.2.7-.3h.1c.8-.2 1.6.4 1.6.4s2.5 1 3.1 1.3c.6.3 1.9 1.2 4.1 1.1 1.4-.1 2.1-.4 2.4-.6-.4.3-1.2.9-1.6.9.4 0 1.7-.2 2.6-.6.4-.2.7-.3.8-.3 1-2.8 2-5.4 2.5-5.8-.2.4-2.3 3.8-2.1 9.7v.8c0 1.3.2 2.9.4 4.2.2 1.2.3 2.7.7 3.9.3.9 5.3 6.3 6.4 7.6-.1 1.2-4-.6-5.7-4.5-.1-.2-.2-.6-.3-.8 0-.2-.1-.3-.2-.5-.1-.1-.1-.3-.2-.4.1 1.3.1 2.4.1 3.7s-.4 2-.7 3.1c1 .5 2 .9 2.9 1.4-1.2-.5-2.2-1.1-3.6-.6-1 .4-1.9 1.4-2.2 2.3.5-.1 1.4-.4 1.8 0-1.7 1-4.3 1.8-4.1 4.5.4-.9.4-1.4 1.5-1.7.6-.2 2.2 0 2.7.3L43.2 73c-.5.9-1 3.2-.8 4.7.3 0 .7.1 1 .1-1.2.8-1.4.6-1.3 2.3 0 1.4.7 1.7.6 3.1-.1.9-.5 2.1-.6 3.2-.1.6-.1 1.2-.1 1.7 0 1.3-.2.7-.5 1.4-.5 1.2 0 3.6.3 4.9.7 3 .8 1 .8 2.9 0 1.7.2 1.4 1.2 2.4.3.3.7.6.9.9-1.1-.6-2.2-1.2-3.5-1.5l.3.9c-.8-.5-1.4-1-2.8-1.5-1.5-.1-1.9 1.1-1.5 2.6.3 1.1 1 1.9 1.7 2.6.4.4.8.7 1.2.9.5.3.9.4 1.4.6 1.1.5 1.6 1.2 2.3 1.9.8.7 2.3 1.2 2.9 0 .8-1.5-.7-2-1.7-2.2-1.2-.2-2.1-.8-2.1-2.2.1.1.1.2.2.3.1.3.3.6.5.8.3.4.6.5 1.2.5 1.2 0 1.7.2 2.6.9 0-.5-.1-.9-.1-1.4-.3-1.6-1.3 0-.4-6.3.2-1 .3-1.5.6-2.3.5-1.5.9-3.1 1.1-4.9.2-2.4.1-3-.2-5.4-.7.2-1.5.4-2.2.4s-1.7-.1-2.3-.4c1.2-.1 2.6 0 3.8-.6.5-.2.5-.2.6-.9.3-2.6.6-2.5 2.1-3.8 1.1-.9 2.1-1.9 1.9-4.1C52.2 73.8 51 73 50 72c.8.7 1.7 1.4 2.5 2.2.2.6.3 1.3.3 2.1-.1.8-.4 1.3-.5 1.9l3.6-1.2c.8-.7 1.4-1.6 2-2.8-1.1-1.1-4.9-4.7-5.3-6 2.7.4 5.4.8 8.1 1.5 1.3.3 2.5.7 3.6 1.2.9.4 2.3 1 3.2 1.5-1-.3-2.1-.7-3-1-1.2-.4-8.6-2.4-9.6-2.4 1.2.4 2.5.8 3.7 1.3s2.2 1 3.4 1.6c1.1.6 2.1 1.2 3 1.9.7.6 2.3 1.7 2.6 2.4-.9-.6-1.7-1.2-2.6-1.8-2.8-1.6-5.7-2.9-8.8-4.1 1.4 1.9 2.8 3.9 4.5 5.6.9 1 .9.9 1.3.8.3 0 .7-.1 1.5.1.5.1 1.1.2 1.5.5-.4-.1-.9-.2-1.3-.2 1.7 2 3.3 7.4 6.1 9.1 1.7 1 2.6-.3 3.6-1.4 1.1-1.2 2.1-1.2 2.6-3.1.4-1.4.1-2.1 0-3.5.8 1.1.4 2.7.3 3.9.9-1.3 1.8-2.5 2.7-3.7 1.1-1.5 1.9-1.7 2.7-3.6-.2.7-.4 1.3-.5 2 2.2-.3 1.5-.2 3.7.4 1.2-.7.8-2.1.5-2.9zm-8.1-15.8c.1-.1.2 0 .4 0 .7.3.7.4 1.2 1-.3-.1-.3-.2-.8-.3H78c-.4 0-.9-.4-.7-.7zm297.9-.8c-17 0-31.3 9.8-37.8 24.2-2.4-14.8-12.6-24-27.2-24-4.4 0-8.5 1-12.4 3v-1.5H193.7V13.8h-34.8v87.3c0 5.1-.7 7.9-8 7.9h-20.5v33h28.7c5.1 0 9.8-1 14.1-2.9 4.3-1.9 8-4.6 11-7.9s5.3-7.2 6.9-11.6c1.6-4.2 2.4-8.8 2.4-13.6v.3c0 5 .8 9.7 2.5 13.9 1.7 4.3 4 8.1 7.1 11.3 3.1 3.3 6.8 5.8 11.1 7.7 4.3 1.8 9.1 2.7 14.3 2.7 5.1 0 9.9-.9 14.2-2.7 4.4-1.8 8.1-4.4 11.2-7.7 3-3.2 5.4-7.1 7.1-11.4.8-2 1.4-4.1 1.8-6.3v25.8h34.9V96.7c0-3.3 1-4.9 2.9-4.9 1.6 0 2.4 1.6 2.4 4.9v42.9h34.9V119c6.8 13.7 20.6 22.9 37 22.9 23.4 0 41.7-18.5 41.7-42.1s-18.1-42.1-41.4-42.1zm-.2 33.2c4.4 0 7.1 4.6 7.1 9 0 4.5-2.1 9-6.8 9-4.4 0-7.1-4.6-7.1-9 0-4.5 2.1-9 6.8-9z"/><path d="M86.6 78.3l-.2.2c-.5.3-1 .4-1.6.3-.5-.1-.8-.3-1.1-.4-.6-.2-.6-.2-1.7-.1h-.5c-.3.3-.5.5-.8.9-1 1.3-1.9 2.5-2.7 3.7-.2.3-.4.5-.7.6-.5.8-1 1.2-1.5 1.6-.3.2-.5.4-.8.7l-.2.3c-.9 1-2.7 3.2-5.5 1.5-2.2-1.3-3.6-4-4.9-6.5-.5-1-1-2.1-1.5-2.7h-.3c-1.5.2-2-.4-2.9-1.4-.2-.3-.5-.5-.7-.8-.5.7-1 1.4-1.6 1.9-.2.1-.4.3-.6.3L55 79l-1.8.6c-.1 0-.2 0-.3.1l-1.1 1.1-.5.4c-.8.7-.8.7-1 2.3 0 .1 0 .2-.1.4.1.2.2.4.2.7.3 2.4.4 3.2.2 5.7-.2 2.2-.8 4.1-1.2 5.3l-.1.4c-.2.6-.3.9-.4 1.6-.5 3.3-.4 4-.3 4.2.3.4.6.8.7 1.6v.2c0 .2 0 .4.1.6 0 .3.1.5.1.8 0 .5-.2 1-.5 1.3 0 .4-.1.9-.4 1.5-.5.9-1.2 1.4-2.1 1.6-.2 0-.4.1-.6.1-1 0-2-.4-2.9-1.2-.3-.2-.4-.4-.6-.6-.5-.5-.8-.8-1.3-1-.3-.1-.4-.2-.6-.2-.3-.1-.7-.3-1.1-.5-.5-.3-1-.7-1.5-1.1-1.1-1.1-1.9-2.2-2.2-3.4-.4-1.5-.2-2.8.6-3.7.6-.8 1.6-1.1 2.7-1.1.2 0 .3 0 .5.1.5.2 1 .4 1.4.6h.2v-.7c-.2-.4-.5-1-.7-2.1-.5-1.9-1-4.3-.3-5.9l.3-.6v-.2c0-.5 0-1 .1-1.5v-.3c.1-.7.2-1.4.3-2 .1-.4.2-.8.2-1.2s0-.5-.1-.9c-.2-.5-.4-1.1-.4-2 0-1 .1-1.6.3-2.2v-.1c-.1-.4-.1-.9-.1-1.5-9.1 1.1-16.8 2.8-22.8 4.5 4.7 13.6 16.5 29.7 40 43.1 23.5-13.5 35.3-29.6 40-43.2-3.6-.8-7.4-1.6-11.3-2.3zM58 110h-.9c-4-.3-7.1-3.8-7-8v-1c.1-.3.1-.7.2-1 0-.2.1-.3.2-.5s.1-.3.2-.5.1-.3.2-.5.2-.4.3-.5c.1-.2.2-.4.4-.5.2-.2.4-.5.6-.7l.3-.3c.3-.3.6-.5.9-.8.4-.3.8-.5 1.2-.7 1.1-.5 2.3-.8 3.6-.8 4.4 0 7.9 3.5 7.9 7.9-.2 4.3-3.7 7.9-8.1 7.9z" fill="#67b34d"/><path class="st0" d="M58.1 95.8c-3.4-.1-6.3 2.7-6.3 6.1-.1 3.4 2.7 6.3 6.1 6.3 3.4.1 6.3-2.7 6.3-6.1.1-3.4-2.7-6.2-6.1-6.3z"/><path class="st1" d="M232.4 105.1c0 2.2-.4 4-1.1 5.2-.3.5-.9 1.2-2.7 1.2-1.7 0-2.3-.6-2.7-1.2-.7-1.2-1.1-2.9-1.1-5.2V63.3h-27.4v43c0 4.5.7 8.7 2.2 12.5 1.5 3.8 3.6 7.2 6.3 10.1 2.7 2.9 6 5.1 9.8 6.7s8.1 2.4 12.8 2.4c4.6 0 8.9-.8 12.7-2.4 3.9-1.6 7.2-3.9 9.9-6.8 2.7-2.8 4.8-6.3 6.3-10.1 1.5-3.9 2.2-8.1 2.2-12.5v-43h-27.4v41.9h.2zm77.8-43.3c-6.1 0-11.5 2.2-16.2 6.7v-5.2h-27.2v72.5H294V96.7c0-5.5 2.5-8.8 6.7-8.8 5.6 0 6.2 6.1 6.2 8.8v39.1h27.2V89.1c0-16.8-9.2-27.3-23.9-27.3zm65-.2c-21.2 0-37.8 16.8-37.8 38.3s16.5 38.3 37.6 38.3c21.2 0 37.8-16.8 37.8-38.3s-16.5-38.3-37.6-38.3zm0 51.1c-6.1 0-10.9-5.6-10.9-12.8 0-6.2 3.3-12.8 10.7-12.8 6.1 0 10.9 5.6 10.9 12.8 0 6.1-3.3 12.8-10.7 12.8zm-212.4-8.9c0 5.9-3.3 9.1-8.3 9.1h-20.1v25.3h24.8c4.5 0 8.8-.9 12.6-2.5 3.8-1.7 7.1-4 9.7-7 2.6-2.9 4.7-6.4 6.2-10.3 1.4-3.9 2.2-8.2 2.2-12.7V17.8h-27v86h-.1z"/><path class="st0" d="M235 105.1c0 2.7-.5 4.9-1.5 6.5s-2.6 2.4-4.9 2.4-3.9-.8-4.9-2.4c-1-1.6-1.5-3.8-1.5-6.5V65.9H200v40.5c0 4.2.7 8.1 2.1 11.6 1.4 3.5 3.3 6.6 5.8 9.2s5.5 4.7 9 6.1c3.5 1.5 7.4 2.2 11.8 2.2 4.3 0 8.2-.7 11.7-2.2s6.5-3.5 9-6.1 4.4-5.7 5.8-9.3c1.4-3.6 2.1-7.4 2.1-11.6V65.8h-22.2l-.1 39.3zm75.2-40.8c-8.9 0-14.7 5.4-18.8 11v-9.5h-22v67.4h22V96.7c0-7.3 3.9-11.3 9.3-11.3 5.2 0 8.8 4 8.8 11.3v36.5h22V89.1c0-15.3-8-24.8-21.3-24.8zm65-.1c-20.4 0-35.2 16.3-35.2 35.7 0 19.7 14.7 35.7 35 35.7 20.4 0 35.2-16.3 35.2-35.7 0-19.7-14.6-35.7-35-35.7zm0 51c-7.9 0-13.5-7.1-13.5-15.4 0-8.4 5.2-15.4 13.3-15.4 7.9 0 13.5 7.1 13.5 15.4 0 8.5-5.2 15.4-13.3 15.4zm-209.8-10c0 6.7-3.7 10.2-11.1 10.2h-17.4v20.1h22.3c4.2 0 8.1-.8 11.5-2.3 3.5-1.5 6.4-3.7 8.9-6.4 2.4-2.7 4.3-5.9 5.7-9.5 1.3-3.6 2-7.6 2-11.8V20.1h-21.9v85.1z"/></svg>