<?xml version="1.0" standalone="no"?>
<!DOCTYPE svg PUBLIC "-//W3C//DTD SVG 20010904//EN"
 "http://www.w3.org/TR/2001/REC-SVG-20010904/DTD/svg10.dtd">
<svg version="1.0" xmlns="http://www.w3.org/2000/svg"
 width="700.000000pt" height="700.000000pt" viewBox="0 0 700.000000 700.000000"
 preserveAspectRatio="xMidYMid meet">
<metadata>
Created by potrace 1.11, written by Peter Selinger 2001-2013
</metadata>
<g transform="translate(0.000000,700.000000) scale(0.100000,-0.100000)"
fill="#000000" stroke="none">
<path d="M5731 6708 c-239 -38 -373 -304 -266 -525 15 -29 47 -73 72 -98 l45
-46 -68 -117 c-301 -517 -502 -923 -617 -1242 -41 -115 -54 -155 -71 -232 -6
-27 -8 -28 -74 -28 -119 0 -162 -46 -162 -172 0 -158 50 -350 133 -512 206
-403 617 -656 1067 -656 326 0 625 124 855 355 212 211 330 472 351 776 6 79
4 101 -11 132 -26 55 -69 77 -149 77 -45 0 -68 4 -70 13 -2 6 -14 50 -27 97
-80 295 -317 792 -639 1345 -49 85 -90 158 -90 163 0 4 20 27 44 51 122 120
140 327 42 466 -85 119 -222 176 -365 153z m172 -1050 c276 -484 487 -921 556
-1154 11 -39 21 -74 21 -78 0 -3 -308 -6 -685 -6 -563 0 -685 2 -685 13 0 55
134 385 252 622 153 307 417 785 432 785 3 0 51 -82 109 -182z m792 -1576
c-44 -188 -135 -346 -274 -475 -80 -74 -133 -109 -233 -157 -139 -67 -219 -83
-398 -83 -140 0 -163 2 -244 27 -168 51 -301 132 -417 252 -126 133 -203 280
-243 467 l-6 27 914 0 914 0 -13 -58z"/>
<path d="M3430 6374 c-195 -38 -352 -167 -418 -344 -11 -31 -23 -77 -27 -102
l-7 -47 -72 -16 c-39 -8 -370 -80 -736 -159 l-665 -143 -40 41 c-137 140 -370
144 -509 9 -86 -84 -121 -174 -113 -293 6 -95 32 -155 97 -224 27 -29 50 -56
50 -60 0 -4 -51 -96 -113 -204 -333 -577 -556 -1054 -626 -1337 l-17 -70 -77
-5 c-63 -5 -81 -10 -103 -30 -49 -47 -57 -75 -51 -176 15 -224 78 -412 202
-600 330 -499 986 -676 1530 -414 238 114 462 345 567 585 70 160 96 265 105
421 5 103 4 115 -16 147 -28 46 -75 67 -150 67 l-60 0 -11 43 c-81 317 -290
771 -617 1340 -63 110 -119 207 -126 218 -10 16 -6 24 31 59 55 53 71 79 96
152 l21 61 708 153 c389 83 718 155 730 158 18 4 27 -1 40 -23 9 -16 33 -48
52 -71 l35 -42 0 -1944 0 -1944 -190 0 c-214 0 -242 -6 -281 -61 -23 -33 -24
-41 -27 -236 l-3 -203 -211 0 -210 0 -38 -38 c-49 -49 -52 -75 -48 -402 3
-282 6 -296 72 -336 30 -18 75 -19 1308 -19 1275 0 1277 0 1305 21 60 44 63
60 63 377 0 411 16 390 -295 397 l-210 5 -5 202 c-5 184 -7 204 -26 230 -41
56 -70 63 -276 63 l-188 0 0 1946 0 1947 33 41 c18 23 43 58 55 78 26 46 62
160 62 198 0 19 6 31 18 34 9 3 145 33 302 67 157 33 298 68 314 77 47 27 68
63 68 117 0 74 -55 134 -124 137 -20 1 -170 -28 -334 -63 l-297 -64 -16 25
c-73 112 -179 196 -291 231 -65 20 -192 32 -240 23z m170 -2921 l0 -1873 -90
0 -90 0 0 1873 0 1872 90 0 90 0 0 -1872z m-2292 1217 c180 -314 365 -673 461
-897 57 -135 121 -313 121 -340 0 -11 -122 -13 -685 -13 -377 0 -685 3 -685 8
1 42 99 296 195 502 133 286 480 919 495 903 5 -4 48 -78 98 -163z m806 -1567
c-12 -69 -72 -224 -113 -292 -166 -277 -468 -451 -786 -451 -258 0 -472 88
-656 270 -132 130 -215 276 -252 443 l-15 67 914 0 915 0 -7 -37z m1976 -1908
l0 -105 -585 0 -585 0 0 105 0 105 585 0 585 0 0 -105z m510 -515 l0 -120
-1090 0 -1090 0 0 120 0 120 1090 0 1090 0 0 -120z"/>
<path d="M5032 6315 c-29 -7 -63 -20 -77 -29 -92 -60 -79 -193 22 -238 44 -20
49 -20 126 -4 44 9 91 23 104 32 57 37 79 123 48 185 -34 65 -106 82 -223 54z"/>
</g>
</svg>
