<?xml version="1.0" encoding="utf-8"?>
<!-- Generator: Adobe Illustrator 22.0.1, SVG Export Plug-In . SVG Version: 6.00 Build 0)  -->
<svg version="1.1" id="Слой_1" xmlns="http://www.w3.org/2000/svg" xmlns:xlink="http://www.w3.org/1999/xlink" x="0px" y="0px"
	 viewBox="0 0 150.4 150.4" style="enable-background:new 0 0 150.4 150.4;" xml:space="preserve">
<style type="text/css">
	.st0{fill:#002169;}
</style>
<g>
	<path class="st0" d="M20.2,15.8c0,2.2-1.8,3.9-4,3.9c-2.2,0-4-1.8-4-3.9s1.8-4,4-4C18.4,11.8,20.2,13.6,20.2,15.8z"/>
</g>
<g>
	<path class="st0" d="M30,15.8c0,2.2-1.8,3.9-4,3.9c-2.2,0-4-1.8-4-3.9s1.8-4,4-4C28.2,11.8,30,13.6,30,15.8z"/>
</g>
<g>
	<path class="st0" d="M39.8,15.8c0,2.2-1.8,3.9-4,3.9c-2.2,0-4-1.8-4-3.9s1.8-4,4-4C38.1,11.8,39.8,13.6,39.8,15.8z"/>
</g>
<g>
	<path class="st0" d="M150.4,13.8v86c0,7.6-6.2,13.8-13.8,13.8H97.3c-2.2,0-4-1.8-4-4c0-2.2,1.8-4,4-4h39.3c3.2,0,5.9-2.6,5.9-5.9
		v-86c0-3.2-2.6-5.9-5.9-5.9H13.8c-3.2,0-5.9,2.6-5.9,5.9v86c0,1.2,0.4,2.3,1,3.3c1,1.5,0.9,3.5-0.3,4.8l-0.1,0.1
		c-0.8,0.9-1.9,1.4-3.1,1.3c-1.2-0.1-2.3-0.7-3-1.7c-1.6-2.3-2.5-5-2.5-7.8v-86C0,6.2,6.2,0,13.8,0h122.8
		C144.2,0,150.4,6.2,150.4,13.8z"/>
	<path class="st0" d="M134.1,31.6H16.2c-2.2,0-4-1.8-4-4c0-2.2,1.8-4,4-4h117.9c2.2,0,3.9,1.8,3.9,4
		C138.1,29.8,136.3,31.6,134.1,31.6z"/>
</g>
<g>
	<path class="st0" d="M133.2,77.6c0,2.2-1.8,4-4,4h-19.6c-2.2,0-4-1.8-4-4c0-2.2,1.8-3.9,4-3.9h19.6
		C131.4,73.7,133.2,75.4,133.2,77.6z"/>
</g>
<g>
	<path class="st0" d="M133.2,87.5c0,2.2-1.8,3.9-4,3.9h-19.6c-2.2,0-4-1.8-4-3.9s1.8-4,4-4h19.6C131.4,83.5,133.2,85.3,133.2,87.5z"
		/>
</g>
<g>
	<path class="st0" d="M93.4,41.8c-2.9-2.9-6.9-4.7-11.2-4.7c-8.8,0-15.9,7.1-15.9,15.9c0,8.8,7.1,15.9,15.9,15.9s15.9-7.1,15.9-15.9
		C98.1,48.7,96.3,44.7,93.4,41.8z M82.2,61.9c-4.9,0-8.8-3.9-8.8-8.8c0-4.8,4-8.8,8.8-8.8c4.9,0,8.8,3.9,8.8,8.8
		C91,57.9,87,61.9,82.2,61.9z"/>
</g>
<g>
	<path class="st0" d="M87.8,52.4c0,0.7-0.3,1.3-0.8,1.8l-3.5,3.5c-0.5,0.5-1.1,0.8-1.8,0.8c-0.7,0-1.3-0.3-1.8-0.8l-2.7-2.3
		c-0.5-0.5-0.9-1.1-0.9-1.8c0-0.7,0.3-1.4,0.8-1.9c0.9-0.9,2.5-1,3.5-0.1l1.1,0.9l1.8-1.8c1-1,2.6-1,3.6,0
		C87.6,51.1,87.8,51.8,87.8,52.4z"/>
</g>
<g>
	<path class="st0" d="M130.6,41.8c-2.9-2.9-6.9-4.7-11.2-4.7c-8.8,0-15.9,7.1-15.9,15.9c0,8.8,7.1,15.9,15.9,15.9
		s15.9-7.1,15.9-15.9C135.3,48.7,133.5,44.7,130.6,41.8z M119.4,61.9c-4.9,0-8.8-3.9-8.8-8.8c0-4.8,3.9-8.8,8.8-8.8s8.8,3.9,8.8,8.8
		C128.2,57.9,124.2,61.9,119.4,61.9z"/>
</g>
<g>
	<path class="st0" d="M125.1,52.4c0,0.7-0.3,1.3-0.8,1.8l-3.5,3.5c-0.5,0.5-1.2,0.8-1.8,0.8c-0.7,0-1.3-0.3-1.8-0.7l-2.7-2.4
		c-0.5-0.5-0.9-1.1-0.9-1.8c0-0.7,0.3-1.4,0.8-1.9c0.9-0.9,2.5-1,3.5-0.1l1.1,0.9l1.8-1.8c1-1,2.6-1,3.6,0
		C124.8,51.1,125.1,51.8,125.1,52.4z"/>
</g>
<g>
	<path class="st0" d="M96,77.6c0,2.2-1.8,4-4,4H72.4c-2.2,0-4-1.8-4-4c0-2.2,1.8-3.9,4-3.9H92C94.2,73.7,96,75.4,96,77.6z"/>
</g>
<g>
	<path class="st0" d="M96,87.5c0,2.2-1.8,3.9-4,3.9H72.4c-2.2,0-4-1.8-4-3.9s1.8-4,4-4H92C94.2,83.5,96,85.3,96,87.5z"/>
</g>
<g>
	<path class="st0" d="M142.3,124.6l-4.9-7.4c-0.7-1.1-2-1.8-3.3-1.8H92.4c-4.2-7.3-13.1-12.3-22.1-12.3h0c-4.4,0-8.7,1.2-12.4,3.6
		l-1-0.4c-0.2-0.1-0.3-0.1-0.5-0.2l-0.1-0.1c-1.8-0.9-3.1-2.5-3.7-4.4c-0.6-1.9-0.5-4,0.5-5.8c0.3-0.6,0.7-1.1,1.1-1.6
		c3.5-3.9,5.4-8.9,5.4-14.2V71c0-8.4-4.8-16.2-12.1-19.8c-2.6-1.3-5.5-2-8.4-2.1c-2.8-0.1-5.5,0.3-8,1.3c-2.2,0.8-4.2,2-6,3.5
		c-4.9,4-7.8,10-7.8,16.4v9.8c0,5.2,1.9,10.3,5.4,14.1c2.3,2.6,2.6,6.4,0.7,9.3l-0.1,0.1c-0.7,1-1.6,1.9-2.7,2.4l-0.1,0.1
		c-0.2,0.1-0.3,0.2-0.5,0.3l-11.1,4.4c-5.3,2.1-8.6,7.1-8.6,12.8v22.8c0,2.2,1.8,4,4,4h70.4l0.1,0c7.4-1.1,14.2-5.8,17.9-12.3h12.3
		c1.1,0,2-0.4,2.8-1.2l2.1-2.1l2.1,2.1c0.8,0.8,1.7,1.2,2.8,1.2h4.9c1.1,0,2.1-0.4,2.8-1.2l2.1-2.1l2.1,2.1c0.7,0.8,1.7,1.2,2.8,1.2
		h4.9c1.3,0,2.5-0.7,3.3-1.8l4.9-7.4C143.2,127.6,143.2,125.9,142.3,124.6z M130.9,130.2l-3.7-3.8c-1.5-1.5-4-1.5-5.6,0l-3.8,3.8
		h-1.6l-3.8-3.8c-1.5-1.5-4-1.5-5.6,0l-3.8,3.8H89.9c-1.6,0-3.1,1-3.7,2.5c-2.3,5.6-9.1,9.8-16,9.8c-8.7,0-15.7-7-15.7-15.7
		c0-8.7,7-15.7,15.7-15.7c6.8,0,13.7,4.2,16,9.8c0.6,1.5,2.1,2.5,3.7,2.5H132l2.3,3.4l-2.3,3.4H130.9z M7.9,142.4v-18.9
		c0-2.4,1.4-4.6,3.7-5.5l11.1-4.4c0.5-0.2,0.9-0.4,1.3-0.6c2.4-1.2,4.4-2.9,5.8-5.1c4-5.9,3.5-13.7-1.3-19c-0.9-0.9-1.6-2-2.1-3.1
		l0-0.1c-0.8-1.8-1.3-3.7-1.3-5.7v-9.8c0-4,1.8-7.7,4.9-10.3c1.1-0.9,2.4-1.6,3.7-2.1c1.6-0.6,3.3-0.9,5-0.8
		c1.8,0.1,3.5,0.5,5.1,1.3c4.7,2.3,7.7,7.3,7.7,12.7v9.1c0,3.3-1.2,6.4-3.4,8.8C45.4,92,44,96,44.2,100.1c0.2,4.1,2,7.9,5.1,10.7
		c0.7,0.6,1.4,1.2,2.2,1.6c-3.4,4.4-5.1,9.9-4.8,15.6c0.3,5.4,2.4,10.5,6,14.5H7.9z"/>
</g>
<g>
	<path class="st0" d="M71.4,117.9c-4.9,0-8.9,4-8.9,8.9c0,4.9,4,8.9,8.9,8.9c4.9,0,8.9-4,8.9-8.9S76.3,117.9,71.4,117.9z
		 M71.4,127.7c-0.5,0-1-0.4-1-0.9c0-0.5,0.4-1,1-1c0.5,0,1,0.4,1,1C72.3,127.3,71.9,127.7,71.4,127.7z"/>
</g>
</svg>
