<?xml version="1.0" encoding="utf-8"?>
<!-- Generator: Adobe Illustrator 22.0.1, SVG Export Plug-In . SVG Version: 6.00 Build 0)  -->
<svg version="1.1" id="Режим_изоляции"
	 xmlns="http://www.w3.org/2000/svg" xmlns:xlink="http://www.w3.org/1999/xlink" x="0px" y="0px" viewBox="0 0 149.4 149.4"
	 style="enable-background:new 0 0 149.4 149.4;" xml:space="preserve">
<style type="text/css">
	.st0{fill:#002169;}
</style>
<g>
	<g>
		<path class="st0" d="M52.9,9.8L52.9,9.8c0.6,0,1,0.4,1,1v0c0,0.6-0.4,1-1,1h0c-0.6,0-1-0.4-1-1v0C51.9,10.3,52.4,9.8,52.9,9.8z"/>
	</g>
	<g>
		<path class="st0" d="M52.9,12.9c-1.1,0-2.1-0.9-2.1-2.1c0-1.1,0.9-2.1,2.1-2.1c1.1,0,2.1,0.9,2.1,2.1C55,12,54.1,12.9,52.9,12.9z
			 M52.9,10.7C52.9,10.7,52.8,10.8,52.9,10.7C52.8,10.9,53,10.9,52.9,10.7C53,10.8,53,10.7,52.9,10.7z"/>
	</g>
</g>
<g>
	<g>
		<path class="st0" d="M47.5,9.8L47.5,9.8c0.6,0,1,0.4,1,1v0c0,0.6-0.4,1-1,1h0c-0.6,0-1-0.4-1-1v0C46.5,10.3,46.9,9.8,47.5,9.8z"/>
	</g>
	<g>
		<path class="st0" d="M47.5,12.9c-1.1,0-2.1-0.9-2.1-2.1c0-1.1,0.9-2.1,2.1-2.1c1.1,0,2.1,0.9,2.1,2.1C49.6,12,48.6,12.9,47.5,12.9
			z M47.5,10.7C47.4,10.7,47.4,10.8,47.5,10.7C47.4,10.9,47.6,10.9,47.5,10.7C47.6,10.8,47.5,10.7,47.5,10.7z"/>
	</g>
</g>
<g>
	<g>
		<path class="st0" d="M42.1,9.8L42.1,9.8c0.6,0,1,0.4,1,1v0c0,0.6-0.4,1-1,1h0c-0.6,0-1-0.4-1-1v0C41.1,10.3,41.5,9.8,42.1,9.8z"/>
	</g>
	<g>
		<path class="st0" d="M42.1,12.9c-1.1,0-2.1-0.9-2.1-2.1c0-1.1,0.9-2.1,2.1-2.1c1.1,0,2.1,0.9,2.1,2.1C44.1,12,43.2,12.9,42.1,12.9
			z M42.1,10.7C42,10.7,42,10.8,42.1,10.7C42,10.9,42.1,10.9,42.1,10.7C42.1,10.8,42.1,10.7,42.1,10.7z"/>
	</g>
</g>
<g>
	<g>
		<g>
			<path class="st0" d="M70.8,36.4h2.9v12.2l-0.6-0.2c-0.5-0.1-1.1-0.1-1.7,0l-0.6,0.2V36.4z M121.4,0H37.8c-4.6,0-8.4,3.8-8.4,8.4
				v21.1H8.4c-4.6,0-8.4,3.8-8.4,8.4V141c0,4.6,3.8,8.4,8.4,8.4H87c4.6,0,8.4-3.8,8.4-8.4v-0.5c0-1.9-1.5-3.5-3.5-3.5
				c-0.9,0-1.8,0.4-2.4,1c-0.7,0.7-1,1.5-1,2.4v0.5c0,0.8-0.7,1.5-1.5,1.5H8.4c-0.8,0-1.5-0.6-1.5-1.5V37.8c0-0.8,0.6-1.5,1.5-1.5
				h55.5V55c0,1.6,0.9,2.9,2.3,3.4c1.5,0.5,3.1,0,4-1.3l2.1-3l2,3c0.6,0.9,1.6,1.5,2.7,1.6c1,0.1,2-0.3,2.7-1.1c0.6-0.7,1-1.6,1-2.6
				V36.4H87c0.8,0,1.5,0.7,1.5,1.5v24.7c0,1.9,1.5,3.6,3.3,3.7c1,0,1.9-0.3,2.6-0.9c0.7-0.7,1.1-1.5,1.1-2.5V37.8
				c0-4.6-3.8-8.4-8.4-8.4H36.4v-7.8h86.4v36.9c0,1.9,1.4,3.4,3.1,3.6c1,0.1,1.9-0.2,2.7-0.9c0.7-0.7,1.1-1.6,1.1-2.6V8.4
				C129.7,3.8,126,0,121.4,0z M122.8,14.7H36.4V8.4c0-0.8,0.7-1.5,1.5-1.5h83.5c0.8,0,1.5,0.6,1.5,1.5V14.7z"/>
		</g>
	</g>
</g>
<g>
	<g>
		<g>
			<path class="st0" d="M31.5,61.4c0,1.9-1.5,3.5-3.5,3.5h-9.8c-1.9,0-3.5-1.5-3.5-3.5c0-1.9,1.5-3.5,3.5-3.5H28
				C29.9,57.9,31.5,59.5,31.5,61.4z"/>
		</g>
		<g>
			<path class="st0" d="M28,64.9h-9.8c-1.9,0-3.5-1.5-3.5-3.5c0-1.9,1.5-3.5,3.5-3.5H28c1.9,0,3.5,1.6,3.5,3.5
				C31.5,63.3,29.9,64.9,28,64.9z"/>
		</g>
	</g>
</g>
<g>
	<g>
		<g>
			<path class="st0" d="M80.6,72.2c0,1.9-1.5,3.5-3.5,3.5h-59c-1.9,0-3.5-1.6-3.5-3.5c0-1.9,1.5-3.5,3.5-3.5h59
				C79,68.8,80.6,70.3,80.6,72.2z"/>
		</g>
		<g>
			<path class="st0" d="M77.1,75.7h-59c-1.9,0-3.5-1.6-3.5-3.5c0-1.9,1.5-3.5,3.5-3.5h59c1.9,0,3.5,1.5,3.5,3.5
				C80.6,74.1,79,75.7,77.1,75.7z"/>
		</g>
	</g>
</g>
<g>
	<g>
		<g>
			<path class="st0" d="M33.8,89.4h-9.8c-1.9,0-3.5-1.5-3.5-3.5c0-1.9,1.5-3.5,3.5-3.5h9.8c1.9,0,3.5,1.6,3.5,3.5
				C37.2,87.9,35.7,89.4,33.8,89.4z"/>
		</g>
		<g>
			<path class="st0" d="M37.2,86c0,1.9-1.5,3.5-3.5,3.5h-9.8c-1.9,0-3.5-1.5-3.5-3.5c0-1.9,1.5-3.5,3.5-3.5h9.8
				C35.7,82.5,37.2,84.1,37.2,86z"/>
		</g>
	</g>
</g>
<g>
	<g>
		<g>
			<path class="st0" d="M72.1,89.4H47.6c-1.9,0-3.5-1.5-3.5-3.5c0-1.9,1.6-3.5,3.5-3.5h24.6c1.9,0,3.5,1.6,3.5,3.5
				C75.6,87.9,74,89.4,72.1,89.4z"/>
		</g>
		<g>
			<path class="st0" d="M75.6,86c0,1.9-1.5,3.5-3.5,3.5H47.6c-1.9,0-3.5-1.5-3.5-3.5c0-1.9,1.6-3.5,3.5-3.5h24.6
				C74,82.5,75.6,84.1,75.6,86z"/>
		</g>
	</g>
</g>
<g>
	<g>
		<g>
			<path class="st0" d="M68.7,96.8c0,1.9-1.5,3.5-3.5,3.5H25.9c-1.9,0-3.5-1.6-3.5-3.5c0-1.9,1.5-3.5,3.5-3.5h39.3
				C67.1,93.3,68.7,94.9,68.7,96.8z"/>
		</g>
		<g>
			<path class="st0" d="M65.2,100.3H25.9c-1.9,0-3.5-1.6-3.5-3.5c0-1.9,1.5-3.5,3.5-3.5h39.3c1.9,0,3.5,1.5,3.5,3.5
				C68.7,98.7,67.1,100.3,65.2,100.3z"/>
		</g>
	</g>
</g>
<g>
	<g>
		<g>
			<path class="st0" d="M62.2,111.1H22.9c-1.9,0-3.5-1.5-3.5-3.4c0-1.9,1.5-3.5,3.5-3.5h39.3c1.9,0,3.5,1.5,3.5,3.5
				C65.7,109.5,64.1,111.1,62.2,111.1z"/>
		</g>
		<g>
			<path class="st0" d="M65.7,107.6c0,1.9-1.5,3.4-3.5,3.4H22.9c-1.9,0-3.5-1.5-3.5-3.4c0-1.9,1.5-3.5,3.5-3.5h39.3
				C64.1,104.2,65.7,105.7,65.7,107.6z"/>
		</g>
	</g>
</g>
<g>
	<g>
		<g>
			<path class="st0" d="M26.6,121.4c0,1.9-1.5,3.5-3.5,3.5h-4.9c-1.9,0-3.5-1.6-3.5-3.5c0-1.9,1.5-3.5,3.5-3.5h4.9
				C25,117.9,26.6,119.4,26.6,121.4z"/>
		</g>
		<g>
			<path class="st0" d="M23.1,124.8h-4.9c-1.9,0-3.5-1.6-3.5-3.5c0-1.9,1.5-3.5,3.5-3.5h4.9c1.9,0,3.5,1.5,3.5,3.5
				C26.6,123.3,25,124.8,23.1,124.8z"/>
		</g>
	</g>
</g>
<g>
	<g>
		<g>
			<path class="st0" d="M57,121.4c0,1.9-1.5,3.5-3.5,3.5H33.9c-1.9,0-3.5-1.6-3.5-3.5c0-1.9,1.5-3.5,3.5-3.5h19.7
				C55.5,117.9,57,119.4,57,121.4z"/>
		</g>
		<g>
			<path class="st0" d="M53.6,124.8H33.9c-1.9,0-3.5-1.6-3.5-3.5c0-1.9,1.5-3.5,3.5-3.5h19.7c1.9,0,3.5,1.5,3.5,3.5
				C57,123.3,55.5,124.8,53.6,124.8z"/>
		</g>
	</g>
</g>
<g>
	<g>
		<g>
			<path class="st0" d="M61.9,132.2c0,1.9-1.6,3.5-3.5,3.5H28.9c-1.9,0-3.5-1.5-3.5-3.5c0-1.9,1.5-3.5,3.5-3.5h29.5
				C60.3,128.7,61.9,130.3,61.9,132.2z"/>
		</g>
		<g>
			<path class="st0" d="M58.4,135.6H28.9c-1.9,0-3.5-1.5-3.5-3.5c0-1.9,1.5-3.5,3.5-3.5h29.5c1.9,0,3.5,1.5,3.5,3.5
				C61.9,134.1,60.3,135.6,58.4,135.6z"/>
		</g>
	</g>
</g>
<g>
	<g>
		<g>
			<path class="st0" d="M77.6,132.2c0,1.9-1.5,3.5-3.5,3.5h-4.9c-1.9,0-3.5-1.5-3.5-3.5c0-1.9,1.5-3.5,3.5-3.5h4.9
				C76,128.7,77.6,130.3,77.6,132.2z"/>
		</g>
		<g>
			<path class="st0" d="M74.1,135.6h-4.9c-1.9,0-3.5-1.5-3.5-3.5c0-1.9,1.5-3.5,3.5-3.5h4.9c1.9,0,3.5,1.5,3.5,3.5
				C77.6,134.1,76,135.6,74.1,135.6z"/>
		</g>
	</g>
</g>
<g>
	<g>
		<g>
			<path class="st0" d="M56,61.4c0,1.9-1.5,3.5-3.5,3.5H37.8c-1.9,0-3.5-1.5-3.5-3.5c0-1.9,1.5-3.5,3.5-3.5h14.7
				C54.5,57.9,56,59.5,56,61.4z"/>
		</g>
		<g>
			<path class="st0" d="M52.6,64.9H37.8c-1.9,0-3.5-1.5-3.5-3.5c0-1.9,1.5-3.5,3.5-3.5h14.7c1.9,0,3.5,1.6,3.5,3.5
				C56,63.3,54.5,64.9,52.6,64.9z"/>
		</g>
	</g>
</g>
<g>
	<g>
		<path class="st0" d="M146.4,95.8l-6-0.8l-0.1-0.3c-0.3-0.8-0.6-1.7-1-2.5l-0.1-0.3l3.6-4.8c1-1.4,0.9-3.3-0.3-4.5l-6.9-6.9
			c-1.2-1.2-3.2-1.4-4.5-0.3l-4.8,3.6l-0.3-0.1c-0.8-0.4-1.7-0.7-2.5-1l-0.3-0.1l-0.9-6c-0.2-1.7-1.7-3-3.4-3h-9.8
			c-1.7,0-3.2,1.3-3.4,3l-0.9,6l-0.3,0.1c-0.8,0.3-1.6,0.6-2.5,1l-0.3,0.1L97,75.3c-1.4-1-3.3-0.9-4.5,0.3l-7,6.9
			c-1.2,1.2-1.3,3.1-0.3,4.5l3.6,4.8l-0.1,0.3c-0.4,0.8-0.7,1.7-1,2.5L87.5,95l-6,0.8c-1.7,0.3-3,1.7-3,3.4v9.8c0,1.7,1.3,3.2,3,3.4
			l6,0.9l0.1,0.3c0.3,0.8,0.6,1.6,1,2.5l0.1,0.3l-3.6,4.8c-1,1.4-0.9,3.3,0.3,4.5l6.9,7c1.2,1.2,3.2,1.3,4.5,0.3l4.8-3.6l0.3,0.1
			c0.8,0.4,1.6,0.7,2.5,1l0.3,0.1l0.9,6c0.2,1.7,1.7,3,3.4,3h9.8c1.7,0,3.2-1.3,3.4-3l0.9-6l0.3-0.1c0.8-0.3,1.7-0.6,2.5-1l0.3-0.1
			l4.8,3.6c1.4,1,3.3,0.9,4.5-0.3l7-7c1.2-1.2,1.3-3.1,0.3-4.5l-3.6-4.8l0.1-0.3c0.4-0.8,0.7-1.7,1-2.5l0.1-0.3l6-0.9
			c1.7-0.2,3-1.7,3-3.4v-9.8C149.4,97.5,148.1,96.1,146.4,95.8z M142.5,106.1l-5.2,0.8c-1.4,0.2-2.5,1.2-2.8,2.6
			c-0.5,1.9-1.3,3.8-2.3,5.5c-0.7,1.2-0.6,2.7,0.2,3.8l3.2,4.2l-2.7,2.7l-4.2-3.1c-1.1-0.8-2.6-0.9-3.8-0.2c-1.7,1-3.6,1.8-5.5,2.3
			c-1.4,0.4-2.4,1.5-2.6,2.9l-0.7,5.2h-3.8l-0.7-5.2c-0.2-1.4-1.2-2.5-2.6-2.9c-1.9-0.5-3.8-1.3-5.5-2.3c-1.2-0.7-2.7-0.6-3.8,0.2
			l-4.2,3.1l-2.7-2.7l3.1-4.2c0.8-1.1,0.9-2.6,0.2-3.8c-1-1.7-1.8-3.6-2.3-5.5c-0.3-1.4-1.5-2.4-2.9-2.6l-5.2-0.7v-3.8l5.2-0.8
			c1.4-0.2,2.5-1.2,2.9-2.6c0.5-2,1.3-3.8,2.3-5.5c0.7-1.2,0.6-2.7-0.2-3.8l-3.1-4.2l2.7-2.7l4.2,3.1c1.1,0.9,2.6,0.9,3.8,0.2
			c1.7-1,3.6-1.8,5.5-2.3c1.4-0.4,2.4-1.5,2.6-2.9l0.7-5.2h3.8l0.7,5.2c0.2,1.4,1.2,2.5,2.6,2.9c2,0.5,3.8,1.3,5.5,2.3
			c1.2,0.7,2.7,0.6,3.8-0.2l4.2-3.1l2.7,2.7l-3.1,4.2c-0.8,1.1-0.9,2.6-0.2,3.9c1,1.7,1.8,3.6,2.3,5.5c0.3,1.4,1.5,2.4,2.9,2.6
			l5.2,0.8V106.1z"/>
	</g>
</g>
<g>
	<g>
		<g>
			<path class="st0" d="M125.1,93c-3-3-6.9-4.6-11.1-4.6c-8.7,0-15.7,7.1-15.7,15.7c0,8.7,7.1,15.7,15.7,15.7s15.7-7.1,15.7-15.7
				C129.7,100,128.1,96,125.1,93z M114,113c-4.9,0-8.8-4-8.8-8.8c0-4.9,4-8.8,8.8-8.8c4.9,0,8.8,4,8.8,8.8
				C122.8,109,118.8,113,114,113z"/>
		</g>
	</g>
</g>
</svg>
