<?xml version="1.0" encoding="utf-8"?>
<!-- Generator: Adobe Illustrator 22.0.1, SVG Export Plug-In . SVG Version: 6.00 Build 0)  -->
<svg version="1.1" id="Слой_1" xmlns="http://www.w3.org/2000/svg" xmlns:xlink="http://www.w3.org/1999/xlink" x="0px" y="0px"
	 viewBox="0 0 148.3 148.3" style="enable-background:new 0 0 148.3 148.3;" xml:space="preserve">
<style type="text/css">
	.st0{fill:#002169;}
</style>
<g>
	<g>
		<g>
			<g>
				<path class="st0" d="M142.5,26.8h-3.9v-8.8c0-3.2-2.6-5.9-5.9-5.9H98.4C92.7,4.5,83.7,0,74.2,0c-9.5,0-18.6,4.5-24.2,12.2H15.6
					c-3.2,0-5.9,2.6-5.9,5.9v8.8H5.9c-3.2,0-5.9,2.6-5.9,5.9v100c0,3.2,2.6,5.9,5.9,5.9h52.3c3.1,5.9,9.3,9.8,16,9.8
					c6.7,0,12.9-3.8,16-9.8h52.3c3.2,0,5.9-2.7,5.9-5.9v-100C148.3,29.5,145.7,26.8,142.5,26.8z M100.3,45.5
					c4.7-8,5.4-17.9,1.9-26.5h29.5v78.5H88.8c-4.1,0-8,1.4-11.2,3.9V60.3c4.7-0.5,9.2-2.2,13.1-4.7C94.6,53.1,97.9,49.6,100.3,45.5z
					 M88.8,116.6h42.9v5.3H77.6v-6.3c0-6.2,5-11.2,11.2-11.2h42.9v5.3H88.8c-1.9,0-3.4,1.5-3.4,3.4
					C85.4,115.1,86.9,116.6,88.8,116.6z M74.2,6.9c12.9,0,23.4,10.5,23.4,23.4c0,12.9-10.5,23.4-23.4,23.4
					c-12.9,0-23.4-10.5-23.4-23.4C50.8,17.4,61.3,6.9,74.2,6.9z M16.6,19.1h29.4c-3.4,8.6-2.7,18.4,1.9,26.5
					c4.8,8.2,13.3,13.7,22.7,14.8v41.2c-3.2-2.5-7.1-3.9-11.2-3.9H16.6V19.1z M16.6,116.6h42.9c1.9,0,3.4-1.5,3.4-3.4
					c0-1.9-1.5-3.4-3.4-3.4H16.6v-5.3h42.9c6.2,0,11.2,5,11.2,11.2v6.3H16.6V116.6z M141.5,131.7l-53.6,0l-0.1,0
					c-0.2,0-0.4,0.1-0.5,0.1c-0.5,0.1-0.9,0.2-1.2,0.5c-0.4,0.2-0.7,0.6-0.9,0.9c-0.1,0.2-0.3,0.4-0.3,0.6l-0.1,0.2
					c-1.6,4.5-5.8,7.5-10.5,7.5c-4.6,0-8.8-2.9-10.5-7.2l0-0.2l-0.2-0.2c-0.1-0.2-0.2-0.3-0.3-0.5c-0.2-0.4-0.5-0.7-0.9-1
					c-0.1-0.1-0.3-0.2-0.6-0.4c-0.1,0-0.3-0.1-0.5-0.1c-0.3-0.1-0.4-0.1-0.7-0.2l-53.7,0v-98h2.9v89.3c0,3.2,2.6,5.9,5.9,5.9h117.1
					c3.2,0,5.9-2.6,5.9-5.9V33.7h2.9V131.7z"/>
			</g>
		</g>
		<g>
			<g>
				<path class="st0" d="M77.6,25.4v19.5c0,0.9-0.4,1.8-1,2.4s-1.5,1-2.4,1c-0.9,0-1.8-0.4-2.4-1c-0.7-0.6-1-1.5-1-2.4V25.4
					c0-1.9,1.5-3.4,3.4-3.4S77.6,23.5,77.6,25.4z"/>
			</g>
		</g>
	</g>
	<g>
		<g>
			<g>
				<path class="st0" d="M128.8,59.5c0,1.9-1.5,3.4-3.4,3.4H101c-0.9,0-1.8-0.4-2.4-1c-0.6-0.6-1-1.5-1-2.4c0-0.9,0.4-1.8,1-2.4
					c0.6-0.6,1.5-1,2.4-1h24.4C127.3,56.1,128.8,57.6,128.8,59.5z"/>
			</g>
		</g>
	</g>
	<g>
		<g>
			<g>
				<path class="st0" d="M128.8,71.7c0,1.9-1.5,3.4-3.4,3.4H91.2c-1.9,0-3.4-1.6-3.4-3.4c0-1.9,1.5-3.4,3.4-3.4h34.1
					C127.3,68.3,128.8,69.8,128.8,71.7z"/>
			</g>
		</g>
	</g>
	<g>
		<g>
			<g>
				<path class="st0" d="M128.8,83.9c0,1.9-1.5,3.4-3.4,3.4H91.2c-1.9,0-3.4-1.6-3.4-3.4c0-1.9,1.5-3.4,3.4-3.4h34.1
					C127.3,80.5,128.8,82,128.8,83.9z"/>
			</g>
		</g>
	</g>
	<g>
		<g>
			<g>
				<path class="st0" d="M50.8,59.5c0,1.9-1.5,3.4-3.4,3.4H22.9c-1.9,0-3.4-1.5-3.4-3.4c0-1.9,1.5-3.4,3.4-3.4h24.4
					C49.2,56.1,50.8,57.6,50.8,59.5z"/>
			</g>
		</g>
	</g>
	<g>
		<g>
			<g>
				<path class="st0" d="M60.5,71.7c0,1.9-1.5,3.4-3.4,3.4H22.9c-1.9,0-3.4-1.6-3.4-3.4c0-1.9,1.5-3.4,3.4-3.4h34.2
					C59,68.3,60.5,69.8,60.5,71.7z"/>
			</g>
		</g>
	</g>
	<g>
		<g>
			<g>
				<path class="st0" d="M60.5,83.9c0,1.9-1.5,3.4-3.4,3.4H22.9c-1.9,0-3.4-1.6-3.4-3.4c0-1.9,1.5-3.4,3.4-3.4h34.2
					C59,80.5,60.5,82,60.5,83.9z"/>
			</g>
		</g>
	</g>
	<g>
		<g>
			<g>
				<path class="st0" d="M77.6,13.2v2.4c0,0.9-0.4,1.8-1,2.4c-0.6,0.6-1.5,1-2.4,1c-0.9,0-1.8-0.4-2.4-1c-0.6-0.6-1-1.5-1-2.4v-2.4
					c0-1.9,1.5-3.4,3.4-3.4S77.6,11.3,77.6,13.2z"/>
			</g>
		</g>
	</g>
</g>
</svg>
