<?xml version="1.0" encoding="utf-8"?>
<!-- Generator: Adobe Illustrator 22.0.1, SVG Export Plug-In . SVG Version: 6.00 Build 0)  -->
<svg version="1.1" id="Слой_1" xmlns="http://www.w3.org/2000/svg" xmlns:xlink="http://www.w3.org/1999/xlink" x="0px" y="0px"
	 viewBox="0 0 149.1 149.1" style="enable-background:new 0 0 149.1 149.1;" xml:space="preserve">
<style type="text/css">
	.st0{fill:#002169;}
</style>
<g>
	<path class="st0" d="M133.9,80.7h-16.6c-3.4,0-6.1-2.7-6.1-6.1c0-3.4,2.7-6.1,6.1-6.1h11.9c6.4,0,12.4-3.1,16.2-8.2
		c3.8-5.2,4.8-11.9,2.8-18.3c-2.2-6.9-8.3-11.9-15.6-13.1C132.1,12.8,119.1,0,103,0c-9.2,0-17.9,4.4-23.5,11.7
		c-3-1.5-6.4-2.2-9.7-2.2c-11.1,0-20.5,8.1-22.1,19c-10.7,0.4-19.2,9.2-19.2,20c0,2.9,0.6,5.8,1.9,8.5H12.9C5.8,56.9,0,62.7,0,69.8
		v47.4c0,7.1,5.8,12.9,12.9,12.9h18v2.7h-1.4c-7.1,0-12.9,5.8-12.9,12.9v3.4h68.4v-3.4c0-7.1-5.8-12.9-12.9-12.9h-1.4v-2.7h18
		c6.8,0,12.3-5.2,12.8-11.9h3.8c4.5,0,8.5-2.9,9.9-7.1h18.6c8.4,0,15.2-6.8,15.2-15.2C149.1,87.5,142.3,80.7,133.9,80.7z
		 M72.2,139.6c2.1,0,4,1.1,5.1,2.7H24.4c1.1-1.7,3-2.7,5.1-2.7H72.2z M37.6,132.9v-2.7h26.5v2.7H37.6z M94.9,117.3
		c0,3.4-2.8,6.1-6.1,6.1H12.9c-3.4,0-6.1-2.7-6.1-6.1v-1.4h55l4.8-4.7h28.4V117.3z M94.9,104.4H63.7l-4.7,4.8H6.8V69.8
		c0-3.4,2.8-6.1,6.1-6.1h75.9c3.4,0,6.1,2.7,6.1,6.1V104.4z M105.4,111.5h-3.8V104h3.8c2.1,0,3.8,1.7,3.8,3.7
		C109.2,109.8,107.5,111.5,105.4,111.5z M139.9,101.8c-1.6,1.7-3.9,2.6-6.3,2.6h-18.4c-1.4-4.2-5.4-7.1-9.9-7.1h-3.8V69.8
		c0-7.1-5.8-12.9-12.9-12.9H38.3c-2-2.4-3.1-5.4-3.1-8.5c0-7.3,5.9-13.2,13.2-13.2c3.7,0,7.3,1.6,9.8,4.4c1.1,1.2,2.9,1.5,4.3,0.5
		l0.1-0.1c0.8-0.5,1.3-1.4,1.4-2.3c0.1-0.9-0.2-1.9-0.8-2.6c-2.4-2.7-5.5-4.7-8.9-5.7c1.2-7.5,7.7-13.1,15.4-13.1
		c3.2,0,6.2,1,8.8,2.8l3,2.1l1.8-3.1C87.6,11,95.1,6.8,103,6.8c12.5,0,22.7,10.2,22.7,22.7c0,3.7-0.9,7.4-2.6,10.6
		c-0.8,1.5-0.3,3.4,1.2,4.4c0.8,0.5,1.8,0.7,2.7,0.4c0.9-0.2,1.7-0.9,2.1-1.7c1.3-2.4,2.2-5,2.8-7.7c4.6,0.9,8.4,4.2,9.8,8.5
		c1.4,4.3,0.7,8.8-1.8,12.3c-2.5,3.4-6.5,5.5-10.7,5.5h-11.6c-7,0-12.9,5.6-13.1,12.6c-0.1,3.5,1.2,6.8,3.7,9.3
		c2.4,2.5,5.7,3.9,9.2,3.9h16.6c4.6,0,8.4,3.7,8.5,8.3C142.4,98,141.6,100.1,139.9,101.8z"/>
</g>
<g>
	<path class="st0" d="M101.7,45.9h1.2V22h1.7v23.9h1.2l-2.1,3.1L101.7,45.9z M101.7,45.9h1.2V22h1.7v23.9h1.2l-2.1,3.1L101.7,45.9z
		 M101.7,45.9h1.2V22h1.7v23.9h1.2l-2.1,3.1L101.7,45.9z"/>
	<path class="st0" d="M108.3,40.8V21.6h-9.1v19.3h-4.3l8.8,13.3l8.8-13.3H108.3z"/>
</g>
<g>
	<path class="st0" d="M38.4,78v-7.4H14.2v24.2h11.1v7.4h24.1V78H38.4z M31,96.5v-1.7h7.4V83.7h5.4v12.8H31z M19.9,89.1V76.3h12.8
		v12.8H19.9z"/>
</g>
<g>
	<path class="st0" d="M89.9,77.7c0,1.6-1.3,2.9-2.9,2.9H59.2c-1.6,0-2.9-1.3-2.9-2.9c0-1.6,1.3-2.9,2.9-2.9H87
		C88.6,74.8,89.9,76.1,89.9,77.7z"/>
</g>
<g>
	<path class="st0" d="M89.9,85.3c0,1.6-1.3,2.9-2.9,2.9H59.2c-1.6,0-2.9-1.3-2.9-2.9c0-1.6,1.3-2.9,2.9-2.9H87
		C88.6,82.4,89.9,83.7,89.9,85.3z"/>
</g>
<g>
	<path class="st0" d="M89.9,92.9c0,1.6-1.3,2.9-2.9,2.9H59.2c-1.6,0-2.9-1.3-2.9-2.9c0-1.6,1.3-2.9,2.9-2.9H87
		C88.6,90,89.9,91.3,89.9,92.9z"/>
</g>
<g>
	<path class="st0" d="M90.6,117.3c0,1.7-1.4,3.1-3.1,3.1c-1.7,0-3.1-1.4-3.1-3.1s1.4-3.1,3.1-3.1C89.2,114.1,90.6,115.5,90.6,117.3z
		"/>
</g>
<g>
	<path class="st0" d="M82,117.3c0,1.7-1.4,3.1-3.1,3.1c-1.7,0-3.1-1.4-3.1-3.1s1.4-3.1,3.1-3.1C80.6,114.1,82,115.5,82,117.3z"/>
</g>
<g>
	<path class="st0" d="M73.5,117.3c0,1.7-1.4,3.1-3.1,3.1c-1.7,0-3.1-1.4-3.1-3.1s1.4-3.1,3.1-3.1C72.1,114.1,73.5,115.5,73.5,117.3z
		"/>
</g>
<g>
	<path class="st0" d="M69,49c0,1.7-1.4,3.1-3.1,3.1s-3.1-1.4-3.1-3.1s1.4-3.1,3.1-3.1S69,47.3,69,49z"/>
</g>
<g>
	<path class="st0" d="M60.5,49c0,1.7-1.4,3.1-3.1,3.1c-1.7,0-3.1-1.4-3.1-3.1s1.4-3.1,3.1-3.1C59.1,45.9,60.5,47.3,60.5,49z"/>
</g>
<g>
	<path class="st0" d="M51.9,49c0,1.7-1.4,3.1-3.1,3.1s-3.1-1.4-3.1-3.1s1.4-3.1,3.1-3.1S51.9,47.3,51.9,49z"/>
</g>
</svg>
