<?xml version="1.0" encoding="utf-8"?>
<!-- Generator: Adobe Illustrator 22.0.1, SVG Export Plug-In . SVG Version: 6.00 Build 0)  -->
<svg version="1.1" id="Слой_1" xmlns="http://www.w3.org/2000/svg" xmlns:xlink="http://www.w3.org/1999/xlink" x="0px" y="0px"
	 viewBox="0 0 157.9 151.4" style="enable-background:new 0 0 157.9 151.4;" xml:space="preserve">
<style type="text/css">
	.st0{fill:#002169;}
</style>
<g>
	<g>
		<g>
			<g>
				<path class="st0" d="M79.5,16.8c0,2.1-1.7,3.8-3.8,3.8c-2.1,0-3.8-1.7-3.8-3.8c0-2.1,1.7-3.8,3.8-3.8
					C77.8,13.1,79.5,14.8,79.5,16.8z"/>
			</g>
			<g>
				<path class="st0" d="M151.4,16.8v91.5c0,2.4-0.5,4.8-1.6,7.1c-0.9,1.9-3.1,2.7-5,1.8c-1.9-0.9-2.7-3.1-1.8-5
					c0.6-1.3,0.9-2.6,0.9-3.9V16.8c0-5.1-4.2-9.3-9.3-9.3H16.8c-5.1,0-9.3,4.2-9.3,9.3v78.6c2.2-7,7.8-12.4,15.1-14.2l11.9-3
					l0.6-2.5c-2.9-3.3-5-7.5-5.8-11.8c-2.4-1-4-3.1-4.3-5.6l-0.9-6.8c-0.3-2,0.4-4.1,1.8-5.6c0.5-0.5,1-1,1.6-1.4
					c-0.3-2.9-0.5-4.8-0.5-5.8c0-7,2-15.1,17.9-15.7c5.5-3.4,11.1-3.4,13.6-3.4c8.4,0,12.6,3.7,14.6,6.8c1.5,2.3,2.3,4.7,2.3,6.9
					c0,2.2-1.6,3.7-3.8,3.7c-1,0-2-0.4-2.7-1.2c-0.7-0.7-1.1-1.7-1-2.7c0-0.5-0.2-1.3-1-2.6c-1.5-2.3-4.2-3.4-8.3-3.4
					c-2.1,0-6.4,0-10.2,2.7c-0.6,0.4-1.4,0.7-2.2,0.7c-11.6,0.1-11.6,4-11.6,8.2c0,1.3,0.5,5.6,0.8,8.1c0.1,1.1-0.2,2.2-0.9,3
					c-0.6,0.7-1.4,1.1-2.3,1.2l0.3,6.1l0.3,0h0c1.9,0,3.5,1.5,3.7,3.5c0.3,4.2,2.4,8.4,5.5,11.3c1,0.9,1.4,2.3,1.1,3.7l-1.7,6.7
					c-0.3,1.4-1.4,2.4-2.8,2.8l-14,3.5c-4.8,1.2-8.5,4.8-9.9,9.5l49.5,0c2.1,0,3.8,1.7,3.8,3.8c0,2.1-1.7,3.8-3.8,3.8H7.5v2.8
					c0,5.1,4.2,9.3,9.3,9.3h23.7c2.1,0,3.8,1.7,3.8,3.8c0,1-0.4,2-1.1,2.7c-0.7,0.7-1.6,1.1-2.7,1.1H16.8c-9.3,0-16.8-7.6-16.8-16.8
					V16.8C0,7.6,7.6,0,16.8,0h117.7C143.8,0,151.4,7.6,151.4,16.8z"/>
			</g>
			<g>
				<path class="st0" d="M131.9,108.4c0,2.1-1.7,3.8-3.8,3.8c-2.1,0-3.8-1.7-3.8-3.8c0-2.1,1.7-3.8,3.7-3.8h0.1
					C130.2,104.6,131.9,106.3,131.9,108.4z"/>
			</g>
			<g>
				<path class="st0" d="M151.9,130c-3.8-4.9-9.2-8.5-15.6-10.1l-17.7-4.4l-1.2-4.8c4.7-4.9,7.9-11.2,9.1-17.9
					c2.9-1.2,5-3.8,5.4-6.9l1.2-9.7c0.3-2.4-0.4-4.9-2-6.7c-0.7-0.8-1.6-1.5-2.5-2l0.4-7.7l1.5-1.5c3.1-3.3,5.6-8.8,0.4-16.7
					c-3.9-5.9-10.4-8.9-19.4-8.9c-3.4,0-11.3,0-18.7,4.9C71,38.1,68.2,48.9,68.2,58.2c0,2,0.4,6,0.8,9.1c-1.1,0.5-2,1.2-2.8,2.1
					c-1.6,1.8-2.4,4.3-2.1,6.8l1.2,9.7c0.4,3.4,2.7,6.1,5.9,7.1c1.2,6.4,4.2,12.5,8.6,17.3l-1.3,5.2l-17.7,4.4
					c-12.7,3.2-21.6,14.6-21.6,27.7c0,1,0.4,2,1.1,2.7c0.7,0.7,1.7,1.1,2.7,1.1l111.1,0c2.1,0,3.8-1.7,3.8-3.8
					C157.9,141,155.7,134.9,151.9,130z M86.6,106.4c-4.6-4.4-7.7-10.7-8.2-17.1c-0.2-1.9-1.8-3.5-3.8-3.5h-0.8c-0.5,0-1-0.4-1.1-0.9
					l-1.2-9.7c-0.1-0.4,0.1-0.7,0.3-0.8c0.1-0.1,0.3-0.4,1.3-0.4c1.1,0,2.1-0.5,2.8-1.3c0.7-0.8,1-1.9,0.9-3
					c-0.4-3.1-1.1-9.5-1.1-11.6c0-6.1,0-13,18-13.1c0.8,0,1.5-0.3,2.1-0.7c5.1-3.6,10.6-4.1,15.4-4.1c6.3,0,10.7,1.9,13.1,5.5
					c2.7,4.1,1.7,6,0.5,7.3l-2.4,2.4c-0.7,0.7-1.1,1.6-1.1,2.5l-0.6,12.1c0,1,0.3,2,1,2.8c0.7,0.7,1.7,1.2,2.7,1.2
					c0.4,0,0.7,0.2,0.8,0.4c0.1,0.2,0.3,0.4,0.3,0.8l-1.2,9.7c-0.1,0.6-0.6,0.9-1.3,0.9c-2,0-3.6,1.5-3.8,3.5
					c-0.5,6.5-3.7,13-8.6,17.4c-1,0.9-1.5,2.3-1.1,3.7l2.3,9.1c0.3,1.4,1.4,2.4,2.7,2.7l19.9,5c8,2,14.1,8.5,15.5,16.6l-102.9,0
					c1.5-8.1,7.5-14.6,15.5-16.6l19.9-5c1.4-0.3,2.4-1.4,2.7-2.7l2.4-9.5C88,108.7,87.6,107.3,86.6,106.4z"/>
			</g>
		</g>
	</g>
</g>
</svg>
