<svg id="Режим_изоляции" data-name="Режим изоляции" xmlns="http://www.w3.org/2000/svg" viewBox="0 0 149.08 149.37"><defs><style>.cls-1{fill:#002169;}</style></defs><title>6</title><path class="cls-1" d="M7.79,4.05V145.33a3.9,3.9,0,1,1-7.79,0V4.05a3.9,3.9,0,1,1,7.79,0Z"/><path class="cls-1" d="M7.79,145.33a3.9,3.9,0,1,1-7.79,0V4.05a3.9,3.9,0,1,1,7.79,0Z"/><path class="cls-1" d="M149.08,4.05V145.33a3.9,3.9,0,1,1-7.8,0V4.05a3.9,3.9,0,1,1,7.8,0Z"/><path class="cls-1" d="M131.49,3.9v8.65A12.7,12.7,0,0,1,118.8,25.24H30.28A12.7,12.7,0,0,1,17.59,12.55V3.9a3.9,3.9,0,1,1,7.79,0v8.65a4.91,4.91,0,0,0,4.9,4.9H118.8a4.9,4.9,0,0,0,4.89-4.9V3.9a3.9,3.9,0,0,1,7.8,0Z"/><path class="cls-1" d="M131.49,136.82v8.65a3.9,3.9,0,0,1-7.8,0v-8.65a4.89,4.89,0,0,0-4.89-4.89H30.28a4.9,4.9,0,0,0-4.9,4.89v8.65a3.9,3.9,0,1,1-7.79,0v-8.65a12.71,12.71,0,0,1,12.69-12.69H118.8A12.71,12.71,0,0,1,131.49,136.82Z"/><path class="cls-1" d="M131.49,145.47a3.9,3.9,0,0,1-7.8,0v-8.65a4.89,4.89,0,0,0-4.89-4.89H30.28a4.9,4.9,0,0,0-4.9,4.89v8.65a3.9,3.9,0,1,1-7.79,0v-8.65a12.71,12.71,0,0,1,12.69-12.69H118.8a12.71,12.71,0,0,1,12.69,12.69Z"/><path class="cls-1" d="M118.8,35H30.28A12.7,12.7,0,0,0,17.59,47.72v53.93a12.7,12.7,0,0,0,12.69,12.69H118.8a12.7,12.7,0,0,0,12.69-12.69V47.72A12.7,12.7,0,0,0,118.8,35Zm4.89,66.62a4.9,4.9,0,0,1-4.89,4.9H30.28a4.91,4.91,0,0,1-4.9-4.9V47.72a4.91,4.91,0,0,1,4.9-4.9H118.8a4.9,4.9,0,0,1,4.89,4.9Z"/><path class="cls-1" d="M89.3,71.42h0L64,55a3.9,3.9,0,0,0-2.11-.62,3.84,3.84,0,0,0-1.86.47,3.88,3.88,0,0,0-2,3.42V91.06a3.88,3.88,0,0,0,2,3.42,4,4,0,0,0,4-.15L89.3,78a3.91,3.91,0,0,0,0-6.54ZM65.79,83.89V65.48L80,74.69Z"/></svg>