<svg xmlns="http://www.w3.org/2000/svg" viewBox="0 0 116.5 92.1"><path d="M70.7 74.8c-6.4 2.9-13.6 3.6-20.5 2.1L53 64.3c1.3.3 2.7.4 4.1.4 2.9 0 5.7-.6 8.2-1.8l5.4 11.9z" fill="#1c01c8"/><path d="M96.5 41.7l-3.6.3-16.4 1.4c-.1-1.5-.4-2.9-.9-4.3-.1-.2-.1-.4-.2-.6-.1-.2-.2-.4-.2-.6-2.5-6.3-8.3-11-15.2-12-.2 0-.5-.1-.7-.1h-.2c-.3 0-.6 0-.9-.1h-1.1c-.8 0-1.6.1-2.4.2-.2 0-.4 0-.6.1-.3 0-.6.1-.8.2h-.2c-.1 0-.2 0-.3.1-.4.1-.7.2-1 .3-.2.1-.5.1-.7.2l-.9.3h-.1c-.3.1-.6.2-.9.4L40.8 9.1c5.3-2.4 10.9-3.5 16.3-3.5 15.1 0 29.4 8.6 36 23.2 1.9 4.1 3 8.4 3.4 12.9z" fill="#fffa4d"/><path d="M72 77.7l-1.3-2.9-5.4-11.9C72 59.8 76.6 53 76.6 45.2c0-.6 0-1.2-.1-1.8L92.9 42c1.3 15.1-7.1 29.4-20.9 35.7z" fill="#e72fed"/><path d="M57.1 0v25.7c-.8 0-1.6.1-2.4.2-.2 0-.4 0-.6.1-.3 0-.6.1-.8.2-.3 0-1.4.3-1.5.4-.2.1-.5.1-.7.2l-.9.3h-.1c-.3.1-.6.2-.9.4-6.8 3-11.5 9.9-11.5 17.8 0 5.6 2.3 10.6 6.1 14.2L26.2 77.9C17.2 69.4 12 57.5 12 45.1 12 20.2 32.2 0 57.1 0z" fill="#32dccc"/><path fill="none" stroke="#27baab" stroke-width=".24" stroke-linecap="round" stroke-miterlimit="22.926" d="M.1 12.8h20.5l7.1 8.1"/><path fill="none" stroke="#fcc500" stroke-width=".24" stroke-linecap="round" stroke-miterlimit="22.926" d="M111.7 17.2H91.2l-7.1 8.1"/><path fill="none" stroke="#a82388" stroke-width=".24" stroke-linecap="round" stroke-miterlimit="22.926" d="M116.4 62.5H96l-7.1-8"/><path fill="none" stroke="#233b66" stroke-width=".24" stroke-linecap="round" stroke-miterlimit="22.926" d="M95.7 92H75.3L60.8 72.5"/></svg>