<svg xmlns="http://www.w3.org/2000/svg" viewBox="0 0 116.5 90.2"><path d="M81 62.7c-.6.6-1.2 1.1-1.8 1.6-1.8 1.4-3.9 2.6-6.1 3.3l-3.8-6.8c1.7-1.3 3.2-2.8 4.4-4.5.1-.2.2-.3.4-.5l6.9 6.9z" fill="#1c01c8"/><path d="M94.4 44.3c0 9.5-4.7 18.5-12.5 23.9l-2.7-3.9-5.5-7.9c.1-.2.2-.3.4-.5 2-3.1 3.2-6.8 3.2-10.7v-.9c0-.3 0-.6-.1-.9 0-.5-.1-1-.2-1.4l16.8-3.5c.3 1.7.5 3.4.6 5.1v.7z" fill="#e72fed"/><path d="M97 43.3l-2.6.1-17.1.8c0-.3 0-.6-.1-.9 0-.5-.1-1-.2-1.4-.2-1-.4-2-.7-2.9-.1-.2-.1-.4-.2-.6-.1-.2-.2-.4-.2-.6-2.1-5.1-6.2-9.1-11.3-11-.2-.1-.4-.2-.6-.2l6.2-18.8c.4.1.8.3 1.2.4C86.1 13.7 96.2 27.4 97 43.3z" fill="#fffa4d"/><path d="M38.2 45.1c0 5.6 2.3 10.6 6.1 14.2 2.6 2.4 5.8 4.2 9.4 4.9 1.3.3 2.7.4 4.1.4 1.6 0 3.2-.2 4.7-.6l6.3 24.9c-3.6.9-7.3 1.3-10.9 1.3C33 90.2 12.8 70 12.8 45.1 12.7 20.2 32.9 0 57.8 0c5.3 0 10.5.9 15.5 2.8l-2 5.4-6.8 18.5c-.2-.1-.4-.2-.6-.2-1-.3-2.1-.6-3.2-.8-.2 0-.5-.1-.7-.1h-.2c-.3 0-.6-.1-.9-.1h-1.1c-.8 0-1.6 0-2.4.2-.2 0-.4 0-.6.1-.3 0-.6.1-.8.2-.3 0-.5.1-.8.2-.1 0-.2.1-.4.1-.1 0-.3.1-.4.1-.2.1-.5.1-.7.2l-.9.3h-.1c-.3.1-.6.2-.9.4-6.9 3-11.6 9.9-11.6 17.8z" fill="#32dccc"/><path fill="none" stroke="#27baab" stroke-width=".24" stroke-linecap="round" stroke-miterlimit="22.926" d="M.1 12.7h20.4l7.1 8"/><path fill="none" stroke="#fcc500" stroke-width=".24" stroke-linecap="round" stroke-miterlimit="22.926" d="M111.6 17H91.1L84 25.1"/><path fill="none" stroke="#a82388" stroke-width=".24" stroke-linecap="round" stroke-miterlimit="22.926" d="M116.4 62.4H95.9l-7.1-8.1"/><path fill="none" stroke="#233b66" stroke-width=".24" stroke-linecap="round" stroke-miterlimit="22.926" d="M110.6 84H90.2L75.7 64.5"/></svg>