<svg id="_x31_" xmlns="http://www.w3.org/2000/svg" viewBox="0 0 795.7 40.6"><style>.st1{stroke-linecap:round;stroke-linejoin:round;fill:none}.st1,.st3,.st4,.st5,.st6{stroke:#ecedee;stroke-width:.4819;stroke-miterlimit:10}.st3{fill:#1c01c8}.st4{fill:#32dccc}.st5{fill:#e72fed}.st6{fill:#fffa4d}</style><path d="M764 .2zm-10.2 13.1v.2h-.7c.2-1 .3-2.1.4-3.2 0 1.1.2 2.1.3 3zM784.9.2zm0 0zm-10.1 13.1v.2h-.7c.2-1 .3-2.1.4-3.2 0 1.1.1 2.1.3 3zM722.1.2zm0 0zM712 13.3v.2h-.7c.2-1 .3-2.1.4-3.2 0 1.1.1 2.1.3 3zM743.1.2zm0 0zm-10.2 13.1v.2h-.7c.2-1 .3-2.1.4-3.2 0 1.1.1 2.1.3 3zM680.3.2zm0 0zm-10.2 13.1v.2h-.7c.2-1 .3-2.1.4-3.2 0 1.1.2 2.1.3 3zM701.2.2zm0 0zm-10.1 13.1v.2h-.7c.2-1 .3-2.1.4-3.2 0 1.1.1 2.1.3 3zM638.4.2zm0 0zm-10.1 13.1v.2h-.6c.2-1 .3-2.1.4-3.2-.1 1.1 0 2.1.2 3zM659.4.2zm0 0zm-10.2 13.1v.2h-.7c.2-1 .3-2.1.4-3.2 0 1.1.1 2.1.3 3zM596.6.2zm0 0zm-10.2 13.1v.2h-.6c.2-1 .3-2.1.4-3.2-.1 1.1.1 2.1.2 3zM617.5.2zm-10.1 13.1v.2h-.6c.2-1 .3-2.1.4-3.2-.1 1.1 0 2.1.2 3zM554.7.2zm0 0zm-10.1 13.1v.2h-.6c.2-1 .3-2.1.4-3.2-.1 1.1 0 2.1.2 3zM575.7.2zm0 0zm-10.2 13.1v.2h-.6c.2-1 .3-2.1.4-3.2-.1 1.1 0 2.1.2 3zM512.9.2zm0 0zm-10.2 13.1v.2h-.6c.2-1 .3-2.1.4-3.2-.1 1.1.1 2.1.2 3zM533.8.2zm0 0zm-10.1 13.1v.2h-.6c.2-1 .3-2.1.4-3.2-.1 1.1 0 2.1.2 3zM471 .2zm0 0zm-10.1 13.1v.2h-.6c.2-1 .3-2.1.4-3.2-.1 1.1 0 2.1.2 3zM492 .2zm-10.2 13.1v.2h-.6c.2-1 .3-2.1.4-3.2-.1 1.1 0 2.1.2 3zM429.2.2zm0 0zM419 13.3v.2h-.7c.2-1 .3-2.1.3-3.2.1 1.1.3 2.1.4 3zM450.1.2zm0 0zM440 13.3v.2h-.7c.2-1 .3-2.1.3-3.2.1 1.1.2 2.1.4 3zM387.3.2zm0 0zm-10.1 13.1v.2h-.7c.2-1 .3-2.1.3-3.2.1 1.1.2 2.1.4 3zM408.3.2zm0 0zm-10.2 13.1v.2h-.7c.2-1 .3-2.1.3-3.2.1 1.1.2 2.1.4 3zM345.5.2zm-10.2 13.1v.2h-.7c.2-1 .3-2.1.3-3.2.1 1.1.3 2.1.4 3zM366.4.2zm0 0zm-10.1 13.1v.2h-.7c.2-1 .3-2.1.3-3.2.1 1.1.2 2.1.4 3zM303.6.2zm0 0zm-10.1 13.1v.2h-.7c.2-1 .3-2.1.3-3.2.1 1.1.2 2.1.4 3zM324.6.2zm0 0zm-10.2 13.1v.2h-.7c.2-1 .3-2.1.3-3.2.1 1.1.2 2.1.4 3zM261.8.2zm0 0zm-10.2 13.1v.2h-.7c.2-1 .3-2.1.3-3.2.1 1.1.3 2.1.4 3zM282.7.2zm0 0zm-10.1 13.1v.2h-.7c.2-1 .3-2.1.3-3.2.1 1.1.2 2.1.4 3zM219.9.2zm-10.1 13.1v.2h-.7c.2-1 .3-2.1.3-3.2.1 1.1.2 2.1.4 3zM240.9.2zm0 0zm-10.2 13.1v.2h-.7c.2-1 .3-2.1.3-3.2.1 1.1.2 2.1.4 3zM178.1.2zm-10.2 13.1v.2h-.7c.2-1 .3-2.1.3-3.2.1 1.1.2 2.1.4 3zM199 .2zm0 0zm-10.1 13.1v.2h-.7c.2-1 .3-2.1.3-3.2.1 1.1.2 2.1.4 3zM136.2.2zm0 0zm-10.1 13.1v.2h-.7c.2-1 .3-2.1.3-3.2.1 1.1.2 2.1.4 3zM157.2.2zM147 13.3v.2h-.7c.2-1 .3-2.1.3-3.2.1 1.1.2 2.1.4 3zM94.4.2zm0 0zM84.2 13.3v.2h-.7c.2-1 .3-2.1.3-3.2.1 1.1.2 2.1.4 3zM115.3.2zm0 0zm-10.1 13.1v.2h-.7c.2-1 .3-2.1.3-3.2.1 1.1.2 2.1.4 3zM52.5.2zm0 0zM42.4 13.3v.2h-.7c.2-1 .3-2.1.3-3.2.1 1.1.2 2.1.4 3zM73.5.2zm0 0zM63.3 13.3v.2h-.7c.2-1 .3-2.1.3-3.2.1 1.1.2 2.1.4 3zM10.7.2zm0 0zm20.9 0zm0 0zM21.5 13.3v.2h-.7c.2-1 .3-2.1.3-3.2.1 1.1.1 2.1.4 3zm0 27c0-.1 0-.1-.1-.2-.1.1-.2.1-.3.2h.4zm-.4 0c-.1-.1-.2-.1-.3-.2v.2h.3zm20.6 0v-.2c.1.1.2.1.3.2h.4v-.2c-.1.1-.2.1-.3.2h-.4zm21.6 0v-.2c-.1.1-.2.1-.3.2h.3zm-.3 0c-.1-.1-.2-.1-.3-.2v.2h.3zm20.6 0v-.2c.1.1.2.1.3.2h.4v-.2c-.1.1-.2.1-.3.2h-.4zm21.6 0v-.2c-.1.1-.2.1-.3.2h.3zm-.4 0c-.1-.1-.2-.1-.3-.2v.2h.3zM31.2 26.9h.4c.1-.1.2-.1.3-.2v.3h-.3c-.1-.1-.2-.1-.3-.2 0-.1 0 0-.1.1zm21-.2c.1.1.2.1.3.2h.3v-.3c-.1.1-.2.1-.3.2h-.4c.1 0 .1-.1.1-.1zm20.9.2h.4c.1-.1.2-.1.3-.2v.3h-.3c-.1-.1-.2-.1-.3-.2-.1-.1-.1 0-.1.1zm21-.2c.1.1.2.1.3.2h.3v-.3c-.1.1-.2.1-.3.2H94c.1 0 .1-.1.1-.1zm20.8.2h.4c.1-.1.2-.1.3-.2v.3h-.3c-.1-.1-.2-.1-.3-.2 0-.1 0 0-.1.1zM125.5 40c.1.1.2.1.3.2h.4V40c-.1.1-.2.1-.3.2h-.3c-.2 0-.1-.1-.1-.2zm21.5.3v-.2c-.1.1-.2.1-.3.2h.3zm-.3 0c-.1-.1-.2-.1-.3-.2v.2h.3zm20.6 0v-.2c.1.1.2.1.3.2h.4v-.2c-.1.1-.2.1-.3.2h-.4zm21.6 0v-.2c-.1.1-.2.1-.3.2h.3zm-.4 0c-.1-.1-.2-.1-.3-.2v.2h.3zm20.6 0v-.2c.1.1.2.1.3.2h.4v-.2c-.1.1-.2.1-.3.2h-.4zm21.6 0v-.2c-.1.1-.2.1-.3.2h.3zm-.3 0c-.1-.1-.2-.1-.3-.2v.2h.3zm20.6 0v-.2c.1.1.2.1.3.2h.4v-.2c-.1.1-.2.1-.3.2h-.4zm21.6 0v-.2c-.1.1-.2.1-.3.2h.3zm-.4 0c-.1-.1-.2-.1-.3-.2v.2h.3zm20.6 0v-.2c.1.1.2.1.3.2h.4v-.2c-.1.1-.2.1-.3.2h-.4zm21.6 0v-.2c-.1.1-.2.1-.3.2h.3zm-.3 0c-.1-.1-.2-.1-.3-.2v.2h.3zm20.6 0v-.2c.1.1.2.1.3.2h.4v-.2c-.1.1-.2.1-.3.2h-.4zm21.6 0v-.2c-.1.1-.2.1-.3.2h.3zm-.4 0c-.1-.1-.2-.1-.3-.2v.2h.3zm20.6 0v-.2c.1.1.2.1.3.2h.3v-.2c-.1.1-.2.1-.3.2h-.3zM135.9 26.7c.1.1.2.1.3.2h.3v-.3c-.1.1-.2.1-.3.2h-.4c.1 0 .1-.1.1-.1zm20.9.2h.4c.1-.1.2-.1.3-.2v.3h-.3c-.1-.1-.2-.1-.3-.2-.1-.1-.1 0-.1.1zm21-.2c.1.1.2.1.3.2h.3v-.3c-.1.1-.2.1-.3.2h-.4c.1 0 .1-.1.1-.1zm20.8.2h.4c.1-.1.2-.1.3-.2v.3h-.3c-.1-.1-.2-.1-.3-.2 0-.1 0 0-.1.1zm21-.2c.1.1.2.1.3.2h.3v-.3c-.1.1-.2.1-.3.2h-.4c.1 0 .1-.1.1-.1zm20.9.2h.4c.1-.1.2-.1.3-.2v.3h-.3c-.1-.1-.2-.1-.3-.2-.1-.1-.1 0-.1.1zm21-.2c.1.1.2.1.3.2h.3v-.3c-.1.1-.2.1-.3.2h-.4c.1 0 .1-.1.1-.1zm20.8.2h.4c.1-.1.2-.1.3-.2v.3h-.3c-.1-.1-.2-.1-.3-.2 0-.1 0 0-.1.1zm21-.2c.1.1.2.1.3.2h.3v-.3c-.1.1-.2.1-.3.2h-.4c.1 0 .1-.1.1-.1zm20.9.2h.4c.1-.1.2-.1.3-.2v.3h-.3c-.1-.1-.2-.1-.3-.2-.1-.1-.1 0-.1.1zm21-.2c.1.1.2.1.3.2h.3v-.3c-.1.1-.2.1-.3.2h-.4c.1 0 .1-.1.1-.1zm20.8.2h.4c.1-.1.2-.1.3-.2v.3h-.3c-.1-.1-.2-.1-.3-.2 0-.1 0 0-.1.1zm21-.2c.1.1.2.1.3.2h.3v-.3c-.1.1-.2.1-.3.2h-.4c.1 0 .1-.1.1-.1zm11.1 13.6v-.2c-.1.1-.2.1-.3.2h.3zm-.3 0c-.1-.1-.2-.1-.3-.2v.2h.3zm20.6 0v-.2c.1.1.2.1.3.2h.3v-.2c-.1.1-.2.1-.3.2h-.3zm21.6 0v-.2c-.1.1-.2.1-.3.2h.3zm-.4 0c-.1-.1-.2-.1-.3-.2v.2h.3zm20.6 0v-.2c.1.1.2.1.3.2h.3v-.2c-.1.1-.2.1-.3.2h-.3zm21.7 0v-.2c-.1.1-.2.1-.3.2h.3zm-.4 0c-.1-.1-.2-.1-.3-.2v.2h.3zm20.6 0v-.2c.1.1.2.1.3.2h.3v-.2c-.1.1-.2.1-.3.2h-.3zm21.6 0v-.2c-.1.1-.2.1-.3.2h.3zm-.4 0c-.1-.1-.2-.1-.3-.2v.2h.3zm20.6 0v-.2c.1.1.2.1.3.2h.3v-.2c-.1.1-.2.1-.3.2h-.3zm21.7 0v-.2c-.1.1-.2.1-.3.2h.3zm-.4 0c-.1-.1-.2-.1-.3-.2v.2h.3zm20.6 0v-.2c.1.1.2.1.3.2h.3v-.2c-.1.1-.2.1-.3.2h-.3zm21.6 0v-.2c-.1.1-.2.1-.3.2h.3zm-.3 0c-.1-.1-.2-.1-.3-.2v.2h.3zm20.5 0v-.2c.1.1.2.1.3.2h.3v-.2c-.1.1-.2.1-.3.2h-.3zm21.7 0v-.2c-.1.1-.2.1-.3.2h.3zm-.4 0c-.1-.1-.2-.1-.3-.2v.2h.3zm-241-13.4h.4c.1-.1.2-.1.3-.2v.3h-.3c-.1-.1-.2-.1-.3-.2-.1-.1-.1 0-.1.1zm21-.2c.1.1.2.1.3.2h.3v-.3c-.1.1-.2.1-.3.2h-.4c.1 0 .1-.1.1-.1zm20.8.2h.4c.1-.1.2-.1.3-.2 0 .1 0 .2.1.3h-.4c-.1-.1-.2-.1-.3-.2 0-.1 0 0-.1.1zm21-.2c.1.1.2.1.3.2h.4c0-.1 0-.2-.1-.3-.1.1-.2.1-.3.2h-.4c.1 0 .1-.1.1-.1zm20.9.2h.4c.1-.1.2-.1.3-.2 0 .1 0 .2.1.3h-.4c-.1-.1-.2-.1-.3-.2-.1-.1-.1 0-.1.1zm21-.2c.1.1.2.1.3.2h.4c0-.1 0-.2-.1-.3-.1.1-.2.1-.3.2h-.4c.1 0 .1-.1.1-.1zm20.8.2h.4c.1-.1.2-.1.3-.2 0 .1 0 .2.1.3h-.4c-.1-.1-.2-.1-.3-.2 0-.1 0 0-.1.1zm21-.2c.1.1.2.1.3.2h.4c0-.1 0-.2-.1-.3-.1.1-.2.1-.3.2h-.4c.1 0 .1-.1.1-.1zm20.9.2h.4c.1-.1.2-.1.3-.2 0 .1 0 .2.1.3h-.4c-.1-.1-.2-.1-.3-.2-.1-.1-.1 0-.1.1zm21-.2c.1.1.2.1.3.2h.4c0-.1 0-.1-.1-.3-.1.1-.2.1-.3.2h-.4c.1 0 .1-.1.1-.1zm20.8.2h.4c.1-.1.2-.1.3-.2 0 .1 0 .2.1.3h-.4c-.1-.1-.2-.1-.3-.2 0-.1 0 0-.1.1zm21-.2c.1.1.2.1.3.2h.4c0-.1 0-.2-.1-.3-.1.1-.2.1-.3.2h-.4c.1 0 .1-.1.1-.1zm20.9.2h.3c.1-.1.2-.1.3-.2 0 .1 0 .2.1.3h-.4c-.1-.1-.2-.1-.3-.2v.1zM669.5 40c.1.1.2.1.3.2h.3V40c-.1.1-.2.1-.3.2h-.4c.1 0 .1-.1.1-.2zm21.6.3v-.2c-.1.1-.2.1-.3.2h.3zm-.3 0c-.1-.1-.2-.1-.3-.2v.2h.3zm20.5 0v-.2c.1.1.2.1.3.2h.3v-.2c-.1.1-.2.1-.3.2h-.3zm21.7 0v-.2c-.1.1-.2.1-.3.2h.3zm-.4 0c-.1-.1-.2-.1-.3-.2v.2h.3zm20.6 0v-.2c.1.1.2.1.3.2h.3v-.2c-.1.1-.2.1-.3.2h-.3zm21.6 0h-.3c.1-.1.2-.1.3-.2v.2zm-.3 0h-.4v-.2c.2 0 .3.1.4.2zM680 26.7c.1.1.2.1.3.2h.4c0-.1 0-.1-.1-.3-.1.1-.2.1-.3.2h-.3v-.1zm20.9.2h.3c.1-.1.2-.1.3-.2 0 .1 0 .2.1.3h-.4c-.1-.1-.2-.1-.3-.2v.1zm20.9-.2c.1.1.2.1.3.2h.4c0-.1 0-.2-.1-.3-.1.1-.2.1-.3.2h-.3v-.1zm20.9.2h.3c.1-.1.2-.1.3-.2 0 .1 0 .2.1.3h-.4c-.1-.1-.2-.1-.3-.2v.1zm21-.2c.1.1.2.1.3.2h.4c0-.1 0-.2-.1-.3-.1.1-.2.1-.3.2h-.3v-.1zm20.9.2h.3c-.1-.1-.2-.1-.3-.2v.2z" fill="#fefefe" stroke="#ecedee" stroke-width=".482" stroke-linecap="round" stroke-linejoin="round" stroke-miterlimit="10"/><path class="st1" d="M795 40.3c.2-1 .3-2.1.4-3.2v-7.9c-2.8-1.5-6.6-2.4-10.5-2.4-3.8 0-7.7.8-10.4 2.4v7.9c0 1.1.1 2.2.4 3.2H795zm-20.9 0c.2-1 .3-2.1.4-3.2v-7.9c-2.8-1.5-6.6-2.4-10.5-2.4-3.8 0-7.7.8-10.4 2.4v7.9c0 1.1.1 2.2.3 3.2h20.2z"/><path class="st1" d="M784.9 26.9c6.3-4.6 10.4-9.7 10.5-16.5V2.5C792.6 1 788.8.2 784.9.2c-3.8 0-7.7.8-10.4 2.3v7.9c0 6.8 4.1 11.9 10.4 16.5zm-20.9 0c6.3-4.6 10.4-9.7 10.5-16.5V2.5C771.7 1 767.9.2 764 .2c-3.8 0-7.7.8-10.4 2.3v7.9c0 6.8 4.1 11.9 10.4 16.5z"/><path class="st1" d="M774.5 40.3c6.3-4.6 10.4-9.7 10.4-16.5v-7.9c-2.8-1.5-6.6-2.3-10.4-2.3-3.9 0-7.7.8-10.5 2.3v7.9c.1 6.7 4.1 11.9 10.5 16.5zm-21 0c6.3-4.6 10.4-9.7 10.4-16.5v-7.9c-2.8-1.5-6.6-2.3-10.4-2.3-3.9 0-7.7.8-10.5 2.3v7.9c.2 6.7 4.2 11.9 10.5 16.5z"/><path class="st1" d="M753.2 40.3c.2-1 .3-2.1.4-3.2v-7.9c-2.8-1.5-6.6-2.4-10.5-2.4-3.8 0-7.7.8-10.4 2.4v7.9c0 1.1.1 2.2.3 3.2h20.2zm-20.9 0c.2-1 .3-2.1.4-3.2v-7.9c-2.8-1.5-6.6-2.4-10.5-2.4-3.8 0-7.7.8-10.4 2.4v7.9c0 1.1.1 2.2.3 3.2h20.2zm-21 0c.2-1 .3-2.1.4-3.2v-7.9c-2.8-1.5-6.6-2.4-10.5-2.4-3.8 0-7.7.8-10.4 2.4v7.9c0 1.1.1 2.2.3 3.2h20.2zm-20.9 0c.2-1 .3-2.1.4-3.2v-7.9c-2.8-1.5-6.6-2.4-10.5-2.4-3.9 0-7.7.8-10.4 2.4v7.9c0 1.1.1 2.2.3 3.2h20.2z"/><path class="st1" d="M743.1 26.9c6.3-4.6 10.4-9.7 10.5-16.5V2.5C750.8 1 747 .2 743.1.2c-3.8 0-7.7.8-10.4 2.3v7.9c0 6.8 4 11.9 10.4 16.5zm-21 0c6.3-4.6 10.4-9.7 10.5-16.5V2.5C729.8 1 726 .2 722.1.2c-3.8 0-7.7.8-10.4 2.3v7.9c.1 6.8 4.1 11.9 10.4 16.5zm-20.9 0c6.3-4.6 10.4-9.7 10.5-16.5V2.5C708.9 1 705.1.2 701.2.2c-3.8 0-7.7.8-10.4 2.3v7.9c0 6.8 4.1 11.9 10.4 16.5zm-20.9 0c6.3-4.6 10.4-9.7 10.5-16.5V2.5C688 1 684.2.2 680.3.2c-3.8 0-7.7.8-10.4 2.3v7.9c0 6.8 4.1 11.9 10.4 16.5z"/><path class="st1" d="M732.6 40.3c6.3-4.6 10.4-9.7 10.4-16.5v-7.9c-2.8-1.5-6.6-2.3-10.4-2.3-3.9 0-7.7.8-10.5 2.3v7.9c.2 6.7 4.2 11.9 10.5 16.5zm-20.9 0c6.3-4.6 10.3-9.7 10.4-16.5v-7.9c-2.8-1.5-6.6-2.3-10.4-2.3-3.9 0-7.7.8-10.5 2.3v7.9c.1 6.7 4.2 11.9 10.5 16.5zm-20.9 0c6.3-4.6 10.3-9.7 10.4-16.5v-7.9c-2.8-1.5-6.6-2.3-10.4-2.3-3.9 0-7.7.8-10.5 2.3v7.9c.1 6.7 4.1 11.9 10.5 16.5zm-21 0c6.3-4.6 10.3-9.7 10.4-16.5v-7.9c-2.8-1.5-6.6-2.3-10.4-2.3-3.9 0-7.7.8-10.5 2.3v7.9c.2 6.7 4.2 11.9 10.5 16.5zm106.5 0h-3.6 3.6zm-20.9 0h-3.6 3.6zm-21 0h-3.6 3.6zm-20.9 0h-3.6 3.6zm-20.9 0H689h3.6zm-21 0H668h3.6z"/><path class="st1" d="M669.5 40.3c.2-1 .3-2.1.4-3.2v-7.9c-2.8-1.5-6.6-2.4-10.5-2.4-3.9 0-7.7.8-10.4 2.4v7.9c0 1.1.1 2.2.3 3.2h20.2zm-20.9 0c.2-1 .3-2.1.4-3.2v-7.9c-2.8-1.5-6.6-2.4-10.5-2.4-3.9 0-7.7.8-10.4 2.4v7.9c0 1.1.1 2.2.3 3.2h20.2zm-21 0c.2-1 .3-2.1.4-3.2v-7.9c-2.8-1.5-6.6-2.4-10.5-2.4-3.9 0-7.7.8-10.4 2.4v7.9c0 1.1.1 2.2.3 3.2h20.2zm-20.9 0c.2-1 .3-2.1.4-3.2v-7.9c-2.8-1.5-6.6-2.4-10.5-2.4-3.9 0-7.7.8-10.4 2.4v7.9c0 1.1.1 2.2.3 3.2h20.2z"/><path class="st1" d="M659.4 26.9c6.3-4.6 10.4-9.7 10.5-16.5V2.5C667.1 1 663.3.2 659.4.2c-3.8 0-7.7.8-10.4 2.3v7.9c0 6.8 4 11.9 10.4 16.5zm-21 0c6.3-4.6 10.4-9.7 10.5-16.5V2.5C646.1 1 642.3.2 638.4.2c-3.8 0-7.7.8-10.4 2.3v7.9c.1 6.8 4.1 11.9 10.4 16.5zm-20.9 0c6.3-4.6 10.4-9.7 10.5-16.5V2.5C625.2 1 621.4.2 617.5.2c-3.8 0-7.7.8-10.4 2.3v7.9c0 6.8 4.1 11.9 10.4 16.5zm-20.9 0c6.3-4.6 10.4-9.7 10.5-16.5V2.5C604.3 1 600.5.2 596.6.2c-3.9 0-7.7.8-10.4 2.3v7.9c0 6.8 4.1 11.9 10.4 16.5z"/><path class="st1" d="M648.9 40.3c6.3-4.6 10.3-9.7 10.4-16.5v-7.9c-2.8-1.5-6.6-2.3-10.4-2.3-3.9 0-7.7.8-10.5 2.3v7.9c.2 6.7 4.2 11.9 10.5 16.5zm-20.9 0c6.3-4.6 10.3-9.7 10.4-16.5v-7.9c-2.8-1.5-6.6-2.3-10.4-2.3-3.8 0-7.7.8-10.4 2.3v7.9c0 6.7 4.1 11.9 10.4 16.5zm-20.9 0c6.3-4.6 10.3-9.7 10.4-16.5v-7.9c-2.8-1.5-6.6-2.3-10.4-2.3-3.8 0-7.7.8-10.4 2.3v7.9c0 6.7 4 11.9 10.4 16.5zm-21 0c6.3-4.6 10.3-9.7 10.4-16.5v-7.9c-2.8-1.5-6.6-2.3-10.4-2.3-3.8 0-7.7.8-10.4 2.3v7.9c.1 6.7 4.1 11.9 10.4 16.5z"/><path class="st1" d="M585.8 40.3c.2-1 .3-2.1.4-3.2v-7.9c-2.8-1.5-6.6-2.4-10.5-2.4-3.9 0-7.7.8-10.4 2.4v7.9c0 1.1.1 2.2.3 3.2h20.2zm-20.9 0c.2-1 .3-2.1.4-3.2v-7.9c-2.8-1.5-6.6-2.4-10.5-2.4-3.9 0-7.7.8-10.5 2.4v7.9c0 1.1.1 2.2.4 3.2h20.2zm-21 0c.2-1 .3-2.1.3-3.2v-7.9c-2.8-1.5-6.6-2.4-10.4-2.4-3.9 0-7.7.8-10.5 2.4v7.9c0 1.1.1 2.2.4 3.2h20.2zm-20.9 0c.2-1 .3-2.1.3-3.2v-7.9c-2.8-1.5-6.6-2.4-10.4-2.4-3.9 0-7.7.8-10.5 2.4v7.9c0 1.1.1 2.2.4 3.2H523z"/><path class="st1" d="M575.7 26.9c6.3-4.6 10.4-9.7 10.5-16.5V2.5C583.4 1 579.6.2 575.7.2c-3.9 0-7.7.8-10.4 2.3v7.9c0 6.8 4 11.9 10.4 16.5zm-21 0c6.3-4.6 10.4-9.7 10.5-16.5V2.5C562.4 1 558.6.2 554.7.2c-3.9 0-7.7.8-10.4 2.3v7.9c.1 6.8 4.1 11.9 10.4 16.5zm-20.9 0c6.3-4.6 10.4-9.7 10.5-16.5V2.5C541.5 1 537.7.2 533.8.2c-3.9 0-7.7.8-10.4 2.3v7.9c0 6.8 4.1 11.9 10.4 16.5zm-20.9 0c6.3-4.6 10.4-9.7 10.5-16.5V2.5C520.6 1 516.8.2 512.9.2c-3.9 0-7.7.8-10.4 2.3v7.9c0 6.8 4.1 11.9 10.4 16.5z"/><path class="st1" d="M565.2 40.3c6.3-4.6 10.3-9.7 10.4-16.5v-7.9c-2.8-1.5-6.6-2.3-10.4-2.3-3.8 0-7.7.8-10.4 2.3v7.9c.1 6.7 4.1 11.9 10.4 16.5zm-20.9 0c6.3-4.6 10.4-9.7 10.5-16.5v-7.9c-2.8-1.5-6.6-2.3-10.4-2.3-3.8 0-7.7.8-10.4 2.3v7.9c-.1 6.7 4 11.9 10.3 16.5zm-21 0c6.3-4.6 10.4-9.7 10.5-16.5v-7.9c-2.8-1.5-6.6-2.3-10.4-2.3-3.8 0-7.7.8-10.4 2.3v7.9c0 6.7 4 11.9 10.3 16.5zm-20.9 0c6.3-4.6 10.4-9.7 10.5-16.5v-7.9c-2.8-1.5-6.6-2.3-10.4-2.3-3.8 0-7.7.8-10.4 2.3v7.9c0 6.7 4 11.9 10.3 16.5z"/><path class="st1" d="M502.1 40.3c.2-1 .3-2.1.3-3.2v-7.9c-2.8-1.5-6.6-2.4-10.4-2.4-3.9 0-7.7.8-10.5 2.4v7.9c0 1.1.1 2.2.4 3.2h20.2zm-20.9 0c.2-1 .3-2.1.3-3.2v-7.9c-2.8-1.5-6.6-2.4-10.4-2.4-3.9 0-7.7.8-10.5 2.4v7.9c0 1.1.1 2.2.4 3.2h20.2zm-21 0c.2-1 .3-2.1.3-3.2v-7.9c-2.8-1.5-6.6-2.4-10.4-2.4-3.9 0-7.7.8-10.5 2.4v7.9c0 1.1.1 2.2.4 3.2h20.2zm-20.9 0c.2-1 .3-2.1.3-3.2v-7.9c-2.8-1.5-6.6-2.4-10.4-2.4-3.9 0-7.7.8-10.5 2.4v7.9c0 1.1.1 2.2.4 3.2h20.2z"/><path class="st1" d="M492 26.9c6.3-4.6 10.4-9.7 10.5-16.5V2.5C499.7 1 495.9.2 492 .2c-3.9 0-7.7.8-10.4 2.3v7.9c0 6.8 4 11.9 10.4 16.5zm-21 0c6.3-4.6 10.4-9.7 10.5-16.5V2.5C478.7 1 474.9.2 471 .2c-3.9 0-7.7.8-10.4 2.3v7.9c.1 6.8 4.1 11.9 10.4 16.5zm-20.9 0c6.3-4.6 10.4-9.7 10.5-16.5V2.5C457.8 1 454 .2 450.1.2c-3.9 0-7.7.8-10.5 2.3v7.9c.1 6.8 4.2 11.9 10.5 16.5zm-20.9 0c6.3-4.6 10.4-9.7 10.4-16.5V2.5C436.8 1 433 .2 429.2.2c-3.9 0-7.7.8-10.5 2.3v7.9c.1 6.8 4.2 11.9 10.5 16.5z"/><path class="st1" d="M481.5 40.3c6.3-4.6 10.4-9.7 10.5-16.5v-7.9c-2.8-1.5-6.6-2.3-10.4-2.3-3.8 0-7.7.8-10.4 2.3v7.9c-.1 6.7 4 11.9 10.3 16.5zm-20.9 0c6.3-4.6 10.4-9.7 10.5-16.5v-7.9c-2.8-1.5-6.6-2.3-10.4-2.3-3.8 0-7.7.8-10.4 2.3v7.9c-.1 6.7 4 11.9 10.3 16.5zm-21 0c6.3-4.6 10.4-9.7 10.5-16.5v-7.9c-2.8-1.5-6.6-2.3-10.5-2.3-3.8 0-7.7.8-10.4 2.3v7.9c.1 6.7 4.1 11.9 10.4 16.5zm-20.9 0c6.3-4.6 10.4-9.7 10.5-16.5v-7.9c-2.8-1.5-6.6-2.3-10.5-2.3-3.8 0-7.7.8-10.4 2.3v7.9c.1 6.7 4.1 11.9 10.4 16.5z"/><path class="st1" d="M418.4 40.3c.2-1 .3-2.1.3-3.2v-7.9c-2.8-1.5-6.6-2.4-10.4-2.4-3.9 0-7.7.8-10.5 2.4v7.9c0 1.1.1 2.2.4 3.2h20.2zm-20.9 0c.2-1 .3-2.1.3-3.2v-7.9c-2.8-1.5-6.6-2.4-10.4-2.4-3.9 0-7.7.8-10.5 2.4v7.9c0 1.1.1 2.2.4 3.2h20.2z"/><path class="st1" d="M408.3 26.9c6.3-4.6 10.4-9.7 10.4-16.5V2.5C415.9 1 412.1.2 408.3.2c-3.9 0-7.7.8-10.5 2.3v7.9c.1 6.8 4.1 11.9 10.5 16.5zm-21 0c6.3-4.6 10.4-9.7 10.4-16.5V2.5C394.9 1 391.1.2 387.3.2c-3.9 0-7.7.8-10.5 2.3v7.9c.2 6.8 4.2 11.9 10.5 16.5z"/><path class="st1" d="M397.8 40.3c6.3-4.6 10.4-9.7 10.5-16.5v-7.9c-2.8-1.5-6.6-2.3-10.5-2.3-3.8 0-7.7.8-10.4 2.3v7.9c0 6.7 4.1 11.9 10.4 16.5zm252.9 0h-3.6 3.6zm-20.9 0h-3.6 3.6zm-20.9 0h-3.6 3.6zm-21 0h-3.6 3.6zm-20.9 0h-3.6 3.6zm-20.9 0h-3.6 3.6zm-20.9 0h-3.6 3.6zm-21 0h-3.6 3.6zm-20.9 0h-3.6 3.6zm-20.9 0h-3.6 3.6zm-21 0h-3.6 3.6zm-20.9 0h-3.6 3.6zm-20.9 0H396h3.6zm-22.7 0c6.3-4.6 10.4-9.7 10.5-16.5v-7.9c-2.8-1.5-6.6-2.3-10.5-2.3-3.8 0-7.7.8-10.4 2.3v7.9c0 6.7 4.1 11.9 10.4 16.5z"/><path class="st1" d="M376.5 40.3c.2-1 .3-2.1.3-3.2v-7.9c-2.8-1.5-6.6-2.4-10.4-2.4-3.9 0-7.7.8-10.5 2.4v7.9c0 1.1.1 2.2.4 3.2h20.2zm-20.9 0c.2-1 .3-2.1.3-3.2v-7.9c-2.8-1.5-6.6-2.4-10.4-2.4-3.9 0-7.7.8-10.5 2.4v7.9c0 1.1.1 2.2.4 3.2h20.2zm-20.9 0c.2-1 .3-2.1.3-3.2v-7.9c-2.8-1.5-6.6-2.4-10.4-2.4-3.9 0-7.7.8-10.5 2.4v7.9c0 1.1.1 2.2.4 3.2h20.2zm-21 0c.3-1 .4-2.1.4-3.2v-7.9c-2.8-1.5-6.6-2.4-10.4-2.4-3.9 0-7.7.8-10.5 2.4v7.9c0 1.1.1 2.2.4 3.2h20.1z"/><path class="st1" d="M366.4 26.9c6.3-4.6 10.4-9.7 10.4-16.5V2.5C374 1 370.2.2 366.4.2c-3.9 0-7.7.8-10.5 2.3v7.9c.1 6.8 4.2 11.9 10.5 16.5zm-20.9 0c6.3-4.6 10.4-9.7 10.4-16.5V2.5C353.1 1 349.3.2 345.5.2c-3.9 0-7.7.8-10.5 2.3v7.9c.1 6.8 4.2 11.9 10.5 16.5zm-20.9 0c6.3-4.6 10.4-9.7 10.4-16.5V2.5C332.2 1 328.4.2 324.6.2c-3.9 0-7.7.8-10.5 2.3v7.9c.1 6.8 4.1 11.9 10.5 16.5zm-21 0c6.3-4.6 10.4-9.7 10.4-16.5V2.5C311.2 1 307.4.2 303.6.2c-3.9 0-7.7.8-10.5 2.3v7.9c.2 6.8 4.2 11.9 10.5 16.5z"/><path class="st1" d="M355.9 40.3c6.3-4.6 10.4-9.7 10.5-16.5v-7.9c-2.8-1.5-6.6-2.3-10.5-2.3-3.8 0-7.7.8-10.4 2.3v7.9c.1 6.7 4.1 11.9 10.4 16.5zm-20.9 0c6.3-4.6 10.4-9.7 10.5-16.5v-7.9c-2.8-1.5-6.6-2.3-10.5-2.3-3.8 0-7.7.8-10.4 2.3v7.9c0 6.7 4.1 11.9 10.4 16.5zm-20.9 0c6.3-4.6 10.4-9.7 10.5-16.5v-7.9c-2.8-1.5-6.6-2.3-10.5-2.3-3.8 0-7.7.8-10.4 2.3v7.9c0 6.7 4.1 11.9 10.4 16.5zm-20.9 0c6.3-4.6 10.4-9.7 10.5-16.5v-7.9c-2.8-1.5-6.6-2.3-10.5-2.3-3.8 0-7.7.8-10.4 2.3v7.9c0 6.7 4.1 11.9 10.4 16.5z"/><path class="st1" d="M292.8 40.3c.3-1 .4-2.1.4-3.2v-7.9c-2.8-1.5-6.6-2.4-10.4-2.4-3.9 0-7.7.8-10.5 2.4v7.9c0 1.1.1 2.2.4 3.2h20.1zm-20.9 0c.3-1 .4-2.1.4-3.2v-7.9c-2.8-1.5-6.6-2.4-10.4-2.4-3.9 0-7.7.8-10.5 2.4v7.9c0 1.1.1 2.2.4 3.2h20.1zm-21 0c.3-1 .4-2.1.4-3.2v-7.9c-2.8-1.5-6.6-2.4-10.4-2.4-3.9 0-7.7.8-10.5 2.4v7.9c0 1.1.1 2.2.4 3.2h20.1zm-20.9 0c.3-1 .4-2.1.4-3.2v-7.9c-2.8-1.5-6.6-2.4-10.4-2.4-3.9 0-7.7.8-10.5 2.4v7.9c0 1.1.1 2.2.4 3.2H230z"/><path class="st1" d="M282.7 26.9c6.3-4.6 10.4-9.7 10.4-16.5V2.5C290.3 1 286.5.2 282.7.2c-3.9 0-7.7.8-10.5 2.3v7.9c.1 6.8 4.2 11.9 10.5 16.5zm-20.9 0c6.3-4.6 10.4-9.7 10.4-16.5V2.5C269.4 1 265.6.2 261.8.2c-3.9 0-7.7.8-10.5 2.3v7.9c.1 6.8 4.2 11.9 10.5 16.5zm-20.9 0c6.3-4.6 10.4-9.7 10.4-16.5V2.5C248.5 1 244.7.2 240.9.2c-3.9 0-7.7.8-10.5 2.3v7.9c.1 6.8 4.1 11.9 10.5 16.5zm-21 0c6.3-4.6 10.4-9.7 10.4-16.5V2.5C227.5 1 223.7.2 219.9.2c-3.9 0-7.7.8-10.5 2.3v7.9c.2 6.8 4.2 11.9 10.5 16.5z"/><path class="st1" d="M272.2 40.3c6.3-4.6 10.4-9.7 10.5-16.5v-7.9c-2.8-1.5-6.6-2.3-10.5-2.3-3.8 0-7.7.8-10.4 2.3v7.9c.1 6.7 4.1 11.9 10.4 16.5zm-20.9 0c6.3-4.6 10.4-9.7 10.5-16.5v-7.9c-2.8-1.5-6.6-2.3-10.5-2.3-3.8 0-7.7.8-10.4 2.3v7.9c0 6.7 4.1 11.9 10.4 16.5zm-20.9 0c6.3-4.6 10.4-9.7 10.5-16.5v-7.9c-2.8-1.5-6.6-2.3-10.5-2.3-3.8 0-7.7.8-10.4 2.3v7.9c0 6.7 4.1 11.9 10.4 16.5zm-20.9 0c6.3-4.6 10.4-9.7 10.5-16.5v-7.9c-2.8-1.5-6.6-2.3-10.5-2.3-3.8 0-7.7.8-10.4 2.3v7.9c0 6.7 4.1 11.9 10.4 16.5z"/><path class="st1" d="M209.1 40.3c.2-1 .4-2.1.4-3.2v-7.9c-2.8-1.5-6.6-2.4-10.4-2.4-3.9 0-7.7.8-10.5 2.4v7.9c0 1.1.1 2.2.4 3.2h20.1zm-20.9 0c.2-1 .4-2.1.4-3.2v-7.9c-2.8-1.5-6.6-2.4-10.4-2.4-3.9 0-7.7.8-10.5 2.4v7.9c0 1.1.1 2.2.4 3.2h20.1zm-21 0c.2-1 .4-2.1.4-3.2v-7.9c-2.8-1.5-6.6-2.4-10.4-2.4-3.9 0-7.7.8-10.5 2.4v7.9c0 1.1.1 2.2.4 3.2h20.1z"/><path class="st1" d="M146.3 40.3c.2-1 .4-2.1.4-3.2v-7.9c-2.8-1.5-6.6-2.4-10.4-2.4-3.9 0-7.7.8-10.5 2.4v7.9c0 1.1.1 2.2.4 3.2h20.1zM199 26.9c6.3-4.6 10.4-9.7 10.4-16.5V2.5C206.6 1 202.8.2 199 .2c-3.9 0-7.7.8-10.5 2.3v7.9c.1 6.8 4.2 11.9 10.5 16.5zm-20.9 0c6.3-4.6 10.4-9.7 10.4-16.5V2.5C185.7 1 181.9.2 178.1.2c-3.9 0-7.7.8-10.5 2.3v7.9c.1 6.8 4.2 11.9 10.5 16.5z"/><path class="st1" d="M157.2 26.9c6.3-4.6 10.4-9.7 10.4-16.5V2.5C164.8 1 161 .2 157.2.2c-3.9 0-7.7.8-10.5 2.3v7.9c.1 6.8 4.1 11.9 10.5 16.5zm-21 0c6.3-4.6 10.4-9.7 10.4-16.5V2.5C143.8 1 140 .2 136.2.2c-3.9 0-7.7.8-10.5 2.3v7.9c.2 6.8 4.2 11.9 10.5 16.5zm52.3 13.4c6.3-4.6 10.4-9.7 10.5-16.5v-7.9c-2.8-1.5-6.6-2.3-10.5-2.3-3.8 0-7.7.8-10.4 2.3v7.9c.1 6.7 4.1 11.9 10.4 16.5z"/><path class="st1" d="M167.6 40.3c6.3-4.6 10.4-9.7 10.5-16.5v-7.9c-2.8-1.5-6.6-2.3-10.5-2.3-3.8 0-7.7.8-10.4 2.3v7.9c0 6.7 4.1 11.9 10.4 16.5zm-20.9 0c6.3-4.6 10.4-9.7 10.5-16.5v-7.9c-2.8-1.5-6.6-2.3-10.5-2.3-3.8 0-7.7.8-10.4 2.3v7.9c0 6.7 4.1 11.9 10.4 16.5z"/><path class="st1" d="M125.8 40.3c6.3-4.6 10.4-9.7 10.5-16.5v-7.9c-2.8-1.5-6.6-2.3-10.5-2.3-3.8 0-7.7.8-10.4 2.3v7.9c0 6.7 4.1 11.9 10.4 16.5zm252.9 0h-3.6 3.6zm-21 0h-3.6 3.6zm-20.9 0h-3.6 3.6zm-20.9 0h-3.6 3.6zm-20.9 0h-3.6 3.6zm-21 0h-3.6 3.6zm-20.9 0h-3.6 3.6zm-20.9 0h-3.6 3.6zm-20.9 0h-3.6 3.6zm-21 0h-3.6 3.6zm-20.9 0h-3.6 3.6zm-20.9 0h-3.6 3.6zm-20.9 0H124h3.6z"/><path class="st1" d="M125.4 40.3c.2-1 .4-2.1.4-3.2v-7.9c-2.8-1.5-6.6-2.4-10.4-2.4-3.9 0-7.7.8-10.5 2.4v7.9c0 1.1.1 2.2.4 3.2h20.1zm-20.9 0c.2-1 .4-2.1.4-3.2v-7.9c-2.8-1.5-6.6-2.4-10.4-2.4-3.9 0-7.7.8-10.5 2.4v7.9c0 1.1.1 2.2.4 3.2h20.1zm-21 0c.2-1 .4-2.1.4-3.2v-7.9c-2.8-1.5-6.6-2.4-10.4-2.4-3.9 0-7.7.8-10.5 2.4v7.9c0 1.1.1 2.2.4 3.2h20.1zm-20.9 0c.2-1 .4-2.1.4-3.2v-7.9c-2.8-1.5-6.6-2.4-10.4-2.4-3.9 0-7.7.8-10.5 2.4v7.9c0 1.1.1 2.2.4 3.2h20.1z"/><path class="st1" d="M115.3 26.9c6.3-4.6 10.4-9.7 10.4-16.5V2.5C122.9 1 119.1.2 115.3.2c-3.9 0-7.7.8-10.5 2.3v7.9c.1 6.8 4.2 11.9 10.5 16.5z"/><path class="st1" d="M94.4 26.9c6.3-4.6 10.4-9.7 10.4-16.5V2.5C102.1 1 98.2.2 94.4.2c-3.9 0-7.7.8-10.5 2.3v7.9c.1 6.8 4.2 11.9 10.5 16.5zm-20.9 0c6.3-4.6 10.4-9.7 10.4-16.5V2.5C81.1 1 77.3.2 73.5.2 69.6.2 65.8 1 63 2.5v7.9c.1 6.8 4.1 11.9 10.5 16.5zm-21 0c6.3-4.6 10.4-9.7 10.4-16.5V2.5C60.2 1 56.4.2 52.5.2 48.6.2 44.8 1 42 2.5v7.9c.2 6.8 4.2 11.9 10.5 16.5z"/><path class="st1" d="M104.8 40.3c6.3-4.6 10.4-9.7 10.5-16.5v-7.9c-2.8-1.5-6.6-2.3-10.5-2.3-3.8 0-7.7.8-10.4 2.3v7.9c.1 6.7 4.1 11.9 10.4 16.5z"/><path class="st1" d="M83.9 40.3c6.3-4.6 10.4-9.7 10.5-16.5v-7.9c-2.8-1.5-6.6-2.3-10.5-2.3-3.8 0-7.7.8-10.4 2.3v7.9c0 6.7 4.1 11.9 10.4 16.5zm-20.9 0c6.3-4.6 10.4-9.7 10.5-16.5v-7.9c-2.8-1.5-6.6-2.3-10.5-2.3-3.8 0-7.7.8-10.4 2.3v7.9c0 6.7 4.1 11.9 10.4 16.5zm-20.9 0c6.3-4.6 10.4-9.7 10.5-16.5v-7.9c-2.8-1.5-6.6-2.3-10.5-2.3-3.8 0-7.7.8-10.4 2.3v7.9c0 6.7 4.1 11.9 10.4 16.5z"/><path class="st1" d="M41.7 40.3c.2-1 .4-2.1.4-3.2v-7.9c-2.8-1.5-6.6-2.4-10.4-2.4-3.9 0-7.7.8-10.5 2.4v7.9c0 1.1.1 2.2.4 3.2h20.1zm-20.9 0c.2-1 .4-2.1.4-3.2v-7.9c-2.8-1.5-6.6-2.4-10.4-2.4-3.9 0-7.7.8-10.5 2.4v7.9c0 1.1.1 2.2.4 3.2h20.1z"/><path class="st1" d="M31.6 26.9C37.9 22.3 42 17.2 42 10.4V2.5C39.3 1 35.4.2 31.6.2c-3.9 0-7.7.8-10.5 2.3v7.9c.1 6.8 4.2 11.9 10.5 16.5zm-20.9 0c6.3-4.6 10.4-9.7 10.4-16.5V2.5C18.4 1 14.5.2 10.7.2 6.8.2 3 1 .2 2.5v7.9c.1 6.8 4.2 11.9 10.5 16.5z"/><path class="st1" d="M21.1 40.3c6.3-4.6 10.4-9.7 10.5-16.5v-7.9c-2.8-1.5-6.6-2.3-10.5-2.3-3.8 0-7.7.8-10.4 2.3v7.9c.1 6.7 4.1 11.9 10.4 16.5zm85.5 0H103h3.6zm-20.9 0h-3.6 3.6zm-20.9 0h-3.6 3.6zm-20.9 0h-3.6 3.6zm-21 0h-3.6 3.6z"/><path d="M21.5 13.5c3.7.1 7.4.8 10.1 2.3 2.7-1.5 6.4-2.2 10.1-2.3v-.2C36.6 9.5 33 5.4 31.9.2h-.7c-1.1 5.2-4.7 9.4-9.8 13.1.1.1.1.2.1.2zm-20.9 0c3.7.1 7.4.8 10.1 2.3 2.7-1.5 6.4-2.2 10.1-2.3v-.2C15.7 9.5 12.1 5.4 11 .2h-.7C9.2 5.4 5.6 9.6.5 13.3c0 .1 0 .2.1.2zm62.7 0c3.7.1 7.4.8 10.1 2.3 2.7-1.5 6.4-2.2 10.1-2.3v-.2C78.4 9.5 74.8 5.4 73.7.2H73c-1.1 5.2-4.7 9.4-9.8 13.1.1.1.1.2.1.2zm-20.9 0c3.7.1 7.4.8 10.1 2.3 2.7-1.5 6.4-2.2 10.1-2.3v-.2C57.5 9.5 53.9 5.4 52.8.2h-.7c-1.1 5.2-4.7 9.4-9.8 13.1.1.1.1.2.1.2zm62.8 0c3.7.1 7.4.8 10.1 2.3 2.7-1.5 6.4-2.2 10.1-2.3v-.2c-5.1-3.8-8.7-7.9-9.8-13.1h-.7c-1.1 5.2-4.7 9.4-9.8 13.1.1.1.1.2.1.2zm-20.9 0c3.7.1 7.4.8 10.1 2.3 2.7-1.5 6.4-2.2 10.1-2.3v-.2C99.4 9.5 95.8 5.4 94.7.2H94c-1.1 5.2-4.7 9.4-9.8 13.1 0 .1 0 .2.1.2zm62.7 0c3.7.1 7.4.8 10.1 2.3 2.7-1.5 6.4-2.2 10.1-2.3v-.2c-5.1-3.8-8.7-7.9-9.8-13.1h-.7c-1.1 5.2-4.7 9.4-9.8 13.1.1.1.1.2.1.2zm-20.9 0c3.7.1 7.4.8 10.1 2.3 2.7-1.5 6.4-2.2 10.1-2.3v-.2c-5.1-3.8-8.7-7.9-9.8-13.1h-.7c-1.1 5.2-4.7 9.4-9.8 13.1.1.1.1.2.1.2zm62.8 0c3.7.1 7.4.8 10.1 2.3 2.7-1.5 6.4-2.2 10.1-2.3v-.2c-5.1-3.8-8.7-7.9-9.8-13.1h-.7c-1.1 5.2-4.7 9.4-9.8 13.1.1.1.1.2.1.2zm-20.9 0c3.7.1 7.4.8 10.1 2.3 2.7-1.5 6.4-2.2 10.1-2.3v-.2c-5.1-3.8-8.7-7.9-9.8-13.1h-.7c-1.1 5.2-4.7 9.4-9.8 13.1 0 .1 0 .2.1.2zm62.7 0c3.7.1 7.4.8 10.1 2.3 2.7-1.5 6.4-2.2 10.1-2.3v-.2c-5.1-3.8-8.7-7.9-9.8-13.1h-.7c-1.1 5.2-4.7 9.4-9.8 13.1.1.1.1.2.1.2zm-20.9 0c3.7.1 7.4.8 10.1 2.3 2.7-1.5 6.4-2.2 10.1-2.3v-.2c-5.1-3.8-8.7-7.9-9.8-13.1h-.7c-1.1 5.2-4.7 9.4-9.8 13.1.1.1.1.2.1.2zm62.8 0c3.7.1 7.4.8 10.1 2.3 2.7-1.5 6.4-2.2 10.1-2.3v-.2c-5.1-3.8-8.7-7.9-9.8-13.1h-.7c-1.1 5.2-4.7 9.4-9.8 13.1.1.1.1.2.1.2zm-20.9 0c3.7.1 7.4.8 10.1 2.3 2.7-1.5 6.4-2.2 10.1-2.3v-.2c-5.1-3.8-8.7-7.9-9.8-13.1h-.7c-1.1 5.2-4.7 9.4-9.8 13.1 0 .1 0 .2.1.2zm62.7 0c3.7.1 7.4.8 10.1 2.3 2.7-1.5 6.4-2.2 10.1-2.3v-.2c-5.1-3.8-8.7-7.9-9.8-13.1h-.7c-1.1 5.2-4.7 9.4-9.8 13.1.1.1.1.2.1.2zm-20.9 0c3.7.1 7.4.8 10.1 2.3 2.7-1.5 6.4-2.2 10.1-2.3v-.2c-5.1-3.8-8.7-7.9-9.8-13.1h-.7c-1.1 5.2-4.7 9.4-9.8 13.1.1.1.1.2.1.2zm62.8 0c3.7.1 7.4.8 10.1 2.3 2.7-1.5 6.4-2.2 10.1-2.3v-.2c-5.1-3.8-8.7-7.9-9.8-13.1h-.7c-1.1 5.2-4.7 9.4-9.8 13.1.1.1.1.2.1.2zm-20.9 0c3.7.1 7.4.8 10.1 2.3 2.7-1.5 6.4-2.2 10.1-2.3v-.2c-5.1-3.8-8.7-7.9-9.8-13.1h-.7c-1.1 5.2-4.7 9.4-9.8 13.1 0 .1 0 .2.1.2zm62.7 0c3.7.1 7.4.8 10.1 2.3 2.7-1.5 6.4-2.2 10.1-2.3v-.2c-5.1-3.8-8.7-7.9-9.8-13.1h-.7c-1.1 5.2-4.7 9.4-9.8 13.1.1.1.1.2.1.2zm-20.9 0c3.7.1 7.4.8 10.1 2.3 2.7-1.5 6.4-2.2 10.1-2.3v-.2c-5.1-3.8-8.7-7.9-9.8-13.1h-.7c-1.1 5.2-4.7 9.4-9.8 13.1.1.1.1.2.1.2zm62.8 0c3.7.1 7.4.8 10.1 2.3 2.7-1.5 6.4-2.2 10.1-2.3v-.2c-5.1-3.8-8.7-7.9-9.8-13.1h-.7c-1.1 5.2-4.7 9.4-9.8 13.1.1.1.1.2.1.2zm-20.9 0c3.7.1 7.4.8 10.1 2.3 2.7-1.5 6.4-2.2 10.1-2.3v-.2c-5.1-3.8-8.7-7.9-9.8-13.1h-.7c-1.1 5.2-4.7 9.4-9.8 13.1 0 .1.1.2.1.2zm62.8 0c3.7.1 7.4.8 10.1 2.3 2.7-1.5 6.4-2.2 10.1-2.3v-.2c-5.1-3.8-8.7-7.9-9.8-13.1h-.7c-1.1 5.2-4.7 9.4-9.8 13.1 0 .1.1.2.1.2zm-21 0c3.7.1 7.4.8 10.1 2.3 2.7-1.5 6.4-2.2 10.1-2.3v-.2c-5.1-3.8-8.7-7.9-9.8-13.1h-.7c-1.1 5.2-4.7 9.4-9.8 13.1.1.1.1.2.1.2zm62.8 0c3.7.1 7.4.8 10.1 2.3 2.7-1.5 6.4-2.2 10.1-2.3v-.2c-5.1-3.8-8.7-7.9-9.8-13.1h-.7c-1.1 5.2-4.7 9.4-9.8 13.1.1.1.1.2.1.2zm-20.9 0c3.7.1 7.4.8 10.1 2.3 2.7-1.5 6.4-2.2 10.1-2.3v-.2c-5.1-3.8-8.7-7.9-9.8-13.1h-.7c-1.1 5.2-4.7 9.4-9.8 13.1 0 .1.1.2.1.2zm62.8 0c3.7.1 7.4.8 10.1 2.3 2.7-1.5 6.4-2.2 10.1-2.3v-.2c-5.1-3.8-8.7-7.9-9.8-13.1h-.7c-1.1 5.2-4.7 9.4-9.8 13.1 0 .1.1.2.1.2zm-21 0c3.7.1 7.4.8 10.1 2.3 2.7-1.5 6.4-2.2 10.1-2.3v-.2c-5.1-3.8-8.7-7.9-9.8-13.1h-.7c-1.1 5.2-4.7 9.4-9.8 13.1.1.1.1.2.1.2zm62.8 0c3.7.1 7.4.8 10.1 2.3 2.7-1.5 6.4-2.2 10.1-2.3v-.2c-5.1-3.8-8.7-7.9-9.8-13.1h-.7c-1.1 5.2-4.7 9.4-9.8 13.1.1.1.1.2.1.2zm-20.9 0c3.7.1 7.4.8 10.1 2.3 2.7-1.5 6.4-2.2 10.1-2.3v-.2c-5.1-3.8-8.7-7.9-9.8-13.1h-.7c-1.1 5.2-4.7 9.4-9.8 13.1 0 .1.1.2.1.2zm62.8 0c3.7.1 7.4.8 10.1 2.3 2.7-1.5 6.4-2.2 10.1-2.3v-.2c-5.1-3.8-8.7-7.9-9.8-13.1h-.7c-1.1 5.2-4.7 9.4-9.8 13.1 0 .1.1.2.1.2zm-21 0c3.7.1 7.4.8 10.1 2.3 2.7-1.5 6.4-2.2 10.1-2.3v-.2c-5.1-3.8-8.7-7.9-9.8-13.1h-.7c-1.1 5.2-4.7 9.4-9.8 13.1.1.1.1.2.1.2zm62.8 0c3.8.1 7.4.8 10.1 2.3 2.7-1.5 6.4-2.2 10.1-2.3v-.2c-5.1-3.8-8.7-7.9-9.8-13.1h-.7c-1.1 5.2-4.7 9.4-9.8 13.1.1.1.1.2.1.2zm-20.9 0c3.8.1 7.4.8 10.1 2.3 2.7-1.5 6.4-2.2 10.1-2.3v-.2c-5.1-3.8-8.7-7.9-9.8-13.1h-.7c-1.1 5.2-4.7 9.4-9.8 13.1 0 .1.1.2.1.2zm62.8 0c3.8.1 7.4.8 10.1 2.3 2.7-1.5 6.4-2.2 10.1-2.3v-.2c-5.1-3.8-8.7-7.9-9.8-13.1h-.7c-1.1 5.2-4.7 9.4-9.8 13.1 0 .1.1.2.1.2zm-21 0c3.8.1 7.4.8 10.1 2.3 2.7-1.5 6.4-2.2 10.1-2.3v-.2c-5.1-3.8-8.7-7.9-9.8-13.1h-.7c-1.1 5.2-4.7 9.4-9.8 13.1.1.1.1.2.1.2zm62.8 0c3.8.1 7.4.8 10.1 2.3 2.7-1.5 6.4-2.2 10.1-2.3v-.2c-5.1-3.8-8.7-7.9-9.8-13.1h-.7c-1.1 5.2-4.7 9.4-9.8 13.1.1.1.1.2.1.2zm-20.9 0c3.8.1 7.4.8 10.1 2.3 2.7-1.5 6.4-2.2 10.1-2.3v-.2c-5.1-3.8-8.7-7.9-9.8-13.1h-.7c-1.1 5.2-4.7 9.4-9.8 13.1 0 .1.1.2.1.2z" fill="none" stroke="#ecedee" stroke-width=".482" stroke-miterlimit="10"/><path class="st3" d="M83.9 9.8V2.5C81.2 1 77.5.3 73.8.2c1.1 5.2 4.7 9.4 9.8 13.1.2-1.1.3-2.3.3-3.5z"/><path class="st4" d="M157.2 15.8v7.9c0 1 .1 2 .3 2.9 5.1-3.8 8.7-7.9 9.8-13.1-3.8.1-7.5.9-10.1 2.3z"/><path class="st5" d="M283 .2c1.1 5.2 4.7 9.4 9.8 13.1.2-1.1.3-2.3.3-3.5V2.5C290.5 1 286.8.3 283 .2z"/><path class="st4" d="M366 26.9c-1.1 5.1-4.7 9.3-9.8 13.1-.2-1.1-.3-2.2-.3-3.5v-7.3c2.7-1.5 6.4-2.2 10.1-2.3zM470.7.2c-1.1 5.2-4.6 9.4-9.8 13.1-.2-1.1-.3-2.3-.3-3.5V2.5C463.3 1 467 .3 470.7.2z"/><path class="st5" d="M586.1 29v10.2c0 .3.1.5.1.7 5.3-3.9 8.7-7.9 9.8-13.1-3.6 0-7.2.8-9.9 2.2z"/><path class="st3" d="M648.9 2.5v7.9c0 1-.1 2-.3 2.9-5.2-3.8-8.7-7.9-9.8-13.1 3.7.1 7.4.8 10.1 2.3z"/><path class="st6" d="M523.7 13.3c1.1 5.2 4.7 9.3 9.8 13.1.2-1.1.3-2.3.3-3.5v-7.3c-2.7-1.4-6.4-2.2-10.1-2.3z"/><path class="st4" d="M732.3 13.5c-1.1 5.2-4.7 9.4-9.8 13.1-.2-1.1-.3-2.3-.3-3.5v-7.3c2.6-1.4 6.3-2.2 10.1-2.3z"/><path d="M292.8 40.3h-1.4 1.4zm377.4 0h1.4-1.4zm-607.6 0h-1.4 1.4z" fill="#ecedee" stroke="#ecedee" stroke-width=".482" stroke-miterlimit="10"/><path class="st3" d="M439.6 29.2v7.9c0 1-.1 2-.3 3-5.3-3.9-8.7-7.9-9.8-13.1 3.8 0 7.5.7 10.1 2.2z"/><path class="st6" d="M240.5 26.9c-1.1 5.1-4.7 9.3-9.8 13.1-.2-1.1-.3-2.2-.3-3.5v-7.3c2.7-1.5 6.4-2.2 10.1-2.3z"/></svg>