<?xml version="1.0" encoding="utf-8"?>
<!-- Generator: Adobe Illustrator 21.0.0, SVG Export Plug-In . SVG Version: 6.00 Build 0)  -->
<svg version="1.1" id="Слой_1" xmlns="http://www.w3.org/2000/svg" xmlns:xlink="http://www.w3.org/1999/xlink" x="0px" y="0px"
	 viewBox="0 0 130.8 242" style="enable-background:new 0 0 130.8 242;" xml:space="preserve">
<style type="text/css">
	.st0{clip-path:url(#SVGID_2_);fill:#262E60;}
</style>
<g>
	<defs>
		<rect id="SVGID_1_" width="130.8" height="242"/>
	</defs>
	<clipPath id="SVGID_2_">
		<use xlink:href="#SVGID_1_"  style="overflow:visible;"/>
	</clipPath>
	<path class="st0" d="M125.9,0.1L94.5,0c-35.3,0-58,23.4-58,59.6V87H4.9C2.2,87,0,89.2,0,91.9v39.8c0,2.7,2.2,4.9,4.9,4.9h31.6V237
		c0,2.7,2.2,4.9,4.9,4.9h41.2c2.7,0,4.9-2.2,4.9-4.9V136.7h36.9c2.7,0,4.9-2.2,4.9-4.9l0-39.8c0-1.3-0.5-2.6-1.4-3.5
		c-0.9-0.9-2.2-1.4-3.5-1.4H87.5V63.7c0-11.2,2.7-16.9,17.2-16.9l21.1,0c2.7,0,4.9-2.2,4.9-4.9V5C130.8,2.3,128.6,0.1,125.9,0.1"/>
</g>
</svg>
