<?xml version="1.0" encoding="utf-8"?>
<!-- Generator: Adobe Illustrator 21.0.0, SVG Export Plug-In . SVG Version: 6.00 Build 0)  -->
<svg version="1.1" id="Слой_1" xmlns="http://www.w3.org/2000/svg" xmlns:xlink="http://www.w3.org/1999/xlink" x="0px" y="0px"
	 viewBox="0 0 348.1 192.7" style="enable-background:new 0 0 348.1 192.7;" xml:space="preserve">
<style type="text/css">
	.st0{fill:#262E60;}
</style>
<path class="st0" d="M348.1,7.1c0,0.2,0,0.4,0,0.5c-0.2,0.4-0.3,0.8-0.5,1.2c-1.1,3.2-2.2,6.4-3.3,9.6c-3.8,10.3-7.9,20.5-12.8,30.4
	c-3.5,7-7.7,13.6-13.1,19.4c-3.4,3.7-6.7,7.5-9.9,11.3c-3.6,4.3-7.1,8.7-10,13.5c-2,3.3-3.7,6.8-4.8,10.6c-1.5,5-1,9.8,1.8,14.3
	c0.9,1.4,1.8,2.8,2.8,4.1c2.5,3.3,5.5,6.2,8.6,9c2.8,2.6,5.7,5.1,8.6,7.6c5.2,4.4,9.9,9.2,14.8,13.9c3.4,3.2,6.6,6.6,9.5,10.2
	c2.3,2.9,4.3,5.9,5.7,9.3c1.1,2.8,1.7,5.7,1.5,8.7c-0.1,1.5-0.4,2.9-0.9,4.2c-1.2,3-3.5,4.8-6.5,5.9c-2.3,0.9-4.8,1.3-7.2,1.4
	c-3,0.1-6,0.2-9,0.2c-4,0-7.9-0.3-11.9-0.3c-4.9,0-9.8,0.2-14.7,0.4c-0.3,0-0.6,0.1-0.9,0.1c-3.9,0-7.8,0-11.8,0
	c-0.3-0.1-0.7-0.1-1-0.2c-2.3-0.2-4.7-0.4-7-0.7c-6.6-1-12.5-3.5-17.9-7.4c-3.6-2.6-6.6-5.8-9.5-9.2c-4.3-5.2-8.6-10.4-12.9-15.5
	c-0.9-1.1-1.8-2.1-2.8-3.1c-2-2.2-4.2-4.1-6.8-5.6c-2.8-1.6-5.8-2.2-9-1.7c-3,0.5-5.5,1.9-7.3,4.4c-1,1.4-1.7,3-2.3,4.6
	c-1,2.9-1.5,5.9-1.9,8.8c-0.6,4-1,8.1-1.6,12.1c-0.4,3.1-1.1,6.1-2.1,9c-0.2,0.6-0.5,0.9-1.1,0.9c-6,0.9-12.1,1.6-18.2,1.9
	c-7.1,0.4-14.1,0.3-21.2-0.3c-5.1-0.4-10.2-1.1-15.2-2.2c-11.5-2.3-22.4-6.3-32.7-12c-10.7-5.9-20.2-13.4-28.8-21.9
	c-7.6-7.5-14.3-15.7-20.6-24.3c-7-9.6-13.3-19.6-19.5-29.8c-6-9.8-11.6-19.8-16.6-30.1c-6.4-13.2-12.4-26.6-18.1-40.1
	C6.8,22.6,3.6,14.8,0.4,7C0.2,6.7,0.1,6.4,0,6c21.9-0.1,43.7-0.2,65.5-0.2c0.3,0.5,0.5,0.9,0.7,1.2c7.7,13.9,15.4,27.9,23.1,41.8
	c3.7,6.7,7.6,13.1,12.1,19.3c3.3,4.6,6.6,9.2,9.9,13.7c1.3,1.8,2.6,3.5,4,5.2c1.3,1.5,2.7,3,4.2,4.2c1.2,1,2.6,1.8,4.1,2.3
	c2.8,0.9,5.3,0.3,7.3-1.9c1-1.1,1.7-2.3,2.4-3.6c1.1-2.2,1.9-4.5,2.5-6.8c1.8-6.8,2.6-13.8,2.8-20.9c0.1-3.9,0-7.8-0.1-11.7
	c-0.1-4.2-0.7-8.5-1.5-12.6c-0.6-3-1.3-5.9-2.5-8.7c-1.1-2.6-2.8-4.8-5.1-6.5c-1.7-1.3-3.6-2.3-5.6-3c-2.4-0.9-4.9-1.7-7.3-2.5
	c-0.2-0.1-0.5-0.2-0.7-0.3c0.4-1.9,1.4-3.3,2.7-4.5c1.5-1.3,3.1-2.3,4.9-3.2c3-1.5,6.1-2.5,9.4-3.4c9.1-2.4,18.4-3.4,27.7-3.7
	c5-0.2,9.9-0.1,14.9,0.3c4.4,0.3,8.8,0.9,13.1,1.8c2.9,0.7,5.8,1.5,8.5,2.9c1.8,0.9,3.3,2.1,4.5,3.7c1.9,2.5,3,5.3,3.8,8.3
	c0.9,3.9,1.1,7.9,1.1,11.8c-0.1,5.7-0.8,11.3-1.4,16.9c-0.6,5.2-1.2,10.4-1.8,15.6c-0.5,5-0.7,9.9-0.2,14.9c0.3,3.1,0.9,6.1,2.1,9
	c1.4,3.3,3.4,6,6.3,8.1c0.5,0.4,0.8,0.4,1.4,0.1c1.6-1,3.2-2,4.8-3.1c4.7-3.3,8.7-7.3,12.5-11.6c5.9-6.6,11-13.7,15.6-21.2
	c10-15.8,18.2-32.6,25.3-49.8c0.1-0.3,0.3-0.6,0.4-1c1.2,0,2.4,0,3.6,0c7.9,0,15.8,0.1,23.8,0.2c9.2,0.1,18.4,0.1,27.6,0.2
	c6.7,0,13.5,0.1,20.2,0.1C347.1,7.2,347.6,7.2,348.1,7.1z"/>
</svg>
