<svg width="512" height="512" viewBox="0 0 512 512" fill="none" xmlns="http://www.w3.org/2000/svg">
<path d="M442.6 84.7L362.3 4.4C359.6 1.7 355.8 0 351.7 0H166.5H110C85.2 0 65 20.2 65 45C65 76.6 65 87.1 65 87.1V93.5V410.5V467C65 491.8 85.2 512 110 512C141.6 512 152.1 512 152.1 512H158.5H353.5H359.9C359.9 512 370.4 512 402 512C426.8 512 447 491.8 447 467V410.5V95.3C447 91.2 445.3 87.4 442.6 84.7ZM366.7 51.2L395.8 80.3H366.7V51.2ZM417 410.5V467C417 475.3 410.3 482 402 482H353.5H158.5H110C101.7 482 95 475.3 95 467V410.5V93.5V45C95 36.7 101.7 30 110 30H166.5H336.6V95.3C336.6 103.6 343.3 110.3 351.6 110.3H417V410.5Z" fill="#3C60AA"/>
<path d="M348.5 195C348.5 186.7 341.8 180 333.5 180C325.2 180 318.5 186.7 318.5 195V216.2H297.3C289 216.2 282.3 222.9 282.3 231.2C282.3 239.5 289 246.2 297.3 246.2H318.5V267.4C318.5 275.7 325.2 282.4 333.5 282.4C341.8 282.4 348.5 275.7 348.5 267.4V246.2H369.7C378 246.2 384.7 239.5 384.7 231.2C384.7 222.9 378 216.2 369.7 216.2H348.5V195Z" fill="#3C60AA"/>
<path d="M239.6 188.9C237.2 183.5 231.8 180.1 225.9 180.1C220 180.1 214.6 183.6 212.2 188.9L141.6 345.9C138.2 353.5 141.6 362.3 149.1 365.7C151.1 366.6 153.2 367 155.2 367C160.9 367 166.4 363.7 168.9 358.2L182.1 328.9H269.6L282.8 358.2C286.2 365.8 295.1 369.1 302.6 365.7C310.2 362.3 313.5 353.4 310.1 345.9L239.6 188.9ZM195.7 298.8L226 231.5L256.3 298.8H195.7Z" fill="#3C60AA"/>
</svg>
