<svg width="512" height="512" viewBox="0 0 512 512" fill="none" xmlns="http://www.w3.org/2000/svg">
<g clip-path="url(#clip0)">
<path d="M510.186 402.34L480.45 315.79C494.826 286.448 502.408 253.856 502.408 221.067C502.506 164.056 480.45 110.097 440.277 69.2347C400.103 28.2734 346.538 5.23274 289.527 4.34656C230.449 3.46038 174.816 25.9103 133.067 67.6593C92.7951 108.03 70.4436 161.102 69.7544 217.818C30.0732 247.751 6.63859 294.325 6.73706 344.148C6.73706 367.484 12.0541 390.623 21.9991 411.498L1.41997 471.167C-2.12475 481.407 0.435325 492.534 8.11556 500.214C13.5311 505.63 20.6206 508.485 27.9069 508.485C30.9593 508.485 34.1102 507.993 37.1626 506.91L96.8321 486.429C117.805 496.374 140.944 501.593 164.182 501.691C164.28 501.691 164.379 501.691 164.477 501.691C214.99 501.691 261.957 477.666 291.792 437C322.808 436.212 353.431 428.729 381.198 415.141L467.748 444.877C471.391 446.157 475.035 446.748 478.678 446.748C487.343 446.748 495.811 443.302 502.211 436.901C511.269 427.744 514.322 414.451 510.186 402.34ZM164.379 471.167C164.28 471.167 164.28 471.167 164.182 471.167C143.603 471.167 123.122 466.047 105.005 456.496C101.263 454.527 96.9306 454.231 92.8936 455.511L31.7471 476.484L52.72 415.338C54.0985 411.399 53.7047 406.968 51.7354 403.227C42.1843 385.109 37.0641 364.628 37.0641 344.049C36.9657 310.867 49.963 279.457 72.5114 255.924C79.8962 300.823 101.263 342.277 134.446 374.869C167.431 407.264 208.786 427.843 253.489 434.538C229.956 457.874 198.152 471.167 164.379 471.167ZM480.647 415.239C479.761 416.125 478.776 416.322 477.595 415.928L384.939 384.124C383.364 383.534 381.69 383.337 380.016 383.337C377.555 383.337 375.093 383.927 372.927 385.109C346.44 399.091 316.605 406.574 286.475 406.574C286.376 406.574 286.278 406.574 286.179 406.574C185.253 406.574 101.952 324.652 100.377 223.726C99.5891 172.918 118.888 125.163 154.828 89.3215C190.767 53.4804 238.227 34.0829 289.035 34.8706C389.961 36.446 471.982 119.944 471.884 220.969C471.884 251.099 464.4 281.032 450.418 307.42C448.449 311.162 448.154 315.495 449.434 319.532L481.238 412.187C481.73 413.368 481.533 414.353 480.647 415.239Z" fill="#3C60AA"/>
<path d="M376.865 139.932H195.198C186.829 139.932 179.936 146.726 179.936 155.194C179.936 163.564 186.73 170.456 195.198 170.456H376.865C385.235 170.456 392.127 163.662 392.127 155.194C392.127 146.726 385.235 139.932 376.865 139.932Z" fill="#3C60AA"/>
<path d="M376.865 202.556H195.198C186.829 202.556 179.936 209.35 179.936 217.818C179.936 226.286 186.73 233.08 195.198 233.08H376.865C385.235 233.08 392.127 226.286 392.127 217.818C392.127 209.35 385.235 202.556 376.865 202.556Z" fill="#3C60AA"/>
<path d="M306.955 265.278H195.198C186.829 265.278 179.936 272.072 179.936 280.54C179.936 288.909 186.73 295.802 195.198 295.802H306.857C315.226 295.802 322.119 289.008 322.119 280.54C322.217 272.072 315.325 265.278 306.955 265.278Z" fill="#3C60AA"/>
</g>
<defs>
<clipPath id="clip0">
<rect width="512" height="512" fill="white"/>
</clipPath>
</defs>
</svg>
