<svg width="513" height="512" viewBox="0 0 513 512" fill="none" xmlns="http://www.w3.org/2000/svg">
<g clip-path="url(#clip0)">
<path d="M512 55.1641C512 50.4555 510.171 46.0352 506.707 42.5758C499.874 35.8492 488.71 35.9453 481.973 42.6719L431.543 92.9289L420.571 82.1664C373.895 35.657 312.108 10 246.568 10C180.932 10 119.146 35.657 72.3729 82.2625C25.6962 128.868 0 190.656 0 256.192C0 321.728 25.6962 383.516 72.3729 430.122C118.857 476.535 180.644 502 246.568 502C312.397 502 374.28 476.439 420.764 430.122C500.355 350.652 516.042 227.941 459.068 131.655L453.005 121.373L506.803 67.6562C510.171 64.293 512 59.8727 512 55.1641ZM395.838 405.234C355.802 445.209 302.773 467.214 246.568 467.214C190.364 467.214 137.335 445.209 97.2992 405.234C57.2632 365.259 35.2241 312.311 35.2241 256.192C35.2241 200.073 57.2632 147.126 97.2992 107.151C137.335 67.1758 190.268 45.1703 246.472 45.1703C302.677 45.1703 355.705 67.1758 395.645 107.055L406.52 117.913L241.853 282.426L184.397 225.058C181.029 221.695 176.602 219.869 171.982 219.869C167.266 219.869 162.839 221.695 159.567 225.058C156.199 228.421 154.37 232.841 154.37 237.454C154.37 242.162 156.199 246.583 159.567 249.85L229.438 319.614C232.806 322.977 237.233 324.803 241.853 324.803C246.568 324.803 250.996 322.977 254.268 319.614L428.078 146.165L437.51 165.768C475.717 245.91 458.971 342.1 395.838 405.234Z" fill="#3C60AA"/>
</g>
<defs>
<clipPath id="clip0">
<rect width="512" height="512" fill="white" transform="translate(0.200195)"/>
</clipPath>
</defs>
</svg>
