<?xml version="1.0" encoding="utf-8"?>
<!-- Generator: Adobe Illustrator 21.0.0, SVG Export Plug-In . SVG Version: 6.00 Build 0)  -->
<svg version="1.1" id="_x31_" xmlns="http://www.w3.org/2000/svg" xmlns:xlink="http://www.w3.org/1999/xlink" x="0px" y="0px"
	 viewBox="0 0 795.6 41.3" style="enable-background:new 0 0 795.6 41.3;" xml:space="preserve">
<style type="text/css">
	.st0{fill:none;stroke:#ECECED;stroke-width:0.7381;stroke-linecap:round;stroke-linejoin:round;stroke-miterlimit:22.9256;}
	.st1{fill:none;stroke:#ECECED;stroke-width:0.7384;stroke-linecap:round;stroke-linejoin:round;stroke-miterlimit:22.9256;}
	.st2{fill:none;stroke:#ECECED;stroke-width:0.7381;stroke-miterlimit:22.9256;}
	.st3{fill:none;stroke:#ECECED;stroke-width:0.7384;stroke-miterlimit:22.9256;}
	.st4{fill:#003060;stroke:#ECECED;stroke-width:0.7381;stroke-miterlimit:22.9256;}
	.st5{fill:#FEC600;stroke:#ECECED;stroke-width:0.7381;stroke-miterlimit:22.9256;}
	.st6{fill:#00A3E2;stroke:#ECECED;stroke-width:0.7381;stroke-miterlimit:22.9256;}
	.st7{fill:#FFCF1F;stroke:#ECECED;stroke-width:0.7381;stroke-miterlimit:22.9256;}
	.st8{fill:#1C3B78;stroke:#ECECED;stroke-width:0.7381;stroke-miterlimit:22.9256;}
	.st9{fill:#ECECED;stroke:#ECECED;stroke-width:0.7381;stroke-miterlimit:22.9256;}
</style>
<g>
	<g>
		<g>
			<path class="st0" d="M794.7,40.5c0.2-1,0.3-2.1,0.4-3.2v-0.6l0,0v-7.3c-2.8-1.5-6.6-2.3-10.4-2.3l0,0l0,0l0,0l0,0
				c-3.8,0-7.7,0.8-10.4,2.3v7.3l0,0v0.5c0,1.1,0.1,2.2,0.4,3.2L794.7,40.5L794.7,40.5z"/>
			<path class="st0" d="M773.8,40.5c0.2-1,0.3-2.1,0.4-3.2v-0.6l0,0v-7.3c-2.8-1.5-6.6-2.3-10.4-2.3l0,0l0,0l0,0l0,0
				c-3.8,0-7.7,0.8-10.4,2.3v7.3l0,0v0.5c0,1.1,0.1,2.2,0.4,3.2L773.8,40.5L773.8,40.5z"/>
			<path class="st0" d="M784.6,27.1c6.3-4.6,10.4-9.7,10.5-16.5v-0.5l0,0V2.8c-2.8-1.5-6.6-2.3-10.4-2.3l0,0l0,0l0,0l0,0
				c-3.8,0-7.7,0.8-10.4,2.3v7.3l0,0v0.5C774.3,17.4,778.3,22.6,784.6,27.1z"/>
			<path class="st0" d="M763.7,27.1c6.3-4.6,10.4-9.7,10.5-16.5v-0.5l0,0V2.8c-2.8-1.5-6.6-2.3-10.4-2.3l0,0l0,0l0,0l0,0
				c-3.8,0-7.7,0.8-10.4,2.3v7.3l0,0v0.5C753.4,17.4,757.4,22.6,763.7,27.1z"/>
			<path class="st0" d="M774.2,40.5c6.3-4.6,10.4-9.7,10.5-16.5v-0.5l0,0v-7.3c-2.8-1.5-6.6-2.3-10.4-2.3l0,0l0,0l0,0l0,0
				c-3.8,0-7.7,0.8-10.4,2.3v7.3l0,0V24C763.8,30.7,767.9,35.9,774.2,40.5z"/>
			<path class="st0" d="M753.3,40.5c6.3-4.6,10.4-9.7,10.5-16.5v-0.5l0,0v-7.3c-2.8-1.5-6.6-2.3-10.4-2.3l0,0l0,0l0,0l0,0
				c-3.8,0-7.7,0.8-10.4,2.3v7.3l0,0V24C742.9,30.7,747,35.9,753.3,40.5z"/>
			<path class="st0" d="M752.9,40.5c0.2-1,0.3-2.1,0.4-3.2v-0.6l0,0v-7.3c-2.8-1.5-6.6-2.3-10.4-2.3l0,0l0,0l0,0l0,0
				c-3.8,0-7.7,0.8-10.4,2.3v7.3l0,0v0.5c0,1.1,0.1,2.2,0.4,3.2L752.9,40.5L752.9,40.5z"/>
			<path class="st0" d="M732,40.5c0.2-1,0.3-2.1,0.4-3.2v-0.6l0,0v-7.3c-2.8-1.5-6.6-2.3-10.4-2.3l0,0l0,0l0,0l0,0
				c-3.8,0-7.7,0.8-10.4,2.3v7.3l0,0v0.5c0,1.1,0.1,2.2,0.4,3.2L732,40.5L732,40.5z"/>
			<path class="st0" d="M711.1,40.5c0.2-1,0.3-2.1,0.4-3.2v-0.6l0,0v-7.3c-2.8-1.5-6.6-2.3-10.4-2.3l0,0l0,0l0,0l0,0
				c-3.8,0-7.7,0.8-10.4,2.3v7.3l0,0v0.5c0,1.1,0.1,2.2,0.4,3.2L711.1,40.5L711.1,40.5z"/>
			<path class="st0" d="M690.2,40.5c0.2-1,0.3-2.1,0.4-3.2v-0.6l0,0v-7.3c-2.8-1.5-6.6-2.3-10.4-2.3l0,0l0,0l0,0l0,0
				c-3.8,0-7.7,0.8-10.4,2.3v7.3l0,0v0.5c0,1.1,0.1,2.2,0.4,3.2L690.2,40.5L690.2,40.5z"/>
			<path class="st0" d="M742.8,27.1c6.3-4.6,10.4-9.7,10.5-16.5v-0.5l0,0V2.8c-2.8-1.5-6.6-2.3-10.4-2.3l0,0l0,0l0,0l0,0
				c-3.8,0-7.7,0.8-10.4,2.3v7.3l0,0v0.5C732.5,17.4,736.5,22.6,742.8,27.1z"/>
			<path class="st0" d="M721.9,27.1c6.3-4.6,10.4-9.7,10.5-16.5v-0.5l0,0V2.8c-2.8-1.5-6.6-2.3-10.4-2.3l0,0l0,0l0,0l0,0
				c-3.8,0-7.7,0.8-10.4,2.3v7.3l0,0v0.5C711.6,17.4,715.6,22.6,721.9,27.1z"/>
			<path class="st0" d="M701,27.1c6.3-4.6,10.4-9.7,10.5-16.5v-0.5l0,0V2.8c-2.8-1.5-6.6-2.3-10.4-2.3l0,0l0,0l0,0l0,0
				c-3.8,0-7.7,0.8-10.4,2.3v7.3l0,0v0.5C690.7,17.4,694.7,22.6,701,27.1z"/>
			<path class="st1" d="M680.1,27.1c6.3-4.6,10.4-9.7,10.5-16.5v-0.5l0,0V2.8c-2.8-1.5-6.6-2.3-10.4-2.3l0,0l0,0l0,0l0,0
				c-3.8,0-7.7,0.8-10.4,2.3v7.3l0,0v0.5C669.8,17.4,673.8,22.6,680.1,27.1z"/>
			<path class="st0" d="M732.4,40.5c6.3-4.6,10.4-9.7,10.5-16.5v-0.5l0,0v-7.3c-2.8-1.5-6.6-2.3-10.4-2.3l0,0l0,0l0,0l0,0
				c-3.8,0-7.7,0.8-10.4,2.3v7.3l0,0V24C722,30.7,726.1,35.9,732.4,40.5z"/>
			<path class="st0" d="M711.5,40.5c6.3-4.6,10.4-9.7,10.5-16.5v-0.5l0,0v-7.3c-2.8-1.5-6.6-2.3-10.4-2.3l0,0l0,0l0,0l0,0
				c-3.8,0-7.7,0.8-10.4,2.3v7.3l0,0V24C701.1,30.7,705.2,35.9,711.5,40.5z"/>
			<path class="st0" d="M690.6,40.5c6.3-4.6,10.4-9.7,10.5-16.5v-0.5l0,0v-7.3c-2.8-1.5-6.6-2.3-10.4-2.3l0,0l0,0l0,0l0,0
				c-3.8,0-7.7,0.8-10.4,2.3v7.3l0,0V24C680.2,30.7,684.3,35.9,690.6,40.5z"/>
			<path class="st1" d="M669.7,40.5c6.3-4.6,10.4-9.7,10.5-16.5v-0.5l0,0v-7.3c-2.8-1.5-6.6-2.3-10.4-2.3l0,0l0,0l0,0l0,0
				c-3.8,0-7.7,0.8-10.4,2.3v7.3l0,0V24C659.3,30.7,663.4,35.9,669.7,40.5z"/>
			<path class="st1" d="M776,40.5c-0.6,0-1.2-0.1-1.8-0.1l0,0l0,0l0,0l0,0c-0.6,0-1.2,0-1.8,0.1H776z"/>
			<path class="st0" d="M755.1,40.5c-0.6,0-1.2-0.1-1.8-0.1l0,0l0,0l0,0l0,0c-0.6,0-1.2,0-1.8,0.1H755.1z"/>
			<path class="st0" d="M734.2,40.5c-0.6,0-1.2-0.1-1.8-0.1l0,0l0,0l0,0l0,0c-0.6,0-1.2,0-1.8,0.1H734.2z"/>
			<path class="st0" d="M713.3,40.5c-0.6,0-1.2-0.1-1.8-0.1l0,0l0,0l0,0l0,0c-0.6,0-1.2,0-1.8,0.1H713.3z"/>
			<path class="st0" d="M692.4,40.5c-0.6,0-1.2-0.1-1.8-0.1l0,0l0,0l0,0l0,0c-0.6,0-1.2,0-1.8,0.1H692.4z"/>
			<path class="st0" d="M671.5,40.5c-0.6,0-1.2-0.1-1.8-0.1l0,0l0,0l0,0l0,0c-0.6,0-1.2,0-1.8,0.1H671.5z"/>
			<path class="st0" d="M669.3,40.5c0.2-1,0.3-2.1,0.4-3.2v-0.6l0,0v-7.3c-2.8-1.5-6.6-2.3-10.4-2.3l0,0l0,0l0,0l0,0
				c-3.8,0-7.7,0.8-10.4,2.3v7.3l0,0v0.5c0,1.1,0.1,2.2,0.4,3.2L669.3,40.5L669.3,40.5z"/>
			<path class="st0" d="M648.4,40.5c0.2-1,0.3-2.1,0.4-3.2v-0.6l0,0v-7.3c-2.8-1.5-6.6-2.3-10.4-2.3l0,0l0,0l0,0l0,0
				c-3.8,0-7.7,0.8-10.4,2.3v7.3l0,0v0.5c0,1.1,0.1,2.2,0.4,3.2L648.4,40.5L648.4,40.5z"/>
			<path class="st0" d="M627.5,40.5c0.2-1,0.3-2.1,0.4-3.2v-0.6l0,0v-7.3c-2.8-1.5-6.6-2.3-10.4-2.3l0,0l0,0l0,0l0,0
				c-3.8,0-7.7,0.8-10.4,2.3v7.3l0,0v0.5c0,1.1,0.1,2.2,0.4,3.2L627.5,40.5L627.5,40.5z"/>
			<path class="st0" d="M606.6,40.5c0.2-1,0.3-2.1,0.4-3.2v-0.6l0,0v-7.3c-2.8-1.5-6.6-2.3-10.4-2.3l0,0l0,0l0,0l0,0
				c-3.8,0-7.7,0.8-10.4,2.3v7.3l0,0v0.5c0,1.1,0.1,2.2,0.4,3.2L606.6,40.5L606.6,40.5z"/>
			<path class="st0" d="M659.2,27.1c6.3-4.6,10.4-9.7,10.5-16.5v-0.5l0,0V2.8c-2.8-1.5-6.6-2.3-10.4-2.3l0,0l0,0l0,0l0,0
				c-3.8,0-7.7,0.8-10.4,2.3v7.3l0,0v0.5C648.9,17.4,652.9,22.6,659.2,27.1z"/>
			<path class="st0" d="M638.3,27.1c6.3-4.6,10.4-9.7,10.5-16.5v-0.5l0,0V2.8c-2.8-1.5-6.6-2.3-10.4-2.3l0,0l0,0l0,0l0,0
				c-3.8,0-7.7,0.8-10.4,2.3v7.3l0,0v0.5C628,17.4,632,22.6,638.3,27.1z"/>
			<path class="st0" d="M617.4,27.1c6.3-4.6,10.4-9.7,10.5-16.5v-0.5l0,0V2.8c-2.8-1.5-6.6-2.3-10.4-2.3l0,0l0,0l0,0l0,0
				c-3.8,0-7.7,0.8-10.4,2.3v7.3l0,0v0.5C607.1,17.4,611.1,22.6,617.4,27.1z"/>
			<path class="st0" d="M596.5,27.1c6.3-4.6,10.4-9.7,10.5-16.5v-0.5l0,0V2.8c-2.8-1.5-6.6-2.3-10.4-2.3l0,0l0,0l0,0l0,0
				c-3.8,0-7.7,0.8-10.4,2.3v7.3l0,0v0.5C586.2,17.4,590.2,22.6,596.5,27.1z"/>
			<path class="st0" d="M648.8,40.5c6.3-4.6,10.4-9.7,10.5-16.5v-0.5l0,0v-7.3c-2.8-1.5-6.6-2.3-10.4-2.3l0,0l0,0l0,0l0,0
				c-3.8,0-7.7,0.8-10.4,2.3v7.3l0,0V24C638.4,30.7,642.5,35.9,648.8,40.5z"/>
			<path class="st0" d="M627.9,40.5c6.3-4.6,10.4-9.7,10.5-16.5v-0.5l0,0v-7.3c-2.8-1.5-6.6-2.3-10.4-2.3l0,0l0,0l0,0l0,0
				c-3.8,0-7.7,0.8-10.4,2.3v7.3l0,0V24C617.5,30.7,621.6,35.9,627.9,40.5z"/>
			<path class="st0" d="M607,40.5c6.3-4.6,10.4-9.7,10.5-16.5v-0.5l0,0v-7.3c-2.8-1.5-6.6-2.3-10.4-2.3l0,0l0,0l0,0l0,0
				c-3.8,0-7.7,0.8-10.4,2.3v7.3l0,0V24C596.6,30.7,600.7,35.9,607,40.5z"/>
			<path class="st0" d="M586.1,40.5c6.3-4.6,10.4-9.7,10.5-16.5v-0.5l0,0v-7.3c-2.8-1.5-6.6-2.3-10.4-2.3l0,0l0,0l0,0l0,0
				c-3.8,0-7.7,0.8-10.4,2.3v7.3l0,0V24C575.7,30.7,579.8,35.9,586.1,40.5z"/>
			<path class="st0" d="M585.7,40.5c0.2-1,0.3-2.1,0.4-3.2v-0.6l0,0v-7.3c-2.8-1.5-6.6-2.3-10.4-2.3l0,0l0,0l0,0l0,0
				c-3.8,0-7.7,0.8-10.4,2.3v7.3l0,0v0.5c0,1.1,0.1,2.2,0.4,3.2L585.7,40.5L585.7,40.5z"/>
			<path class="st0" d="M564.8,40.5c0.2-1,0.3-2.1,0.4-3.2v-0.6l0,0v-7.3c-2.8-1.5-6.6-2.3-10.4-2.3l0,0l0,0l0,0l0,0
				c-3.8,0-7.7,0.8-10.4,2.3v7.3l0,0v0.5c0,1.1,0.1,2.2,0.4,3.2L564.8,40.5L564.8,40.5z"/>
			<path class="st0" d="M543.9,40.5c0.2-1,0.3-2.1,0.4-3.2v-0.6l0,0v-7.3c-2.8-1.5-6.6-2.3-10.4-2.3l0,0l0,0l0,0l0,0
				c-3.8,0-7.7,0.8-10.4,2.3v7.3l0,0v0.5c0,1.1,0.1,2.2,0.4,3.2L543.9,40.5L543.9,40.5z"/>
			<path class="st0" d="M523,40.5c0.2-1,0.3-2.1,0.4-3.2v-0.6l0,0v-7.3c-2.8-1.5-6.6-2.3-10.4-2.3l0,0l0,0l0,0l0,0
				c-3.8,0-7.7,0.8-10.4,2.3v7.3l0,0v0.5c0,1.1,0.1,2.2,0.4,3.2L523,40.5L523,40.5z"/>
			<path class="st0" d="M575.6,27.1c6.3-4.6,10.4-9.7,10.5-16.5v-0.5l0,0V2.8c-2.8-1.5-6.6-2.3-10.4-2.3l0,0l0,0l0,0l0,0
				c-3.8,0-7.7,0.8-10.4,2.3v7.3l0,0v0.5C565.3,17.4,569.3,22.6,575.6,27.1z"/>
			<path class="st0" d="M554.7,27.1c6.3-4.6,10.4-9.7,10.5-16.5v-0.5l0,0V2.8c-2.8-1.5-6.6-2.3-10.4-2.3l0,0l0,0l0,0l0,0
				c-3.8,0-7.7,0.8-10.4,2.3v7.3l0,0v0.5C544.4,17.4,548.4,22.6,554.7,27.1z"/>
			<path class="st0" d="M533.8,27.1c6.3-4.6,10.4-9.7,10.5-16.5v-0.5l0,0V2.8c-2.8-1.5-6.6-2.3-10.4-2.3l0,0l0,0l0,0l0,0
				c-3.8,0-7.7,0.8-10.4,2.3v7.3l0,0v0.5C523.5,17.4,527.5,22.6,533.8,27.1z"/>
			<path class="st0" d="M512.9,27.1c6.3-4.6,10.4-9.7,10.5-16.5v-0.5l0,0V2.8c-2.8-1.5-6.6-2.3-10.4-2.3l0,0l0,0l0,0l0,0
				c-3.8,0-7.7,0.8-10.4,2.3v7.3l0,0v0.5C502.6,17.4,506.6,22.6,512.9,27.1z"/>
			<path class="st0" d="M565.2,40.5c6.3-4.6,10.4-9.7,10.5-16.5v-0.5l0,0v-7.3c-2.8-1.5-6.6-2.3-10.4-2.3l0,0l0,0l0,0l0,0
				c-3.8,0-7.7,0.8-10.4,2.3v7.3l0,0V24C554.8,30.7,558.9,35.9,565.2,40.5z"/>
			<path class="st0" d="M544.3,40.5c6.3-4.6,10.4-9.7,10.5-16.5v-0.5l0,0v-7.3c-2.8-1.5-6.6-2.3-10.4-2.3l0,0l0,0l0,0l0,0
				c-3.8,0-7.7,0.8-10.4,2.3v7.3l0,0V24C533.9,30.7,538,35.9,544.3,40.5z"/>
			<path class="st0" d="M523.4,40.5c6.3-4.6,10.4-9.7,10.5-16.5v-0.5l0,0v-7.3c-2.8-1.5-6.6-2.3-10.4-2.3l0,0l0,0l0,0l0,0
				c-3.8,0-7.7,0.8-10.4,2.3v7.3l0,0V24C513,30.7,517.1,35.9,523.4,40.5z"/>
			<path class="st0" d="M502.5,40.5c6.3-4.6,10.4-9.7,10.5-16.5v-0.5l0,0v-7.3c-2.8-1.5-6.6-2.3-10.4-2.3l0,0l0,0l0,0l0,0
				c-3.8,0-7.7,0.8-10.4,2.3v7.3l0,0V24C492.1,30.7,496.2,35.9,502.5,40.5z"/>
			<path class="st0" d="M502.1,40.5c0.2-1,0.3-2.1,0.4-3.2v-0.6l0,0v-7.3c-2.8-1.5-6.6-2.3-10.4-2.3l0,0l0,0l0,0l0,0
				c-3.8,0-7.7,0.8-10.4,2.3v7.3l0,0v0.5c0,1.1,0.1,2.2,0.4,3.2L502.1,40.5L502.1,40.5z"/>
			<path class="st0" d="M481.2,40.5c0.2-1,0.3-2.1,0.4-3.2v-0.6l0,0v-7.3c-2.8-1.5-6.6-2.3-10.4-2.3l0,0l0,0l0,0l0,0
				c-3.8,0-7.7,0.8-10.4,2.3v7.3l0,0v0.5c0,1.1,0.1,2.2,0.4,3.2L481.2,40.5L481.2,40.5z"/>
			<path class="st0" d="M460.3,40.5c0.2-1,0.3-2.1,0.4-3.2v-0.6l0,0v-7.3c-2.8-1.5-6.6-2.3-10.4-2.3l0,0l0,0l0,0l0,0
				c-3.8,0-7.7,0.8-10.4,2.3v7.3l0,0v0.5c0,1.1,0.1,2.2,0.4,3.2L460.3,40.5L460.3,40.5z"/>
			<path class="st0" d="M439.4,40.5c0.2-1,0.3-2.1,0.4-3.2v-0.6l0,0v-7.3c-2.8-1.5-6.6-2.3-10.4-2.3l0,0l0,0l0,0l0,0
				c-3.8,0-7.7,0.8-10.4,2.3v7.3l0,0v0.5c0,1.1,0.1,2.2,0.4,3.2L439.4,40.5L439.4,40.5z"/>
			<path class="st0" d="M492,27.1c6.3-4.6,10.4-9.7,10.5-16.5v-0.5l0,0V2.8c-2.8-1.5-6.6-2.3-10.4-2.3l0,0l0,0l0,0l0,0
				c-3.8,0-7.7,0.8-10.4,2.3v7.3l0,0v0.5C481.7,17.4,485.7,22.6,492,27.1z"/>
			<path class="st0" d="M471.1,27.1c6.3-4.6,10.4-9.7,10.5-16.5v-0.5l0,0V2.8c-2.8-1.5-6.6-2.3-10.4-2.3l0,0l0,0l0,0l0,0
				c-3.8,0-7.7,0.8-10.4,2.3v7.3l0,0v0.5C460.8,17.4,464.8,22.6,471.1,27.1z"/>
			<path class="st0" d="M450.2,27.1c6.3-4.6,10.4-9.7,10.5-16.5v-0.5l0,0V2.8c-2.8-1.5-6.6-2.3-10.4-2.3l0,0l0,0l0,0l0,0
				c-3.8,0-7.7,0.8-10.4,2.3v7.3l0,0v0.5C439.9,17.4,443.9,22.6,450.2,27.1z"/>
			<path class="st1" d="M429.3,27.1c6.3-4.6,10.4-9.7,10.5-16.5v-0.5l0,0V2.8c-2.8-1.5-6.6-2.3-10.4-2.3l0,0l0,0l0,0l0,0
				c-3.8,0-7.7,0.8-10.4,2.3v7.3l0,0v0.5C419,17.4,423,22.6,429.3,27.1z"/>
			<path class="st0" d="M481.6,40.5c6.3-4.6,10.4-9.7,10.5-16.5v-0.5l0,0v-7.3c-2.8-1.5-6.6-2.3-10.4-2.3l0,0l0,0l0,0l0,0
				c-3.8,0-7.7,0.8-10.4,2.3v7.3l0,0V24C471.2,30.7,475.3,35.9,481.6,40.5z"/>
			<path class="st0" d="M460.7,40.5c6.3-4.6,10.4-9.7,10.5-16.5v-0.5l0,0v-7.3c-2.8-1.5-6.6-2.3-10.4-2.3l0,0l0,0l0,0l0,0
				c-3.8,0-7.7,0.8-10.4,2.3v7.3l0,0V24C450.3,30.7,454.4,35.9,460.7,40.5z"/>
			<path class="st0" d="M439.8,40.5c6.3-4.6,10.4-9.7,10.5-16.5v-0.5l0,0v-7.3c-2.8-1.5-6.6-2.3-10.4-2.3l0,0l0,0l0,0l0,0
				c-3.8,0-7.7,0.8-10.4,2.3v7.3l0,0V24C429.4,30.7,433.5,35.9,439.8,40.5z"/>
			<path class="st1" d="M418.9,40.5c6.3-4.6,10.4-9.7,10.5-16.5v-0.5l0,0v-7.3c-2.8-1.5-6.6-2.3-10.4-2.3l0,0l0,0l0,0l0,0
				c-3.8,0-7.7,0.8-10.4,2.3v7.3l0,0V24C408.5,30.7,412.6,35.9,418.9,40.5z"/>
			<path class="st0" d="M418.5,40.5c0.2-1,0.3-2.1,0.4-3.2v-0.6l0,0v-7.3c-2.8-1.5-6.6-2.3-10.4-2.3l0,0l0,0l0,0l0,0
				c-3.8,0-7.7,0.8-10.4,2.3v7.3l0,0v0.5c0,1.1,0.1,2.2,0.4,3.2L418.5,40.5L418.5,40.5z"/>
			<path class="st0" d="M397.6,40.5c0.2-1,0.3-2.1,0.4-3.2v-0.6l0,0v-7.3c-2.8-1.5-6.6-2.3-10.4-2.3l0,0l0,0l0,0l0,0
				c-3.8,0-7.7,0.8-10.4,2.3v7.3l0,0v0.5c0,1.1,0.1,2.2,0.4,3.2L397.6,40.5L397.6,40.5z"/>
			<path class="st0" d="M408.4,27.1c6.3-4.6,10.4-9.7,10.5-16.5v-0.5l0,0V2.8c-2.8-1.5-6.6-2.3-10.4-2.3l0,0l0,0l0,0l0,0
				c-3.8,0-7.7,0.8-10.4,2.3v7.3l0,0v0.5C398.1,17.4,402.1,22.6,408.4,27.1z"/>
			<path class="st0" d="M387.5,27.1c6.3-4.6,10.4-9.7,10.5-16.5v-0.5l0,0V2.8c-2.8-1.5-6.6-2.3-10.4-2.3l0,0l0,0l0,0l0,0
				c-3.8,0-7.7,0.8-10.4,2.3v7.3l0,0v0.5C377.2,17.4,381.2,22.6,387.5,27.1z"/>
			<path class="st0" d="M398,40.5c6.3-4.6,10.4-9.7,10.5-16.5v-0.5l0,0v-7.3c-2.8-1.5-6.6-2.3-10.4-2.3l0,0l0,0l0,0l0,0
				c-3.8,0-7.7,0.8-10.4,2.3v7.3l0,0V24C387.6,30.7,391.7,35.9,398,40.5z"/>
			<path class="st0" d="M650.6,40.5c-0.6,0-1.2-0.1-1.8-0.1l0,0l0,0l0,0l0,0c-0.6,0-1.2,0-1.8,0.1H650.6z"/>
			<path class="st0" d="M629.7,40.5c-0.6,0-1.2-0.1-1.8-0.1l0,0l0,0l0,0l0,0c-0.6,0-1.2,0-1.8,0.1H629.7z"/>
			<path class="st0" d="M608.8,40.5c-0.6,0-1.2-0.1-1.8-0.1l0,0l0,0l0,0l0,0c-0.6,0-1.2,0-1.8,0.1H608.8z"/>
			<path class="st1" d="M587.9,40.5c-0.6,0-1.2-0.1-1.8-0.1l0,0l0,0l0,0l0,0c-0.6,0-1.2,0-1.8,0.1H587.9z"/>
			<path class="st1" d="M567,40.5c-0.6,0-1.2-0.1-1.8-0.1l0,0l0,0l0,0l0,0c-0.6,0-1.2,0-1.8,0.1H567z"/>
			<path class="st0" d="M546.1,40.5c-0.6,0-1.2-0.1-1.8-0.1l0,0l0,0l0,0l0,0c-0.6,0-1.2,0-1.8,0.1H546.1z"/>
			<path class="st0" d="M525.2,40.5c-0.6,0-1.2-0.1-1.8-0.1l0,0l0,0l0,0l0,0c-0.6,0-1.2,0-1.8,0.1H525.2z"/>
			<path class="st0" d="M504.3,40.5c-0.6,0-1.2-0.1-1.8-0.1l0,0l0,0l0,0l0,0c-0.6,0-1.2,0-1.8,0.1H504.3z"/>
			<path class="st0" d="M483.4,40.5c-0.6,0-1.2-0.1-1.8-0.1l0,0l0,0l0,0l0,0c-0.6,0-1.2,0-1.8,0.1H483.4z"/>
			<path class="st0" d="M462.5,40.5c-0.6,0-1.2-0.1-1.8-0.1l0,0l0,0l0,0l0,0c-0.6,0-1.2,0-1.8,0.1H462.5z"/>
			<path class="st0" d="M441.6,40.5c-0.6,0-1.2-0.1-1.8-0.1l0,0l0,0l0,0l0,0c-0.6,0-1.2,0-1.8,0.1H441.6z"/>
			<path class="st0" d="M420.7,40.5c-0.6,0-1.2-0.1-1.8-0.1l0,0l0,0l0,0l0,0c-0.6,0-1.2,0-1.8,0.1H420.7z"/>
			<path class="st0" d="M399.8,40.5c-0.6,0-1.2-0.1-1.8-0.1l0,0l0,0l0,0l0,0c-0.6,0-1.2,0-1.8,0.1H399.8z"/>
			<path class="st0" d="M377.1,40.5c6.3-4.6,10.4-9.7,10.5-16.5v-0.5l0,0v-7.3c-2.8-1.5-6.6-2.3-10.4-2.3l0,0l0,0l0,0l0,0
				c-3.8,0-7.7,0.8-10.4,2.3v7.3l0,0V24C366.7,30.7,370.8,35.9,377.1,40.5z"/>
			<path class="st0" d="M376.7,40.5c0.2-1,0.3-2.1,0.4-3.2v-0.6l0,0v-7.3c-2.8-1.5-6.6-2.3-10.4-2.3l0,0l0,0l0,0l0,0
				c-3.8,0-7.7,0.8-10.4,2.3v7.3l0,0v0.5c0,1.1,0.1,2.2,0.4,3.2L376.7,40.5L376.7,40.5z"/>
			<path class="st0" d="M355.8,40.5c0.2-1,0.3-2.1,0.4-3.2v-0.6l0,0v-7.3c-2.8-1.5-6.6-2.3-10.4-2.3l0,0l0,0l0,0l0,0
				c-3.8,0-7.7,0.8-10.4,2.3v7.3l0,0v0.5c0,1.1,0.1,2.2,0.4,3.2L355.8,40.5L355.8,40.5z"/>
			<path class="st0" d="M334.9,40.5c0.2-1,0.3-2.1,0.4-3.2v-0.6l0,0v-7.3c-2.8-1.5-6.6-2.3-10.4-2.3l0,0l0,0l0,0l0,0
				c-3.8,0-7.7,0.8-10.4,2.3v7.3l0,0v0.5c0,1.1,0.1,2.2,0.4,3.2L334.9,40.5L334.9,40.5z"/>
			<path class="st0" d="M314,40.5c0.2-1,0.3-2.1,0.4-3.2v-0.6l0,0v-7.3c-2.8-1.5-6.6-2.3-10.4-2.3l0,0l0,0l0,0l0,0
				c-3.8,0-7.7,0.8-10.4,2.3v7.3l0,0v0.5c0,1.1,0.1,2.2,0.4,3.2L314,40.5L314,40.5z"/>
			<path class="st0" d="M366.6,27.1c6.3-4.6,10.4-9.7,10.5-16.5v-0.5l0,0V2.8c-2.8-1.5-6.6-2.3-10.4-2.3l0,0l0,0l0,0l0,0
				c-3.8,0-7.7,0.8-10.4,2.3v7.3l0,0v0.5C356.3,17.4,360.3,22.6,366.6,27.1z"/>
			<path class="st0" d="M345.7,27.1c6.3-4.6,10.4-9.7,10.5-16.5v-0.5l0,0V2.8c-2.8-1.5-6.6-2.3-10.4-2.3l0,0l0,0l0,0l0,0
				c-3.8,0-7.7,0.8-10.4,2.3v7.3l0,0v0.5C335.4,17.4,339.4,22.6,345.7,27.1z"/>
			<path class="st0" d="M324.8,27.1c6.3-4.6,10.4-9.7,10.5-16.5v-0.5l0,0V2.8c-2.8-1.5-6.6-2.3-10.4-2.3l0,0l0,0l0,0l0,0
				c-3.8,0-7.7,0.8-10.4,2.3v7.3l0,0v0.5C314.5,17.4,318.5,22.6,324.8,27.1z"/>
			<path class="st0" d="M303.9,27.1c6.3-4.6,10.4-9.7,10.5-16.5v-0.5l0,0V2.8c-2.8-1.5-6.6-2.3-10.4-2.3l0,0l0,0l0,0l0,0
				c-3.8,0-7.7,0.8-10.4,2.3v7.3l0,0v0.5C293.6,17.4,297.6,22.6,303.9,27.1z"/>
			<path class="st0" d="M356.2,40.5c6.3-4.6,10.4-9.7,10.5-16.5v-0.5l0,0v-7.3c-2.8-1.5-6.6-2.3-10.4-2.3l0,0l0,0l0,0l0,0
				c-3.8,0-7.7,0.8-10.4,2.3v7.3l0,0V24C345.8,30.7,349.9,35.9,356.2,40.5z"/>
			<path class="st0" d="M335.3,40.5c6.3-4.6,10.4-9.7,10.5-16.5v-0.5l0,0v-7.3c-2.8-1.5-6.6-2.3-10.4-2.3l0,0l0,0l0,0l0,0
				c-3.8,0-7.7,0.8-10.4,2.3v7.3l0,0V24C324.9,30.7,329,35.9,335.3,40.5z"/>
			<path class="st0" d="M314.4,40.5c6.3-4.6,10.4-9.7,10.5-16.5v-0.5l0,0v-7.3c-2.8-1.5-6.6-2.3-10.4-2.3l0,0l0,0l0,0l0,0
				c-3.8,0-7.7,0.8-10.4,2.3v7.3l0,0V24C304,30.7,308.1,35.9,314.4,40.5z"/>
			<path class="st0" d="M293.5,40.5c6.3-4.6,10.4-9.7,10.5-16.5v-0.5l0,0v-7.3c-2.8-1.5-6.6-2.3-10.4-2.3l0,0l0,0l0,0l0,0
				c-3.8,0-7.7,0.8-10.4,2.3v7.3l0,0V24C283.1,30.7,287.2,35.9,293.5,40.5z"/>
			<path class="st0" d="M293.1,40.5c0.2-1,0.3-2.1,0.4-3.2v-0.6l0,0v-7.3c-2.8-1.5-6.6-2.3-10.4-2.3l0,0l0,0l0,0l0,0
				c-3.8,0-7.7,0.8-10.4,2.3v7.3l0,0v0.5c0,1.1,0.1,2.2,0.4,3.2L293.1,40.5L293.1,40.5z"/>
			<path class="st0" d="M272.2,40.5c0.2-1,0.3-2.1,0.4-3.2v-0.6l0,0v-7.3c-2.8-1.5-6.6-2.3-10.4-2.3l0,0l0,0l0,0l0,0
				c-3.8,0-7.7,0.8-10.4,2.3v7.3l0,0v0.5c0,1.1,0.1,2.2,0.4,3.2L272.2,40.5L272.2,40.5z"/>
			<path class="st0" d="M251.3,40.5c0.2-1,0.3-2.1,0.4-3.2v-0.6l0,0v-7.3c-2.8-1.5-6.6-2.3-10.4-2.3l0,0l0,0l0,0l0,0
				c-3.8,0-7.7,0.8-10.4,2.3v7.3l0,0v0.5c0,1.1,0.1,2.2,0.4,3.2L251.3,40.5L251.3,40.5z"/>
			<path class="st0" d="M230.4,40.5c0.2-1,0.3-2.1,0.4-3.2v-0.6l0,0v-7.3c-2.8-1.5-6.6-2.3-10.4-2.3l0,0l0,0l0,0l0,0
				c-3.8,0-7.7,0.8-10.4,2.3v7.3l0,0v0.5c0,1.1,0.1,2.2,0.4,3.2L230.4,40.5L230.4,40.5z"/>
			<path class="st0" d="M283,27.1c6.3-4.6,10.4-9.7,10.5-16.5v-0.5l0,0V2.8c-2.8-1.5-6.6-2.3-10.4-2.3l0,0l0,0l0,0l0,0
				c-3.8,0-7.7,0.8-10.4,2.3v7.3l0,0v0.5C272.7,17.4,276.7,22.6,283,27.1z"/>
			<path class="st0" d="M262.1,27.1c6.3-4.6,10.4-9.7,10.5-16.5v-0.5l0,0V2.8c-2.8-1.5-6.6-2.3-10.4-2.3l0,0l0,0l0,0l0,0
				c-3.8,0-7.7,0.8-10.4,2.3v7.3l0,0v0.5C251.8,17.4,255.8,22.6,262.1,27.1z"/>
			<path class="st1" d="M241.2,27.1c6.3-4.6,10.4-9.7,10.5-16.5v-0.5l0,0V2.8c-2.8-1.5-6.6-2.3-10.4-2.3l0,0l0,0l0,0l0,0
				c-3.8,0-7.7,0.8-10.4,2.3v7.3l0,0v0.5C230.9,17.4,234.9,22.6,241.2,27.1z"/>
			<path class="st1" d="M220.3,27.1c6.3-4.6,10.4-9.7,10.5-16.5v-0.5l0,0V2.8c-2.8-1.5-6.6-2.3-10.4-2.3l0,0l0,0l0,0l0,0
				c-3.8,0-7.7,0.8-10.4,2.3v7.3l0,0v0.5C210,17.4,214,22.6,220.3,27.1z"/>
			<path class="st0" d="M272.6,40.5c6.3-4.6,10.4-9.7,10.5-16.5v-0.5l0,0v-7.3c-2.8-1.5-6.6-2.3-10.4-2.3l0,0l0,0l0,0l0,0
				c-3.8,0-7.7,0.8-10.4,2.3v7.3l0,0V24C262.2,30.7,266.3,35.9,272.6,40.5z"/>
			<path class="st0" d="M251.7,40.5c6.3-4.6,10.4-9.7,10.5-16.5v-0.5l0,0v-7.3c-2.8-1.5-6.6-2.3-10.4-2.3l0,0l0,0l0,0l0,0
				c-3.8,0-7.7,0.8-10.4,2.3v7.3l0,0V24C241.3,30.7,245.4,35.9,251.7,40.5z"/>
			<path class="st0" d="M230.8,40.5c6.3-4.6,10.4-9.7,10.5-16.5v-0.5l0,0v-7.3c-2.8-1.5-6.6-2.3-10.4-2.3l0,0l0,0l0,0l0,0
				c-3.8,0-7.7,0.8-10.4,2.3v7.3l0,0V24C220.4,30.7,224.5,35.9,230.8,40.5z"/>
			<path class="st1" d="M209.9,40.5c6.3-4.6,10.4-9.7,10.5-16.5v-0.5l0,0v-7.3c-2.8-1.5-6.6-2.3-10.4-2.3l0,0l0,0l0,0l0,0
				c-3.8,0-7.7,0.8-10.4,2.3v7.3l0,0V24C199.5,30.7,203.6,35.9,209.9,40.5z"/>
			<path class="st0" d="M209.5,40.5c0.2-1,0.3-2.1,0.4-3.2v-0.6l0,0v-7.3c-2.8-1.5-6.6-2.3-10.4-2.3l0,0l0,0l0,0l0,0
				c-3.8,0-7.7,0.8-10.4,2.3v7.3l0,0v0.5c0,1.1,0.1,2.2,0.4,3.2L209.5,40.5L209.5,40.5z"/>
			<path class="st0" d="M188.6,40.5c0.2-1,0.3-2.1,0.4-3.2v-0.6l0,0v-7.3c-2.8-1.5-6.6-2.3-10.4-2.3l0,0l0,0l0,0l0,0
				c-3.8,0-7.7,0.8-10.4,2.3v7.3l0,0v0.5c0,1.1,0.1,2.2,0.4,3.2L188.6,40.5L188.6,40.5z"/>
			<path class="st0" d="M167.7,40.5c0.2-1,0.3-2.1,0.4-3.2v-0.6l0,0v-7.3c-2.8-1.5-6.6-2.3-10.4-2.3l0,0l0,0l0,0l0,0
				c-3.8,0-7.7,0.8-10.4,2.3v7.3l0,0v0.5c0,1.1,0.1,2.2,0.4,3.2L167.7,40.5L167.7,40.5z"/>
			<path class="st0" d="M146.8,40.5c0.2-1,0.3-2.1,0.4-3.2v-0.6l0,0v-7.3c-2.8-1.5-6.6-2.3-10.4-2.3l0,0l0,0l0,0l0,0
				c-3.8,0-7.7,0.8-10.4,2.3v7.3l0,0v0.5c0,1.1,0.1,2.2,0.4,3.2L146.8,40.5L146.8,40.5z"/>
			<path class="st1" d="M199.4,27.1c6.3-4.6,10.4-9.7,10.5-16.5v-0.5l0,0V2.8c-2.8-1.5-6.6-2.3-10.4-2.3l0,0l0,0l0,0l0,0
				c-3.8,0-7.7,0.8-10.4,2.3v7.3l0,0v0.5C189.1,17.4,193.1,22.6,199.4,27.1z"/>
			<path class="st0" d="M178.5,27.1c6.3-4.6,10.4-9.7,10.5-16.5v-0.5l0,0V2.8c-2.8-1.5-6.6-2.3-10.4-2.3l0,0l0,0l0,0l0,0
				c-3.8,0-7.7,0.8-10.4,2.3v7.3l0,0v0.5C168.2,17.4,172.2,22.6,178.5,27.1z"/>
			<path class="st0" d="M157.6,27.1c6.3-4.6,10.4-9.7,10.5-16.5v-0.5l0,0V2.8c-2.8-1.5-6.6-2.3-10.4-2.3l0,0l0,0l0,0l0,0
				c-3.8,0-7.7,0.8-10.4,2.3v7.3l0,0v0.5C147.3,17.4,151.3,22.6,157.6,27.1z"/>
			<path class="st0" d="M136.7,27.1c6.3-4.6,10.4-9.7,10.5-16.5v-0.5l0,0V2.8c-2.8-1.5-6.6-2.3-10.4-2.3l0,0l0,0l0,0l0,0
				c-3.8,0-7.7,0.8-10.4,2.3v7.3l0,0v0.5C126.4,17.4,130.4,22.6,136.7,27.1z"/>
			<path class="st0" d="M189,40.5c6.3-4.6,10.4-9.7,10.5-16.5v-0.5l0,0v-7.3c-2.8-1.5-6.6-2.3-10.4-2.3l0,0l0,0l0,0l0,0
				c-3.8,0-7.7,0.8-10.4,2.3v7.3l0,0V24C178.6,30.7,182.7,35.9,189,40.5z"/>
			<path class="st0" d="M168.1,40.5c6.3-4.6,10.4-9.7,10.5-16.5v-0.5l0,0v-7.3c-2.8-1.5-6.6-2.3-10.4-2.3l0,0l0,0l0,0l0,0
				c-3.8,0-7.7,0.8-10.4,2.3v7.3l0,0V24C157.7,30.7,161.7,35.9,168.1,40.5z"/>
			<path class="st0" d="M147.2,40.5c6.3-4.6,10.4-9.7,10.5-16.5v-0.5l0,0v-7.3c-2.8-1.5-6.6-2.3-10.4-2.3l0,0l0,0l0,0l0,0
				c-3.8,0-7.7,0.8-10.4,2.3v7.3l0,0V24C136.8,30.7,140.8,35.9,147.2,40.5z"/>
			<path class="st0" d="M126.3,40.5c6.3-4.6,10.4-9.7,10.5-16.5v-0.5l0,0v-7.3c-2.8-1.5-6.6-2.3-10.4-2.3l0,0l0,0l0,0l0,0
				c-3.8,0-7.7,0.8-10.4,2.3v7.3l0,0V24C115.9,30.7,119.9,35.9,126.3,40.5z"/>
			<path class="st0" d="M378.9,40.5c-0.6,0-1.2-0.1-1.8-0.1l0,0l0,0l0,0l0,0c-0.6,0-1.2,0-1.8,0.1H378.9z"/>
			<path class="st0" d="M358,40.5c-0.6,0-1.2-0.1-1.8-0.1l0,0l0,0l0,0l0,0c-0.6,0-1.2,0-1.8,0.1H358z"/>
			<path class="st1" d="M337.1,40.5c-0.6,0-1.2-0.1-1.8-0.1l0,0l0,0l0,0l0,0c-0.6,0-1.2,0-1.8,0.1H337.1z"/>
			<path class="st0" d="M316.2,40.5c-0.6,0-1.2-0.1-1.8-0.1l0,0l0,0l0,0l0,0c-0.6,0-1.2,0-1.8,0.1H316.2z"/>
			<path class="st0" d="M295.3,40.5c-0.6,0-1.2-0.1-1.8-0.1l0,0l0,0l0,0l0,0c-0.6,0-1.2,0-1.8,0.1H295.3z"/>
			<path class="st0" d="M274.4,40.5c-0.6,0-1.2-0.1-1.8-0.1l0,0l0,0l0,0l0,0c-0.6,0-1.2,0-1.8,0.1H274.4z"/>
			<path class="st0" d="M253.5,40.5c-0.6,0-1.2-0.1-1.8-0.1l0,0l0,0l0,0l0,0c-0.6,0-1.2,0-1.8,0.1H253.5z"/>
			<path class="st0" d="M232.6,40.5c-0.6,0-1.2-0.1-1.8-0.1l0,0l0,0l0,0l0,0c-0.6,0-1.2,0-1.8,0.1H232.6z"/>
			<path class="st0" d="M211.7,40.5c-0.6,0-1.2-0.1-1.8-0.1l0,0l0,0l0,0l0,0c-0.6,0-1.2,0-1.8,0.1H211.7z"/>
			<path class="st0" d="M190.8,40.5c-0.6,0-1.2-0.1-1.8-0.1l0,0l0,0l0,0l0,0c-0.6,0-1.2,0-1.8,0.1H190.8z"/>
			<path class="st0" d="M169.9,40.5c-0.6,0-1.2-0.1-1.8-0.1l0,0l0,0l0,0l0,0c-0.6,0-1.2,0-1.8,0.1H169.9z"/>
			<path class="st1" d="M149,40.5c-0.6,0-1.2-0.1-1.8-0.1l0,0l0,0l0,0l0,0c-0.6,0-1.2,0-1.8,0.1H149z"/>
			<path class="st0" d="M128.1,40.5c-0.6,0-1.2-0.1-1.8-0.1l0,0l0,0l0,0l0,0c-0.6,0-1.2,0-1.8,0.1H128.1z"/>
			<path class="st0" d="M125.9,40.5c0.2-1,0.3-2.1,0.4-3.2v-0.6l0,0v-7.3c-2.8-1.5-6.6-2.3-10.4-2.3l0,0l0,0l0,0l0,0
				c-3.8,0-7.7,0.8-10.4,2.3v7.3l0,0v0.5c0,1.1,0.1,2.2,0.4,3.2L125.9,40.5L125.9,40.5z"/>
			<path class="st0" d="M105,40.5c0.2-1,0.3-2.1,0.4-3.2v-0.6l0,0v-7.3c-2.8-1.5-6.6-2.3-10.4-2.3l0,0l0,0l0,0l0,0
				c-3.8,0-7.7,0.8-10.4,2.3v7.3l0,0v0.5c0,1.1,0.1,2.2,0.4,3.2L105,40.5L105,40.5z"/>
			<path class="st0" d="M84.1,40.5c0.2-1,0.3-2.1,0.4-3.2v-0.6l0,0v-7.3c-2.8-1.5-6.6-2.3-10.4-2.3l0,0l0,0l0,0l0,0
				c-3.8,0-7.7,0.8-10.4,2.3v7.3l0,0v0.5c0,1.1,0.1,2.2,0.4,3.2L84.1,40.5L84.1,40.5z"/>
			<path class="st0" d="M63.2,40.5c0.2-1,0.3-2.1,0.4-3.2v-0.6l0,0v-7.3c-2.8-1.5-6.6-2.3-10.4-2.3l0,0l0,0l0,0l0,0
				c-3.8,0-7.7,0.8-10.4,2.3v7.3l0,0v0.5c0,1.1,0.1,2.2,0.4,3.2L63.2,40.5L63.2,40.5z"/>
			<path class="st0" d="M115.8,27.1c6.3-4.6,10.4-9.7,10.5-16.5v-0.5l0,0V2.8c-2.8-1.5-6.6-2.3-10.4-2.3l0,0l0,0l0,0l0,0
				c-3.8,0-7.7,0.8-10.4,2.3v7.3l0,0v0.5C105.5,17.4,109.5,22.6,115.8,27.1z"/>
			<path class="st0" d="M94.9,27.1c6.3-4.6,10.4-9.7,10.5-16.5v-0.5l0,0V2.8c-2.8-1.5-6.6-2.3-10.4-2.3l0,0l0,0l0,0l0,0
				c-3.8,0-7.7,0.8-10.4,2.3v7.3l0,0v0.5C84.5,17.4,88.6,22.6,94.9,27.1z"/>
			<path class="st0" d="M74,27.1c6.3-4.6,10.4-9.7,10.5-16.5v-0.5l0,0V2.8c-2.8-1.5-6.6-2.3-10.4-2.3l0,0l0,0l0,0l0,0
				c-3.8,0-7.7,0.8-10.4,2.3v7.3l0,0v0.5C63.6,17.4,67.7,22.6,74,27.1z"/>
			<path class="st0" d="M53.1,27.1c6.3-4.6,10.4-9.7,10.5-16.5v-0.5l0,0V2.8C60.8,1.3,57,0.5,53.2,0.5l0,0l0,0l0,0l0,0
				c-3.8,0-7.7,0.8-10.4,2.3v7.3l0,0v0.5C42.7,17.4,46.8,22.6,53.1,27.1z"/>
			<path class="st0" d="M105.4,40.5c6.3-4.6,10.4-9.7,10.5-16.5v-0.5l0,0v-7.3c-2.8-1.5-6.6-2.3-10.4-2.3l0,0l0,0l0,0l0,0
				c-3.8,0-7.7,0.8-10.4,2.3v7.3l0,0V24C95,30.7,99,35.9,105.4,40.5z"/>
			<path class="st0" d="M84.5,40.5C90.8,35.9,94.9,30.8,95,24v-0.5l0,0v-7.3c-2.8-1.5-6.6-2.3-10.4-2.3l0,0l0,0l0,0l0,0
				c-3.8,0-7.7,0.8-10.4,2.3v7.3l0,0V24C74.1,30.7,78.1,35.9,84.5,40.5z"/>
			<path class="st0" d="M63.6,40.5C69.9,35.9,74,30.8,74.1,24v-0.5l0,0v-7.3c-2.8-1.5-6.6-2.3-10.4-2.3l0,0l0,0l0,0l0,0
				c-3.8,0-7.7,0.8-10.4,2.3v7.3l0,0V24C53.2,30.7,57.2,35.9,63.6,40.5z"/>
			<path class="st0" d="M42.6,40.5C48.9,35.9,53,30.8,53.1,24v-0.5l0,0v-7.3c-2.8-1.5-6.6-2.3-10.4-2.3l0,0l0,0l0,0l0,0
				c-3.8,0-7.7,0.8-10.4,2.3v7.3l0,0V24C32.3,30.7,36.3,35.9,42.6,40.5z"/>
			<path class="st0" d="M42.3,40.5c0.2-1,0.3-2.1,0.4-3.2v-0.6l0,0v-7.3c-2.8-1.5-6.6-2.3-10.4-2.3l0,0l0,0l0,0l0,0
				c-3.8,0-7.7,0.8-10.4,2.3v7.3l0,0v0.5c0,1.1,0.1,2.2,0.4,3.2L42.3,40.5L42.3,40.5z"/>
			<path class="st0" d="M21.4,40.5c0.2-1,0.3-2.1,0.4-3.2v-0.6l0,0v-7.3c-2.8-1.5-6.6-2.3-10.4-2.3l0,0l0,0l0,0l0,0
				c-3.8,0-7.7,0.8-10.4,2.3v7.3l0,0v0.5c0,1.1,0.1,2.2,0.4,3.2L21.4,40.5L21.4,40.5z"/>
			<path class="st0" d="M32.2,27.1c6.3-4.6,10.4-9.7,10.5-16.5v-0.5l0,0V2.8c-2.8-1.5-6.6-2.3-10.4-2.3l0,0l0,0l0,0l0,0
				c-3.8,0-7.7,0.8-10.4,2.3v7.3l0,0v0.5C21.8,17.4,25.9,22.6,32.2,27.1z"/>
			<path class="st1" d="M11.3,27.1c6.3-4.6,10.4-9.7,10.5-16.5v-0.5l0,0V2.8C19,1.3,15.2,0.5,11.4,0.5l0,0l0,0l0,0l0,0
				C7.6,0.5,3.7,1.3,1,2.8v7.3l0,0v0.5C0.9,17.4,5,22.6,11.3,27.1z"/>
			<path class="st0" d="M21.7,40.5C28,35.9,32.1,30.8,32.2,24v-0.5l0,0v-7.3c-2.8-1.5-6.6-2.3-10.4-2.3l0,0l0,0l0,0l0,0
				c-3.8,0-7.7,0.8-10.4,2.3v7.3l0,0V24C11.4,30.7,15.4,35.9,21.7,40.5z"/>
			<path class="st1" d="M107.2,40.5c-0.6,0-1.2-0.1-1.8-0.1l0,0l0,0l0,0l0,0c-0.6,0-1.2,0-1.8,0.1H107.2z"/>
			<path class="st0" d="M86.3,40.5c-0.6,0-1.2-0.1-1.8-0.1l0,0l0,0l0,0l0,0c-0.6,0-1.2,0-1.8,0.1H86.3z"/>
			<path class="st0" d="M65.4,40.5c-0.6,0-1.2-0.1-1.8-0.1l0,0l0,0l0,0l0,0c-0.6,0-1.2,0-1.8,0.1H65.4z"/>
			<path class="st0" d="M44.4,40.5c-0.6,0-1.2-0.1-1.8-0.1l0,0l0,0l0,0l0,0c-0.6,0-1.2,0-1.8,0.1H44.4z"/>
			<path class="st0" d="M23.5,40.5c-0.6,0-1.2-0.1-1.8-0.1l0,0l0,0l0,0l0,0c-0.6,0-1.2,0-1.8,0.1H23.5z"/>
			<path class="st2" d="M22.1,13.8c3.7,0,7.4,0.8,10.1,2.3c2.7-1.5,6.4-2.3,10.1-2.3c0-0.1,0-0.2,0-0.2c-5.1-3.8-8.7-7.9-9.8-13.1
				c-0.2,0-0.5,0-0.7,0c-1.1,5.2-4.7,9.4-9.8,13.1C22.1,13.6,22.1,13.7,22.1,13.8z"/>
			<path class="st2" d="M1.2,13.8c3.7,0,7.4,0.8,10.1,2.3c2.7-1.5,6.4-2.3,10.1-2.3c0-0.1,0-0.2,0-0.2c-5.1-3.8-8.7-7.9-9.8-13.1
				c-0.2,0-0.5,0-0.7,0C9.8,5.7,6.2,9.9,1.1,13.6C1.2,13.6,1.2,13.7,1.2,13.8z"/>
			<path class="st2" d="M63.9,13.8c3.7,0,7.4,0.8,10.1,2.3c2.7-1.5,6.4-2.3,10.1-2.3c0-0.1,0-0.2,0-0.2C79,9.8,75.4,5.7,74.3,0.5
				c-0.2,0-0.5,0-0.7,0c-1.1,5.2-4.7,9.4-9.8,13.1C63.9,13.6,63.9,13.7,63.9,13.8z"/>
			<path class="st2" d="M43,13.8c3.7,0,7.4,0.8,10.1,2.3c2.7-1.5,6.4-2.3,10.1-2.3c0-0.1,0-0.2,0-0.2c-5.1-3.8-8.7-7.9-9.8-13.1
				c-0.2,0-0.5,0-0.7,0c-1.1,5.2-4.7,9.4-9.8,13.1C43,13.6,43,13.7,43,13.8z"/>
			<path class="st3" d="M105.7,13.8c3.7,0,7.4,0.8,10.1,2.3c2.7-1.5,6.4-2.3,10.1-2.3c0-0.1,0-0.2,0-0.2c-5.1-3.8-8.7-7.9-9.8-13.1
				c-0.2,0-0.5,0-0.7,0c-1.1,5.2-4.7,9.4-9.8,13.1C105.7,13.6,105.7,13.7,105.7,13.8z"/>
			<path class="st2" d="M84.8,13.8c3.7,0,7.4,0.8,10.1,2.3c2.7-1.5,6.4-2.3,10.1-2.3c0-0.1,0-0.2,0-0.2c-5.1-3.8-8.7-7.9-9.8-13.1
				c-0.2,0-0.5,0-0.7,0c-1.1,5.2-4.7,9.4-9.8,13.1C84.8,13.6,84.8,13.7,84.8,13.8z"/>
			<path class="st3" d="M147.5,13.8c3.7,0,7.4,0.8,10.1,2.3c2.7-1.5,6.4-2.3,10.1-2.3c0-0.1,0-0.2,0-0.2c-5.1-3.8-8.7-7.9-9.8-13.1
				c-0.2,0-0.5,0-0.7,0c-1.1,5.2-4.7,9.4-9.8,13.1C147.5,13.6,147.5,13.7,147.5,13.8z"/>
			<path class="st3" d="M126.6,13.8c3.7,0,7.4,0.8,10.1,2.3c2.7-1.5,6.4-2.3,10.1-2.3c0-0.1,0-0.2,0-0.2c-5.1-3.8-8.7-7.9-9.8-13.1
				c-0.2,0-0.5,0-0.7,0c-1.1,5.2-4.7,9.4-9.8,13.1C126.6,13.6,126.6,13.7,126.6,13.8z"/>
			<path class="st2" d="M189.3,13.8c3.7,0,7.4,0.8,10.1,2.3c2.7-1.5,6.4-2.3,10.1-2.3c0-0.1,0-0.2,0-0.2c-5.1-3.8-8.7-7.9-9.8-13.1
				c-0.2,0-0.5,0-0.7,0c-1.1,5.2-4.7,9.4-9.8,13.1C189.3,13.6,189.3,13.7,189.3,13.8z"/>
			<path class="st2" d="M168.4,13.8c3.7,0,7.4,0.8,10.1,2.3c2.7-1.5,6.4-2.3,10.1-2.3c0-0.1,0-0.2,0-0.2c-5.1-3.8-8.7-7.9-9.8-13.1
				c-0.2,0-0.5,0-0.7,0c-1.1,5.2-4.7,9.4-9.8,13.1C168.4,13.6,168.4,13.7,168.4,13.8z"/>
			<path class="st2" d="M231.1,13.8c3.7,0,7.4,0.8,10.1,2.3c2.7-1.5,6.4-2.3,10.1-2.3c0-0.1,0-0.2,0-0.2c-5.1-3.8-8.7-7.9-9.8-13.1
				c-0.2,0-0.5,0-0.7,0c-1.1,5.2-4.7,9.4-9.8,13.1C231.1,13.6,231.1,13.7,231.1,13.8z"/>
			<path class="st2" d="M210.2,13.8c3.7,0,7.4,0.8,10.1,2.3c2.7-1.5,6.4-2.3,10.1-2.3c0-0.1,0-0.2,0-0.2c-5.1-3.8-8.7-7.9-9.8-13.1
				c-0.2,0-0.5,0-0.7,0c-1.1,5.2-4.7,9.4-9.8,13.1C210.2,13.6,210.2,13.7,210.2,13.8z"/>
			<path class="st2" d="M272.9,13.8c3.7,0,7.4,0.8,10.1,2.3c2.7-1.5,6.4-2.3,10.1-2.3c0-0.1,0-0.2,0-0.2c-5.1-3.8-8.7-7.9-9.8-13.1
				c-0.2,0-0.5,0-0.7,0c-1.1,5.2-4.7,9.4-9.8,13.1C272.9,13.6,272.9,13.7,272.9,13.8z"/>
			<path class="st2" d="M252,13.8c3.7,0,7.4,0.8,10.1,2.3c2.7-1.5,6.4-2.3,10.1-2.3c0-0.1,0-0.2,0-0.2c-5.1-3.8-8.7-7.9-9.8-13.1
				c-0.2,0-0.5,0-0.7,0c-1.1,5.2-4.7,9.4-9.8,13.1C252,13.6,252,13.7,252,13.8z"/>
			<path class="st2" d="M314.7,13.8c3.7,0,7.4,0.8,10.1,2.3c2.7-1.5,6.4-2.3,10.1-2.3c0-0.1,0-0.2,0-0.2c-5.1-3.8-8.7-7.9-9.8-13.1
				c-0.2,0-0.5,0-0.7,0c-1.1,5.2-4.7,9.4-9.8,13.1C314.7,13.6,314.7,13.7,314.7,13.8z"/>
			<path class="st2" d="M293.8,13.8c3.7,0,7.4,0.8,10.1,2.3c2.7-1.5,6.4-2.3,10.1-2.3c0-0.1,0-0.2,0-0.2c-5.1-3.8-8.7-7.9-9.8-13.1
				c-0.2,0-0.5,0-0.7,0c-1.1,5.2-4.7,9.4-9.8,13.1C293.8,13.6,293.8,13.7,293.8,13.8z"/>
			<path class="st3" d="M356.5,13.8c3.7,0,7.4,0.8,10.1,2.3c2.7-1.5,6.4-2.3,10.1-2.3c0-0.1,0-0.2,0-0.2c-5.1-3.8-8.7-7.9-9.8-13.1
				c-0.2,0-0.5,0-0.7,0c-1.1,5.2-4.7,9.4-9.8,13.1C356.5,13.6,356.5,13.7,356.5,13.8z"/>
			<path class="st3" d="M335.6,13.8c3.7,0,7.4,0.8,10.1,2.3c2.7-1.5,6.4-2.3,10.1-2.3c0-0.1,0-0.2,0-0.2c-5.1-3.8-8.7-7.9-9.8-13.1
				c-0.2,0-0.5,0-0.7,0c-1.1,5.2-4.7,9.4-9.8,13.1C335.6,13.6,335.6,13.7,335.6,13.8z"/>
			<path class="st2" d="M398.3,13.8c3.7,0,7.4,0.8,10.1,2.3c2.7-1.5,6.4-2.3,10.1-2.3c0-0.1,0-0.2,0-0.2c-5.1-3.8-8.7-7.9-9.8-13.1
				c-0.2,0-0.5,0-0.7,0c-1.1,5.2-4.7,9.4-9.8,13.1C398.3,13.6,398.3,13.7,398.3,13.8z"/>
			<path class="st2" d="M377.4,13.8c3.7,0,7.4,0.8,10.1,2.3c2.7-1.5,6.4-2.3,10.1-2.3c0-0.1,0-0.2,0-0.2c-5.1-3.8-8.7-7.9-9.8-13.1
				c-0.2,0-0.5,0-0.7,0c-1.1,5.2-4.7,9.4-9.8,13.1C377.4,13.6,377.4,13.7,377.4,13.8z"/>
			<path class="st2" d="M440.1,13.8c3.7,0,7.4,0.8,10.1,2.3c2.7-1.5,6.4-2.3,10.1-2.3c0-0.1,0-0.2,0-0.2c-5.1-3.8-8.7-7.9-9.8-13.1
				c-0.2,0-0.5,0-0.7,0c-1.1,5.2-4.7,9.4-9.8,13.1C440.1,13.6,440.1,13.7,440.1,13.8z"/>
			<path class="st2" d="M419.2,13.8c3.7,0,7.4,0.8,10.1,2.3c2.7-1.5,6.4-2.3,10.1-2.3c0-0.1,0-0.2,0-0.2c-5.1-3.8-8.7-7.9-9.8-13.1
				c-0.2,0-0.5,0-0.7,0c-1.1,5.2-4.7,9.4-9.8,13.1C419.2,13.6,419.2,13.7,419.2,13.8z"/>
			<path class="st2" d="M481.9,13.8c3.7,0,7.4,0.8,10.1,2.3c2.7-1.5,6.4-2.3,10.1-2.3c0-0.1,0-0.2,0-0.2c-5.1-3.8-8.7-7.9-9.8-13.1
				c-0.2,0-0.5,0-0.7,0c-1.1,5.2-4.7,9.4-9.8,13.1C481.9,13.6,481.9,13.7,481.9,13.8z"/>
			<path class="st2" d="M461,13.8c3.7,0,7.4,0.8,10.1,2.3c2.7-1.5,6.4-2.3,10.1-2.3c0-0.1,0-0.2,0-0.2c-5.1-3.8-8.7-7.9-9.8-13.1
				c-0.2,0-0.5,0-0.7,0c-1.1,5.2-4.7,9.4-9.8,13.1C461,13.6,461,13.7,461,13.8z"/>
			<path class="st2" d="M523.7,13.8c3.7,0,7.4,0.8,10.1,2.3c2.7-1.5,6.4-2.3,10.1-2.3c0-0.1,0-0.2,0-0.2c-5.1-3.8-8.7-7.9-9.8-13.1
				c-0.2,0-0.5,0-0.7,0c-1.1,5.2-4.7,9.4-9.8,13.1C523.7,13.6,523.7,13.7,523.7,13.8z"/>
			<path class="st2" d="M502.8,13.8c3.7,0,7.4,0.8,10.1,2.3c2.7-1.5,6.4-2.3,10.1-2.3c0-0.1,0-0.2,0-0.2c-5.1-3.8-8.7-7.9-9.8-13.1
				c-0.2,0-0.5,0-0.7,0c-1.1,5.2-4.7,9.4-9.8,13.1C502.8,13.6,502.8,13.7,502.8,13.8z"/>
			<path class="st2" d="M565.5,13.8c3.7,0,7.4,0.8,10.1,2.3c2.7-1.5,6.4-2.3,10.1-2.3c0-0.1,0-0.2,0-0.2c-5.1-3.8-8.7-7.9-9.8-13.1
				c-0.2,0-0.5,0-0.7,0c-1.1,5.2-4.7,9.4-9.8,13.1C565.5,13.6,565.5,13.7,565.5,13.8z"/>
			<path class="st2" d="M544.6,13.8c3.7,0,7.4,0.8,10.1,2.3c2.7-1.5,6.4-2.3,10.1-2.3c0-0.1,0-0.2,0-0.2c-5.1-3.8-8.7-7.9-9.8-13.1
				c-0.2,0-0.5,0-0.7,0c-1.1,5.2-4.7,9.4-9.8,13.1C544.6,13.6,544.6,13.7,544.6,13.8z"/>
			<path class="st3" d="M607.3,13.8c3.7,0,7.4,0.8,10.1,2.3c2.7-1.5,6.4-2.3,10.1-2.3c0-0.1,0-0.2,0-0.2c-5.1-3.8-8.7-7.9-9.8-13.1
				c-0.2,0-0.5,0-0.7,0c-1.1,5.2-4.7,9.4-9.8,13.1C607.3,13.6,607.3,13.7,607.3,13.8z"/>
			<path class="st3" d="M586.4,13.8c3.7,0,7.4,0.8,10.1,2.3c2.7-1.5,6.4-2.3,10.1-2.3c0-0.1,0-0.2,0-0.2c-5.1-3.8-8.7-7.9-9.8-13.1
				c-0.2,0-0.5,0-0.7,0c-1.1,5.2-4.7,9.4-9.8,13.1C586.4,13.6,586.4,13.7,586.4,13.8z"/>
			<path class="st2" d="M649.1,13.8c3.7,0,7.4,0.8,10.1,2.3c2.7-1.5,6.4-2.3,10.1-2.3c0-0.1,0-0.2,0-0.2c-5.1-3.8-8.7-7.9-9.8-13.1
				c-0.2,0-0.5,0-0.7,0c-1.1,5.2-4.7,9.4-9.8,13.1C649.1,13.6,649.1,13.7,649.1,13.8z"/>
			<path class="st2" d="M628.2,13.8c3.7,0,7.4,0.8,10.1,2.3c2.7-1.5,6.4-2.3,10.1-2.3c0-0.1,0-0.2,0-0.2c-5.1-3.8-8.7-7.9-9.8-13.1
				c-0.2,0-0.5,0-0.7,0c-1.1,5.2-4.7,9.4-9.8,13.1C628.2,13.6,628.2,13.7,628.2,13.8z"/>
			<path class="st2" d="M690.9,13.8c3.7,0,7.4,0.8,10.1,2.3c2.7-1.5,6.4-2.3,10.1-2.3c0-0.1,0-0.2,0-0.2c-5.1-3.8-8.7-7.9-9.8-13.1
				c-0.2,0-0.5,0-0.7,0c-1.1,5.2-4.7,9.4-9.8,13.1C690.9,13.6,690.9,13.7,690.9,13.8z"/>
			<path class="st2" d="M670,13.8c3.7,0,7.4,0.8,10.1,2.3c2.7-1.5,6.4-2.3,10.1-2.3c0-0.1,0-0.2,0-0.2c-5.1-3.8-8.7-7.9-9.8-13.1
				c-0.2,0-0.5,0-0.7,0c-1.1,5.2-4.7,9.4-9.8,13.1C670,13.6,670,13.7,670,13.8z"/>
			<path class="st2" d="M732.7,13.8c3.7,0,7.4,0.8,10.1,2.3c2.7-1.5,6.4-2.3,10.1-2.3c0-0.1,0-0.2,0-0.2c-5.1-3.8-8.7-7.9-9.8-13.1
				c-0.2,0-0.5,0-0.7,0c-1.1,5.2-4.7,9.4-9.8,13.1C732.7,13.6,732.7,13.7,732.7,13.8z"/>
			<path class="st2" d="M711.8,13.8c3.7,0,7.4,0.8,10.1,2.3c2.7-1.5,6.4-2.3,10.1-2.3c0-0.1,0-0.2,0-0.2c-5.1-3.8-8.7-7.9-9.8-13.1
				c-0.2,0-0.5,0-0.7,0c-1.1,5.2-4.7,9.4-9.8,13.1C711.8,13.6,711.8,13.7,711.8,13.8z"/>
			<path class="st2" d="M774.5,13.8c3.7,0,7.4,0.8,10.1,2.3c2.7-1.5,6.4-2.3,10.1-2.3c0-0.1,0-0.2,0-0.2c-5.1-3.8-8.7-7.9-9.8-13.1
				c-0.2,0-0.5,0-0.7,0c-1.1,5.2-4.7,9.4-9.8,13.1C774.5,13.6,774.5,13.7,774.5,13.8z"/>
			<path class="st2" d="M753.6,13.8c3.7,0,7.4,0.8,10.1,2.3c2.7-1.5,6.4-2.3,10.1-2.3c0-0.1,0-0.2,0-0.2c-5.1-3.8-8.7-7.9-9.8-13.1
				c-0.2,0-0.5,0-0.7,0c-1.1,5.2-4.7,9.4-9.8,13.1C753.6,13.6,753.6,13.7,753.6,13.8z"/>
		</g>
	</g>
	<path class="st4" d="M84.5,10.1V2.8c-2.7-1.5-6.4-2.3-10.1-2.3c1.1,5.2,4.7,9.3,9.8,13.1C84.3,12.4,84.5,11.3,84.5,10.1z"/>
	<path class="st5" d="M157.6,16.1v7.3v0.5c0,1,0.1,2,0.3,2.9c5.1-3.8,8.7-7.9,9.8-13.1C164,13.8,160.3,14.6,157.6,16.1z"/>
	<path class="st6" d="M283.4,0.4c1.1,5.2,4.7,9.3,9.8,13.1c0.2-1.1,0.3-2.3,0.3-3.5V2.7C290.8,1.3,287.1,0.5,283.4,0.4z"/>
	<path class="st5" d="M366.3,27.1c-1.1,5.2-4.7,9.3-9.8,13.1c-0.2-1.1-0.3-2.3-0.3-3.5v-7.3C358.8,27.9,362.5,27.2,366.3,27.1z"/>
	<path class="st7" d="M470.8,0.4c-1.1,5.2-4.7,9.3-9.8,13.1c-0.2-1.1-0.3-2.3-0.3-3.5V2.7C463.4,1.3,467.1,0.5,470.8,0.4z"/>
	<path class="st6" d="M586.1,29.2v10.2c0,0.2,0.1,0.5,0.1,0.7c5.2-3.8,8.7-7.9,9.8-13.1C592.3,27.1,588.7,27.8,586.1,29.2z"/>
	<path class="st8" d="M648.8,2.8v7.3v0.5c0,1-0.1,2-0.3,2.9c-5.2-3.8-8.7-7.9-9.8-13.1C642.4,0.5,646.1,1.3,648.8,2.8z"/>
	<path class="st9" d="M523.7,13.6c1.1,5.2,4.7,9.3,9.8,13.1c0.2-1.1,0.3-2.3,0.3-3.5v-7.3C531.1,14.4,527.5,13.6,523.7,13.6z"/>
	<path class="st7" d="M732,13.8c-1.1,5.2-4.7,9.3-9.8,13.1c-0.2-1.1-0.3-2.3-0.3-3.5v-7.3C724.6,14.6,728.3,13.8,732,13.8z"/>
	<path class="st9" d="M293.1,40.5L293.1,40.5c-0.5,0-0.9,0-1.4,0H293.1z"/>
	<path class="st9" d="M670,40.5L670,40.5l1.4,0.1C671,40.5,670.5,40.5,670,40.5z"/>
	<path class="st9" d="M63.2,40.5L63.2,40.5c-0.4,0-0.9,0-1.4,0H63.2z"/>
	<path class="st8" d="M439.8,29.4v7.3v0.5c0,1-0.1,2-0.3,2.9c-5.2-3.8-8.7-7.9-9.8-13.1C433.4,27.2,437.1,27.9,439.8,29.4z"/>
	<path class="st9" d="M240.9,27.1c-1.1,5.2-4.7,9.3-9.8,13.1c-0.2-1.1-0.3-2.3-0.3-3.5v-7.3C233.4,27.9,237.1,27.2,240.9,27.1z"/>
</g>
</svg>
