<?xml version="1.0" encoding="utf-8"?>
<!-- Generator: Adobe Illustrator 22.0.1, SVG Export Plug-In . SVG Version: 6.00 Build 0)  -->
<svg version="1.1" id="_x31_" xmlns="http://www.w3.org/2000/svg" xmlns:xlink="http://www.w3.org/1999/xlink" x="0px" y="0px"
	 viewBox="0 0 795.7 40.6" style="enable-background:new 0 0 795.7 40.6;" xml:space="preserve">
<style type="text/css">
	.st0{fill:#FEFEFE;stroke:#ECEDEE;stroke-width:0.4819;stroke-linecap:round;stroke-linejoin:round;stroke-miterlimit:10;}
	.st1{fill:none;stroke:#ECEDEE;stroke-width:0.4819;stroke-linecap:round;stroke-linejoin:round;stroke-miterlimit:10;}
	.st2{fill:none;stroke:#ECEDEE;stroke-width:0.4819;stroke-miterlimit:10;}
	.st3{fill:#1C01C8;stroke:#ECEDEE;stroke-width:0.4819;stroke-miterlimit:10;}
	.st4{fill:#32DCCC;stroke:#ECEDEE;stroke-width:0.4819;stroke-miterlimit:10;}
	.st5{fill:#E72FED;stroke:#ECEDEE;stroke-width:0.4819;stroke-miterlimit:10;}
	.st6{fill:#FFFA4D;stroke:#ECEDEE;stroke-width:0.4819;stroke-miterlimit:10;}
	.st7{fill:#ECEDEE;stroke:#ECEDEE;stroke-width:0.4819;stroke-miterlimit:10;}
</style>
<g>
	<path class="st0" d="M764,0.2L764,0.2z M753.8,13.3L753.8,13.3c0,0.1,0,0.1,0,0.2c-0.1,0-0.2,0-0.3,0l0,0l0,0l0,0l0,0
		c-0.1,0-0.3,0-0.4,0c0.2-1,0.3-2.1,0.4-3.2C753.5,11.4,753.7,12.4,753.8,13.3L753.8,13.3z M784.9,0.2L784.9,0.2z M784.9,0.2
		L784.9,0.2z M774.8,13.3L774.8,13.3c0,0.1,0,0.1,0,0.2c-0.1,0-0.2,0-0.3,0l0,0l0,0l0,0l0,0c-0.1,0-0.3,0-0.4,0
		c0.2-1,0.3-2.1,0.4-3.2C774.5,11.4,774.6,12.4,774.8,13.3L774.8,13.3z M722.1,0.2L722.1,0.2z M722.1,0.2L722.1,0.2z M712,13.3
		L712,13.3c0,0.1,0,0.1,0,0.2c-0.1,0-0.2,0-0.3,0l0,0l0,0l0,0l0,0c-0.1,0-0.3,0-0.4,0c0.2-1,0.3-2.1,0.4-3.2
		C711.7,11.4,711.8,12.4,712,13.3L712,13.3z M743.1,0.2L743.1,0.2z M743.1,0.2L743.1,0.2z M732.9,13.3L732.9,13.3c0,0.1,0,0.1,0,0.2
		c-0.1,0-0.2,0-0.3,0l0,0l0,0l0,0l0,0c-0.1,0-0.3,0-0.4,0c0.2-1,0.3-2.1,0.4-3.2C732.6,11.4,732.7,12.4,732.9,13.3L732.9,13.3z
		 M680.3,0.2L680.3,0.2z M680.3,0.2L680.3,0.2z M670.1,13.3L670.1,13.3c0,0.1,0,0.1,0,0.2c-0.1,0-0.2,0-0.3,0l0,0l0,0l0,0l0,0
		c-0.1,0-0.3,0-0.4,0c0.2-1,0.3-2.1,0.4-3.2C669.8,11.4,670,12.4,670.1,13.3L670.1,13.3z M701.2,0.2L701.2,0.2z M701.2,0.2
		L701.2,0.2z M691.1,13.3L691.1,13.3c0,0.1,0,0.1,0,0.2c-0.1,0-0.2,0-0.3,0l0,0l0,0l0,0l0,0c-0.1,0-0.3,0-0.4,0
		c0.2-1,0.3-2.1,0.4-3.2C690.8,11.4,690.9,12.4,691.1,13.3L691.1,13.3z M638.4,0.2L638.4,0.2z M638.4,0.2L638.4,0.2z M628.3,13.3
		L628.3,13.3c0,0.1,0,0.1,0,0.2c-0.1,0-0.2,0-0.3,0l0,0l0,0l0,0l0,0c-0.1,0-0.2,0-0.3,0c0.2-1,0.3-2.1,0.4-3.2
		C628,11.4,628.1,12.4,628.3,13.3L628.3,13.3z M659.4,0.2L659.4,0.2z M659.4,0.2L659.4,0.2z M649.2,13.3L649.2,13.3
		c0,0.1,0,0.1,0,0.2c-0.1,0-0.2,0-0.3,0l0,0l0,0l0,0l0,0c-0.1,0-0.3,0-0.4,0c0.2-1,0.3-2.1,0.4-3.2C648.9,11.4,649,12.4,649.2,13.3
		L649.2,13.3z M596.6,0.2L596.6,0.2z M596.6,0.2L596.6,0.2z M586.4,13.3L586.4,13.3c0,0.1,0,0.1,0,0.2c-0.1,0-0.2,0-0.3,0l0,0l0,0
		l0,0l0,0c-0.1,0-0.2,0-0.3,0c0.2-1,0.3-2.1,0.4-3.2C586.1,11.4,586.3,12.4,586.4,13.3L586.4,13.3z M617.5,0.2L617.5,0.2z
		 M607.4,13.3L607.4,13.3c0,0.1,0,0.1,0,0.2c-0.1,0-0.2,0-0.3,0l0,0l0,0l0,0l0,0c-0.1,0-0.2,0-0.3,0c0.2-1,0.3-2.1,0.4-3.2
		C607.1,11.4,607.2,12.4,607.4,13.3L607.4,13.3z M554.7,0.2L554.7,0.2z M554.7,0.2L554.7,0.2z M544.6,13.3L544.6,13.3
		c0,0.1,0,0.1,0,0.2c-0.1,0-0.2,0-0.3,0l0,0l0,0l0,0l0,0c-0.1,0-0.2,0-0.3,0c0.2-1,0.3-2.1,0.4-3.2
		C544.3,11.4,544.4,12.4,544.6,13.3L544.6,13.3z M575.7,0.2L575.7,0.2z M575.7,0.2L575.7,0.2z M565.5,13.3L565.5,13.3
		c0,0.1,0,0.1,0,0.2c-0.1,0-0.2,0-0.3,0l0,0l0,0l0,0l0,0c-0.1,0-0.2,0-0.3,0c0.2-1,0.3-2.1,0.4-3.2
		C565.2,11.4,565.3,12.4,565.5,13.3L565.5,13.3z M512.9,0.2L512.9,0.2z M512.9,0.2L512.9,0.2z M502.7,13.3L502.7,13.3
		c0,0.1,0,0.1,0,0.2c-0.1,0-0.2,0-0.3,0l0,0l0,0l0,0l0,0c-0.1,0-0.2,0-0.3,0c0.2-1,0.3-2.1,0.4-3.2
		C502.4,11.4,502.6,12.4,502.7,13.3L502.7,13.3z M533.8,0.2L533.8,0.2z M533.8,0.2L533.8,0.2z M523.7,13.3L523.7,13.3
		c0,0.1,0,0.1,0,0.2c-0.1,0-0.2,0-0.3,0l0,0l0,0l0,0l0,0c-0.1,0-0.2,0-0.3,0c0.2-1,0.3-2.1,0.4-3.2
		C523.4,11.4,523.5,12.4,523.7,13.3L523.7,13.3z M471,0.2L471,0.2z M471,0.2L471,0.2z M460.9,13.3L460.9,13.3c0,0.1,0,0.1,0,0.2
		c-0.1,0-0.2,0-0.3,0l0,0l0,0l0,0l0,0c-0.1,0-0.2,0-0.3,0c0.2-1,0.3-2.1,0.4-3.2C460.6,11.4,460.7,12.4,460.9,13.3L460.9,13.3z
		 M492,0.2L492,0.2z M481.8,13.3L481.8,13.3c0,0.1,0,0.1,0,0.2c-0.1,0-0.2,0-0.3,0l0,0l0,0l0,0l0,0c-0.1,0-0.2,0-0.3,0
		c0.2-1,0.3-2.1,0.4-3.2C481.5,11.4,481.6,12.4,481.8,13.3L481.8,13.3z M429.2,0.2L429.2,0.2z M429.2,0.2L429.2,0.2z M419,13.3
		L419,13.3c0,0.1,0,0.1,0,0.2c-0.1,0-0.2,0-0.4,0l0,0l0,0l0,0l0,0c-0.1,0-0.2,0-0.3,0c0.2-1,0.3-2.1,0.3-3.2
		C418.7,11.4,418.9,12.4,419,13.3L419,13.3z M450.1,0.2L450.1,0.2z M450.1,0.2L450.1,0.2z M440,13.3L440,13.3c0,0.1,0,0.1,0,0.2
		c-0.1,0-0.2,0-0.4,0l0,0l0,0l0,0l0,0c-0.1,0-0.2,0-0.3,0c0.2-1,0.3-2.1,0.3-3.2C439.7,11.4,439.8,12.4,440,13.3L440,13.3z
		 M387.3,0.2L387.3,0.2z M387.3,0.2L387.3,0.2z M377.2,13.3L377.2,13.3c0,0.1,0,0.1,0,0.2c-0.1,0-0.2,0-0.4,0l0,0l0,0l0,0l0,0
		c-0.1,0-0.2,0-0.3,0c0.2-1,0.3-2.1,0.3-3.2C376.9,11.4,377,12.4,377.2,13.3L377.2,13.3z M408.3,0.2L408.3,0.2z M408.3,0.2
		L408.3,0.2z M398.1,13.3L398.1,13.3c0,0.1,0,0.1,0,0.2c-0.1,0-0.2,0-0.4,0l0,0l0,0l0,0l0,0c-0.1,0-0.2,0-0.3,0
		c0.2-1,0.3-2.1,0.3-3.2C397.8,11.4,397.9,12.4,398.1,13.3L398.1,13.3z M345.5,0.2L345.5,0.2z M335.3,13.3L335.3,13.3
		c0,0.1,0,0.1,0,0.2c-0.1,0-0.2,0-0.4,0l0,0l0,0l0,0l0,0c-0.1,0-0.2,0-0.3,0c0.2-1,0.3-2.1,0.3-3.2C335,11.4,335.2,12.4,335.3,13.3
		L335.3,13.3z M366.4,0.2L366.4,0.2z M366.4,0.2L366.4,0.2z M356.3,13.3L356.3,13.3c0,0.1,0,0.1,0,0.2c-0.1,0-0.2,0-0.4,0l0,0l0,0
		l0,0l0,0c-0.1,0-0.2,0-0.3,0c0.2-1,0.3-2.1,0.3-3.2C356,11.4,356.1,12.4,356.3,13.3L356.3,13.3z M303.6,0.2L303.6,0.2z M303.6,0.2
		L303.6,0.2z M293.5,13.3L293.5,13.3c0,0.1,0,0.1,0,0.2c-0.1,0-0.2,0-0.4,0l0,0l0,0l0,0l0,0c-0.1,0-0.2,0-0.3,0
		c0.2-1,0.3-2.1,0.3-3.2C293.2,11.4,293.3,12.4,293.5,13.3L293.5,13.3z M324.6,0.2L324.6,0.2z M324.6,0.2L324.6,0.2z M314.4,13.3
		L314.4,13.3c0,0.1,0,0.1,0,0.2c-0.1,0-0.2,0-0.4,0l0,0l0,0l0,0l0,0c-0.1,0-0.2,0-0.3,0c0.2-1,0.3-2.1,0.3-3.2
		C314.1,11.4,314.2,12.4,314.4,13.3L314.4,13.3z M261.8,0.2L261.8,0.2z M261.8,0.2L261.8,0.2z M251.6,13.3L251.6,13.3
		c0,0.1,0,0.1,0,0.2c-0.1,0-0.2,0-0.4,0l0,0l0,0l0,0l0,0c-0.1,0-0.2,0-0.3,0c0.2-1,0.3-2.1,0.3-3.2
		C251.3,11.4,251.5,12.4,251.6,13.3L251.6,13.3z M282.7,0.2L282.7,0.2z M282.7,0.2L282.7,0.2z M272.6,13.3L272.6,13.3
		c0,0.1,0,0.1,0,0.2c-0.1,0-0.2,0-0.4,0l0,0l0,0l0,0l0,0c-0.1,0-0.2,0-0.3,0c0.2-1,0.3-2.1,0.3-3.2
		C272.3,11.4,272.4,12.4,272.6,13.3L272.6,13.3z M219.9,0.2L219.9,0.2z M209.8,13.3L209.8,13.3c0,0.1,0,0.1,0,0.2
		c-0.1,0-0.2,0-0.4,0l0,0l0,0l0,0l0,0c-0.1,0-0.2,0-0.3,0c0.2-1,0.3-2.1,0.3-3.2C209.5,11.4,209.6,12.4,209.8,13.3L209.8,13.3z
		 M240.9,0.2L240.9,0.2z M240.9,0.2L240.9,0.2z M230.7,13.3L230.7,13.3c0,0.1,0,0.1,0,0.2c-0.1,0-0.2,0-0.4,0l0,0l0,0l0,0l0,0
		c-0.1,0-0.2,0-0.3,0c0.2-1,0.3-2.1,0.3-3.2C230.4,11.4,230.5,12.4,230.7,13.3L230.7,13.3z M178.1,0.2L178.1,0.2z M167.9,13.3
		L167.9,13.3c0,0.1,0,0.1,0,0.2c-0.1,0-0.3,0-0.4,0l0,0l0,0l0,0l0,0c-0.1,0-0.2,0-0.3,0c0.2-1,0.3-2.1,0.3-3.2
		C167.6,11.4,167.7,12.4,167.9,13.3L167.9,13.3z M199,0.2L199,0.2z M199,0.2L199,0.2z M188.9,13.3L188.9,13.3c0,0.1,0,0.1,0,0.2
		c-0.1,0-0.2,0-0.4,0l0,0l0,0l0,0l0,0c-0.1,0-0.2,0-0.3,0c0.2-1,0.3-2.1,0.3-3.2C188.6,11.4,188.7,12.4,188.9,13.3L188.9,13.3z
		 M136.2,0.2L136.2,0.2z M136.2,0.2L136.2,0.2z M126.1,13.3L126.1,13.3c0,0.1,0,0.1,0,0.2c-0.1,0-0.3,0-0.4,0l0,0l0,0l0,0l0,0
		c-0.1,0-0.2,0-0.3,0c0.2-1,0.3-2.1,0.3-3.2C125.8,11.4,125.9,12.4,126.1,13.3L126.1,13.3z M157.2,0.2L157.2,0.2z M147,13.3
		L147,13.3c0,0.1,0,0.1,0,0.2c-0.1,0-0.3,0-0.4,0l0,0l0,0l0,0l0,0c-0.1,0-0.2,0-0.3,0c0.2-1,0.3-2.1,0.3-3.2
		C146.7,11.4,146.8,12.4,147,13.3L147,13.3z M94.4,0.2L94.4,0.2z M94.4,0.2L94.4,0.2z M84.2,13.3L84.2,13.3c0,0.1,0,0.1,0,0.2
		c-0.1,0-0.3,0-0.4,0l0,0l0,0l0,0l0,0c-0.1,0-0.2,0-0.3,0c0.2-1,0.3-2.1,0.3-3.2C83.9,11.4,84,12.4,84.2,13.3L84.2,13.3z M115.3,0.2
		L115.3,0.2z M115.3,0.2L115.3,0.2z M105.2,13.3L105.2,13.3c0,0.1,0,0.1,0,0.2c-0.1,0-0.3,0-0.4,0l0,0l0,0l0,0l0,0
		c-0.1,0-0.2,0-0.3,0c0.2-1,0.3-2.1,0.3-3.2C104.9,11.4,105,12.4,105.2,13.3L105.2,13.3z M52.5,0.2L52.5,0.2z M52.5,0.2L52.5,0.2z
		 M42.4,13.3L42.4,13.3c0,0.1,0,0.1,0,0.2c-0.1,0-0.3,0-0.4,0l0,0l0,0l0,0l0,0c-0.1,0-0.2,0-0.3,0c0.2-1,0.3-2.1,0.3-3.2
		C42.1,11.4,42.2,12.4,42.4,13.3L42.4,13.3z M73.5,0.2L73.5,0.2z M73.5,0.2L73.5,0.2z M63.3,13.3L63.3,13.3c0,0.1,0,0.1,0,0.2
		c-0.1,0-0.3,0-0.4,0l0,0l0,0l0,0l0,0c-0.1,0-0.2,0-0.3,0c0.2-1,0.3-2.1,0.3-3.2C63,11.4,63.1,12.4,63.3,13.3L63.3,13.3z M10.7,0.2
		L10.7,0.2z M10.7,0.2L10.7,0.2z M31.6,0.2L31.6,0.2z M31.6,0.2L31.6,0.2z M21.5,13.3L21.5,13.3c0,0.1,0,0.1,0,0.2
		c-0.1,0-0.3,0-0.4,0l0,0l0,0l0,0l0,0c-0.1,0-0.2,0-0.3,0c0.2-1,0.3-2.1,0.3-3.2C21.2,11.4,21.2,12.4,21.5,13.3L21.5,13.3z
		 M21.5,40.3c0-0.1,0-0.1-0.1-0.2c-0.1,0.1-0.2,0.1-0.3,0.2l0,0l0,0l0,0C21.2,40.3,21.4,40.3,21.5,40.3L21.5,40.3z M21.1,40.3
		c-0.1-0.1-0.2-0.1-0.3-0.2c0,0.1,0,0.1,0,0.2C20.9,40.3,21,40.3,21.1,40.3L21.1,40.3z M41.7,40.3c0-0.1,0-0.1,0-0.2
		c0.1,0.1,0.2,0.1,0.3,0.2l0,0l0,0l0,0c0.1,0,0.3,0,0.4,0c0-0.1,0-0.1,0-0.2c-0.1,0.1-0.2,0.1-0.3,0.2
		C41.9,40.3,41.8,40.3,41.7,40.3L41.7,40.3z M63.3,40.3c0-0.1,0-0.1,0-0.2c-0.1,0.1-0.2,0.1-0.3,0.2l0,0l0,0l0,0
		C63.1,40.3,63.2,40.3,63.3,40.3L63.3,40.3z M63,40.3c-0.1-0.1-0.2-0.1-0.3-0.2c0,0.1,0,0.1,0,0.2C62.8,40.3,62.9,40.3,63,40.3
		L63,40.3z M83.6,40.3c0-0.1,0-0.1,0-0.2c0.1,0.1,0.2,0.1,0.3,0.2l0,0l0,0l0,0c0.1,0,0.3,0,0.4,0c0-0.1,0-0.1,0-0.2
		c-0.1,0.1-0.2,0.1-0.3,0.2C83.8,40.3,83.7,40.3,83.6,40.3L83.6,40.3z M105.2,40.3c0-0.1,0-0.1,0-0.2c-0.1,0.1-0.2,0.1-0.3,0.2l0,0
		l0,0l0,0C104.9,40.3,105.1,40.3,105.2,40.3L105.2,40.3z M104.8,40.3c-0.1-0.1-0.2-0.1-0.3-0.2c0,0.1,0,0.1,0,0.2
		C104.6,40.3,104.7,40.3,104.8,40.3L104.8,40.3z M31.2,26.9c0.1,0,0.2,0,0.4,0l0,0l0,0l0,0c0.1-0.1,0.2-0.1,0.3-0.2
		c0,0.1,0,0.2,0,0.3c-0.1,0-0.2,0-0.3,0c-0.1-0.1-0.2-0.1-0.3-0.2C31.3,26.7,31.3,26.8,31.2,26.9L31.2,26.9z M52.2,26.7
		c0.1,0.1,0.2,0.1,0.3,0.2c0.1,0,0.2,0,0.3,0c0-0.1,0-0.2,0-0.3c-0.1,0.1-0.2,0.1-0.3,0.2l0,0l0,0l0,0c-0.1,0-0.3,0-0.4,0
		C52.2,26.8,52.2,26.7,52.2,26.7L52.2,26.7z M73.1,26.9c0.1,0,0.2,0,0.4,0l0,0l0,0l0,0c0.1-0.1,0.2-0.1,0.3-0.2c0,0.1,0,0.2,0,0.3
		c-0.1,0-0.2,0-0.3,0c-0.1-0.1-0.2-0.1-0.3-0.2C73.1,26.7,73.1,26.8,73.1,26.9L73.1,26.9z M94.1,26.7c0.1,0.1,0.2,0.1,0.3,0.2
		c0.1,0,0.2,0,0.3,0c0-0.1,0-0.2,0-0.3c-0.1,0.1-0.2,0.1-0.3,0.2l0,0l0,0l0,0c-0.1,0-0.3,0-0.4,0C94.1,26.8,94.1,26.7,94.1,26.7
		L94.1,26.7z M114.9,26.9c0.1,0,0.3,0,0.4,0l0,0l0,0l0,0c0.1-0.1,0.2-0.1,0.3-0.2c0,0.1,0,0.2,0,0.3c-0.1,0-0.2,0-0.3,0
		c-0.1-0.1-0.2-0.1-0.3-0.2C115,26.7,115,26.8,114.9,26.9L114.9,26.9z M125.5,40c0.1,0.1,0.2,0.1,0.3,0.2l0,0l0,0l0,0
		c0.1,0,0.3,0,0.4,0c0-0.1,0-0.1,0-0.2c-0.1,0.1-0.2,0.1-0.3,0.2c-0.1,0-0.2,0-0.3,0C125.4,40.2,125.5,40.1,125.5,40L125.5,40z
		 M147,40.3c0-0.1,0-0.1,0-0.2c-0.1,0.1-0.2,0.1-0.3,0.2l0,0l0,0l0,0C146.8,40.3,146.9,40.3,147,40.3L147,40.3z M146.7,40.3
		c-0.1-0.1-0.2-0.1-0.3-0.2c0,0.1,0,0.1,0,0.2C146.5,40.3,146.6,40.3,146.7,40.3L146.7,40.3z M167.3,40.3c0-0.1,0-0.1,0-0.2
		c0.1,0.1,0.2,0.1,0.3,0.2l0,0l0,0l0,0c0.1,0,0.3,0,0.4,0c0-0.1,0-0.1,0-0.2c-0.1,0.1-0.2,0.1-0.3,0.2
		C167.5,40.3,167.4,40.3,167.3,40.3L167.3,40.3z M188.9,40.3c0-0.1,0-0.1,0-0.2c-0.1,0.1-0.2,0.1-0.3,0.2l0,0l0,0l0,0
		C188.7,40.3,188.8,40.3,188.9,40.3L188.9,40.3z M188.5,40.3c-0.1-0.1-0.2-0.1-0.3-0.2c0,0.1,0,0.1,0,0.2
		C188.3,40.3,188.4,40.3,188.5,40.3L188.5,40.3z M209.1,40.3c0-0.1,0-0.1,0-0.2c0.1,0.1,0.2,0.1,0.3,0.2l0,0l0,0l0,0
		c0.1,0,0.3,0,0.4,0c0-0.1,0-0.1,0-0.2c-0.1,0.1-0.2,0.1-0.3,0.2C209.3,40.3,209.2,40.3,209.1,40.3L209.1,40.3z M230.7,40.3
		c0-0.1,0-0.1,0-0.2c-0.1,0.1-0.2,0.1-0.3,0.2l0,0l0,0l0,0C230.5,40.3,230.6,40.3,230.7,40.3L230.7,40.3z M230.4,40.3
		c-0.1-0.1-0.2-0.1-0.3-0.2c0,0.1,0,0.1,0,0.2C230.2,40.3,230.3,40.3,230.4,40.3L230.4,40.3z M251,40.3c0-0.1,0-0.1,0-0.2
		c0.1,0.1,0.2,0.1,0.3,0.2l0,0l0,0l0,0c0.1,0,0.3,0,0.4,0c0-0.1,0-0.1,0-0.2c-0.1,0.1-0.2,0.1-0.3,0.2
		C251.2,40.3,251.1,40.3,251,40.3L251,40.3z M272.6,40.3c0-0.1,0-0.1,0-0.2c-0.1,0.1-0.2,0.1-0.3,0.2l0,0l0,0l0,0
		C272.4,40.3,272.5,40.3,272.6,40.3L272.6,40.3z M272.2,40.3c-0.1-0.1-0.2-0.1-0.3-0.2c0,0.1,0,0.1,0,0.2
		C272,40.3,272.1,40.3,272.2,40.3L272.2,40.3z M292.8,40.3c0-0.1,0-0.1,0-0.2c0.1,0.1,0.2,0.1,0.3,0.2l0,0l0,0l0,0
		c0.1,0,0.3,0,0.4,0c0-0.1,0-0.1,0-0.2c-0.1,0.1-0.2,0.1-0.3,0.2C293,40.3,292.9,40.3,292.8,40.3L292.8,40.3z M314.4,40.3
		c0-0.1,0-0.1,0-0.2c-0.1,0.1-0.2,0.1-0.3,0.2l0,0l0,0l0,0C314.2,40.3,314.3,40.3,314.4,40.3L314.4,40.3z M314.1,40.3
		c-0.1-0.1-0.2-0.1-0.3-0.2c0,0.1,0,0.1,0,0.2C313.9,40.3,314,40.3,314.1,40.3L314.1,40.3z M334.7,40.3c0-0.1,0-0.1,0-0.2
		c0.1,0.1,0.2,0.1,0.3,0.2l0,0l0,0l0,0c0.1,0,0.3,0,0.4,0c0-0.1,0-0.1,0-0.2c-0.1,0.1-0.2,0.1-0.3,0.2
		C334.9,40.3,334.8,40.3,334.7,40.3L334.7,40.3z M356.3,40.3c0-0.1,0-0.1,0-0.2c-0.1,0.1-0.2,0.1-0.3,0.2l0,0l0,0l0,0
		C356.1,40.3,356.2,40.3,356.3,40.3L356.3,40.3z M355.9,40.3c-0.1-0.1-0.2-0.1-0.3-0.2c0,0.1,0,0.1,0,0.2
		C355.7,40.3,355.8,40.3,355.9,40.3L355.9,40.3z M376.5,40.3c0-0.1,0-0.1,0-0.2c0.1,0.1,0.2,0.1,0.3,0.2l0,0l0,0l0,0
		c0.1,0,0.2,0,0.3,0c0-0.1,0-0.1,0-0.2c-0.1,0.1-0.2,0.1-0.3,0.2C376.7,40.3,376.6,40.3,376.5,40.3L376.5,40.3z M135.9,26.7
		c0.1,0.1,0.2,0.1,0.3,0.2c0.1,0,0.2,0,0.3,0c0-0.1,0-0.2,0-0.3c-0.1,0.1-0.2,0.1-0.3,0.2l0,0l0,0l0,0c-0.1,0-0.3,0-0.4,0
		C135.9,26.8,135.9,26.7,135.9,26.7L135.9,26.7z M156.8,26.9c0.1,0,0.3,0,0.4,0l0,0l0,0l0,0c0.1-0.1,0.2-0.1,0.3-0.2
		c0,0.1,0,0.2,0,0.3c-0.1,0-0.2,0-0.3,0c-0.1-0.1-0.2-0.1-0.3-0.2C156.8,26.7,156.8,26.8,156.8,26.9L156.8,26.9z M177.8,26.7
		c0.1,0.1,0.2,0.1,0.3,0.2c0.1,0,0.2,0,0.3,0c0-0.1,0-0.2,0-0.3c-0.1,0.1-0.2,0.1-0.3,0.2l0,0l0,0l0,0c-0.1,0-0.3,0-0.4,0
		C177.8,26.8,177.8,26.7,177.8,26.7L177.8,26.7z M198.6,26.9c0.1,0,0.3,0,0.4,0l0,0l0,0l0,0c0.1-0.1,0.2-0.1,0.3-0.2
		c0,0.1,0,0.2,0,0.3c-0.1,0-0.2,0-0.3,0c-0.1-0.1-0.2-0.1-0.3-0.2C198.7,26.7,198.7,26.8,198.6,26.9L198.6,26.9z M219.6,26.7
		c0.1,0.1,0.2,0.1,0.3,0.2c0.1,0,0.2,0,0.3,0c0-0.1,0-0.2,0-0.3c-0.1,0.1-0.2,0.1-0.3,0.2l0,0l0,0l0,0c-0.1,0-0.3,0-0.4,0
		C219.6,26.8,219.6,26.7,219.6,26.7L219.6,26.7z M240.5,26.9c0.1,0,0.3,0,0.4,0l0,0l0,0l0,0c0.1-0.1,0.2-0.1,0.3-0.2
		c0,0.1,0,0.2,0,0.3c-0.1,0-0.2,0-0.3,0c-0.1-0.1-0.2-0.1-0.3-0.2C240.5,26.7,240.5,26.8,240.5,26.9L240.5,26.9z M261.5,26.7
		c0.1,0.1,0.2,0.1,0.3,0.2c0.1,0,0.2,0,0.3,0c0-0.1,0-0.1,0-0.3c-0.1,0.1-0.2,0.1-0.3,0.2l0,0l0,0l0,0c-0.1,0-0.3,0-0.4,0
		C261.5,26.8,261.5,26.7,261.5,26.7L261.5,26.7z M282.3,26.9c0.1,0,0.3,0,0.4,0l0,0l0,0l0,0c0.1-0.1,0.2-0.1,0.3-0.2
		c0,0.1,0,0.2,0,0.3c-0.1,0-0.2,0-0.3,0c-0.1-0.1-0.2-0.1-0.3-0.2C282.4,26.7,282.4,26.8,282.3,26.9L282.3,26.9z M303.3,26.7
		c0.1,0.1,0.2,0.1,0.3,0.2c0.1,0,0.2,0,0.3,0c0-0.1,0-0.1,0-0.3c-0.1,0.1-0.2,0.1-0.3,0.2l0,0l0,0l0,0c-0.1,0-0.3,0-0.4,0
		C303.3,26.8,303.3,26.7,303.3,26.7L303.3,26.7z M324.2,26.9c0.1,0,0.3,0,0.4,0l0,0l0,0l0,0c0.1-0.1,0.2-0.1,0.3-0.2
		c0,0.1,0,0.2,0,0.3c-0.1,0-0.2,0-0.3,0c-0.1-0.1-0.2-0.1-0.3-0.2C324.2,26.7,324.2,26.8,324.2,26.9L324.2,26.9z M345.2,26.7
		c0.1,0.1,0.2,0.1,0.3,0.2c0.1,0,0.2,0,0.3,0c0-0.1,0-0.2,0-0.3c-0.1,0.1-0.2,0.1-0.3,0.2l0,0l0,0l0,0c-0.1,0-0.3,0-0.4,0
		C345.2,26.8,345.2,26.7,345.2,26.7L345.2,26.7z M366,26.9c0.1,0,0.3,0,0.4,0l0,0l0,0l0,0c0.1-0.1,0.2-0.1,0.3-0.2
		c0,0.1,0,0.2,0,0.3c-0.1,0-0.2,0-0.3,0c-0.1-0.1-0.2-0.1-0.3-0.2C366.1,26.7,366.1,26.8,366,26.9L366,26.9z M387,26.7
		c0.1,0.1,0.2,0.1,0.3,0.2c0.1,0,0.2,0,0.3,0c0-0.1,0-0.2,0-0.3c-0.1,0.1-0.2,0.1-0.3,0.2l0,0l0,0l0,0c-0.1,0-0.2,0-0.4,0
		C387,26.8,387,26.7,387,26.7L387,26.7z M398.1,40.3c0-0.1,0-0.1,0-0.2c-0.1,0.1-0.2,0.1-0.3,0.2l0,0l0,0l0,0
		C397.9,40.3,398,40.3,398.1,40.3L398.1,40.3z M397.8,40.3c-0.1-0.1-0.2-0.1-0.3-0.2c0,0.1,0,0.1,0,0.2
		C397.6,40.3,397.7,40.3,397.8,40.3L397.8,40.3z M418.4,40.3c0-0.1,0-0.1,0-0.2c0.1,0.1,0.2,0.1,0.3,0.2l0,0l0,0l0,0
		c0.1,0,0.2,0,0.3,0c0-0.1,0-0.1,0-0.2c-0.1,0.1-0.2,0.1-0.3,0.2C418.6,40.3,418.5,40.3,418.4,40.3L418.4,40.3z M440,40.3
		c0-0.1,0-0.1,0-0.2c-0.1,0.1-0.2,0.1-0.3,0.2l0,0l0,0l0,0C439.8,40.3,439.9,40.3,440,40.3L440,40.3z M439.6,40.3
		c-0.1-0.1-0.2-0.1-0.3-0.2c0,0.1,0,0.1,0,0.2C439.4,40.3,439.5,40.3,439.6,40.3L439.6,40.3z M460.2,40.3c0-0.1,0-0.1,0-0.2
		c0.1,0.1,0.2,0.1,0.3,0.2l0,0l0,0l0,0c0.1,0,0.2,0,0.3,0c0-0.1,0-0.1,0-0.2c-0.1,0.1-0.2,0.1-0.3,0.2
		C460.4,40.3,460.3,40.3,460.2,40.3L460.2,40.3z M481.9,40.3c0-0.1,0-0.1,0-0.2c-0.1,0.1-0.2,0.1-0.3,0.2l0,0l0,0l0,0
		C481.6,40.3,481.7,40.3,481.9,40.3L481.9,40.3z M481.5,40.3c-0.1-0.1-0.2-0.1-0.3-0.2c0,0.1,0,0.1,0,0.2
		C481.3,40.3,481.4,40.3,481.5,40.3L481.5,40.3z M502.1,40.3c0-0.1,0-0.1,0-0.2c0.1,0.1,0.2,0.1,0.3,0.2l0,0l0,0l0,0
		c0.1,0,0.2,0,0.3,0c0-0.1,0-0.1,0-0.2c-0.1,0.1-0.2,0.1-0.3,0.2C502.3,40.3,502.2,40.3,502.1,40.3L502.1,40.3z M523.7,40.3
		c0-0.1,0-0.1,0-0.2c-0.1,0.1-0.2,0.1-0.3,0.2l0,0l0,0l0,0C523.5,40.3,523.6,40.3,523.7,40.3L523.7,40.3z M523.3,40.3
		c-0.1-0.1-0.2-0.1-0.3-0.2c0,0.1,0,0.1,0,0.2C523.1,40.3,523.2,40.3,523.3,40.3L523.3,40.3z M543.9,40.3c0-0.1,0-0.1,0-0.2
		c0.1,0.1,0.2,0.1,0.3,0.2l0,0l0,0l0,0c0.1,0,0.2,0,0.3,0c0-0.1,0-0.1,0-0.2c-0.1,0.1-0.2,0.1-0.3,0.2
		C544.1,40.3,544,40.3,543.9,40.3L543.9,40.3z M565.6,40.3c0-0.1,0-0.1,0-0.2c-0.1,0.1-0.2,0.1-0.3,0.2l0,0l0,0l0,0
		C565.3,40.3,565.4,40.3,565.6,40.3L565.6,40.3z M565.2,40.3c-0.1-0.1-0.2-0.1-0.3-0.2c0,0.1,0,0.1,0,0.2
		C565,40.3,565.1,40.3,565.2,40.3L565.2,40.3z M585.8,40.3c0-0.1,0-0.1,0-0.2c0.1,0.1,0.2,0.1,0.3,0.2l0,0l0,0l0,0
		c0.1,0,0.2,0,0.3,0c0-0.1,0-0.1,0-0.2c-0.1,0.1-0.2,0.1-0.3,0.2C586,40.3,585.9,40.3,585.8,40.3L585.8,40.3z M607.4,40.3
		c0-0.1,0-0.1,0-0.2c-0.1,0.1-0.2,0.1-0.3,0.2l0,0l0,0l0,0C607.2,40.3,607.3,40.3,607.4,40.3L607.4,40.3z M607.1,40.3
		c-0.1-0.1-0.2-0.1-0.3-0.2c0,0.1,0,0.1,0,0.2C606.8,40.3,606.9,40.3,607.1,40.3L607.1,40.3z M627.6,40.3c0-0.1,0-0.1,0-0.2
		c0.1,0.1,0.2,0.1,0.3,0.2l0,0l0,0l0,0c0.1,0,0.2,0,0.3,0c0-0.1,0-0.1,0-0.2c-0.1,0.1-0.2,0.1-0.3,0.2
		C627.9,40.3,627.7,40.3,627.6,40.3L627.6,40.3z M649.3,40.3c0-0.1,0-0.1,0-0.2c-0.1,0.1-0.2,0.1-0.3,0.2l0,0l0,0l0,0
		C649,40.3,649.1,40.3,649.3,40.3L649.3,40.3z M648.9,40.3c-0.1-0.1-0.2-0.1-0.3-0.2c0,0.1,0,0.1,0,0.2
		C648.7,40.3,648.8,40.3,648.9,40.3L648.9,40.3z M407.9,26.9c0.1,0,0.3,0,0.4,0l0,0l0,0l0,0c0.1-0.1,0.2-0.1,0.3-0.2
		c0,0.1,0,0.2,0,0.3c-0.1,0-0.2,0-0.3,0c-0.1-0.1-0.2-0.1-0.3-0.2C407.9,26.7,407.9,26.8,407.9,26.9L407.9,26.9z M428.9,26.7
		c0.1,0.1,0.2,0.1,0.3,0.2c0.1,0,0.2,0,0.3,0c0-0.1,0-0.1,0-0.3c-0.1,0.1-0.2,0.1-0.3,0.2l0,0l0,0l0,0c-0.1,0-0.2,0-0.4,0
		C428.9,26.8,428.9,26.7,428.9,26.7L428.9,26.7z M449.7,26.9c0.1,0,0.3,0,0.4,0l0,0l0,0l0,0c0.1-0.1,0.2-0.1,0.3-0.2
		c0,0.1,0,0.2,0.1,0.3c-0.1,0-0.3,0-0.4,0c-0.1-0.1-0.2-0.1-0.3-0.2C449.8,26.7,449.8,26.8,449.7,26.9L449.7,26.9z M470.7,26.7
		c0.1,0.1,0.2,0.1,0.3,0.2c0.1,0,0.2,0,0.4,0c0-0.1,0-0.2-0.1-0.3c-0.1,0.1-0.2,0.1-0.3,0.2l0,0l0,0l0,0c-0.1,0-0.2,0-0.4,0
		C470.7,26.8,470.7,26.7,470.7,26.7L470.7,26.7z M491.6,26.9c0.1,0,0.3,0,0.4,0l0,0l0,0l0,0c0.1-0.1,0.2-0.1,0.3-0.2
		c0,0.1,0,0.2,0.1,0.3c-0.1,0-0.3,0-0.4,0c-0.1-0.1-0.2-0.1-0.3-0.2C491.6,26.7,491.6,26.8,491.6,26.9L491.6,26.9z M512.6,26.7
		c0.1,0.1,0.2,0.1,0.3,0.2c0.1,0,0.2,0,0.4,0c0-0.1,0-0.2-0.1-0.3c-0.1,0.1-0.2,0.1-0.3,0.2l0,0l0,0l0,0c-0.1,0-0.2,0-0.4,0
		C512.6,26.8,512.6,26.7,512.6,26.7L512.6,26.7z M533.4,26.9c0.1,0,0.3,0,0.4,0l0,0l0,0l0,0c0.1-0.1,0.2-0.1,0.3-0.2
		c0,0.1,0,0.2,0.1,0.3c-0.1,0-0.3,0-0.4,0c-0.1-0.1-0.2-0.1-0.3-0.2C533.5,26.7,533.5,26.8,533.4,26.9L533.4,26.9z M554.4,26.7
		c0.1,0.1,0.2,0.1,0.3,0.2c0.1,0,0.2,0,0.4,0c0-0.1,0-0.2-0.1-0.3c-0.1,0.1-0.2,0.1-0.3,0.2l0,0l0,0l0,0c-0.1,0-0.2,0-0.4,0
		C554.4,26.8,554.4,26.7,554.4,26.7L554.4,26.7z M575.3,26.9c0.1,0,0.3,0,0.4,0l0,0l0,0l0,0c0.1-0.1,0.2-0.1,0.3-0.2
		c0,0.1,0,0.2,0.1,0.3c-0.1,0-0.3,0-0.4,0c-0.1-0.1-0.2-0.1-0.3-0.2C575.3,26.7,575.3,26.8,575.3,26.9L575.3,26.9z M596.3,26.7
		c0.1,0.1,0.2,0.1,0.3,0.2c0.1,0,0.2,0,0.4,0c0-0.1,0-0.1-0.1-0.3c-0.1,0.1-0.2,0.1-0.3,0.2l0,0l0,0l0,0c-0.1,0-0.2,0-0.4,0
		C596.3,26.8,596.3,26.7,596.3,26.7L596.3,26.7z M617.1,26.9c0.1,0,0.3,0,0.4,0l0,0l0,0l0,0c0.1-0.1,0.2-0.1,0.3-0.2
		c0,0.1,0,0.2,0.1,0.3c-0.1,0-0.3,0-0.4,0c-0.1-0.1-0.2-0.1-0.3-0.2C617.2,26.7,617.2,26.8,617.1,26.9L617.1,26.9z M638.1,26.7
		c0.1,0.1,0.2,0.1,0.3,0.2c0.1,0,0.2,0,0.4,0c0-0.1,0-0.2-0.1-0.3c-0.1,0.1-0.2,0.1-0.3,0.2l0,0l0,0l0,0c-0.1,0-0.2,0-0.4,0
		C638.1,26.8,638.1,26.7,638.1,26.7L638.1,26.7z M659,26.9c0.1,0,0.2,0,0.3,0l0,0l0,0l0,0c0.1-0.1,0.2-0.1,0.3-0.2
		c0,0.1,0,0.2,0.1,0.3c-0.1,0-0.3,0-0.4,0c-0.1-0.1-0.2-0.1-0.3-0.2C659,26.7,659,26.8,659,26.9L659,26.9z M669.5,40
		c0.1,0.1,0.2,0.1,0.3,0.2l0,0l0,0l0,0c0.1,0,0.2,0,0.3,0c0-0.1,0-0.1,0-0.2c-0.1,0.1-0.2,0.1-0.3,0.2c-0.1,0-0.3,0-0.4,0
		C669.5,40.2,669.5,40.1,669.5,40L669.5,40z M691.1,40.3c0-0.1,0-0.1,0-0.2c-0.1,0.1-0.2,0.1-0.3,0.2l0,0l0,0l0,0
		C690.9,40.3,691,40.3,691.1,40.3L691.1,40.3z M690.8,40.3c-0.1-0.1-0.2-0.1-0.3-0.2c0,0.1,0,0.1,0,0.2
		C690.5,40.3,690.6,40.3,690.8,40.3L690.8,40.3z M711.3,40.3c0-0.1,0-0.1,0-0.2c0.1,0.1,0.2,0.1,0.3,0.2l0,0l0,0l0,0
		c0.1,0,0.2,0,0.3,0c0-0.1,0-0.1,0-0.2c-0.1,0.1-0.2,0.1-0.3,0.2C711.6,40.3,711.4,40.3,711.3,40.3L711.3,40.3z M733,40.3
		c0-0.1,0-0.1,0-0.2c-0.1,0.1-0.2,0.1-0.3,0.2l0,0l0,0l0,0C732.7,40.3,732.8,40.3,733,40.3L733,40.3z M732.6,40.3
		c-0.1-0.1-0.2-0.1-0.3-0.2c0,0.1,0,0.1,0,0.2C732.4,40.3,732.5,40.3,732.6,40.3L732.6,40.3z M753.2,40.3c0-0.1,0-0.1,0-0.2
		c0.1,0.1,0.2,0.1,0.3,0.2l0,0l0,0l0,0c0.1,0,0.2,0,0.3,0c0-0.1,0-0.1,0-0.2c-0.1,0.1-0.2,0.1-0.3,0.2
		C753.4,40.3,753.3,40.3,753.2,40.3L753.2,40.3z M774.8,40.3c-0.1,0-0.2,0-0.3,0l0,0l0,0l0,0c0.1-0.1,0.2-0.1,0.3-0.2
		C774.8,40.1,774.8,40.2,774.8,40.3L774.8,40.3z M774.5,40.3c-0.1,0-0.3,0-0.4,0c0-0.1,0-0.1,0-0.2
		C774.3,40.1,774.4,40.2,774.5,40.3L774.5,40.3z M680,26.7c0.1,0.1,0.2,0.1,0.3,0.2c0.1,0,0.2,0,0.4,0c0-0.1,0-0.1-0.1-0.3
		c-0.1,0.1-0.2,0.1-0.3,0.2l0,0l0,0l0,0c-0.1,0-0.2,0-0.3,0C680,26.8,680,26.7,680,26.7L680,26.7z M700.9,26.9c0.1,0,0.2,0,0.3,0
		l0,0l0,0l0,0c0.1-0.1,0.2-0.1,0.3-0.2c0,0.1,0,0.2,0.1,0.3c-0.1,0-0.3,0-0.4,0c-0.1-0.1-0.2-0.1-0.3-0.2
		C700.9,26.7,700.9,26.8,700.9,26.9L700.9,26.9z M721.8,26.7c0.1,0.1,0.2,0.1,0.3,0.2c0.1,0,0.3,0,0.4,0c0-0.1,0-0.2-0.1-0.3
		c-0.1,0.1-0.2,0.1-0.3,0.2l0,0l0,0l0,0c-0.1,0-0.2,0-0.3,0C721.8,26.8,721.8,26.7,721.8,26.7L721.8,26.7z M742.7,26.9
		c0.1,0,0.2,0,0.3,0l0,0l0,0l0,0c0.1-0.1,0.2-0.1,0.3-0.2c0,0.1,0,0.2,0.1,0.3c-0.1,0-0.3,0-0.4,0c-0.1-0.1-0.2-0.1-0.3-0.2
		C742.7,26.7,742.7,26.8,742.7,26.9L742.7,26.9z M763.7,26.7c0.1,0.1,0.2,0.1,0.3,0.2c0.1,0,0.3,0,0.4,0c0-0.1,0-0.2-0.1-0.3
		c-0.1,0.1-0.2,0.1-0.3,0.2l0,0l0,0l0,0c-0.1,0-0.2,0-0.3,0C763.7,26.8,763.7,26.7,763.7,26.7L763.7,26.7z M784.6,26.9
		c0.1,0,0.2,0,0.3,0l0,0l0,0l0,0c-0.1-0.1-0.2-0.1-0.3-0.2C784.6,26.7,784.6,26.8,784.6,26.9L784.6,26.9z"/>
	<path class="st1" d="M795,40.3c0.2-1,0.3-2.1,0.4-3.2v-0.6l0,0v-7.3c-2.8-1.5-6.6-2.4-10.5-2.4l0,0l0,0l0,0l0,0
		c-3.8,0-7.7,0.8-10.4,2.4v7.3l0,0v0.6c0,1.1,0.1,2.2,0.4,3.2H795z"/>
	<path class="st1" d="M774.1,40.3c0.2-1,0.3-2.1,0.4-3.2v-0.6l0,0v-7.3c-2.8-1.5-6.6-2.4-10.5-2.4l0,0l0,0l0,0l0,0
		c-3.8,0-7.7,0.8-10.4,2.4v7.3l0,0v0.6c0,1.1,0.1,2.2,0.3,3.2H774.1z"/>
	<path class="st1" d="M784.9,26.9c6.3-4.6,10.4-9.7,10.5-16.5V9.8l0,0V2.5c-2.8-1.5-6.6-2.3-10.5-2.3l0,0l0,0l0,0l0,0
		c-3.8,0-7.7,0.8-10.4,2.3v7.3l0,0v0.6C774.5,17.2,778.6,22.3,784.9,26.9L784.9,26.9z"/>
	<path class="st1" d="M764,26.9c6.3-4.6,10.4-9.7,10.5-16.5V9.8l0,0V2.5c-2.8-1.5-6.6-2.3-10.5-2.3l0,0l0,0l0,0l0,0
		c-3.8,0-7.7,0.8-10.4,2.3v7.3l0,0v0.6C753.6,17.2,757.7,22.3,764,26.9L764,26.9z"/>
	<path class="st1" d="M774.5,40.3c6.3-4.6,10.4-9.7,10.4-16.5v-0.6l0,0v-7.3c-2.8-1.5-6.6-2.3-10.4-2.3l0,0l0,0l0,0l0,0
		c-3.9,0-7.7,0.8-10.5,2.3v7.3l0,0v0.6C764.1,30.5,768.1,35.7,774.5,40.3L774.5,40.3z"/>
	<path class="st1" d="M753.5,40.3c6.3-4.6,10.4-9.7,10.4-16.5v-0.6l0,0v-7.3c-2.8-1.5-6.6-2.3-10.4-2.3l0,0l0,0l0,0l0,0
		c-3.9,0-7.7,0.8-10.5,2.3v7.3l0,0v0.6C743.2,30.5,747.2,35.7,753.5,40.3L753.5,40.3z"/>
	<path class="st1" d="M753.2,40.3c0.2-1,0.3-2.1,0.4-3.2v-0.6l0,0v-7.3c-2.8-1.5-6.6-2.4-10.5-2.4l0,0l0,0l0,0l0,0
		c-3.8,0-7.7,0.8-10.4,2.4v7.3l0,0v0.6c0,1.1,0.1,2.2,0.3,3.2H753.2z"/>
	<path class="st1" d="M732.3,40.3c0.2-1,0.3-2.1,0.4-3.2v-0.6l0,0v-7.3c-2.8-1.5-6.6-2.4-10.5-2.4l0,0l0,0l0,0l0,0
		c-3.8,0-7.7,0.8-10.4,2.4v7.3l0,0v0.6c0,1.1,0.1,2.2,0.3,3.2H732.3z"/>
	<path class="st1" d="M711.3,40.3c0.2-1,0.3-2.1,0.4-3.2v-0.6l0,0v-7.3c-2.8-1.5-6.6-2.4-10.5-2.4l0,0l0,0l0,0l0,0
		c-3.8,0-7.7,0.8-10.4,2.4v7.3l0,0v0.6c0,1.1,0.1,2.2,0.3,3.2H711.3z"/>
	<path class="st1" d="M690.4,40.3c0.2-1,0.3-2.1,0.4-3.2v-0.6l0,0v-7.3c-2.8-1.5-6.6-2.4-10.5-2.4l0,0l0,0l0,0l0,0
		c-3.9,0-7.7,0.8-10.4,2.4v7.3l0,0v0.6c0,1.1,0.1,2.2,0.3,3.2H690.4z"/>
	<path class="st1" d="M743.1,26.9c6.3-4.6,10.4-9.7,10.5-16.5V9.8l0,0V2.5c-2.8-1.5-6.6-2.3-10.5-2.3l0,0l0,0l0,0l0,0
		c-3.8,0-7.7,0.8-10.4,2.3v7.3l0,0v0.6C732.7,17.2,736.7,22.3,743.1,26.9L743.1,26.9z"/>
	<path class="st1" d="M722.1,26.9c6.3-4.6,10.4-9.7,10.5-16.5V9.8l0,0V2.5c-2.8-1.5-6.6-2.3-10.5-2.3l0,0l0,0l0,0l0,0
		c-3.8,0-7.7,0.8-10.4,2.3v7.3l0,0v0.6C711.8,17.2,715.8,22.3,722.1,26.9L722.1,26.9z"/>
	<path class="st1" d="M701.2,26.9c6.3-4.6,10.4-9.7,10.5-16.5V9.8l0,0V2.5c-2.8-1.5-6.6-2.3-10.5-2.3l0,0l0,0l0,0l0,0
		c-3.8,0-7.7,0.8-10.4,2.3v7.3l0,0v0.6C690.8,17.2,694.9,22.3,701.2,26.9L701.2,26.9z"/>
	<path class="st1" d="M680.3,26.9c6.3-4.6,10.4-9.7,10.5-16.5V9.8l0,0V2.5c-2.8-1.5-6.6-2.3-10.5-2.3l0,0l0,0l0,0l0,0
		c-3.8,0-7.7,0.8-10.4,2.3v7.3l0,0v0.6C669.9,17.2,674,22.3,680.3,26.9L680.3,26.9z"/>
	<path class="st1" d="M732.6,40.3c6.3-4.6,10.4-9.7,10.4-16.5v-0.6l0,0v-7.3c-2.8-1.5-6.6-2.3-10.4-2.3l0,0l0,0l0,0l0,0
		c-3.9,0-7.7,0.8-10.5,2.3v7.3l0,0v0.6C722.3,30.5,726.3,35.7,732.6,40.3L732.6,40.3z"/>
	<path class="st1" d="M711.7,40.3c6.3-4.6,10.3-9.7,10.4-16.5v-0.6l0,0v-7.3c-2.8-1.5-6.6-2.3-10.4-2.3l0,0l0,0l0,0l0,0
		c-3.9,0-7.7,0.8-10.5,2.3v7.3l0,0v0.6C701.3,30.5,705.4,35.7,711.7,40.3L711.7,40.3z"/>
	<path class="st1" d="M690.8,40.3c6.3-4.6,10.3-9.7,10.4-16.5v-0.6l0,0v-7.3c-2.8-1.5-6.6-2.3-10.4-2.3l0,0l0,0l0,0l0,0
		c-3.9,0-7.7,0.8-10.5,2.3v7.3l0,0v0.6C680.4,30.5,684.4,35.7,690.8,40.3L690.8,40.3z"/>
	<path class="st1" d="M669.8,40.3c6.3-4.6,10.3-9.7,10.4-16.5v-0.6l0,0v-7.3c-2.8-1.5-6.6-2.3-10.4-2.3l0,0l0,0l0,0l0,0
		c-3.9,0-7.7,0.8-10.5,2.3v7.3l0,0v0.6C659.5,30.5,663.5,35.7,669.8,40.3L669.8,40.3z"/>
	<path class="st1" d="M776.3,40.3c-0.6,0-1.2,0-1.8,0l0,0l0,0l0,0l0,0c-0.6,0-1.2,0-1.8,0H776.3z"/>
	<path class="st1" d="M755.4,40.3c-0.6,0-1.2,0-1.8,0l0,0l0,0l0,0l0,0c-0.6,0-1.2,0-1.8,0H755.4z"/>
	<path class="st1" d="M734.4,40.3c-0.6,0-1.2,0-1.8,0l0,0l0,0l0,0l0,0c-0.6,0-1.2,0-1.8,0H734.4z"/>
	<path class="st1" d="M713.5,40.3c-0.6,0-1.2,0-1.8,0l0,0l0,0l0,0l0,0c-0.6,0-1.2,0-1.8,0H713.5z"/>
	<path class="st1" d="M692.6,40.3c-0.6,0-1.2,0-1.8,0l0,0l0,0l0,0l0,0c-0.6,0-1.2,0-1.8,0H692.6z"/>
	<path class="st1" d="M671.6,40.3c-0.6,0-1.2,0-1.8,0l0,0l0,0l0,0l0,0c-0.6,0-1.2,0-1.8,0H671.6z"/>
	<path class="st1" d="M669.5,40.3c0.2-1,0.3-2.1,0.4-3.2v-0.6l0,0v-7.3c-2.8-1.5-6.6-2.4-10.5-2.4l0,0l0,0l0,0l0,0
		c-3.9,0-7.7,0.8-10.4,2.4v7.3l0,0v0.6c0,1.1,0.1,2.2,0.3,3.2H669.5z"/>
	<path class="st1" d="M648.6,40.3c0.2-1,0.3-2.1,0.4-3.2v-0.6l0,0v-7.3c-2.8-1.5-6.6-2.4-10.5-2.4l0,0l0,0l0,0l0,0
		c-3.9,0-7.7,0.8-10.4,2.4v7.3l0,0v0.6c0,1.1,0.1,2.2,0.3,3.2H648.6z"/>
	<path class="st1" d="M627.6,40.3c0.2-1,0.3-2.1,0.4-3.2v-0.6l0,0v-7.3c-2.8-1.5-6.6-2.4-10.5-2.4l0,0l0,0l0,0l0,0
		c-3.9,0-7.7,0.8-10.4,2.4v7.3l0,0v0.6c0,1.1,0.1,2.2,0.3,3.2H627.6z"/>
	<path class="st1" d="M606.7,40.3c0.2-1,0.3-2.1,0.4-3.2v-0.6l0,0v-7.3c-2.8-1.5-6.6-2.4-10.5-2.4l0,0l0,0l0,0l0,0
		c-3.9,0-7.7,0.8-10.4,2.4v7.3l0,0v0.6c0,1.1,0.1,2.2,0.3,3.2H606.7z"/>
	<path class="st1" d="M659.4,26.9c6.3-4.6,10.4-9.7,10.5-16.5V9.8l0,0V2.5c-2.8-1.5-6.6-2.3-10.5-2.3l0,0l0,0l0,0l0,0
		c-3.8,0-7.7,0.8-10.4,2.3v7.3l0,0v0.6C649,17.2,653,22.3,659.4,26.9L659.4,26.9z"/>
	<path class="st1" d="M638.4,26.9c6.3-4.6,10.4-9.7,10.5-16.5V9.8l0,0V2.5c-2.8-1.5-6.6-2.3-10.5-2.3l0,0l0,0l0,0l0,0
		c-3.8,0-7.7,0.8-10.4,2.3v7.3l0,0v0.6C628.1,17.2,632.1,22.3,638.4,26.9L638.4,26.9z"/>
	<path class="st1" d="M617.5,26.9c6.3-4.6,10.4-9.7,10.5-16.5V9.8l0,0V2.5c-2.8-1.5-6.6-2.3-10.5-2.3l0,0l0,0l0,0l0,0
		c-3.8,0-7.7,0.8-10.4,2.3v7.3l0,0v0.6C607.1,17.2,611.2,22.3,617.5,26.9L617.5,26.9z"/>
	<path class="st1" d="M596.6,26.9c6.3-4.6,10.4-9.7,10.5-16.5V9.8l0,0V2.5c-2.8-1.5-6.6-2.3-10.5-2.3l0,0l0,0l0,0l0,0
		c-3.9,0-7.7,0.8-10.4,2.3v7.3l0,0v0.6C586.2,17.2,590.3,22.3,596.6,26.9L596.6,26.9z"/>
	<path class="st1" d="M648.9,40.3c6.3-4.6,10.3-9.7,10.4-16.5v-0.6l0,0v-7.3c-2.8-1.5-6.6-2.3-10.4-2.3l0,0l0,0l0,0l0,0
		c-3.9,0-7.7,0.8-10.5,2.3v7.3l0,0v0.6C638.6,30.5,642.6,35.7,648.9,40.3L648.9,40.3z"/>
	<path class="st1" d="M628,40.3c6.3-4.6,10.3-9.7,10.4-16.5v-0.6l0,0v-7.3c-2.8-1.5-6.6-2.3-10.4-2.3l0,0l0,0l0,0l0,0
		c-3.8,0-7.7,0.8-10.4,2.3v7.3l0,0v0.6C617.6,30.5,621.7,35.7,628,40.3L628,40.3z"/>
	<path class="st1" d="M607.1,40.3c6.3-4.6,10.3-9.7,10.4-16.5v-0.6l0,0v-7.3c-2.8-1.5-6.6-2.3-10.4-2.3l0,0l0,0l0,0l0,0
		c-3.8,0-7.7,0.8-10.4,2.3v7.3l0,0v0.6C596.7,30.5,600.7,35.7,607.1,40.3L607.1,40.3z"/>
	<path class="st1" d="M586.1,40.3c6.3-4.6,10.3-9.7,10.4-16.5v-0.6l0,0v-7.3c-2.8-1.5-6.6-2.3-10.4-2.3l0,0l0,0l0,0l0,0
		c-3.8,0-7.7,0.8-10.4,2.3v7.3l0,0v0.6C575.8,30.5,579.8,35.7,586.1,40.3L586.1,40.3z"/>
	<path class="st1" d="M585.8,40.3c0.2-1,0.3-2.1,0.4-3.2v-0.6l0,0v-7.3c-2.8-1.5-6.6-2.4-10.5-2.4l0,0l0,0l0,0l0,0
		c-3.9,0-7.7,0.8-10.4,2.4v7.3l0,0v0.6c0,1.1,0.1,2.2,0.3,3.2H585.8z"/>
	<path class="st1" d="M564.9,40.3c0.2-1,0.3-2.1,0.4-3.2v-0.6l0,0v-7.3c-2.8-1.5-6.6-2.4-10.5-2.4l0,0l0,0l0,0l0,0
		c-3.9,0-7.7,0.8-10.5,2.4v7.3l0,0v0.6c0,1.1,0.1,2.2,0.4,3.2H564.9z"/>
	<path class="st1" d="M543.9,40.3c0.2-1,0.3-2.1,0.3-3.2v-0.6l0,0v-7.3c-2.8-1.5-6.6-2.4-10.4-2.4l0,0l0,0l0,0l0,0
		c-3.9,0-7.7,0.8-10.5,2.4v7.3l0,0v0.6c0,1.1,0.1,2.2,0.4,3.2H543.9z"/>
	<path class="st1" d="M523,40.3c0.2-1,0.3-2.1,0.3-3.2v-0.6l0,0v-7.3c-2.8-1.5-6.6-2.4-10.4-2.4l0,0l0,0l0,0l0,0
		c-3.9,0-7.7,0.8-10.5,2.4v7.3l0,0v0.6c0,1.1,0.1,2.2,0.4,3.2H523z"/>
	<path class="st1" d="M575.7,26.9c6.3-4.6,10.4-9.7,10.5-16.5V9.8l0,0V2.5c-2.8-1.5-6.6-2.3-10.5-2.3l0,0l0,0l0,0l0,0
		c-3.9,0-7.7,0.8-10.4,2.3v7.3l0,0v0.6C565.3,17.2,569.3,22.3,575.7,26.9L575.7,26.9z"/>
	<path class="st1" d="M554.7,26.9c6.3-4.6,10.4-9.7,10.5-16.5V9.8l0,0V2.5c-2.8-1.5-6.6-2.3-10.5-2.3l0,0l0,0l0,0l0,0
		c-3.9,0-7.7,0.8-10.4,2.3v7.3l0,0v0.6C544.4,17.2,548.4,22.3,554.7,26.9L554.7,26.9z"/>
	<path class="st1" d="M533.8,26.9c6.3-4.6,10.4-9.7,10.5-16.5V9.8l0,0V2.5c-2.8-1.5-6.6-2.3-10.5-2.3l0,0l0,0l0,0l0,0
		c-3.9,0-7.7,0.8-10.4,2.3v7.3l0,0v0.6C523.4,17.2,527.5,22.3,533.8,26.9L533.8,26.9z"/>
	<path class="st1" d="M512.9,26.9c6.3-4.6,10.4-9.7,10.5-16.5V9.8l0,0V2.5c-2.8-1.5-6.6-2.3-10.5-2.3l0,0l0,0l0,0l0,0
		c-3.9,0-7.7,0.8-10.4,2.3v7.3l0,0v0.6C502.5,17.2,506.6,22.3,512.9,26.9L512.9,26.9z"/>
	<path class="st1" d="M565.2,40.3c6.3-4.6,10.3-9.7,10.4-16.5v-0.6l0,0v-7.3c-2.8-1.5-6.6-2.3-10.4-2.3l0,0l0,0l0,0l0,0
		c-3.8,0-7.7,0.8-10.4,2.3v7.3l0,0v0.6C554.9,30.5,558.9,35.7,565.2,40.3L565.2,40.3z"/>
	<path class="st1" d="M544.3,40.3c6.3-4.6,10.4-9.7,10.5-16.5v-0.6l0,0v-7.3c-2.8-1.5-6.6-2.3-10.4-2.3l0,0l0,0l0,0l0,0
		c-3.8,0-7.7,0.8-10.4,2.3v7.3l0,0v0.6C533.9,30.5,538,35.7,544.3,40.3L544.3,40.3z"/>
	<path class="st1" d="M523.3,40.3c6.3-4.6,10.4-9.7,10.5-16.5v-0.6l0,0v-7.3c-2.8-1.5-6.6-2.3-10.4-2.3l0,0l0,0l0,0l0,0
		c-3.8,0-7.7,0.8-10.4,2.3v7.3l0,0v0.6C513,30.5,517,35.7,523.3,40.3L523.3,40.3z"/>
	<path class="st1" d="M502.4,40.3c6.3-4.6,10.4-9.7,10.5-16.5v-0.6l0,0v-7.3c-2.8-1.5-6.6-2.3-10.4-2.3l0,0l0,0l0,0l0,0
		c-3.8,0-7.7,0.8-10.4,2.3v7.3l0,0v0.6C492.1,30.5,496.1,35.7,502.4,40.3L502.4,40.3z"/>
	<path class="st1" d="M502.1,40.3c0.2-1,0.3-2.1,0.3-3.2v-0.6l0,0v-7.3c-2.8-1.5-6.6-2.4-10.4-2.4l0,0l0,0l0,0l0,0
		c-3.9,0-7.7,0.8-10.5,2.4v7.3l0,0v0.6c0,1.1,0.1,2.2,0.4,3.2H502.1z"/>
	<path class="st1" d="M481.2,40.3c0.2-1,0.3-2.1,0.3-3.2v-0.6l0,0v-7.3c-2.8-1.5-6.6-2.4-10.4-2.4l0,0l0,0l0,0l0,0
		c-3.9,0-7.7,0.8-10.5,2.4v7.3l0,0v0.6c0,1.1,0.1,2.2,0.4,3.2H481.2z"/>
	<path class="st1" d="M460.2,40.3c0.2-1,0.3-2.1,0.3-3.2v-0.6l0,0v-7.3c-2.8-1.5-6.6-2.4-10.4-2.4l0,0l0,0l0,0l0,0
		c-3.9,0-7.7,0.8-10.5,2.4v7.3l0,0v0.6c0,1.1,0.1,2.2,0.4,3.2H460.2z"/>
	<path class="st1" d="M439.3,40.3c0.2-1,0.3-2.1,0.3-3.2v-0.6l0,0v-7.3c-2.8-1.5-6.6-2.4-10.4-2.4l0,0l0,0l0,0l0,0
		c-3.9,0-7.7,0.8-10.5,2.4v7.3l0,0v0.6c0,1.1,0.1,2.2,0.4,3.2H439.3z"/>
	<path class="st1" d="M492,26.9c6.3-4.6,10.4-9.7,10.5-16.5V9.8l0,0V2.5c-2.8-1.5-6.6-2.3-10.5-2.3l0,0l0,0l0,0l0,0
		c-3.9,0-7.7,0.8-10.4,2.3v7.3l0,0v0.6C481.6,17.2,485.6,22.3,492,26.9L492,26.9z"/>
	<path class="st1" d="M471,26.9c6.3-4.6,10.4-9.7,10.5-16.5V9.8l0,0V2.5c-2.8-1.5-6.6-2.3-10.5-2.3l0,0l0,0l0,0l0,0
		c-3.9,0-7.7,0.8-10.4,2.3v7.3l0,0v0.6C460.7,17.2,464.7,22.3,471,26.9L471,26.9z"/>
	<path class="st1" d="M450.1,26.9c6.3-4.6,10.4-9.7,10.5-16.5V9.8l0,0V2.5c-2.8-1.5-6.6-2.3-10.5-2.3l0,0l0,0l0,0l0,0
		c-3.9,0-7.7,0.8-10.5,2.3v7.3l0,0v0.6C439.7,17.2,443.8,22.3,450.1,26.9L450.1,26.9z"/>
	<path class="st1" d="M429.2,26.9c6.3-4.6,10.4-9.7,10.4-16.5V9.8l0,0V2.5c-2.8-1.5-6.6-2.3-10.4-2.3l0,0l0,0l0,0l0,0
		c-3.9,0-7.7,0.8-10.5,2.3v7.3l0,0v0.6C418.8,17.2,422.9,22.3,429.2,26.9L429.2,26.9z"/>
	<path class="st1" d="M481.5,40.3c6.3-4.6,10.4-9.7,10.5-16.5v-0.6l0,0v-7.3c-2.8-1.5-6.6-2.3-10.4-2.3l0,0l0,0l0,0l0,0
		c-3.8,0-7.7,0.8-10.4,2.3v7.3l0,0v0.6C471.1,30.5,475.2,35.7,481.5,40.3L481.5,40.3z"/>
	<path class="st1" d="M460.6,40.3c6.3-4.6,10.4-9.7,10.5-16.5v-0.6l0,0v-7.3c-2.8-1.5-6.6-2.3-10.4-2.3l0,0l0,0l0,0l0,0
		c-3.8,0-7.7,0.8-10.4,2.3v7.3l0,0v0.6C450.2,30.5,454.3,35.7,460.6,40.3L460.6,40.3z"/>
	<path class="st1" d="M439.6,40.3c6.3-4.6,10.4-9.7,10.5-16.5v-0.6l0,0v-7.3c-2.8-1.5-6.6-2.3-10.5-2.3l0,0l0,0l0,0l0,0
		c-3.8,0-7.7,0.8-10.4,2.3v7.3l0,0v0.6C429.3,30.5,433.3,35.7,439.6,40.3L439.6,40.3z"/>
	<path class="st1" d="M418.7,40.3c6.3-4.6,10.4-9.7,10.5-16.5v-0.6l0,0v-7.3c-2.8-1.5-6.6-2.3-10.5-2.3l0,0l0,0l0,0l0,0
		c-3.8,0-7.7,0.8-10.4,2.3v7.3l0,0v0.6C408.4,30.5,412.4,35.7,418.7,40.3L418.7,40.3z"/>
	<path class="st1" d="M418.4,40.3c0.2-1,0.3-2.1,0.3-3.2v-0.6l0,0v-7.3c-2.8-1.5-6.6-2.4-10.4-2.4l0,0l0,0l0,0l0,0
		c-3.9,0-7.7,0.8-10.5,2.4v7.3l0,0v0.6c0,1.1,0.1,2.2,0.4,3.2H418.4z"/>
	<path class="st1" d="M397.5,40.3c0.2-1,0.3-2.1,0.3-3.2v-0.6l0,0v-7.3c-2.8-1.5-6.6-2.4-10.4-2.4l0,0l0,0l0,0l0,0
		c-3.9,0-7.7,0.8-10.5,2.4v7.3l0,0v0.6c0,1.1,0.1,2.2,0.4,3.2H397.5z"/>
	<path class="st1" d="M408.3,26.9c6.3-4.6,10.4-9.7,10.4-16.5V9.8l0,0V2.5c-2.8-1.5-6.6-2.3-10.4-2.3l0,0l0,0l0,0l0,0
		c-3.9,0-7.7,0.8-10.5,2.3v7.3l0,0v0.6C397.9,17.2,401.9,22.3,408.3,26.9L408.3,26.9z"/>
	<path class="st1" d="M387.3,26.9c6.3-4.6,10.4-9.7,10.4-16.5V9.8l0,0V2.5c-2.8-1.5-6.6-2.3-10.4-2.3l0,0l0,0l0,0l0,0
		c-3.9,0-7.7,0.8-10.5,2.3v7.3l0,0v0.6C377,17.2,381,22.3,387.3,26.9L387.3,26.9z"/>
	<path class="st1" d="M397.8,40.3c6.3-4.6,10.4-9.7,10.5-16.5v-0.6l0,0v-7.3c-2.8-1.5-6.6-2.3-10.5-2.3l0,0l0,0l0,0l0,0
		c-3.8,0-7.7,0.8-10.4,2.3v7.3l0,0v0.6C387.4,30.5,391.5,35.7,397.8,40.3L397.8,40.3z"/>
	<path class="st1" d="M650.7,40.3c-0.6,0-1.2,0-1.8,0l0,0l0,0l0,0l0,0c-0.6,0-1.2,0-1.8,0H650.7z"/>
	<path class="st1" d="M629.8,40.3c-0.6,0-1.2,0-1.8,0l0,0l0,0l0,0l0,0c-0.6,0-1.2,0-1.8,0H629.8z"/>
	<path class="st1" d="M608.9,40.3c-0.6,0-1.2,0-1.8,0l0,0l0,0l0,0l0,0c-0.6,0-1.2,0-1.8,0H608.9z"/>
	<path class="st1" d="M587.9,40.3c-0.6,0-1.2,0-1.8,0l0,0l0,0l0,0l0,0c-0.6,0-1.2,0-1.8,0H587.9z"/>
	<path class="st1" d="M567,40.3c-0.6,0-1.2,0-1.8,0l0,0l0,0l0,0l0,0c-0.6,0-1.2,0-1.8,0H567z"/>
	<path class="st1" d="M546.1,40.3c-0.6,0-1.2,0-1.8,0l0,0l0,0l0,0l0,0c-0.6,0-1.2,0-1.8,0H546.1z"/>
	<path class="st1" d="M525.2,40.3c-0.6,0-1.2,0-1.8,0l0,0l0,0l0,0l0,0c-0.6,0-1.2,0-1.8,0H525.2z"/>
	<path class="st1" d="M504.2,40.3c-0.6,0-1.2,0-1.8,0l0,0l0,0l0,0l0,0c-0.6,0-1.2,0-1.8,0H504.2z"/>
	<path class="st1" d="M483.3,40.3c-0.6,0-1.2,0-1.8,0l0,0l0,0l0,0l0,0c-0.6,0-1.2,0-1.8,0H483.3z"/>
	<path class="st1" d="M462.4,40.3c-0.6,0-1.2,0-1.8,0l0,0l0,0l0,0l0,0c-0.6,0-1.2,0-1.8,0H462.4z"/>
	<path class="st1" d="M441.4,40.3c-0.6,0-1.2,0-1.8,0l0,0l0,0l0,0l0,0c-0.6,0-1.2,0-1.8,0H441.4z"/>
	<path class="st1" d="M420.5,40.3c-0.6,0-1.2,0-1.8,0l0,0l0,0l0,0l0,0c-0.6,0-1.2,0-1.8,0H420.5z"/>
	<path class="st1" d="M399.6,40.3c-0.6,0-1.2,0-1.8,0l0,0l0,0l0,0l0,0c-0.6,0-1.2,0-1.8,0H399.6z"/>
	<path class="st1" d="M376.9,40.3c6.3-4.6,10.4-9.7,10.5-16.5v-0.6l0,0v-7.3c-2.8-1.5-6.6-2.3-10.5-2.3l0,0l0,0l0,0l0,0
		c-3.8,0-7.7,0.8-10.4,2.3v7.3l0,0v0.6C366.5,30.5,370.6,35.7,376.9,40.3L376.9,40.3z"/>
	<path class="st1" d="M376.5,40.3c0.2-1,0.3-2.1,0.3-3.2v-0.6l0,0v-7.3c-2.8-1.5-6.6-2.4-10.4-2.4l0,0l0,0l0,0l0,0
		c-3.9,0-7.7,0.8-10.5,2.4v7.3l0,0v0.6c0,1.1,0.1,2.2,0.4,3.2H376.5z"/>
	<path class="st1" d="M355.6,40.3c0.2-1,0.3-2.1,0.3-3.2v-0.6l0,0v-7.3c-2.8-1.5-6.6-2.4-10.4-2.4l0,0l0,0l0,0l0,0
		c-3.9,0-7.7,0.8-10.5,2.4v7.3l0,0v0.6c0,1.1,0.1,2.2,0.4,3.2H355.6z"/>
	<path class="st1" d="M334.7,40.3c0.2-1,0.3-2.1,0.3-3.2v-0.6l0,0v-7.3c-2.8-1.5-6.6-2.4-10.4-2.4l0,0l0,0l0,0l0,0
		c-3.9,0-7.7,0.8-10.5,2.4v7.3l0,0v0.6c0,1.1,0.1,2.2,0.4,3.2H334.7z"/>
	<path class="st1" d="M313.7,40.3c0.3-1,0.4-2.1,0.4-3.2v-0.6l0,0v-7.3c-2.8-1.5-6.6-2.4-10.4-2.4l0,0l0,0l0,0l0,0
		c-3.9,0-7.7,0.8-10.5,2.4v7.3l0,0v0.6c0,1.1,0.1,2.2,0.4,3.2H313.7z"/>
	<path class="st1" d="M366.4,26.9c6.3-4.6,10.4-9.7,10.4-16.5V9.8l0,0V2.5c-2.8-1.5-6.6-2.3-10.4-2.3l0,0l0,0l0,0l0,0
		c-3.9,0-7.7,0.8-10.5,2.3v7.3l0,0v0.6C356,17.2,360.1,22.3,366.4,26.9L366.4,26.9z"/>
	<path class="st1" d="M345.5,26.9c6.3-4.6,10.4-9.7,10.4-16.5V9.8l0,0V2.5c-2.8-1.5-6.6-2.3-10.4-2.3l0,0l0,0l0,0l0,0
		c-3.9,0-7.7,0.8-10.5,2.3v7.3l0,0v0.6C335.1,17.2,339.2,22.3,345.5,26.9L345.5,26.9z"/>
	<path class="st1" d="M324.6,26.9c6.3-4.6,10.4-9.7,10.4-16.5V9.8l0,0V2.5c-2.8-1.5-6.6-2.3-10.4-2.3l0,0l0,0l0,0l0,0
		c-3.9,0-7.7,0.8-10.5,2.3v7.3l0,0v0.6C314.2,17.2,318.2,22.3,324.6,26.9L324.6,26.9z"/>
	<path class="st1" d="M303.6,26.9c6.3-4.6,10.4-9.7,10.4-16.5V9.8l0,0V2.5c-2.8-1.5-6.6-2.3-10.4-2.3l0,0l0,0l0,0l0,0
		c-3.9,0-7.7,0.8-10.5,2.3v7.3l0,0v0.6C293.3,17.2,297.3,22.3,303.6,26.9L303.6,26.9z"/>
	<path class="st1" d="M355.9,40.3c6.3-4.6,10.4-9.7,10.5-16.5v-0.6l0,0v-7.3c-2.8-1.5-6.6-2.3-10.5-2.3l0,0l0,0l0,0l0,0
		c-3.8,0-7.7,0.8-10.4,2.3v7.3l0,0v0.6C345.6,30.5,349.6,35.7,355.9,40.3L355.9,40.3z"/>
	<path class="st1" d="M335,40.3c6.3-4.6,10.4-9.7,10.5-16.5v-0.6l0,0v-7.3c-2.8-1.5-6.6-2.3-10.5-2.3l0,0l0,0l0,0l0,0
		c-3.8,0-7.7,0.8-10.4,2.3v7.3l0,0v0.6C324.6,30.5,328.7,35.7,335,40.3L335,40.3z"/>
	<path class="st1" d="M314.1,40.3c6.3-4.6,10.4-9.7,10.5-16.5v-0.6l0,0v-7.3c-2.8-1.5-6.6-2.3-10.5-2.3l0,0l0,0l0,0l0,0
		c-3.8,0-7.7,0.8-10.4,2.3v7.3l0,0v0.6C303.7,30.5,307.8,35.7,314.1,40.3L314.1,40.3z"/>
	<path class="st1" d="M293.2,40.3c6.3-4.6,10.4-9.7,10.5-16.5v-0.6l0,0v-7.3c-2.8-1.5-6.6-2.3-10.5-2.3l0,0l0,0l0,0l0,0
		c-3.8,0-7.7,0.8-10.4,2.3v7.3l0,0v0.6C282.8,30.5,286.9,35.7,293.2,40.3L293.2,40.3z"/>
	<path class="st1" d="M292.8,40.3c0.3-1,0.4-2.1,0.4-3.2v-0.6l0,0v-7.3c-2.8-1.5-6.6-2.4-10.4-2.4l0,0l0,0l0,0l0,0
		c-3.9,0-7.7,0.8-10.5,2.4v7.3l0,0v0.6c0,1.1,0.1,2.2,0.4,3.2H292.8z"/>
	<path class="st1" d="M271.9,40.3c0.3-1,0.4-2.1,0.4-3.2v-0.6l0,0v-7.3c-2.8-1.5-6.6-2.4-10.4-2.4l0,0l0,0l0,0l0,0
		c-3.9,0-7.7,0.8-10.5,2.4v7.3l0,0v0.6c0,1.1,0.1,2.2,0.4,3.2H271.9z"/>
	<path class="st1" d="M250.9,40.3c0.3-1,0.4-2.1,0.4-3.2v-0.6l0,0v-7.3c-2.8-1.5-6.6-2.4-10.4-2.4l0,0l0,0l0,0l0,0
		c-3.9,0-7.7,0.8-10.5,2.4v7.3l0,0v0.6c0,1.1,0.1,2.2,0.4,3.2H250.9z"/>
	<path class="st1" d="M230,40.3c0.3-1,0.4-2.1,0.4-3.2v-0.6l0,0v-7.3c-2.8-1.5-6.6-2.4-10.4-2.4l0,0l0,0l0,0l0,0
		c-3.9,0-7.7,0.8-10.5,2.4v7.3l0,0v0.6c0,1.1,0.1,2.2,0.4,3.2H230z"/>
	<path class="st1" d="M282.7,26.9c6.3-4.6,10.4-9.7,10.4-16.5V9.8l0,0V2.5c-2.8-1.5-6.6-2.3-10.4-2.3l0,0l0,0l0,0l0,0
		c-3.9,0-7.7,0.8-10.5,2.3v7.3l0,0v0.6C272.3,17.2,276.4,22.3,282.7,26.9L282.7,26.9z"/>
	<path class="st1" d="M261.8,26.9c6.3-4.6,10.4-9.7,10.4-16.5V9.8l0,0V2.5c-2.8-1.5-6.6-2.3-10.4-2.3l0,0l0,0l0,0l0,0
		c-3.9,0-7.7,0.8-10.5,2.3v7.3l0,0v0.6C251.4,17.2,255.5,22.3,261.8,26.9L261.8,26.9z"/>
	<path class="st1" d="M240.9,26.9c6.3-4.6,10.4-9.7,10.4-16.5V9.8l0,0V2.5c-2.8-1.5-6.6-2.3-10.4-2.3l0,0l0,0l0,0l0,0
		c-3.9,0-7.7,0.8-10.5,2.3v7.3l0,0v0.6C230.5,17.2,234.5,22.3,240.9,26.9L240.9,26.9z"/>
	<path class="st1" d="M219.9,26.9c6.3-4.6,10.4-9.7,10.4-16.5V9.8l0,0V2.5c-2.8-1.5-6.6-2.3-10.4-2.3l0,0l0,0l0,0l0,0
		c-3.9,0-7.7,0.8-10.5,2.3v7.3l0,0v0.6C209.6,17.2,213.6,22.3,219.9,26.9L219.9,26.9z"/>
	<path class="st1" d="M272.2,40.3c6.3-4.6,10.4-9.7,10.5-16.5v-0.6l0,0v-7.3c-2.8-1.5-6.6-2.3-10.5-2.3l0,0l0,0l0,0l0,0
		c-3.8,0-7.7,0.8-10.4,2.3v7.3l0,0v0.6C261.9,30.5,265.9,35.7,272.2,40.3L272.2,40.3z"/>
	<path class="st1" d="M251.3,40.3c6.3-4.6,10.4-9.7,10.5-16.5v-0.6l0,0v-7.3c-2.8-1.5-6.6-2.3-10.5-2.3l0,0l0,0l0,0l0,0
		c-3.8,0-7.7,0.8-10.4,2.3v7.3l0,0v0.6C240.9,30.5,245,35.7,251.3,40.3L251.3,40.3z"/>
	<path class="st1" d="M230.4,40.3c6.3-4.6,10.4-9.7,10.5-16.5v-0.6l0,0v-7.3c-2.8-1.5-6.6-2.3-10.5-2.3l0,0l0,0l0,0l0,0
		c-3.8,0-7.7,0.8-10.4,2.3v7.3l0,0v0.6C220,30.5,224.1,35.7,230.4,40.3L230.4,40.3z"/>
	<path class="st1" d="M209.5,40.3c6.3-4.6,10.4-9.7,10.5-16.5v-0.6l0,0v-7.3c-2.8-1.5-6.6-2.3-10.5-2.3l0,0l0,0l0,0l0,0
		c-3.8,0-7.7,0.8-10.4,2.3v7.3l0,0v0.6C199.1,30.5,203.2,35.7,209.5,40.3L209.5,40.3z"/>
	<path class="st1" d="M209.1,40.3c0.2-1,0.4-2.1,0.4-3.2v-0.6l0,0v-7.3c-2.8-1.5-6.6-2.4-10.4-2.4l0,0l0,0l0,0l0,0
		c-3.9,0-7.7,0.8-10.5,2.4v7.3l0,0v0.6c0,1.1,0.1,2.2,0.4,3.2H209.1z"/>
	<path class="st1" d="M188.2,40.3c0.2-1,0.4-2.1,0.4-3.2v-0.6l0,0v-7.3c-2.8-1.5-6.6-2.4-10.4-2.4l0,0l0,0l0,0l0,0
		c-3.9,0-7.7,0.8-10.5,2.4v7.3l0,0v0.6c0,1.1,0.1,2.2,0.4,3.2H188.2z"/>
	<path class="st1" d="M167.2,40.3c0.2-1,0.4-2.1,0.4-3.2v-0.6l0,0v-7.3c-2.8-1.5-6.6-2.4-10.4-2.4l0,0l0,0l0,0l0,0
		c-3.9,0-7.7,0.8-10.5,2.4v7.3l0,0v0.6c0,1.1,0.1,2.2,0.4,3.2H167.2z"/>
	<path class="st1" d="M146.3,40.3c0.2-1,0.4-2.1,0.4-3.2v-0.6l0,0v-7.3c-2.8-1.5-6.6-2.4-10.4-2.4l0,0l0,0l0,0l0,0
		c-3.9,0-7.7,0.8-10.5,2.4v7.3l0,0v0.6c0,1.1,0.1,2.2,0.4,3.2H146.3z"/>
	<path class="st1" d="M199,26.9c6.3-4.6,10.4-9.7,10.4-16.5V9.8l0,0V2.5c-2.8-1.5-6.6-2.3-10.4-2.3l0,0l0,0l0,0l0,0
		c-3.9,0-7.7,0.8-10.5,2.3v7.3l0,0v0.6C188.6,17.2,192.7,22.3,199,26.9L199,26.9z"/>
	<path class="st1" d="M178.1,26.9c6.3-4.6,10.4-9.7,10.4-16.5V9.8l0,0V2.5c-2.8-1.5-6.6-2.3-10.4-2.3l0,0l0,0l0,0l0,0
		c-3.9,0-7.7,0.8-10.5,2.3v7.3l0,0v0.6C167.7,17.2,171.8,22.3,178.1,26.9L178.1,26.9z"/>
	<path class="st1" d="M157.2,26.9c6.3-4.6,10.4-9.7,10.4-16.5V9.8l0,0V2.5c-2.8-1.5-6.6-2.3-10.4-2.3l0,0l0,0l0,0l0,0
		c-3.9,0-7.7,0.8-10.5,2.3v7.3l0,0v0.6C146.8,17.2,150.8,22.3,157.2,26.9L157.2,26.9z"/>
	<path class="st1" d="M136.2,26.9c6.3-4.6,10.4-9.7,10.4-16.5V9.8l0,0V2.5c-2.8-1.5-6.6-2.3-10.4-2.3l0,0l0,0l0,0l0,0
		c-3.9,0-7.7,0.8-10.5,2.3v7.3l0,0v0.6C125.9,17.2,129.9,22.3,136.2,26.9L136.2,26.9z"/>
	<path class="st1" d="M188.5,40.3c6.3-4.6,10.4-9.7,10.5-16.5v-0.6l0,0v-7.3c-2.8-1.5-6.6-2.3-10.5-2.3l0,0l0,0l0,0l0,0
		c-3.8,0-7.7,0.8-10.4,2.3v7.3l0,0v0.6C178.2,30.5,182.2,35.7,188.5,40.3L188.5,40.3z"/>
	<path class="st1" d="M167.6,40.3c6.3-4.6,10.4-9.7,10.5-16.5v-0.6l0,0v-7.3c-2.8-1.5-6.6-2.3-10.5-2.3l0,0l0,0l0,0l0,0
		c-3.8,0-7.7,0.8-10.4,2.3v7.3l0,0v0.6C157.2,30.5,161.3,35.7,167.6,40.3L167.6,40.3z"/>
	<path class="st1" d="M146.7,40.3c6.3-4.6,10.4-9.7,10.5-16.5v-0.6l0,0v-7.3c-2.8-1.5-6.6-2.3-10.5-2.3l0,0l0,0l0,0l0,0
		c-3.8,0-7.7,0.8-10.4,2.3v7.3l0,0v0.6C136.3,30.5,140.4,35.7,146.7,40.3L146.7,40.3z"/>
	<path class="st1" d="M125.8,40.3c6.3-4.6,10.4-9.7,10.5-16.5v-0.6l0,0v-7.3c-2.8-1.5-6.6-2.3-10.5-2.3l0,0l0,0l0,0l0,0
		c-3.8,0-7.7,0.8-10.4,2.3v7.3l0,0v0.6C115.4,30.5,119.5,35.7,125.8,40.3L125.8,40.3z"/>
	<path class="st1" d="M378.7,40.3c-0.6,0-1.2,0-1.8,0l0,0l0,0l0,0l0,0c-0.6,0-1.2,0-1.8,0H378.7z"/>
	<path class="st1" d="M357.7,40.3c-0.6,0-1.2,0-1.8,0l0,0l0,0l0,0l0,0c-0.6,0-1.2,0-1.8,0H357.7z"/>
	<path class="st1" d="M336.8,40.3c-0.6,0-1.2,0-1.8,0l0,0l0,0l0,0l0,0c-0.6,0-1.2,0-1.8,0H336.8z"/>
	<path class="st1" d="M315.9,40.3c-0.6,0-1.2,0-1.8,0l0,0l0,0l0,0l0,0c-0.6,0-1.2,0-1.8,0H315.9z"/>
	<path class="st1" d="M295,40.3c-0.6,0-1.2,0-1.8,0l0,0l0,0l0,0l0,0c-0.6,0-1.2,0-1.8,0H295z"/>
	<path class="st1" d="M274,40.3c-0.6,0-1.2,0-1.8,0l0,0l0,0l0,0l0,0c-0.6,0-1.2,0-1.8,0H274z"/>
	<path class="st1" d="M253.1,40.3c-0.6,0-1.2,0-1.8,0l0,0l0,0l0,0l0,0c-0.6,0-1.2,0-1.8,0H253.1z"/>
	<path class="st1" d="M232.2,40.3c-0.6,0-1.2,0-1.8,0l0,0l0,0l0,0l0,0c-0.6,0-1.2,0-1.8,0H232.2z"/>
	<path class="st1" d="M211.3,40.3c-0.6,0-1.2,0-1.8,0l0,0l0,0l0,0l0,0c-0.6,0-1.2,0-1.8,0H211.3z"/>
	<path class="st1" d="M190.3,40.3c-0.6,0-1.2,0-1.8,0l0,0l0,0l0,0l0,0c-0.6,0-1.2,0-1.8,0H190.3z"/>
	<path class="st1" d="M169.4,40.3c-0.6,0-1.2,0-1.8,0l0,0l0,0l0,0l0,0c-0.6,0-1.2,0-1.8,0H169.4z"/>
	<path class="st1" d="M148.5,40.3c-0.6,0-1.2,0-1.8,0l0,0l0,0l0,0l0,0c-0.6,0-1.2,0-1.8,0H148.5z"/>
	<path class="st1" d="M127.6,40.3c-0.6,0-1.2,0-1.8,0l0,0l0,0l0,0l0,0c-0.6,0-1.2,0-1.8,0H127.6z"/>
	<path class="st1" d="M125.4,40.3c0.2-1,0.4-2.1,0.4-3.2v-0.6l0,0v-7.3c-2.8-1.5-6.6-2.4-10.4-2.4l0,0l0,0l0,0l0,0
		c-3.9,0-7.7,0.8-10.5,2.4v7.3l0,0v0.6c0,1.1,0.1,2.2,0.4,3.2H125.4z"/>
	<path class="st1" d="M104.5,40.3c0.2-1,0.4-2.1,0.4-3.2v-0.6l0,0v-7.3c-2.8-1.5-6.6-2.4-10.4-2.4l0,0l0,0l0,0l0,0
		c-3.9,0-7.7,0.8-10.5,2.4v7.3l0,0v0.6c0,1.1,0.1,2.2,0.4,3.2H104.5z"/>
	<path class="st1" d="M83.5,40.3c0.2-1,0.4-2.1,0.4-3.2v-0.6l0,0v-7.3c-2.8-1.5-6.6-2.4-10.4-2.4l0,0l0,0l0,0l0,0
		c-3.9,0-7.7,0.8-10.5,2.4v7.3l0,0v0.6c0,1.1,0.1,2.2,0.4,3.2H83.5z"/>
	<path class="st1" d="M62.6,40.3c0.2-1,0.4-2.1,0.4-3.2v-0.6l0,0v-7.3c-2.8-1.5-6.6-2.4-10.4-2.4l0,0l0,0l0,0l0,0
		c-3.9,0-7.7,0.8-10.5,2.4v7.3l0,0v0.6c0,1.1,0.1,2.2,0.4,3.2H62.6z"/>
	<path class="st1" d="M115.3,26.9c6.3-4.6,10.4-9.7,10.4-16.5V9.8l0,0V2.5c-2.8-1.5-6.6-2.3-10.4-2.3l0,0l0,0l0,0l0,0
		c-3.9,0-7.7,0.8-10.5,2.3v7.3l0,0v0.6C104.9,17.2,109,22.3,115.3,26.9L115.3,26.9z"/>
	<path class="st1" d="M94.4,26.9c6.3-4.6,10.4-9.7,10.4-16.5V9.8l0,0V2.5c-2.7-1.5-6.6-2.3-10.4-2.3l0,0l0,0l0,0l0,0
		c-3.9,0-7.7,0.8-10.5,2.3v7.3l0,0v0.6C84,17.2,88.1,22.3,94.4,26.9L94.4,26.9z"/>
	<path class="st1" d="M73.5,26.9c6.3-4.6,10.4-9.7,10.4-16.5V9.8l0,0V2.5C81.1,1,77.3,0.2,73.5,0.2l0,0l0,0l0,0l0,0
		C69.6,0.2,65.8,1,63,2.5v7.3l0,0v0.6C63.1,17.2,67.1,22.3,73.5,26.9L73.5,26.9z"/>
	<path class="st1" d="M52.5,26.9c6.3-4.6,10.4-9.7,10.4-16.5V9.8l0,0V2.5C60.2,1,56.4,0.2,52.5,0.2l0,0l0,0l0,0l0,0
		C48.6,0.2,44.8,1,42,2.5v7.3l0,0v0.6C42.2,17.2,46.2,22.3,52.5,26.9L52.5,26.9z"/>
	<path class="st1" d="M104.8,40.3c6.3-4.6,10.4-9.7,10.5-16.5v-0.6l0,0v-7.3c-2.8-1.5-6.6-2.3-10.5-2.3l0,0l0,0l0,0l0,0
		c-3.8,0-7.7,0.8-10.4,2.3v7.3l0,0v0.6C94.5,30.5,98.5,35.7,104.8,40.3L104.8,40.3z"/>
	<path class="st1" d="M83.9,40.3c6.3-4.6,10.4-9.7,10.5-16.5v-0.6l0,0v-7.3c-2.8-1.5-6.6-2.3-10.5-2.3l0,0l0,0l0,0l0,0
		c-3.8,0-7.7,0.8-10.4,2.3v7.3l0,0v0.6C73.5,30.5,77.6,35.7,83.9,40.3L83.9,40.3z"/>
	<path class="st1" d="M63,40.3c6.3-4.6,10.4-9.7,10.5-16.5v-0.6l0,0v-7.3c-2.8-1.5-6.6-2.3-10.5-2.3l0,0l0,0l0,0l0,0
		c-3.8,0-7.7,0.8-10.4,2.3v7.3l0,0v0.6C52.6,30.5,56.7,35.7,63,40.3L63,40.3z"/>
	<path class="st1" d="M42.1,40.3c6.3-4.6,10.4-9.7,10.5-16.5v-0.6l0,0v-7.3c-2.8-1.5-6.6-2.3-10.5-2.3l0,0l0,0l0,0l0,0
		c-3.8,0-7.7,0.8-10.4,2.3v7.3l0,0v0.6C31.7,30.5,35.8,35.7,42.1,40.3L42.1,40.3z"/>
	<path class="st1" d="M41.7,40.3c0.2-1,0.4-2.1,0.4-3.2v-0.6l0,0v-7.3c-2.8-1.5-6.6-2.4-10.4-2.4l0,0l0,0l0,0l0,0
		c-3.9,0-7.7,0.8-10.5,2.4v7.3l0,0v0.6c0,1.1,0.1,2.2,0.4,3.2H41.7z"/>
	<path class="st1" d="M20.8,40.3c0.2-1,0.4-2.1,0.4-3.2v-0.6l0,0v-7.3c-2.8-1.5-6.6-2.4-10.4-2.4l0,0l0,0l0,0l0,0
		c-3.9,0-7.7,0.8-10.5,2.4v7.3l0,0v0.6c0,1.1,0.1,2.2,0.4,3.2H20.8z"/>
	<path class="st1" d="M31.6,26.9C37.9,22.3,42,17.2,42,10.4V9.8l0,0V2.5C39.3,1,35.4,0.2,31.6,0.2l0,0l0,0l0,0l0,0
		c-3.9,0-7.7,0.8-10.5,2.3v7.3l0,0v0.6C21.2,17.2,25.3,22.3,31.6,26.9L31.6,26.9z"/>
	<path class="st1" d="M10.7,26.9c6.3-4.6,10.4-9.7,10.4-16.5V9.8l0,0V2.5C18.4,1,14.5,0.2,10.7,0.2l0,0l0,0l0,0l0,0
		C6.8,0.2,3,1,0.2,2.5v7.3l0,0v0.6C0.3,17.2,4.4,22.3,10.7,26.9L10.7,26.9z"/>
	<path class="st1" d="M21.1,40.3c6.3-4.6,10.4-9.7,10.5-16.5v-0.6l0,0v-7.3c-2.8-1.5-6.6-2.3-10.5-2.3l0,0l0,0l0,0l0,0
		c-3.8,0-7.7,0.8-10.4,2.3v7.3l0,0v0.6C10.8,30.5,14.8,35.7,21.1,40.3L21.1,40.3z"/>
	<path class="st1" d="M106.6,40.3c-0.6,0-1.2,0-1.8,0l0,0l0,0l0,0l0,0c-0.6,0-1.2,0-1.8,0H106.6z"/>
	<path class="st1" d="M85.7,40.3c-0.6,0-1.2,0-1.8,0l0,0l0,0l0,0l0,0c-0.6,0-1.2,0-1.8,0H85.7z"/>
	<path class="st1" d="M64.8,40.3c-0.6,0-1.2,0-1.8,0l0,0l0,0l0,0l0,0c-0.6,0-1.2,0-1.8,0H64.8z"/>
	<path class="st1" d="M43.9,40.3c-0.6,0-1.2,0-1.8,0l0,0l0,0l0,0l0,0c-0.6,0-1.2,0-1.8,0H43.9z"/>
	<path class="st1" d="M22.9,40.3c-0.6,0-1.2,0-1.8,0l0,0l0,0l0,0l0,0c-0.6,0-1.2,0-1.8,0H22.9z"/>
	<path class="st2" d="M21.5,13.5c3.7,0.1,7.4,0.8,10.1,2.3c2.7-1.5,6.4-2.2,10.1-2.3c0-0.1,0-0.1,0-0.2C36.6,9.5,33,5.4,31.9,0.2
		c-0.2,0-0.4,0-0.7,0c-1.1,5.2-4.7,9.4-9.8,13.1C21.5,13.4,21.5,13.5,21.5,13.5L21.5,13.5z"/>
	<path class="st2" d="M0.6,13.5c3.7,0.1,7.4,0.8,10.1,2.3c2.7-1.5,6.4-2.2,10.1-2.3c0-0.1,0-0.1,0-0.2C15.7,9.5,12.1,5.4,11,0.2
		c-0.2,0-0.4,0-0.7,0C9.2,5.4,5.6,9.6,0.5,13.3C0.5,13.4,0.5,13.5,0.6,13.5L0.6,13.5z"/>
	<path class="st2" d="M63.3,13.5c3.7,0.1,7.4,0.8,10.1,2.3c2.7-1.5,6.4-2.2,10.1-2.3c0-0.1,0-0.1,0-0.2c-5.1-3.8-8.7-7.9-9.8-13.1
		c-0.2,0-0.4,0-0.7,0c-1.1,5.2-4.7,9.4-9.8,13.1C63.3,13.4,63.3,13.5,63.3,13.5L63.3,13.5z"/>
	<path class="st2" d="M42.4,13.5c3.7,0.1,7.4,0.8,10.1,2.3c2.7-1.5,6.4-2.2,10.1-2.3c0-0.1,0-0.1,0-0.2c-5.1-3.8-8.7-7.9-9.8-13.1
		c-0.2,0-0.4,0-0.7,0c-1.1,5.2-4.7,9.4-9.8,13.1C42.4,13.4,42.4,13.5,42.4,13.5L42.4,13.5z"/>
	<path class="st2" d="M105.2,13.5c3.7,0.1,7.4,0.8,10.1,2.3c2.7-1.5,6.4-2.2,10.1-2.3c0-0.1,0-0.1,0-0.2c-5.1-3.8-8.7-7.9-9.8-13.1
		c-0.2,0-0.4,0-0.7,0c-1.1,5.2-4.7,9.4-9.8,13.1C105.2,13.4,105.2,13.5,105.2,13.5L105.2,13.5z"/>
	<path class="st2" d="M84.3,13.5c3.7,0.1,7.4,0.8,10.1,2.3c2.7-1.5,6.4-2.2,10.1-2.3c0-0.1,0-0.1,0-0.2c-5.1-3.8-8.7-7.9-9.8-13.1
		c-0.2,0-0.4,0-0.7,0c-1.1,5.2-4.7,9.4-9.8,13.1C84.2,13.4,84.2,13.5,84.3,13.5L84.3,13.5z"/>
	<path class="st2" d="M147,13.5c3.7,0.1,7.4,0.8,10.1,2.3c2.7-1.5,6.4-2.2,10.1-2.3c0-0.1,0-0.1,0-0.2c-5.1-3.8-8.7-7.9-9.8-13.1
		c-0.2,0-0.4,0-0.7,0c-1.1,5.2-4.7,9.4-9.8,13.1C147,13.4,147,13.5,147,13.5L147,13.5z"/>
	<path class="st2" d="M126.1,13.5c3.7,0.1,7.4,0.8,10.1,2.3c2.7-1.5,6.4-2.2,10.1-2.3c0-0.1,0-0.1,0-0.2c-5.1-3.8-8.7-7.9-9.8-13.1
		c-0.2,0-0.4,0-0.7,0c-1.1,5.2-4.7,9.4-9.8,13.1C126.1,13.4,126.1,13.5,126.1,13.5L126.1,13.5z"/>
	<path class="st2" d="M188.9,13.5c3.7,0.1,7.4,0.8,10.1,2.3c2.7-1.5,6.4-2.2,10.1-2.3c0-0.1,0-0.1,0-0.2c-5.1-3.8-8.7-7.9-9.8-13.1
		c-0.2,0-0.4,0-0.7,0c-1.1,5.2-4.7,9.4-9.8,13.1C188.9,13.4,188.9,13.5,188.9,13.5L188.9,13.5z"/>
	<path class="st2" d="M168,13.5c3.7,0.1,7.4,0.8,10.1,2.3c2.7-1.5,6.4-2.2,10.1-2.3c0-0.1,0-0.1,0-0.2c-5.1-3.8-8.7-7.9-9.8-13.1
		c-0.2,0-0.4,0-0.7,0c-1.1,5.2-4.7,9.4-9.8,13.1C167.9,13.4,167.9,13.5,168,13.5L168,13.5z"/>
	<path class="st2" d="M230.7,13.5c3.7,0.1,7.4,0.8,10.1,2.3c2.7-1.5,6.4-2.2,10.1-2.3c0-0.1,0-0.1,0-0.2c-5.1-3.8-8.7-7.9-9.8-13.1
		c-0.2,0-0.4,0-0.7,0c-1.1,5.2-4.7,9.4-9.8,13.1C230.7,13.4,230.7,13.5,230.7,13.5L230.7,13.5z"/>
	<path class="st2" d="M209.8,13.5c3.7,0.1,7.4,0.8,10.1,2.3c2.7-1.5,6.4-2.2,10.1-2.3c0-0.1,0-0.1,0-0.2c-5.1-3.8-8.7-7.9-9.8-13.1
		c-0.2,0-0.4,0-0.7,0c-1.1,5.2-4.7,9.4-9.8,13.1C209.8,13.4,209.8,13.5,209.8,13.5L209.8,13.5z"/>
	<path class="st2" d="M272.6,13.5c3.7,0.1,7.4,0.8,10.1,2.3c2.7-1.5,6.4-2.2,10.1-2.3c0-0.1,0-0.1,0-0.2c-5.1-3.8-8.7-7.9-9.8-13.1
		c-0.2,0-0.4,0-0.7,0c-1.1,5.2-4.7,9.4-9.8,13.1C272.6,13.4,272.6,13.5,272.6,13.5L272.6,13.5z"/>
	<path class="st2" d="M251.7,13.5c3.7,0.1,7.4,0.8,10.1,2.3c2.7-1.5,6.4-2.2,10.1-2.3c0-0.1,0-0.1,0-0.2c-5.1-3.8-8.7-7.9-9.8-13.1
		c-0.2,0-0.4,0-0.7,0c-1.1,5.2-4.7,9.4-9.8,13.1C251.6,13.4,251.6,13.5,251.7,13.5L251.7,13.5z"/>
	<path class="st2" d="M314.4,13.5c3.7,0.1,7.4,0.8,10.1,2.3c2.7-1.5,6.4-2.2,10.1-2.3c0-0.1,0-0.1,0-0.2c-5.1-3.8-8.7-7.9-9.8-13.1
		c-0.2,0-0.4,0-0.7,0c-1.1,5.2-4.7,9.4-9.8,13.1C314.4,13.4,314.4,13.5,314.4,13.5L314.4,13.5z"/>
	<path class="st2" d="M293.5,13.5c3.7,0.1,7.4,0.8,10.1,2.3c2.7-1.5,6.4-2.2,10.1-2.3c0-0.1,0-0.1,0-0.2c-5.1-3.8-8.7-7.9-9.8-13.1
		c-0.2,0-0.4,0-0.7,0c-1.1,5.2-4.7,9.4-9.8,13.1C293.5,13.4,293.5,13.5,293.5,13.5L293.5,13.5z"/>
	<path class="st2" d="M356.3,13.5c3.7,0.1,7.4,0.8,10.1,2.3c2.7-1.5,6.4-2.2,10.1-2.3c0-0.1,0-0.1,0-0.2c-5.1-3.8-8.7-7.9-9.8-13.1
		c-0.2,0-0.4,0-0.7,0c-1.1,5.2-4.7,9.4-9.8,13.1C356.3,13.4,356.3,13.5,356.3,13.5L356.3,13.5z"/>
	<path class="st2" d="M335.4,13.5c3.7,0.1,7.4,0.8,10.1,2.3c2.7-1.5,6.4-2.2,10.1-2.3c0-0.1,0-0.1,0-0.2c-5.1-3.8-8.7-7.9-9.8-13.1
		c-0.2,0-0.4,0-0.7,0c-1.1,5.2-4.7,9.4-9.8,13.1C335.3,13.4,335.3,13.5,335.4,13.5L335.4,13.5z"/>
	<path class="st2" d="M398.1,13.5c3.7,0.1,7.4,0.8,10.1,2.3c2.7-1.5,6.4-2.2,10.1-2.3c0-0.1,0-0.1,0-0.2c-5.1-3.8-8.7-7.9-9.8-13.1
		c-0.3,0-0.5,0-0.7,0c-1.1,5.2-4.7,9.4-9.8,13.1C398.1,13.4,398.1,13.5,398.1,13.5L398.1,13.5z"/>
	<path class="st2" d="M377.2,13.5c3.7,0.1,7.4,0.8,10.1,2.3c2.7-1.5,6.4-2.2,10.1-2.3c0-0.1,0-0.1,0-0.2c-5.1-3.8-8.7-7.9-9.8-13.1
		c-0.3,0-0.5,0-0.7,0c-1.1,5.2-4.7,9.4-9.8,13.1C377.2,13.4,377.2,13.5,377.2,13.5L377.2,13.5z"/>
	<path class="st2" d="M440,13.5c3.7,0.1,7.4,0.8,10.1,2.3c2.7-1.5,6.4-2.2,10.1-2.3c0-0.1,0-0.1,0-0.2c-5.1-3.8-8.7-7.9-9.8-13.1
		c-0.3,0-0.5,0-0.7,0c-1.1,5.2-4.7,9.4-9.8,13.1C440,13.4,440,13.5,440,13.5L440,13.5z"/>
	<path class="st2" d="M419.1,13.5c3.7,0.1,7.4,0.8,10.1,2.3c2.7-1.5,6.4-2.2,10.1-2.3c0-0.1,0-0.1,0-0.2c-5.1-3.8-8.7-7.9-9.8-13.1
		c-0.3,0-0.5,0-0.7,0c-1.1,5.2-4.7,9.4-9.8,13.1C419,13.4,419.1,13.5,419.1,13.5L419.1,13.5z"/>
	<path class="st2" d="M481.9,13.5c3.7,0.1,7.4,0.8,10.1,2.3c2.7-1.5,6.4-2.2,10.1-2.3c0-0.1,0-0.1,0-0.2c-5.1-3.8-8.7-7.9-9.8-13.1
		c-0.3,0-0.5,0-0.7,0c-1.1,5.2-4.7,9.4-9.8,13.1C481.8,13.4,481.9,13.5,481.9,13.5L481.9,13.5z"/>
	<path class="st2" d="M460.9,13.5c3.7,0.1,7.4,0.8,10.1,2.3c2.7-1.5,6.4-2.2,10.1-2.3c0-0.1,0-0.1,0-0.2c-5.1-3.8-8.7-7.9-9.8-13.1
		c-0.3,0-0.5,0-0.7,0c-1.1,5.2-4.7,9.4-9.8,13.1C460.9,13.4,460.9,13.5,460.9,13.5L460.9,13.5z"/>
	<path class="st2" d="M523.7,13.5c3.7,0.1,7.4,0.8,10.1,2.3c2.7-1.5,6.4-2.2,10.1-2.3c0-0.1,0-0.1,0-0.2c-5.1-3.8-8.7-7.9-9.8-13.1
		c-0.3,0-0.5,0-0.7,0c-1.1,5.2-4.7,9.4-9.8,13.1C523.7,13.4,523.7,13.5,523.7,13.5L523.7,13.5z"/>
	<path class="st2" d="M502.8,13.5c3.7,0.1,7.4,0.8,10.1,2.3c2.7-1.5,6.4-2.2,10.1-2.3c0-0.1,0-0.1,0-0.2c-5.1-3.8-8.7-7.9-9.8-13.1
		c-0.3,0-0.5,0-0.7,0c-1.1,5.2-4.7,9.4-9.8,13.1C502.7,13.4,502.8,13.5,502.8,13.5L502.8,13.5z"/>
	<path class="st2" d="M565.6,13.5c3.7,0.1,7.4,0.8,10.1,2.3c2.7-1.5,6.4-2.2,10.1-2.3c0-0.1,0-0.1,0-0.2c-5.1-3.8-8.7-7.9-9.8-13.1
		c-0.3,0-0.5,0-0.7,0c-1.1,5.2-4.7,9.4-9.8,13.1C565.5,13.4,565.6,13.5,565.6,13.5L565.6,13.5z"/>
	<path class="st2" d="M544.6,13.5c3.7,0.1,7.4,0.8,10.1,2.3c2.7-1.5,6.4-2.2,10.1-2.3c0-0.1,0-0.1,0-0.2c-5.1-3.8-8.7-7.9-9.8-13.1
		c-0.3,0-0.5,0-0.7,0c-1.1,5.2-4.7,9.4-9.8,13.1C544.6,13.4,544.6,13.5,544.6,13.5L544.6,13.5z"/>
	<path class="st2" d="M607.4,13.5c3.7,0.1,7.4,0.8,10.1,2.3c2.7-1.5,6.4-2.2,10.1-2.3c0-0.1,0-0.1,0-0.2c-5.1-3.8-8.7-7.9-9.8-13.1
		c-0.3,0-0.5,0-0.7,0c-1.1,5.2-4.7,9.4-9.8,13.1C607.4,13.4,607.4,13.5,607.4,13.5L607.4,13.5z"/>
	<path class="st2" d="M586.5,13.5c3.7,0.1,7.4,0.8,10.1,2.3c2.7-1.5,6.4-2.2,10.1-2.3c0-0.1,0-0.1,0-0.2c-5.1-3.8-8.7-7.9-9.8-13.1
		c-0.3,0-0.5,0-0.7,0c-1.1,5.2-4.7,9.4-9.8,13.1C586.4,13.4,586.5,13.5,586.5,13.5L586.5,13.5z"/>
	<path class="st2" d="M649.3,13.5c3.7,0.1,7.4,0.8,10.1,2.3c2.7-1.5,6.4-2.2,10.1-2.3c0-0.1,0-0.1,0-0.2c-5.1-3.8-8.7-7.9-9.8-13.1
		c-0.3,0-0.5,0-0.7,0c-1.1,5.2-4.7,9.4-9.8,13.1C649.2,13.4,649.3,13.5,649.3,13.5L649.3,13.5z"/>
	<path class="st2" d="M628.3,13.5c3.7,0.1,7.4,0.8,10.1,2.3c2.7-1.5,6.4-2.2,10.1-2.3c0-0.1,0-0.1,0-0.2c-5.1-3.8-8.7-7.9-9.8-13.1
		c-0.3,0-0.5,0-0.7,0c-1.1,5.2-4.7,9.4-9.8,13.1C628.3,13.4,628.3,13.5,628.3,13.5L628.3,13.5z"/>
	<path class="st2" d="M691.1,13.5c3.8,0.1,7.4,0.8,10.1,2.3c2.7-1.5,6.4-2.2,10.1-2.3c0-0.1,0-0.1,0-0.2c-5.1-3.8-8.7-7.9-9.8-13.1
		c-0.3,0-0.5,0-0.7,0c-1.1,5.2-4.7,9.4-9.8,13.1C691.1,13.4,691.1,13.5,691.1,13.5L691.1,13.5z"/>
	<path class="st2" d="M670.2,13.5c3.8,0.1,7.4,0.8,10.1,2.3c2.7-1.5,6.4-2.2,10.1-2.3c0-0.1,0-0.1,0-0.2c-5.1-3.8-8.7-7.9-9.8-13.1
		c-0.3,0-0.5,0-0.7,0c-1.1,5.2-4.7,9.4-9.8,13.1C670.1,13.4,670.2,13.5,670.2,13.5L670.2,13.5z"/>
	<path class="st2" d="M733,13.5c3.8,0.1,7.4,0.8,10.1,2.3c2.7-1.5,6.4-2.2,10.1-2.3c0-0.1,0-0.1,0-0.2c-5.1-3.8-8.7-7.9-9.8-13.1
		c-0.3,0-0.5,0-0.7,0c-1.1,5.2-4.7,9.4-9.8,13.1C732.9,13.4,733,13.5,733,13.5L733,13.5z"/>
	<path class="st2" d="M712,13.5c3.8,0.1,7.4,0.8,10.1,2.3c2.7-1.5,6.4-2.2,10.1-2.3c0-0.1,0-0.1,0-0.2c-5.1-3.8-8.7-7.9-9.8-13.1
		c-0.3,0-0.5,0-0.7,0c-1.1,5.2-4.7,9.4-9.8,13.1C712,13.4,712,13.5,712,13.5L712,13.5z"/>
	<path class="st2" d="M774.8,13.5c3.8,0.1,7.4,0.8,10.1,2.3c2.7-1.5,6.4-2.2,10.1-2.3c0-0.1,0-0.1,0-0.2c-5.1-3.8-8.7-7.9-9.8-13.1
		c-0.3,0-0.5,0-0.7,0c-1.1,5.2-4.7,9.4-9.8,13.1C774.8,13.4,774.8,13.5,774.8,13.5L774.8,13.5z"/>
	<path class="st2" d="M753.9,13.5c3.8,0.1,7.4,0.8,10.1,2.3c2.7-1.5,6.4-2.2,10.1-2.3c0-0.1,0-0.1,0-0.2c-5.1-3.8-8.7-7.9-9.8-13.1
		c-0.3,0-0.5,0-0.7,0c-1.1,5.2-4.7,9.4-9.8,13.1C753.8,13.4,753.9,13.5,753.9,13.5L753.9,13.5z"/>
	<path class="st3" d="M83.9,9.8V2.5C81.2,1,77.5,0.3,73.8,0.2c1.1,5.2,4.7,9.4,9.8,13.1C83.8,12.2,83.9,11,83.9,9.8L83.9,9.8z"/>
	<path class="st4" d="M157.2,15.8v7.3v0.6c0,1,0.1,2,0.3,2.9c5.1-3.8,8.7-7.9,9.8-13.1C163.5,13.6,159.8,14.4,157.2,15.8L157.2,15.8
		z"/>
	<path class="st5" d="M283,0.2c1.1,5.2,4.7,9.4,9.8,13.1c0.2-1.1,0.3-2.3,0.3-3.5V2.5C290.5,1,286.8,0.3,283,0.2L283,0.2z"/>
	<path class="st4" d="M366,26.9c-1.1,5.1-4.7,9.3-9.8,13.1c-0.2-1.1-0.3-2.2-0.3-3.5v-7.3C358.6,27.7,362.3,27,366,26.9L366,26.9z"
		/>
	<path class="st4" d="M470.7,0.2c-1.1,5.2-4.6,9.4-9.8,13.1c-0.2-1.1-0.3-2.3-0.3-3.5V2.5C463.3,1,467,0.3,470.7,0.2L470.7,0.2z"/>
	<path class="st5" d="M586.1,29v10.2c0,0.3,0.1,0.5,0.1,0.7c5.3-3.9,8.7-7.9,9.8-13.1C592.4,26.8,588.8,27.6,586.1,29L586.1,29z"/>
	<path class="st3" d="M648.9,2.5v7.3v0.6c0,1-0.1,2-0.3,2.9c-5.2-3.8-8.7-7.9-9.8-13.1C642.5,0.3,646.2,1,648.9,2.5L648.9,2.5z"/>
	<path class="st6" d="M523.7,13.3c1.1,5.2,4.7,9.3,9.8,13.1c0.2-1.1,0.3-2.3,0.3-3.5v-7.3C531.1,14.2,527.4,13.4,523.7,13.3
		L523.7,13.3z"/>
	<path class="st4" d="M732.3,13.5c-1.1,5.2-4.7,9.4-9.8,13.1c-0.2-1.1-0.3-2.3-0.3-3.5v-7.3C724.8,14.4,728.5,13.6,732.3,13.5
		L732.3,13.5z"/>
	<path class="st7" d="M292.8,40.3L292.8,40.3c-0.5,0-0.9,0-1.4,0H292.8z"/>
	<path class="st7" d="M670.2,40.3L670.2,40.3h1.4C671.1,40.3,670.7,40.3,670.2,40.3L670.2,40.3z"/>
	<path class="st7" d="M62.6,40.3L62.6,40.3c-0.5,0-0.9,0-1.4,0H62.6z"/>
	<path class="st3" d="M439.6,29.2v7.3v0.6c0,1-0.1,2-0.3,3c-5.3-3.9-8.7-7.9-9.8-13.1C433.3,27,437,27.7,439.6,29.2L439.6,29.2z"/>
	<path class="st6" d="M240.5,26.9c-1.1,5.1-4.7,9.3-9.8,13.1c-0.2-1.1-0.3-2.2-0.3-3.5v-7.3C233.1,27.7,236.8,27,240.5,26.9
		L240.5,26.9z"/>
</g>
</svg>
