<?xml version="1.0" encoding="utf-8"?>
<!-- Generator: Adobe Illustrator 21.1.0, SVG Export Plug-In . SVG Version: 6.00 Build 0)  -->
<svg version="1.1" id="Слой_1" xmlns="http://www.w3.org/2000/svg" xmlns:xlink="http://www.w3.org/1999/xlink" x="0px" y="0px"
	 viewBox="0 0 600 300" style="enable-background:new 0 0 600 300;" xml:space="preserve">
<style type="text/css">
	.st0{fill:#02458A;}
	.st1{fill:#FFFFFF;}
	.st2{fill:#A5C846;}
</style>
<g>
	<g>
		<path class="st0" d="M172.4,92.5l-0.9-10.9l-9.8-4.7c-1.1-0.5-26.1-12.3-57.3-12.3c-31.1,0-56.2,11.8-57.3,12.3l-9.9,4.7
			l-0.9,10.9c-0.3,3.7-2.8,36.5-2.2,54.8c0.4,11.6,5.9,51.9,60.8,83.3l9.4,5.4l9.4-5.4c54.9-31.5,60.4-71.8,60.8-83.4
			C175.2,129,172.7,96.2,172.4,92.5z"/>
		<path class="st1" d="M169.4,92.7l-0.8-9.2l-8.3-3.9c-1-0.5-25.5-12-56-12c-30.5,0-54.9,11.5-56,12l-8.3,3.9l-0.8,9.2
			c-0.1,1.4-2.8,35.7-2.2,54.4c0.4,11.2,5.7,50.1,59.3,80.8l7.9,4.5l7.9-4.5c53.6-30.7,58.9-69.6,59.3-80.8
			C172.2,128.5,169.5,94.2,169.4,92.7z"/>
		<path class="st0" d="M167.3,92.9l-0.7-8l-7.2-3.4c-1-0.5-25.1-11.8-55.1-11.8c-30,0-54.1,11.3-55.1,11.8L42,84.9l-0.7,8
			c-0.1,1.4-2.8,35.5-2.2,54.2c0.4,10.9,5.6,48.9,58.3,79.1l6.9,4l6.9-4c52.6-30.2,57.9-68.2,58.3-79.1
			C170.1,128.4,167.4,94.3,167.3,92.9z"/>
		<path class="st1" d="M156.5,93.7l-0.1-1.8l-1.6-0.7c-0.2-0.1-22.7-10.8-50.4-10.8c-27.8,0-50.2,10.7-50.4,10.8L52.4,92l-0.1,1.8
			c0,0.3-2.8,34.8-2.2,53c0.3,9.5,5,42.7,52.8,70l1.5,0.9l1.5-0.9c47.8-27.4,52.5-60.5,52.8-70C159.3,128.6,156.5,94.1,156.5,93.7z"
			/>
		<path class="st0" d="M155,93.9l-0.1-0.9l-0.8-0.4c-0.2-0.1-22.6-10.6-49.8-10.6c-27.2,0-49.5,10.5-49.8,10.6L53.8,93l-0.1,0.9
			c0,0.3-2.8,34.7-2.2,52.8c0.3,9.3,5,41.8,52,68.8l0.8,0.4l0.8-0.4c47.1-27,51.7-59.5,52-68.8C157.7,128.6,155,94.2,155,93.9z"/>
		<path class="st1" d="M104.4,214.1c-38-21.8-50.7-49.3-51.3-67.5C52.5,128.4,55.3,94,55.3,94s22-10.5,49.1-10.5S153.5,94,153.5,94
			s2.8,34.4,2.2,52.6C155,164.8,142.3,192.3,104.4,214.1L104.4,214.1z"/>
		<path class="st2" d="M117.7,142.7c0,0,0.1,0.1,0.1,0.1c2.6,3.2,3.8,6.6,4.5,10.5c0.1,0,0.2-0.1,0.3-0.1c0.6-0.3,1.2-0.6,1.8-0.9
			c0.1-0.1,0.2-0.1,0.4-0.2c-1.1-3.8,0.7-5.4,1.6-5.9c1.6-1,3.9-0.6,5.2,0.8c0.4,0.5,0.6,0.8,0.7,1.1c0,0.1,0.2,0.2,0.7,0.4
			c0.3,0.1,0.7,0.2,1,0.2c2,0.2,3.8,0.8,5.2,4.7l0,0c0.3,1,1.4,4.1-0.8,5.7c-0.5,0.4-1.2,0.5-1.9,0.3c-0.6-0.2-1-0.3-1.3-0.4
			c-0.7-0.2-0.7-0.2-2-0.1l-0.3,0c-0.1,0-0.2,0-0.3,0c-0.3,0.3-0.6,0.7-0.9,1.1c-1.1,1.5-2.2,3-3.3,4.5c-0.2,0.3-0.5,0.6-0.9,0.7
			c-0.6,0.9-1.3,1.4-1.8,1.9c-0.4,0.3-0.7,0.5-1,0.8l-0.3,0.3c-1.1,1.2-3.3,3.8-6.7,1.8c-2.7-1.5-4.4-4.9-5.9-7.8
			c-0.6-1.3-1.3-2.5-1.8-3.3c-0.2,0-0.3,0-0.4,0c-1.8,0.3-2.5-0.5-3.5-1.7c-0.3-0.3-0.6-0.6-0.8-0.9c-0.6,0.9-1.2,1.6-1.9,2.3
			c-0.2,0.2-0.5,0.3-0.7,0.4c-0.7,0.2-1.4,0.5-2.2,0.7c-0.7,0.2-1.4,0.5-2.1,0.7c-0.1,0-0.2,0.1-0.3,0.1c-0.4,0.5-0.9,0.9-1.3,1.3
			l-0.6,0.5c-1,0.8-1,0.8-1.2,2.8c0,0.2-0.1,0.3-0.1,0.4c0.1,0.2,0.2,0.5,0.3,0.8c0.4,2.9,0.5,3.8,0.2,6.9c-0.3,2.7-1,4.9-1.4,6.4
			l-0.2,0.5c-0.2,0.7-0.4,1.1-0.5,1.9c-0.6,4-0.4,4.9-0.4,5c0.3,0.4,0.7,1,0.9,1.9c0,0.1,0,0.2,0,0.3c0,0.2,0,0.5,0.1,0.7
			c0,0.3,0.1,0.7,0.1,1c0,0.6-0.2,1.2-0.6,1.6c0,0.5-0.1,1.1-0.5,1.8c-0.6,1-1.5,1.7-2.5,1.9c-0.2,0-0.5,0.1-0.7,0.1
			c-1.2,0-2.4-0.5-3.5-1.4c-0.3-0.3-0.5-0.5-0.7-0.7c-0.6-0.6-0.9-1-1.6-1.3c-0.3-0.2-0.5-0.2-0.7-0.3c-0.4-0.1-0.8-0.3-1.3-0.6
			c-0.6-0.3-1.2-0.8-1.8-1.4c-1.4-1.3-2.2-2.6-2.6-4.1c-0.4-1.8-0.2-3.4,0.7-4.5c0.8-0.9,1.9-1.4,3.3-1.3c0.2,0,0.4,0.1,0.6,0.1
			c0.7,0.2,1.2,0.5,1.7,0.7c0.1,0,0.1,0,0.2,0c0-0.1,0-0.1,0-0.2c0-0.2,0-0.3,0-0.5c-0.3-0.5-0.5-1.2-0.9-2.6
			c-0.6-2.3-1.1-5.2-0.3-7.2c0.1-0.3,0.3-0.5,0.4-0.7c0-0.1,0-0.1,0-0.2c0-0.6,0.1-1.2,0.1-1.9l0-0.4c0.1-0.8,0.2-1.6,0.4-2.4
			c0.1-0.5,0.2-1,0.3-1.5c0-0.4,0-0.6-0.2-1.1c-0.2-0.5-0.5-1.3-0.5-2.4c0-1.2,0.1-2,0.4-2.6c0,0,0,0,0-0.1c-0.3-1.7,0-3.9,0.6-5.5
			c-0.2-0.3-0.3-0.6-0.3-0.9c-0.3-2.8,1.1-4.5,2.7-5.6c0-0.3,0-0.5,0.1-0.8c0.4-1,1.1-2,2-2.7c-15.3,1.8-28,5.9-35.2,8.7
			c2.6,18,16.2,42.6,50.8,62.5c34.7-19.9,48.3-44.5,50.8-62.5C147.6,148.7,134,144.4,117.7,142.7z M110,194.6
			c-1.7,1.7-4,2.7-6.4,2.7c-0.1,0-0.1,0-0.2,0c-5-0.1-9-4.4-8.9-9.7c0.1-5.2,4.2-9.4,9.1-9.4c0.1,0,0.1,0,0.2,0c5,0.1,9.1,4.4,9,9.7
			C112.7,190.5,111.7,192.9,110,194.6z"/>
		<path class="st0" d="M103.8,179.8c-4.2-0.1-7.6,3.4-7.7,7.8c-0.1,4.4,3.2,8,7.4,8.1c4.2,0.1,7.6-3.4,7.7-7.8
			C111.3,183.6,108,179.9,103.8,179.8z"/>
		<path class="st0" d="M137.3,154.2c-1.4-4.1-2.9-2.9-5-3.7c-2-0.7-1.6-1.3-2.2-2c-1.2-1.3-4.7-1-3.1,3.6c0.2,0.7,0.2,1,1,1.2
			c0.8,0.2,1.1,0.1,1.9,0c-0.2,0.1-0.4,0.2-0.6,0.3c-0.4,0.1-0.8,0-1.2-0.1c-0.3,0-0.6-0.1-0.7-0.1c-1.3,0.6-2.6,1.2-3.9,1.8
			c-0.7,0.2-1.5,0.5-1.8,1.1c-0.6,0.9,0.2,1.3,0.9,1.7c2.3,1.4,2,3.3,0.6,2.7c-0.8-0.4-1.7-2.6-2-3.7c-0.8,0.5-1.7,1.1-2.5,1.6
			c-1.1,0.4-2.2,0.5-3.1-0.2c1-0.1,2.1-0.3,3.1-0.4c0.8-0.3,1.5-1.2,2.2-1.6c-0.6-4.7-1.5-8.6-4.4-12.2c-0.3-0.4-0.7-0.7-1.1-1.1
			c-0.6-0.5-0.5-0.5-1.3-0.2c-2.3,1-8.1,2.1-10.2,1c5.2-0.3,7.2-1.1,12-2.8c1.3-0.4,2.4-0.9,3.5-1.5c-2.9-0.7-5.3-1.5-7.6-3.5
			c-1.5-1.3-4.1-4.7-4.6-6.6c0.7,0.8,1.4,1.6,2.4,2.1c0.4,0.2,1,0.5,1.6,0.4c0.5-0.1,1.1-0.4,1.1-1c0.1-1.6-3.2-3.4-4.3-4.4
			c1.4,0.1,3.1,0.8,3.1-1.4c-0.9,0.1-2,0.2-2.9-0.3c2.4-1,2.8-0.8,3.2-2.5c0.2-0.8,0.1-0.7-0.3-1.2c-0.8-1.2-2.2-4.1-1.9-5.7
			c1.2,3.3,1.7,5.2,4.4,7.5c1.2,1,3.1,1.9,3.4,3.7c0.3-0.6,0.3-1.4,0.7-1.9c0.2,0.4,0.4,0.7,0.6,1.1c0.7,1.6,2,3.6,3.3,4.7
			c1.6,1.5,3.8,2.6,4.8,4.6c0.4,0.7,0.5,1.6,1.2,2c0.9,0.5,1.6-0.1,2.5,0c0.2-0.1,0.2-0.3,0.3-0.4c0.9,1.7,0.8,1.1,1.2,0.6
			c0-0.1,0.3-0.1,0.7-0.2c0.1-0.1,0.5-0.7,0.6-1.2c0-0.2-0.1-1.1-0.2-1.4c-0.3-1.9-1.6-1.9-3-1.9c-0.5,0-1,0-1.5-0.1
			c-2-0.3-1.6-3.4-3.6-6.3c-0.5-0.8-2.3-3.1-2.9-3.5c-1.1,0.4-2.1,0.8-3.2,1.1c1.2-0.6,3.8-2.1,4.5-3.1c-1.3-1.3-2.6-2.7-3.9-4
			c-0.7-0.8-1.2-1.4-1.9-2.1c-0.5-0.6-1.4-1.6-1.9-1.9c0.5,1.1,1,2,1.3,3.2c0.2,0.6,0.3,1.3,0.3,2c0.1,1,0,1.4-0.5,1.8
			c-0.3-0.1-0.6-0.2-0.9-0.3c0-1,0.1-2,0.2-3c-0.1-1.8-1.6-4.7-3.3-5.2c-0.5-0.2-0.9-0.2-1.3-0.4c-0.8-0.4-0.9-1.3-1.5-1.8
			c-0.6-0.6-1.1-1-1.8-1.5c-1.6-1-1.6-0.2-2.2-1.1c-0.5-0.7-1.1-1.3-1.5-1.9c-0.1,0.1-0.1,0.2-0.2,0.3c-0.2,0.4-0.2,0.6-0.6,0.9
			c0.1-1,0.2-1.9,0.3-2.9c0.6-0.8,1.4-1.5,2-2.4c2.3-3,2.4-4.8,2.5-8.7c-0.7,0.9-1.3,2-2.5,2.4c0.3-0.4,0.5-0.7,0.8-1.1
			c0.7-1,1-3,1-4.3c-0.8,1.2-1.5,2.5-2.9,2.9c0.3-0.6,0.6-1.2,0.9-1.8c-3.2,0.7-2.1,0.5-5.4,0.4c-2-0.1-3.4,0.6-4.5,1.5
			c-1,0.9-1.9,2.2-2.1,4.1c-0.2,1.8,0.1,4.3,0.7,5.4c0-0.2,0.1-0.4,0.2-0.6c0.1-0.5,0.2-1.1,0.5-1.5c-0.1,2.2-0.4,4.9,0.9,6.7
			c0.9,1.2,0.7,2.3,1.9,3.3c0.7,0.6,0.9,0.5,2.1,0.6c1.5,0,2.1-1.1,2.7-2.3c-0.9,2.4-0.4,2.1-2.4,3.1c0.9,0.5,1.6,1.1,2.5,1.6
			c1.8,1.3,4.9,4.4,5.3,6.9c-0.7-0.5-1.9-1.7-2.3-0.3c-0.4-0.8-0.7-1.7-1.1-2.4c-1.1-2.1-2.9-3.8-4.9-5.1c-0.6-0.4-1.5-0.7-2.1-1.2
			c-0.5-0.4-1.1-1.2-1.5-1.9c-0.3-0.5-0.5-1.1-0.7-1.6c0,0-0.5-0.1-1.1,0.1l0,0c0,0,0,0,0,0c-0.2,0.1-0.4,0.2-0.5,0.3
			c-0.9,0.9-2.3,2.3-3.4,3.4l0.4,0.2c0,0,0,0.1-0.1,0.1c-0.6,1.2-1.3,1.7-1.7,1.7c-0.4,0-2.1-0.6-4.2-0.6c-2.1,0-3.8,0.5-5,0.4
			c-0.9-0.1-2.9-0.3-4.1-0.2l-0.2,0c-0.9,0.1-1.4,0-1.7-0.1c-0.5-0.3-1.1-0.6-1.7-0.6c-0.3,0.1-1.7,0.7-2.5,1.3
			c-0.1,0.1-0.3,0.2-0.4,0.4c-0.2,0.3-1,1.9-0.4,2.1l0.1,0c0,0,0.1,0,0.1,0c0.1-0.1,0.3-0.2,0.5-0.5c0.2-0.3,0.4-0.5,0.5-0.7
			c0.1-0.1,0.2-0.2,0.3-0.2c0.1,0,0.1-0.1,0.1-0.1c0,0,0,0,0,0c0.2-0.1,0.3-0.1,0.3-0.1c0.1,0,0.3-0.1,0.4-0.1c0.3,0,0.6,0.1,1,0.4
			c-1.3-0.2-2.5,0.6-1.7,1.1c0.5-0.1,1.7,0.2,2.3,0.3c0.3,0,0.5,0.1,0.7,0.1c0.4,0,0.7,0,0.9-0.1c0.3-0.1,0.5-0.2,0.8-0.4l0,0
			c0,0,0.1,0,0.2-0.1c1-0.2,2,0.5,2,0.5s3.1,1.2,3.8,1.5c0.7,0.4,2.3,1.4,4.9,1.3c1.7-0.1,2.5-0.5,2.9-0.7c-0.5,0.4-1.4,1.1-1.9,1.1
			c0.5,0,2.1-0.2,3.1-0.7c0.5-0.3,0.8-0.3,1-0.3c1.2-3.4,2.4-6.5,3-7c-0.3,0.5-2.8,4.6-2.6,11.7c0,0.3,0,0.6,0,1
			c0,1.6,0.3,3.5,0.5,5c0.2,1.5,0.4,3.3,0.9,4.7c0.4,1,6.4,7.7,7.8,9.2c-0.2,1.4-4.8-0.8-6.8-5.4c-0.1-0.3-0.3-0.7-0.4-1
			c-0.1-0.2-0.1-0.4-0.2-0.6c-0.1-0.1-0.1-0.3-0.2-0.5c0.1,1.5,0.2,2.9,0.1,4.5c0,1.6-0.5,2.4-0.8,3.8c1.2,0.6,2.4,1.1,3.6,1.7
			c-1.4-0.6-2.7-1.3-4.3-0.7c-1.2,0.5-2.3,1.6-2.7,2.7c0.6-0.1,1.7-0.5,2.2,0c-2.1,1.1-5.2,2.2-4.9,5.4c0.5-1.1,0.5-1.7,1.8-2
			c0.8-0.2,2.7,0,3.2,0.4c-1.4,0.7-2.9,1.5-4.4,2.2c-0.6,1.1-1.3,3.8-1,5.7c0.4,0,0.9,0.1,1.3,0.1c-1.4,0.9-1.6,0.8-1.6,2.8
			c0,1.7,0.9,2,0.7,3.7c-0.1,1.1-0.6,2.6-0.7,3.9c-0.1,0.7-0.2,1.4-0.2,2.1c0,1.6-0.2,0.9-0.6,1.7c-0.6,1.5,0,4.3,0.4,5.9
			c0.9,3.6,1,1.2,0.9,3.6c0,2,0.3,1.7,1.4,2.9c0.3,0.3,0.8,0.7,1,1.1c-1.4-0.7-2.7-1.4-4.2-1.8c0.1,0.3,0.3,0.7,0.4,1
			c-1-0.6-1.7-1.3-3.3-1.9c-1.8-0.1-2.3,1.4-1.8,3.2c0.4,1.3,1.2,2.4,2,3.1c0.5,0.4,0.9,0.8,1.5,1.1c0.6,0.3,1.1,0.4,1.7,0.8
			c1.3,0.6,1.9,1.5,2.8,2.3c1,0.9,2.7,1.5,3.5,0c0.9-1.8-0.9-2.5-2.1-2.7c-1.4-0.3-2.5-1-2.5-2.6c0.1,0.1,0.1,0.2,0.2,0.4
			c0.1,0.3,0.3,0.8,0.6,1c0.4,0.4,0.8,0.6,1.5,0.6c1.5,0,2.1,0.2,3.1,1.1c0-0.6-0.1-1.1-0.2-1.7c-0.4-2-1.6,0-0.5-7.6
			c0.2-1.3,0.4-1.8,0.7-2.8c0.6-1.8,1.1-3.7,1.3-5.9c0.2-2.9,0.2-3.7-0.2-6.5c-0.9,0.2-1.8,0.4-2.7,0.5c-0.9,0-2.1-0.1-2.7-0.5
			c1.5-0.1,3.2,0,4.5-0.7c0.5-0.3,0.6-0.3,0.7-1c0.4-3.2,0.7-3,2.6-4.6c1.3-1.1,2.5-2.3,2.3-5c-0.1-2.1-1.5-3.1-2.8-4.2
			c1,0.9,2.1,1.7,3.1,2.6c0.3,0.7,0.4,1.5,0.3,2.5c-0.1,1-0.5,1.6-0.6,2.3c1.4-0.5,2.9-0.9,4.3-1.4c1-0.9,1.7-1.9,2.4-3.4
			c-1.3-1.3-5.9-5.6-6.4-7.3c3.3,0.5,6.6,0.9,9.8,1.8c1.6,0.4,3,0.9,4.4,1.4c1.1,0.4,2.8,1.2,3.8,1.8c-1.2-0.4-2.5-0.8-3.7-1.2
			c-1.4-0.5-10.3-2.9-11.6-2.9c1.4,0.4,3.1,1,4.5,1.5c1.4,0.5,2.7,1.2,4.1,1.9c1.3,0.8,2.6,1.5,3.7,2.3c0.9,0.7,2.8,2.1,3.2,2.9
			c-1.1-0.7-2.1-1.5-3.2-2.1c-3.4-1.9-6.9-3.5-10.6-4.9c1.7,2.3,3.4,4.7,5.4,6.8c1.1,1.2,1.1,1.1,1.6,1c0.3-0.1,0.8-0.1,1.9,0.1
			c0.6,0.1,1.3,0.2,1.9,0.6c-0.5-0.1-1.1-0.2-1.6-0.3c2.1,2.4,4,9,7.4,10.9c2.1,1.2,3.2-0.4,4.4-1.7c1.3-1.4,2.5-1.5,3.1-3.7
			c0.4-1.7,0.2-2.6,0-4.2c1,1.3,0.5,3.3,0.4,4.7c1.1-1.5,2.2-3,3.3-4.5c1.3-1.8,2.3-2.1,3.3-4.4c-0.2,0.8-0.4,1.6-0.6,2.4
			c2.6-0.3,1.9-0.3,4.5,0.5C138.1,156.9,137.6,155.2,137.3,154.2z M127.5,135.2c0.1-0.1,0.3,0,0.5,0.1c0.8,0.3,0.8,0.5,1.5,1.2
			c-0.3-0.2-0.3-0.3-1-0.3l-0.1,0C127.8,136,127.2,135.5,127.5,135.2z"/>
	</g>
	<g>
		<path class="st0" d="M536.3,125.7l-8.2,26.8l-6.6-26.8h-26.6h-5.2h-14.2v-20.3h-31.3L434,137.2v-11.8h-6.5c0.6-0.5,1.1-1,1.6-1.5
			c3.1-3.3,4.8-7.6,4.8-12.3c0-4.8-1.7-9-4.8-12.4c-3.2-3.4-7.4-5.2-12.2-5.2c-4.7,0-8.9,1.8-12.2,5.2c-3.2,3.3-4.8,7.6-4.8,12.3
			c0,4.7,1.7,8.9,4.8,12.2c0.5,0.6,1.1,1.1,1.7,1.5h-6.6v18.2c-3.3-12.2-12.7-19.6-25.7-19.6c-4.2,0-8.2,0.9-11.8,2.8v-1.4h-34.1v0
			h-66.6v-44h-34v88.9c0,0.1,0,0.3,0,0.4c0,0.6-0.1,1.1-0.2,1.5c-0.1,0.6-0.3,1.1-0.4,1.5c-0.5,1-1.2,1-2,1c-0.6,0-2.3-0.1-5.4-1.1
			v0c-3.5-1.1-7.8-2.5-10.8-3.5l-8.4-2.9l0,31.7l4.2,1.5c6.2,2.2,15.5,4.8,25,4.8c7.1,0,14.4-1.4,20.7-5.5
			c8.9-5.9,10.9-17.9,11.3-24.5c0.4,2.9,1.1,6.7,2.1,9.4c1.6,4.1,4,7.8,6.9,10.9c3,3.1,6.6,5.6,10.8,7.3c4.2,1.7,8.8,2.6,13.8,2.6
			c4.9,0,9.6-0.9,13.8-2.6c4.2-1.7,7.9-4.2,10.9-7.3c3-3.1,5.3-6.8,6.9-10.9c0.6-1.5,1.1-4.1,1.4-5.7l-0.1,24.2h34.1l0.1-41.9
			c0-4.4,1.9-4.4,2.6-4.4c0.5,0,2.2,0,2.2,4.4l-0.1,41.9h32.8h1.3h32.8l0.1-50.6h7.6v19c0,21.3,10.2,34,27.4,34
			c7,0,12.3-0.7,18.7-2.6l4.6-1.3v-32.1l-8.4,2.9c-3.6,1.2-5.5,1.4-6.1,1.4c-1.1,0-2.4,0-2.4-4l0.1-17.3h19.4v-4.8
			c5.2,21.7,11,46.4,11.9,51.1v0.2c0,0.5,0,1-0.1,1.4l-0.1,0.4v0.2c-0.4,2-1.1,2-2.2,2c-0.4,0-0.8,0-1.3-0.1l-7.3-1.1v31.2l4.9,1.2
			c4.4,1.1,8.2,1.6,11.6,1.6c3.4,0,6.5-0.5,9.4-1.5c1.7-0.5,5.9-2,9.8-6.3c0.2-0.2,0.4-0.5,0.6-0.7l0.3-0.3c0.1-0.1,0.1-0.1,0.2-0.2
			c1.8-2.3,3.3-5,4.3-8.1c6.1-15.8,28.3-81.6,29.2-84.4l2.8-8.4H536.3z"/>
		<g>
			<path class="st1" d="M257.9,85.3h-26.4v85c0,3.3-1,6.1-2.8,7.5c-1.2,1-2.7,1.3-4.5,1c-3.8-0.8-16.5-5.1-16.6-5.1l-3.4-1.1l0,23.7
				l1.7,0.6c5.9,2.1,14.7,4.6,23.7,4.6c6.5,0,13-1.3,18.6-4.9c9.1-5.9,9.7-20.2,9.7-24.4V85.3z"/>
			<path class="st1" d="M417,125.3c3.7,0,6.9-1.3,9.4-4c2.5-2.6,3.8-5.9,3.8-9.7c0-3.8-1.3-7.1-3.8-9.7c-2.5-2.7-5.7-4-9.4-4
				c-3.7,0-6.8,1.4-9.4,4c-2.5,2.6-3.8,5.9-3.8,9.7c0,3.7,1.3,7,3.8,9.6C410.1,123.9,413.3,125.3,417,125.3z"/>
			<rect x="403.7" y="129.2" class="st1" width="26.4" height="69.9"/>
			<path class="st1" d="M298.9,170c0,2.1-0.3,3.7-1,4.8c-0.2,0.3-0.7,1.1-2.5,1.1c-1.9,0-2.3-0.8-2.5-1.1c-0.7-1.1-1-2.7-1-4.8
				v-40.8h-26.6v40.9c0,4.3,0.7,9.3,2.2,13c1.4,3.7,3.5,6.9,6.1,9.6c2.6,2.7,5.8,4.9,9.5,6.4c3.7,1.5,7.8,2.3,12.4,2.3
				c4.4,0,8.6-0.8,12.3-2.3c3.7-1.5,7-3.7,9.6-6.4c2.6-2.7,4.7-6,6.1-9.7c1.4-3.7,2.2-8.7,2.2-12.9v-40.9h-26.6V170z"/>
			<path class="st1" d="M374.2,127.8c-5.9,0-11,2.1-15.6,6.3v-4.8h-26.4l-0.1,69.9h26.4l0.1-38.1c0-5.1,2.4-8.2,6.4-8.2
				c5.4,0,6,5.7,6,8.2l-0.1,38.1h26.4l0.1-45.3C397.4,137.8,388.5,127.8,374.2,127.8z"/>
			<path class="st1" d="M471.6,109.2H447l-10.4,32.5v6.8h8.9v22.8c0,19.2,8.6,30.1,23.6,30.1c6.6,0,11.6-0.7,17.6-2.4l1.8-0.5v-23.9
				l-3.4,1.2c-3,1-5.6,1.6-7.4,1.6c-4.1,0-6.2-2.6-6.2-7.8l0.1-21.1h19.4v-19h-19.4V109.2z"/>
			<path class="st1" d="M539.2,129.5l-11.4,37.3l-9.2-37.3h-24l0.8,3.1c0.1,0.6,14.2,59.2,15.4,65.6v0.6c0,0.7,0,1.4-0.1,2l0,0.3
				c-0.6,3.7-2.5,5.5-6,5.5c-0.5,0-1.2-0.1-1.9-0.2l-2.9-0.4v23.8l2,0.5c4.1,1,7.7,1.5,10.7,1.5c3,0,5.8-0.4,8.3-1.3
				c1.2-0.3,4.7-1.5,8-5.2c0.2-0.2,0.3-0.4,0.5-0.6l0.2-0.3c0.1-0.1,0.1-0.2,0.2-0.2c1.6-2,2.8-4.3,3.7-7
				c6-15.6,28.9-83.6,29.2-84.3l1.1-3.4H539.2z"/>
		</g>
		<g>
			<path class="st0" d="M255.4,87.8h-21.3v82.5c0,7.5-4.5,12.2-10.3,11c-4-0.8-16.9-5.2-16.9-5.2l0,18.3c11.8,4.3,28.6,7.4,40-0.1
				c8.8-5.8,8.5-21.6,8.5-22.3V87.8z"/>
			<path class="st0" d="M417,122.7c3,0,5.5-1.1,7.6-3.2c2-2.1,3.1-4.8,3.1-7.9c0-3.2-1-5.8-3.1-8c-2-2.1-4.6-3.2-7.6-3.2
				c-3,0-5.5,1.1-7.5,3.2c-2.1,2.2-3.1,4.8-3.1,7.9c0,3.1,1,5.7,3.1,7.9C411.5,121.7,414,122.7,417,122.7z"/>
			<polygon class="st0" points="406.2,196.6 427.6,196.6 427.6,131.8 406.3,131.8 			"/>
			<path class="st0" d="M301.4,170c0,2.6-0.5,4.6-1.4,6.2c-0.9,1.5-2.5,2.3-4.7,2.3c-2.2,0-3.8-0.8-4.7-2.3
				c-0.9-1.5-1.4-3.6-1.4-6.2v-38.2h-21.5v38.4c0,4,0.7,8.7,2,12c1.3,3.4,3.2,6.3,5.6,8.8c2.4,2.5,5.3,4.4,8.7,5.8
				c3.4,1.4,7.2,2.1,11.4,2.1c4.1,0,7.9-0.7,11.3-2.1c3.4-1.4,6.3-3.4,8.7-5.8c2.4-2.5,4.2-5.4,5.6-8.8c1.3-3.4,2-8.1,2-12v-38.4
				h-21.5V170z"/>
			<path class="st0" d="M374.2,130.4c-8.6,0-14.3,5.1-18.2,10.4v-9h-21.3l-0.1,64.8h21.3l0.1-35.5c0-7,3.8-10.8,9-10.8
				c5.1,0,8.5,3.8,8.5,10.8l-0.1,35.5h21.3l0.1-42.7C394.9,139.3,387.1,130.4,374.2,130.4z"/>
			<path class="st0" d="M469.1,111.7h-20.3l-9.7,30.4v3.9h8.9v25.3c0,17.3,7.4,27.6,21,27.6c6.5,0,11.2-0.7,16.9-2.3v-18.4
				c-3.1,1-5.9,1.7-8.2,1.7c-5.3,0-8.7-3.5-8.7-10.4l0-8.3l0-2.2V146h19.4v-13.9h-19.4V111.7z"/>
			<path class="st0" d="M541,132.1l-13.5,44.3l-11-44.3h-18.8c0,0,14.5,60.5,15.5,66v0.8c0,0.9,0,1.7-0.1,2.4c0,0,0,0.1,0,0.1
				c-0.7,5.2-3.9,7.8-8.6,7.8c-0.7,0-1.4-0.1-2.2-0.2v18.8c3.7,0.9,7.1,1.4,10.1,1.4c2.8,0,5.3-0.4,7.6-1.2c0.9-0.2,3.9-1.2,6.9-4.5
				c0.2-0.2,0.4-0.5,0.6-0.7c0.1-0.1,0.1-0.1,0.2-0.2c1.4-1.7,2.5-3.9,3.3-6.3c6.1-15.6,29.2-84.3,29.2-84.3H541z"/>
		</g>
	</g>
</g>
</svg>
