<?xml version="1.0" encoding="utf-8"?>
<!-- Generator: Adobe Illustrator 22.0.1, SVG Export Plug-In . SVG Version: 6.00 Build 0)  -->
<svg version="1.1" id="Слой_1" xmlns="http://www.w3.org/2000/svg" xmlns:xlink="http://www.w3.org/1999/xlink" x="0px" y="0px"
	 viewBox="0 0 534.9 171.4" style="enable-background:new 0 0 534.9 171.4;" xml:space="preserve">
<style type="text/css">
	.st0{fill:#02458A;}
	.st1{fill:#FFFFFF;}
	.st2{fill:#A5C846;}
</style>
<g>
	<g>
		<path class="st0" d="M138.4,27.9L137.5,17l-9.8-4.7C126.6,11.8,101.6,0,70.4,0C39.3,0,14.2,11.8,13.1,12.3L3.2,17L2.3,27.9
			C2,31.6-0.5,64.4,0.1,82.7C0.5,94.3,6,134.6,60.9,166l9.4,5.4l9.4-5.4c54.9-31.5,60.4-71.8,60.8-83.4
			C141.2,64.4,138.7,31.6,138.4,27.9z"/>
		<path class="st1" d="M135.4,28.1l-0.8-9.2l-8.3-3.9c-1-0.5-25.5-12-56-12s-54.9,11.5-56,12L6,18.9l-0.8,9.2
			C5.1,29.5,2.4,63.8,3,82.5c0.4,11.2,5.7,50.1,59.3,80.8l7.9,4.5l7.9-4.5c53.6-30.7,58.9-69.6,59.3-80.8
			C138.2,63.9,135.5,29.6,135.4,28.1z"/>
		<path class="st0" d="M133.3,28.3l-0.7-8l-7.2-3.4c-1-0.5-25.1-11.8-55.1-11.8S16.2,16.4,15.2,16.9L8,20.3l-0.7,8
			c-0.1,1.4-2.8,35.5-2.2,54.2c0.4,10.9,5.6,48.9,58.3,79.1l6.9,4l6.9-4c52.6-30.2,57.9-68.2,58.3-79.1
			C136.1,63.8,133.4,29.7,133.3,28.3z"/>
		<path class="st1" d="M122.5,29.1l-0.1-1.8l-1.6-0.7c-0.2-0.1-22.7-10.8-50.4-10.8c-27.8,0-50.2,10.7-50.4,10.8l-1.6,0.8l-0.1,1.8
			c0,0.3-2.8,34.8-2.2,53c0.3,9.5,5,42.7,52.8,70l1.5,0.9l1.5-0.9c47.8-27.4,52.5-60.5,52.8-70C125.3,64,122.5,29.5,122.5,29.1z"/>
		<path class="st0" d="M121,29.3l-0.1-0.9l-0.8-0.4c-0.2-0.1-22.6-10.6-49.8-10.6S20.8,27.9,20.5,28l-0.7,0.4l-0.1,0.9
			c0,0.3-2.8,34.7-2.2,52.8c0.3,9.3,5,41.8,52,68.8l0.8,0.4l0.8-0.4c47.1-27,51.7-59.5,52-68.8C123.7,64,121,29.6,121,29.3z"/>
		<path class="st1" d="M70.4,149.5c-38-21.8-50.7-49.3-51.3-67.5c-0.6-18.2,2.2-52.6,2.2-52.6s22-10.5,49.1-10.5
			s49.1,10.5,49.1,10.5s2.8,34.4,2.2,52.6C121,100.2,108.3,127.7,70.4,149.5L70.4,149.5z"/>
		<path class="st2" d="M83.7,78.1l0.1,0.1c2.6,3.2,3.8,6.6,4.5,10.5c0.1,0,0.2-0.1,0.3-0.1c0.6-0.3,1.2-0.6,1.8-0.9
			c0.1-0.1,0.2-0.1,0.4-0.2c-1.1-3.8,0.7-5.4,1.6-5.9c1.6-1,3.9-0.6,5.2,0.8c0.4,0.5,0.6,0.8,0.7,1.1c0,0.1,0.2,0.2,0.7,0.4
			c0.3,0.1,0.7,0.2,1,0.2c2,0.2,3.8,0.8,5.2,4.7l0,0c0.3,1,1.4,4.1-0.8,5.7c-0.5,0.4-1.2,0.5-1.9,0.3c-0.6-0.2-1-0.3-1.3-0.4
			c-0.7-0.2-0.7-0.2-2-0.1h-0.3c-0.1,0-0.2,0-0.3,0c-0.3,0.3-0.6,0.7-0.9,1.1c-1.1,1.5-2.2,3-3.3,4.5c-0.2,0.3-0.5,0.6-0.9,0.7
			c-0.6,0.9-1.3,1.4-1.8,1.9c-0.4,0.3-0.7,0.5-1,0.8l-0.3,0.3c-1.1,1.2-3.3,3.8-6.7,1.8c-2.7-1.5-4.4-4.9-5.9-7.8
			c-0.6-1.3-1.3-2.5-1.8-3.3c-0.2,0-0.3,0-0.4,0c-1.8,0.3-2.5-0.5-3.5-1.7c-0.3-0.3-0.6-0.6-0.8-0.9c-0.6,0.9-1.2,1.6-1.9,2.3
			c-0.2,0.2-0.5,0.3-0.7,0.4c-0.7,0.2-1.4,0.5-2.2,0.7c-0.7,0.2-1.4,0.5-2.1,0.7c-0.1,0-0.2,0.1-0.3,0.1c-0.4,0.5-0.9,0.9-1.3,1.3
			l-0.6,0.5c-1,0.8-1,0.8-1.2,2.8c0,0.2-0.1,0.3-0.1,0.4c0.1,0.2,0.2,0.5,0.3,0.8c0.4,2.9,0.5,3.8,0.2,6.9c-0.3,2.7-1,4.9-1.4,6.4
			l-0.2,0.5c-0.2,0.7-0.4,1.1-0.5,1.9c-0.6,4-0.4,4.9-0.4,5c0.3,0.4,0.7,1,0.9,1.9c0,0.1,0,0.2,0,0.3c0,0.2,0,0.5,0.1,0.7
			c0,0.3,0.1,0.7,0.1,1c0,0.6-0.2,1.2-0.6,1.6c0,0.5-0.1,1.1-0.5,1.8c-0.6,1-1.5,1.7-2.5,1.9c-0.2,0-0.5,0.1-0.7,0.1
			c-1.2,0-2.4-0.5-3.5-1.4c-0.3-0.3-0.5-0.5-0.7-0.7c-0.6-0.6-0.9-1-1.6-1.3c-0.3-0.2-0.5-0.2-0.7-0.3c-0.4-0.1-0.8-0.3-1.3-0.6
			c-0.6-0.3-1.2-0.8-1.8-1.4c-1.4-1.3-2.2-2.6-2.6-4.1c-0.4-1.8-0.2-3.4,0.7-4.5c0.8-0.9,1.9-1.4,3.3-1.3c0.2,0,0.4,0.1,0.6,0.1
			c0.7,0.2,1.2,0.5,1.7,0.7c0.1,0,0.1,0,0.2,0c0-0.1,0-0.1,0-0.2c0-0.2,0-0.3,0-0.5c-0.3-0.5-0.5-1.2-0.9-2.6
			c-0.6-2.3-1.1-5.2-0.3-7.2c0.1-0.3,0.3-0.5,0.4-0.7c0-0.1,0-0.1,0-0.2c0-0.6,0.1-1.2,0.1-1.9v-0.4c0.1-0.8,0.2-1.6,0.4-2.4
			c0.1-0.5,0.2-1,0.3-1.5c0-0.4,0-0.6-0.2-1.1s-0.5-1.3-0.5-2.4c0-1.2,0.1-2,0.4-2.6c0,0,0,0,0-0.1c-0.3-1.7,0-3.9,0.6-5.5
			C50.1,87.3,50,87,50,86.7c-0.3-2.8,1.1-4.5,2.7-5.6c0-0.3,0-0.5,0.1-0.8c0.4-1,1.1-2,2-2.7c-15.3,1.8-28,5.9-35.2,8.7
			c2.6,18,16.2,42.6,50.8,62.5c34.7-19.9,48.3-44.5,50.8-62.5C113.6,84.1,100,79.8,83.7,78.1z M76,130c-1.7,1.7-4,2.7-6.4,2.7
			c-0.1,0-0.1,0-0.2,0c-5-0.1-9-4.4-8.9-9.7c0.1-5.2,4.2-9.4,9.1-9.4c0.1,0,0.1,0,0.2,0c5,0.1,9.1,4.4,9,9.7
			C78.7,125.9,77.7,128.3,76,130z"/>
		<path class="st0" d="M69.8,115.2c-4.2-0.1-7.6,3.4-7.7,7.8c-0.1,4.4,3.2,8,7.4,8.1c4.2,0.1,7.6-3.4,7.7-7.8
			C77.3,119,74,115.3,69.8,115.2z"/>
		<path class="st0" d="M103.3,89.6c-1.4-4.1-2.9-2.9-5-3.7c-2-0.7-1.6-1.3-2.2-2c-1.2-1.3-4.7-1-3.1,3.6c0.2,0.7,0.2,1,1,1.2
			c0.8,0.2,1.1,0.1,1.9,0c-0.2,0.1-0.4,0.2-0.6,0.3c-0.4,0.1-0.8,0-1.2-0.1c-0.3,0-0.6-0.1-0.7-0.1c-1.3,0.6-2.6,1.2-3.9,1.8
			c-0.7,0.2-1.5,0.5-1.8,1.1c-0.6,0.9,0.2,1.3,0.9,1.7c2.3,1.4,2,3.3,0.6,2.7c-0.8-0.4-1.7-2.6-2-3.7c-0.8,0.5-1.7,1.1-2.5,1.6
			c-1.1,0.4-2.2,0.5-3.1-0.2c1-0.1,2.1-0.3,3.1-0.4c0.8-0.3,1.5-1.2,2.2-1.6c-0.6-4.7-1.5-8.6-4.4-12.2c-0.3-0.4-0.7-0.7-1.1-1.1
			c-0.6-0.5-0.5-0.5-1.3-0.2c-2.3,1-8.1,2.1-10.2,1c5.2-0.3,7.2-1.1,12-2.8c1.3-0.4,2.4-0.9,3.5-1.5c-2.9-0.7-5.3-1.5-7.6-3.5
			c-1.5-1.3-4.1-4.7-4.6-6.6c0.7,0.8,1.4,1.6,2.4,2.1c0.4,0.2,1,0.5,1.6,0.4c0.5-0.1,1.1-0.4,1.1-1c0.1-1.6-3.2-3.4-4.3-4.4
			c1.4,0.1,3.1,0.8,3.1-1.4c-0.9,0.1-2,0.2-2.9-0.3c2.4-1,2.8-0.8,3.2-2.5c0.2-0.8,0.1-0.7-0.3-1.2c-0.8-1.2-2.2-4.1-1.9-5.7
			c1.2,3.3,1.7,5.2,4.4,7.5c1.2,1,3.1,1.9,3.4,3.7c0.3-0.6,0.3-1.4,0.7-1.9c0.2,0.4,0.4,0.7,0.6,1.1c0.7,1.6,2,3.6,3.3,4.7
			c1.6,1.5,3.8,2.6,4.8,4.6c0.4,0.7,0.5,1.6,1.2,2c0.9,0.5,1.6-0.1,2.5,0c0.2-0.1,0.2-0.3,0.3-0.4c0.9,1.7,0.8,1.1,1.2,0.6
			c0-0.1,0.3-0.1,0.7-0.2c0.1-0.1,0.5-0.7,0.6-1.2c0-0.2-0.1-1.1-0.2-1.4c-0.3-1.9-1.6-1.9-3-1.9c-0.5,0-1,0-1.5-0.1
			c-2-0.3-1.6-3.4-3.6-6.3c-0.5-0.8-2.3-3.1-2.9-3.5c-1.1,0.4-2.1,0.8-3.2,1.1c1.2-0.6,3.8-2.1,4.5-3.1c-1.3-1.3-2.6-2.7-3.9-4
			c-0.7-0.8-1.2-1.4-1.9-2.1c-0.5-0.6-1.4-1.6-1.9-1.9c0.5,1.1,1,2,1.3,3.2c0.2,0.6,0.3,1.3,0.3,2c0.1,1,0,1.4-0.5,1.8
			c-0.3-0.1-0.6-0.2-0.9-0.3c0-1,0.1-2,0.2-3c-0.1-1.8-1.6-4.7-3.3-5.2c-0.5-0.2-0.9-0.2-1.3-0.4c-0.8-0.4-0.9-1.3-1.5-1.8
			c-0.6-0.6-1.1-1-1.8-1.5c-1.6-1-1.6-0.2-2.2-1.1c-0.5-0.7-1.1-1.3-1.5-1.9c-0.1,0.1-0.1,0.2-0.2,0.3c-0.2,0.4-0.2,0.6-0.6,0.9
			c0.1-1,0.2-1.9,0.3-2.9c0.6-0.8,1.4-1.5,2-2.4c2.3-3,2.4-4.8,2.5-8.7c-0.7,0.9-1.3,2-2.5,2.4c0.3-0.4,0.5-0.7,0.8-1.1
			c0.7-1,1-3,1-4.3c-0.8,1.2-1.5,2.5-2.9,2.9c0.3-0.6,0.6-1.2,0.9-1.8c-3.2,0.7-2.1,0.5-5.4,0.4c-2-0.1-3.4,0.6-4.5,1.5
			c-1,0.9-1.9,2.2-2.1,4.1c-0.2,1.8,0.1,4.3,0.7,5.4c0-0.2,0.1-0.4,0.2-0.6c0.1-0.5,0.2-1.1,0.5-1.5c-0.1,2.2-0.4,4.9,0.9,6.7
			c0.9,1.2,0.7,2.3,1.9,3.3c0.7,0.6,0.9,0.5,2.1,0.6c1.5,0,2.1-1.1,2.7-2.3C67.5,45.3,68,45,66,46c0.9,0.5,1.6,1.1,2.5,1.6
			c1.8,1.3,4.9,4.4,5.3,6.9c-0.7-0.5-1.9-1.7-2.3-0.3c-0.4-0.8-0.7-1.7-1.1-2.4c-1.1-2.1-2.9-3.8-4.9-5.1c-0.6-0.4-1.5-0.7-2.1-1.2
			c-0.5-0.4-1.1-1.2-1.5-1.9c-0.3-0.5-0.5-1.1-0.7-1.6c0,0-0.5-0.1-1.1,0.1l0,0l0,0c-0.2,0.1-0.4,0.2-0.5,0.3
			c-0.9,0.9-2.3,2.3-3.4,3.4l0.4,0.2c0,0,0,0.1-0.1,0.1c-0.6,1.2-1.3,1.7-1.7,1.7c-0.4,0-2.1-0.6-4.2-0.6s-3.8,0.5-5,0.4
			c-0.9-0.1-2.9-0.3-4.1-0.2h-0.2c-0.9,0.1-1.4,0-1.7-0.1c-0.5-0.3-1.1-0.6-1.7-0.6c-0.3,0.1-1.7,0.7-2.5,1.3
			c-0.1,0.1-0.3,0.2-0.4,0.4c-0.2,0.3-1,1.9-0.4,2.1h0.1h0.1c0.1-0.1,0.3-0.2,0.5-0.5s0.4-0.5,0.5-0.7c0.1-0.1,0.2-0.2,0.3-0.2
			c0.1,0,0.1-0.1,0.1-0.1l0,0c0.2-0.1,0.3-0.1,0.3-0.1c0.1,0,0.3-0.1,0.4-0.1c0.3,0,0.6,0.1,1,0.4c-1.3-0.2-2.5,0.6-1.7,1.1
			c0.5-0.1,1.7,0.2,2.3,0.3c0.3,0,0.5,0.1,0.7,0.1c0.4,0,0.7,0,0.9-0.1c0.3-0.1,0.5-0.2,0.8-0.4l0,0c0,0,0.1,0,0.2-0.1
			c1-0.2,2,0.5,2,0.5s3.1,1.2,3.8,1.5c0.7,0.4,2.3,1.4,4.9,1.3c1.7-0.1,2.5-0.5,2.9-0.7c-0.5,0.4-1.4,1.1-1.9,1.1
			c0.5,0,2.1-0.2,3.1-0.7c0.5-0.3,0.8-0.3,1-0.3c1.2-3.4,2.4-6.5,3-7c-0.3,0.5-2.8,4.6-2.6,11.7c0,0.3,0,0.6,0,1
			c0,1.6,0.3,3.5,0.5,5s0.4,3.3,0.9,4.7c0.4,1,6.4,7.7,7.8,9.2c-0.2,1.4-4.8-0.8-6.8-5.4c-0.1-0.3-0.3-0.7-0.4-1
			c-0.1-0.2-0.1-0.4-0.2-0.6c-0.1-0.1-0.1-0.3-0.2-0.5c0.1,1.5,0.2,2.9,0.1,4.5c0,1.6-0.5,2.4-0.8,3.8c1.2,0.6,2.4,1.1,3.6,1.7
			c-1.4-0.6-2.7-1.3-4.3-0.7c-1.2,0.5-2.3,1.6-2.7,2.7c0.6-0.1,1.7-0.5,2.2,0c-2.1,1.1-5.2,2.2-4.9,5.4c0.5-1.1,0.5-1.7,1.8-2
			c0.8-0.2,2.7,0,3.2,0.4c-1.4,0.7-2.9,1.5-4.4,2.2c-0.6,1.1-1.3,3.8-1,5.7c0.4,0,0.9,0.1,1.3,0.1c-1.4,0.9-1.6,0.8-1.6,2.8
			c0,1.7,0.9,2,0.7,3.7c-0.1,1.1-0.6,2.6-0.7,3.9c-0.1,0.7-0.2,1.4-0.2,2.1c0,1.6-0.2,0.9-0.6,1.7c-0.6,1.5,0,4.3,0.4,5.9
			c0.9,3.6,1,1.2,0.9,3.6c0,2,0.3,1.7,1.4,2.9c0.3,0.3,0.8,0.7,1,1.1c-1.4-0.7-2.7-1.4-4.2-1.8c0.1,0.3,0.3,0.7,0.4,1
			c-1-0.6-1.7-1.3-3.3-1.9c-1.8-0.1-2.3,1.4-1.8,3.2c0.4,1.3,1.2,2.4,2,3.1c0.5,0.4,0.9,0.8,1.5,1.1s1.1,0.4,1.7,0.8
			c1.3,0.6,1.9,1.5,2.8,2.3c1,0.9,2.7,1.5,3.5,0c0.9-1.8-0.9-2.5-2.1-2.7c-1.4-0.3-2.5-1-2.5-2.6c0.1,0.1,0.1,0.2,0.2,0.4
			c0.1,0.3,0.3,0.8,0.6,1c0.4,0.4,0.8,0.6,1.5,0.6c1.5,0,2.1,0.2,3.1,1.1c0-0.6-0.1-1.1-0.2-1.7c-0.4-2-1.6,0-0.5-7.6
			c0.2-1.3,0.4-1.8,0.7-2.8c0.6-1.8,1.1-3.7,1.3-5.9c0.2-2.9,0.2-3.7-0.2-6.5c-0.9,0.2-1.8,0.4-2.7,0.5c-0.9,0-2.1-0.1-2.7-0.5
			c1.5-0.1,3.2,0,4.5-0.7c0.5-0.3,0.6-0.3,0.7-1c0.4-3.2,0.7-3,2.6-4.6c1.3-1.1,2.5-2.3,2.3-5c-0.1-2.1-1.5-3.1-2.8-4.2
			c1,0.9,2.1,1.7,3.1,2.6c0.3,0.7,0.4,1.5,0.3,2.5s-0.5,1.6-0.6,2.3c1.4-0.5,2.9-0.9,4.3-1.4c1-0.9,1.7-1.9,2.4-3.4
			c-1.3-1.3-5.9-5.6-6.4-7.3c3.3,0.5,6.6,0.9,9.8,1.8c1.6,0.4,3,0.9,4.4,1.4c1.1,0.4,2.8,1.2,3.8,1.8c-1.2-0.4-2.5-0.8-3.7-1.2
			c-1.4-0.5-10.3-2.9-11.6-2.9c1.4,0.4,3.1,1,4.5,1.5s2.7,1.2,4.1,1.9c1.3,0.8,2.6,1.5,3.7,2.3c0.9,0.7,2.8,2.1,3.2,2.9
			c-1.1-0.7-2.1-1.5-3.2-2.1c-3.4-1.9-6.9-3.5-10.6-4.9c1.7,2.3,3.4,4.7,5.4,6.8c1.1,1.2,1.1,1.1,1.6,1c0.3-0.1,0.8-0.1,1.9,0.1
			c0.6,0.1,1.3,0.2,1.9,0.6c-0.5-0.1-1.1-0.2-1.6-0.3c2.1,2.4,4,9,7.4,10.9c2.1,1.2,3.2-0.4,4.4-1.7c1.3-1.4,2.5-1.5,3.1-3.7
			c0.4-1.7,0.2-2.6,0-4.2c1,1.3,0.5,3.3,0.4,4.7c1.1-1.5,2.2-3,3.3-4.5c1.3-1.8,2.3-2.1,3.3-4.4c-0.2,0.8-0.4,1.6-0.6,2.4
			c2.6-0.3,1.9-0.3,4.5,0.5C104.1,92.3,103.6,90.6,103.3,89.6z M93.5,70.6c0.1-0.1,0.3,0,0.5,0.1c0.8,0.3,0.8,0.5,1.5,1.2
			c-0.3-0.2-0.3-0.3-1-0.3h-0.1C93.8,71.4,93.2,70.9,93.5,70.6z"/>
	</g>
	<g>
		<path class="st0" d="M502.3,61.1l-8.2,26.8l-6.6-26.8h-26.6h-5.2h-14.2V40.8h-31.3L400,72.6V60.8h-6.5c0.6-0.5,1.1-1,1.6-1.5
			c3.1-3.3,4.8-7.6,4.8-12.3c0-4.8-1.7-9-4.8-12.4c-3.2-3.4-7.4-5.2-12.2-5.2c-4.7,0-8.9,1.8-12.2,5.2c-3.2,3.3-4.8,7.6-4.8,12.3
			c0,4.7,1.7,8.9,4.8,12.2c0.5,0.6,1.1,1.1,1.7,1.5h-6.6v18.2c-3.3-12.2-12.7-19.6-25.7-19.6c-4.2,0-8.2,0.9-11.8,2.8v-1.4h-34.1
			l0,0h-66.6v-44h-34v88.9c0,0.1,0,0.3,0,0.4c0,0.6-0.1,1.1-0.2,1.5c-0.1,0.6-0.3,1.1-0.4,1.5c-0.5,1-1.2,1-2,1
			c-0.6,0-2.3-0.1-5.4-1.1l0,0c-3.5-1.1-7.8-2.5-10.8-3.5l-8.4-2.9v31.7l4.2,1.5c6.2,2.2,15.5,4.8,25,4.8c7.1,0,14.4-1.4,20.7-5.5
			c8.9-5.9,10.9-17.9,11.3-24.5c0.4,2.9,1.1,6.7,2.1,9.4c1.6,4.1,4,7.8,6.9,10.9c3,3.1,6.6,5.6,10.8,7.3c4.2,1.7,8.8,2.6,13.8,2.6
			c4.9,0,9.6-0.9,13.8-2.6c4.2-1.7,7.9-4.2,10.9-7.3c3-3.1,5.3-6.8,6.9-10.9c0.6-1.5,1.1-4.1,1.4-5.7l-0.1,24.2h34.1l0.1-41.9
			c0-4.4,1.9-4.4,2.6-4.4c0.5,0,2.2,0,2.2,4.4l-0.1,41.9h32.8h1.3h32.8l0.1-50.6h7.6v19c0,21.3,10.2,34,27.4,34
			c7,0,12.3-0.7,18.7-2.6l4.6-1.3v-32.1l-8.4,2.9c-3.6,1.2-5.5,1.4-6.1,1.4c-1.1,0-2.4,0-2.4-4l0.1-17.3h19.4v-4.8
			c5.2,21.7,11,46.4,11.9,51.1v0.2c0,0.5,0,1-0.1,1.4l-0.1,0.4v0.2c-0.4,2-1.1,2-2.2,2c-0.4,0-0.8,0-1.3-0.1l-7.3-1.1v31.2l4.9,1.2
			c4.4,1.1,8.2,1.6,11.6,1.6c3.4,0,6.5-0.5,9.4-1.5c1.7-0.5,5.9-2,9.8-6.3c0.2-0.2,0.4-0.5,0.6-0.7l0.3-0.3c0.1-0.1,0.1-0.1,0.2-0.2
			c1.8-2.3,3.3-5,4.3-8.1c6.1-15.8,28.3-81.6,29.2-84.4l2.8-8.4L502.3,61.1L502.3,61.1z"/>
		<g>
			<path class="st1" d="M223.9,20.7h-26.4v85c0,3.3-1,6.1-2.8,7.5c-1.2,1-2.7,1.3-4.5,1c-3.8-0.8-16.5-5.1-16.6-5.1l-3.4-1.1v23.7
				l1.7,0.6c5.9,2.1,14.7,4.6,23.7,4.6c6.5,0,13-1.3,18.6-4.9c9.1-5.9,9.7-20.2,9.7-24.4V20.7z"/>
			<path class="st1" d="M383,60.7c3.7,0,6.9-1.3,9.4-4c2.5-2.6,3.8-5.9,3.8-9.7c0-3.8-1.3-7.1-3.8-9.7c-2.5-2.7-5.7-4-9.4-4
				c-3.7,0-6.8,1.4-9.4,4c-2.5,2.6-3.8,5.9-3.8,9.7c0,3.7,1.3,7,3.8,9.6C376.1,59.3,379.3,60.7,383,60.7z"/>
			<rect x="369.7" y="64.6" class="st1" width="26.4" height="69.9"/>
			<path class="st1" d="M264.9,105.4c0,2.1-0.3,3.7-1,4.8c-0.2,0.3-0.7,1.1-2.5,1.1c-1.9,0-2.3-0.8-2.5-1.1c-0.7-1.1-1-2.7-1-4.8
				V64.6h-26.6v40.9c0,4.3,0.7,9.3,2.2,13c1.4,3.7,3.5,6.9,6.1,9.6c2.6,2.7,5.8,4.9,9.5,6.4s7.8,2.3,12.4,2.3
				c4.4,0,8.6-0.8,12.3-2.3c3.7-1.5,7-3.7,9.6-6.4c2.6-2.7,4.7-6,6.1-9.7s2.2-8.7,2.2-12.9V64.6h-26.6v40.8H264.9z"/>
			<path class="st1" d="M340.2,63.2c-5.9,0-11,2.1-15.6,6.3v-4.8h-26.4l-0.1,69.9h26.4l0.1-38.1c0-5.1,2.4-8.2,6.4-8.2
				c5.4,0,6,5.7,6,8.2l-0.1,38.1h26.4l0.1-45.3C363.4,73.2,354.5,63.2,340.2,63.2z"/>
			<path class="st1" d="M437.6,44.6H413l-10.4,32.5v6.8h8.9v22.8c0,19.2,8.6,30.1,23.6,30.1c6.6,0,11.6-0.7,17.6-2.4l1.8-0.5V110
				l-3.4,1.2c-3,1-5.6,1.6-7.4,1.6c-4.1,0-6.2-2.6-6.2-7.8l0.1-21.1H457v-19h-19.4V44.6z"/>
			<path class="st1" d="M505.2,64.9l-11.4,37.3l-9.2-37.3h-24l0.8,3.1c0.1,0.6,14.2,59.2,15.4,65.6v0.6c0,0.7,0,1.4-0.1,2v0.3
				c-0.6,3.7-2.5,5.5-6,5.5c-0.5,0-1.2-0.1-1.9-0.2l-2.9-0.4v23.8l2,0.5c4.1,1,7.7,1.5,10.7,1.5s5.8-0.4,8.3-1.3
				c1.2-0.3,4.7-1.5,8-5.2c0.2-0.2,0.3-0.4,0.5-0.6l0.2-0.3c0.1-0.1,0.1-0.2,0.2-0.2c1.6-2,2.8-4.3,3.7-7
				c6-15.6,28.9-83.6,29.2-84.3l1.1-3.4L505.2,64.9L505.2,64.9z"/>
		</g>
		<g>
			<path class="st0" d="M221.4,23.2h-21.3v82.5c0,7.5-4.5,12.2-10.3,11c-4-0.8-16.9-5.2-16.9-5.2v18.3c11.8,4.3,28.6,7.4,40-0.1
				c8.8-5.8,8.5-21.6,8.5-22.3V23.2z"/>
			<path class="st0" d="M383,58.1c3,0,5.5-1.1,7.6-3.2c2-2.1,3.1-4.8,3.1-7.9c0-3.2-1-5.8-3.1-8c-2-2.1-4.6-3.2-7.6-3.2
				s-5.5,1.1-7.5,3.2c-2.1,2.2-3.1,4.8-3.1,7.9s1,5.7,3.1,7.9C377.5,57.1,380,58.1,383,58.1z"/>
			<polygon class="st0" points="372.2,132 393.6,132 393.6,67.2 372.3,67.2 			"/>
			<path class="st0" d="M267.4,105.4c0,2.6-0.5,4.6-1.4,6.2c-0.9,1.5-2.5,2.3-4.7,2.3s-3.8-0.8-4.7-2.3c-0.9-1.5-1.4-3.6-1.4-6.2
				V67.2h-21.5v38.4c0,4,0.7,8.7,2,12c1.3,3.4,3.2,6.3,5.6,8.8c2.4,2.5,5.3,4.4,8.7,5.8c3.4,1.4,7.2,2.1,11.4,2.1
				c4.1,0,7.9-0.7,11.3-2.1c3.4-1.4,6.3-3.4,8.7-5.8c2.4-2.5,4.2-5.4,5.6-8.8c1.3-3.4,2-8.1,2-12V67.2h-21.5v38.2H267.4z"/>
			<path class="st0" d="M340.2,65.8c-8.6,0-14.3,5.1-18.2,10.4v-9h-21.3l-0.1,64.8h21.3l0.1-35.5c0-7,3.8-10.8,9-10.8
				c5.1,0,8.5,3.8,8.5,10.8l-0.1,35.5h21.3l0.1-42.7C360.9,74.7,353.1,65.8,340.2,65.8z"/>
			<path class="st0" d="M435.1,47.1h-20.3l-9.7,30.4v3.9h8.9v25.3c0,17.3,7.4,27.6,21,27.6c6.5,0,11.2-0.7,16.9-2.3v-18.4
				c-3.1,1-5.9,1.7-8.2,1.7c-5.3,0-8.7-3.5-8.7-10.4v-8.3v-2.2v-13h19.4V67.5H435V47.1H435.1z"/>
			<path class="st0" d="M507,67.5l-13.5,44.3l-11-44.3h-18.8c0,0,14.5,60.5,15.5,66v0.8c0,0.9,0,1.7-0.1,2.4v0.1
				c-0.7,5.2-3.9,7.8-8.6,7.8c-0.7,0-1.4-0.1-2.2-0.2v18.8c3.7,0.9,7.1,1.4,10.1,1.4c2.8,0,5.3-0.4,7.6-1.2c0.9-0.2,3.9-1.2,6.9-4.5
				c0.2-0.2,0.4-0.5,0.6-0.7c0.1-0.1,0.1-0.1,0.2-0.2c1.4-1.7,2.5-3.9,3.3-6.3c6.1-15.6,29.2-84.3,29.2-84.3L507,67.5L507,67.5z"/>
		</g>
	</g>
</g>
</svg>
