<?xml version="1.0" encoding="utf-8"?>
<!-- Generator: Adobe Illustrator 22.0.1, SVG Export Plug-In . SVG Version: 6.00 Build 0)  -->
<svg version="1.1" id="Слой_1" xmlns="http://www.w3.org/2000/svg" xmlns:xlink="http://www.w3.org/1999/xlink" x="0px" y="0px"
	 viewBox="0 0 416.6 142" style="enable-background:new 0 0 416.6 142;" xml:space="preserve">
<style type="text/css">
	.st0{fill:#004A9D;}
	.st1{fill:#FFFFFF;}
	.st2{fill:#67B34D;}
</style>
<path class="st0" d="M114.5,23.2l-0.8-9.1l-8.1-3.9C104.7,9.8,84,0,58.2,0C32.5,0,11.7,9.8,10.8,10.2l-8.2,3.9l-0.7,9.1
	c-0.2,3-2.3,30.2-1.8,45.3c0.3,9.6,4.9,42.9,50.3,69l7.8,4.5l7.8-4.5c45.5-26.1,50-59.4,50.3-69C116.8,53.4,114.7,26.2,114.5,23.2z"
	/>
<path class="st1" d="M112,23.4l-0.6-7.6l-6.8-3.3c-0.9-0.4-21.1-10-46.3-10S12.8,12,12,12.4l-6.9,3.3l-0.6,7.6
	c-0.1,1.2-2.3,29.6-1.8,45.1c0.3,9.3,4.7,41.5,49.1,66.9l6.6,3.8l6.6-3.8c44.3-25.4,48.8-57.6,49.1-66.9
	C114.3,53,112.1,24.6,112,23.4z"/>
<path class="st0" d="M110.3,23.5l-0.5-6.6l-6-2.8C103,13.7,83,4.3,58.2,4.3s-44.8,9.4-45.6,9.8l-6,2.8l-0.5,6.6
	C6,24.7,3.8,52.9,4.3,68.4c0.3,9.1,4.6,40.5,48.2,65.5l5.7,3.3l5.7-3.3c43.6-25,47.9-56.4,48.2-65.5
	C112.6,52.9,110.4,24.7,110.3,23.5z"/>
<path class="st1" d="M101.3,24.2l-0.1-1.5l-1.3-0.6c-0.2-0.1-18.8-8.9-41.7-8.9c-23,0-41.6,8.8-41.7,8.9l-1.3,0.6l-0.1,1.5
	c0,0.3-2.3,28.8-1.8,43.9c0.3,7.9,4.2,35.3,43.7,58l1.3,0.7l1.3-0.7c39.5-22.7,43.5-50.1,43.7-58C103.6,53,101.4,24.5,101.3,24.2z"
	/>
<path class="st0" d="M100.1,24.3l-0.1-0.7l-0.7-0.3c-0.2-0.1-18.7-8.8-41.2-8.8s-41,8.7-41.2,8.8l-0.7,0.3l-0.1,0.7
	c0,0.3-2.3,28.7-1.8,43.7c0.3,7.7,4.1,34.6,43.1,56.9l0.6,0.4l0.6-0.4c39-22.3,42.8-49.2,43.1-56.9
	C102.4,53.1,100.1,24.6,100.1,24.3z"/>
<path class="st1" d="M58.2,123.9c-31.5-18-42-40.8-42.4-55.9c-0.5-15.1,1.8-43.6,1.8-43.6s18.2-8.7,40.6-8.7s40.6,8.7,40.6,8.7
	s2.3,28.5,1.8,43.6C100.1,83.1,89.6,105.8,58.2,123.9L58.2,123.9z"/>
<path class="st0" d="M85.4,74.3c-1.2-3.4-2.4-2.4-4.1-3c-1.6-0.6-1.3-1.1-1.8-1.7c-1-1.1-3.9-0.8-2.6,3c0.2,0.6,0.2,0.8,0.8,1
	c0.7,0.2,0.9,0.1,1.6,0c-0.2,0.1-0.3,0.2-0.5,0.2c-0.3,0-0.7,0-1-0.1c-0.3,0-0.5-0.1-0.6-0.1c-1.1,0.5-2.1,1-3.2,1.5
	c-0.6,0.2-1.2,0.4-1.5,0.9c-0.5,0.8,0.2,1.1,0.7,1.4c1.9,1.2,1.7,2.8,0.5,2.2c-0.7-0.3-1.4-2.2-1.7-3.1c-0.7,0.4-1.4,0.9-2.1,1.3
	c-0.9,0.3-1.9,0.4-2.6-0.2c0.9-0.1,1.7-0.2,2.6-0.3c0.7-0.2,1.2-1,1.8-1.3c-0.5-3.9-1.2-7.1-3.7-10.1c-0.3-0.3-0.6-0.6-0.9-0.9
	c-0.5-0.4-0.4-0.4-1.1-0.1c-1.9,0.8-6.7,1.8-8.4,0.8c4.3-0.2,6-0.9,9.9-2.3c1-0.4,2-0.7,2.9-1.2C68,61.6,66,61,64.1,59.3
	c-1.2-1.1-3.4-3.9-3.8-5.5c0.6,0.6,1.2,1.3,2,1.7c0.3,0.2,0.8,0.4,1.4,0.3c0.4-0.1,0.9-0.3,0.9-0.8c0.1-1.4-2.7-2.8-3.6-3.6
	c1.2,0.1,2.6,0.7,2.6-1.1c-0.8,0.1-1.7,0.2-2.4-0.2c1.9-0.9,2.3-0.7,2.7-2.1c0.2-0.7,0.1-0.6-0.3-1c-0.7-1-1.8-3.4-1.6-4.7
	c1,2.7,1.4,4.3,3.7,6.2c1,0.8,2.5,1.6,2.8,3.1c0.2-0.5,0.2-1.2,0.6-1.6c0.2,0.3,0.3,0.6,0.5,0.9c0.6,1.3,1.7,2.9,2.7,3.9
	c1.3,1.2,3.1,2.2,4,3.8c0.3,0.6,0.4,1.3,1,1.7c0.7,0.4,1.3,0,2.1,0c0.2-0.1,0.2-0.2,0.3-0.4c0.8,1.4,0.7,0.9,1,0.5
	c0-0.1,0.3,0,0.6-0.1c0.1-0.1,0.4-0.5,0.5-1c0-0.2-0.1-0.9-0.2-1.1c-0.3-1.6-1.3-1.6-2.5-1.6c-0.4,0-0.8,0-1.2-0.1
	c-1.6-0.3-1.3-2.8-3-5.2c-0.4-0.6-1.9-2.6-2.4-2.9c-0.9,0.3-1.8,0.6-2.6,1c1-0.5,3.1-1.8,3.7-2.6c-1.1-1.1-2.2-2.2-3.3-3.3
	c-0.6-0.7-1-1.2-1.5-1.8c-0.4-0.5-1.1-1.3-1.6-1.6c0.4,0.9,0.8,1.7,1.1,2.7c0.1,0.5,0.2,1.1,0.3,1.6c0.1,0.8,0,1.1-0.4,1.5
	c-0.3-0.1-0.5-0.2-0.8-0.3c0-0.9,0.1-1.7,0.2-2.5c-0.1-1.5-1.3-3.9-2.7-4.3c-0.4-0.1-0.7-0.1-1-0.3c-0.7-0.3-0.8-1.1-1.2-1.5
	c-0.5-0.5-0.9-0.8-1.5-1.2c-1.3-0.8-1.3-0.1-1.8-0.9c-0.4-0.6-0.9-1.1-1.2-1.5c-0.1,0.1-0.1,0.2-0.2,0.3c-0.1,0.3-0.2,0.5-0.5,0.7
	c0.1-0.8,0.1-1.6,0.2-2.4c0.5-0.7,1.2-1.3,1.7-2c1.9-2.5,2-3.9,2.1-7.2c-0.6,0.8-1.1,1.6-2.1,2c0.2-0.3,0.4-0.6,0.7-0.9
	c0.6-0.9,0.8-2.5,0.8-3.6c-0.7,1-1.2,2.1-2.4,2.4c0.3-0.5,0.5-1,0.7-1.5c-2.6,0.6-1.8,0.4-4.4,0.3c-1.7-0.1-2.8,0.5-3.7,1.3
	c-0.8,0.7-1.6,1.8-1.8,3.4c-0.1,1.5,0.1,3.5,0.6,4.5c0-0.2,0.1-0.3,0.1-0.5c0.1-0.4,0.2-0.9,0.4-1.3c-0.1,1.8-0.3,4,0.7,5.5
	c0.7,1,0.6,1.9,1.5,2.8c0.6,0.5,0.8,0.4,1.7,0.5c1.3,0,1.7-0.9,2.3-1.9c-0.7,2-0.3,1.8-2,2.6c0.7,0.4,1.4,0.9,2.1,1.3
	c1.5,1.1,4.1,3.7,4.4,5.7c-0.6-0.4-1.6-1.4-1.9-0.2c-0.3-0.7-0.5-1.4-0.9-2c-0.9-1.7-2.4-3.1-4.1-4.2c-0.5-0.3-1.2-0.6-1.7-1
	c-0.4-0.4-0.9-1-1.2-1.6c-0.2-0.4-0.4-0.9-0.6-1.4c0,0-0.4-0.1-0.9,0.1l0,0l0,0c-0.2,0.1-0.3,0.1-0.5,0.3c-0.8,0.7-1.9,1.9-2.8,2.8
	l0.4,0.2c0,0,0,0.1-0.1,0.1c-0.5,1-1.1,1.4-1.4,1.4c-0.3,0-1.7-0.5-3.5-0.5c-1.7,0-3.2,0.4-4.1,0.3c-0.7-0.1-2.4-0.2-3.4-0.2h-0.2
	c-0.8,0.1-1.2,0-1.4-0.1c-0.4-0.2-0.9-0.5-1.4-0.5C31.1,39,30,39.5,29.3,40c-0.1,0.1-0.2,0.2-0.3,0.3c-0.2,0.2-0.8,1.6-0.4,1.8h0.1
	h0.1c0.1-0.1,0.2-0.2,0.4-0.4c0.1-0.3,0.3-0.4,0.4-0.6c0.1-0.1,0.1-0.1,0.2-0.2c0.1,0,0.1-0.1,0.1-0.1l0,0c0.1-0.1,0.2-0.1,0.2-0.1
	c0.1,0,0.2,0,0.3,0c0.2,0,0.5,0.1,0.8,0.3c-1.1-0.2-2.1,0.5-1.4,0.9c0.4-0.1,1.4,0.2,1.9,0.2c0.2,0,0.4,0.1,0.6,0.1
	c0.4,0,0.6,0,0.8-0.1c0.3-0.1,0.5-0.2,0.7-0.3l0,0h0.1c0.8-0.2,1.6,0.4,1.6,0.4s2.5,1,3.1,1.3c0.6,0.3,1.9,1.2,4.1,1.1
	c1.4-0.1,2.1-0.4,2.4-0.6c-0.4,0.3-1.2,0.9-1.6,0.9c0.4,0,1.7-0.2,2.6-0.6c0.4-0.2,0.7-0.3,0.8-0.3c1-2.8,2-5.4,2.5-5.8
	c-0.2,0.4-2.3,3.8-2.1,9.7c0,0.3,0,0.5,0,0.8c0,1.3,0.2,2.9,0.4,4.2c0.2,1.2,0.3,2.7,0.7,3.9c0.3,0.9,5.3,6.3,6.4,7.6
	c-0.1,1.2-4-0.6-5.7-4.5c-0.1-0.2-0.2-0.6-0.3-0.8c0-0.2-0.1-0.3-0.2-0.5c-0.1-0.1-0.1-0.3-0.2-0.4c0.1,1.3,0.1,2.4,0.1,3.7
	s-0.4,2-0.7,3.1c1,0.5,2,0.9,2.9,1.4c-1.2-0.5-2.2-1.1-3.6-0.6c-1,0.4-1.9,1.4-2.2,2.3c0.5-0.1,1.4-0.4,1.8,0
	c-1.7,1-4.3,1.8-4.1,4.5c0.4-0.9,0.4-1.4,1.5-1.7c0.6-0.2,2.2,0,2.7,0.3c-1.2,0.6-2.4,1.2-3.6,1.8c-0.5,0.9-1,3.2-0.8,4.7
	c0.3,0,0.7,0.1,1,0.1c-1.2,0.8-1.4,0.6-1.3,2.3c0,1.4,0.7,1.7,0.6,3.1c-0.1,0.9-0.5,2.1-0.6,3.2C42,87,42,87.6,42,88.1
	c0,1.3-0.2,0.7-0.5,1.4c-0.5,1.2,0,3.6,0.3,4.9c0.7,3,0.8,1,0.8,2.9c0,1.7,0.2,1.4,1.2,2.4c0.3,0.3,0.7,0.6,0.9,0.9
	c-1.1-0.6-2.2-1.2-3.5-1.5c0.1,0.3,0.2,0.6,0.3,0.9c-0.8-0.5-1.4-1-2.8-1.5c-1.5-0.1-1.9,1.1-1.5,2.6c0.3,1.1,1,1.9,1.7,2.6
	c0.4,0.4,0.8,0.7,1.2,0.9c0.5,0.3,0.9,0.4,1.4,0.6c1.1,0.5,1.6,1.2,2.3,1.9c0.8,0.7,2.3,1.2,2.9,0c0.8-1.5-0.7-2-1.7-2.2
	c-1.2-0.2-2.1-0.8-2.1-2.2c0.1,0.1,0.1,0.2,0.2,0.3c0.1,0.3,0.3,0.6,0.5,0.8c0.3,0.4,0.6,0.5,1.2,0.5c1.2,0,1.7,0.2,2.6,0.9
	c0-0.5-0.1-0.9-0.1-1.4c-0.3-1.6-1.3,0-0.4-6.3c0.2-1,0.3-1.5,0.6-2.3c0.5-1.5,0.9-3.1,1.1-4.9c0.2-2.4,0.1-3-0.2-5.4
	c-0.7,0.2-1.5,0.4-2.2,0.4s-1.7-0.1-2.3-0.4c1.2-0.1,2.6,0,3.8-0.6c0.5-0.2,0.5-0.2,0.6-0.9c0.3-2.6,0.6-2.5,2.1-3.8
	c1.1-0.9,2.1-1.9,1.9-4.1C52.2,73.8,51,73,50,72c0.8,0.7,1.7,1.4,2.5,2.2c0.2,0.6,0.3,1.3,0.3,2.1c-0.1,0.8-0.4,1.3-0.5,1.9
	c1.2-0.4,2.4-0.8,3.6-1.2c0.8-0.7,1.4-1.6,2-2.8c-1.1-1.1-4.9-4.7-5.3-6c2.7,0.4,5.4,0.8,8.1,1.5c1.3,0.3,2.5,0.7,3.6,1.2
	c0.9,0.4,2.3,1,3.2,1.5c-1-0.3-2.1-0.7-3-1C63.3,71,55.9,69,54.9,69c1.2,0.4,2.5,0.8,3.7,1.3s2.2,1,3.4,1.6c1.1,0.6,2.1,1.2,3,1.9
	c0.7,0.6,2.3,1.7,2.6,2.4c-0.9-0.6-1.7-1.2-2.6-1.8c-2.8-1.6-5.7-2.9-8.8-4.1c1.4,1.9,2.8,3.9,4.5,5.6c0.9,1,0.9,0.9,1.3,0.8
	c0.3,0,0.7-0.1,1.5,0.1c0.5,0.1,1.1,0.2,1.5,0.5c-0.4-0.1-0.9-0.2-1.3-0.2c1.7,2,3.3,7.4,6.1,9.1c1.7,1,2.6-0.3,3.6-1.4
	c1.1-1.2,2.1-1.2,2.6-3.1c0.4-1.4,0.1-2.1,0-3.5c0.8,1.1,0.4,2.7,0.3,3.9c0.9-1.3,1.8-2.5,2.7-3.7c1.1-1.5,1.9-1.7,2.7-3.6
	c-0.2,0.7-0.4,1.3-0.5,2c2.2-0.3,1.5-0.2,3.7,0.4C86.1,76.5,85.7,75.1,85.4,74.3z M77.3,58.5c0.1-0.1,0.2,0,0.4,0
	c0.7,0.3,0.7,0.4,1.2,1c-0.3-0.1-0.3-0.2-0.8-0.3H78C77.6,59.2,77.1,58.8,77.3,58.5z"/>
<path class="st0" d="M375.2,57.7c-17,0-31.3,9.8-37.8,24.2c-2.4-14.8-12.6-24-27.2-24c-4.4,0-8.5,1-12.4,3v-1.5h-34.9l0,0h-69.2
	V13.8h-34.8v87.3c0,5.1-0.7,7.9-8,7.9h-20.5v33h28.7c5.1,0,9.8-1,14.1-2.9c4.3-1.9,8-4.6,11-7.9s5.3-7.2,6.9-11.6
	c1.6-4.2,2.4-8.8,2.4-13.6v0.3c0,5,0.8,9.7,2.5,13.9c1.7,4.3,4,8.1,7.1,11.3c3.1,3.3,6.8,5.8,11.1,7.7c4.3,1.8,9.1,2.7,14.3,2.7
	c5.1,0,9.9-0.9,14.2-2.7c4.4-1.8,8.1-4.4,11.2-7.7c3-3.2,5.4-7.1,7.1-11.4c0.8-2,1.4-4.1,1.8-6.3v25.8h34.9V96.7
	c0-3.3,1-4.9,2.9-4.9c1.6,0,2.4,1.6,2.4,4.9v42.9h34.9V119c6.8,13.7,20.6,22.9,37,22.9c23.4,0,41.7-18.5,41.7-42.1
	S398.5,57.7,375.2,57.7z M375,90.9c4.4,0,7.1,4.6,7.1,9c0,4.5-2.1,9-6.8,9c-4.4,0-7.1-4.6-7.1-9C368.2,95.4,370.3,90.9,375,90.9z"/>
<path class="st2" d="M86.6,78.3c-0.1,0.1-0.1,0.1-0.2,0.2c-0.5,0.3-1,0.4-1.6,0.3c-0.5-0.1-0.8-0.3-1.1-0.4
	c-0.6-0.2-0.6-0.2-1.7-0.1h-0.3c-0.1,0-0.1,0-0.2,0c-0.3,0.3-0.5,0.5-0.8,0.9c-1,1.3-1.9,2.5-2.7,3.7c-0.2,0.3-0.4,0.5-0.7,0.6
	c-0.5,0.8-1,1.2-1.5,1.6c-0.3,0.2-0.5,0.4-0.8,0.7l-0.2,0.3c-0.9,1-2.7,3.2-5.5,1.5c-2.2-1.3-3.6-4-4.9-6.5c-0.5-1-1-2.1-1.5-2.7
	c-0.1,0-0.3,0-0.3,0c-1.5,0.2-2-0.4-2.9-1.4c-0.2-0.3-0.5-0.5-0.7-0.8c-0.5,0.7-1,1.4-1.6,1.9c-0.2,0.1-0.4,0.3-0.6,0.3
	c-0.6,0.2-1.2,0.4-1.8,0.6c-0.6,0.2-1.2,0.4-1.8,0.6c-0.1,0-0.2,0-0.3,0.1c-0.4,0.4-0.7,0.7-1.1,1.1l-0.5,0.4
	c-0.8,0.7-0.8,0.7-1,2.3c0,0.1,0,0.2-0.1,0.4c0.1,0.2,0.2,0.4,0.2,0.7c0.3,2.4,0.4,3.2,0.2,5.7c-0.2,2.2-0.8,4.1-1.2,5.3L49.3,96
	c-0.2,0.6-0.3,0.9-0.4,1.6c-0.5,3.3-0.4,4-0.3,4.2c0.3,0.4,0.6,0.8,0.7,1.6c0,0.1,0,0.2,0,0.2c0,0.2,0,0.4,0.1,0.6
	c0,0.3,0.1,0.5,0.1,0.8c0,0.5-0.2,1-0.5,1.3c0,0.4-0.1,0.9-0.4,1.5c-0.5,0.9-1.2,1.4-2.1,1.6c-0.2,0-0.4,0.1-0.6,0.1
	c-1,0-2-0.4-2.9-1.2c-0.3-0.2-0.4-0.4-0.6-0.6c-0.5-0.5-0.8-0.8-1.3-1c-0.3-0.1-0.4-0.2-0.6-0.2c-0.3-0.1-0.7-0.3-1.1-0.5
	c-0.5-0.3-1-0.7-1.5-1.1c-1.1-1.1-1.9-2.2-2.2-3.4c-0.4-1.5-0.2-2.8,0.6-3.7c0.6-0.8,1.6-1.1,2.7-1.1c0.2,0,0.3,0,0.5,0.1
	c0.5,0.2,1,0.4,1.4,0.6c0,0,0.1,0,0.2,0v-0.3c0-0.2,0-0.3,0-0.4c-0.2-0.4-0.5-1-0.7-2.1c-0.5-1.9-1-4.3-0.3-5.9
	c0.1-0.2,0.2-0.4,0.3-0.6v-0.2c0-0.5,0-1,0.1-1.5v-0.3c0.1-0.7,0.2-1.4,0.3-2c0.1-0.4,0.2-0.8,0.2-1.2s0-0.5-0.1-0.9
	c-0.2-0.5-0.4-1.1-0.4-2c0-1,0.1-1.6,0.3-2.2v-0.1c-0.1-0.4-0.1-0.9-0.1-1.5c-9.1,1.1-16.8,2.8-22.8,4.5c4.7,13.6,16.5,29.7,40,43.1
	c23.5-13.5,35.3-29.6,40-43.2C94.3,79.8,90.5,79,86.6,78.3z M58,110c-0.3,0-0.5,0-0.8,0h-0.1c-4-0.3-7.1-3.8-7-8c0-0.1,0-0.2,0-0.3
	s0-0.3,0-0.4c0-0.1,0-0.2,0-0.3c0.1-0.3,0.1-0.7,0.2-1c0-0.2,0.1-0.3,0.2-0.5c0.1-0.2,0.1-0.3,0.2-0.5c0.1-0.2,0.1-0.3,0.2-0.5
	c0.1-0.2,0.2-0.4,0.3-0.5c0.1-0.2,0.2-0.4,0.4-0.5c0.2-0.2,0.4-0.5,0.6-0.7c0.1-0.1,0.2-0.2,0.3-0.3c0.3-0.3,0.6-0.5,0.9-0.8
	c0.4-0.3,0.8-0.5,1.2-0.7c1.1-0.5,2.3-0.8,3.6-0.8c4.4,0,7.9,3.5,7.9,7.9C65.9,106.4,62.4,110,58,110z"/>
<path class="st0" d="M58.1,95.8c-3.4-0.1-6.3,2.7-6.3,6.1c-0.1,3.4,2.7,6.3,6.1,6.3c3.4,0.1,6.3-2.7,6.3-6.1
	C64.3,98.7,61.5,95.9,58.1,95.8z"/>
<path class="st1" d="M232.4,105.1c0,2.2-0.4,4-1.1,5.2c-0.3,0.5-0.9,1.2-2.7,1.2c-1.7,0-2.3-0.6-2.7-1.2c-0.7-1.2-1.1-2.9-1.1-5.2
	V63.3h-27.4v43c0,4.5,0.7,8.7,2.2,12.5c1.5,3.8,3.6,7.2,6.3,10.1c2.7,2.9,6,5.1,9.8,6.7s8.1,2.4,12.8,2.4c4.6,0,8.9-0.8,12.7-2.4
	c3.9-1.6,7.2-3.9,9.9-6.8c2.7-2.8,4.8-6.3,6.3-10.1c1.5-3.9,2.2-8.1,2.2-12.5v-43h-27.4v41.9H232.4z M310.2,61.8
	c-6.1,0-11.5,2.2-16.2,6.7v-5.2h-27.2v72.5H294V96.7c0-5.5,2.5-8.8,6.7-8.8c5.6,0,6.2,6.1,6.2,8.8v39.1h27.2V89.1
	C334.1,72.3,324.9,61.8,310.2,61.8z M375.2,61.6c-21.2,0-37.8,16.8-37.8,38.3s16.5,38.3,37.6,38.3c21.2,0,37.8-16.8,37.8-38.3
	S396.3,61.6,375.2,61.6z M375.2,112.7c-6.1,0-10.9-5.6-10.9-12.8c0-6.2,3.3-12.8,10.7-12.8c6.1,0,10.9,5.6,10.9,12.8
	C385.9,106,382.6,112.7,375.2,112.7z M162.8,103.8c0,5.9-3.3,9.1-8.3,9.1h-20.1v25.3h24.8c4.5,0,8.8-0.9,12.6-2.5
	c3.8-1.7,7.1-4,9.7-7c2.6-2.9,4.7-6.4,6.2-10.3c1.4-3.9,2.2-8.2,2.2-12.7V17.8h-27v86H162.8z"/>
<g>
	<path class="st0" d="M235,105.1c0,2.7-0.5,4.9-1.5,6.5s-2.6,2.4-4.9,2.4s-3.9-0.8-4.9-2.4c-1-1.6-1.5-3.8-1.5-6.5V65.9H200v40.5
		c0,4.2,0.7,8.1,2.1,11.6c1.4,3.5,3.3,6.6,5.8,9.2s5.5,4.7,9,6.1c3.5,1.5,7.4,2.2,11.8,2.2c4.3,0,8.2-0.7,11.7-2.2s6.5-3.5,9-6.1
		s4.4-5.7,5.8-9.3c1.4-3.6,2.1-7.4,2.1-11.6V65.8h-22.2L235,105.1L235,105.1z"/>
	<path class="st0" d="M310.2,64.3c-8.9,0-14.7,5.4-18.8,11v-9.5h-22v67.4h22V96.7c0-7.3,3.9-11.3,9.3-11.3c5.2,0,8.8,4,8.8,11.3
		v36.5h22V89.1C331.5,73.8,323.5,64.3,310.2,64.3z"/>
	<path class="st0" d="M375.2,64.2c-20.4,0-35.2,16.3-35.2,35.7c0,19.7,14.7,35.7,35,35.7c20.4,0,35.2-16.3,35.2-35.7
		C410.2,80.2,395.6,64.2,375.2,64.2z M375.2,115.2c-7.9,0-13.5-7.1-13.5-15.4c0-8.4,5.2-15.4,13.3-15.4c7.9,0,13.5,7.1,13.5,15.4
		C388.5,108.3,383.3,115.2,375.2,115.2z"/>
	<path class="st0" d="M165.4,105.2c0,6.7-3.7,10.2-11.1,10.2h-17.4v20.1h22.3c4.2,0,8.1-0.8,11.5-2.3c3.5-1.5,6.4-3.7,8.9-6.4
		c2.4-2.7,4.3-5.9,5.7-9.5c1.3-3.6,2-7.6,2-11.8V20.1h-21.9L165.4,105.2L165.4,105.2z"/>
</g>
</svg>
