<?xml version="1.0" encoding="utf-8"?>
<!-- Generator: Adobe Illustrator 22.0.1, SVG Export Plug-In . SVG Version: 6.00 Build 0)  -->
<svg version="1.1" id="Capa_1" xmlns="http://www.w3.org/2000/svg" xmlns:xlink="http://www.w3.org/1999/xlink" x="0px" y="0px"
	 viewBox="0 0 480.9 515" style="enable-background:new 0 0 480.9 515;" xml:space="preserve">
<style type="text/css">
	.st0{fill:#002169;}
</style>
<g>
	<g>
		<g>
			<g>
				<path class="st0" d="M361.4,317.2c0,2.7-1,5.2-2.9,7.1c-1.9,1.9-4.4,2.9-7.1,2.9h-51.2c-5.5,0-10-4.5-10-10c0-5.5,4.5-10,10-10
					h51.2C356.9,307.2,361.4,311.7,361.4,317.2z"/>
			</g>
			<g>
				<path class="st0" d="M446.7,129.5v170.7c0,5.5-4.5,10-10,10c-5.5,0-10-4.5-10-10V139.5h-75.3c-24.4,0-44.2-19.8-44.2-44.2V52.7
					c0-5.5,4.5-10,10-10c5.5,0,10,4.5,10,10v42.7c0,13.3,10.8,24.1,24.1,24.1h85.3C442.2,119.5,446.7,124,446.7,129.5z"/>
			</g>
			<g>
				<path class="st0" d="M361.4,214.8c0,5.5-4.5,10-10,10h-68.3c-5.5,0-10-4.5-10-10s4.5-10,10-10h68.3c2.7,0,5.2,1,7.1,2.9
					C360.4,209.6,361.4,212.2,361.4,214.8z"/>
			</g>
			<g>
				<path class="st0" d="M259,214.8c0,2.7-1,5.2-2.9,7.1c-1.9,1.9-4.4,2.9-7.1,2.9h-51.2c-5.5,0-10-4.5-10-10s4.5-10,10-10H249
					C254.5,204.8,259,209.3,259,214.8z"/>
			</g>
			<g>
				<path class="st0" d="M224.9,266c0,5.5-4.5,10-10,10h-17.1c-5.5,0-10-4.5-10-10c0-5.5,4.5-10,10-10h17.1
					C220.4,256,224.9,260.5,224.9,266z"/>
			</g>
			<g>
				<path class="st0" d="M293.1,163.6c0,5.5-4.5,10-10,10h-85.3c-5.5,0-10-4.5-10-10c0-5.5,4.5-10,10-10h85.3
					C288.6,153.6,293.1,158.1,293.1,163.6z"/>
			</g>
			<g>
				<path class="st0" d="M344.3,266c0,5.5-4.5,10-10,10H249c-5.5,0-10-4.5-10-10c0-5.5,4.5-10,10-10h85.3
					C339.8,256,344.3,260.5,344.3,266z"/>
			</g>
			<g>
				<path class="st0" d="M327.3,368.4c0,5.5-4.5,10-10,10h-17.1c-5.5,0-10-4.5-10-10c0-5.5,4.5-10,10-10h17.1
					C322.8,358.4,327.3,362.9,327.3,368.4z"/>
			</g>
			<g>
				<path class="st0" d="M276.1,368.4c0,5.5-4.5,10-10,10h-68.3c-5.5,0-10-4.5-10-10c0-5.5,4.5-10,10-10H266
					C271.6,358.4,276.1,362.9,276.1,368.4z"/>
				<path class="st0" d="M187.7,317.2c0-5.5,4.5-10,10-10H266c5.5,0,10,4.5,10,10c0,5.5-4.5,10-10,10h-68.3
					C192.2,327.3,187.7,322.8,187.7,317.2z"/>
			</g>
			<g>
				<path class="st0" d="M470.3,351.9l-17.1-17.1c-13.8-13.8-34.5-13.8-48.3,0L293.1,446.7c-1.9,1.9-2.9,4.4-2.9,7.1V505
					c0,5.5,4.5,10,10,10h51.2c2.6,0,5.2-1.1,7.1-2.9l111.8-111.8C484.5,386,484.5,366.2,470.3,351.9z M394.9,373.2l11.4,11.4l-72,72
					l-11.4-11.4L394.9,373.2z M310.2,494.9v-34l34,34H310.2z M359.9,482.2l-11.4-11.4l72-72l11.4,11.4L359.9,482.2z M456.1,386.1
					l-10,10l-37-37l10-10c6.2-6.1,13.8-6.1,20,0l17.1,17.1C462.4,372.5,462.4,379.7,456.1,386.1z"/>
			</g>
			<g>
				<path class="st0" d="M412.6,95.4c0,2.7-1,5.2-2.9,7.1c-1.9,1.9-4.4,2.9-7.1,2.9c-2.7,0-5.2-1-7.1-2.9l-82.4-82.4H44.2
					c-13.3,0-24.1,10.8-24.1,24.1v426.7c0,13.3,10.8,24.1,24.1,24.1H266c5.5,0,10,4.5,10,10c0,5.5-4.5,10-10,10H44.2
					C19.8,515,0,495.2,0,470.8V44.2C0,19.8,19.8,0,44.2,0h273.1c2.6,0,5.2,1.1,7.1,2.9l85.3,85.3C411.6,90.2,412.6,92.7,412.6,95.4z
					"/>
			</g>
			<g>
				<path class="st0" d="M276.1,419.6c0,5.5-4.5,10-10,10h-68.3c-5.5,0-10-4.5-10-10c0-5.5,4.5-10,10-10H266
					C271.6,409.6,276.1,414.1,276.1,419.6z"/>
			</g>
			<g>
				<path class="st0" d="M146.6,153.6H95.4c-5.5,0-10,4.5-10,10v51.2c0,5.5,4.5,10,10,10h51.2c5.5,0,10-4.5,10-10v-51.2
					C156.6,158.1,152.1,153.6,146.6,153.6z M136.5,204.8h-31.1v-31.1h31.1V204.8z"/>
			</g>
			<g>
				<path class="st0" d="M146.6,358.4H95.4c-5.5,0-10,4.5-10,10v51.2c0,5.5,4.5,10,10,10h51.2c5.5,0,10-4.5,10-10v-51.2
					C156.6,362.9,152.1,358.4,146.6,358.4z M105.4,409.6v-31.1h31.1v31.1H105.4z"/>
			</g>
			<g>
				<path class="st0" d="M154.9,271.6l-34.1,51.2c-1.7,2.5-4.4,4.1-7.4,4.4c-0.3,0-0.6,0-1,0c-2.6,0-5.2-1.1-7.1-2.9l-17.1-17.1
					c-1.9-1.9-2.9-4.4-2.9-7.1c0-2.7,1-5.2,2.9-7.1c1.9-1.9,4.4-2.9,7.1-2.9c2.7,0,5.2,1,7.1,2.9l8.4,8.4l27.3-41
					c3.1-4.6,9.3-5.8,13.9-2.8C156.7,260.8,158,267,154.9,271.6z"/>
			</g>
		</g>
	</g>
</g>
</svg>
