<?xml version="1.0" encoding="utf-8"?>
<!-- Generator: Adobe Illustrator 22.0.1, SVG Export Plug-In . SVG Version: 6.00 Build 0)  -->
<svg version="1.1" id="Слой_1" xmlns="http://www.w3.org/2000/svg" xmlns:xlink="http://www.w3.org/1999/xlink" x="0px" y="0px"
	 viewBox="0 0 495 399" style="enable-background:new 0 0 495 399;" xml:space="preserve">
<style type="text/css">
	.st0{fill:#002169;}
</style>
<path class="st0" d="M452,239.6l-61-14.1v-16.4l0.9-0.8c5.5-4.5,10.2-10,13.9-16.2l0.8-1.2h8.9c21.8,0,39.5-17.7,39.5-39.5
	c0-8.2-2.6-16.1-7.5-22.9l-0.5-0.7V96.8c0-52.8-42.4-96.3-94.6-96.8h-0.8c-25.4,0-49.2,9.8-67.3,27.7C266.1,45.8,256,69.9,256,95.5
	v32.4l-0.5,0.6c-4.9,6.8-7.5,14.8-7.5,23c0,21.8,17.7,39.5,39.5,39.5h8.9l0.7,1.2c3.8,6.2,8.5,11.7,14,16.2l0.9,0.8v16.4l-61,14.1
	c-2.8,0.7-5.6,1.6-8.5,2.8l-3.5,1.5v-44.4c0-13-10.5-23.5-23.5-23.5h-192C10.5,176,0,186.5,0,199.5v144c0,13,10.5,23.5,23.5,23.5H88
	v17h-8.5c-4.1,0-7.5,3.4-7.5,7.5s3.4,7.5,7.5,7.5H495V293.7C495,267.7,477.3,245.5,452,239.6z M391.5,241l-5.3,26.6l-21.3-12.8
	l20.3-15.2L391.5,241z M338.1,254.8l-21,12.6l-4.4-26.6l5.1-1.2L338.1,254.8z M327,227.8v-9.6l3.3,1.2c13.6,4.8,28.6,4.8,42.3,0
	l3.3-1.2v9.6l-24.5,18.4L327,227.8z M351.5,264.2l15.4,9.3l-4.8,14.5h-21.2l-4.8-14.5L351.5,264.2z M440,151.5
	c0,13.3-10.8,24.2-24,24.5l-3.2,0l0.7-3.1c1-4.5,1.5-9.1,1.5-13.5v-32.7l2.7,0.3C430.2,128.2,440,139,440,151.5z M287,176
	c-13.2-0.3-24-11.3-24-24.5c0-12.5,9.8-23.3,22.3-24.4l2.7-0.3v32.7c0,4.4,0.5,8.9,1.5,13.5l0.7,3.1L287,176z M295.5,96
	c-4.1,0-7.5,3.4-7.5,7.5v8.4l-2.4,0.1c-3.9,0.2-7.6,0.9-11.3,2.3l-3.4,1.2v-19c0-44.5,35.8-81,79.7-81.5c21.6-0.2,42,8,57.4,23.3
	C423.5,53.6,432,73.9,432,95.5v20l-3.3-1.2c-3.6-1.3-7.4-2.1-11.3-2.3l-2.4-0.1V99c0-1.7-1.4-3-3-3H403c-1.7,0-3.1,1.4-3.1,3v1.2
	l-0.9,0.8c-4.7,3.9-10.3,7-16.2,8.8l-1.4,0.5l-11.7-11.7c-5.3,5.1-11.8,9-18.9,11.2l-1.4,0.5l-11.7-11.7
	c-8.6,8.4-20.3,13.3-32.3,13.5l-2.5,0v-8.5C303,99.4,299.6,96,295.5,96z M303,159.5V127l2.5,0c6.5-0.1,12.9-1.2,19.2-3.3l3.3-1.1
	v4.5h8.9c6.7,0,13.3-1.1,19.8-3.3l3.3-1.1v4.5h8.9c9.4,0,18.9-2.3,27.5-6.5l3.6-1.8v40.8c0,4.9-0.8,9.9-2.4,14.8l-0.5,1.7h-37.6
	c-4.1,0-7.5,3.4-7.5,7.5s3.4,7.5,7.5,7.5h29.3l-4.8,4.4c-9,8.2-20.5,12.6-32.6,12.6C324.8,208,303,186.2,303,159.5z M136,384h-33
	v-48.5c0-9.1,7.4-16.5,16.5-16.5c9.1,0,16.5,7.4,16.5,16.5V384z M208,384h-57v-17h57V384z M215.5,352H151v-16.5
	c0-17.4-14.1-31.5-31.5-31.5c-17.4,0-31.5,14.1-31.5,31.5V352H23.5c-4.7,0-8.5-3.8-8.5-8.5v-144c0-4.7,3.8-8.5,8.5-8.5h192
	c4.7,0,8.5,3.8,8.5,8.5v144C224,348.2,220.2,352,215.5,352z M327.9,296.7l-7.3,87.3H279v-80.5c0-4.1-3.4-7.5-7.5-7.5
	c-4.1,0-7.5,3.4-7.5,7.5V384h-41v-18.3l1.5-0.6c8.8-3.7,14.5-12.2,14.5-21.6v-82l1.1-0.8c4.4-3.2,9.2-5.4,14.3-6.5l43.6-10.1l5.2,31
	c0.6,3.8,3,6.9,6.5,8.5c3.5,1.6,7.3,1.4,10.6-0.6l2.7-1.6l5,15L327.9,296.7z M335.6,384l6.8-81h18.2l6.8,81H335.6z M480,384h-41
	v-80.5c0-4.1-3.4-7.5-7.5-7.5c-4.1,0-7.5,3.4-7.5,7.5V384h-41.6l-7.3-87.6l5-15l2.7,1.6c3.3,2,7.1,2.2,10.6,0.7
	c3.5-1.5,5.9-4.5,6.6-8.3l6.2-31l42.5,9.8c18.5,4.3,31.4,20.5,31.4,39.5V384z"/>
</svg>
