<?xml version="1.0" encoding="utf-8"?>
<!-- Generator: Adobe Illustrator 22.0.1, SVG Export Plug-In . SVG Version: 6.00 Build 0)  -->
<svg version="1.1" id="Capa_1" xmlns="http://www.w3.org/2000/svg" xmlns:xlink="http://www.w3.org/1999/xlink" x="0px" y="0px"
	 viewBox="0 0 395.9 515" style="enable-background:new 0 0 395.9 515;" xml:space="preserve">
<style type="text/css">
	.st0{fill:#002169;}
</style>
<g>
	<path class="st0" d="M393.6,142.3c-3.5-9.2-10.7-16.7-19.8-20.5c-18.1-7.2-38.8,1-47,18.7l-18.3,35.8l26.7-132.8
		c2.1-9.6,0.1-19.8-5.4-27.9c-5.5-8.1-14.3-13.7-24-15.3c-19.3-2.6-37.4,10.2-41.3,29.3l-15.7,69l-12.9,59.9L234,43.8
		c-0.3-19.7-16.4-35.5-36.1-35.5h-0.5c-9.6,0.1-18.6,4-25.4,10.9c-6.7,6.9-10.3,16-10.2,25.6v140.2l-9-18.9
		c-7.5-16-25.9-24.3-42.8-19.3l-45.9,13.5c-5.9,1.8-11.1,5.6-14.6,10.6l-22.3,31.7c-5.7,8-7.7,18.2-5.5,27.8
		C9.3,233.2,0.1,244.4,0,257.4v66c0,7.3,3,14.5,8.3,19.7l82.8,78.2c2.5,2.5,4.5,5.5,5.7,8.8c1.5,3.6,3.3,7.1,5.4,10.4v46.9
		c0,15.2,12.4,27.5,27.6,27.5h136.3c15.2,0,27.6-12.4,27.6-27.5v-46c7.5-10.1,12.8-21.3,15.9-33.5c4.8-19.4,8.2-39.4,10.1-59.3
		c1.1-9,2.3-19.2,3.8-29.3c2.7-16.8,8.1-32.9,16.1-48l52.7-100.6C396.6,161.9,397.1,151.6,393.6,142.3z M249,463.9h0.2
		c8.1,0,16.1-1.8,23.3-5.3v28.8c0,3.6-2.9,6.5-6.5,6.5H129.8c-3.6,0-6.5-2.9-6.5-6.5V459c7.4,3.3,15.5,5,23.6,4.8
		c5.8,0,10.5-4.7,10.5-10.5c0-5.8-4.7-10.5-10.5-10.5l-0.1,0c-13.6,0.9-26.1-7.5-30.4-20.5c-2.3-6.1-6.1-11.8-10.8-16.3l-82.6-78
		c-1.2-1.2-1.9-2.9-1.9-4.6v-66c0-3.5,2.8-6.4,6.3-6.5h0.2c8.4,0,16.6,3.4,22.6,9.3c6,6,9.5,14.3,9.5,22.8v8.5c0,8.6,4.2,16.9,11,22
		l12.2,9.1c5.8,4.2,12.5,7.1,19.4,8.4c0.3,0.1,0.6,0.1,0.8,0.2c10.7,1.9,21.8,0.2,31.4-4.8c3.3-1.7,5.6-5,5.8-8.8s-1.6-7.3-4.7-9.4
		c-2.6-1.8-5.9-2.2-8.9-1.3l8.4-12.4c3.8-6.2,5-13.9,3.2-21l-12.7-50.5c-2.7-11.1-12.5-18.8-23.8-18.8h-0.1
		c-6.7,0-13.2,2.7-17.8,7.5L64.5,232c-4.9,4.8-12.6,5.1-17.8,0.6c-5.2-4.5-6.2-12.1-2.2-17.7l22.3-31.8c0.8-1.2,2.1-2.1,3.5-2.5
		l45.7-13.4c7.2-2.1,14.7,1.2,17.9,8l25.7,54.3c2.5,5.2,8.1,7.9,13.7,6.6c5.6-1.3,9.5-6.1,9.5-11.9V44.7c-0.1-4,1.4-7.8,4.2-10.7
		c2.8-2.9,6.5-4.5,10.6-4.6c4-0.1,7.8,1.4,10.7,4.2c2.9,2.8,4.5,6.5,4.6,10.5l2.8,188.3c0,6.5,4.9,11.8,11.3,12.5
		c6.4,0.6,12.3-3.6,13.6-9.9l28.4-131.8l15.7-69.1c1.5-8.2,9.2-13.9,17.4-13c4.1,0.6,7.7,3,10,6.4c2.3,3.4,3.1,7.7,2.2,11.8
		l-39.2,195.3c-1.2,5.9,2.1,11.9,7.8,14c5.7,2,12.1-0.5,15-5.9l47.6-92.9c3.4-7.6,12.2-11.3,20-8.6c3.8,1.6,6.8,4.7,8.2,8.6
		c1.4,3.7,1.3,7.9-0.4,11.5l-52.6,100.4c-9,17.1-15.1,35.4-18.2,54.5c-1.6,10.3-2.8,20.8-3.9,30.1c-1.8,18.9-5,37.8-9.5,56.2
		c-5.1,18.4-16.2,40.4-40.2,40.4c-5.8,0-10.5,4.7-10.5,10.5C238.5,459.2,243.3,463.9,249,463.9z M71.2,252.8c3-1.6,5.8-3.6,8.3-6.1
		l19.6-20.3c1-0.8,2.3-1.1,3.5-0.8c1.2,0.3,2.2,1.3,2.6,2.5l12.7,50.6c0.4,1.5,0.2,3-0.5,4.4l-17.1,25.5c-1.7-0.8-3.4-1.7-4.9-2.8
		l-12.1-9.1c-1.6-1.2-2.6-3.2-2.6-5.2V283C80.7,272.3,77.3,261.6,71.2,252.8z"/>
</g>
<g>
	<path class="st0" d="M267.6,337.4c-0.9,2.7-2.8,4.8-5.3,6.1c-1.5,0.8-3.1,1.1-4.7,1.1c-3.9,0-7.6-2.1-9.4-5.8
		c-11.9-23.9-53.7-34.7-68.8-36.9c-3.7-0.5-6.9-3-8.3-6.5c-1.4-3.5-0.8-7.5,1.5-10.4s6.1-4.5,9.8-3.9c1.3,0.2,17.7,2.6,36.1,9.9
		c18.4,7.2,38.9,19.2,48.5,38.5C268.2,331.9,268.4,334.8,267.6,337.4z"/>
</g>
<g>
	<path class="st0" d="M225.5,402.3c0,5.8-4.7,10.5-10.5,10.5s-10.5-4.7-10.5-10.5c0-51.5-35.6-66.8-36-66.9
		c-3.5-1.3-6.1-4.5-6.6-8.3c-0.6-3.8,0.9-7.5,3.9-9.9c3-2.3,7.1-2.9,10.6-1.4C178.6,316.7,225.5,336.6,225.5,402.3z"/>
</g>
</svg>
