<?xml version="1.0" encoding="utf-8"?>
<!-- Generator: Adobe Illustrator 22.0.1, SVG Export Plug-In . SVG Version: 6.00 Build 0)  -->
<svg version="1.1" id="Слой_1" xmlns="http://www.w3.org/2000/svg" xmlns:xlink="http://www.w3.org/1999/xlink" x="0px" y="0px"
	 viewBox="0 0 500 500" style="enable-background:new 0 0 500 500;" xml:space="preserve">
<style type="text/css">
	.st0{fill:#002169;}
</style>
<g>
	<g>
		<path class="st0" d="M228,186L228,186c0,5.5-4.5,10-10,10h-88c-5.5,0-10-4.5-10-10v0c0-5.5,4.5-10,10-10h88
			C223.5,176,228,180.5,228,186z"/>
	</g>
	<g>
		<path class="st0" d="M380,154L380,154c0,5.5-4.5,10-10,10H130c-5.5,0-10-4.5-10-10v0c0-5.5,4.5-10,10-10h240
			C375.5,144,380,148.5,380,154z"/>
	</g>
	<g>
		<path class="st0" d="M283.2,443.1l-1.8,0.9c-9.6,5.2-20.5,7.9-31.4,7.9c-36.4,0-66-29.6-66-66c0-11,2.7-21.8,7.9-31.4l1-1.8
			l17.6,9.5l-1,1.8c-3.6,6.7-5.5,14.3-5.5,21.9c0,25.4,20.6,46,46,46c7.6,0,15.2-1.9,21.9-5.5l1.8-1L283.2,443.1z"/>
	</g>
	<g>
		<path class="st0" d="M474,0H26C11.7,0,0,11.7,0,26v370h136v13.8l20.4,5.1c1.8,5.8,4.1,11.4,7,16.8l-10.9,18.1l33.7,33.7l18.1-10.9
			c5.4,2.8,11,5.2,16.8,7l5.1,20.5h47.6l5.1-20.4c5.8-1.8,11.4-4.1,16.8-7l18.1,10.8l33.7-33.7l-10.8-18.1c2.8-5.4,5.2-11,6.9-16.8
			l20.5-5.1V396h136V26C500,11.7,488.3,0,474,0z M344,394.2l-16.8,4.2l-1.4,5.9c-1.9,7.8-5,15.4-9.3,22.3l-3.2,5.2l8.9,14.9
			l-11.6,11.6l-14.9-8.9l-5.2,3.2c-7,4.3-14.5,7.4-22.3,9.3l-5.9,1.4l-4.2,16.8h-16.4l-4.2-16.8l-5.9-1.4c-7.9-1.9-15.4-5-22.3-9.3
			l-5.2-3.2l-14.9,8.9l-11.6-11.6l8.9-14.9l-3.2-5.2c-4.3-6.9-7.4-14.5-9.3-22.3l-1.4-5.9l-16.8-4.2v-16.4l16.8-4.2l1.4-5.9
			c1.9-7.8,5-15.4,9.3-22.3l3.2-5.2l-8.9-14.9l11.6-11.6l14.9,8.9l5.2-3.2c6.9-4.3,14.5-7.4,22.3-9.3l5.9-1.4l4.2-16.8h16.4
			l4.2,16.8l5.9,1.4c7.9,1.9,15.4,5,22.3,9.3l5.2,3.2l14.9-8.9l11.6,11.6l-9,14.9l3.2,5.2c4.3,6.9,7.4,14.5,9.3,22.3l1.4,5.9
			l16.8,4.2V394.2z M480,376H364v-13.8l-20.4-5.1c-1.8-5.8-4.1-11.4-7-16.8l10.9-18.1l-33.7-33.7l-18.1,10.9c-5.4-2.8-11-5.2-16.8-7
			l-5.1-20.5h-47.6l-5.1,20.4c-5.8,1.8-11.4,4.1-16.8,7l-18.1-10.8l-33.7,33.7l10.8,18.1c-2.8,5.4-5.2,11-7,16.8l-20.5,5.1V376H20
			V84h460V376z M480,64H20V26c0-3.3,2.7-6,6-6h448c3.3,0,6,2.7,6,6V64z"/>
		<path class="st0" d="M250,352c-18.8,0-34,15.3-34,34c0,18.8,15.3,34,34,34c18.7,0,34-15.3,34-34C284,367.3,268.7,352,250,352z
			 M250,400c-7.7,0-14-6.3-14-14c0-7.7,6.3-14,14-14c7.7,0,14,6.3,14,14C264,393.7,257.7,400,250,400z"/>
		<path class="st0" d="M316,386c0,11-2.8,21.8-7.9,31.4l-1,1.8l-17.6-9.5l0.9-1.8c3.6-6.7,5.5-14.3,5.5-21.9c0-25.4-20.6-46-46-46
			c-7.6,0-15.2,1.9-21.9,5.5l-1.8,1l-9.5-17.6l1.8-1c9.6-5.2,20.4-7.9,31.4-7.9C286.4,320,316,349.6,316,386z"/>
		<path class="st0" d="M228,250L228,250c0,5.5-4.5,10-10,10h-88c-5.5,0-10-4.5-10-10v0c0-5.5,4.5-10,10-10h88
			C223.5,240,228,244.5,228,250z"/>
		<path class="st0" d="M380,250L380,250c0,5.5-4.5,10-10,10h-88c-5.5,0-10-4.5-10-10v0c0-5.5,4.5-10,10-10h88
			C375.5,240,380,244.5,380,250z"/>
		<path class="st0" d="M448.1,226l-7.1,7.1c-8.4,8.4-13.1,19.6-13.1,31.6V306c0,27.6-22.4,50-50,50h-2v-20h2c16.5,0,30-13.5,30-30
			v-41.4c0-14.1,4.4-27.5,12.8-38.6c-8.4-11.2-12.8-24.5-12.8-38.6V146c0-16.5-13.5-30-30-30h-2V96h2c27.6,0,50,22.4,50,50v41.4
			c0,11.9,4.6,23.1,13.1,31.6L448.1,226z"/>
		<path class="st0" d="M380,186L380,186c0,5.5-4.5,10-10,10h-88c-5.5,0-10-4.5-10-10v0c0-5.5,4.5-10,10-10h88
			C375.5,176,380,180.5,380,186z"/>
		<path class="st0" d="M380,218L380,218c0,5.5-4.5,10-10,10H130c-5.5,0-10-4.5-10-10v0c0-5.5,4.5-10,10-10h240
			C375.5,208,380,212.5,380,218z"/>
		<path class="st0" d="M92,187.4c0,14.1-4.4,27.5-12.8,38.6c8.4,11.2,12.8,24.5,12.8,38.6V306c0,16.5,13.5,30,30,30h2v20h-2
			c-27.6,0-50-22.4-50-50v-41.4c0-11.9-4.6-23.1-13.1-31.6l-7.1-7.1l7.1-7.1c8.4-8.4,13.1-19.6,13.1-31.6V146c0-27.6,22.4-50,50-50
			h2v20h-2c-16.5,0-30,13.5-30,30V187.4z"/>
	</g>
	<g>
		<path class="st0" d="M52,42L52,42c0,5.5-4.5,10-10,10h0c-5.5,0-10-4.5-10-10v0c0-5.5,4.5-10,10-10h0C47.5,32,52,36.5,52,42z"/>
	</g>
	<g>
		<path class="st0" d="M84,42L84,42c0,5.5-4.5,10-10,10h0c-5.5,0-10-4.5-10-10v0c0-5.5,4.5-10,10-10h0C79.5,32,84,36.5,84,42z"/>
	</g>
	<g>
		<path class="st0" d="M116,42L116,42c0,5.5-4.5,10-10,10h0c-5.5,0-10-4.5-10-10v0c0-5.5,4.5-10,10-10h0C111.5,32,116,36.5,116,42z"
			/>
	</g>
</g>
</svg>
