<?xml version="1.0" encoding="UTF-8"?>
<!DOCTYPE svg PUBLIC "-//W3C//DTD SVG 1.1//EN" "http://www.w3.org/Graphics/SVG/1.1/DTD/svg11.dtd">
<!-- Creator: CorelDRAW X8 -->
<svg xmlns="http://www.w3.org/2000/svg" xml:space="preserve" width="176.682mm" height="125.563mm" version="1.1" style="shape-rendering:geometricPrecision; text-rendering:geometricPrecision; image-rendering:optimizeQuality; fill-rule:evenodd; clip-rule:evenodd"
viewBox="0 0 17748 12613"
 xmlns:xlink="http://www.w3.org/1999/xlink">
 <defs>
  <style type="text/css">
   <![CDATA[
    .fil0 {fill:#FEFEFE}
    .fil1 {fill:#FEFEFE;fill-rule:nonzero}
   ]]>
  </style>
 </defs>
 <g id="Слой_x0020_1">
  <metadata id="CorelCorpID_0Corel-Layer"/>
  <path class="fil0" d="M1738 11546l-413 0 -152 -448 -621 0 -149 448 -403 0 628 -1699 498 0 612 1699zm-654 -720l-215 -639 -10 0 -215 639 440 0zm1008 -979l1461 0 0 1699 -409 0 0 -1408 -644 0 0 1039c0,68 -9,127 -27,175 -18,49 -41,87 -68,114 -27,27 -64,48 -110,63 -46,15 -90,25 -132,29 -42,4 -94,6 -155,6 -98,0 -168,-4 -212,-13l0 -267c32,9 77,13 136,13 107,0 160,-57 160,-172l0 -1278zm3150 291l-521 0 0 1408 -409 0 0 -1408 -523 0 0 -291 1453 0 0 291zm1796 1408l-414 0 -152 -448 -620 0 -150 448 -403 0 629 -1699 497 0 613 1699zm-655 -720l-215 -639 -10 0 -215 639 440 0zm1283 720l-440 0 0 -1699 390 0 0 1186 770 -1186 440 0 0 1699 -390 0 0 -1204 -770 1204zm720 -2212c-7,99 -42,180 -106,241 -64,61 -149,91 -255,91 -108,0 -194,-30 -258,-91 -64,-61 -98,-142 -104,-241l213 0c10,50 26,87 47,110 21,22 55,34 102,34 87,0 136,-48 146,-144l215 0zm2330 2212l-408 0 0 -1408 -707 0 0 1408 -409 0 0 -1699 1524 0 0 1699zm532 -1699l1461 0 0 1699 -409 0 0 -1408 -644 0 0 1039c0,68 -9,127 -27,175 -19,49 -41,87 -68,114 -27,27 -64,48 -110,63 -47,15 -91,25 -133,29 -41,4 -93,6 -154,6 -98,0 -168,-4 -212,-13l0 -267c31,9 77,13 136,13 107,0 160,-57 160,-172l0 -1278zm3388 1699l-414 0 -152 -448 -620 0 -150 448 -403 0 629 -1699 497 0 613 1699zm-655 -720l-215 -639 -10 0 -215 639 440 0zm2144 689c-192,38 -375,57 -549,57 -70,0 -136,-3 -198,-9 -62,-6 -131,-19 -207,-39 -76,-20 -140,-47 -194,-81 -53,-34 -98,-82 -134,-144 -37,-62 -55,-135 -55,-219l0 -746c0,-342 262,-513 788,-513 129,0 309,19 539,57l0 307c-208,-49 -386,-74 -534,-74 -59,0 -108,2 -145,6 -38,3 -77,12 -118,26 -41,14 -72,36 -92,67 -20,30 -30,70 -30,119l0 722c0,154 141,231 422,231 123,0 293,-26 507,-76l0 309zm1584 -1377l-521 0 0 1408 -408 0 0 -1408 -524 0 0 -291 1453 0 0 291z"/>
  <path class="fil0" d="M8891 399c2219,0 4018,1799 4018,4018 0,2219 -1799,4017 -4018,4017 -2219,0 -4018,-1798 -4018,-4017 0,-2219 1799,-4018 4018,-4018zm-2531 2347l2948 -1129 2113 883 0 54 -2121 -710 -1102 809 1102 -428 2121 723 0 395 -2121 -711 -1431 891 1394 -446 2158 723 0 355 -2121 -711 -1818 1031 1781 -586 2158 723 0 382 -2121 -710 -2139 1113 2102 -668 2158 722 0 374 -2121 -711 -2320 1058 2283 -613 2152 721 -2855 862 -2200 -700 0 -3696z"/>
  <path class="fil1" d="M13307 4417c0,-2439 -1978,-4417 -4416,-4417 -2439,0 -4417,1978 -4417,4417 0,2438 1978,4416 4417,4416 2438,0 4416,-1978 4416,-4416zm-201 0c0,2327 -1888,4215 -4215,4215 -2328,0 -4216,-1888 -4216,-4215 0,-2328 1888,-4216 4216,-4216 2327,0 4215,1888 4215,4216z"/>
  <polygon class="fil1" points="37,12110 426,12110 426,12605 360,12605 360,12168 103,12168 103,12605 37,12605 "/>
  <path id="1" class="fil1" d="M533 12605l0 -495 187 0c33,0 58,2 75,5 25,4 45,12 62,23 16,11 29,27 39,48 10,20 15,43 15,67 0,42 -13,78 -40,107 -27,29 -75,43 -145,43l-127 0 0 202 -66 0zm66 -260l128 0c42,0 72,-8 90,-23 18,-16 27,-38 27,-67 0,-21 -6,-38 -16,-53 -11,-15 -24,-25 -41,-29 -11,-3 -32,-5 -61,-5l-127 0 0 177z"/>
  <path id="2" class="fil1" d="M959 12364c0,-82 22,-146 66,-192 44,-47 101,-70 171,-70 46,0 87,11 123,33 37,21 65,52 84,91 19,39 29,83 29,132 0,50 -10,95 -30,135 -21,39 -49,69 -86,90 -37,20 -78,30 -120,30 -47,0 -89,-11 -125,-34 -37,-22 -65,-53 -84,-92 -19,-38 -28,-79 -28,-123zm68 1c0,60 16,107 48,141 32,34 72,51 120,51 49,0 90,-17 122,-52 32,-34 47,-83 47,-147 0,-40 -6,-75 -20,-105 -14,-30 -33,-53 -60,-70 -26,-16 -55,-24 -88,-24 -46,0 -86,16 -119,47 -34,32 -50,85 -50,159z"/>
  <polygon id="3" class="fil1" points="1518,12110 1577,12110 1577,12502 1840,12110 1905,12110 1905,12605 1846,12605 1846,12214 1583,12605 1518,12605 "/>
  <path id="4" class="fil1" d="M1986 12465l62 -16c5,24 17,48 38,72 21,24 48,36 82,36 34,0 62,-9 82,-26 20,-18 30,-40 30,-65 0,-27 -11,-49 -32,-65 -21,-16 -50,-24 -86,-24l-31 0 0 -57c30,0 53,-2 69,-6 16,-3 30,-12 42,-26 12,-14 18,-31 18,-49 0,-21 -8,-40 -25,-56 -16,-16 -39,-24 -67,-24 -25,0 -46,7 -64,19 -17,13 -29,29 -36,50 -7,20 -10,36 -10,46l-63 -15c15,-105 73,-157 173,-157 48,0 87,13 115,40 28,27 42,58 42,94 0,46 -22,82 -65,107 25,7 46,22 63,43 17,22 26,47 26,77 0,43 -17,78 -50,107 -33,29 -76,43 -131,43 -93,0 -154,-49 -182,-148z"/>
  <path id="5" class="fil1" d="M2427 12605l0 -495 186 0c38,0 68,5 91,15 23,10 41,26 53,47 13,20 20,42 20,65 0,21 -6,41 -17,59 -12,19 -29,34 -52,46 30,8 53,23 69,45 16,21 24,46 24,74 0,24 -5,45 -15,65 -9,20 -22,35 -36,46 -14,11 -32,19 -54,25 -22,5 -48,8 -80,8l-189 0zm66 -287l107 0c29,0 50,-2 62,-6 17,-5 30,-13 38,-24 8,-12 13,-26 13,-44 0,-16 -4,-31 -12,-43 -8,-13 -19,-21 -34,-26 -15,-4 -40,-7 -75,-7l-99 0 0 150zm0 229l123 0c21,0 36,-1 45,-3 15,-2 27,-7 38,-13 10,-6 18,-16 25,-28 6,-12 9,-26 9,-41 0,-19 -4,-35 -14,-49 -9,-13 -22,-23 -39,-28 -17,-6 -41,-9 -73,-9l-114 0 0 171z"/>
  <path id="6" class="fil1" d="M2848 12364c0,-82 22,-146 66,-192 44,-47 101,-70 171,-70 46,0 87,11 123,33 37,21 65,52 84,91 19,39 29,83 29,132 0,50 -10,95 -30,135 -21,39 -49,69 -86,90 -37,20 -77,30 -120,30 -47,0 -89,-11 -125,-34 -37,-22 -65,-53 -84,-92 -19,-38 -28,-79 -28,-123zm68 1c0,60 16,107 48,141 32,34 72,51 120,51 49,0 90,-17 122,-52 32,-34 47,-83 47,-147 0,-40 -6,-75 -20,-105 -14,-30 -33,-53 -60,-70 -26,-16 -55,-24 -88,-24 -46,0 -86,16 -119,47 -34,32 -50,85 -50,159z"/>
  <path id="7" class="fil1" d="M4257 12431l65 17c-14,54 -38,95 -74,123 -35,28 -79,42 -130,42 -54,0 -97,-11 -130,-32 -34,-22 -59,-53 -76,-95 -18,-41 -26,-85 -26,-132 0,-52 9,-96 29,-135 20,-38 48,-67 84,-87 36,-20 76,-30 120,-30 49,0 91,13 124,38 34,25 58,60 71,106l-64 15c-12,-36 -28,-62 -50,-78 -22,-17 -49,-25 -82,-25 -38,0 -70,9 -96,27 -25,18 -43,43 -53,74 -11,30 -16,62 -16,95 0,42 6,78 19,110 12,31 31,54 57,70 25,16 53,23 83,23 37,0 68,-10 93,-31 25,-22 43,-53 52,-95z"/>
  <polygon id="8" class="fil1" points="4506,12605 4506,12168 4343,12168 4343,12110 4735,12110 4735,12168 4572,12168 4572,12605 "/>
  <path id="9" class="fil1" d="M4799 12605l0 -495 186 0c38,0 68,5 91,15 23,10 41,26 53,47 13,20 20,42 20,65 0,21 -6,41 -17,59 -12,19 -29,34 -52,46 30,8 53,23 69,45 16,21 24,46 24,74 0,24 -5,45 -15,65 -9,20 -21,35 -36,46 -14,11 -32,19 -54,25 -22,5 -48,8 -80,8l-189 0zm66 -287l107 0c29,0 50,-2 62,-6 17,-5 30,-13 38,-24 8,-12 13,-26 13,-44 0,-16 -4,-31 -12,-43 -8,-13 -19,-21 -34,-26 -15,-4 -40,-7 -75,-7l-99 0 0 150zm0 229l123 0c21,0 36,-1 45,-3 15,-2 28,-7 38,-13 10,-6 18,-16 25,-28 6,-12 9,-26 9,-41 0,-19 -4,-35 -14,-49 -9,-13 -22,-23 -39,-28 -17,-6 -41,-9 -73,-9l-114 0 0 171z"/>
  <path id="10" class="fil1" d="M5220 12364c0,-82 22,-146 66,-192 44,-47 101,-70 171,-70 46,0 87,11 123,33 37,21 65,52 84,91 20,39 29,83 29,132 0,50 -10,95 -30,135 -20,39 -49,69 -86,90 -37,20 -77,30 -120,30 -47,0 -89,-11 -125,-34 -37,-22 -65,-53 -84,-92 -19,-38 -28,-79 -28,-123zm68 1c0,60 16,107 48,141 32,34 72,51 120,51 50,0 90,-17 122,-52 32,-34 47,-83 47,-147 0,-40 -6,-75 -20,-105 -13,-30 -33,-53 -60,-70 -26,-16 -55,-24 -88,-24 -46,0 -86,16 -119,47 -34,32 -50,85 -50,159z"/>
  <polygon id="11" class="fil1" points="5970,12110 6358,12110 6358,12605 6293,12605 6293,12168 6036,12168 6036,12605 5970,12605 "/>
  <path id="12" class="fil1" d="M6502 12110l309 0 0 495 -65 0 0 -437 -178 0 0 255c0,52 -2,90 -7,114 -5,24 -15,43 -31,56 -15,13 -35,20 -59,20 -14,0 -32,-3 -52,-9l12 -58c10,6 20,8 27,8 15,0 26,-5 33,-16 8,-11 11,-38 11,-79l0 -349z"/>
  <path id="13" class="fil1" d="M6865 12605l190 -495 72 0 201 495 -74 0 -58 -150 -208 0 -54 150 -69 0zm142 -203l169 0 -52 -137c-15,-42 -27,-76 -35,-104 -7,33 -16,64 -27,96l-55 145z"/>
  <path id="14" class="fil1" d="M7717 12431l66 17c-14,54 -39,95 -74,123 -36,28 -79,42 -131,42 -53,0 -96,-11 -130,-32 -33,-22 -58,-53 -76,-95 -17,-41 -26,-85 -26,-132 0,-52 10,-96 30,-135 19,-38 47,-67 84,-87 36,-20 76,-30 119,-30 50,0 91,13 125,38 34,25 57,60 71,106l-65 15c-11,-36 -28,-62 -50,-78 -21,-17 -49,-25 -82,-25 -38,0 -69,9 -95,27 -25,18 -43,43 -54,74 -10,30 -15,62 -15,95 0,42 6,78 18,110 12,31 31,54 57,70 26,16 54,23 84,23 37,0 67,-10 93,-31 25,-22 42,-53 51,-95z"/>
  <polygon id="15" class="fil1" points="7967,12605 7967,12168 7804,12168 7804,12110 8195,12110 8195,12168 8032,12168 8032,12605 "/>
  <polygon id="16" class="fil1" points="8264,12110 8324,12110 8324,12502 8587,12110 8652,12110 8652,12605 8592,12605 8592,12214 8330,12605 8264,12605 "/>
  <path id="17" class="fil1" d="M8761 12110l65 0 0 217c30,0 51,-6 63,-17 13,-12 28,-40 47,-84 14,-33 25,-56 34,-69 9,-13 21,-25 38,-34 16,-9 34,-13 54,-13 25,0 39,0 40,0l0 57c-2,0 -7,0 -13,0 -7,-1 -12,-1 -13,-1 -21,0 -37,5 -47,15 -10,11 -22,32 -35,65 -17,42 -31,69 -42,80 -12,10 -26,19 -42,26 32,8 64,38 95,88l102 165 -81 0 -83 -134c-23,-37 -42,-63 -57,-77 -16,-14 -35,-21 -60,-21l0 232 -65 0 0 -495z"/>
  <path id="18" class="fil1" d="M9134 12364c0,-82 22,-146 66,-192 44,-47 101,-70 171,-70 46,0 87,11 124,33 36,21 64,52 83,91 20,39 29,83 29,132 0,50 -10,95 -30,135 -20,39 -49,69 -86,90 -37,20 -77,30 -120,30 -47,0 -89,-11 -125,-34 -37,-22 -65,-53 -84,-92 -19,-38 -28,-79 -28,-123zm68 1c0,60 16,107 48,141 32,34 72,51 120,51 50,0 90,-17 122,-52 32,-34 48,-83 48,-147 0,-40 -7,-75 -21,-105 -13,-30 -33,-53 -59,-70 -27,-16 -56,-24 -89,-24 -46,0 -86,16 -119,47 -34,32 -50,85 -50,159z"/>
  <path id="19" class="fil1" d="M9689 12605l0 -495 185 0c38,0 68,5 91,15 23,10 41,26 54,47 13,20 19,42 19,65 0,21 -6,41 -17,59 -11,19 -29,34 -52,46 30,8 53,23 69,45 16,21 24,46 24,74 0,24 -5,45 -14,65 -10,20 -22,35 -37,46 -14,11 -32,19 -54,25 -22,5 -48,8 -80,8l-188 0zm65 -287l107 0c29,0 50,-2 63,-6 16,-5 29,-13 37,-24 9,-12 13,-26 13,-44 0,-16 -4,-31 -12,-43 -8,-13 -19,-21 -34,-26 -14,-4 -39,-7 -75,-7l-99 0 0 150zm0 229l123 0c22,0 36,-1 45,-3 15,-2 28,-7 38,-13 10,-6 18,-16 25,-28 6,-12 10,-26 10,-41 0,-19 -5,-35 -15,-49 -9,-13 -22,-23 -39,-28 -17,-6 -41,-9 -72,-9l-115 0 0 171z"/>
  <path id="20" class="fil1" d="M10109 12364c0,-82 22,-146 66,-192 45,-47 101,-70 171,-70 46,0 87,11 124,33 36,21 64,52 84,91 19,39 28,83 28,132 0,50 -10,95 -30,135 -20,39 -49,69 -86,90 -37,20 -77,30 -120,30 -47,0 -88,-11 -125,-34 -37,-22 -65,-53 -83,-92 -19,-38 -29,-79 -29,-123zm68 1c0,60 16,107 48,141 32,34 72,51 120,51 50,0 90,-17 122,-52 32,-34 48,-83 48,-147 0,-40 -7,-75 -21,-105 -13,-30 -33,-53 -59,-70 -27,-16 -56,-24 -88,-24 -47,0 -87,16 -120,47 -33,32 -50,85 -50,159z"/>
  <path id="21" class="fil1" d="M10668 12110l59 0 0 392 264 -392 65 0 0 495 -60 0 0 -391 -262 391 -66 0 0 -495zm247 -119l41 0c-3,29 -14,51 -31,66 -17,15 -40,23 -69,23 -29,0 -52,-8 -69,-23 -17,-15 -27,-37 -31,-66l42 0c3,16 9,28 19,35 9,8 22,12 37,12 19,0 33,-4 42,-11 9,-8 15,-20 19,-36z"/>
  <polygon id="22" class="fil1" points="11481,12605 11481,12168 11318,12168 11318,12110 11710,12110 11710,12168 11546,12168 11546,12605 "/>
  <path id="23" class="fil1" d="M11700 12605l190 -495 72 0 201 495 -74 0 -58 -150 -208 0 -54 150 -69 0zm142 -203l169 0 -52 -137c-15,-42 -27,-76 -35,-104 -7,33 -16,64 -28,96l-54 145z"/>
  <path id="24" class="fil1" d="M12215 12605l0 -495 187 0c33,0 58,2 75,5 24,4 45,12 61,23 17,11 30,27 40,48 10,20 15,43 15,67 0,42 -14,78 -40,107 -27,29 -76,43 -146,43l-126 0 0 202 -66 0zm66 -260l127 0c43,0 73,-8 91,-23 17,-16 26,-38 26,-67 0,-21 -5,-38 -16,-53 -10,-15 -24,-25 -41,-29 -11,-3 -31,-5 -61,-5l-126 0 0 177z"/>
  <path id="25" class="fil1" d="M12679 12110l66 0 0 211 118 0c77,0 128,14 152,43 24,28 37,61 37,97 0,39 -13,72 -40,101 -26,28 -74,43 -145,43l-188 0 0 -495zm66 439l119 0c41,0 71,-7 89,-21 19,-14 28,-36 28,-66 0,-21 -6,-38 -17,-52 -11,-14 -25,-23 -43,-27 -18,-3 -47,-5 -89,-5l-87 0 0 171zm366 -439l66 0 0 495 -66 0 0 -495z"/>
  <polygon id="26" class="fil1" points="13481,12110 13540,12110 13540,12502 13803,12110 13868,12110 13868,12605 13809,12605 13809,12214 13546,12605 13481,12605 "/>
  <path id="27" class="fil1" d="M14118 12110l66 0 162 304 140 -304 65 0 -185 385c-24,48 -43,80 -57,95 -15,14 -36,22 -64,22 -17,0 -38,-4 -62,-12l0 -56c17,10 36,15 56,15 15,0 29,-5 41,-15 11,-10 24,-34 38,-70l-200 -364z"/>
  <polygon id="28" class="fil1" points="14607,12110 14996,12110 14996,12605 14930,12605 14930,12168 14673,12168 14673,12605 14607,12605 "/>
  <path id="29" class="fil1" d="M15049 12605l190 -495 72 0 201 495 -74 0 -58 -150 -208 0 -54 150 -69 0zm142 -203l169 0 -52 -137c-15,-42 -27,-76 -35,-104 -7,33 -16,64 -27,96l-55 145z"/>
  <path id="30" class="fil1" d="M15565 12110l66 0 0 217c30,0 51,-6 63,-17 12,-12 28,-40 47,-84 13,-33 25,-56 33,-69 9,-13 22,-25 38,-34 17,-9 35,-13 55,-13 25,0 38,0 40,0l0 57c-3,0 -7,0 -13,0 -8,-1 -12,-1 -14,-1 -21,0 -36,5 -46,15 -11,11 -22,32 -36,65 -16,42 -30,69 -42,80 -11,10 -25,19 -41,26 32,8 64,38 95,88l102 165 -82 0 -83 -134c-22,-37 -41,-63 -57,-77 -15,-14 -35,-21 -59,-21l0 232 -66 0 0 -495z"/>
  <path id="31" class="fil1" d="M15939 12364c0,-82 22,-146 66,-192 44,-47 101,-70 171,-70 45,0 86,11 123,33 37,21 65,52 84,91 19,39 29,83 29,132 0,50 -10,95 -31,135 -20,39 -48,69 -86,90 -37,20 -77,30 -120,30 -46,0 -88,-11 -125,-34 -36,-22 -64,-53 -83,-92 -19,-38 -28,-79 -28,-123zm67 1c0,60 16,107 48,141 32,34 73,51 121,51 49,0 90,-17 122,-52 31,-34 47,-83 47,-147 0,-40 -7,-75 -20,-105 -14,-30 -34,-53 -60,-70 -26,-16 -55,-24 -88,-24 -46,0 -86,16 -120,47 -33,32 -50,85 -50,159z"/>
  <path id="32" class="fil1" d="M16493 12605l0 -495 186 0c38,0 68,5 91,15 23,10 40,26 53,47 13,20 20,42 20,65 0,21 -6,41 -17,59 -12,19 -29,34 -52,46 30,8 53,23 69,45 16,21 24,46 24,74 0,24 -5,45 -15,65 -10,20 -22,35 -36,46 -14,11 -32,19 -54,25 -22,5 -48,8 -80,8l-189 0zm66 -287l107 0c29,0 50,-2 62,-6 17,-5 30,-13 38,-24 8,-12 13,-26 13,-44 0,-16 -4,-31 -12,-43 -8,-13 -19,-21 -34,-26 -15,-4 -40,-7 -75,-7l-99 0 0 150zm0 229l123 0c21,0 36,-1 45,-3 15,-2 27,-7 38,-13 10,-6 18,-16 25,-28 6,-12 9,-26 9,-41 0,-19 -4,-35 -14,-49 -9,-13 -23,-23 -39,-28 -17,-6 -41,-9 -73,-9l-114 0 0 171z"/>
  <path id="33" class="fil1" d="M16958 12110l66 0 0 217c30,0 51,-6 63,-17 12,-12 27,-40 46,-84 14,-33 25,-56 34,-69 9,-13 22,-25 38,-34 17,-9 35,-13 55,-13 25,0 38,0 39,0l0 57c-2,0 -6,0 -13,0 -7,-1 -11,-1 -13,-1 -21,0 -36,5 -46,15 -11,11 -23,32 -36,65 -16,42 -30,69 -42,80 -11,10 -25,19 -41,26 32,8 63,38 94,88l102 165 -81 0 -83 -134c-23,-37 -42,-63 -57,-77 -15,-14 -35,-21 -59,-21l0 232 -66 0 0 -495z"/>
  <polygon id="34" class="fil1" points="17361,12110 17420,12110 17420,12502 17683,12110 17748,12110 17748,12605 17689,12605 17689,12214 17426,12605 17361,12605 "/>
  <path id="35" class="fil1" d="M3405 12605l0 -495 171 0c38,0 68,3 88,7 28,7 52,19 72,36 26,22 46,50 59,84 13,35 19,74 19,118 0,37 -4,71 -13,100 -9,29 -20,53 -34,72 -13,19 -28,34 -45,45 -16,11 -36,19 -59,24 -23,6 -49,9 -79,9l-179 0zm66 -58l105 0c33,0 59,-3 77,-9 19,-6 33,-15 44,-26 16,-15 28,-36 37,-63 8,-26 13,-58 13,-95 0,-52 -9,-92 -26,-120 -17,-27 -37,-46 -62,-56 -17,-6 -45,-10 -84,-10l-104 0 0 379z"/>
 </g>
</svg>
