<?xml version="1.0" encoding="UTF-8"?>
<!DOCTYPE svg PUBLIC "-//W3C//DTD SVG 1.1//EN" "http://www.w3.org/Graphics/SVG/1.1/DTD/svg11.dtd">
<!-- Creator: CorelDRAW X8 -->
<svg xmlns="http://www.w3.org/2000/svg" xml:space="preserve" width="277.661mm" height="56.2667mm" version="1.1" style="shape-rendering:geometricPrecision; text-rendering:geometricPrecision; image-rendering:optimizeQuality; fill-rule:evenodd; clip-rule:evenodd"
viewBox="0 0 27840 5642"
 xmlns:xlink="http://www.w3.org/1999/xlink">
 <defs>
  <style type="text/css">
   <![CDATA[
    .fil1 {fill:#F24F00}
    .fil0 {fill:#4F4F4F;fill-rule:nonzero}
    .fil2 {fill:#F24F00;fill-rule:nonzero}
   ]]>
  </style>
 </defs>
 <g id="Слой_x0020_1">
  <metadata id="CorelCorpID_0Corel-Layer"/>
  <path class="fil0" d="M17562 3098l0 -2050 1839 0 0 2050 -493 0 0 -1699 -853 0 0 1699 -493 0zm2122 5l0 -349c39,10 93,16 164,16 129,0 193,-69 193,-205l0 -1517 1763 0 0 2051 -493 0 0 -1700 -777 0 0 1254c0,82 -11,153 -33,212 -23,59 -50,105 -83,137 -33,33 -77,58 -132,76 -56,18 -109,30 -159,34 -50,6 -112,8 -186,8 -119,0 -204,-5 -257,-17zm2346 -5l759 -2050 600 0 739 2050 -500 0 -182 -518 -750 0 -180 518 -486 0zm777 -869l531 0 -259 -771 -13 0 -259 771zm1504 307l0 -899c0,-413 317,-620 951,-621 156,0 373,24 651,70l0 350c-251,-46 -466,-69 -645,-69 -72,0 -130,2 -175,6 -45,4 -92,15 -142,32 -50,17 -87,44 -111,80 -24,37 -36,85 -36,144l0 872c0,185 169,278 509,278 149,0 353,-23 612,-69l0 350c-231,47 -453,70 -663,70 -84,0 -164,-4 -239,-11 -74,-7 -157,-23 -249,-47 -91,-24 -169,-57 -234,-98 -64,-41 -118,-99 -163,-174 -44,-74 -66,-162 -66,-264zm1774 -1137l0 -351 1747 0 0 351 -625 0 0 1699 -493 0 0 -1699 -629 0z"/>
  <path class="fil0" d="M20899 4603l-130 0 0 -827 130 0 0 358c33,0 58,-4 74,-12 15,-8 32,-25 48,-50l118 -177c36,-54 65,-87 88,-100 22,-12 65,-19 127,-19l60 0 0 87 -68 0c-22,0 -41,7 -58,21 -18,14 -36,37 -57,69l-83 133c-17,28 -33,49 -49,63 -17,14 -37,24 -62,30 33,7 98,63 194,167l241 257 -164 0 -236 -257c-51,-55 -87,-90 -109,-105 -23,-14 -44,-21 -64,-21l0 383zm1361 -604l0 393c0,45 -11,83 -33,114 -23,32 -53,55 -92,70 -39,15 -77,25 -115,31 -38,6 -79,9 -123,9 -239,0 -359,-75 -359,-224l0 -392c0,-158 120,-237 359,-237 242,0 363,79 363,236zm-124 391l0 -393c0,-102 -79,-153 -238,-153 -33,0 -63,2 -88,6 -26,3 -50,11 -74,21 -24,11 -42,26 -56,47 -13,21 -19,47 -19,79l0 393c0,95 79,143 239,143 157,0 236,-48 236,-143zm1238 213l-113 0 0 -699 -6 0 -276 699 -115 0 -284 -699 -7 0 0 699 -115 0 0 -827 192 0 275 688 4 2 260 -690 185 0 0 827zm907 0l-128 0 0 -741 -429 0 0 741 -128 0 0 -827 685 0 0 827zm953 0l-134 0 -98 -251 -367 0 -96 251 -127 0 341 -827 148 0 333 827zm-263 -336l-146 -374 -12 0 -145 374 303 0zm1105 336l-128 0 0 -383 -456 0 0 383 -128 0 0 -827 128 0 0 357 456 0 0 -357 128 0 0 827zm378 0l-155 0 0 -827 118 0 0 683 461 -683 154 0 0 827 -117 0 0 -694 -461 694zm888 0l-158 0 275 -368c-61,0 -114,-13 -157,-39 -43,-26 -65,-64 -65,-115l0 -143c0,-65 23,-109 68,-130 46,-21 123,-32 233,-32l302 0 0 827 -129 0 0 -353 -124 0 -245 353zm23 -652l0 114c0,34 13,59 37,77 25,18 72,27 142,27l167 0 0 -311 -179 0c-111,0 -167,31 -167,93z"/>
  <path class="fil1" d="M2821 734c1153,0 2087,934 2087,2087 0,1153 -934,2087 -2087,2087 -1153,0 -2087,-934 -2087,-2087 0,-1153 934,-2087 2087,-2087zm-1315 1219l1532 -586 1097 458 0 28 -1102 -369 -572 421 572 -223 1102 376 0 205 -1102 -369 -743 463 724 -232 1121 375 0 185 -1102 -369 -944 535 925 -304 1121 375 0 199 -1102 -369 -1111 578 1092 -347 1121 375 0 194 -1102 -369 -1465 668 1446 -437 1118 375 -1483 447 -1143 -363 0 -1920z"/>
  <path class="fil2" d="M5115 2821c0,-1267 -1027,-2295 -2294,-2295 -1267,0 -2295,1028 -2295,2295 0,1267 1028,2294 2295,2294 1267,0 2294,-1027 2294,-2294zm-105 0c0,1209 -980,2189 -2189,2189 -1209,0 -2190,-980 -2190,-2189 0,-1209 981,-2190 2190,-2190 1209,0 2189,981 2189,2190z"/>
  <path class="fil1" d="M4974 1514c133,219 234,459 295,715 18,55 44,92 76,115l0 0c4,2 8,5 12,7l0 0c0,1 1,1 2,1 6,4 11,6 17,9l0 0c1,0 2,0 3,1l0 0c1,0 2,0 3,1l0 0c1,0 3,1 4,1l1 0 0 0 0 0c2,1 3,1 5,2l0 0c1,0 2,0 3,1l0 0c1,0 2,0 3,0l0 0 2 1 0 0 175 25c36,5 67,30 67,66l0 723c0,37 -31,61 -67,67l-178 30 0 0c-2,1 -4,1 -6,1l0 0 -2 1 0 0c-1,0 -2,1 -3,1l0 0c-1,0 -2,1 -3,1l0 0c-3,1 -7,2 -10,4l0 0c-1,0 -2,1 -3,1l0 0c-1,0 -2,1 -3,1l0 0c-1,1 -3,2 -5,2l0 0 -2 2 0 0c-1,0 -2,1 -3,1l0 0c0,1 -1,1 -2,2l0 0 -3 1 0 0 -2 2 0 0c-1,0 -2,1 -2,1l0 0c-1,1 -2,1 -3,2l0 0c-1,0 -1,1 -2,1l0 0c-1,1 -2,1 -2,2l0 0c-1,1 -2,1 -3,2l0 0c0,0 -1,1 -2,2l0 0c-1,1 -3,2 -4,3l0 0c-1,1 -2,2 -3,2l0 0c0,1 -1,2 -2,3l0 0 -2 2 0 0c-1,0 -1,1 -2,2l0 0c-1,1 -2,1 -2,2l0 0c-1,1 -2,1 -2,2l0 0c-1,1 -2,2 -2,3l0 0c-1,0 -2,1 -2,2l0 0c-1,1 -2,2 -2,2l0 0c-1,1 -2,2 -2,3l0 0 -2 2 0 0c-1,1 -2,2 -2,3l0 0c-1,1 -2,2 -2,3l0 0 -2 2c-1,1 -1,2 -2,3l0 0c-1,1 -1,2 -2,3l0 0 -2 3 0 0c0,1 -1,2 -1,3l0 0c-1,1 -1,2 -2,3l0 0 -2 3 0 0c0,1 -1,2 -1,3l-1 0 -1 3 0 0 -2 3 0 0c0,1 -1,2 -1,4l0 0 -2 3 0 0 0 1 -2 2 -1 4 0 0 -2 3 0 0c0,2 -1,3 -1,4l0 0 -2 4 0 0 -1 3 0 0 -1 4 0 0 -2 4 0 0 -1 4 0 0c-1,1 -1,2 -2,4l0 0c0,1 0,2 -1,4l0 0 -1 4 0 0c-1,1 -1,3 -1,4l0 0 0 0c-63,251 -162,487 -294,703 -9,17 -16,33 -21,48 0,3 -1,5 -2,7l0 0c-1,2 -1,4 -2,7l0 0 -1 3 0 0 0 3 0 1 -1 2 0 1 -1 3 0 0 0 3 0 1 -1 2 0 1c0,1 0,2 0,3l0 0 -1 2 0 1 0 3 0 0 -1 3 0 0 0 3 0 0 0 3 0 1 0 2 0 1 0 2 0 1 0 2 0 1 0 2 0 1c0,1 0,2 0,2l0 1 0 2 0 1 0 2 0 1 0 2 0 1 0 2 1 1 0 1 0 1 0 2 0 1 1 2 0 1 0 2 0 1 1 2 0 1 0 1 0 2 1 1 0 1 0 2 1 1 0 2 0 1 1 1 0 1c1,2 1,3 2,5l0 1 0 0 1 2 0 0c0,2 1,3 2,5l0 0 0 1 1 2 0 0 1 3 0 0 1 0 0 2 2 3 0 0 1 2 0 0 1 3 0 0c1,1 1,1 2,2l0 0 1 3 0 0 1 2 0 0c1,1 1,2 2,3l106 140c22,30 26,69 0,95l-511 511c-26,26 -65,21 -95,0l-147 -105 0 0c0,0 -1,-1 -2,-1l0 0c-1,-1 -2,-1 -3,-1l0 0c0,-1 -1,-1 -2,-2l0 0c-1,0 -2,-1 -3,-1l0 0c0,-1 -1,-1 -2,-2l0 0c-1,0 -2,0 -3,-1l0 0c0,0 -1,-1 -2,-1 -4,-2 -7,-3 -11,-4l0 0c0,-1 -1,-1 -2,-1l0 0c-1,-1 -2,-1 -3,-1l0 0c-1,-1 -2,-1 -3,-1l0 0c-1,0 -1,-1 -2,-1l0 0c-1,0 -2,0 -3,-1l0 0c-1,0 -2,0 -3,0l0 0c-1,-1 -2,-1 -3,-1l0 0c-1,0 -1,0 -2,-1l0 0c-1,0 -2,0 -3,0l0 0c-1,0 -2,0 -3,-1l0 0c-1,0 -2,0 -3,0l0 0c-1,0 -2,0 -3,0l0 0c-1,0 -2,-1 -3,-1l0 0c-1,0 -2,0 -3,0l0 0c-1,0 -2,0 -3,0l0 0c-1,0 -2,0 -3,0l0 0c-1,0 -2,0 -2,0l0 0c-1,0 -3,0 -4,0l0 0c-1,0 -2,0 -3,0l0 0c-1,0 -2,0 -3,0l0 0 -3 0 0 0c-1,0 -2,0 -3,0l0 0c-1,0 -2,0 -3,0l0 0c-1,0 -2,0 -3,1l0 0c-1,0 -2,0 -3,0l0 0c-1,0 -2,0 -3,0l0 0c-1,0 -2,1 -4,1l0 0 -3 0 0 0c-1,0 -2,1 -3,1l0 0c-1,0 -2,0 -3,1l0 0c-1,0 -2,0 -4,0l0 0c-1,0 -2,1 -3,1l0 0c-1,0 -2,1 -3,1 -1,0 -2,0 -4,1l0 0c-1,0 -2,0 -3,1l0 0c-1,0 -2,0 -3,1l0 0c-2,0 -3,0 -4,1l-3 1 0 0 -4 1 0 0c-1,0 -2,1 -3,1l0 0 -4 2 0 0c-1,0 -2,0 -3,1l0 0c-1,0 -3,1 -4,1l0 0 -3 2 -4 1 0 0 -4 2c-1,0 -2,1 -3,2 -2,0 -3,1 -4,1l0 0 -4 2 0 0 -4 2 -3 2 -4 2 -4 2 7 -5c-218,133 -459,234 -714,295l-1 1 -1 0 -3 1 -1 0 -3 1 -1 1 -3 1 -1 0 -3 1 -1 0 -2 1 -1 1 -3 1 -1 0 -2 1 -2 1 -2 1 -1 0 -2 1 -2 1 -2 1 -1 0 -2 1 -1 1 -2 1 -1 0 -2 1 -2 1 -1 1 -2 1 -2 1 -1 0 -2 1 -1 1 -2 1 -1 1 -1 1 -2 1 -1 0 -2 1 -1 1 -1 1 -2 1 -1 1 -2 1 -1 1 -1 1 -1 1 -2 1 -1 1 -1 1 -1 0 -2 2 -1 0 -1 2 -1 0 -2 2 0 0 -2 2 -1 0 -1 2 -1 0 -1 2 -1 1 -1 1 -1 1 -1 1 -1 1 -2 1 0 1 -2 2 0 0 -1 1 -1 1 -1 2 -1 0 -1 2 -1 1 -1 1 0 1 -2 2 0 0 -1 2 -1 0 -1 2 0 1 -2 1 0 1 -1 2 -1 0 -1 2 0 1c-1,1 -2,3 -3,4l0 1 -1 1 0 1 -1 2 0 1 -1 1 -1 1 0 2 -1 1 -1 2 0 0 -1 2 0 1c-1,1 -1,3 -2,5l0 0c-1,1 -1,3 -2,5l0 0 0 0c0,1 0,2 -1,3l0 0c0,1 0,1 -1,2l0 0 0 3 0 0c-1,1 -1,2 -1,3l0 0c0,1 -1,2 -1,2l0 0 0 3 0 0 -25 175c-5,36 -30,67 -67,67l-723 0c-36,0 -60,-31 -66,-67l-31 -178c0,-1 0,-2 0,-3l0 0c0,-1 -1,-2 -1,-3l0 0c0,-1 0,-1 -1,-2l0 0 0 -3 0 0c-1,-1 -1,-2 -1,-3l0 0c-1,-1 -1,-2 -1,-2l0 0c-1,-1 -1,-2 -1,-3l0 0c0,-1 -1,-2 -1,-3l0 0 -1 -2 0 0c-1,-1 -1,-2 -1,-3l0 0c-1,-1 -1,-2 -1,-3l0 0c-1,0 -1,-1 -2,-2l0 0c0,-1 0,-2 -1,-3l0 0c0,0 -1,-1 -1,-2l0 0c-1,-1 -1,-2 -2,-3l0 0c0,0 -1,-1 -1,-2l0 0c0,-1 -1,-2 -1,-3l0 0c-1,0 -1,-1 -2,-2l0 0c0,-1 -1,-2 -2,-2l0 0c0,-1 -1,-2 -1,-3l0 0c-1,-1 -1,-1 -2,-2l0 0c0,-1 -1,-2 -2,-2l0 0c0,-1 -1,-2 -1,-3l0 0c-1,0 -2,-1 -2,-2l0 0c-1,-1 -1,-1 -2,-2l0 0c-1,-1 -1,-2 -2,-2l0 0c-1,-1 -1,-2 -2,-3l0 0c-1,0 -1,-1 -2,-2l0 0c-1,-1 -1,-1 -2,-2l0 0c-1,-1 -1,-1 -2,-2l0 0c-1,-1 -2,-2 -2,-2l0 0c-1,-1 -2,-2 -3,-2l0 0c0,-1 -1,-2 -2,-2l0 0c-1,-1 -2,-2 -2,-2l0 0c-1,-1 -2,-2 -3,-2l0 0c-1,-1 -1,-2 -2,-2l0 0c-1,-1 -2,-2 -3,-2l0 0c-1,-1 -2,-2 -2,-2l0 0c-1,-1 -2,-2 -3,-2l0 0c-1,-1 -2,-1 -3,-2l0 0c-1,-1 -2,-1 -3,-2l0 0c-1,-1 -1,-1 -2,-2l0 0c-1,0 -2,-1 -3,-2l0 0c-1,0 -2,-1 -3,-1l0 0c-1,-1 -2,-1 -3,-2l0 0 -3 -2 0 0 -3 -2 0 0c-1,0 -2,-1 -4,-1l0 0 -3 -2 0 0 -3 -1 0 0 -3 -2 0 0 -4 -2 0 0c-1,0 -2,-1 -3,-1l0 0c-1,-1 -3,-1 -4,-2l0 0c-1,0 -2,-1 -3,-1l0 0c-2,-1 -3,-1 -4,-2l0 0c-1,0 -3,-1 -4,-1l0 0c-1,-1 -2,-1 -4,-1l0 0c-1,-1 -2,-1 -3,-2l0 0 -4 -1 0 0c-2,-1 -3,-1 -4,-2l0 0c-2,0 -3,0 -4,-1l0 0 -4 -1 -4 -1c-252,-63 -488,-162 -703,-294l0 0 0 0 -4 -2 0 0 -4 -2 0 0 -3 -1 -1 0 0 -1c-2,-1 -5,-2 -7,-3l0 0 -3 -1 0 -1 -3 -1 -1 0 -2 -1 -2 -1 0 0 -3 -1 0 0 -3 -1 -1 0 -2 -1 -1 -1 -2 0 -2 -1 -1 0 -2 -1 -2 -1 -2 0 -1 -1 -2 0 -2 -1 -1 0 -2 -1 -2 0 -2 -1 -1 0 -2 -1 -1 0 -2 0 -2 -1 -2 0 -1 0 -2 -1 -1 0 -2 0 -1 -1 -2 0 -2 0 -1 0 -2 -1 -2 0 -1 0 -2 0 -1 0 -2 -1 -1 0 -2 0 -1 0 -2 0 -1 0 -2 0 -1 0 -2 0 -1 0 -2 0 -1 0 -2 0 -2 0 -1 0 -1 0 -2 0 -1 0 -2 0 -1 0 -2 0 -1 0 -2 1 -1 0 -2 0 -1 0 -2 0 -1 0 -1 1 -2 0 -1 0 -1 0 -2 1 -1 0 -2 0 -1 1 -2 0 -1 0 -1 1 -2 0 -1 0 -1 1 -2 0 -1 1 -1 0 -2 1 -1 0 -1 0 -2 1 -1 0 -1 1 -1 0 -2 1 -1 0 -2 1 -1 1 -1 0 0 0 -1 1 -2 0 0 0 -2 2 0 0 -3 1 0 0c-1,0 -1,1 -2,1l-2 1 -1 1 0 0c0,0 -1,0 -2,1l0 0 -3 1 -2 2 -141 106c-29,22 -68,26 -94,0l-511 -511c-26,-26 -22,-65 0,-94l104 -148 0 0c1,0 1,-1 2,-2l0 0c0,-1 1,-2 1,-3l0 0c1,0 1,-1 1,-2l0 0c1,-1 1,-2 2,-3l0 0c0,0 1,-1 1,-2l0 0c1,-1 1,-2 1,-3l0 0c1,0 1,-1 2,-2 1,-4 3,-7 4,-11l0 0c0,0 1,-1 1,-2l0 0c0,-1 0,-2 1,-3l0 0c0,-1 0,-2 1,-3l0 0c0,-1 0,-1 0,-2l0 0c1,-1 1,-2 1,-3l0 0c0,-1 1,-2 1,-3l0 0c0,-1 0,-2 1,-3l0 0c0,-1 0,-1 0,-2l0 0c0,-1 0,-2 1,-3l0 0c0,-1 0,-2 0,-3l0 0c0,-1 0,-2 1,-3l0 0c0,-1 0,-2 0,-3l0 0c0,-1 0,-2 0,-3l0 0c0,-1 0,-2 0,-3l0 0c1,-1 1,-2 1,-3l0 0c0,-1 0,-2 0,-3l0 0c0,-1 0,-1 0,-2l0 0c0,-1 0,-2 0,-4l0 0c0,-1 0,-2 0,-3l0 0c0,-1 0,-2 0,-3l0 0 0 -3 0 0c0,-1 0,-2 0,-3l0 0c0,-1 -1,-2 -1,-3l0 0c0,-1 0,-2 0,-3l0 0c0,-1 0,-2 0,-3l0 0c0,-1 -1,-2 -1,-3l0 0c0,-1 0,-2 0,-4l0 0 -1 -3 0 0c0,-1 0,-2 0,-3l0 0c-1,-1 -1,-2 -1,-3l0 0c0,-1 0,-2 -1,-4l0 0c0,-1 0,-2 0,-3l0 0c-1,-1 -1,-2 -1,-3 -1,-1 -1,-2 -1,-4l0 0c0,-1 -1,-2 -1,-3l0 0c0,-1 -1,-2 -1,-3l0 0c0,-2 -1,-3 -1,-4l-1 -3 0 0 -1 -4 0 0c-1,-1 -1,-2 -2,-3l0 0 -1 -4 0 0c0,-1 -1,-2 -1,-3l0 0c-1,-1 -1,-3 -2,-4l0 0 -1 -3 -2 -4 0 0 -1 -4c-1,-1 -2,-2 -2,-3 -1,-2 -1,-3 -2,-4l0 0 -2 -4 0 0 -1 -4 -2 -3 -2 -4 -2 -4 4 7c-133,-218 -233,-459 -295,-714 -17,-56 -43,-92 -75,-115l0 0c-4,-3 -8,-5 -12,-8l0 0c-1,0 -2,-1 -2,-1 -6,-3 -12,-6 -18,-8l0 0c-1,0 -2,-1 -2,-1l0 0c-1,0 -2,-1 -3,-1l0 0c-2,-1 -3,-1 -5,-2l0 0 0 0 -1 0c-1,0 -3,-1 -5,-1l0 0c0,-1 -1,-1 -2,-1l0 0c-1,0 -2,-1 -3,-1l0 0 -3 0 0 0 -174 -25c-37,-5 -67,-30 -67,-67l0 -723c0,-36 31,-60 67,-66l178 -31 0 0c1,0 3,0 5,-1l0 0 3 -1 0 0c1,0 2,0 3,0l0 0c1,-1 1,-1 2,-1l0 0c4,-1 7,-3 11,-4l0 0c1,-1 2,-1 3,-1l0 0c0,-1 1,-1 2,-1l0 0c2,-1 4,-2 5,-3l0 0 3 -1 0 0c1,-1 1,-1 2,-2l0 0c1,0 2,-1 3,-1l0 0 2 -1 0 0 3 -2 0 0c0,0 1,-1 2,-2l0 0c1,0 1,-1 2,-1l0 0c1,-1 2,-1 3,-2l0 0c0,0 1,-1 2,-2l0 0c1,0 1,-1 2,-1l0 0c1,-1 2,-2 3,-2l0 0c1,-1 3,-3 4,-4l0 0c1,-1 1,-1 2,-2l0 0c1,-1 2,-1 2,-2l0 0 3 -2 0 0c0,-1 1,-1 2,-2l0 0c0,-1 1,-2 2,-2l0 0c0,-1 1,-2 2,-3l0 0c1,0 1,-1 2,-2l0 0c1,-1 1,-2 2,-2l0 0c1,-1 1,-2 2,-3l0 0c1,-1 1,-1 2,-2l0 0 2 -3 0 0c1,-1 1,-2 2,-2l0 0c0,-1 1,-2 2,-3l0 0 2 -3c0,-1 1,-2 1,-3l0 0c1,0 2,-1 2,-2l0 0 2 -3 0 0c1,-1 1,-2 2,-3l0 0c0,-1 1,-2 2,-3l0 0 1 -3 0 0c1,-1 1,-2 2,-3l0 0 2 -4 0 0 1 -3 0 0c1,-1 1,-2 2,-3l0 0 2 -3 0 0 0 -1 1 -3 2 -3 0 0 1 -4 0 0c1,-1 1,-2 2,-3l0 0 1 -4 0 0 2 -4 0 0 1 -4 0 0 1 -3 0 0 2 -4 0 0c0,-2 1,-3 1,-4l0 0c1,-2 1,-3 1,-4l0 0 2 -4 0 0c0,-2 1,-3 1,-4l0 0 0 0c62,-252 162,-488 293,-703 9,-17 16,-33 21,-49 1,-2 2,-4 2,-6l0 -1c1,-2 2,-4 2,-6l0 -1 1 -2 0 -1 1 -3 0 0 1 -3 0 -1 0 -2 0 -1 1 -2 0 -1 0 -3 1 0c0,-1 0,-2 0,-3l0 0 0 -3 0 -1 1 -2 0 -1 0 -2 0 -1 0 -3 0 0 1 -2 0 -1 0 -2 0 -1 0 -3 0 0 0 -3 0 0 0 -3 0 0c0,-1 0,-2 0,-3l0 0 0 -2 0 -1 0 -2 0 -1 -1 -2 0 -1 0 -2 0 -1 0 -2 0 -1 -1 -2 0 -1 0 -2 0 0 -1 -3 0 0 0 -2 0 -1 0 -1 -1 -2 0 -2 0 -1 -1 -2 0 0 -1 -2 0 -1 0 -2 -1 -1c0,-1 -1,-3 -1,-4l0 -1 -1 0 0 -3 0 0c-1,-1 -2,-3 -2,-4l0 -1 0 0 -1 -3 -1 0 -1 -2 0 0 0 -1 -1 -2 -1 -2 0 0 -1 -3 0 0 -2 -2 0 0c0,-1 -1,-2 -1,-3l0 0 -1 -2 0 0 -2 -3 0 0c0,0 -1,-1 -1,-2l-106 -141c-22,-29 -26,-68 0,-94l511 -511c26,-26 64,-22 94,0l147 104 0 0c1,1 2,1 3,2l0 0c0,0 1,1 2,1l0 0c1,1 2,1 3,1l0 0c0,1 1,1 2,2l0 0c1,0 2,1 3,1l0 0c0,1 1,1 2,1l0 0c1,1 2,1 3,2 3,1 7,3 10,4l0 0c1,0 2,1 3,1l0 0c1,0 2,0 2,1l0 0c1,0 2,0 3,1l0 0c1,0 2,0 3,0l0 0c1,1 2,1 3,1l0 0c1,0 1,1 2,1l0 0c1,0 2,0 3,1l0 0c1,0 2,0 3,0l0 0c1,0 2,0 3,1l0 0c1,0 2,0 3,0l0 0c1,0 1,0 2,1l0 0c1,0 2,0 3,0l0 0c1,0 2,0 3,0l0 0c1,0 2,0 3,0l0 0c1,1 2,1 3,1l0 0c1,0 2,0 3,0l0 0c1,0 2,0 3,0l0 0c1,0 2,0 3,0l0 0c1,0 2,0 3,0l0 0c1,0 2,0 3,0l0 0 3 0 0 0c1,0 2,0 3,0l0 0c1,0 2,-1 3,-1l0 0c1,0 2,0 4,0l0 0c1,0 2,0 3,0l0 0c1,0 2,-1 3,-1l0 0c1,0 2,0 3,0l0 0 3 -1 0 0c1,0 2,0 4,0l0 0c1,-1 2,-1 3,-1l0 0c1,0 2,0 3,-1l0 0c1,0 2,0 3,0l0 0c2,-1 3,-1 4,-1 1,-1 2,-1 3,-1l0 0c1,0 2,-1 4,-1l0 0c1,0 2,-1 3,-1l0 0c1,0 2,-1 3,-1l4 -1 0 0 3 -1 0 0c1,-1 3,-1 4,-2l0 0 3 -1 0 0c1,0 3,-1 4,-1l0 0c1,-1 2,-1 3,-2l0 0 4 -1 4 -2 0 0 3 -1c1,-1 3,-1 4,-2 1,-1 2,-1 4,-2l0 0 3 -2 0 0 4 -1 4 -2 4 -2 3 -2 -7 4c219,-133 459,-233 715,-295l1 0 1 -1 3 0 1 -1 2 -1 2 0 2 -1 2 0 2 -1 1 -1 3 -1 1 0 3 -1 0 -1 3 -1 1 0 2 -1 2 -1 2 -1 1 0 2 -1 2 -1 1 -1 2 0 2 -1 1 -1 2 -1 1 0 2 -1 1 -1 2 -1 1 -1 2 -1 1 0 2 -2 1 0 2 -1 1 -1 2 -1 1 -1 2 -1 1 -1 2 -1 0 0 2 -2 1 0 2 -1 1 -1 1 -1 1 -1 2 -1 1 -1 1 -1 1 -1 2 -1 1 -1 1 -1 1 -1 1 -1 1 -1 2 -1 0 -1 2 -1 1 -1 1 -1 1 -1 1 -1 1 -1 1 -2 1 0 1 -2 1 0 1 -2 1 -1 1 -1 0 -1 2 -1 0 -1 2 -2 0 0 1 -2 1 -1 1 -1 0 -1 2 -2 0 0 1 -2 1 -1 1 -1 0 -1 1 -2 1 0c0,-2 1,-3 2,-5l0 0 1 -2 1 -1 1 -1 0 -1 1 -2 0 -1 1 -1 0 -1 1 -2 0 -1 1 -2 1 0c0,-2 1,-3 2,-5l0 0c0,-2 1,-3 1,-5l0 0 0 -1c1,0 1,-1 1,-2l0 0c1,-1 1,-2 1,-3l0 0 1 -2 0 -1c0,0 0,-1 1,-2l0 0c0,-1 0,-2 0,-3l0 0 1 -3 0 0 25 -174c5,-37 30,-67 66,-67l723 0c37,0 61,31 67,67l30 178c0,0 1,1 1,2l0 0c0,1 0,2 0,3l0 0c1,1 1,2 1,3l0 0 1 3 0 0c0,1 1,1 1,2l0 0c0,1 0,2 1,3l0 0c0,1 0,2 1,3l0 0c0,1 0,1 1,2l0 0 1 3 0 0c0,1 0,2 1,3l0 0c0,0 1,1 1,2l0 0c0,1 1,2 1,3l0 0c1,1 1,1 1,2l0 0c1,1 1,2 2,3l0 0c0,1 1,1 1,2l0 0c1,1 1,2 2,3l0 0c0,0 0,1 1,2l0 0c0,1 1,2 1,2l1 1c0,0 1,1 1,2l0 0c1,1 1,1 2,2l0 0c0,1 1,2 1,3l0 0c1,0 1,1 2,2l0 0c1,1 1,1 2,2l0 0c0,1 1,2 2,3l0 0c0,0 1,1 2,2l0 0c0,1 1,1 1,2l0 0c1,1 2,1 2,2l0 0c1,1 2,2 3,2l0 0c0,1 1,2 2,3l0 0c0,0 1,1 2,2l0 0c0,0 1,1 2,2l0 0c1,0 1,1 2,2l0 0c1,1 2,1 3,2l0 0c0,1 1,1 2,2l0 0c1,1 2,1 2,2l0 0c1,1 2,1 3,2l0 0c1,1 2,1 2,2l0 0c1,1 2,1 3,2l0 0c1,0 2,1 3,2l0 0c1,0 1,1 2,2l0 0c1,0 2,1 3,1l0 0c1,1 2,2 3,2l0 0c1,1 2,1 3,2l0 0c1,1 2,1 3,2l0 0c1,0 2,1 3,2l0 0 3 1 0 0 3 2 0 0c1,1 2,1 3,2l0 0 3 1 0 0 4 2 0 0 3 2 0 0 3 1 0 0c2,1 3,1 4,2l0 0c1,0 2,1 3,1l0 0c2,1 3,1 4,2l0 0c1,0 2,1 4,1l0 0c1,1 2,1 3,2l0 0c2,0 3,1 4,1l0 0c1,1 3,1 4,1l0 0 4 2 0 0c1,0 2,1 4,1l0 0c1,1 2,1 4,1l0 0c1,1 3,1 4,2 1,0 3,1 4,1 251,62 488,162 703,293l0 0 0 0 3 2 1 0 3 2 0 0 4 2 0 0 1 0c2,1 4,2 6,4l0 0 4 1 0 0 2 1 1 1 2 0 2 1 1 1 3 1 0 0 3 1 0 0 2 1 2 0 1 1 2 1 2 0 2 1 2 0 1 1 2 0 2 1 1 0 2 1 2 0 1 1 2 0 1 1 2 0 2 1 2 0 1 0 2 1 1 0 2 0 2 1 2 0 1 0 2 1 1 0 2 0 1 0 2 1 1 0 2 0 2 0 2 0 1 0 2 0 1 1 2 0 1 0 2 0 1 0 2 0 1 0 2 0 1 0 2 0 1 0 2 0 1 0 2 0 1 0 2 0 1 -1 2 0 1 0 1 0 2 0 1 0 2 0 1 -1 2 0 1 0 1 0 2 -1 1 0 2 0 1 0 1 -1 2 0 1 0 2 -1 1 0 1 0 2 -1 1 0 1 -1 2 0 1 0 1 -1 2 0 1 -1 1 0 1 -1 2 0 1 -1 2 0 1 -1 1 0 1 -1 1 -1 1 0 1 0 1 -1 0 0 3 -1 0 0 2 -1 0 0c1,-1 2,-1 3,-2l1 0 1 -1 0 0c1,0 2,-1 3,-1l0 0 2 -2 2 -1 141 -106c30,-22 69,-26 95,0l511 511c26,26 21,64 0,94l-105 147 0 0c0,1 -1,2 -1,3l0 0c-1,0 -1,1 -1,2l0 0c-1,1 -1,2 -2,3l0 0c0,0 -1,1 -1,2l0 0c-1,1 -1,2 -2,3l0 0c0,0 0,1 -1,2l0 0c0,1 -1,2 -1,3 -2,3 -3,7 -4,10l0 0c-1,1 -1,2 -1,3l0 0c-1,1 -1,2 -1,2l0 0c-1,1 -1,2 -1,3l0 0c0,1 -1,2 -1,3l0 0c0,1 0,2 -1,3l0 0c0,1 0,1 0,2l0 0c-1,1 -1,2 -1,3l0 0c0,1 0,2 -1,3l0 0c0,1 0,2 0,3l0 0c0,1 0,2 -1,3l0 0c0,1 0,1 0,2l0 0c0,1 0,2 0,3l0 0c0,1 -1,2 -1,3l0 0c0,1 0,2 0,3l0 0c0,1 0,2 0,3l0 0c0,1 0,2 0,3l0 0c0,1 0,2 0,3l0 0c0,1 0,2 0,3l0 0c0,1 0,2 0,3l0 0c0,1 0,2 0,3l0 0 0 3 0 0c0,1 0,2 0,3l0 0c0,1 0,2 0,3l0 0c0,1 0,2 1,4l0 0c0,1 0,2 0,3l0 0c0,1 0,2 0,3l0 0c0,1 1,2 1,3l0 0 0 3 0 0c0,1 1,2 1,4l0 0c0,1 0,2 1,3l0 0c0,1 0,2 0,3l0 0c0,1 1,2 1,3l0 0c0,2 1,3 1,4 0,1 0,2 1,3l0 0c0,1 0,2 1,4l0 0c0,1 0,2 1,3l0 0c0,1 0,2 1,3l1 4 0 0 1 3 0 0c0,1 1,3 1,4l0 0 2 3 0 0c0,1 0,3 1,4l0 0c0,1 1,2 1,3l0 0 2 4 1 4 0 0 2 3c0,1 1,3 2,4 0,1 1,2 1,4l0 0 2 3 0 0 2 4 2 4 2 4 2 3 -5 -7zm-2153 -1035c1293,0 2342,1048 2342,2342 0,1293 -1049,2342 -2342,2342 -1294,0 -2342,-1049 -2342,-2342 0,-1294 1048,-2342 2342,-2342z"/>
  <path class="fil2" d="M6946 3098l759 -2050 600 0 739 2050 -500 0 -182 -518 -750 0 -180 518 -486 0zm777 -869l531 0 -259 -771 -13 0 -259 771zm1391 874l0 -349c38,10 93,16 164,16 128,0 192,-69 192,-205l0 -1517 1763 0 0 2051 -493 0 0 -1700 -777 0 0 1254c0,82 -11,153 -33,212 -22,59 -50,105 -82,137 -33,33 -78,58 -133,76 -55,18 -108,30 -158,34 -51,6 -113,8 -187,8 -118,0 -204,-5 -256,-17zm2248 -1704l0 -351 1747 0 0 351 -626 0 0 1699 -493 0 0 -1699 -628 0zm1502 1699l759 -2050 600 0 739 2050 -500 0 -182 -518 -750 0 -180 518 -486 0zm777 -869l531 0 -259 -771 -12 0 -260 771zm1548 869l0 -2050 468 0 0 1432 932 -1432 528 0 0 2050 -468 0 0 -1453 -929 1453 -531 0zm528 -2669l256 0c12,60 31,105 57,132 26,28 67,42 123,42 105,0 164,-58 177,-174l259 0c-8,120 -51,217 -128,290 -77,74 -179,111 -308,111 -131,0 -234,-37 -311,-111 -76,-73 -118,-170 -125,-290z"/>
  <path class="fil2" d="M7639 4603l-128 0 0 -741 -430 0 0 741 -128 0 0 -827 686 0 0 827zm804 -664l0 172c0,71 -28,121 -85,150 -57,29 -137,44 -241,44l-128 0 0 298 -128 0 0 -827 280 0c35,0 65,1 91,3 25,1 52,5 81,12 29,6 52,15 69,27 17,11 32,27 43,47 12,21 18,45 18,74zm-125 166l0 -150c0,-23 -6,-42 -19,-57 -12,-15 -30,-25 -53,-31 -22,-6 -42,-10 -57,-11 -15,-1 -35,-2 -57,-2l-144 0 0 373 146 0c51,0 95,-9 130,-27 36,-18 54,-50 54,-95zm994 -106l0 393c0,45 -11,83 -33,114 -23,32 -53,55 -92,70 -39,15 -77,25 -115,31 -38,6 -79,9 -123,9 -239,0 -359,-75 -359,-224l0 -392c0,-158 120,-237 359,-237 242,0 363,79 363,236zm-124 391l0 -393c0,-102 -79,-153 -238,-153 -33,0 -63,2 -88,6 -26,3 -50,11 -74,21 -24,11 -42,26 -55,47 -14,21 -20,47 -20,79l0 393c0,95 79,143 239,143 157,0 236,-48 236,-143zm478 213l-154 0 0 -827 117 0 0 683 461 -683 155 0 0 827 -118 0 0 -694 -461 694zm1349 -330l0 166c0,30 -7,57 -21,79 -13,23 -30,40 -49,53 -19,12 -44,22 -74,29 -30,7 -58,12 -83,13 -25,2 -54,3 -86,3 -89,0 -181,-8 -276,-24l0 -95c106,22 194,32 263,32 26,0 48,0 65,-2 17,-1 38,-4 62,-10 24,-5 43,-15 56,-29 12,-14 19,-32 19,-54l0 -139c0,-53 -59,-79 -177,-79l-179 0 0 -79 156 0c119,0 179,-27 179,-82l0 -139c0,-44 -58,-66 -172,-66 -38,0 -89,2 -155,7 -65,5 -98,7 -100,7l0 -87c107,-6 192,-10 254,-10 96,0 168,10 218,31 50,20 75,56 75,108l0 154c0,28 -12,51 -35,67 -22,17 -50,28 -83,33l0 5c21,3 38,7 52,11 14,3 29,9 44,17 15,8 27,18 35,32 8,13 12,29 12,48zm836 27l0 139c0,60 -24,103 -71,127 -48,25 -125,37 -233,37l-315 0 0 -827 306 0c74,0 132,7 174,22 42,14 69,32 82,53 12,22 19,49 19,82l0 111c0,34 -10,60 -30,78 -20,17 -49,31 -88,39l0 5c46,8 83,23 112,46 30,23 44,52 44,88zm-158 -260l0 -97c0,-31 -12,-53 -36,-66 -24,-13 -64,-19 -119,-19l-178 0 0 280 182 0c55,0 93,-8 116,-23 23,-16 35,-41 35,-75zm30 394l0 -125c0,-22 -5,-40 -14,-53 -9,-13 -24,-23 -44,-28 -19,-6 -37,-9 -52,-10 -16,-2 -38,-2 -66,-2l-187 0 0 302 187 0c65,0 110,-7 136,-19 27,-13 40,-35 40,-65zm1017 -435l0 393c0,45 -11,83 -34,114 -22,32 -53,55 -92,70 -38,15 -77,25 -115,31 -37,6 -78,9 -122,9 -240,0 -360,-75 -360,-224l0 -392c0,-158 120,-237 360,-237 242,0 363,79 363,236zm-124 391l0 -393c0,-102 -79,-153 -238,-153 -33,0 -63,2 -89,6 -25,3 -50,11 -74,21 -23,11 -42,26 -55,47 -13,21 -20,47 -20,79l0 393c0,95 80,143 239,143 158,0 237,-48 237,-143zm1793 202c-76,16 -156,24 -240,24 -240,0 -361,-75 -361,-224l0 -393c0,-158 121,-237 361,-237 80,0 159,8 235,24l0 92c-84,-20 -162,-30 -232,-30 -34,0 -63,2 -89,5 -25,4 -50,11 -75,21 -25,9 -44,25 -57,46 -13,20 -20,47 -20,78l0 387c0,95 82,143 246,143 70,0 148,-10 232,-31l0 95zm801 -729l-289 0 0 740 -130 0 0 -740 -291 0 0 -87 710 0 0 87zm762 437l0 139c0,60 -24,103 -71,127 -48,25 -125,37 -233,37l-316 0 0 -827 307 0c74,0 132,7 174,22 41,14 69,32 82,53 12,22 19,49 19,82l0 111c0,34 -10,60 -30,78 -20,17 -49,31 -88,39l0 5c46,8 83,23 112,46 29,23 44,52 44,88zm-159 -260l0 -97c0,-31 -12,-53 -35,-66 -24,-13 -64,-19 -119,-19l-178 0 0 280 182 0c55,0 93,-8 116,-23 23,-16 34,-41 34,-75zm31 394l0 -125c0,-22 -5,-40 -14,-53 -9,-13 -24,-23 -44,-28 -19,-6 -37,-9 -52,-10 -16,-2 -38,-2 -66,-2l-187 0 0 302 187 0c64,0 110,-7 136,-19 27,-13 40,-35 40,-65zm907 169l-589 0 0 -827 576 0 0 87 -448 0 0 270 404 0 0 87 -404 0 0 297 461 0 0 86zm889 0l-128 0 0 -383 -456 0 0 383 -128 0 0 -827 128 0 0 357 456 0 0 -357 128 0 0 827zm934 0l-128 0 0 -383 -456 0 0 383 -128 0 0 -827 128 0 0 357 456 0 0 -357 128 0 0 827zm952 0l-133 0 -98 -251 -367 0 -97 251 -126 0 340 -827 148 0 333 827zm-263 -336l-145 -374 -12 0 -145 374 302 0zm483 336l-158 0 275 -368c-62,0 -114,-13 -157,-39 -43,-26 -65,-64 -65,-115l0 -143c0,-65 23,-109 68,-130 46,-21 123,-32 233,-32l301 0 0 827 -128 0 0 -353 -124 0 -245 353zm23 -652l0 114c0,34 13,59 37,77 25,18 72,27 142,27l167 0 0 -311 -179 0c-111,0 -167,31 -167,93zm-6130 62l0 366c0,149 -119,224 -359,224l-342 0 0 -827 341 0c240,0 360,79 360,237zm-122 363l0 -364c0,-31 -7,-58 -20,-78 -13,-21 -32,-37 -56,-46 -25,-10 -49,-17 -75,-21 -26,-3 -55,-5 -89,-5l-211 0 0 657 205 0c164,0 246,-48 246,-143z"/>
 </g>
</svg>
