<svg id="Слой_1" xmlns="http://www.w3.org/2000/svg" viewBox="0 0 1691 2175.8"><style>.st0{fill:none;stroke:red;stroke-width:70;stroke-linecap:round;stroke-linejoin:round}</style><path class="st0" d="M1493.8 367.2h66.8c52.6 0 95.4 42.8 95.4 95.4v1583.5c0 25.4-9.9 49.2-27.8 67-9 9-19.4 15.9-30.9 20.5-11.4 4.7-23.8 7.2-36.6 7.2H130.4c-25.4 0-49.3-9.9-67.4-27.9-18.1-18-28-42-28-67.4V462.6c0-52.5 42.8-95.4 95.4-95.4h72.3"/><path class="st0" d="M849 510.3H273.4c-26.3 0-47.7-21.4-47.7-47.7v-95.4s24-46.2 58.6-46.2h275.1c21.9 0 41-14.8 46.2-36.1L650 107.2C660.7 64.7 698.8 35 742.7 35h205.7c43.8 0 81.9 29.7 92.5 72.2l44.4 177.7c5.3 21.3 24.4 36.1 46.2 36.1h280.6c34.6 0 53.1 46.2 53.1 46.2v95.4c0 26.3-21.4 47.7-47.7 47.7H851M268.5 896.4l140.8 143.1 298.2-291.8m-439 580.7l140.8 143 298.2-291.8m-439 577.8l140.8 143.1 298.2-291.8m260.9-715.1h471m-471.9 431.9h471.1m-471.1 429.1h471.1"/><path class="st0" d="M871.5 278.1c-.1-1.2-.3-2-.8-3.2-1.1-3.7-3.1-7.2-5.8-9.9-4.4-4.4-10.5-6.8-16.6-6.8-6.2 0-12.2 2.5-16.6 6.8-4.4 4.4-6.8 10.3-6.8 16.5s2.5 12.2 6.8 16.6c4.4 4.4 10.5 6.8 16.6 6.8 6.2 0 12.2-2.5 16.6-6.8 4.4-4.4 6.8-10.3 6.8-16.6 0-1 0-1.7-.1-2.6"/></svg>