<svg id="Слой_1" xmlns="http://www.w3.org/2000/svg" viewBox="0 0 2186.5 2172"><style>.st0{fill:none;stroke:red;stroke-width:70;stroke-linecap:round;stroke-linejoin:round}</style><path class="st0" d="M1465.5 1421.8c0 395-320.2 715.2-715.2 715.2-395 0-715.2-320.2-715.2-715.2 0-356.6 234.6-650.6 573.8-704.7l68 39.5-19.8 33.9c-20.8 38.5-7.8 86.6 29.5 109.4 13.4 8.2 28.2 12.1 42.9 12.1 27 0 53.4-13.3 69.2-37.6l22.1-34.2 149.4 82.7c18.7-5 37.8-7.3 56.8-7.5 86.6-1 216.4 94.5 224.8 99 55.7 29.9 90.5 159.1 90.5 159.1l53.6 28.2-4.4 9.4c-16 34-2.4 74.5 30.8 92 10.4 5.5 21.6 8.1 32.7 8.1h2c5.6 35.9 8.5 72.9 8.5 110.6z"/><path class="st0" d="M1373.5 445.9s-5.2 73.3 63.1 108.9L1738 708.4 1528.1 801l464.4-204.7 82.4-150.3-81.1 149.7-1.3.6-15.1 27.5c-9.8 18-14.7 37.7-14.7 57.3 0 29.2 10.7 58.1 31.4 80.7 4.7 6.8 5 15.7.6 22.7l-260.9 416.1c-30.8 49.2-83.9 76.7-138.7 76.7-24 0-48.3-5.3-71.2-16.4l-7.2 13.3c-12.3 22.9-35.5 36.2-59.8 36.9M618 722.4L457 629l-28.3 34.6c-15.3 18.7-37.6 28.5-60.1 28.5-16.6 0-33.4-5.3-47.5-16.3-33.1-25.6-39.9-72.9-15.4-106.8l13.3-20.1s-45.5-27.8-47.5-29.3c-125-88.3-47.2-285.4 104.6-265.9 179.3 23 524.8 94.5 542.7 98.8l409.1 99.1c21.9 4.6 44.2-5.4 55.4-24.7L1610.5 35m-884 989.4l-173.3 24.8-144-151.9 40.3-130.2-40.3 130.2-288.5 177.6 69.5 275.4-84.2 274.2-38 12.7 38-12.7 189.1 254.8 1.4 95.4-1.4-95.4 263.3-35.1 254.7 137.2v90.7l-97.8 59.4 97.8-59.4v-90.7l249-185.6 180-16.5 71.4 83.3-71.4-83.3 223.4-297.9-223.4 297.9-180 16.5-114.7-277.3 55.4-118.7-55.4 118.7-295.2 21.5-93.8 304.2 93.8-304.2-196.9-237.1-265.1 47.4 265.1-47.4 97.9-253.7"/><path class="st0" d="M1438.2 845.4c0-.4-.1-.6-.2-1-.4-1.2-1-2.3-1.9-3.2-1.4-1.4-3.4-2.2-5.3-2.2s-3.9.8-5.3 2.2c-1.4 1.4-2.2 3.3-2.2 5.3s.8 3.9 2.2 5.3c1.4 1.4 3.4 2.2 5.3 2.2s3.9-.8 5.3-2.2c1.4-1.4 2.2-3.3 2.2-5.3v-.8m713.2-525c0-.4-.1-.6-.2-1-.4-1.2-1-2.3-1.9-3.2-1.4-1.4-3.4-2.2-5.3-2.2s-3.9.8-5.3 2.2c-1.4 1.4-2.2 3.3-2.2 5.3s.8 3.9 2.2 5.3c1.4 1.4 3.4 2.2 5.3 2.2s3.9-.8 5.3-2.2c1.4-1.4 2.2-3.3 2.2-5.3v-.8M831 334.2l70.1 178 171.1 45.4-57.8-182m-745.9-90.7l16.9 44.4c11.1 29.3 31.9 54 58.8 70l643.1 381.9c28.7 17.1 62.7 23.2 95.6 17.2 31.6-5.8 64.2-.4 92.2 15.2l143.7 80c29.5 16.4 51.9 43 63.2 74.8l6.6 18.7c12 33.8 36.5 61.6 68.6 77.6l135.8 68c24 12 51 16.8 77.7 13.8l95.2-10.8"/></svg>