<svg id="Слой_1" xmlns="http://www.w3.org/2000/svg" viewBox="0 0 1615.8 2104.7"><style>.st0{fill:none;stroke:red;stroke-width:70;stroke-linecap:round;stroke-linejoin:round}</style><path class="st0" d="M417.9 1162.1s580.5 177.1 748.3-524.1m86.2 147.4L1166.2 638l-155.3 73.9m-182-372.6c-.1-1.1-.3-1.8-.7-2.9-1-3.4-2.8-6.5-5.3-9-4-4-9.5-6.2-15.1-6.2s-11.1 2.3-15.1 6.2c-4 4-6.2 9.4-6.2 15s2.3 11.1 6.2 15.1c4 4 9.5 6.2 15.1 6.2s11.1-2.3 15.1-6.2c4-4 6.2-9.4 6.2-15.1 0-.9 0-1.5-.1-2.4"/><path class="st0" d="M1580.8 1820.1v-1427c0-89.4-72.8-162.3-162.3-162.3h-28.4l-206.3-.3h-.1V192c-2.7-87-74.5-157.1-162.2-157.1H588.3c-1.7 0-3.3.1-5 .2-.6 0-1.1.1-1.7.1-2.6.2-5.1.4-7.6.7l-2.4.3c-.2 0-.4.1-.6.1l-2.4.3h-.1c-.9.1-1.8.3-2.7.4-.8.1-1.6.3-2.4.4-.1 0-.2 0-.4.1-.9.2-1.7.3-2.6.5l-2.7.6c-.7.2-1.5.3-2.2.5-.6.1-1.2.3-1.8.5-.4.1-.8.2-1.3.3-.8.2-1.7.4-2.5.7l-2.1.6c-.5.2-1.1.3-1.6.5l-2.7.9c-.9.3-1.9.6-2.8.9-.1 0-.1 0-.2.1l-1.8.6c-.6.2-1.2.4-1.8.7-.6.2-1.2.5-1.8.7l-1.5.6c-.2.1-.3.1-.5.2-.5.2-1.1.4-1.6.7-.6.2-1.2.5-1.8.8-.7.3-1.4.6-2 .9-.5.2-1.1.5-1.6.7-.8.4-1.5.7-2.3 1.1-.7.4-1.5.7-2.2 1.1-.8.4-1.5.8-2.3 1.2-.4.2-.9.5-1.4.7-.1 0-.2.1-.3.2-3 1.6-6 3.3-8.9 5.1-.7.4-1.4.9-2.1 1.3-.4.3-.8.5-1.3.8-3.6 2.3-7 4.8-10.4 7.4l-1.5 1.2c-.9.7-1.7 1.4-2.6 2.1-.5.4-.9.8-1.4 1.2-1 .8-2 1.7-2.9 2.5l-.1.1c-.3.3-.6.5-.9.8-.4.4-.8.8-1.2 1.1-.3.2-.5.5-.8.7-.3.2-.5.5-.8.7-.2.2-.5.4-.7.6l-.3.3c-.2.2-.4.3-.5.5l-.6.6-.6.6-.9.9-.5.5-.4.4c-.9.9-1.7 1.8-2.6 2.7-.1.1-.1.2-.2.2-.9.9-1.7 1.8-2.5 2.8l-.1.1c-.4.5-.9 1-1.3 1.5.6-.7 1.2-1.4 1.8-2-.2.2-.3.3-.4.5l-.1.1c-.5.5-.9 1-1.4 1.5-.8.9-1.5 1.8-2.3 2.7-2.8 3.3-5.4 6.7-7.9 10.3l-1.2 1.8c-.5.7-1 1.5-1.5 2.2-.5.8-1 1.5-1.5 2.3-.4.6-.8 1.3-1.2 1.9-.4.7-.8 1.3-1.2 2-1.3 2.1-2.5 4.2-3.7 6.4-.6 1.1-1.2 2.2-1.7 3.3-.6 1.1-1.1 2.2-1.7 3.3-1.2 2.5-2.4 5-3.5 7.6-.4.9-.7 1.7-1.1 2.6-.2.6-.5 1.1-.7 1.7-.4 1.1-.9 2.2-1.3 3.3-.2.6-.5 1.3-.7 1.9-.2.5-.4 1-.5 1.5-.2.6-.4 1.2-.6 1.9 0 .1-.1.2-.1.3-.2.5-.4 1.1-.5 1.6-.2.6-.4 1.2-.5 1.8-.3.8-.5 1.7-.7 2.5-.1.5-.3.9-.4 1.4l-.9 3.3c-.2.7-.3 1.4-.5 2.1-.1.5-.3 1.1-.4 1.6-.1.4-.2.8-.3 1.3-.1.6-.3 1.3-.4 1.9-.3 1.4-.6 2.8-.8 4.2-.1.4-.1.7-.2 1.1l-.3 1.5c-.1.5-.1.9-.2 1.4v.1c-.1.5-.1 1-.2 1.5s-.1.9-.2 1.4c-.1.7-.2 1.5-.3 2.2-.1.7-.2 1.3-.2 2-.2 1.6-.3 3.2-.4 4.7 0 .7-.1 1.3-.1 2 0 .9-.1 1.7-.1 2.6 0 .8-.1 1.5-.1 2.3 0 1.7-.1 3.5-.1 5.2v33l-205.4.3h-28.4C107.8 230.8 35 303.7 35 393.1v1514.3c0 89.4 72.8 162.3 162.3 162.3h1221.3c89.4 0 162.3-72.8 162.3-162.3v-85"/><path class="st0" d="M1406 1795.8c0 50.9-41.5 95.4-91.6 99.7-2.7.3-5.4.4-8.1.4h-34.1v.1H301.4c-49.4-4.3-90.3-47.4-91.6-97.3V503c0-50.9 41.5-95 91.6-99.3 2.7-.3 5.4-.4 8.2-.4h293.5V309l.2 8.8v-53.9c0-1.4 0-2.8.1-4.2 2.2-40.6 35.9-75.4 76.2-78.9 1.7-.2 3.4-.3 5.1-.3h251.8c40.4 3.5 74 38.2 76.2 78.9v143.8h301.6c50.1 4.3 91.6 48.8 91.6 99.7v1286.9M392.5 866.4l226.2-229.5m-229.6 3.5l233 222.5m-229.6 804.6l226.2-229.4m-229.6 3.7l233 222.6m400 6.8l226.2-229.4m-229.6 3.7l233 222.6"/></svg>