<svg id="Слой_1" xmlns="http://www.w3.org/2000/svg" viewBox="0 0 2096.3 2174.7"><style>.st0{fill:none;stroke:red;stroke-width:70;stroke-linecap:round;stroke-linejoin:round}</style><path class="st0" d="M1577.7 1444.6l2.1 113.9 356.3 6.2 10.4-279.6s149-163.6 107.7-352.1-153.6-323.1-374.9-325.2-352.5 116-372.8 240.3c-20.3 124.3 26.9 211.3 26.9 211.3l-58 130.5 55.9 68.4s59.8 180.2 76.6 192.6 118.1 60.1 370.8-116m-1461 .9c252.7 176.1 353.9 128.4 370.8 116s76.6-192.6 76.6-192.6l55.9-68.4-58-130.5s47.2-87 26.9-211.3-151.4-242.3-372.8-240.2S83.6 745.5 42.2 934s107.7 352.1 107.7 352.1l10.4 279.6 356.3-6.2 2.1-113.9M380.5 1834s556.2 683.5 1258.3 6.2"/><path class="st0" d="M1651.2 2012.2l-2.1-178.1-182.3-8.3m210.3-1485.2s-556.2-683.5-1258.3-6.2"/><path class="st0" d="M406.4 162.5l2.1 178.1 182.3 8.3"/></svg>