<svg id="Слой_1" xmlns="http://www.w3.org/2000/svg" viewBox="0 0 473.4 475.4"><style>.st0{fill:none;stroke:red;stroke-width:15;stroke-linecap:round;stroke-linejoin:round}</style><path class="st0" d="M355.6 153.7c-9 9-23.8 9-32.8 0-9-9-9-23.8 0-32.8 4.4-4.4 10.2-6.8 16.4-6.8 6.2 0 12 2.4 16.4 6.8 9.1 9 9.1 23.7 0 32.8M79.4 347.1l-24.6 12.2c-17.2 8.6-28.7 25.8-30 45l-1 14.2c-.5 7.7 2.3 15.2 7.7 20.7 5 5 11.8 7.8 18.9 7.8.6 0 1.2 0 1.8-.1l14.2-1c19.2-1.3 36.4-12.8 45-30l12.2-24.6m85.8-230.7l-32.5-1c-41.2 0-80 16.1-109.1 45.3L23.7 249l109.3 5.6m101.7 68.1l-13.6 10.5m0 .1l5.6 108.1 44.1-44.1c29.2-29.2 45.3-68 45.3-109.3v-28.4"/><path class="st0" d="M465.9 10.9l-.3 5c-4.1 84.3-44.7 162.3-111.4 214.1L192.9 355.2c-13.4-7.8-25.8-17.1-37.3-27.5l54.4-54.4c4-4 4-10.5 0-14.5s-10.5-4-14.5 0l-54.3 54.3c-10-11.1-18.8-23.1-26.4-36l18.3-22.5 76.4-94 37.6-46.3C297.7 52 372.8 13.3 452.9 8.1l9.6-.6c1.3-.1 2.1.5 2.5.9.3.4 1 1.2.9 2.5z"/><path class="st0" d="M175.2 344.1c-3.5 2.9-7.2 6-10.8 9-5.4 4.5-10.9 9.1-16 13.3-9.9-5.4-18.8-12-26.6-19.9-7.6-7.6-14-16.3-19.2-25.9l22.2-26.4m112.6-58.4c0-.1 0-.2-.1-.4-.1-.4-.4-.8-.7-1.1-.5-.5-1.2-.8-1.9-.8a2.732 2.732 0 0 0-2.7 2.7 2.732 2.732 0 0 0 2.7 2.7 2.732 2.732 0 0 0 2.7-2.7v-.4m-224.5 229c0-.1 0-.2-.1-.4-.1-.4-.4-.8-.7-1.1-.5-.5-1.2-.8-1.9-.8a2.732 2.732 0 0 0-2.7 2.7 2.732 2.732 0 0 0 2.7 2.7 2.732 2.732 0 0 0 2.7-2.7v-.4"/></svg>