<svg id="Слой_1" xmlns="http://www.w3.org/2000/svg" viewBox="0 0 473.8 476.7"><style>.st0{fill:none;stroke:red;stroke-width:15;stroke-linecap:round;stroke-linejoin:round}</style><path class="st0" d="M252.8 152.2c-4.5 36-35.1 63.8-72.3 63.8-40.2 0-72.8-32.6-72.8-72.8s32.6-72.8 72.8-72.8c30 0 55.8 18.2 67 44.1l-2.1.6-3.5 36.5 10.9.6z"/><path class="st0" d="M466.3 95.1l-71-56.6-134-31-84.5 62.8"/><path class="st0" d="M219.2 81.4l48.6-25.9 40.7 15.7m-55.7 81l114 7.3 45 49h51.5m-215.8-94.1l33.3-8.9 45.5 9.5 38.3-3.8m-184.4 64.6v15.8m0-83.3V91.6m19.8 33.9c0-9.4-9.4-16.9-20.7-16.5-10.1.4-18.3 7.3-18.8 15.7-.5 9.3 8.3 16.3 19.1 17.3 15.2 1.4 20.4 7.6 20.4 16.5 0 9.1-8.8 16.5-19.8 16.5-8.4 0-15.6-4.4-18.5-10.7M221 324.5c4.5-36 35.1-63.8 72.3-63.8 40.2 0 72.8 32.6 72.8 72.8s-32.6 72.8-72.8 72.8c-30 0-55.8-18.2-67-44.1l2.1-.6 3.5-36.5-10.9-.6z"/><path class="st0" d="M7.5 381.5l71 56.7 134 31 84.5-62.8"/><path class="st0" d="M254.7 395.3L206 421.2l-40.7-15.7m55.7-81l-114-7.3-45-49H10.5m215.9 94l-33.4 9-45.5-9.5-38.3 3.7m164-58h31.4c7.7 0 13.9 6.2 13.9 13.9 0 7.3-5.7 13.4-12.9 13.9h-.3.3c7.5.1 12.9 6.3 12.9 13.9 0 7.7-6.2 13.9-13.9 13.9h-32m6.3-63.8v72m25.7-7.6v7.3m0-71.5v8.1"/></svg>