<svg width="223" height="50" viewBox="0 0 223 50" fill="none" xmlns="http://www.w3.org/2000/svg">
<path d="M77.783 32C77.415 32 77.095 31.864 76.823 31.592C76.567 31.32 76.439 31 76.439 30.632V15.848C76.439 15.48 76.567 15.16 76.823 14.888C77.095 14.616 77.415 14.48 77.783 14.48H78.431C78.799 14.48 79.119 14.616 79.391 14.888C79.663 15.16 79.799 15.48 79.799 15.848V22.064C79.799 22.08 79.807 22.088 79.823 22.088L79.847 22.064L84.671 15.584C85.199 14.848 85.919 14.48 86.831 14.48H88.031C88.303 14.48 88.503 14.608 88.631 14.864C88.759 15.12 88.735 15.352 88.559 15.56L83.039 22.712C82.959 22.824 82.959 22.936 83.039 23.048L88.823 30.896C88.999 31.12 89.023 31.36 88.895 31.616C88.767 31.872 88.559 32 88.271 32H87.071C86.159 32 85.447 31.632 84.935 30.896L79.847 23.696C79.847 23.68 79.839 23.672 79.823 23.672C79.807 23.672 79.799 23.68 79.799 23.696V30.632C79.799 31 79.663 31.32 79.391 31.592C79.119 31.864 78.799 32 78.431 32H77.783ZM103.028 23.24C103.028 19.08 101.508 17 98.4682 17C95.4282 17 93.9082 19.08 93.9082 23.24C93.9082 27.4 95.4282 29.48 98.4682 29.48C101.508 29.48 103.028 27.4 103.028 23.24ZM104.3 29.864C102.876 31.448 100.932 32.24 98.4682 32.24C96.0042 32.24 94.0522 31.448 92.6122 29.864C91.1882 28.28 90.4762 26.072 90.4762 23.24C90.4762 20.408 91.1882 18.2 92.6122 16.616C94.0522 15.032 96.0042 14.24 98.4682 14.24C100.932 14.24 102.876 15.032 104.3 16.616C105.74 18.2 106.46 20.408 106.46 23.24C106.46 26.072 105.74 28.28 104.3 29.864ZM110.525 32C110.157 32 109.837 31.864 109.565 31.592C109.309 31.32 109.181 31 109.181 30.632V15.848C109.181 15.48 109.309 15.16 109.565 14.888C109.837 14.616 110.157 14.48 110.525 14.48H120.941C121.309 14.48 121.621 14.616 121.877 14.888C122.149 15.16 122.285 15.48 122.285 15.848V30.632C122.285 31 122.149 31.32 121.877 31.592C121.621 31.864 121.309 32 120.941 32H120.293C119.925 32 119.605 31.864 119.333 31.592C119.061 31.32 118.925 31 118.925 30.632V17.408C118.925 17.264 118.861 17.192 118.733 17.192H112.733C112.605 17.192 112.541 17.264 112.541 17.408V30.632C112.541 31 112.405 31.32 112.133 31.592C111.861 31.864 111.541 32 111.173 32H110.525ZM127.424 32C127.056 32 126.736 31.864 126.464 31.592C126.208 31.32 126.08 31 126.08 30.632V15.848C126.08 15.48 126.208 15.16 126.464 14.888C126.736 14.616 127.056 14.48 127.424 14.48H127.952C128.32 14.48 128.64 14.616 128.912 14.888C129.184 15.16 129.32 15.48 129.32 15.848V26.384C129.32 26.4 129.328 26.408 129.344 26.408C129.36 26.408 129.368 26.4 129.368 26.384L135.296 15.68C135.728 14.88 136.4 14.48 137.312 14.48H137.84C138.208 14.48 138.52 14.616 138.776 14.888C139.048 15.16 139.184 15.48 139.184 15.848V30.632C139.184 31 139.048 31.32 138.776 31.592C138.52 31.864 138.208 32 137.84 32H137.312C136.944 32 136.624 31.864 136.352 31.592C136.08 31.32 135.944 31 135.944 30.632V20.096C135.944 20.08 135.936 20.072 135.92 20.072C135.904 20.072 135.896 20.08 135.896 20.096L129.968 30.8C129.536 31.6 128.864 32 127.952 32H127.424ZM142.978 32.096C142.626 32.144 142.314 32.048 142.042 31.808C141.786 31.568 141.658 31.272 141.658 30.92C141.658 30.552 141.778 30.232 142.018 29.96C142.274 29.688 142.586 29.504 142.954 29.408C143.802 29.184 144.386 28.656 144.706 27.824C145.026 26.992 145.186 25.56 145.186 23.528V15.848C145.186 15.48 145.314 15.16 145.57 14.888C145.842 14.616 146.162 14.48 146.53 14.48H155.626C155.994 14.48 156.306 14.616 156.562 14.888C156.834 15.16 156.97 15.48 156.97 15.848V30.632C156.97 31 156.834 31.32 156.562 31.592C156.306 31.864 155.994 32 155.626 32H154.978C154.61 32 154.29 31.864 154.018 31.592C153.746 31.32 153.61 31 153.61 30.632V17.408C153.61 17.264 153.546 17.192 153.418 17.192H148.738C148.61 17.192 148.546 17.264 148.546 17.408V23.48C148.546 26.504 148.138 28.624 147.322 29.84C146.522 31.056 145.074 31.808 142.978 32.096ZM162.111 32C161.743 32 161.423 31.864 161.151 31.592C160.895 31.32 160.767 31 160.767 30.632V15.848C160.767 15.48 160.895 15.16 161.151 14.888C161.423 14.616 161.743 14.48 162.111 14.48H162.759C163.127 14.48 163.447 14.616 163.719 14.888C163.991 15.16 164.127 15.48 164.127 15.848V22.064C164.127 22.08 164.135 22.088 164.151 22.088L164.175 22.064L168.999 15.584C169.527 14.848 170.247 14.48 171.159 14.48H172.359C172.631 14.48 172.831 14.608 172.959 14.864C173.087 15.12 173.063 15.352 172.887 15.56L167.367 22.712C167.287 22.824 167.287 22.936 167.367 23.048L173.151 30.896C173.327 31.12 173.351 31.36 173.223 31.616C173.095 31.872 172.887 32 172.599 32H171.399C170.487 32 169.775 31.632 169.263 30.896L164.175 23.696C164.175 23.68 164.167 23.672 164.151 23.672C164.135 23.672 164.127 23.68 164.127 23.696V30.632C164.127 31 163.991 31.32 163.719 31.592C163.447 31.864 163.127 32 162.759 32H162.111ZM179.796 24.992C179.78 25.04 179.788 25.088 179.82 25.136C179.852 25.184 179.892 25.208 179.94 25.208H183.924C183.972 25.208 184.012 25.184 184.044 25.136C184.076 25.088 184.084 25.04 184.068 24.992L181.956 17.456C181.956 17.44 181.948 17.432 181.932 17.432C181.916 17.432 181.908 17.44 181.908 17.456L179.796 24.992ZM175.692 32C175.356 32 175.092 31.864 174.9 31.592C174.708 31.32 174.668 31.024 174.78 30.704L179.748 15.776C179.892 15.392 180.124 15.08 180.444 14.84C180.78 14.6 181.148 14.48 181.548 14.48H182.412C182.828 14.48 183.196 14.6 183.516 14.84C183.852 15.08 184.084 15.392 184.212 15.776L189.18 30.704C189.292 31.024 189.252 31.32 189.06 31.592C188.868 31.864 188.604 32 188.268 32H187.404C187.02 32 186.66 31.88 186.324 31.64C186.004 31.384 185.788 31.064 185.676 30.68L184.908 27.968C184.892 27.84 184.804 27.776 184.644 27.776H179.22C179.076 27.776 178.988 27.84 178.956 27.968L178.188 30.68C178.092 31.064 177.876 31.384 177.54 31.64C177.22 31.88 176.86 32 176.46 32H175.692Z" fill="white"/>
<path opacity="0.5" d="M78.4835 42.925V45.853C78.4835 45.917 78.5155 45.957 78.5795 45.973C78.8915 46.021 79.2195 46.045 79.5635 46.045C80.3155 46.045 80.8675 45.905 81.2195 45.625C81.5715 45.345 81.7475 44.917 81.7475 44.341C81.7475 43.821 81.5355 43.441 81.1115 43.201C80.6875 42.953 79.9715 42.829 78.9635 42.829H78.5915C78.5195 42.829 78.4835 42.861 78.4835 42.925ZM78.4835 39.337V41.689C78.4835 41.761 78.5195 41.797 78.5915 41.797H78.9635C79.8435 41.797 80.4755 41.685 80.8595 41.461C81.2515 41.237 81.4475 40.897 81.4475 40.441C81.4475 40.001 81.2915 39.677 80.9795 39.469C80.6675 39.261 80.1555 39.157 79.4435 39.157C79.1395 39.157 78.8515 39.181 78.5795 39.229C78.5155 39.245 78.4835 39.281 78.4835 39.337ZM77.8475 47.017C77.6475 46.993 77.4835 46.909 77.3555 46.765C77.2275 46.613 77.1635 46.437 77.1635 46.237V38.965C77.1635 38.765 77.2275 38.593 77.3555 38.449C77.4835 38.297 77.6475 38.209 77.8475 38.185C78.3275 38.129 78.8595 38.101 79.4435 38.101C81.6035 38.101 82.6835 38.821 82.6835 40.261C82.6835 40.741 82.5195 41.165 82.1915 41.533C81.8635 41.893 81.4315 42.125 80.8955 42.229C80.8875 42.229 80.8835 42.233 80.8835 42.241C80.8835 42.249 80.8875 42.253 80.8955 42.253C81.5675 42.357 82.0915 42.605 82.4675 42.997C82.8515 43.389 83.0435 43.877 83.0435 44.461C83.0435 46.221 81.8835 47.101 79.5635 47.101C78.9315 47.101 78.3595 47.073 77.8475 47.017ZM91.292 46.813C91.18 46.925 91.044 46.981 90.884 46.981C90.724 46.981 90.588 46.925 90.476 46.813C90.364 46.693 90.308 46.553 90.308 46.393V41.329C90.308 41.169 90.364 41.033 90.476 40.921C90.588 40.801 90.724 40.741 90.884 40.741C91.044 40.741 91.18 40.801 91.292 40.921C91.412 41.033 91.472 41.169 91.472 41.329V46.393C91.472 46.553 91.412 46.693 91.292 46.813ZM86.432 46.141C87.048 46.141 87.5 46.025 87.788 45.793C88.076 45.553 88.22 45.189 88.22 44.701C88.22 44.301 88.068 43.993 87.764 43.777C87.46 43.553 87.004 43.441 86.396 43.441C86.124 43.441 85.876 43.465 85.652 43.513C85.588 43.529 85.556 43.569 85.556 43.633V45.949C85.556 46.013 85.592 46.053 85.664 46.069C85.912 46.117 86.168 46.141 86.432 46.141ZM86.588 42.481C87.5 42.481 88.196 42.677 88.676 43.069C89.156 43.461 89.396 44.005 89.396 44.701C89.396 45.509 89.148 46.113 88.652 46.513C88.156 46.905 87.388 47.101 86.348 47.101C85.884 47.101 85.444 47.077 85.028 47.029C84.836 47.005 84.676 46.917 84.548 46.765C84.42 46.613 84.356 46.437 84.356 46.237V41.341C84.356 41.173 84.412 41.033 84.524 40.921C84.644 40.801 84.788 40.741 84.956 40.741C85.124 40.741 85.264 40.801 85.376 40.921C85.496 41.033 85.556 41.173 85.556 41.341V42.469C85.556 42.493 85.568 42.517 85.592 42.541C85.616 42.557 85.64 42.561 85.664 42.553C85.944 42.505 86.252 42.481 86.588 42.481ZM94.2837 46.801C94.1637 46.921 94.0157 46.981 93.8397 46.981C93.6637 46.981 93.5117 46.921 93.3837 46.801C93.2637 46.681 93.2037 46.533 93.2037 46.357V41.425C93.2037 41.241 93.2717 41.081 93.4077 40.945C93.5437 40.809 93.7037 40.741 93.8877 40.741H97.3677C97.5037 40.741 97.6237 40.793 97.7277 40.897C97.8317 40.993 97.8837 41.109 97.8837 41.245C97.8837 41.381 97.8317 41.501 97.7277 41.605C97.6237 41.709 97.5037 41.761 97.3677 41.761H94.5717C94.4997 41.761 94.4637 41.797 94.4637 41.869V46.357C94.4637 46.533 94.4037 46.681 94.2837 46.801ZM103.368 43.861C103.368 42.341 102.816 41.581 101.712 41.581C100.608 41.581 100.056 42.341 100.056 43.861C100.056 45.381 100.608 46.141 101.712 46.141C102.816 46.141 103.368 45.381 103.368 43.861ZM103.872 46.261C103.352 46.821 102.632 47.101 101.712 47.101C100.792 47.101 100.072 46.821 99.5519 46.261C99.0319 45.693 98.7719 44.893 98.7719 43.861C98.7719 42.829 99.0319 42.033 99.5519 41.473C100.072 40.905 100.792 40.621 101.712 40.621C102.632 40.621 103.352 40.905 103.872 41.473C104.392 42.033 104.652 42.829 104.652 43.861C104.652 44.893 104.392 45.693 103.872 46.261ZM107.561 45.937C107.521 45.993 107.533 46.021 107.597 46.021H110.237C110.309 46.021 110.345 45.989 110.345 45.925V41.809C110.345 41.737 110.309 41.701 110.237 41.701H108.293C108.221 41.701 108.185 41.733 108.185 41.797C108.185 42.965 108.173 43.745 108.149 44.137C108.133 44.529 108.085 44.849 108.005 45.097C107.933 45.337 107.785 45.617 107.561 45.937ZM106.565 48.241C106.453 48.361 106.313 48.421 106.145 48.421C105.977 48.421 105.833 48.361 105.713 48.241C105.601 48.129 105.545 47.989 105.545 47.821V46.489C105.545 46.353 105.589 46.241 105.677 46.153C105.773 46.065 105.885 46.021 106.013 46.021C106.061 46.021 106.097 46.005 106.121 45.973C106.433 45.589 106.637 45.273 106.733 45.025C106.837 44.777 106.905 44.453 106.937 44.053C106.969 43.645 106.985 42.861 106.985 41.701V41.425C106.985 41.241 107.053 41.081 107.189 40.945C107.325 40.809 107.485 40.741 107.669 40.741H110.861C111.045 40.741 111.205 40.809 111.341 40.945C111.477 41.081 111.545 41.241 111.545 41.425V45.925C111.545 45.989 111.581 46.021 111.653 46.021H111.701C111.885 46.021 112.045 46.089 112.181 46.225C112.317 46.361 112.385 46.521 112.385 46.705V47.821C112.385 47.989 112.325 48.129 112.205 48.241C112.093 48.361 111.953 48.421 111.785 48.421C111.617 48.421 111.473 48.361 111.353 48.241C111.241 48.129 111.185 47.989 111.185 47.821V47.089C111.185 47.017 111.149 46.981 111.077 46.981H106.853C106.781 46.981 106.745 47.017 106.745 47.089V47.821C106.745 47.989 106.685 48.129 106.565 48.241ZM114.78 46.801C114.66 46.921 114.512 46.981 114.336 46.981C114.16 46.981 114.008 46.921 113.88 46.801C113.752 46.673 113.688 46.521 113.688 46.345V41.377C113.688 41.201 113.752 41.053 113.88 40.933C114.008 40.805 114.16 40.741 114.336 40.741C114.512 40.741 114.66 40.805 114.78 40.933C114.908 41.053 114.972 41.201 114.972 41.377V43.117C114.972 43.181 115.004 43.213 115.068 43.213H117.612C117.676 43.213 117.708 43.181 117.708 43.117V41.377C117.708 41.201 117.768 41.053 117.888 40.933C118.016 40.805 118.168 40.741 118.344 40.741C118.52 40.741 118.672 40.805 118.8 40.933C118.928 41.053 118.992 41.201 118.992 41.377V46.345C118.992 46.521 118.928 46.673 118.8 46.801C118.672 46.921 118.52 46.981 118.344 46.981C118.168 46.981 118.016 46.921 117.888 46.801C117.768 46.673 117.708 46.521 117.708 46.345V44.221C117.708 44.157 117.676 44.125 117.612 44.125H115.068C115.004 44.125 114.972 44.157 114.972 44.221V46.345C114.972 46.521 114.908 46.673 114.78 46.801ZM127.655 46.813C127.543 46.925 127.407 46.981 127.247 46.981C127.087 46.981 126.951 46.925 126.839 46.813C126.727 46.693 126.671 46.553 126.671 46.393V41.329C126.671 41.169 126.727 41.033 126.839 40.921C126.951 40.801 127.087 40.741 127.247 40.741C127.407 40.741 127.543 40.801 127.655 40.921C127.775 41.033 127.835 41.169 127.835 41.329V46.393C127.835 46.553 127.775 46.693 127.655 46.813ZM122.795 46.141C123.411 46.141 123.863 46.025 124.151 45.793C124.439 45.553 124.583 45.189 124.583 44.701C124.583 44.301 124.431 43.993 124.127 43.777C123.823 43.553 123.367 43.441 122.759 43.441C122.487 43.441 122.239 43.465 122.015 43.513C121.951 43.529 121.919 43.569 121.919 43.633V45.949C121.919 46.013 121.955 46.053 122.027 46.069C122.275 46.117 122.531 46.141 122.795 46.141ZM122.951 42.481C123.863 42.481 124.559 42.677 125.039 43.069C125.519 43.461 125.759 44.005 125.759 44.701C125.759 45.509 125.511 46.113 125.015 46.513C124.519 46.905 123.751 47.101 122.711 47.101C122.247 47.101 121.807 47.077 121.391 47.029C121.199 47.005 121.039 46.917 120.911 46.765C120.783 46.613 120.719 46.437 120.719 46.237V41.341C120.719 41.173 120.775 41.033 120.887 40.921C121.007 40.801 121.151 40.741 121.319 40.741C121.487 40.741 121.627 40.801 121.739 40.921C121.859 41.033 121.919 41.173 121.919 41.341V42.469C121.919 42.493 121.931 42.517 121.955 42.541C121.979 42.557 122.003 42.561 122.027 42.553C122.307 42.505 122.615 42.481 122.951 42.481ZM131.967 41.557C131.055 41.557 130.543 42.097 130.431 43.177C130.415 43.249 130.447 43.285 130.527 43.285H133.215C133.279 43.285 133.311 43.249 133.311 43.177C133.263 42.097 132.815 41.557 131.967 41.557ZM132.267 47.101C131.267 47.101 130.495 46.829 129.951 46.285C129.415 45.741 129.147 44.933 129.147 43.861C129.147 42.789 129.387 41.981 129.867 41.437C130.355 40.893 131.055 40.621 131.967 40.621C133.631 40.621 134.491 41.597 134.547 43.549C134.555 43.741 134.487 43.901 134.343 44.029C134.199 44.157 134.031 44.221 133.839 44.221H130.515C130.451 44.221 130.419 44.253 130.419 44.317C130.515 45.549 131.171 46.165 132.387 46.165C132.811 46.165 133.227 46.097 133.635 45.961C133.755 45.921 133.867 45.937 133.971 46.009C134.075 46.081 134.127 46.181 134.127 46.309C134.127 46.461 134.079 46.597 133.983 46.717C133.887 46.837 133.763 46.917 133.611 46.957C133.171 47.053 132.723 47.101 132.267 47.101ZM140.279 46.801C140.167 46.921 140.027 46.981 139.859 46.981C139.691 46.981 139.547 46.921 139.427 46.801C139.307 46.681 139.247 46.537 139.247 46.369V41.425C139.247 41.241 139.311 41.081 139.439 40.945C139.575 40.809 139.735 40.741 139.919 40.741H139.955C140.411 40.741 140.747 40.941 140.963 41.341L142.595 44.365C142.595 44.373 142.599 44.377 142.607 44.377L142.619 44.365L144.263 41.341C144.479 40.941 144.811 40.741 145.259 40.741H145.319C145.503 40.741 145.659 40.809 145.787 40.945C145.923 41.081 145.991 41.241 145.991 41.425V46.357C145.991 46.525 145.931 46.673 145.811 46.801C145.691 46.921 145.547 46.981 145.379 46.981C145.211 46.981 145.063 46.921 144.935 46.801C144.815 46.673 144.755 46.525 144.755 46.357V42.373L144.743 42.361H144.731L143.399 44.809C143.231 45.121 142.967 45.277 142.607 45.277C142.255 45.277 141.995 45.121 141.827 44.809L140.483 42.361H140.471L140.459 42.373V46.369C140.459 46.537 140.399 46.681 140.279 46.801ZM148.379 46.981C148.195 46.981 148.039 46.917 147.911 46.789C147.783 46.661 147.719 46.509 147.719 46.333V41.365C147.719 41.189 147.779 41.041 147.899 40.921C148.027 40.801 148.179 40.741 148.355 40.741C148.531 40.741 148.679 40.801 148.799 40.921C148.919 41.041 148.979 41.189 148.979 41.365V45.265L148.991 45.277H149.003L151.415 41.293C151.647 40.925 151.979 40.741 152.411 40.741C152.595 40.741 152.751 40.805 152.879 40.933C153.007 41.061 153.071 41.213 153.071 41.389V46.357C153.071 46.533 153.007 46.681 152.879 46.801C152.759 46.921 152.611 46.981 152.435 46.981C152.259 46.981 152.111 46.921 151.991 46.801C151.871 46.681 151.811 46.533 151.811 46.357V42.457L151.799 42.445H151.787L149.375 46.429C149.143 46.797 148.811 46.981 148.379 46.981ZM155.865 46.801C155.745 46.921 155.597 46.981 155.421 46.981C155.245 46.981 155.097 46.921 154.977 46.801C154.857 46.681 154.797 46.533 154.797 46.357V41.365C154.797 41.189 154.857 41.041 154.977 40.921C155.097 40.801 155.245 40.741 155.421 40.741C155.597 40.741 155.745 40.801 155.865 40.921C155.993 41.041 156.057 41.189 156.057 41.365V43.489C156.057 43.497 156.061 43.501 156.069 43.501L156.093 43.489L158.229 41.233C158.541 40.905 158.925 40.741 159.381 40.741H159.513C159.641 40.741 159.729 40.801 159.777 40.921C159.833 41.041 159.817 41.145 159.729 41.233L157.389 43.669C157.349 43.709 157.349 43.757 157.389 43.813L159.741 46.477C159.829 46.573 159.845 46.681 159.789 46.801C159.741 46.921 159.649 46.981 159.513 46.981H159.381C158.933 46.981 158.557 46.809 158.253 46.465L156.093 43.993C156.085 43.985 156.077 43.981 156.069 43.981C156.061 43.981 156.057 43.985 156.057 43.993V46.357C156.057 46.533 155.993 46.681 155.865 46.801ZM162.456 42.961V44.761C162.456 45.129 162.608 45.453 162.912 45.733C163.224 46.005 163.592 46.141 164.016 46.141C164.496 46.141 164.876 45.949 165.156 45.565C165.436 45.181 165.576 44.613 165.576 43.861C165.576 42.341 165.056 41.581 164.016 41.581C163.592 41.581 163.224 41.721 162.912 42.001C162.608 42.273 162.456 42.593 162.456 42.961ZM162.264 49.441C162.144 49.561 161.996 49.621 161.82 49.621C161.644 49.621 161.496 49.561 161.376 49.441C161.256 49.321 161.196 49.173 161.196 48.997V41.329C161.196 41.169 161.252 41.033 161.364 40.921C161.484 40.801 161.624 40.741 161.784 40.741C161.944 40.741 162.084 40.801 162.204 40.921C162.324 41.033 162.388 41.169 162.396 41.329V41.509C162.396 41.517 162.4 41.521 162.408 41.521C162.416 41.521 162.424 41.517 162.432 41.509C162.728 41.181 163.02 40.953 163.308 40.825C163.596 40.689 163.932 40.621 164.316 40.621C165.076 40.621 165.684 40.905 166.14 41.473C166.604 42.041 166.836 42.837 166.836 43.861C166.836 44.853 166.596 45.641 166.116 46.225C165.644 46.809 165.044 47.101 164.316 47.101C163.604 47.101 162.996 46.845 162.492 46.333C162.484 46.325 162.476 46.321 162.468 46.321C162.46 46.321 162.456 46.325 162.456 46.333V48.997C162.456 49.173 162.392 49.321 162.264 49.441ZM172.38 43.861C172.38 42.341 171.828 41.581 170.724 41.581C169.62 41.581 169.068 42.341 169.068 43.861C169.068 45.381 169.62 46.141 170.724 46.141C171.828 46.141 172.38 45.381 172.38 43.861ZM172.884 46.261C172.364 46.821 171.644 47.101 170.724 47.101C169.804 47.101 169.084 46.821 168.564 46.261C168.044 45.693 167.784 44.893 167.784 43.861C167.784 42.829 168.044 42.033 168.564 41.473C169.084 40.905 169.804 40.621 170.724 40.621C171.644 40.621 172.364 40.905 172.884 41.473C173.404 42.033 173.664 42.829 173.664 43.861C173.664 44.893 173.404 45.693 172.884 46.261ZM175.109 46.885C174.965 46.853 174.845 46.777 174.749 46.657C174.661 46.537 174.617 46.401 174.617 46.249C174.617 46.129 174.665 46.033 174.761 45.961C174.865 45.889 174.977 45.869 175.097 45.901C175.649 46.061 176.201 46.141 176.753 46.141C177.889 46.141 178.457 45.809 178.457 45.145C178.457 44.825 178.281 44.585 177.929 44.425C177.585 44.265 176.977 44.181 176.105 44.173C175.977 44.173 175.869 44.125 175.781 44.029C175.693 43.933 175.649 43.821 175.649 43.693C175.649 43.565 175.693 43.457 175.781 43.369C175.869 43.273 175.981 43.225 176.117 43.225C177.621 43.217 178.373 42.929 178.373 42.361C178.373 41.817 177.813 41.545 176.693 41.545C176.221 41.545 175.713 41.629 175.169 41.797C175.057 41.829 174.953 41.813 174.857 41.749C174.761 41.677 174.713 41.581 174.713 41.461C174.713 41.309 174.757 41.177 174.845 41.065C174.933 40.945 175.049 40.869 175.193 40.837C175.745 40.693 176.285 40.621 176.813 40.621C177.701 40.621 178.393 40.769 178.889 41.065C179.385 41.361 179.633 41.733 179.633 42.181C179.633 42.509 179.501 42.813 179.237 43.093C178.981 43.365 178.625 43.557 178.169 43.669C178.153 43.669 178.145 43.673 178.145 43.681C178.145 43.697 178.153 43.705 178.169 43.705C178.641 43.785 179.017 43.973 179.297 44.269C179.585 44.565 179.729 44.909 179.729 45.301C179.729 45.845 179.477 46.281 178.973 46.609C178.469 46.937 177.749 47.101 176.813 47.101C176.253 47.101 175.685 47.029 175.109 46.885ZM184.034 43.837C183.378 43.837 182.882 43.949 182.546 44.173C182.218 44.389 182.054 44.685 182.054 45.061C182.054 45.357 182.142 45.601 182.318 45.793C182.494 45.985 182.706 46.081 182.954 46.081C183.482 46.081 183.902 45.917 184.214 45.589C184.534 45.253 184.694 44.797 184.694 44.221V43.933C184.694 43.869 184.658 43.837 184.586 43.837H184.034ZM182.654 47.101C182.11 47.101 181.662 46.925 181.31 46.573C180.966 46.221 180.794 45.757 180.794 45.181C180.794 44.477 181.062 43.933 181.598 43.549C182.134 43.157 182.946 42.961 184.034 42.961H184.586C184.658 42.961 184.694 42.925 184.694 42.853V42.721C184.694 42.297 184.594 42.001 184.394 41.833C184.194 41.665 183.834 41.581 183.314 41.581C182.85 41.581 182.298 41.677 181.658 41.869C181.538 41.909 181.422 41.893 181.31 41.821C181.206 41.741 181.154 41.637 181.154 41.509C181.154 41.349 181.202 41.205 181.298 41.077C181.394 40.949 181.518 40.869 181.67 40.837C182.246 40.693 182.794 40.621 183.314 40.621C184.322 40.621 185.014 40.801 185.39 41.161C185.766 41.521 185.954 42.181 185.954 43.141V46.393C185.954 46.553 185.894 46.693 185.774 46.813C185.662 46.925 185.526 46.981 185.366 46.981C185.206 46.981 185.066 46.925 184.946 46.813C184.834 46.693 184.774 46.553 184.766 46.393L184.754 46.093C184.754 46.085 184.75 46.081 184.742 46.081C184.726 46.081 184.718 46.085 184.718 46.093C184.254 46.765 183.566 47.101 182.654 47.101ZM188.282 46.981C188.098 46.981 187.942 46.917 187.814 46.789C187.686 46.661 187.622 46.509 187.622 46.333V41.365C187.622 41.189 187.682 41.041 187.802 40.921C187.93 40.801 188.082 40.741 188.258 40.741C188.434 40.741 188.582 40.801 188.702 40.921C188.822 41.041 188.882 41.189 188.882 41.365V45.265L188.894 45.277H188.906L191.318 41.293C191.55 40.925 191.882 40.741 192.314 40.741C192.498 40.741 192.654 40.805 192.782 40.933C192.91 41.061 192.974 41.213 192.974 41.389V46.357C192.974 46.533 192.91 46.681 192.782 46.801C192.662 46.921 192.514 46.981 192.338 46.981C192.162 46.981 192.014 46.921 191.894 46.801C191.774 46.681 191.714 46.533 191.714 46.357V42.457L191.702 42.445H191.69L189.278 46.429C189.046 46.797 188.714 46.981 188.282 46.981ZM191.45 38.509C191.666 38.197 191.89 38.041 192.122 38.041C192.266 38.041 192.386 38.093 192.482 38.197C192.578 38.301 192.606 38.417 192.566 38.545C192.438 38.961 192.17 39.301 191.762 39.565C191.354 39.829 190.866 39.961 190.298 39.961C189.73 39.961 189.242 39.829 188.834 39.565C188.426 39.301 188.158 38.961 188.03 38.545C187.99 38.417 188.018 38.301 188.114 38.197C188.21 38.093 188.33 38.041 188.474 38.041C188.722 38.041 188.946 38.197 189.146 38.509C189.394 38.877 189.778 39.061 190.298 39.061C190.818 39.061 191.202 38.877 191.45 38.509ZM195.732 46.801C195.62 46.921 195.48 46.981 195.312 46.981C195.144 46.981 195 46.921 194.88 46.801C194.76 46.681 194.7 46.537 194.7 46.369V41.425C194.7 41.241 194.764 41.081 194.892 40.945C195.028 40.809 195.188 40.741 195.372 40.741H195.408C195.864 40.741 196.2 40.941 196.416 41.341L198.048 44.365C198.048 44.373 198.052 44.377 198.06 44.377L198.072 44.365L199.716 41.341C199.932 40.941 200.264 40.741 200.712 40.741H200.772C200.956 40.741 201.112 40.809 201.24 40.945C201.376 41.081 201.444 41.241 201.444 41.425V46.357C201.444 46.525 201.384 46.673 201.264 46.801C201.144 46.921 201 46.981 200.832 46.981C200.664 46.981 200.516 46.921 200.388 46.801C200.268 46.673 200.208 46.525 200.208 46.357V42.373L200.196 42.361H200.184L198.852 44.809C198.684 45.121 198.42 45.277 198.06 45.277C197.708 45.277 197.448 45.121 197.28 44.809L195.936 42.361H195.924L195.912 42.373V46.369C195.912 46.537 195.852 46.681 195.732 46.801ZM210.108 46.813C209.996 46.925 209.86 46.981 209.7 46.981C209.54 46.981 209.404 46.925 209.292 46.813C209.18 46.693 209.124 46.553 209.124 46.393V41.329C209.124 41.169 209.18 41.033 209.292 40.921C209.404 40.801 209.54 40.741 209.7 40.741C209.86 40.741 209.996 40.801 210.108 40.921C210.228 41.033 210.288 41.169 210.288 41.329V46.393C210.288 46.553 210.228 46.693 210.108 46.813ZM205.248 46.141C205.864 46.141 206.316 46.025 206.604 45.793C206.892 45.553 207.036 45.189 207.036 44.701C207.036 44.301 206.884 43.993 206.58 43.777C206.276 43.553 205.82 43.441 205.212 43.441C204.94 43.441 204.692 43.465 204.468 43.513C204.404 43.529 204.372 43.569 204.372 43.633V45.949C204.372 46.013 204.408 46.053 204.48 46.069C204.728 46.117 204.984 46.141 205.248 46.141ZM205.404 42.481C206.316 42.481 207.012 42.677 207.492 43.069C207.972 43.461 208.212 44.005 208.212 44.701C208.212 45.509 207.964 46.113 207.468 46.513C206.972 46.905 206.204 47.101 205.164 47.101C204.7 47.101 204.26 47.077 203.844 47.029C203.652 47.005 203.492 46.917 203.364 46.765C203.236 46.613 203.172 46.437 203.172 46.237V41.341C203.172 41.173 203.228 41.033 203.34 40.921C203.46 40.801 203.604 40.741 203.772 40.741C203.94 40.741 204.08 40.801 204.192 40.921C204.312 41.033 204.372 41.173 204.372 41.341V42.469C204.372 42.493 204.384 42.517 204.408 42.541C204.432 42.557 204.456 42.561 204.48 42.553C204.76 42.505 205.068 42.481 205.404 42.481Z" fill="white"/>
<path d="M42.9104 26.4562C42.4925 26.4562 42.1537 26.7886 42.1537 27.1987C42.1537 27.7185 41.7227 28.1414 41.1928 28.1414C40.6631 28.1414 40.2319 27.7185 40.2319 27.1987C40.2319 26.7885 39.8931 26.4562 39.4752 26.4562C39.0573 26.4562 38.7184 26.7886 38.7184 27.1987C38.7184 28.5373 39.8285 29.6264 41.1928 29.6264C42.5571 29.6264 43.6672 28.5372 43.6672 27.1987C43.6672 26.7884 43.3284 26.4562 42.9104 26.4562Z" fill="white"/>
<path d="M50.0138 26.5775L47.8839 25.908C47.6111 25.8222 47.3961 25.6086 47.3088 25.3365C46.8599 23.9361 46.1825 22.6215 45.2953 21.4289C44.891 20.8853 44.4414 20.3662 43.9503 19.8721C44.2645 18.5196 44.4353 16.9889 44.4132 15.6665C44.3815 13.7747 43.9962 12.6651 43.2353 12.2741C42.8255 12.0632 41.5783 11.4227 34.8277 14.4546C34.6679 14.5263 34.5186 14.6147 34.3803 14.7159C33.9252 14.596 33.4601 14.485 32.9921 14.3853C32.9357 14.3732 32.8776 14.3626 32.8208 14.3508C33.3679 13.1784 33.6873 11.905 33.7473 10.5904C33.766 10.1807 33.4427 9.83371 33.0251 9.81547C32.6086 9.79515 32.2538 10.1142 32.2352 10.524C32.1366 12.6854 31.2228 14.7191 29.6621 16.2504C28.7297 17.1653 27.6379 17.8298 26.4743 18.2483C24.4564 17.9705 22.4009 17.9705 20.383 18.2483C19.2193 17.8298 18.1276 17.1653 17.1951 16.2504C15.5301 14.6168 14.6131 12.4448 14.6131 10.1344C14.6131 7.82402 15.5301 5.6521 17.1951 4.01848C18.8602 2.38476 21.074 1.48505 23.4286 1.48505C25.7833 1.48505 27.9971 2.38476 29.6621 4.01848C30.3312 4.67496 30.8841 5.42411 31.3055 6.24491C31.4935 6.61121 31.9486 6.75869 32.3219 6.57414C32.6952 6.38979 32.8454 5.94327 32.6574 5.57707C32.1635 4.61457 31.5159 3.73698 30.7325 2.9683C28.7816 1.05417 26.1877 0 23.4287 0C20.6698 0 18.0759 1.05417 16.125 2.9683C14.1741 4.88253 13.0996 7.42742 13.0996 10.1343C13.0996 12.8413 14.1741 15.3863 16.125 17.3004C16.6877 17.8525 17.3 18.3274 17.9475 18.7252C17.9477 18.7252 17.9479 18.725 17.9481 18.725C17.4776 18.845 17.0106 18.9797 16.5488 19.1312C16.1524 19.2613 15.9385 19.6819 16.071 20.0709C16.2035 20.4598 16.6324 20.6697 17.0287 20.5397C21.1558 19.186 25.7017 19.186 29.8288 20.5397C29.9084 20.5658 29.9893 20.5782 30.0688 20.5782C30.3854 20.5782 30.6805 20.3817 30.7864 20.0709C30.919 19.682 30.7051 19.2613 30.3087 19.1312C29.8469 18.9797 29.3799 18.8449 28.9094 18.725C28.9096 18.725 28.9098 18.7252 28.91 18.7252C29.5576 18.3274 30.1697 17.8525 30.7325 17.3004C31.2304 16.8119 31.6698 16.2785 32.0514 15.7116C32.26 15.7514 32.4671 15.793 32.6711 15.8365C32.9429 15.8944 33.2135 15.9565 33.4816 16.0218C33.4732 16.0541 33.4645 16.0863 33.4575 16.1191C33.0885 17.8375 33.1124 19.3573 33.5287 20.6361C33.9029 21.7855 34.5782 22.7167 35.5356 23.404C36.6641 24.2139 38.0264 24.5638 39.2605 24.5638C40.1893 24.5638 41.0456 24.3655 41.6744 24.016C42.3858 23.6207 42.9818 22.7878 43.4535 21.5372C43.6716 21.7869 43.8783 22.0427 44.073 22.3046C44.8629 23.3662 45.4659 24.5363 45.8652 25.7821C46.0997 26.5138 46.6819 27.0896 47.4224 27.3224L49.5523 27.9919C50.1112 28.1675 50.4867 28.6723 50.4867 29.248V32.7133C50.4867 33.289 50.1112 33.7937 49.5523 33.9694L46.1206 35.0479C45.5716 35.2206 45.107 35.5908 44.8123 36.0904C43.4641 38.3765 41.3444 40.2683 38.5117 41.7133C38.1845 41.8804 37.9578 42.1793 37.8895 42.5334L36.7904 48.2435C36.76 48.4009 36.6196 48.515 36.4564 48.515H32.8827C32.7195 48.515 32.579 48.4008 32.5486 48.2435L31.9399 45.0878C31.82 44.4669 31.2265 44.0544 30.5877 44.1494C29.0483 44.3778 27.4621 44.4935 25.8734 44.4935C24.6914 44.4935 23.5245 44.4288 22.405 44.3012C21.786 44.2313 21.2093 44.6453 21.0936 45.245L20.5151 48.2435C20.4847 48.4009 20.3443 48.515 20.1811 48.515H16.6074C16.4442 48.515 16.3037 48.4008 16.273 48.2411L15.2147 42.848C15.1465 42.5005 14.9241 42.2051 14.6041 42.0374C9.77539 39.5082 7.22313 35.2828 7.22313 29.8181C7.22313 27.0571 7.8388 24.6156 9.05298 22.5613C10.186 20.6442 11.8409 19.0591 13.9715 17.8498C14.3333 17.6445 14.4569 17.1903 14.2477 16.8352C14.0385 16.4803 13.5756 16.3592 13.2137 16.5643C9.08223 18.9092 6.59039 22.5268 5.90434 27.1215V27.1214C5.83152 27.115 5.75859 27.1088 5.68598 27.1014C5.69918 26.6057 5.60777 26.1054 5.40871 25.62C4.96966 24.5491 4.06778 23.7763 3.11096 23.651C2.35696 23.552 1.63942 23.8661 1.14146 24.5116C0.419453 25.4477 0.537164 26.1884 0.762937 26.645C1.1441 27.4156 2.12388 27.9607 3.74979 28.3034C3.7051 28.369 3.65595 28.435 3.60212 28.5013C2.64144 29.6834 1.50962 29.9448 0.774719 29.9694C0.3445 29.9836 0 30.3225 0 30.7449V30.7485C0 31.1651 0.335055 31.5049 0.759281 31.524C0.813617 31.5265 0.870391 31.5278 0.9295 31.5278C1.85941 31.5278 3.35187 31.1912 4.78573 29.4272C5.01211 29.1488 5.19655 28.855 5.33833 28.5515C5.48112 28.5673 5.61834 28.5809 5.74976 28.5928C5.74976 28.5925 5.74976 28.5923 5.74986 28.592C5.72406 28.9944 5.70974 29.4027 5.70974 29.8181C5.70974 32.91 6.461 35.6667 7.94249 38.0121C9.30851 40.1745 11.2643 41.945 13.7575 43.2765L14.7863 48.5195C14.9517 49.3773 15.7176 49.9999 16.6074 49.9999H20.1811C21.0709 49.9999 21.8368 49.3773 22.0022 48.5195L22.5252 45.8083C23.6116 45.9212 24.7363 45.9784 25.8732 45.9784C27.4333 45.9784 28.9914 45.8718 30.51 45.6614L31.0614 48.5197C31.2269 49.3775 31.9928 50 32.8825 50H36.4562C37.346 50 38.1118 49.3774 38.2774 48.5193L39.3475 42.9599C42.3709 41.3914 44.6497 39.3308 46.1222 36.8341C46.2283 36.6541 46.3917 36.5221 46.5823 36.4622L50.0138 35.3837C51.2018 35.0101 52 33.937 52 32.7131V29.2478C52 28.024 51.2018 26.9508 50.0138 26.5775ZM42.786 17.753C42.4948 20.1969 41.7134 22.2875 40.9284 22.7238C40.036 23.2197 37.9758 23.3155 36.429 22.2053C34.8804 21.0939 34.365 19.0951 34.9383 16.4252C34.9383 16.4251 34.9383 16.4251 34.9383 16.4251C34.9959 16.1569 35.1901 15.925 35.4577 15.8048C39.2464 14.1032 41.4307 13.5467 42.2422 13.5467C42.3647 13.5467 42.4559 13.5593 42.5166 13.5826C42.7604 13.8375 43.0801 15.2865 42.786 17.753ZM2.12479 25.9966C2.04648 25.8382 2.23133 25.5597 2.34853 25.4076C2.53429 25.1669 2.70542 25.1176 2.83471 25.1176C2.86203 25.1176 2.88752 25.1198 2.91088 25.1229C3.25884 25.1685 3.74634 25.5441 4.00461 26.174C4.06545 26.3223 4.14446 26.5679 4.16295 26.8742C3.11533 26.6613 2.30141 26.3543 2.12479 25.9966Z" fill="white"/>
<path d="M24.1636 9.28336V6.62636C25.0974 6.69182 25.4444 7.11064 25.7645 7.11064C26.1647 7.11064 26.3515 6.6133 26.3515 6.36458C26.3515 5.72315 25.0707 5.44832 24.1636 5.42212V5.06857C24.1636 4.91152 23.9634 4.76753 23.7633 4.76753C23.5364 4.76753 23.3763 4.91152 23.3763 5.06857V5.44812C22.1089 5.57906 20.8415 6.23355 20.8415 7.88281C20.8415 9.55828 22.1757 10.0295 23.3763 10.4483V13.5244C22.0155 13.4196 21.6554 12.5034 21.2151 12.5034C20.8816 12.5034 20.6015 12.9353 20.6015 13.2495C20.6015 13.8909 21.7221 14.7679 23.3763 14.7941V15.1998C23.3763 15.3569 23.5365 15.5009 23.7633 15.5009C23.9635 15.5009 24.1636 15.3569 24.1636 15.1998V14.7548C25.6044 14.5584 26.5916 13.6683 26.5916 12.0583C26.5916 10.2782 25.3242 9.70217 24.1636 9.28336ZM23.4564 9.03473C22.7493 8.77296 22.1757 8.49813 22.1757 7.75207C22.1757 7.07138 22.7093 6.74414 23.4564 6.65256V9.03473ZM24.0834 13.4981V10.7363C24.7371 11.0111 25.2574 11.3776 25.2574 12.2022C25.2574 12.9485 24.8038 13.3673 24.0834 13.4981Z" fill="white"/>
</svg>
