<?xml version="1.0" encoding="utf-8"?><svg xmlns="http://www.w3.org/2000/svg" xmlns:xlink="http://www.w3.org/1999/xlink"><symbol viewBox="0 0 64 64" id="feedback" xmlns="http://www.w3.org/2000/svg"><path d="M35 35h12.785a5.145 5.145 0 0 1 5.191 4.509A5 5 0 0 1 48 45c7.18 0 13-2 13-10V12a3 3 0 0 0-3-3H35a4 4 0 0 0-4 4v18a4 4 0 0 0 4 4z"/><path d="M34 3H6a3 3 0 0 0-3 3v22c0 8 5.82 10 13 10a5 5 0 0 1-4.977-5.491A5.145 5.145 0 0 1 16.215 28H34a3 3 0 0 0 3-3V6a3 3 0 0 0-3-3zM39 53l-5.106 2.553a4.236 4.236 0 0 1-3.788 0L25 53a4 4 0 0 0-4 4v5h22v-5a4 4 0 0 0-4-4z"/><path d="M43 14a2 2 0 0 0-2 2v5a2 2 0 0 0 2 2h1a2 2 0 0 1 2 2v3a2 2 0 0 0 4 0v-3a2 2 0 0 1 2-2h1v-9zM23.573 37.866A8.961 8.961 0 0 0 29 49.477V50c0 2.209-1.791 3-4 3l5.106 2.553a4.236 4.236 0 0 0 3.788 0L39 53c-2.209 0-4-.791-4-3v-.523a8.994 8.994 0 0 0 6-8.765c-.007-.24.011-.476-.016-.712H29a7.966 7.966 0 0 1-5.427-2.134z"/><path d="M23.573 37.866A7.966 7.966 0 0 0 29 40h11.979A7.982 7.982 0 0 0 33 32H21a7.97 7.97 0 0 0 2.573 5.866zM25 14h-1a2 2 0 0 1-2-2V9a2 2 0 0 0-4 0v3a2 2 0 0 1-2 2h-1v9h10a2 2 0 0 0 2-2v-5a2 2 0 0 0-2-2zM15 13h-4v11h4V14zm42 11V13h-4v11z"/><path d="M58 8H38V6a4 4 0 0 0-4-4H6a4 4 0 0 0-4 4v22c0 11 10.537 11 14 11a1 1 0 0 0 0-2 4 4 0 0 1-3.981-4.4 4.149 4.149 0 0 1 4.2-3.6H30v2h-9a1 1 0 0 0-1 1 8.96 8.96 0 0 0 2.435 6.137A9.867 9.867 0 0 0 22 41a10.012 10.012 0 0 0 6 9.155c-.022.6-.267 1.845-3 1.845a5.006 5.006 0 0 0-5 5v5h2v-5a2.994 2.994 0 0 1 2.8-2.98l4.856 2.427A5.24 5.24 0 0 0 31 56.9V62h2v-5.1a5.259 5.259 0 0 0 1.342-.448L39.2 54.02A2.994 2.994 0 0 1 42 57v5h2v-5a5.006 5.006 0 0 0-5-5c-2.73 0-2.976-1.247-3-1.844a9.964 9.964 0 0 0 6-9.476v-.223c0-.15-.006-.3-.017-.448V40a8.958 8.958 0 0 0-.947-4h6.753a4.149 4.149 0 0 1 4.2 3.6A4 4 0 0 1 48 44a1 1 0 0 0 0 2c3.463 0 14 0 14-11V12a4 4 0 0 0-4-4zM10.028 32.414a6.04 6.04 0 0 0 1.172 4.179C6.255 35.617 4 32.859 4 28V6a2 2 0 0 1 2-2h28a2 2 0 0 1 2 2v19a2 2 0 0 1-2 2H16.215a6.163 6.163 0 0 0-6.187 5.414zM33 33a7 7 0 0 1 6.908 6H29a7.011 7.011 0 0 1-6.929-6zm1.667 15.534a1 1 0 0 0-.667.943V50a3.582 3.582 0 0 0 2.012 3.376l-2.564 1.282a3.293 3.293 0 0 1-2.895 0l-2.565-1.282A3.582 3.582 0 0 0 30 50v-.523a1 1 0 0 0-.667-.943A8.012 8.012 0 0 1 24 41a7.757 7.757 0 0 1 .136-1.439A8.943 8.943 0 0 0 29 41h10.984a7.964 7.964 0 0 1-5.317 7.534zM60 35c0 4.859-2.255 7.617-7.195 8.593a6.04 6.04 0 0 0 1.167-4.179A6.163 6.163 0 0 0 47.785 34h-8.111A8.942 8.942 0 0 0 33 31h-1v-2h2a4 4 0 0 0 4-4V10h20a2 2 0 0 1 2 2z"/><path d="M25 13h-1a1 1 0 0 1-1-1V9a3 3 0 0 0-6 0v3a1 1 0 0 1-1 1 1 1 0 0 0-1-1h-4a1 1 0 0 0-1 1v11a1 1 0 0 0 1 1h4a1 1 0 0 0 1-1h9a3 3 0 0 0 3-3v-5a3 3 0 0 0-3-3zM14 23h-2v-9h2zm12-2a1 1 0 0 1-1 1h-9v-7a3 3 0 0 0 3-3V9a1 1 0 0 1 2 0v3a3 3 0 0 0 3 3h1a1 1 0 0 1 1 1zm31-9h-4a1 1 0 0 0-1 1h-9a3 3 0 0 0-3 3v5a3 3 0 0 0 3 3h1a1 1 0 0 1 1 1v3a3 3 0 0 0 6 0v-3a1 1 0 0 1 1-1 1 1 0 0 0 1 1h4a1 1 0 0 0 1-1V13a1 1 0 0 0-1-1zm-8 13v3a1 1 0 0 1-2 0v-3a3 3 0 0 0-3-3h-1a1 1 0 0 1-1-1v-5a1 1 0 0 1 1-1h9v7a3 3 0 0 0-3 3zm7-2h-2v-9h2zm-17 5h4v2h-4zM29 6h-2v1h-1v2h1v1h2V9h1V7h-1z"/></symbol><symbol viewBox="0 0 482.13 482.13" id="project-management" xmlns="http://www.w3.org/2000/svg"><path d="M475.266 126.603h-.002l-.016-.016-31.12-4.44a8 8 0 0 1-3.672-14.32l25.152-18.864a8 8 0 0 0 1.6-11.2l-28.8-38.4a8 8 0 0 0-11.2-1.6l-25.144 18.864a8 8 0 0 1-12.752-7.528l4.448-31.12a8 8 0 0 0-6.783-9.055l-.009-.001-47.488-6.784a8 8 0 0 0-9.056 6.782v.002l-4.448 31.12a8 8 0 0 1-14.32 3.672L292.8 18.563a8 8 0 0 0-11.2-1.6l-24.04 18.04a154.787 154.787 0 0 0-32.72 0C153.614 43.144 97.759 99.946 90.816 171.299c-.216 2.264-.296 4.512-.408 6.76h-2.4a8 8 0 0 0-7.824 6.4l-5.528 26.288-22.144-15.272a8 8 0 0 0-10.2.928l-24 24a8 8 0 0 0-.928 10.192l15.2 22.104-26.296 5.528A8 8 0 0 0 0 266.059v32a8 8 0 0 0 6.352 7.832l26.296 5.528-15.2 22.104a8 8 0 0 0 .928 10.192l24 24a8 8 0 0 0 10.2.928l22.104-15.24 5.528 26.296a8 8 0 0 0 7.824 6.4h32a8 8 0 0 0 7.832-6.352l5.528-26.296 22.104 15.2a8 8 0 0 0 10.192-.928l12.424-12.464v22.8a31.896 31.896 0 0 0 16 27.552v44.448c0 17.673 14.327 32 32 32h32c17.673 0 32-14.327 32-32v-44.448a31.896 31.896 0 0 0 16-27.552v-31.664a39.2 39.2 0 0 1 18.504-32.656 153.525 153.525 0 0 0 18.832-14.4l-10.672-11.92a136.188 136.188 0 0 1-16.856 12.888 55.104 55.104 0 0 0-25.808 46.088v31.664c0 8.837-7.163 16-16 16h-64c-8.837 0-16-7.163-16-16v-32.328a53.824 53.824 0 0 0-25.376-45.152c-63.407-39.842-82.511-123.541-42.669-186.948a135.593 135.593 0 0 1 114.325-63.452 8.698 8.698 0 0 0-.312.872 8 8 0 0 0 1.528 5.928l18.856 25.144a7.832 7.832 0 0 1 .48 8.88 7.952 7.952 0 0 1-8 3.848l-31.12-4.448a8 8 0 0 0-9.055 6.783l-.001.009-6.792 47.512a8.001 8.001 0 0 0 6.783 9.055l.009.001 31.12 4.448a8 8 0 0 1 3.672 14.32l-25.144 18.856a8 8 0 0 0-1.6 11.2l28.8 38.4a8 8 0 0 0 11.2 1.6l25.152-18.856a8 8 0 0 1 12.712 7.528l-4.44 31.12a8 8 0 0 0 6.782 9.056h.002l47.52 6.792c.374.048.751.072 1.128.072a8 8 0 0 0 7.928-6.864l4.44-31.12a8 8 0 0 1 14.32-3.672l18.864 25.144a8 8 0 0 0 11.2 1.6l38.4-28.8a8 8 0 0 0 1.6-11.2l-18.856-25.144a7.863 7.863 0 0 1-.48-8.88 7.768 7.768 0 0 1 8-3.84l31.12 4.44a8 8 0 0 0 9.056-6.782v-.002l6.784-47.52a8 8 0 0 0-6.782-9.056zM210.112 410.059h64v16h-64v-16zm0 32h64v8c0 8.837-7.163 16-16 16h-32c-8.837 0-16-7.163-16-16v-8zm-63.688-137.96a151.206 151.206 0 0 0 13.672 9.96 39.05 39.05 0 0 1 16.12 20.472l-17.16 17.128-16.616-11.456c-7.276-5.014-17.239-3.18-22.254 4.096a16.003 16.003 0 0 0-2.482 5.784l-4.192 19.976H94.496l-4.192-19.944c-1.82-8.647-10.305-14.182-18.952-12.362a16.003 16.003 0 0 0-5.784 2.482l-16.624 11.424-14.576-14.544 11.448-16.608c5.019-7.273 3.191-17.237-4.082-22.256a15.994 15.994 0 0 0-5.79-2.488L16 291.563v-19.008l19.944-4.2c8.644-1.833 14.166-10.326 12.333-18.971a15.996 15.996 0 0 0-2.453-5.725l-11.456-16.656 14.576-14.544 16.632 11.456c7.279 5.009 17.242 3.169 22.251-4.11a15.983 15.983 0 0 0 2.477-5.778l1.4-6.656a152.347 152.347 0 0 0 6.344 27.128c-26.323 3.138-45.118 27.022-41.98 53.345 3.138 26.323 27.022 45.118 53.345 41.98a48.004 48.004 0 0 0 37.011-25.725zM134 292.827c-5.974 16.605-24.277 25.223-40.882 19.25-16.605-5.974-25.223-24.277-19.25-40.882a31.952 31.952 0 0 1 30.131-21.136h.304A151.512 151.512 0 0 0 134 292.827zm326.512-119.856l-23.2-3.312c-13.122-1.874-25.278 7.245-27.152 20.366-.9 6.301.74 12.702 4.56 17.794l14.056 18.744-25.6 19.2-14.064-18.736c-7.952-10.605-22.995-12.756-33.599-4.804a24.004 24.004 0 0 0-9.361 15.804l-3.24 23.232-31.672-4.528 3.312-23.2c1.879-13.121-7.235-25.281-20.356-27.159a23.998 23.998 0 0 0-17.804 4.559l-18.744 14.056-19.2-25.6 18.736-14.064c10.605-7.952 12.756-22.995 4.804-33.599a24.004 24.004 0 0 0-15.804-9.361l-23.2-3.312 4.528-31.672 23.2 3.312c13.121 1.879 25.281-7.235 27.159-20.356a23.998 23.998 0 0 0-4.559-17.804l-14.104-18.76 25.6-19.2 14.064 18.744c7.952 10.605 22.995 12.756 33.599 4.804a24.004 24.004 0 0 0 9.361-15.804l3.312-23.2 31.672 4.52-3.312 23.2c-1.874 13.122 7.244 25.278 20.366 27.152 6.301.9 12.702-.74 17.794-4.56l18.744-14.056 19.2 25.6-18.744 14.064c-10.605 7.952-12.756 22.995-4.804 33.599a24.004 24.004 0 0 0 15.804 9.361l23.2 3.312-4.552 31.664z"/><path d="M344 76.171c-35.346 0-64 28.654-64 64 0 35.346 28.654 64 64 64 35.346 0 64-28.654 64-64-.04-35.33-28.67-63.961-64-64zm0 112c-26.51 0-48-21.49-48-48s21.49-48 48-48 48 21.49 48 48c-.031 26.497-21.503 47.969-48 48zM234.112 354.059h16v24h-16zm-26.992-78.568c-49.385-19.292-73.78-74.966-54.487-124.351a96.005 96.005 0 0 1 38.279-46.313l-8.552-13.536c-52.336 32.971-68.035 102.126-35.064 154.462a112.001 112.001 0 0 0 54.016 44.626c19.752 7.568 32.795 26.528 32.8 47.68h16c.025-27.752-17.077-52.641-42.992-62.568zm186.992 22.568h56v16h-56zM380.993 352.2l10.241-12.293 48.004 39.994-10.242 12.292zm-34.881 9.859h16v56h-16zM8.169 138.29l63.996-15.996 3.878 15.513-63.996 15.998zm13.289-81.718l9.295-13.013 55.995 39.996-9.294 13.013zM90.003 4.03l15.5-3.963 16.363 63.995-15.5 3.963z"/></symbol><symbol viewBox="0 0 56.966 56.966" id="search" xmlns="http://www.w3.org/2000/svg"><path d="M55.146 51.887L41.588 37.786A22.926 22.926 0 0 0 46.984 23c0-12.682-10.318-23-23-23s-23 10.318-23 23 10.318 23 23 23c4.761 0 9.298-1.436 13.177-4.162l13.661 14.208c.571.593 1.339.92 2.162.92.779 0 1.518-.297 2.079-.837a3.004 3.004 0 0 0 .083-4.242zM23.984 6c9.374 0 17 7.626 17 17s-7.626 17-17 17-17-7.626-17-17 7.626-17 17-17z"/></symbol></svg>