<svg id="Слой_1" xmlns="http://www.w3.org/2000/svg" viewBox="0 0 528.9 795"><style>.st1{fill:#fefefd}.st2{fill:#b0382a}</style><g id="Слой_x0020_1"><g id="_998606336"><path d="M446.1 544.9c-24 17.8-49 36.5-73 54.3L327.7 634c-3.6 3.6-23.2 18.7-26.7 20.5-.9 1.8-22.3 17.8-26.7 21.4-2.7 1.8-6.2 5.3-8.9 7.1-2.7-.9-35.6-26.7-37.4-29.4-6.2-2.7-54.3-41.8-63.2-48.1-3.6-1.8-6.2-3.6-8.9-6.2L137.1 585c-6.2-5.3-11.6-8.9-18.7-14.2l-27.6-20.5c-1.8-1.8-7.1-5.3-8.9-7.1-2.7-.9-.9-.9-2.7-1.8-9.8-8-18.7-14.2-28.5-22.3l-6.2-6.2-.9-.9c-4.5-5.3-14.2-18.7-16-25.8 4.5-3.6 8.9-7.1 14.2-10.7l40.1-31.2c9.8-8 26.7-19.6 37.4-27.6 4.5-4.5 33.8-26.7 36.5-27.6l31.2-24.9c.9-.9 2.7-1.8 4.5-3.6 8.9-6.2 30.3-24 36.5-27.6 3.6-4.5 46.3-35.6 54.3-41.8 5.3-4.5 12.5-8.9 18.7-14.2l12.5-9.8c7.1-5.3 57-44.5 59.7-45.4 1.8-2.7 14.2-10.7 17.8-14.2 6.2-4.5 12.5-8.9 18.7-13.4 11.6-9.8 24-18.7 36.5-28.5l44.5-33.8c2.7-1.8 5.3-3.6 8-5.3 4.5-4.5 4.5-4.5 8-4.5v302.7c0 16 1.8 44.5-3.6 57-.9 1.8-.9 2.7-1.8 5.3-3.6 14.2-18.7 29.4-29.4 38.3l-25.8 19.5zM41.8 388.2c1.8 2.7 4.5 14.2 6.2 16.9 0 .9 0 .9.9 1.8l19.6.9c-.9.9-5.3 4.5-7.1 6.2-3.6 1.8-6.2 4.5-8.9 5.3l5.3 20.5c-5.3-2.7-11.6-8.9-16.9-11.6-2.7.9-15.1 9.8-16.9 10.7l5.3-19.6-15.1-12.5h20.5l7.1-18.6zm149.6-109.5c3.6 3.6 4.5 14.2 7.1 18.7l19.6.9c-4.5 3.6-11.6 8.9-16 11.6l5.3 18.7-16-10.7c-4.5 2.7-12.5 8.9-16.9 10.7l6.2-18.7c-2.7-3.6-12.5-8.9-15.1-12.5h19.6l6.2-18.7zM36.5 209.2c.9 1.8 1.8 6.2 2.7 8.9l1.8 6.2 1.8 1.8 16.9.9c-2.7 3.6-10.7 7.1-14.2 10.7l5.3 16.9c-3.6-.9-12.5-8-15.1-9.8-4.5 1.8-9.8 7.1-15.1 9.8l5.3-16.9c-2.7-2.7-10.7-8-14.2-11.6h18.7l6.1-16.9zm291.2-15.1c1.8-1.8 3.6-9.8 5.3-13.4 0-.9 0-1.8.9-2.7.9-1.8 0-.9.9-1.8 1.8 3.6 4.5 15.1 7.1 17.8l18.7.9-16 12.5 5.3 18.7c-5.3-2.7-9.8-8-16-11.6-5.3 2.7-10.7 8-16 10.7.9-5.3 5.3-13.4 5.3-18.7-4.5-4.5-9.8-7.1-15.1-12.5h19.6zM122.9 85.5c3.6 6.2 1.8 8.9 8 15.1 4.5 4.5 6.2 7.1 11.6 10.7 5.3 2.7 11.6 3.6 17.8 4.5 10.7 0 11.6-1.8 19.6-3.6 3.6 9.8 13.4 16 24.9 18.7 6.2.9 13.4.9 20.5 0 6.2-1.8 9.8-3.6 16-5.3 0 6.2 0 91.7-.9 94.4 0 1.8-67.7 52.5-78.4 61.4-2.7 1.8-7.1 5.3-8.9 6.2V276c7.1-2.7 14.2-11.6 17.8-19.6 4.5-8.9 6.2-17.8 8-28.5l-12.5.9c3.6-.9 16.9-8 21.4-12.5 12.5-15.1 14.2-29.4 19.6-48.1 1.8-9.8 4.5-17.8 7.1-25.8-13.4-1.8-15.1 3.6-23.2 16-1.8 3.6-4.5 8-7.1 11.6-1.8 2.7-6.2 8-8 9.8-3.6-.9-11.6-8-13.4-9.8-.9-1.8-4.5-16.9-4.5-18.7 0-1.8 6.2-12.5 8-16 1.8-6.2 0-13.4-4.5-16-4.5-.9-15.1 11.6-20.5 10.7-6.2-1.8-7.1-1.8-11.6 1.8-2.7 2.7-4.5 4.5-7.1 8-3.6-.9-6.2-2.7-9.8-.9-2.7.9-4.5 4.5-2.7 8.9 1.8 5.3 6.2 7.1 8 15.1 3.6 12.5 2.7 28.5 0 41.8-2.7 10.7-8 24-11.6 35.6-7.1 21.4-17.8 24-16 30.3 3.6 6.2 7.1.9 9.8 6.2 2.7 3.6 4.5 8.9 5.3 13.4.9 6.2 1.8 25.8 0 32.1l-31.2 24v-252l48.5-8.8zm211.9 26.7c14.2 2.7 21.4 3.6 32.9-3.6 7.1-4.5 15.1-14.2 10.7-27.6l37.4 6.2c-1.8 1.8-7.1 5.3-8.9 6.2L381.1 114c-16 11.6-97.1 74.8-103.3 78.4l-.9-71.2c5.3 1.8 8.9 4.5 14.2 6.2 6.2 2.7 11.6 3.6 18.7 3.6 13.4-1.9 20.5-9 25-18.8zm140.7-62.3l6.2 17.8 19.6.9c-.9 1.8-13.4 9.8-16 12.5l5.3 18.7c-5.3-2.7-10.7-8.9-16-11.6-3.6 1.8-13.4 9.8-16 10.7.9-4.5 5.3-14.2 5.3-18.7-5.3-4.5-10.7-8-15.1-12.5h19.6l7.1-17.8zM38.3 49l7.1 18.7 19.6.9c-4.5 3.6-10.7 8.9-16 11.6l5.3 18.7-16-10.7c-4.5 2.7-11.6 8.9-16 10.7l5.3-18.7c-1.8-2.7-4.5-3.6-7.1-6.2-2.7-1.8-6.2-4.5-8-6.2h19.6L38.3 49zm212.8-9.8c2.7-.9 7.1-16 8-18.7l4.5 14.2c.9.9.9 1.8.9 2.7 1.8 2.7.9.9 1.8 1.8l18.7.9c-1.8 1.8-12.5 10.7-16 11.6l6.2 19.6c-6.2-3.6-10.7-8-16-11.6-5.3 1.8-11.6 8-16.9 10.7l5.3-18.7c-4.5-4.5-10.7-8-15.1-12.5h18.6zM0 59.7v408.7c1.8 3.6 1.8 12.5 6.2 25.8 4.5 11.6 9.8 20.5 17.8 29.4 9.8 10.7 12.5 12.5 24.9 22.3 11.6 8.9 24 17.8 35.6 26.7l35.6 27.6c6.2 4.5 12.5 8.9 18.7 13.4 6.2 4.5 11.6 8.9 16.9 13.4l89.9 67.7c2.7 2.7 16 11.6 16.9 13.4h3.6c2.7-1.8 6.2-4.5 8.9-6.2l115-87.5c28.5-21.4 60.5-47.2 89-67.7 12.5-8.9 23.2-16.9 32.1-30.3 18.7-29.4 13.4-35.6 17.8-43.6v-414c-2.7-4.5-2.7-7.1-6.2-11.6-8-10.7-23.2-15.1-35.6-18.7-24-6.2-95.3-19.6-122-22.3L299.2 0h-44.5c-4.5 1.8-30.3 1.8-37.4 1.8C171 4.5 55.2 17.8 17.8 38.3 4.5 45.4 3.6 54.3 0 59.7z" fill="#2d3160"/><path class="st1" d="M373.1 221.7v377.5c24-17.8 49-36.5 73-54.3.9-15.1 0-32.1 0-47.2V170.9c0-1.8.9-3.6 0-5.3-12.5 9.8-24.9 18.7-36.5 28.5-6.2 4.5-12.5 8.9-18.7 13.4-3.6 3.5-16 11.5-17.8 14.2z"/><path class="st2" d="M301 276.9c.9 2.7 0 20.5 0 23.2v306.3c0 14.2 1.8 34.7 0 48.1 3.6-1.8 23.2-16.9 26.7-20.5l45.4-34.7V221.7c-2.7.9-52.5 40.1-59.7 45.4l-12.4 9.8z"/><path class="st1" d="M227.9 333v320.5c1.8 2.7 34.7 28.5 37.4 29.4 2.7-1.8 6.2-5.3 8.9-7.1 4.5-3.6 25.8-19.6 26.7-21.4 1.8-13.4 0-33.8 0-48.1V300.1c0-2.7.9-20.5 0-23.2-6.2 5.3-13.4 9.8-18.7 14.2-8 6.3-50.7 37.5-54.3 41.9z"/><path class="st2" d="M446.1 165.6c.9 1.8 0 3.6 0 5.3v326.8c0 15.1.9 32.1 0 47.2l25.8-19.6c10.7-8.9 25.8-24 29.4-38.3.9-2.7.9-3.6 1.8-5.3 5.3-12.5 3.6-41 3.6-57V122c-3.6 0-3.6 0-8 4.5-2.7 1.8-5.3 3.6-8 5.3l-44.6 33.8zM155.8 389.1v210.1c2.7 2.7 5.3 4.5 8.9 6.2 8.9 6.2 57 45.4 63.2 48.1V333c-6.2 3.6-27.6 21.4-36.5 27.6-1.8 1.8-3.6 2.7-4.5 3.6l-31.1 24.9z"/><path class="st1" d="M74.8 94.4v252l31.2-24c1.8-6.2.9-25.8 0-32.1-.9-4.5-2.7-9.8-5.3-13.4-2.7-5.3-6.2 0-9.8-6.2-1.8-6.2 8.9-8.9 16-30.3 3.6-11.6 8.9-24.9 11.6-35.6 2.7-13.4 3.6-29.4 0-41.8-1.8-8-6.2-9.8-8-15.1-1.8-4.5 0-8 2.7-8.9 3.6-1.8 6.2 0 9.8.9 2.7-3.6 4.5-5.3 7.1-8 4.5-3.6 5.3-3.6 11.6-1.8 5.3.9 16-11.6 20.5-10.7 4.5 2.7 6.2 9.8 4.5 16-1.8 3.6-8 14.2-8 16 0 1.8 3.6 16.9 4.5 18.7 1.8 1.8 9.8 8.9 13.4 9.8 1.8-1.8 6.2-7.1 8-9.8 2.7-3.6 5.3-8 7.1-11.6 8-12.5 9.8-17.8 23.2-16-2.7 8-5.3 16-7.1 25.8-5.3 18.7-7.1 32.9-19.6 48.1-4.5 4.5-17.8 11.6-21.4 12.5l12.5-.9c-1.8 10.7-3.6 19.6-8 28.5-3.6 8-10.7 16.9-17.8 19.6v11.6c1.8-.9 6.2-4.5 8.9-6.2 10.7-8.9 78.4-59.7 78.4-61.4.9-2.7.9-88.1.9-94.4-6.2 1.8-9.8 3.6-16 5.3-7.1.9-14.2.9-20.5 0-11.6-2.7-21.4-8.9-24.9-18.7-8 1.8-8.9 3.6-19.6 3.6-6.2-.9-12.5-1.8-17.8-4.5-5.3-3.6-7.1-6.2-11.6-10.7-6.2-6.2-4.5-8.9-8-15.1l-48.5 8.8zm7.1 349.9v98.8c1.8 1.8 7.1 5.3 8.9 7.1l27.6 20.5c7.1 5.3 12.5 8.9 18.7 14.2l18.7 14.2v-210c-2.7.9-32.1 23.2-36.5 27.6-10.7 8-27.6 19.6-37.4 27.6zm252.9-332.1c-4.5 9.8-11.6 16.9-24.9 18.7-7.1 0-12.5-.9-18.7-3.6-5.3-1.8-8.9-4.5-14.2-6.2l.9 71.2c6.2-3.6 87.3-66.8 103.3-78.4L407 93.4c1.8-.9 7.1-4.5 8.9-6.2L378.4 81c4.5 13.4-3.6 23.2-10.7 27.6-11.5 7.2-18.7 6.3-32.9 3.6z"/><path class="st2" d="M81.9 543.1v-98.8l-40.1 31.2c-5.3 3.6-9.8 7.1-14.2 10.7 1.8 7.1 11.6 20.5 16 25.8l.9.9 6.2 6.2c9.8 8 18.7 14.2 28.5 22.3 1.8.8 0 .8 2.7 1.7z"/><path class="st1" d="M34.7 406.9H14.2l15.1 12.5L24 439c1.8-.9 14.2-9.8 16.9-10.7 5.3 2.7 11.6 8.9 16.9 11.6l-5.3-20.5c2.7-.9 5.3-3.6 8.9-5.3 1.8-1.8 6.2-5.3 7.1-6.2l-19.5-1c-.9-.9-.9-.9-.9-1.8-1.8-2.7-4.5-14.2-6.2-16.9l-7.2 18.7zm150.5-109.5h-19.6c2.7 3.6 12.5 8.9 15.1 12.5l-6.2 18.7c4.5-1.8 12.5-8 16.9-10.7l16 10.7-5.3-18.7c4.5-2.7 11.6-8 16-11.6l-19.6-.9c-2.7-4.5-3.6-15.1-7.1-18.7l-6.2 18.7z"/><path d="M468.3 67.7h-19.6c4.5 4.5 9.8 8 15.1 12.5 0 4.5-4.5 14.2-5.3 18.7 2.7-.9 12.5-8.9 16-10.7 5.3 2.7 10.7 8.9 16 11.6L485.3 81c2.7-2.7 15.1-10.7 16-12.5l-19.6-.9-6.2-17.8-7.2 17.9zM251.1 39.2h-18.7c4.5 4.5 10.7 8 15.1 12.5l-5.3 18.7c5.3-2.7 11.6-8.9 16.9-10.7 5.3 3.6 9.8 8 16 11.6l-6.2-19.6c3.6-.9 14.2-9.8 16-11.6l-18.7-.9c-.9-.9 0 .9-1.8-1.8 0-.9 0-1.8-.9-2.7L259 20.5c-.8 2.7-5.2 17.8-7.9 18.7z" fill="#fbfdfa"/><path class="st1" d="M32.1 67.7H12.5c1.8 1.8 5.3 4.5 8 6.2 2.7 2.7 5.3 3.6 7.1 6.2l-5.3 18.7c4.5-1.8 11.6-8 16-10.7l16 10.7L49 80.1c5.3-2.7 11.6-8 16-11.6l-19.6-.9L38.3 49l-6.2 18.7zm295.6 126.4h-19.6c5.3 5.3 10.7 8 15.1 12.5 0 5.3-4.5 13.4-5.3 18.7 5.3-2.7 10.7-8 16-10.7 6.2 3.6 10.7 8.9 16 11.6l-5.3-18.7 16-12.5-18.7-.9c-2.7-2.7-5.3-14.2-7.1-17.8-.9.9 0 0-.9 1.8-.9.9-.9 1.8-.9 2.7-1.8 3.5-3.6 11.5-5.3 13.3zM30.3 226.2H11.6c3.6 3.6 11.6 8.9 14.2 11.6l-5.3 16.9c5.3-2.7 10.7-8 15.1-9.8 2.7 1.8 11.6 8.9 15.1 9.8l-5.3-16.9c3.6-3.6 11.6-7.1 14.2-10.7l-16.9-.9-1.8-1.8-1.8-6.2c-.9-2.7-1.8-7.1-2.7-8.9l-6.1 16.9z"/></g></g><path d="M33.9 781.3H16.5l-4.3 12.6H1.1l20.4-57.1h8.2l20.4 57.1H38.5l-4.6-12.6zm-14.6-8.9h12.2l-4.2-12.6-1.7-8.9h-.4l-1.7 9-4.2 12.5zm29.1-19H54v-7.6l10.5-3v10.6h9.9v8.9h-9.9v15.6c0 2.8.3 4.8.9 6 .6 1.2 1.6 1.8 3.2 1.8 1.1 0 2-.1 2.8-.3.8-.2 1.7-.5 2.6-1l1.9 8.1c-1.5.7-3.2 1.3-5.1 1.8-1.9.5-3.9.7-5.9.7-3.7 0-6.5-1-8.2-2.9-1.8-1.9-2.6-5.1-2.6-9.4v-20.4h-5.6v-8.9zm43.3 26.9c0 1.9.2 3.3.7 4.1.5.9 1.3 1.3 2.3 1.3.6 0 1.3-.1 1.9-.2.6-.1 1.4-.4 2.3-.7l1.1 8.3c-.9.4-2.2.9-4 1.3-1.8.4-3.6.6-5.5.6-3.1 0-5.4-.7-7-2.1-1.6-1.4-2.4-3.8-2.4-7.1v-48.6h10.5v43.1zm45.4 10.1c-1.6 1.3-3.8 2.4-6.6 3.3-2.8.9-5.7 1.3-8.9 1.3-6.5 0-11.3-1.9-14.3-5.7-3-3.8-4.5-9-4.5-15.7 0-7.1 1.7-12.5 5.1-16 3.4-3.6 8.2-5.3 14.3-5.3 2.1 0 4.1.3 6 .8 1.9.5 3.7 1.4 5.2 2.7 1.5 1.2 2.7 2.9 3.6 5 .9 2.1 1.4 4.7 1.4 7.9 0 1.1-.1 2.4-.2 3.6-.1 1.3-.3 2.6-.6 4.1h-24.2c.2 3.4 1 6 2.6 7.7 1.6 1.7 4.2 2.6 7.7 2.6 2.2 0 4.2-.3 5.9-1 1.7-.7 3.1-1.4 4-2.1l3.5 6.8zM122 760.6c-2.7 0-4.8.8-6.1 2.5-1.3 1.6-2.1 3.8-2.4 6.6h15c.2-2.9-.2-5.2-1.3-6.7-1.1-1.6-2.8-2.4-5.2-2.4zm.2-25.1h10.7v2.4l-9 10h-6l4.3-12.4zm19.4 17.9h5.6v-7.6l10.5-3v10.6h9.9v8.9h-9.9v15.6c0 2.8.3 4.8.9 6 .6 1.2 1.6 1.8 3.2 1.8 1.1 0 2-.1 2.8-.3.8-.2 1.7-.5 2.6-1l1.9 8.1c-1.5.7-3.2 1.3-5.1 1.8-1.9.5-3.9.7-5.9.7-3.7 0-6.5-1-8.2-2.9-1.8-1.9-2.6-5.1-2.6-9.4v-20.4h-5.6v-8.9zm31.9-11.5c0-1.6.6-2.9 1.7-4 1.2-1.1 2.8-1.7 4.8-1.7 2.1 0 3.7.6 5 1.7 1.3 1.1 1.9 2.4 1.9 4s-.6 2.9-1.9 3.9c-1.3 1.1-2.9 1.6-5 1.6s-3.7-.5-4.8-1.6c-1.2-1-1.7-2.3-1.7-3.9zm1.5 11.5h10.5v40.5H175v-40.5zm49.6 38c-1.6 1.2-3.6 2.1-5.9 2.7-2.3.6-4.7.9-7.1.9-3.2 0-6-.5-8.2-1.5-2.2-1-4.1-2.5-5.5-4.3-1.4-1.9-2.4-4.1-3-6.8-.6-2.6-.9-5.6-.9-8.8 0-6.9 1.5-12.1 4.6-15.8 3.1-3.7 7.6-5.6 13.5-5.6 3 0 5.4.2 7.2.7 1.8.5 3.4 1.1 4.9 1.9l-2.5 8.6c-1.2-.6-2.5-1.1-3.7-1.4-1.2-.3-2.6-.5-4.2-.5-2.9 0-5.1 1-6.6 2.9s-2.3 5-2.3 9.2c0 1.7.2 3.3.6 4.8.4 1.5.9 2.7 1.7 3.8.8 1.1 1.7 1.9 3 2.6 1.2.6 2.6.9 4.3.9 1.8 0 3.3-.2 4.5-.7 1.2-.5 2.3-1 3.3-1.7l2.3 8.1zm3.1-17.8c0-6.9 1.7-12.1 5-15.8 3.3-3.7 8-5.6 14.1-5.6 3.2 0 6 .5 8.4 1.5 2.4 1 4.3 2.5 5.9 4.3 1.6 1.9 2.7 4.1 3.5 6.8.8 2.6 1.2 5.6 1.2 8.8 0 6.9-1.7 12.1-5 15.8-3.3 3.7-8 5.6-14.1 5.6-3.2 0-6.1-.5-8.4-1.5-2.4-1-4.4-2.5-6-4.3-1.6-1.9-2.8-4.1-3.6-6.8-.6-2.7-1-5.6-1-8.8zm10.8 0c0 1.8.2 3.4.5 4.9.3 1.5.8 2.8 1.5 4 .6 1.1 1.5 2 2.6 2.6 1.1.6 2.3.9 3.8.9 2.8 0 4.8-1 6.2-3 1.3-2 2-5.2 2-9.5 0-3.7-.6-6.7-1.9-9-1.2-2.3-3.3-3.4-6.3-3.4-2.6 0-4.6 1-6.1 2.9-1.6 2-2.3 5.2-2.3 9.6zm99.4-9.1l1.2-11.3h-.5l-3.5 9.1-12.1 21.1h-3.6l-12.7-21.2-3.6-9h-.4l1.6 11.2v29.5h-10.5v-56.7H304l15.2 25.9 2.7 6.5h.3l2.4-6.6 14.3-25.8h10v56.7h-11.1v-29.4zm20.3-8.8c2.2-1 4.7-1.7 7.7-2.3 3-.6 6.1-.9 9.3-.9 2.8 0 5.2.3 7 1 1.9.7 3.4 1.6 4.5 2.9 1.1 1.2 1.9 2.7 2.4 4.5.5 1.7.7 3.7.7 5.8 0 2.4-.1 4.8-.2 7.2-.2 2.4-.3 4.8-.3 7.1s0 4.6.2 6.8.6 4.3 1.2 6.2h-8.6l-1.7-5.6h-.4c-1.1 1.7-2.6 3.1-4.5 4.3-1.9 1.2-4.4 1.8-7.4 1.8-1.9 0-3.6-.3-5.1-.9-1.5-.6-2.8-1.4-3.9-2.4-1.1-1.1-1.9-2.3-2.5-3.7-.6-1.4-.9-3-.9-4.8 0-2.5.6-4.6 1.7-6.3 1.1-1.7 2.7-3.1 4.8-4.1 2.1-1.1 4.6-1.8 7.5-2.2 2.9-.4 6.1-.5 9.7-.4.4-3 .2-5.2-.6-6.5-.8-1.3-2.6-2-5.4-2-2.1 0-4.3.2-6.7.6-2.3.4-4.3 1-5.8 1.7l-2.7-7.8zm13.4 30.1c2.1 0 3.8-.5 5-1.4 1.2-.9 2.2-2 2.8-3v-5.3c-1.7-.2-3.3-.2-4.8-.1s-2.9.4-4.1.7c-1.2.4-2.1.9-2.8 1.6-.7.7-1.1 1.6-1.1 2.7 0 1.5.4 2.7 1.3 3.5.9.9 2.1 1.3 3.7 1.3zm61.5-6.2c0 2.3 0 4.5.1 6.8s.3 4.8.7 7.5h-7.5l-1.5-5.3h-.3c-1.1 1.9-2.6 3.4-4.7 4.6-2 1.2-4.4 1.7-7.2 1.7-5.1 0-9-1.7-11.8-5-2.8-3.3-4.2-8.6-4.2-15.7 0-6.9 1.6-12.3 4.7-16.1 3.1-3.8 7.7-5.8 13.8-5.8 1.7 0 3.1.1 4.1.3 1.1.2 2.2.5 3.2.9v-16.4H433v42.5zm-17.9 6.5c2.1 0 3.7-.5 4.9-1.5 1.2-1 2-2.4 2.5-4.3v-17.2c-.8-.6-1.6-1-2.5-1.3-.9-.3-2.1-.4-3.6-.4-3 0-5.2 1-6.7 3s-2.2 5.4-2.2 10.3c0 3.5.6 6.2 1.8 8.3 1.2 2 3.1 3.1 5.8 3.1zm49.5-22.9c-1.7-.6-3.2-.9-4.5-.9-1.9 0-3.5.5-4.7 1.5-1.3 1-2.1 2.3-2.6 3.8v26.2h-10.5v-40.5h8.2l1.2 5.3h.3c.9-2 2.2-3.5 3.7-4.6 1.6-1.1 3.4-1.6 5.5-1.6 1.4 0 3 .3 4.8.9l-1.4 9.9zm5.4-21.3c0-1.6.6-2.9 1.7-4 1.2-1.1 2.8-1.7 4.8-1.7 2.1 0 3.7.6 5 1.7 1.3 1.1 1.9 2.4 1.9 4s-.6 2.9-1.9 3.9-2.9 1.6-5 1.6-3.7-.5-4.8-1.6c-1.1-1-1.7-2.3-1.7-3.9zm1.5 11.5h10.5v40.5h-10.5v-40.5zm55.4 26.2c0 2.3 0 4.5.1 6.8s.3 4.8.7 7.5h-7.5l-1.5-5.3h-.3c-1.1 1.9-2.6 3.4-4.7 4.6-2 1.2-4.4 1.7-7.2 1.7-5.1 0-9-1.7-11.8-5-2.8-3.3-4.2-8.6-4.2-15.7 0-6.9 1.6-12.3 4.7-16.1 3.1-3.8 7.7-5.8 13.8-5.8 1.7 0 3.1.1 4.1.3 1.1.2 2.2.5 3.2.9v-16.4H527v42.5zm-17.9 6.5c2.1 0 3.7-.5 4.9-1.5 1.2-1 2-2.4 2.5-4.3v-17.2c-.8-.6-1.6-1-2.5-1.3-.9-.3-2.1-.4-3.6-.4-3 0-5.2 1-6.7 3s-2.2 5.4-2.2 10.3c0 3.5.6 6.2 1.8 8.3 1.2 2 3.1 3.1 5.8 3.1z" fill="#1b1c20"/></svg>