<svg xmlns="http://www.w3.org/2000/svg" width="800" height="800" version="1" shape-rendering="geometricPrecision" text-rendering="geometricPrecision" image-rendering="optimizeQuality" fill-rule="evenodd" clip-rule="evenodd"><defs><style>.fil3{fill:#018749;fill-rule:nonzero}</style></defs><g id="Слой_x0020_1"><g id="_982809472"><path d="M400 35c100 0 191 41 257 107s107 157 107 258c0 100-41 191-107 257S500 764 400 764c-101 0-192-41-258-107S35 500 35 400c0-101 41-192 107-258S299 35 400 35z" fill="#fefefe" fill-rule="nonzero"/><path d="M773 257C736 157 645 67 546 30 430-19 277-3 175 67 41 157-22 313 7 472c22 128 123 253 247 299 141 56 316 26 424-80 115-108 153-287 95-434z" fill="#018749"/><path d="M283 754C150 714 40 577 28 441 8 287 88 137 225 67c104-56 248-55 351 4 74 40 130 101 166 177 57 123 39 288-53 393-98 120-263 161-406 113zm194-321c-8 0-16 3-21-5-7-6-5-17-2-25 4-9 14-9 22-10 37 5 79 12 112-8 22-12 33-36 33-61 2-33-29-54-54-67-21-14-26-38-46-52-22-15-58-17-81-1-26 20-20 55-18 84 0 20 4 45-8 62-3 1-7 0-9-3-11-31-5-64-9-96-4-19-14-34-24-50-7-9-12-18-23-22-31-7-57 11-74 34-21 33-63 31-86 61-11 19-13 49 0 68 27 43 84 28 128 26 11 0 23-1 32 4 3 3 7 7 6 12-1 8-8 15-15 18-41 16-85-10-125 3-20 8-32 28-35 48-5 30 19 52 42 67 25 14 30 41 48 60 20 21 49 30 78 24 37-24 25-79 19-116-2-7-2-16 4-20 4-3 13-4 16 2 7 31 0 65-4 97-7 16-7 37-24 48 17 2 34 4 51 3-11-46-3-94-1-141 3-3 5-9 10-8 7 3 10 10 10 17-2 31-16 65 0 95 13 21 38 29 63 28 21 2 39-17 48-34 19-31 59-32 76-65 8-24 12-59-8-79-37-32-92-11-131 2zm131 51l-3 2c-35 4-69 12-99 28-5-3-12-6-11-12 35-15 73-26 113-28v10zm-6 20c-25 5-50 8-70 23-6 3-12-3-17-7v-1c27-14 56-20 87-26l4 1c1 4-2 7-4 10zm-42 35c-7 0-14-1-20-5 1-5 7-6 10-8 13-7 28-9 42-11l1 1c-9 11-22 16-33 23zm-79-16c-36-30-64-69-84-108-59 12-111 65-137 119-5-39 24-68 49-93 24-19 47-35 73-48-14-62-60-113-118-140l-1-2c13-4 26 2 37 6 14 8 27 18 39 28 25 27 49 59 65 92 9 1 18-4 27-6 49-20 89-65 110-112h1c3 39-25 71-54 97-21 18-44 32-68 45v2c14 59 65 113 120 138-22 4-42-6-59-18zm46 45c-3 1-4-2-4-4 0-5-2-10 0-16l17 1c-3 7-9 13-13 19zm-24 25c-6-17-6-35-6-53 7 2 13 4 17 8 0 10-1 21 5 28-3 8-9 14-16 17zm-26 6c-3-23-4-49-3-72 5 2 13 4 14 11 0 20 2 39 6 58-5 4-12 4-17 3zm-16-6c-6-3-11-8-9-17 1-23 0-46 2-68 4 3 10 7 12 12-1 24-2 50 2 73-1 3-5 2-7 0zm-19-19c-12-10-10-26-8-40 3-13 8-24 8-38 2 0 3 1 4 3-4 24-1 51-4 75zm-85-118c-2-5-8-11-5-16 4-3 8-7 14-7 1 8-2 17-9 23zm-3 120l-2-3c-5-40-10-80-20-118 3-4 7-8 11-8l5 10c3 27 9 52 13 79 2 14 2 30-7 40zm-19 16l-2-1c0-42-5-84-18-122 2-3 5-5 9-8 13 39 17 82 21 125-1 4-6 6-10 6zm-10 2c-5 3-11 0-15-1l-1-3c2-35 1-72-8-103-1-4 3-8 6-11 2 0 3 1 4 3 6 38 18 75 14 115zm-26-6c-17-5-1-25-7-37 0-16-2-32-7-46 1-5 5-9 8-12 8 21 8 46 9 70-1 8 0 18-3 25zm-15-16c-2 2-5 1-6-1-12-9-3-21-5-33-3-9-1-17 4-23 4 1 3 6 5 10 3 15 3 31 2 47zm-67-68c-3-4-8-7-11-11 6-7 16-7 24-9 11 0 21 1 31 4 2 4-2 7-3 10-15-1-28 2-41 6zm21 14c-4 1-7-4-10-7 6-4 17-5 25-4l1 3c-2 8-12 2-16 8zm14 12c-3 0-5-3-7-5 1-3 6-5 8-1l-1 6zm-56-59c24-5 51-3 75 1l1 1c0 3-2 6-4 7-22-4-48-7-68 3-3-3-4-7-4-12zm0-17c5-5 13-2 20-4 23-1 46 2 68 6 1 3-2 7-6 8-26-4-54-5-82-3-2-1-1-4 0-7zm8-25c32-2 62 5 92 14l-1 4-2 2c-31-6-65-9-97-5 0-6 4-11 8-15zm65-17l17 4c5 10 19 6 25 14-1 3-3 4-6 6-11 1-18-7-28-9-20-2-39-5-58-8 12-11 33-8 50-7zm58 6c-2 2-4 6-7 7-4 0-7-4-8-7 4-2 10 0 15 0zm-22-59c13-9 30-12 47-12 11-3 10 10 14 15-18-3-41-4-61-3zm-53 4v-2c27-21 57-35 92-36l7 11c1 2-3 2-4 2-25 2-46 12-67 24-9-1-19 2-28 1zm-36-10l1-2c31-26 67-40 107-46 5 0 8 5 10 8v2c-36 7-68 24-98 46-7-2-14-3-20-8zm-15-14c30-26 67-40 103-53 5 2 10 6 12 11-39 8-74 24-106 48-3 0-7-3-9-6zm-4-11c-3-5-1-11-1-16 27-18 58-30 88-41 5 1 9 4 12 7-10 6-22 9-33 15-22 11-44 23-66 35zm1-39c9-8 21-12 31-17 11-5 22-9 33-12 4 0 8 1 12 4l-2 2c-25 10-50 22-75 33-2-3 1-7 1-10zm33-30c3-1 6 0 8-1-8 5-17 9-26 11 3-7 12-7 18-10zm42-24c4 1 1 5 3 7-3 1-6 1-8 0 1-2 3-5 5-7zm20-28c3 12 3 27 5 39-1 3-4 2-6 3-11-3-7-17-11-26 2-5 7-12 12-16zm20-12c3 21 5 43 4 63-4 0-8-1-11-5l-5-53c4-3 8-5 12-5zm22-5c3 29 3 56 1 83-4 1-7-4-10-8 0-23-2-50-4-73 3-3 10-4 13-2zm10 1c11 2 15 14 19 22-3 27-3 53-7 80-4 0-7-6-11-8-1-31-1-62-2-92l1-2zm27 39c7 11 10 26 13 39-5 15-4 32-10 46-3-2-7-6-10-10 3-24 4-50 7-75zm16 75c2 10 1 20 1 31-4 1-6-4-7-7-3-9 2-16 5-24h1zm58 50c-4 4-9 7-14 8-2-9 2-16 3-25h1l10 17zm-3-135l1 1 2 46-1 1c5 12 4 26 7 38 3 13 6 27 12 39-4 2-7 6-10 5-14-19-21-43-21-67-4-20-4-47 10-63zm25-16l1 5c-3 41-2 81 15 119-3 4-7 9-12 9-20-39-17-85-18-126 3-4 9-7 14-7zm10 1c3-2 7 0 10 0v7c0 35 3 65 13 97-2 4-5 10-11 11-17-35-13-75-12-115zm19 2l12 4c2 28-5 54 7 80-1 3-4 8-8 9-11-27-12-59-12-89l1-4zm22 12c16 9 5 30 12 44-2 6-4 13-9 17-9-18-4-39-3-61zm29 66c10-1 22 0 29-7 8 1 14 8 16 15-15 5-32 5-49 4 0-4 1-9 4-12zm1-28c8 3 14 9 22 14-1 3-5 4-8 5-5 0-10 1-14 0v-19zm56 51v1c-23 7-48 9-73 9 1-4 3-8 6-12 18 0 41 0 59-6 5 0 6 5 8 8zm6 19v5c-29 5-63 8-92 4 2-16 20-6 30-9 19-1 38-5 57-9 5-1 4 6 5 9zm-17 32c-30-1-59-4-89-9-1-4 5-5 7-6 9 0 17 2 26 2 23 2 46-2 70-4-2 7-7 14-14 17zm-49 14c-19-2-37-5-55-9 1-3 3-5 6-6 29 5 59 5 90 9-8 18-27 4-41 6zm2 17c-28 4-52-7-79-9 2-4 7-7 11-10 25 8 53 7 79 11 0 5-7 6-11 8zm-63 53c28-7 54-22 86-17l1 1c-4 4-13 2-18 6-34 6-66 19-100 27-5-5-9-12-12-20 15-2 28 10 43 3zm114 1c-20 3-39 6-58 11-4-2-5 2-8 2-21 6-42 13-62 22-5-1-6-6-10-9l1-1 25-9c3 3 4-3 7-3l93-24c5 2 10 6 12 11zm9 19l-3 2c-42 3-81 16-118 31-4-1-8-5-10-8 13-10 31-13 47-20 26-7 53-13 81-14l3 9zM425 713c-2-3 2-3 3-5 2-4 4-10 2-16-4-8-15-9-22-6-4 1-7 6-8 10 0 7 3 14 8 17-4 3-6 7-6 12 0 6 0 13 6 17 4 3 12 3 17 1s7-8 8-13c-1-7-1-14-8-17zm-2 22c-2 3-6 4-9 2-3-3-6-7-5-12 0-4 2-8 6-9 4-2 8 2 9 6s2 9-1 13zm-9-44c4 0 8 2 8 5 0 4 0 8-2 11-2 2-5 3-7 1-4-2-4-7-4-10-1-4 2-7 5-7zm-26 0c-5-8-15-9-23-6-3 2-5 5-5 9-2 6 0 12 4 17-5 2-7 7-8 12 0 6 0 12 4 17 4 4 12 4 17 3 5-2 8-6 9-11 1-7 2-16-5-20l6-6c2-4 3-11 1-15zm-13 16c-4 1-7-3-8-6 0-4 0-7 3-10 3-4 10-1 10 4 1 5 0 11-5 12zm-1 29c-4 2-8-1-10-4 0-6 1-10 2-14 4-6 14-3 13 4 0 5 0 12-5 14zm94-30c1-1 2-3 3-5 2-5 1-12-2-16-5-8-18-6-24 0-3 4-4 9-2 14 1 4 5 7 9 9 0 3-2 3-4 5-3 6 0 13 1 18 3 5 7 9 13 9s11-2 15-7c3-4 1-9 1-15-1-5-5-10-10-12zm-3 27c-5 1-7-3-9-7-1-4-2-8 0-12 2-3 4-3 6-3 5-1 7 4 8 8 0 5 2 12-5 14zm-14-36c-1-3 0-7 2-10 5-3 11 1 11 6 1 5 0 10-5 11-4 1-7-4-8-7zm-111-18c-4 4-14 4-11 12 3 0 5-4 8-2-2 16-7 31-8 47h7l11-53c1-4-5-4-7-4zm270-477l16 19c2 4 6 1 7-2-4-6-11-10-13-17l39-34c-2-3-3-5-5-6l-44 38v2zm-419-6c-1-1-3-4-5-4l-13 16-3 1c-5-5-10-7-14-14l13-15-4-4-15 15c-5-3-8-7-14-11v-2l13-16c0-2-2-4-4-5-6 8-15 16-20 24l46 38c8-6 13-15 20-23zm27-23c4-3-1-5-2-7-6 3-11 11-18 14-12-12-24-28-36-39-1 1-4 3-5 5l41 44 20-17zm386 22c2 0 4-2 4-4l-14-13-1-3 34-38c0-2-4-4-6-5-14 16-27 28-39 45l22 18zm-67-49c3 3 8 3 11-1 8-12 17 5 25 7 1 6-3 10-2 16 2 1 4 3 7 3 5-20 11-40 15-60-3-2-4-5-8-5l-48 38v2zm25-12l21-17c-1 8-4 19-8 28l-13-9v-2zm-380-2c5-2 8-7 13-8l32 42c2-2 5-2 5-5-10-15-21-27-31-42 3-5 8-6 12-9 0-2-2-4-4-5l-30 21-1 2c2 1 2 4 4 4zm76 13l-29-51h-2c-1 1-4 2-5 4l30 51c3 1 5-2 6-4zm20-9c7-1 13-3 18-7 4-5 2-13 1-19h-3c-8 0-2 7-4 12-2 4-5 7-9 7-14-4-15-19-20-30-2-4-4-11 0-14 3-3 6-5 11-4 2 1 4 5 5 7 2 1 5-1 7-2 0-3-2-5-3-8-7-8-20-4-26 3-10 15 3 28 7 42 4 5 8 13 16 13zm251 1c5 0 8-6 10-10 2-6 1-12-3-17 3-1 7-2 10-5 2-5 4-10 3-15-6-11-18-12-28-17-7 19-17 37-23 56 10 4 19 10 31 8zm3-21c1 4 0 9-4 12-6 5-14 1-20-3v-1l8-18c5 3 12 4 16 10zm-6-33c6 2 13 3 15 10 1 4-1 7-4 9-6 5-12-1-17-3 1-5 3-11 6-16zm-45-13l-13 47c0 4 5 4 8 4l12-46c1-9 11-2 16-1 1-3 3-4 1-7l-36-9-2 1c0 2-2 4 0 5 5 2 10 2 14 6zm-146 47c0-9-5-18-3-27l19-4c0-2-1-5-3-6l-18 3c-3-4-3-11-5-17 5-4 14-3 21-5v-3l-2-4c-8 2-17 4-26 5l-2 2 13 57c1 1 4 0 6-1zm105-4c6-1 9-5 11-11 1-14 9-32-1-45-6-5-15-6-22-4-5 1-9 6-10 10-1 15-9 34 2 47 6 3 13 5 20 3zm-14-48c1-3 5-6 8-6 4-1 7 1 10 3 6 12 0 27-2 40-1 2-3 5-6 5-6 1-11-1-13-5-1-13 1-26 3-37zm-44 48c6 0 12-3 15-8 6-15 2-32-1-47-5-9-17-11-26-7-5 3-9 8-9 15 1 12-1 29 6 40 3 6 9 6 15 7zm-11-53c5-5 13-4 17 1 5 11 3 23 4 34-1 4-2 10-7 11-5 0-11 0-13-5-2-13-4-28-1-41zM59 362c-2-1-5-2-7-1 0 14-1 27 0 40h5c1-5-1-12 2-16l53 2v-7c-17-2-37-1-53-3v-15zm4-53l-2 1c-1 2-2 5 0 7 8 2 16 2 24 5-1 7-1 14-5 20l-23-4c-2 2-3 5-2 7 20 4 40 8 59 12v-7c-8-3-18-3-25-6 1-7 1-15 4-20l25 4c3 0 3-4 2-7l-57-12zm72-28c-1-3-4-4-6-3-3 7-5 15-9 21l-12-3c-14-3 0-15 0-23l-2-2c-1-1-3-2-5 0-2 6-4 12-7 18-6-1-12-3-17-7l7-20c0-3-4-2-5-3-5 9-8 19-12 29 19 7 38 15 57 21l11-28zm13-31c8-3 13-12 13-20-2-5-6-11-11-12-12 8 9 9 3 19-2 6-9 8-14 5-11-5-22-12-31-20-1-5 0-10 5-13 2-2 5-2 8 0 4 4 5-2 6-5-4-5-13-6-18-1-4 4-9 8-8 14-1 5 1 10 4 13 13 8 26 22 43 20zm598 111c-19-1-40 2-58 2l-2 2c2 10-2 25 8 33 5 2 11 4 17 2 4-2 6-6 8-10 2 0 3 2 4 4 4 3 10 4 15 3 16-6 7-24 8-36zm-7 25c-3 4-8 3-12 2-6-4-4-11-5-17 5-2 12-2 17-2 1 6 3 12 0 17zm-27 4c-3 2-8 4-12 2-7-3-6-13-6-20 5-2 13-1 19-2l2 4c0 5 1 12-3 16zm30-51c1-2 0-5 0-7-16 0-30 7-46 9-4-1-9-1-10-7-1-3-3-10 2-12 15-7 32-9 48-14v-1l-1-6c-7 0-13 4-20 4-12 5-27 3-35 14-5 7-1 17 3 24 4 4 9 5 15 5l44-9zm-78-56l11 26 5-2-7-20 1-2 48-18c-1-3-1-6-4-7l-54 21v2zm-16-39c-4 9 3 18 9 23 7 1 12 1 18-2-1-3-3-5-3-7-4-1-6 3-9 2-5 0-7-3-8-6-3-4 0-9 3-12 11-6 22-16 35-16 4 2 7 6 7 11 1 3-4 5-6 7 1 2 1 6 4 6 3-1 6-3 9-6 2-5 1-10-2-15-3-7-10-12-18-11-14 8-31 11-39 26zm25 307c-16 7-9 27-19 37-12 3-26 1-36 8-7 6-5 15-7 23-5 11-16 3-24 3-6 3-3 10-3 15-2 17-20 6-29 11-10 6-11 16-15 25-1 20-25 10-37 15-3 2-7 5-7 9 20-2 40-2 55 9h2c0-15-1-31 11-42 4-4 11-5 17-3 6 1 8 13 15 10 4-6 5-14 12-19 6-6 16-5 23-9 0-6-5-9-7-14s0-12 4-16c5-7 14-8 23-8 8 0 16 3 23 3-8-18-3-39 2-56l-3-1zM259 679c-5-11-7-23-14-33-8-10-22 0-30-7-6-4-3-12-2-18-4-10-14-1-21-3-9-3-7-13-9-21-6-17-26-13-39-17-10-9-6-26-15-35-3-2-5-4-8-3 4 12 6 24 7 36 0 8-6 14-5 21 13-2 27-5 39 1 5 3 9 8 11 13 0 6-1 11-5 15-9 16 13 6 18 16 7 5 10 12 13 20 6 4 10-7 15-8 4-1 9-3 13 0 16 9 16 29 16 46h1c15-12 36-10 55-8-5-19-28-7-40-15z" fill="#fff"/><path class="fil3" d="M400 138c72 0 138 29 186 76 47 48 76 114 76 186s-29 138-76 186c-48 47-114 76-186 76s-138-29-186-76c-47-48-76-114-76-186s29-138 76-186c48-47 114-76 186-76zm176 86c-45-45-107-73-176-73s-131 28-176 73-73 107-73 176 28 131 73 176 107 73 176 73 131-28 176-73 73-107 73-176-28-131-73-176z"/><path class="fil3" d="M400 120c77 0 147 32 198 82 50 51 82 121 82 198s-32 147-82 198c-51 50-121 82-198 82s-147-32-198-82c-50-51-82-121-82-198s32-147 82-198c51-50 121-82 198-82zm192 88c-49-49-117-80-192-80s-143 31-192 80-80 117-80 192 31 143 80 192 117 80 192 80 143-31 192-80 80-117 80-192-31-143-80-192z"/><path class="fil3" d="M400 36c101 0 192 40 258 106s106 157 106 258-40 192-106 258-157 106-258 106-192-40-258-106S36 501 36 400s40-192 106-258S299 36 400 36zm252 112C587 84 498 44 400 44S213 84 148 148C84 213 44 302 44 400s40 187 104 252c65 64 154 104 252 104s187-40 252-104c64-65 104-154 104-252s-40-187-104-252z"/></g></g></svg>