<svg xmlns="http://www.w3.org/2000/svg" width="800" height="800" version="1" shape-rendering="geometricPrecision" text-rendering="geometricPrecision" image-rendering="optimizeQuality" fill-rule="evenodd" clip-rule="evenodd"><path d="M101 746c12 0 23-3 23-17 0-10-6-17-18-17H74v34h27zm-39-45h45c18 0 29 10 29 26 0 11-5 21-16 24 11 3 13 11 14 20 1 10 0 20 6 27h-15c-3-4-1-14-3-24-1-9-4-17-16-17H74v41H62v-97zm136 55c-1-11-9-19-21-19s-19 9-20 19h41zm11 20c-3 15-14 24-30 24-22 0-33-16-34-37 0-21 14-37 33-37 25 0 32 24 32 40h-53c0 13 7 23 22 23 10 0 16-4 18-13h12zm37 10c11 0 15-6 14-21-3 2-9 3-14 4s-9 3-9 9c0 5 4 8 9 8zm-30-37c1-9 5-15 11-18 7-4 15-5 23-5 16 0 32 3 32 23v31c0 6 0 12 3 18h-23c-1-2-1-4-1-7-6 7-15 9-23 9-14 0-24-7-24-21 0-23 24-21 40-25 4 0 7-2 7-6 0-5-7-7-12-7-6 0-10 2-11 8h-22zm79-48h23v97h-23zm36 27h22v9h1c4-7 11-11 20-11 8 0 16 3 20 11 6-7 13-11 22-11 22 0 25 17 25 30v42h-23v-41c0-8-4-12-10-12-10 0-11 7-11 19v34h-23v-40c0-8-2-13-8-13-9 0-12 4-12 19v34h-23v-70zm151 58c11 0 14-6 14-21-4 2-9 3-14 4-6 1-10 3-10 9 0 5 5 8 10 8zm-30-37c0-9 5-15 11-18 6-4 14-5 22-5 17 0 33 3 33 23v31c0 6 0 12 3 18h-24c0-2-1-4-1-7-6 7-15 9-23 9-13 0-24-7-24-21 0-23 25-21 41-25 4 0 6-2 6-6 0-5-6-7-11-7-6 0-11 2-12 8h-21zm109 40c15 0 21-13 21-26 0-14-6-26-22-26s-21 13-21 27c0 13 7 25 22 25zm32 9h-11v-10h-1c-3 8-12 12-22 12-21 0-32-17-32-37s10-37 32-37c7 0 17 3 22 11h1v-36h11v97zm14-70h11v15c6-11 13-17 26-17v13c-19 0-25 10-25 28v31h-12v-70zm43 0h11v70h-11v-70zm11-13h-11v-14h11v14zm45 74c15 0 21-13 21-26 0-14-6-26-22-26-15 0-21 13-21 27 0 13 7 25 22 25zm32 9h-11v-10c-4 8-13 12-23 12-21 0-32-17-32-37s11-37 32-37c7 0 17 3 23 11v-36h11v97zM418 148l-18 6-18-6 18-7 18 7zm-72 13l-17-2 14-10 17 2-14 10zm136 9c-3 0-5-3-5-6s2-6 5-6 6 3 6 6-3 6-6 6zm0-2c3 0 5-2 5-4s-2-4-5-4c-2 0-4 2-4 4s2 4 4 4zm-110-13c-3 0-6-3-6-6s3-5 6-5 6 2 6 5-3 6-6 6zm0-1c2 0 4-2 4-5 0-2-2-4-4-4-3 0-5 2-5 4 0 3 2 5 5 5zm-54 16c-3 0-6-3-6-6s3-6 6-6 5 3 5 6-2 6-5 6zm0-2c2 0 4-2 4-4s-2-4-4-4c-3 0-5 2-5 4s2 4 5 4zm110-14c3 0 5-2 5-5 0-2-2-4-5-4-2 0-4 2-4 4 0 3 2 5 4 5zm0 1c-3 0-6-3-6-6s3-5 6-5 6 2 6 5-3 6-6 6zm26 6l-14-10 17-2 14 10-17 2zm29-85c0 2-1 5-3 6 4 2 6 5 6 9v1c5 1 10 3 15 4 3 2 6 3 8 5-5-10-13-18-26-25zm24 69c-4-2-6-5-5-9 1-2 1-3 2-4 1-4-2-9-6-10s-9 2-10 6v2c-6 8-18 4-17-8 6 2 11 1 13-6 1-5 0-8-5-10 0-3 0-4-1-7 3-1 6-3 6-8s-4-7-8-8c3-2 5-4 5-7v-1l1-1c25 12 32 25 34 52-3 1-4 3-6 7-2 7 1 9 7 12-4 1-7 2-10 0zM317 76c-13 7-21 15-26 25 3-2 5-4 8-5 5-1 10-3 15-4v-1c0-4 2-7 6-9-1-1-2-3-3-6zm-27 57c-2-4-3-6-6-7 2-27 9-39 33-52 2 1 2 1 2 2 0 3 2 5 5 7-4 1-8 3-8 8s3 7 6 8c-1 3-1 4-1 7-5 2-6 5-5 10 2 7 7 8 13 6 2 12-11 16-17 8v-2c-1-4-6-7-10-6s-7 6-6 10c1 1 1 2 2 4 1 4-1 7-5 9-3 2-6 1-10 0 6-3 9-5 7-12zm240-3c4 2 6 8 3 12-2 4-8 6-12 4-4-3-6-8-4-13 3-4 8-6 13-3zm-1 1c-4-2-8-1-11 3-2 4 0 8 4 10 3 3 8 1 10-3 2-3 1-8-3-10zM386 39c-3 0-6-2-6-6 0-3 3-5 6-5s6 2 6 5c0 4-3 6-6 6zm0-1c3 0 4-2 4-5 0-2-1-4-4-4-2 0-4 2-4 4 0 3 2 5 4 5zm14 15c-3 0-6-3-6-6s3-6 6-6 6 3 6 6-3 6-6 6zm0-2c2 0 4-1 4-4 0-2-2-4-4-4s-4 2-4 4c0 3 2 4 4 4zm0 18c-3 0-6-3-6-6s3-6 6-6 6 3 6 6-3 6-6 6zm0-2c2 0 4-2 4-4s-2-4-4-4-4 2-4 4 2 4 4 4zm0 18c-3 0-6-3-6-6s3-6 6-6 6 3 6 6-3 6-6 6zm0-2c2 0 4-2 4-4 0-3-2-4-4-4s-4 1-4 4c0 2 2 4 4 4zm-28-41c-3 0-6-3-6-6s3-6 6-6 5 3 5 6-2 6-5 6zm0-2c2 0 4-2 4-4s-2-4-4-4c-3 0-5 2-5 4s2 4 5 4zm-14 7c-3 0-6-3-6-6s3-5 6-5 5 2 5 5-2 6-5 6zm0-1c2 0 4-2 4-5 0-2-2-4-4-4-3 0-5 2-5 4 0 3 2 5 5 5zm-14 10c-3 0-5-3-5-6s2-6 5-6 6 3 6 6-3 6-6 6zm0-1c3 0 5-2 5-5 0-2-2-4-5-4-2 0-4 2-4 4 0 3 2 5 4 5zm-10 13c-3 0-6-3-6-6s3-6 6-6 6 3 6 6-3 6-6 6zm0-2c3 0 4-2 4-4s-1-4-4-4c-2 0-4 2-4 4s2 4 4 4zm-14 0c-3 0-6-2-6-5s3-6 6-6 6 3 6 6-3 5-6 5zm0-1c3 0 4-2 4-4 0-3-1-5-4-5-2 0-4 2-4 5 0 2 2 4 4 4zm-14 7c-3 0-5-3-5-6s2-5 5-5 6 2 6 5-3 6-6 6zm0-1c3 0 5-2 5-5 0-2-2-4-5-4-2 0-4 2-4 4 0 3 2 5 4 5zm-12 10c-4 0-6-2-6-6 0-3 2-5 6-5 3 0 5 2 5 5 0 4-2 6-5 6zm0-1c2 0 4-2 4-5 0-2-2-4-4-4-3 0-5 2-5 4 0 3 2 5 5 5zm-11 13c-3 0-5-2-5-5s2-6 5-6 6 3 6 6-3 5-6 5zm0-1c3 0 5-2 5-4 0-3-2-5-5-5-2 0-4 2-4 5 0 2 2 4 4 4zm-6 15c-4 0-6-2-6-6 0-3 2-5 6-5 3 0 5 2 5 5 0 4-2 6-5 6zm0-1c2 0 4-2 4-5 0-2-2-4-4-4-3 0-5 2-5 4 0 3 2 5 5 5zm-4 17c-3 0-6-3-6-6s3-6 6-6 6 3 6 6-3 6-6 6zm0-2c2 0 4-1 4-4 0-2-2-4-4-4s-4 2-4 4c0 3 2 4 4 4zm54-40c-3 0-5-2-5-5s2-6 5-6 6 3 6 6-3 5-6 5zm0-1c3 0 5-2 5-4 0-3-2-5-5-5-2 0-4 2-4 5 0 2 2 4 4 4zm-3 17c-4 0-6-2-6-6 0-3 2-5 6-5 3 0 5 2 5 5 0 4-2 6-5 6zm0-1c2 0 4-2 4-5 0-2-2-4-4-4-3 0-5 2-5 4 0 3 2 5 5 5zm76 15c-5 0-9-4-9-9s4-9 9-9 9 4 9 9-4 9-9 9zm0-1c4 0 8-4 8-8 0-5-4-8-8-8s-8 3-8 8c0 4 4 8 8 8zm-65 9c-5 1-10-2-11-7-1-4 2-9 6-11 5-1 10 2 12 7 1 5-2 10-7 11zm0-1c4-1 6-6 5-10s-5-7-9-5c-4 1-7 5-6 9s5 7 10 6zm-56 28c-4 2-10 0-12-4-3-4-1-10 3-12 5-3 10-1 13 3 2 5 0 10-4 13zm-1-2c4-2 6-6 4-10-3-4-7-5-11-3s-5 7-3 10c2 4 7 6 10 3zM414 28c3 0 6 2 6 5 0 4-3 6-6 6s-6-2-6-6c0-3 3-5 6-5zm0 1c-3 0-4 2-4 4 0 3 1 5 4 5 2 0 4-2 4-5 0-2-2-4-4-4zm14 1c3 0 6 3 6 6s-3 6-6 6-5-3-5-6 2-6 5-6zm0 2c-2 0-4 2-4 4s2 4 4 4c3 0 5-2 5-4s-2-4-5-4zm14 4c3 0 6 2 6 5s-3 6-6 6-5-3-5-6 2-5 5-5zm0 1c-2 0-4 2-4 4 0 3 2 5 4 5 3 0 5-2 5-5 0-2-2-4-5-4zm14 7c3 0 5 3 5 6s-2 6-5 6c-4 0-6-3-6-6s2-6 6-6zm0 2c-3 0-5 2-5 4 0 3 2 5 5 5 2 0 4-2 4-5 0-2-2-4-4-4zm10 10c3 0 6 3 6 6s-3 6-6 6-6-3-6-6 3-6 6-6zm0 2c-3 0-4 2-4 4s1 4 4 4c2 0 4-2 4-4s-2-4-4-4zm14-3c3 0 6 3 6 6s-3 5-6 5-6-2-6-5 3-6 6-6zm0 1c-3 0-4 2-4 5 0 2 1 4 4 4 2 0 4-2 4-4 0-3-2-5-4-5zm14 5c3 0 5 2 5 5s-2 6-5 6-6-3-6-6 3-5 6-5zm0 1c-3 0-5 2-5 4 0 3 2 5 5 5 2 0 4-2 4-5 0-2-2-4-4-4zm12 8c4 0 6 2 6 5 0 4-2 6-6 6-3 0-5-2-5-6 0-3 2-5 5-5zm0 1c-2 0-4 2-4 4 0 3 2 5 4 5 3 0 5-2 5-5 0-2-2-4-5-4zm11 11c3 0 5 3 5 6s-2 5-5 5-6-2-6-5 3-6 6-6zm0 1c-3 0-5 2-5 5 0 2 2 4 5 4 2 0 4-2 4-4 0-3-2-5-4-5zm6 13c4 0 6 2 6 5 0 4-2 6-6 6-3 0-5-2-5-6 0-3 2-5 5-5zm0 1c-2 0-4 2-4 4 0 3 2 5 4 5 3 0 5-2 5-5 0-2-2-4-5-4zm4 14c3 0 6 3 6 6s-3 6-6 6-6-3-6-6 3-6 6-6zm0 2c-2 0-4 2-4 4 0 3 2 4 4 4s4-1 4-4c0-2-2-4-4-4zm-54-43c3 0 5 3 5 6s-2 5-5 5-6-2-6-5 3-6 6-6zm0 1c-3 0-5 2-5 5 0 2 2 4 5 4 2 0 4-2 4-4 0-3-2-5-4-5zm3 15c4 0 6 2 6 5 0 4-2 6-6 6-3 0-5-2-5-6 0-3 2-5 5-5zm0 1c-2 0-4 2-4 4 0 3 2 5 4 5 3 0 5-2 5-5 0-2-2-4-5-4zm-6 14c4 2 7 7 6 11-1 5-6 8-11 7s-8-6-7-11c2-5 7-8 12-7zm-1 2c-4-2-8 1-9 5s1 9 5 10c5 1 9-2 10-6s-2-8-6-9zm1 33l-1 2c-5-2-11-4-17-5v-2c5-1 9-4 11-9l2 1c-1 5 1 10 5 13zm-49-8v-1c4-2 7-4 9-7h4c1 4 3 7 7 9l-1 2c-6-1-13-2-19-3zm-61 3l-1-2c4-2 6-5 7-9h4c2 3 5 5 9 7v1c-7 1-13 2-19 3zm-12 0v2c-6 1-12 3-17 5l-1-2c4-3 6-8 5-13l2-1c2 5 6 8 11 9zm-47 17l-1-1c2-3 4-6 4-9 3 0 3-1 5-2 3 2 6 3 10 4v1c-6 2-12 5-18 7zm98-34h2c1 6 4 10 8 12v2h-18v-2c4-2 7-6 8-12zm91 22h1c1 1 2 1 3 2h2c0 3 2 6 4 9l-1 1c-6-2-12-5-18-7v-1c4-1 7-2 9-4zm-99-89c-24-1-42 13-50 32 15-8 35-10 52-7v-4c-1-2-2-3-2-5s1-3 2-5v-6c-1-2-2-3-2-5zm2 0c0 2 1 3 2 4v8c-1 1-2 2-2 4s1 3 2 4v8c-1 1-2 2-2 4 0 4 4 6 7 7 3-1 7-3 7-7 0-2-1-3-1-4l-1-8c1-1 2-2 2-4s-1-3-2-4v-8c1-1 2-2 2-4v-2c32-2 54 20 58 50-3 1-4 3-6 6-5-1-8 1-9 7-2 7 2 10 9 11-3 5-7 8-12 7s-7-5-7-10c0-1 1-2 1-4 0-4-4-8-8-8-5 0-8 4-8 8v3c-1 4-5 7-9 7-6 0-9-4-10-9 7 0 11-2 11-10 0-5-2-8-7-9-1-6-4-7-10-8-6 1-9 2-10 8-5 1-7 4-7 9 0 8 4 10 11 10-1 5-4 9-10 9-4 0-8-3-9-7v-3c0-4-3-8-8-8-4 0-8 4-8 8 0 2 1 3 1 4 0 5-2 9-7 10s-9-2-11-7c6-1 10-4 8-11-1-6-4-8-9-7-2-3-3-5-6-6 4-30 26-52 58-50v2zm66 32c-8-19-26-33-50-32 0 2-1 3-2 5v6c1 2 2 3 2 5s-1 3-2 5v4c17-3 37-1 52 7zm-149 87l-2 8 1 1h-1c-1 1-1 1-1 2s1 1 2 1c28-13 58-20 91-20s63 7 91 20c1 1 4-2 0-3l1-1-2-8 7-2v-1h1c2 0 2-2 1-2-30-14-63-22-99-22s-69 8-99 22c-1 0-1 2 1 2h1v1l7 2zm-4 8l-6-3 1-6c-2 0-3-3-2-5-3 1-5-1-6-3-1-1-1-2-1-4-5 1-9 0-13-2-11 6-23-9-17-16-3-5-2-11 2-14-1-1-1-2-1-4 0-4 3-8 6-9-1-2-2-4-2-7 0-4 3-8 7-9 0-1-1-3-1-4 0-6 5-10 10-10h1v-3c0-5 4-9 10-9h3c0-5 4-10 9-10 2 0 4 1 5 1 1-3 5-6 9-6 3 0 6 1 8 4 1-2 4-3 6-3h1v-2c0-5 4-10 9-10 2 0 3 1 4 1 0-5 4-10 10-10 2 0 3 1 5 2 1-4 5-7 9-7 2 0 4 1 6 2 2-2 5-4 8-4h3c1-2 3-3 5-4h1v-5h-6V6h6V0h10v6h6v9h-6v5h1c2 1 4 2 5 4h3c3 0 6 2 8 4 2-1 4-2 6-2 4 0 8 3 9 7 2-1 3-2 5-2 6 0 10 5 10 10 1 0 2-1 4-1 5 0 9 5 9 10v2h1c2 0 5 1 6 3 2-3 5-4 8-4 4 0 8 3 9 6 1 0 3-1 5-1 5 0 9 5 9 10h3c6 0 10 4 10 9v3h1c5 0 10 4 10 10 0 1-1 3-1 4 4 1 7 5 7 9 0 3-1 5-2 7 3 1 6 5 6 9 0 2 0 3-1 4 4 3 5 9 2 14 4 4 0 11-3 14-4 3-9 5-14 2-4 2-8 3-13 2 0 4-3 8-7 7 1 2 0 5-2 5l1 6-6 3c1 1 1 3 1 4-1 2-3 3-5 2-27-13-58-20-90-20s-63 7-90 20c-2 1-4 0-5-2 0-1 0-3 1-4zm195-16c3 1 6-2 5-5l-1-2c6 2 11 2 16-3 4 3 8 3 12 0s7-9 2-13c4-5 4-10-2-13 1-2 2-3 2-5 0-5-4-7-8-8 2-2 4-4 4-8 0-5-4-7-8-8 1-2 2-3 2-5 0-5-4-8-8-8-2 0-3 0-4 1 1-2 1-4 1-6 0-4-3-7-8-7-2 0-3 0-5 1 0-1 1-2 1-3 0-4-4-8-8-8-3 0-4 1-6 2-1-4-3-7-8-7-4 0-6 2-7 5-2-3-4-4-7-4-1 0-2 0-4 1 1-2 2-3 2-5 0-4-4-8-8-8-3 0-4 1-6 2v-3c0-4-3-8-8-8-2 0-4 1-6 3-1-4-3-8-8-8-3 0-4 1-6 3-2-3-4-5-8-5h-3c-3-3-5-4-8-5v-8h6V8h-6V2h-6v6h-6v5h6v8c-3 1-5 2-8 5h-3c-4 0-6 2-8 5-2-2-3-3-6-3-5 0-7 4-8 8-2-2-4-3-6-3-5 0-8 4-8 8v3c-2-1-3-2-6-2-4 0-8 4-8 8 0 2 1 3 2 5-2-1-3-1-4-1-3 0-5 1-7 4-1-3-3-5-7-5-5 0-7 3-8 7-2-1-3-2-6-2-4 0-8 4-8 8 0 1 1 2 1 3-2-1-3-1-5-1-5 0-8 3-8 7 0 2 0 4 1 6-1-1-2-1-4-1-4 0-8 3-8 8 0 2 1 3 2 5-4 1-8 3-8 8 0 4 2 6 4 8-4 1-8 3-8 8 0 2 1 3 2 5-6 3-6 8-2 13-8 6 4 20 14 13 5 5 10 5 16 3-1 1-2 3-1 5s4 3 6 2c30-14 64-22 100-22s70 8 101 22zM385 290l15 14 13-14c-5-1-10-1-15-1-3-1-8 0-13 1zm-12-4c9-2 17-4 26-4 9 1 17 2 26 5l-25 26-27-27zm70-19l-1 1c-14-5-27-8-42-8s-29 3-43 8l-40-41c-49 29-83 83-83 144 0 41 14 76 39 105l16-16c-14-15-36-48-34-90 1-48 21-84 57-114l24 24c-28 21-47 51-48 87 0 53 36 97 86 109v28h23v-25c33 0 64-13 86-38l-17-18c-17 19-44 34-69 32v-28h34v-19h-34v-22h34v-17h-57v82c-37-12-63-41-63-82 1-31 16-56 41-73l48 50 46-49c12 8 21 16 28 29l18-16c-8-12-18-21-30-30l24-24c35 24 57 71 57 114 0 39-13 64-34 89l19 18c24-29 38-65 38-106 0-61-34-115-84-144l-39 40zm-75 159l-51-52c2 29 19 57 51 69v-17zm179 35c-18 30-45 54-78 68l-16-16-29-31c-7 2-14 3-21 3v25h-35v-29c-51-14-86-62-86-114 1-9 2-17 4-25l-17-17c-5 14-8 29-8 45-1 32 13 67 36 89l-24 26c-29-33-45-70-45-114 0-64 35-120 90-151l40 41c13-4 28-7 42-7 15 0 28 3 40 7l41-42c56 31 91 88 91 152 0 33-9 63-25 90zM421 332l99 102c11-19 17-38 17-64 0-46-26-88-51-106l-15 15c12 9 21 20 29 33l-28 23c-6-13-13-22-25-30l-26 27zm-204 40c0-101 83-183 183-183s183 82 183 183c0 100-83 183-183 183s-183-83-183-183zm6 0c0 97 80 177 177 177s177-80 177-177-80-177-177-177-177 80-177 177zm379 0c0-112-90-203-202-203s-202 91-202 203c0 111 90 202 202 202s202-91 202-202zm6 0c0 115-93 208-208 208s-208-93-208-208 93-209 208-209 208 94 208 209zM91 637v8H71v9h18v7H71v17h-9v-41zm77 38c-3 3-7 4-12 4-6 0-10-1-13-4s-5-7-5-12v-26h9v29c1 1 1 2 2 3 0 1 1 1 2 2 1 0 3 1 5 1 3 0 5-1 6-3 1-1 2-3 2-6v-26h9v26c0 5-1 9-5 12zm64-38l17 28v-28h8v41h-9l-17-27v27h-8v-41zm92 34c2 0 3-1 4-1s2-1 3-2 2-2 3-4c0-2 1-3 1-6 0-2-1-4-1-5 0-2-1-3-2-5-1-1-2-2-4-2-1-1-3-1-5-1h-7v26h8zm1-34c3 0 5 0 7 1 3 1 5 2 6 4 2 2 3 4 4 6 1 3 2 6 2 9s-1 6-2 9c0 2-1 4-3 6s-4 4-6 5-5 1-8 1h-18v-41h18zm88 25l-6-15-5 15h11zm-1-25l16 41h-10l-3-9h-15l-4 9h-9l16-41h9zm87 11c0-1-1-2-2-2-1-1-2-1-3-2h-3c-2 0-4 0-5 1s-3 2-3 3c-1 1-2 3-2 5-1 1-1 3-1 5s0 3 1 5c0 1 1 3 2 4 0 2 2 3 3 3 1 1 3 2 5 2 3 0 5-1 7-3 1-2 2-4 3-7h8c0 3 0 5-1 7s-3 4-4 6l-6 3c-2 1-4 1-7 1s-6 0-8-1c-3-2-5-3-7-5-1-2-3-4-4-7-1-2-1-5-1-8s0-6 1-9c1-2 3-5 4-7 2-2 4-3 7-4 2-1 5-2 8-2 2 0 5 0 7 1s4 2 5 3c2 1 3 3 4 4 1 2 2 4 2 7h-9c0-1 0-2-1-3zm67 30h-9v-41h9zm70-55l-6 10h5l10-10h-9zm-12 40c0 1 1 3 2 4 1 2 2 3 3 3 2 1 3 2 5 2s4-1 6-2c1 0 2-1 3-3 1-1 2-3 2-4 0-2 1-3 1-5s-1-4-1-5c0-2-1-4-2-5l-3-3c-2-1-4-1-6-1s-3 0-5 1l-3 3c-1 1-2 3-2 5-1 1-1 3-1 5s0 3 1 5zm-9-14c1-2 3-5 4-7 2-2 4-3 7-4 2-1 5-2 8-2 4 0 6 1 9 2 2 1 5 2 6 4 2 2 3 5 4 7 1 3 2 6 2 9s-1 6-2 8c-1 3-2 5-4 7-1 2-4 3-6 5-3 1-5 1-9 1-3 0-6 0-8-1-3-2-5-3-7-5-1-2-3-4-4-7 0-2-1-5-1-8s1-6 1-9zm96-12l18 28v-28h8v41h-9l-17-27v27h-9v-41z" fill="#c08641" fill-rule="nonzero"/></svg>