<?xml version="1.0" standalone="no"?>
<!DOCTYPE svg PUBLIC "-//W3C//DTD SVG 20010904//EN"
 "http://www.w3.org/TR/2001/REC-SVG-20010904/DTD/svg10.dtd">
<svg version="1.0" xmlns="http://www.w3.org/2000/svg"
 width="700.000000pt" height="700.000000pt" viewBox="0 0 700.000000 700.000000"
 preserveAspectRatio="xMidYMid meet">
<metadata>
Created by potrace 1.11, written by Peter Selinger 2001-2013
</metadata>
<g transform="translate(0.000000,700.000000) scale(0.100000,-0.100000)"
fill="#000000" stroke="none">
<path d="M607 5794 c-1 -1 -33 -4 -72 -7 -133 -10 -257 -70 -360 -172 -77 -77
-132 -175 -159 -280 -19 -74 -14 -228 9 -305 57 -186 215 -341 405 -399 68
-20 107 -23 313 -23 149 0 207 -3 208 -11 0 -7 2 -658 3 -1447 3 -1598 -2
-1484 72 -1619 59 -107 140 -189 242 -244 136 -73 324 -90 463 -42 222 76 377
264 407 493 9 74 8 3516 -2 3562 -51 242 -214 416 -445 475 -55 14 -139 17
-573 18 -280 1 -510 1 -511 1z"/>
<path d="M4499 5786 c-2 -2 -36 -6 -75 -9 -169 -15 -436 -81 -589 -147 -182
-79 -294 -140 -437 -242 -390 -275 -671 -636 -834 -1073 -33 -90 -37 -110 -38
-200 0 -116 24 -202 80 -288 71 -107 196 -196 319 -226 74 -19 208 -12 281 14
158 56 253 146 348 333 35 70 88 160 116 201 110 155 282 301 446 377 118 55
211 82 379 112 53 9 347 9 410 0 291 -44 508 -150 702 -345 131 -132 231 -296
278 -460 37 -125 40 -157 39 -348 -1 -148 -5 -182 -27 -267 -92 -350 -347
-628 -702 -769 -72 -28 -229 -64 -330 -74 -64 -7 -281 -7 -330 0 -16 2 -52 7
-80 10 -127 16 -316 81 -427 146 -183 108 -341 275 -447 473 -17 32 -31 63
-31 68 0 14 -84 138 -117 173 -155 166 -407 222 -602 133 -134 -60 -231 -167
-282 -308 -27 -75 -32 -227 -10 -295 113 -352 278 -622 536 -880 265 -266 569
-460 879 -560 76 -25 252 -71 301 -79 17 -2 50 -8 75 -12 194 -31 500 -35 688
-8 17 2 49 6 70 9 194 27 470 114 648 206 233 120 403 246 594 438 300 302
481 623 585 1037 14 56 27 114 29 130 2 16 9 67 15 114 21 152 29 418 16 538
-3 28 -7 76 -10 105 -36 353 -167 714 -360 994 -65 93 -78 110 -149 192 -240
278 -572 517 -871 630 -33 13 -69 27 -80 32 -26 11 -232 70 -265 75 -14 3 -49
9 -78 15 -29 6 -67 13 -85 15 -18 2 -48 7 -67 10 -38 7 -504 16 -511 10z"/>
</g>
</svg>
