<?xml version="1.0" encoding="UTF-8"?>
<!DOCTYPE svg PUBLIC "-//W3C//DTD SVG 1.0//EN" "http://www.w3.org/TR/2001/REC-SVG-20010904/DTD/svg10.dtd">
<!-- Creator: CorelDRAW X7 -->
<svg xmlns="http://www.w3.org/2000/svg" xml:space="preserve" width="800px" height="800px" version="1.0" style="shape-rendering:geometricPrecision; text-rendering:geometricPrecision; image-rendering:optimizeQuality; fill-rule:evenodd; clip-rule:evenodd"
viewBox="0 0 800 800"
 xmlns:xlink="http://www.w3.org/1999/xlink">
 <defs>
  <style type="text/css">
   <![CDATA[
    .fil0 {fill:#323234}
   ]]>
  </style>
 </defs>
 <g id="Слой_x0020_1">
  <metadata id="CorelCorpID_0Corel-Layer"/>
  <g id="_756223664">
   <path class="fil0" d="M360 198c0,4 16,30 20,36l61 107c24,40 49,86 72,125 4,6 8,13 11,19l159 0c-2,-6 -21,-37 -25,-45l-39 -67c-2,-3 -4,-6 -6,-11 -18,-32 -40,-68 -58,-99 -4,-8 -8,-15 -13,-22l-51 -89c-4,-7 -8,-15 -13,-22l-88 51c-3,2 -5,3 -8,4l-22 13z"/>
   <path class="fil0" d="M398 599c0,-29 35,-54 65,-28 14,13 17,37 1,53 -28,28 -66,4 -66,-25zm-174 -277c1,5 39,69 47,82 4,7 7,14 11,20 5,7 8,14 12,21 5,7 8,14 12,21 15,25 11,16 11,52l34 0 0 -33 124 0 0 55c-23,-12 -42,-17 -68,-6 -27,10 -43,37 -43,66 0,48 49,80 93,66 8,-2 12,-5 18,-8l0 9 34 0 0 -184 -31 0c-3,0 -4,-2 -5,-5 -1,-2 -3,-5 -4,-7 -3,-5 -6,-10 -9,-15l-83 -144c-5,-8 -31,-55 -34,-57 -4,1 -24,13 -29,16 -11,6 -20,11 -30,17 -10,6 -19,11 -30,17l-30 17z"/>
   <path class="fil0" d="M189 596c0,-17 20,-38 40,-36 12,1 19,5 26,12 30,30 -4,78 -43,61 -15,-7 -23,-20 -23,-37zm-91 -131c3,5 10,15 11,20l158 0 0 55c-11,-7 -23,-12 -41,-12 -56,0 -91,65 -57,112 23,31 66,39 98,18l0 9 35 0 0 -184c-44,0 -30,7 -49,-26l-16 -27c-6,-10 -11,-18 -16,-28l-16 -26c-4,1 -55,31 -60,34 -5,3 -55,29 -58,34l11 21z"/>
   <path class="fil0" d="M553 597c0,-10 7,-22 13,-27 6,-5 16,-11 27,-10 27,3 45,30 33,55 -17,35 -73,26 -73,-18zm-33 7c0,45 60,88 110,54l0 9 35 0 0 -138 -35 0 0 11c-28,-19 -65,-15 -89,7 -17,16 -21,34 -21,57z"/>
   <path class="fil0" d="M34 597c0,-19 20,-39 40,-37 21,2 37,18 37,40 0,26 -37,52 -66,26 -2,-3 -6,-8 -8,-12 -3,-6 -3,-10 -3,-17zm-34 2c0,57 66,89 111,59l0 9 34 0 0 -138 -34 0 0 11c-45,-31 -111,0 -111,59z"/>
   <path class="fil0" d="M715 567c0,-15 32,-14 40,-7 3,3 4,8 4,13l36 0c-5,-55 -89,-57 -110,-22 -3,6 -6,12 -6,19 0,23 12,35 32,40 21,6 51,5 51,18 0,20 -49,22 -49,-6l-37 0c0,16 10,29 19,36 31,21 105,18 105,-36 0,-33 -38,-38 -62,-42 -9,-2 -23,-5 -23,-13z"/>
   <polygon class="fil0" points="317,667 351,667 351,529 317,529 "/>
  </g>
 </g>
</svg>
