<?xml version="1.0" encoding="utf-8"?>
<!-- Generator: Adobe Illustrator 21.0.0, SVG Export Plug-In . SVG Version: 6.00 Build 0)  -->
<svg version="1.1" id="Слой_1" xmlns="http://www.w3.org/2000/svg" xmlns:xlink="http://www.w3.org/1999/xlink" x="0px" y="0px"
	 viewBox="0 0 528.9 795" style="enable-background:new 0 0 528.9 795;" xml:space="preserve">
<style type="text/css">
	.st0{fill:#2D3160;}
	.st1{fill:#FEFEFD;}
	.st2{fill:#B0382A;}
	.st3{fill:#FBFDFA;}
	.st4{fill:#1B1C20;}
</style>
<g id="Слой_x0020_1">
	<g id="_998606336">
		<path class="st0" d="M446.1,544.9c-24,17.8-49,36.5-73,54.3L327.7,634c-3.6,3.6-23.2,18.7-26.7,20.5c-0.9,1.8-22.3,17.8-26.7,21.4
			c-2.7,1.8-6.2,5.3-8.9,7.1c-2.7-0.9-35.6-26.7-37.4-29.4c-6.2-2.7-54.3-41.8-63.2-48.1c-3.6-1.8-6.2-3.6-8.9-6.2L137.1,585
			c-6.2-5.3-11.6-8.9-18.7-14.2l-27.6-20.5c-1.8-1.8-7.1-5.3-8.9-7.1c-2.7-0.9-0.9-0.9-2.7-1.8c-9.8-8-18.7-14.2-28.5-22.3l-6.2-6.2
			l-0.9-0.9c-4.5-5.3-14.2-18.7-16-25.8c4.5-3.6,8.9-7.1,14.2-10.7l40.1-31.2c9.8-8,26.7-19.6,37.4-27.6
			c4.5-4.5,33.8-26.7,36.5-27.6l31.2-24.9c0.9-0.9,2.7-1.8,4.5-3.6c8.9-6.2,30.3-24,36.5-27.6c3.6-4.5,46.3-35.6,54.3-41.8
			c5.3-4.5,12.5-8.9,18.7-14.2l12.5-9.8c7.1-5.3,57-44.5,59.7-45.4c1.8-2.7,14.2-10.7,17.8-14.2c6.2-4.5,12.5-8.9,18.7-13.4
			c11.6-9.8,24-18.7,36.5-28.5l44.5-33.8c2.7-1.8,5.3-3.6,8-5.3c4.5-4.5,4.5-4.5,8-4.5v302.7c0,16,1.8,44.5-3.6,57
			c-0.9,1.8-0.9,2.7-1.8,5.3c-3.6,14.2-18.7,29.4-29.4,38.3L446.1,544.9z M41.8,388.2c1.8,2.7,4.5,14.2,6.2,16.9
			c0,0.9,0,0.9,0.9,1.8l19.6,0.9c-0.9,0.9-5.3,4.5-7.1,6.2c-3.6,1.8-6.2,4.5-8.9,5.3l5.3,20.5c-5.3-2.7-11.6-8.9-16.9-11.6
			c-2.7,0.9-15.1,9.8-16.9,10.7l5.3-19.6l-15.1-12.5h20.5L41.8,388.2z M191.4,278.7c3.6,3.6,4.5,14.2,7.1,18.7l19.6,0.9
			c-4.5,3.6-11.6,8.9-16,11.6l5.3,18.7l-16-10.7c-4.5,2.7-12.5,8.9-16.9,10.7l6.2-18.7c-2.7-3.6-12.5-8.9-15.1-12.5h19.6
			L191.4,278.7z M36.5,209.2c0.9,1.8,1.8,6.2,2.7,8.9l1.8,6.2c1.8,1.8,0.9,0.9,1.8,1.8l16.9,0.9c-2.7,3.6-10.7,7.1-14.2,10.7
			l5.3,16.9c-3.6-0.9-12.5-8-15.1-9.8c-4.5,1.8-9.8,7.1-15.1,9.8l5.3-16.9c-2.7-2.7-10.7-8-14.2-11.6h18.7L36.5,209.2z M327.7,194.1
			c1.8-1.8,3.6-9.8,5.3-13.4c0-0.9,0-1.8,0.9-2.7c0.9-1.8,0-0.9,0.9-1.8c1.8,3.6,4.5,15.1,7.1,17.8l18.7,0.9l-16,12.5l5.3,18.7
			c-5.3-2.7-9.8-8-16-11.6c-5.3,2.7-10.7,8-16,10.7c0.9-5.3,5.3-13.4,5.3-18.7c-4.5-4.5-9.8-7.1-15.1-12.5H327.7z M122.9,85.5
			c3.6,6.2,1.8,8.9,8,15.1c4.5,4.5,6.2,7.1,11.6,10.7c5.3,2.7,11.6,3.6,17.8,4.5c10.7,0,11.6-1.8,19.6-3.6
			c3.6,9.8,13.4,16,24.9,18.7c6.2,0.9,13.4,0.9,20.5,0c6.2-1.8,9.8-3.6,16-5.3c0,6.2,0,91.7-0.9,94.4c0,1.8-67.7,52.5-78.4,61.4
			c-2.7,1.8-7.1,5.3-8.9,6.2V276c7.1-2.7,14.2-11.6,17.8-19.6c4.5-8.9,6.2-17.8,8-28.5l-12.5,0.9c3.6-0.9,16.9-8,21.4-12.5
			c12.5-15.1,14.2-29.4,19.6-48.1c1.8-9.8,4.5-17.8,7.1-25.8c-13.4-1.8-15.1,3.6-23.2,16c-1.8,3.6-4.5,8-7.1,11.6
			c-1.8,2.7-6.2,8-8,9.8c-3.6-0.9-11.6-8-13.4-9.8c-0.9-1.8-4.5-16.9-4.5-18.7c0-1.8,6.2-12.5,8-16c1.8-6.2,0-13.4-4.5-16
			c-4.5-0.9-15.1,11.6-20.5,10.7c-6.2-1.8-7.1-1.8-11.6,1.8c-2.7,2.7-4.5,4.5-7.1,8c-3.6-0.9-6.2-2.7-9.8-0.9
			c-2.7,0.9-4.5,4.5-2.7,8.9c1.8,5.3,6.2,7.1,8,15.1c3.6,12.5,2.7,28.5,0,41.8c-2.7,10.7-8,24-11.6,35.6c-7.1,21.4-17.8,24-16,30.3
			c3.6,6.2,7.1,0.9,9.8,6.2c2.7,3.6,4.5,8.9,5.3,13.4c0.9,6.2,1.8,25.8,0,32.1l-31.2,24v-252L122.9,85.5z M334.8,112.2
			c14.2,2.7,21.4,3.6,32.9-3.6c7.1-4.5,15.1-14.2,10.7-27.6l37.4,6.2c-1.8,1.8-7.1,5.3-8.9,6.2L381.1,114
			c-16,11.6-97.1,74.8-103.3,78.4l-0.9-71.2c5.3,1.8,8.9,4.5,14.2,6.2c6.2,2.7,11.6,3.6,18.7,3.6C323.2,129.1,330.3,122,334.8,112.2
			z M475.5,49.9l6.2,17.8l19.6,0.9c-0.9,1.8-13.4,9.8-16,12.5l5.3,18.7c-5.3-2.7-10.7-8.9-16-11.6c-3.6,1.8-13.4,9.8-16,10.7
			c0.9-4.5,5.3-14.2,5.3-18.7c-5.3-4.5-10.7-8-15.1-12.5h19.6L475.5,49.9z M38.3,49l7.1,18.7L65,68.6c-4.5,3.6-10.7,8.9-16,11.6
			l5.3,18.7l-16-10.7c-4.5,2.7-11.6,8.9-16,10.7l5.3-18.7c-1.8-2.7-4.5-3.6-7.1-6.2c-2.7-1.8-6.2-4.5-8-6.2h19.6L38.3,49z
			 M251.1,39.2c2.7-0.9,7.1-16,8-18.7l4.5,14.2c0.9,0.9,0.9,1.8,0.9,2.7c1.8,2.7,0.9,0.9,1.8,1.8l18.7,0.9
			c-1.8,1.8-12.5,10.7-16,11.6l6.2,19.6c-6.2-3.6-10.7-8-16-11.6c-5.3,1.8-11.6,8-16.9,10.7l5.3-18.7c-4.5-4.5-10.7-8-15.1-12.5
			H251.1z M0,59.7v408.7c1.8,3.6,1.8,12.5,6.2,25.8c4.5,11.6,9.8,20.5,17.8,29.4c9.8,10.7,12.5,12.5,24.9,22.3
			c11.6,8.9,24,17.8,35.6,26.7l35.6,27.6c6.2,4.5,12.5,8.9,18.7,13.4c6.2,4.5,11.6,8.9,16.9,13.4l89.9,67.7
			c2.7,2.7,16,11.6,16.9,13.4h3.6c2.7-1.8,6.2-4.5,8.9-6.2L390,614.4c28.5-21.4,60.5-47.2,89-67.7c12.5-8.9,23.2-16.9,32.1-30.3
			c18.7-29.4,13.4-35.6,17.8-43.6v-414c-2.7-4.5-2.7-7.1-6.2-11.6c-8-10.7-23.2-15.1-35.6-18.7c-24-6.2-95.3-19.6-122-22.3L299.2,0
			h-44.5c-4.5,1.8-30.3,1.8-37.4,1.8C171,4.5,55.2,17.8,17.8,38.3C4.5,45.4,3.6,54.3,0,59.7z"/>
		<path class="st1" d="M373.1,221.7v377.5c24-17.8,49-36.5,73-54.3c0.9-15.1,0-32.1,0-47.2c0-107.7,0-218.1,0-326.8
			c0-1.8,0.9-3.6,0-5.3c-12.5,9.8-24.9,18.7-36.5,28.5c-6.2,4.5-12.5,8.9-18.7,13.4C387.3,211,374.9,219,373.1,221.7z"/>
		<path class="st2" d="M301,276.9c0.9,2.7,0,20.5,0,23.2v306.3c0,14.2,1.8,34.7,0,48.1c3.6-1.8,23.2-16.9,26.7-20.5l45.4-34.7V221.7
			c-2.7,0.9-52.5,40.1-59.7,45.4L301,276.9z"/>
		<path class="st1" d="M227.9,333v320.5c1.8,2.7,34.7,28.5,37.4,29.4c2.7-1.8,6.2-5.3,8.9-7.1c4.5-3.6,25.8-19.6,26.7-21.4
			c1.8-13.4,0-33.8,0-48.1V300.1c0-2.7,0.9-20.5,0-23.2c-6.2,5.3-13.4,9.8-18.7,14.2C274.2,297.4,231.5,328.6,227.9,333z"/>
		<path class="st2" d="M446.1,165.6c0.9,1.8,0,3.6,0,5.3c0,108.6,0,219,0,326.8c0,15.1,0.9,32.1,0,47.2l25.8-19.6
			c10.7-8.9,25.8-24,29.4-38.3c0.9-2.7,0.9-3.6,1.8-5.3c5.3-12.5,3.6-41,3.6-57V122c-3.6,0-3.6,0-8,4.5c-2.7,1.8-5.3,3.6-8,5.3
			L446.1,165.6z"/>
		<path class="st2" d="M155.8,389.1v210.1c2.7,2.7,5.3,4.5,8.9,6.2c8.9,6.2,57,45.4,63.2,48.1V333c-6.2,3.6-27.6,21.4-36.5,27.6
			c-1.8,1.8-3.6,2.7-4.5,3.6L155.8,389.1z"/>
		<path class="st1" d="M74.8,94.4v252l31.2-24c1.8-6.2,0.9-25.8,0-32.1c-0.9-4.5-2.7-9.8-5.3-13.4c-2.7-5.3-6.2,0-9.8-6.2
			c-1.8-6.2,8.9-8.9,16-30.3c3.6-11.6,8.9-24.9,11.6-35.6c2.7-13.4,3.6-29.4,0-41.8c-1.8-8-6.2-9.8-8-15.1c-1.8-4.5,0-8,2.7-8.9
			c3.6-1.8,6.2,0,9.8,0.9c2.7-3.6,4.5-5.3,7.1-8c4.5-3.6,5.3-3.6,11.6-1.8c5.3,0.9,16-11.6,20.5-10.7c4.5,2.7,6.2,9.8,4.5,16
			c-1.8,3.6-8,14.2-8,16c0,1.8,3.6,16.9,4.5,18.7c1.8,1.8,9.8,8.9,13.4,9.8c1.8-1.8,6.2-7.1,8-9.8c2.7-3.6,5.3-8,7.1-11.6
			c8-12.5,9.8-17.8,23.2-16c-2.7,8-5.3,16-7.1,25.8c-5.3,18.7-7.1,32.9-19.6,48.1c-4.5,4.5-17.8,11.6-21.4,12.5l12.5-0.9
			c-1.8,10.7-3.6,19.6-8,28.5c-3.6,8-10.7,16.9-17.8,19.6v11.6c1.8-0.9,6.2-4.5,8.9-6.2c10.7-8.9,78.4-59.7,78.4-61.4
			c0.9-2.7,0.9-88.1,0.9-94.4c-6.2,1.8-9.8,3.6-16,5.3c-7.1,0.9-14.2,0.9-20.5,0c-11.6-2.7-21.4-8.9-24.9-18.7
			c-8,1.8-8.9,3.6-19.6,3.6c-6.2-0.9-12.5-1.8-17.8-4.5c-5.3-3.6-7.1-6.2-11.6-10.7c-6.2-6.2-4.5-8.9-8-15.1L74.8,94.4z"/>
		<path class="st1" d="M81.9,444.3v98.8c1.8,1.8,7.1,5.3,8.9,7.1l27.6,20.5c7.1,5.3,12.5,8.9,18.7,14.2l18.7,14.2V389.1
			c-2.7,0.9-32.1,23.2-36.5,27.6C108.6,424.7,91.7,436.3,81.9,444.3z"/>
		<path class="st1" d="M334.8,112.2c-4.5,9.8-11.6,16.9-24.9,18.7c-7.1,0-12.5-0.9-18.7-3.6c-5.3-1.8-8.9-4.5-14.2-6.2l0.9,71.2
			c6.2-3.6,87.3-66.8,103.3-78.4l25.8-20.5c1.8-0.9,7.1-4.5,8.9-6.2L378.4,81c4.5,13.4-3.6,23.2-10.7,27.6
			C356.2,115.8,349,114.9,334.8,112.2z"/>
		<path class="st2" d="M81.9,543.1v-98.8l-40.1,31.2c-5.3,3.6-9.8,7.1-14.2,10.7c1.8,7.1,11.6,20.5,16,25.8l0.9,0.9l6.2,6.2
			c9.8,8,18.7,14.2,28.5,22.3C81,542.2,79.2,542.2,81.9,543.1z"/>
		<path class="st1" d="M34.7,406.9H14.2l15.1,12.5L24,439c1.8-0.9,14.2-9.8,16.9-10.7c5.3,2.7,11.6,8.9,16.9,11.6l-5.3-20.5
			c2.7-0.9,5.3-3.6,8.9-5.3c1.8-1.8,6.2-5.3,7.1-6.2L49,406.9c-0.9-0.9-0.9-0.9-0.9-1.8c-1.8-2.7-4.5-14.2-6.2-16.9L34.7,406.9z"/>
		<path class="st1" d="M185.2,297.4h-19.6c2.7,3.6,12.5,8.9,15.1,12.5l-6.2,18.7c4.5-1.8,12.5-8,16.9-10.7l16,10.7l-5.3-18.7
			c4.5-2.7,11.6-8,16-11.6l-19.6-0.9c-2.7-4.5-3.6-15.1-7.1-18.7L185.2,297.4z"/>
		<path class="st3" d="M468.3,67.7h-19.6c4.5,4.5,9.8,8,15.1,12.5c0,4.5-4.5,14.2-5.3,18.7c2.7-0.9,12.5-8.9,16-10.7
			c5.3,2.7,10.7,8.9,16,11.6L485.3,81c2.7-2.7,15.1-10.7,16-12.5l-19.6-0.9l-6.2-17.8L468.3,67.7z"/>
		<path class="st3" d="M251.1,39.2h-18.7c4.5,4.5,10.7,8,15.1,12.5l-5.3,18.7c5.3-2.7,11.6-8.9,16.9-10.7c5.3,3.6,9.8,8,16,11.6
			l-6.2-19.6c3.6-0.9,14.2-9.8,16-11.6l-18.7-0.9c-0.9-0.9,0,0.9-1.8-1.8c0-0.9,0-1.8-0.9-2.7l-4.5-14.2
			C258.2,23.2,253.8,38.3,251.1,39.2z"/>
		<path class="st1" d="M32.1,67.7H12.5c1.8,1.8,5.3,4.5,8,6.2c2.7,2.7,5.3,3.6,7.1,6.2l-5.3,18.7c4.5-1.8,11.6-8,16-10.7l16,10.7
			L49,80.1c5.3-2.7,11.6-8,16-11.6l-19.6-0.9L38.3,49L32.1,67.7z"/>
		<path class="st1" d="M327.7,194.1h-19.6c5.3,5.3,10.7,8,15.1,12.5c0,5.3-4.5,13.4-5.3,18.7c5.3-2.7,10.7-8,16-10.7
			c6.2,3.6,10.7,8.9,16,11.6l-5.3-18.7l16-12.5l-18.7-0.9c-2.7-2.7-5.3-14.2-7.1-17.8c-0.9,0.9,0,0-0.9,1.8
			c-0.9,0.9-0.9,1.8-0.9,2.7C331.2,184.3,329.4,192.3,327.7,194.1z"/>
		<path class="st1" d="M30.3,226.2H11.6c3.6,3.6,11.6,8.9,14.2,11.6l-5.3,16.9c5.3-2.7,10.7-8,15.1-9.8c2.7,1.8,11.6,8.9,15.1,9.8
			l-5.3-16.9c3.6-3.6,11.6-7.1,14.2-10.7l-16.9-0.9c-0.9-0.9,0,0-1.8-1.8l-1.8-6.2c-0.9-2.7-1.8-7.1-2.7-8.9L30.3,226.2z"/>
	</g>
</g>
<g>
	<path class="st4" d="M33.9,781.3H16.5l-4.3,12.6H1.1l20.4-57.1h8.2l20.4,57.1H38.5L33.9,781.3z M19.3,772.4h12.2l-4.2-12.6
		l-1.7-8.9h-0.4l-1.7,9L19.3,772.4z"/>
	<path class="st4" d="M48.4,753.4h5.6v-7.6l10.5-3v10.6h9.9v8.9h-9.9v15.6c0,2.8,0.3,4.8,0.9,6c0.6,1.2,1.6,1.8,3.2,1.8
		c1.1,0,2-0.1,2.8-0.3c0.8-0.2,1.7-0.5,2.6-1l1.9,8.1c-1.5,0.7-3.2,1.3-5.1,1.8c-1.9,0.5-3.9,0.7-5.9,0.7c-3.7,0-6.5-1-8.2-2.9
		c-1.8-1.9-2.6-5.1-2.6-9.4v-20.4h-5.6V753.4z"/>
	<path class="st4" d="M91.7,780.3c0,1.9,0.2,3.3,0.7,4.1c0.5,0.9,1.3,1.3,2.3,1.3c0.6,0,1.3-0.1,1.9-0.2c0.6-0.1,1.4-0.4,2.3-0.7
		l1.1,8.3c-0.9,0.4-2.2,0.9-4,1.3c-1.8,0.4-3.6,0.6-5.5,0.6c-3.1,0-5.4-0.7-7-2.1c-1.6-1.4-2.4-3.8-2.4-7.1v-48.6h10.5V780.3z"/>
	<path class="st4" d="M137.1,790.4c-1.6,1.3-3.8,2.4-6.6,3.3c-2.8,0.9-5.7,1.3-8.9,1.3c-6.5,0-11.3-1.9-14.3-5.7
		c-3-3.8-4.5-9-4.5-15.7c0-7.1,1.7-12.5,5.1-16c3.4-3.6,8.2-5.3,14.3-5.3c2.1,0,4.1,0.3,6,0.8c1.9,0.5,3.7,1.4,5.2,2.7
		c1.5,1.2,2.7,2.9,3.6,5c0.9,2.1,1.4,4.7,1.4,7.9c0,1.1-0.1,2.4-0.2,3.6c-0.1,1.3-0.3,2.6-0.6,4.1h-24.2c0.2,3.4,1,6,2.6,7.7
		c1.6,1.7,4.2,2.6,7.7,2.6c2.2,0,4.2-0.3,5.9-1c1.7-0.7,3.1-1.4,4-2.1L137.1,790.4z M122,760.6c-2.7,0-4.8,0.8-6.1,2.5
		c-1.3,1.6-2.1,3.8-2.4,6.6h15c0.2-2.9-0.2-5.2-1.3-6.7C126.1,761.4,124.4,760.6,122,760.6z M122.2,735.5h10.7v2.4l-9,10h-6
		L122.2,735.5z"/>
	<path class="st4" d="M141.6,753.4h5.6v-7.6l10.5-3v10.6h9.9v8.9h-9.9v15.6c0,2.8,0.3,4.8,0.9,6c0.6,1.2,1.6,1.8,3.2,1.8
		c1.1,0,2-0.1,2.8-0.3c0.8-0.2,1.7-0.5,2.6-1l1.9,8.1c-1.5,0.7-3.2,1.3-5.1,1.8c-1.9,0.5-3.9,0.7-5.9,0.7c-3.7,0-6.5-1-8.2-2.9
		c-1.8-1.9-2.6-5.1-2.6-9.4v-20.4h-5.6V753.4z"/>
	<path class="st4" d="M173.5,741.9c0-1.6,0.6-2.9,1.7-4c1.2-1.1,2.8-1.7,4.8-1.7c2.1,0,3.7,0.6,5,1.7c1.3,1.1,1.9,2.4,1.9,4
		c0,1.6-0.6,2.9-1.9,3.9c-1.3,1.1-2.9,1.6-5,1.6c-2.1,0-3.7-0.5-4.8-1.6C174,744.8,173.5,743.5,173.5,741.9z M175,753.4h10.5v40.5
		H175V753.4z"/>
	<path class="st4" d="M224.6,791.4c-1.6,1.2-3.6,2.1-5.9,2.7c-2.3,0.6-4.7,0.9-7.1,0.9c-3.2,0-6-0.5-8.2-1.5c-2.2-1-4.1-2.5-5.5-4.3
		c-1.4-1.9-2.4-4.1-3-6.8c-0.6-2.6-0.9-5.6-0.9-8.8c0-6.9,1.5-12.1,4.6-15.8c3.1-3.7,7.6-5.6,13.5-5.6c3,0,5.4,0.2,7.2,0.7
		c1.8,0.5,3.4,1.1,4.9,1.9l-2.5,8.6c-1.2-0.6-2.5-1.1-3.7-1.4c-1.2-0.3-2.6-0.5-4.2-0.5c-2.9,0-5.1,1-6.6,2.9
		c-1.5,1.9-2.3,5-2.3,9.2c0,1.7,0.2,3.3,0.6,4.8c0.4,1.5,0.9,2.7,1.7,3.8c0.8,1.1,1.7,1.9,3,2.6c1.2,0.6,2.6,0.9,4.3,0.9
		c1.8,0,3.3-0.2,4.5-0.7c1.2-0.5,2.3-1,3.3-1.7L224.6,791.4z"/>
	<path class="st4" d="M227.7,773.6c0-6.9,1.7-12.1,5-15.8c3.3-3.7,8-5.6,14.1-5.6c3.2,0,6,0.5,8.4,1.5c2.4,1,4.3,2.5,5.9,4.3
		c1.6,1.9,2.7,4.1,3.5,6.8c0.8,2.6,1.2,5.6,1.2,8.8c0,6.9-1.7,12.1-5,15.8c-3.3,3.7-8,5.6-14.1,5.6c-3.2,0-6.1-0.5-8.4-1.5
		c-2.4-1-4.4-2.5-6-4.3c-1.6-1.9-2.8-4.1-3.6-6.8C228.1,779.7,227.7,776.8,227.7,773.6z M238.5,773.6c0,1.8,0.2,3.4,0.5,4.9
		c0.3,1.5,0.8,2.8,1.5,4c0.6,1.1,1.5,2,2.6,2.6c1.1,0.6,2.3,0.9,3.8,0.9c2.8,0,4.8-1,6.2-3c1.3-2,2-5.2,2-9.5c0-3.7-0.6-6.7-1.9-9
		c-1.2-2.3-3.3-3.4-6.3-3.4c-2.6,0-4.6,1-6.1,2.9C239.2,766,238.5,769.2,238.5,773.6z"/>
	<path class="st4" d="M337.9,764.5l1.2-11.3h-0.5l-3.5,9.1L323,783.4h-3.6l-12.7-21.2l-3.6-9h-0.4l1.6,11.2v29.5h-10.5v-56.7H304
		l15.2,25.9l2.7,6.5h0.3l2.4-6.6l14.3-25.8h10v56.7h-11.1V764.5z"/>
	<path class="st4" d="M358.2,755.7c2.2-1,4.7-1.7,7.7-2.3c3-0.6,6.1-0.9,9.3-0.9c2.8,0,5.2,0.3,7,1c1.9,0.7,3.4,1.6,4.5,2.9
		c1.1,1.2,1.9,2.7,2.4,4.5c0.5,1.7,0.7,3.7,0.7,5.8c0,2.4-0.1,4.8-0.2,7.2c-0.2,2.4-0.3,4.8-0.3,7.1c0,2.3,0,4.6,0.2,6.8
		c0.2,2.2,0.6,4.3,1.2,6.2h-8.6l-1.7-5.6H380c-1.1,1.7-2.6,3.1-4.5,4.3c-1.9,1.2-4.4,1.8-7.4,1.8c-1.9,0-3.6-0.3-5.1-0.9
		c-1.5-0.6-2.8-1.4-3.9-2.4c-1.1-1.1-1.9-2.3-2.5-3.7c-0.6-1.4-0.9-3-0.9-4.8c0-2.5,0.6-4.6,1.7-6.3c1.1-1.7,2.7-3.1,4.8-4.1
		c2.1-1.1,4.6-1.8,7.5-2.2c2.9-0.4,6.1-0.5,9.7-0.4c0.4-3,0.2-5.2-0.6-6.5c-0.8-1.3-2.6-2-5.4-2c-2.1,0-4.3,0.2-6.7,0.6
		c-2.3,0.4-4.3,1-5.8,1.7L358.2,755.7z M371.6,785.8c2.1,0,3.8-0.5,5-1.4c1.2-0.9,2.2-2,2.8-3v-5.3c-1.7-0.2-3.3-0.2-4.8-0.1
		c-1.5,0.1-2.9,0.4-4.1,0.7c-1.2,0.4-2.1,0.9-2.8,1.6c-0.7,0.7-1.1,1.6-1.1,2.7c0,1.5,0.4,2.7,1.3,3.5
		C368.8,785.4,370,785.8,371.6,785.8z"/>
	<path class="st4" d="M433.1,779.6c0,2.3,0,4.5,0.1,6.8c0.1,2.3,0.3,4.8,0.7,7.5h-7.5l-1.5-5.3h-0.3c-1.1,1.9-2.6,3.4-4.7,4.6
		c-2,1.2-4.4,1.7-7.2,1.7c-5.1,0-9-1.7-11.8-5c-2.8-3.3-4.2-8.6-4.2-15.7c0-6.9,1.6-12.3,4.7-16.1c3.1-3.8,7.7-5.8,13.8-5.8
		c1.7,0,3.1,0.1,4.1,0.3c1.1,0.2,2.2,0.5,3.2,0.9v-16.4h10.5V779.6z M415.2,786.1c2.1,0,3.7-0.5,4.9-1.5c1.2-1,2-2.4,2.5-4.3v-17.2
		c-0.8-0.6-1.6-1-2.5-1.3c-0.9-0.3-2.1-0.4-3.6-0.4c-3,0-5.2,1-6.7,3c-1.5,2-2.2,5.4-2.2,10.3c0,3.5,0.6,6.2,1.8,8.3
		C410.6,785,412.5,786.1,415.2,786.1z"/>
	<path class="st4" d="M464.7,763.2c-1.7-0.6-3.2-0.9-4.5-0.9c-1.9,0-3.5,0.5-4.7,1.5c-1.3,1-2.1,2.3-2.6,3.8v26.2h-10.5v-40.5h8.2
		l1.2,5.3h0.3c0.9-2,2.2-3.5,3.7-4.6c1.6-1.1,3.4-1.6,5.5-1.6c1.4,0,3,0.3,4.8,0.9L464.7,763.2z"/>
	<path class="st4" d="M470.1,741.9c0-1.6,0.6-2.9,1.7-4c1.2-1.1,2.8-1.7,4.8-1.7c2.1,0,3.7,0.6,5,1.7c1.3,1.1,1.9,2.4,1.9,4
		c0,1.6-0.6,2.9-1.9,3.9s-2.9,1.6-5,1.6c-2.1,0-3.7-0.5-4.8-1.6C470.7,744.8,470.1,743.5,470.1,741.9z M471.6,753.4h10.5v40.5h-10.5
		V753.4z"/>
	<path class="st4" d="M527,779.6c0,2.3,0,4.5,0.1,6.8c0.1,2.3,0.3,4.8,0.7,7.5h-7.5l-1.5-5.3h-0.3c-1.1,1.9-2.6,3.4-4.7,4.6
		c-2,1.2-4.4,1.7-7.2,1.7c-5.1,0-9-1.7-11.8-5c-2.8-3.3-4.2-8.6-4.2-15.7c0-6.9,1.6-12.3,4.7-16.1c3.1-3.8,7.7-5.8,13.8-5.8
		c1.7,0,3.1,0.1,4.1,0.3c1.1,0.2,2.2,0.5,3.2,0.9v-16.4H527V779.6z M509.1,786.1c2.1,0,3.7-0.5,4.9-1.5c1.2-1,2-2.4,2.5-4.3v-17.2
		c-0.8-0.6-1.6-1-2.5-1.3c-0.9-0.3-2.1-0.4-3.6-0.4c-3,0-5.2,1-6.7,3c-1.5,2-2.2,5.4-2.2,10.3c0,3.5,0.6,6.2,1.8,8.3
		C504.5,785,506.4,786.1,509.1,786.1z"/>
</g>
</svg>
