<?xml version="1.0" encoding="UTF-8"?>
<!DOCTYPE svg PUBLIC "-//W3C//DTD SVG 1.0//EN" "http://www.w3.org/TR/2001/REC-SVG-20010904/DTD/svg10.dtd">
<!-- Creator: CorelDRAW X7 -->
<svg xmlns="http://www.w3.org/2000/svg" xml:space="preserve" width="800px" height="800px" version="1.0" style="shape-rendering:geometricPrecision; text-rendering:geometricPrecision; image-rendering:optimizeQuality; fill-rule:evenodd; clip-rule:evenodd"
viewBox="0 0 800 800"
 xmlns:xlink="http://www.w3.org/1999/xlink">
 <defs>
  <style type="text/css">
   <![CDATA[
    .fil0 {fill:#2D3160}
    .fil2 {fill:#B0382A}
    .fil3 {fill:#FBFDFA}
    .fil1 {fill:#FEFEFD}
   ]]>
  </style>
 </defs>
 <g id="Слой_x0020_1">
  <metadata id="CorelCorpID_0Corel-Layer"/>
  <g id="_998606336">
   <path class="fil0" d="M604 614c-27,20 -55,41 -82,61l-51 39c-4,4 -26,21 -30,23 -1,2 -25,20 -30,24 -3,2 -7,6 -10,8 -3,-1 -40,-30 -42,-33 -7,-3 -61,-47 -71,-54 -4,-2 -7,-4 -10,-7l-21 -16c-7,-6 -13,-10 -21,-16l-31 -23c-2,-2 -8,-6 -10,-8 -3,-1 -1,-1 -3,-2 -11,-9 -21,-16 -32,-25l-7 -7c0,0 -1,-1 -1,-1 -5,-6 -16,-21 -18,-29 5,-4 10,-8 16,-12l45 -35c11,-9 30,-22 42,-31 5,-5 38,-30 41,-31l35 -28c1,-1 3,-2 5,-4 10,-7 34,-27 41,-31 4,-5 52,-40 61,-47 6,-5 14,-10 21,-16l14 -11c8,-6 64,-50 67,-51 2,-3 16,-12 20,-16 7,-5 14,-10 21,-15 13,-11 27,-21 41,-32l50 -38c3,-2 6,-4 9,-6 5,-5 5,-5 9,-5l0 340c0,18 2,50 -4,64 -1,2 -1,3 -2,6 -4,16 -21,33 -33,43l-29 22zm-454 -176c2,3 5,16 7,19 0,1 0,1 1,2l22 1c-1,1 -6,5 -8,7 -4,2 -7,5 -10,6l6 23c-6,-3 -13,-10 -19,-13 -3,1 -17,11 -19,12l6 -22 -17 -14 23 0 8 -21zm168 -123c4,4 5,16 8,21l22 1c-5,4 -13,10 -18,13l6 21 -18 -12c-5,3 -14,10 -19,12l7 -21c-3,-4 -14,-10 -17,-14l22 0 7 -21zm-174 -78c1,2 2,7 3,10l2 7c2,2 1,1 2,2l19 1c-3,4 -12,8 -16,12l6 19c-4,-1 -14,-9 -17,-11 -5,2 -11,8 -17,11l6 -19c-3,-3 -12,-9 -16,-13l21 0 7 -19zm327 -17c2,-2 4,-11 6,-15 0,-1 0,-2 1,-3 1,-2 0,-1 1,-2 2,4 5,17 8,20l21 1 -18 14 6 21c-6,-3 -11,-9 -18,-13 -6,3 -12,9 -18,12 1,-6 6,-15 6,-21 -5,-5 -11,-8 -17,-14l22 0zm-230 -122c4,7 2,10 9,17 5,5 7,8 13,12 6,3 13,4 20,5 12,0 13,-2 22,-4 4,11 15,18 28,21 7,1 15,1 23,0 7,-2 11,-4 18,-6 0,7 0,103 -1,106 0,2 -76,59 -88,69 -3,2 -8,6 -10,7l0 -13c8,-3 16,-13 20,-22 5,-10 7,-20 9,-32l-14 1c4,-1 19,-9 24,-14 14,-17 16,-33 22,-54 2,-11 5,-20 8,-29 -15,-2 -17,4 -26,18 -2,4 -5,9 -8,13 -2,3 -7,9 -9,11 -4,-1 -13,-9 -15,-11 -1,-2 -5,-19 -5,-21 0,-2 7,-14 9,-18 2,-7 0,-15 -5,-18 -5,-1 -17,13 -23,12 -7,-2 -8,-2 -13,2 -3,3 -5,5 -8,9 -4,-1 -7,-3 -11,-1 -3,1 -5,5 -3,10 2,6 7,8 9,17 4,14 3,32 0,47 -3,12 -9,27 -13,40 -8,24 -20,27 -18,34 4,7 8,1 11,7 3,4 5,10 6,15 1,7 2,29 0,36l-35 27 0 -283 54 -10zm238 30c16,3 24,4 37,-4 8,-5 17,-16 12,-31l42 7c-2,2 -8,6 -10,7l-29 23c-18,13 -109,84 -116,88l-1 -80c6,2 10,5 16,7 7,3 13,4 21,4 15,-2 23,-10 28,-21zm158 -70l7 20 22 1c-1,2 -15,11 -18,14l6 21c-6,-3 -12,-10 -18,-13 -4,2 -15,11 -18,12 1,-5 6,-16 6,-21 -6,-5 -12,-9 -17,-14l22 0 8 -20zm-491 -1l8 21 22 1c-5,4 -12,10 -18,13l6 21 -18 -12c-5,3 -13,10 -18,12l6 -21c-2,-3 -5,-4 -8,-7 -3,-2 -7,-5 -9,-7l22 0 7 -21zm239 -11c3,-1 8,-18 9,-21l5 16c1,1 1,2 1,3 2,3 1,1 2,2l21 1c-2,2 -14,12 -18,13l7 22c-7,-4 -12,-9 -18,-13 -6,2 -13,9 -19,12l6 -21c-5,-5 -12,-9 -17,-14l21 0zm-282 23l0 459c2,4 2,14 7,29 5,13 11,23 20,33 11,12 14,14 28,25 13,10 27,20 40,30l40 31c7,5 14,10 21,15 7,5 13,10 19,15l101 76c3,3 18,13 19,15l4 0c3,-2 7,-5 10,-7l129 -98c32,-24 68,-53 100,-76 14,-10 26,-19 36,-34 21,-33 15,-40 20,-49l0 -465c-3,-5 -3,-8 -7,-13 -9,-12 -26,-17 -40,-21 -27,-7 -107,-22 -137,-25l-74 -7 -50 0c-5,2 -34,2 -42,2 -52,3 -182,18 -224,41 -15,8 -16,18 -20,24z"/>
   <path class="fil1" d="M522 251l0 424c27,-20 55,-41 82,-61 1,-17 0,-36 0,-53 0,-121 0,-245 0,-367 0,-2 1,-4 0,-6 -14,11 -28,21 -41,32 -7,5 -14,10 -21,15 -4,4 -18,13 -20,16z"/>
   <path class="fil2" d="M441 313c1,3 0,23 0,26l0 344c0,16 2,39 0,54 4,-2 26,-19 30,-23l51 -39 0 -424c-3,1 -59,45 -67,51l-14 11z"/>
   <path class="fil1" d="M359 376l0 360c2,3 39,32 42,33 3,-2 7,-6 10,-8 5,-4 29,-22 30,-24 2,-15 0,-38 0,-54l0 -344c0,-3 1,-23 0,-26 -7,6 -15,11 -21,16 -9,7 -57,42 -61,47z"/>
   <path class="fil2" d="M604 188c1,2 0,4 0,6 0,122 0,246 0,367 0,17 1,36 0,53l29 -22c12,-10 29,-27 33,-43 1,-3 1,-4 2,-6 6,-14 4,-46 4,-64l0 -340c-4,0 -4,0 -9,5 -3,2 -6,4 -9,6l-50 38z"/>
   <path class="fil2" d="M278 439l0 236c3,3 6,5 10,7 10,7 64,51 71,54l0 -360c-7,4 -31,24 -41,31 -2,2 -4,3 -5,4l-35 28z"/>
   <path class="fil1" d="M187 108l0 283 35 -27c2,-7 1,-29 0,-36 -1,-5 -3,-11 -6,-15 -3,-6 -7,0 -11,-7 -2,-7 10,-10 18,-34 4,-13 10,-28 13,-40 3,-15 4,-33 0,-47 -2,-9 -7,-11 -9,-17 -2,-5 0,-9 3,-10 4,-2 7,0 11,1 3,-4 5,-6 8,-9 5,-4 6,-4 13,-2 6,1 18,-13 23,-12 5,3 7,11 5,18 -2,4 -9,16 -9,18 0,2 4,19 5,21 2,2 11,10 15,11 2,-2 7,-8 9,-11 3,-4 6,-9 8,-13 9,-14 11,-20 26,-18 -3,9 -6,18 -8,29 -6,21 -8,37 -22,54 -5,5 -20,13 -24,14l14 -1c-2,12 -4,22 -9,32 -4,9 -12,19 -20,22l0 13c2,-1 7,-5 10,-7 12,-10 88,-67 88,-69 1,-3 1,-99 1,-106 -7,2 -11,4 -18,6 -8,1 -16,1 -23,0 -13,-3 -24,-10 -28,-21 -9,2 -10,4 -22,4 -7,-1 -14,-2 -20,-5 -6,-4 -8,-7 -13,-12 -7,-7 -5,-10 -9,-17l-54 10z"/>
   <path class="fil1" d="M195 501l0 111c2,2 8,6 10,8l31 23c8,6 14,10 21,16l21 16 0 -236c-3,1 -36,26 -41,31 -12,9 -31,22 -42,31z"/>
   <path class="fil1" d="M479 128c-5,11 -13,19 -28,21 -8,0 -14,-1 -21,-4 -6,-2 -10,-5 -16,-7l1 80c7,-4 98,-75 116,-88l29 -23c2,-1 8,-5 10,-7l-42 -7c5,15 -4,26 -12,31 -13,8 -21,7 -37,4z"/>
   <path class="fil2" d="M195 612l0 -111 -45 35c-6,4 -11,8 -16,12 2,8 13,23 18,29 0,0 1,1 1,1l7 7c11,9 21,16 32,25 2,1 0,1 3,2z"/>
   <path class="fil1" d="M142 459l-23 0 17 14 -6 22c2,-1 16,-11 19,-12 6,3 13,10 19,13l-6 -23c3,-1 6,-4 10,-6 2,-2 7,-6 8,-7l-22 -1c-1,-1 -1,-1 -1,-2 -2,-3 -5,-16 -7,-19l-8 21z"/>
   <path class="fil1" d="M311 336l-22 0c3,4 14,10 17,14l-7 21c5,-2 14,-9 19,-12l18 12 -6 -21c5,-3 13,-9 18,-13l-22 -1c-3,-5 -4,-17 -8,-21l-7 21z"/>
   <path class="fil3" d="M629 78l-22 0c5,5 11,9 17,14 0,5 -5,16 -6,21 3,-1 14,-10 18,-12 6,3 12,10 18,13l-6 -21c3,-3 17,-12 18,-14l-22 -1 -7 -20 -8 20z"/>
   <path class="fil3" d="M385 46l-21 0c5,5 12,9 17,14l-6 21c6,-3 13,-10 19,-12 6,4 11,9 18,13l-7 -22c4,-1 16,-11 18,-13l-21 -1c-1,-1 0,1 -2,-2 0,-1 0,-2 -1,-3l-5 -16c-1,3 -6,20 -9,21z"/>
   <path class="fil1" d="M139 78l-22 0c2,2 6,5 9,7 3,3 6,4 8,7l-6 21c5,-2 13,-9 18,-12l18 12 -6 -21c6,-3 13,-9 18,-13l-22 -1 -8 -21 -7 21z"/>
   <path class="fil1" d="M471 220l-22 0c6,6 12,9 17,14 0,6 -5,15 -6,21 6,-3 12,-9 18,-12 7,4 12,10 18,13l-6 -21 18 -14 -21 -1c-3,-3 -6,-16 -8,-20 -1,1 0,0 -1,2 -1,1 -1,2 -1,3 -2,4 -4,13 -6,15z"/>
   <path class="fil1" d="M137 256l-21 0c4,4 13,10 16,13l-6 19c6,-3 12,-9 17,-11 3,2 13,10 17,11l-6 -19c4,-4 13,-8 16,-12l-19 -1c-1,-1 0,0 -2,-2l-2 -7c-1,-3 -2,-8 -3,-10l-7 19z"/>
  </g>
 </g>
</svg>
