<?xml version="1.0" encoding="UTF-8"?>
<!DOCTYPE svg PUBLIC "-//W3C//DTD SVG 1.0//EN" "http://www.w3.org/TR/2001/REC-SVG-20010904/DTD/svg10.dtd">
<!-- Creator: CorelDRAW X7 -->
<svg xmlns="http://www.w3.org/2000/svg" xml:space="preserve" width="800px" height="800px" version="1.0" style="shape-rendering:geometricPrecision; text-rendering:geometricPrecision; image-rendering:optimizeQuality; fill-rule:evenodd; clip-rule:evenodd"
viewBox="0 0 800 800"
 xmlns:xlink="http://www.w3.org/1999/xlink">
 <defs>
  <style type="text/css">
   <![CDATA[
    .fil1 {fill:#FEFEFE}
    .fil0 {fill:#E62229}
   ]]>
  </style>
 </defs>
 <g id="Слой_x0020_1">
  <metadata id="CorelCorpID_0Corel-Layer"/>
  <g id="_1001027392">
   <path class="fil0" d="M117 117c-75,76 -117,176 -117,283 0,107 42,207 117,283 76,75 176,117 283,117 107,0 207,-42 283,-117 75,-76 117,-176 117,-283 0,-107 -42,-207 -117,-283 -76,-75 -176,-117 -283,-117 -107,0 -207,42 -283,117z"/>
   <path class="fil1" d="M120 680c-74,-75 -115,-174 -115,-280 0,-106 41,-205 115,-280 75,-74 174,-115 280,-115 106,0 205,41 280,115 74,75 115,174 115,280 0,106 -41,205 -115,280 -75,74 -174,115 -280,115 -106,0 -205,-41 -280,-115z"/>
   <path class="fil0" d="M400 13c-214,0 -387,173 -387,387 0,214 173,387 387,387 214,0 387,-173 387,-387 0,-214 -173,-387 -387,-387zm0 691c-168,0 -304,-136 -304,-304 0,-168 136,-304 304,-304 168,0 304,136 304,304 0,168 -136,304 -304,304z"/>
   <path class="fil0" d="M104 400c0,163 133,296 296,296 163,0 296,-133 296,-296 0,-163 -133,-296 -296,-296 -163,0 -296,133 -296,296zm4 0c0,-161 131,-292 292,-292 161,0 292,131 292,292 0,161 -131,292 -292,292 -161,0 -292,-131 -292,-292z"/>
   <path class="fil0" d="M503 541c-5,0 -5,-1 -5,-7l0 -17c0,-5 0,-6 5,-7l1 0 0 -2c-2,0 -5,0 -9,0 -4,0 -8,0 -10,0l0 2 2 0c5,1 5,2 5,7l0 17c0,6 0,7 -5,7l-3 1 1 2c1,0 6,-1 10,-1 4,0 8,1 10,1l0 -2 -2 -1z"/>
   <path class="fil0" d="M528 507c-9,0 -17,7 -17,16 0,7 5,13 11,13 4,0 6,-2 8,-3l0 -2 -4 1c-6,0 -9,-7 -9,-12 0,-6 3,-10 9,-10 8,0 10,8 10,14 0,15 -9,24 -14,28 -3,2 -7,5 -12,6l1 2c6,-1 13,-4 19,-9 9,-9 12,-18 12,-27 0,-10 -4,-17 -14,-17z"/>
   <path class="fil0" d="M581 535c-2,4 -4,4 -8,4l-10 0 -2 -2 7 -7c5,-5 7,-8 7,-13 0,-6 -4,-10 -10,-10 -7,0 -12,5 -14,9l2 2c2,-4 5,-6 9,-6 4,0 7,3 7,8 0,5 -4,10 -9,15 -3,3 -6,5 -8,7l0 2c2,0 5,-1 8,-1l8 0c5,0 8,1 11,1 1,-3 3,-6 4,-9l-2 0z"/>
   <path class="fil0" d="M609 507c0,0 -1,1 -4,1l-6 1c-3,0 -4,1 -5,1 -1,0 -3,3 -4,5 -1,3 -2,6 -2,7 0,3 3,5 7,7 3,3 6,7 6,12 0,9 -8,15 -13,17l1 2c6,-2 18,-9 18,-21 0,-7 -4,-11 -9,-15l-4 -3c-2,-1 -3,-2 -2,-4 0,-1 1,-2 3,-2l11 -2c2,0 4,-3 4,-5l-1 -1z"/>
   <path class="fil0" d="M604 404c4,1 10,2 14,3 7,1 40,-4 51,-18 -9,-14 -27,-33 -67,-35 10,-3 33,-32 34,-47 -9,-9 -24,-10 -35,-12 3,-25 -16,-40 -19,-42 -1,-2 -2,-37 -47,-48 -1,-1 -12,-26 -39,-38 -41,-19 -73,-5 -80,-3 -64,-10 -79,20 -83,24 -2,2 -26,-3 -48,22 -6,0 -32,-14 -41,-12 -3,10 1,49 3,56 -21,5 -57,-9 -65,-2 -2,15 12,34 12,34 -17,-2 -48,0 -58,8 -2,2 4,14 12,23 9,8 23,16 42,17 0,1 -34,21 -45,36 3,2 27,9 30,10 13,4 50,-8 51,-8 -2,10 -9,37 -9,42 0,8 15,19 21,23 0,17 -2,68 -2,68 0,8 -1,19 1,25 8,1 36,-6 37,-5 3,3 3,17 5,22 5,1 8,3 14,4 1,4 -3,12 0,16 2,6 11,7 16,9 0,10 1,21 1,31 2,5 22,12 28,16l44 -43c8,8 14,15 20,24 -7,19 -31,54 -33,56l6 7c9,-10 13,-15 20,-28 8,-14 13,-21 19,-37 -7,-10 -16,-19 -23,-28 4,-10 9,-14 15,-24 -3,-2 -4,-3 -8,-2 -21,24 -38,40 -61,62 -3,-3 -12,-6 -16,-8 -1,-6 2,-27 -1,-30 -2,-7 -11,-6 -16,-10l-2 -1c1,-22 0,-17 -14,-24l-1 -4c0,-7 -1,-20 -3,-25 -6,0 -32,8 -36,10l-2 0 0 -1 0 -2c0,-18 0,-41 2,-57 1,-6 1,-11 2,-16 0,-3 1,-5 2,-7 16,0 29,5 44,6 7,-7 16,-11 23,-16 6,-4 12,-9 17,-12l1 -2c0,-1 -1,-6 -2,-9 -5,1 -17,5 -24,8 -12,4 -25,7 -37,10 -9,2 -19,6 -27,7 -7,0 -14,-7 -16,-12 -4,-8 9,-38 6,-51 12,-12 18,-20 23,-23 -8,14 -13,28 -13,44 14,-1 32,-2 46,-8 23,-9 33,-19 41,-30 6,32 17,42 25,67 17,1 30,-49 31,-49 7,29 17,35 21,53 7,-1 13,-16 17,-17 1,4 1,5 2,8 30,-3 52,-26 52,-26 -13,32 16,74 19,77 11,-5 25,-25 28,-28 5,12 13,23 23,30 5,4 9,6 14,9 6,-4 9,-21 12,-24 13,14 40,30 60,23 0,0 -4,-48 -34,-66zm19 -92c-2,6 -6,8 -10,12 -32,28 -42,21 -76,17 21,-35 69,-39 86,-29zm-120 -68c11,33 -6,73 -65,82 0,0 52,-23 54,-57 -6,-2 -16,-4 -16,-3 6,-10 20,-20 27,-22zm-251 -35c10,2 38,16 44,22 6,6 8,17 11,26 3,12 3,27 -2,34 -15,-2 -44,-30 -49,-48 -5,-18 -4,-25 -4,-34zm-102 92c6,-9 49,-8 56,-4 6,4 18,13 26,15 -3,6 -22,12 -34,12 -18,-1 -40,-10 -48,-23zm64 63c-5,3 -12,3 -17,4 -10,1 -21,-4 -29,-5 0,-1 36,-28 57,-35 5,-2 25,-3 29,-1 -3,10 -30,33 -40,37zm34 -52c-18,-6 -51,-35 -55,-53 13,1 22,3 32,6 16,2 25,2 40,14 8,6 16,21 17,28 -6,4 -24,8 -34,5zm48 53c-10,5 -23,4 -38,8 14,-62 61,-65 72,-66 0,16 -6,44 -34,58zm31 -84c-16,-26 -16,-47 -3,-76 16,2 49,53 18,91 -6,-3 -11,-9 -15,-15zm37 118c-4,-16 -14,-27 -18,-44 -1,-5 -3,-14 -1,-21 3,-9 9,-19 14,-26 21,10 29,70 5,91zm-2 -108c3,-27 33,-53 76,-58 -1,26 -26,52 -47,58 -9,1 -27,1 -29,0zm51 114c-3,-15 -25,-50 -18,-71 1,-5 3,-11 6,-17 9,4 21,24 23,32 7,23 -6,54 -11,56zm10 -93c-9,-2 -17,-6 -22,-9 22,-23 57,-38 77,-30 -5,14 -19,27 -33,33 -3,1 -16,7 -22,6zm12 87c2,-17 6,-43 18,-50 8,-5 23,-10 32,-11 5,17 -19,59 -50,61zm68 46c-3,-6 -8,-13 -10,-19 -6,-14 -3,-41 3,-54 4,-9 14,-13 19,-20 20,19 -5,90 -12,93zm-25 -118c16,-9 25,-25 39,-34 24,-17 44,-13 49,-9 -5,10 -20,28 -31,36 -18,11 -52,12 -57,7zm85 130c-9,-3 -18,-14 -22,-19 -14,-21 -8,-48 3,-67 3,3 7,8 11,13 18,25 13,40 8,73zm4 -87c18,-23 90,7 90,18 -13,5 -22,5 -32,6 -23,2 -55,-19 -58,-24zm14 33c8,1 18,8 23,13 11,11 22,30 26,48 -31,-1 -49,-30 -49,-61z"/>
   <path class="fil1" d="M172 137c8,8 7,20 -1,27 -8,8 -19,9 -27,1 -7,-8 -6,-20 1,-27 8,-8 20,-8 27,-1zm7 -7c-11,-11 -28,-11 -41,1 -11,11 -13,29 -1,41 11,12 29,11 41,-1 12,-11 13,-29 1,-41z"/>
   <polygon class="fil1" points="238,126 206,104 213,142 203,144 193,87 195,85 243,118 "/>
   <polygon class="fil1" points="262,87 271,107 262,111 253,91 224,71 230,64 253,80 256,52 266,52 "/>
   <polygon class="fil1" points="348,86 336,50 323,75 321,75 299,58 304,96 295,97 287,42 290,40 319,62 335,29 339,29 357,82 "/>
   <polygon class="fil1" points="407,80 406,36 382,36 383,81 373,81 373,27 416,26 417,80 "/>
   <polygon class="fil1" points="436,83 443,29 453,30 446,84 "/>
   <path class="fil1" d="M495 77l-14 -4 12 -14 2 18zm13 19l-8 -57 -3 -1 -37 45 8 6 6 -8 23 6 2 11 9 -2z"/>
   <polygon class="fil1" points="549,118 538,83 527,107 518,103 541,54 550,58 542,75 566,66 577,71 548,82 561,123 "/>
   <path class="fil1" d="M615 129c-6,9 -18,10 -27,4 -9,-7 -11,-18 -5,-27 7,-9 18,-10 27,-4 9,7 11,18 5,27zm8 6c10,-14 7,-31 -7,-41 -14,-9 -31,-7 -41,6 -10,14 -6,30 8,41 13,9 31,7 40,-6z"/>
   <polygon class="fil1" points="613,162 616,158 643,152 646,130 652,125 676,149 669,156 655,141 652,161 629,166 644,181 638,188 "/>
   <polygon class="fil1" points="82,202 84,203 100,229 125,227 129,229 112,258 108,256 120,233 96,236 82,211 69,235 65,232 "/>
   <polygon class="fil1" points="69,277 49,269 51,264 71,271 108,263 109,269 76,276 96,303 91,307 "/>
   <path class="fil1" d="M31 412l0 -33 38 17 -38 16zm-4 9l54 -24 0 -2 -53 -24 -2 2 0 46 1 2z"/>
   <polygon class="fil1" points="28,441 82,433 86,460 80,461 77,440 62,442 65,461 60,462 57,443 34,446 38,470 33,471 "/>
   <polygon class="fil1" points="37,490 40,490 69,497 85,477 89,476 99,508 94,509 86,485 72,504 44,497 52,522 47,524 "/>
   <polygon class="fil1" points="78,593 116,568 81,566 80,563 98,532 56,550 54,544 106,523 107,526 87,561 127,564 129,568 82,598 "/>
   <path class="fil1" d="M150 639c-11,9 -25,7 -33,-3 -9,-11 -8,-24 2,-33 10,-8 24,-6 33,4 9,10 8,24 -2,32zm3 5c13,-11 14,-28 3,-41 -10,-12 -28,-15 -41,-4 -12,10 -13,27 -2,41 10,12 28,15 40,4z"/>
   <polygon class="fil1" points="146,674 148,671 177,661 179,636 182,633 208,654 204,658 185,642 183,666 156,675 177,692 173,696 "/>
   <path class="fil1" d="M286 725c-4,10 -16,12 -28,8l14 -33c12,6 18,16 14,25zm5 3c5,-12 -2,-26 -16,-33l1 -2 -6 -3 -1 3c-15,-6 -30,-2 -35,10 -6,12 1,25 16,33l-2 4 6 2 2 -4c15,6 30,2 35,-10zm-39 3c-11,-6 -17,-16 -13,-26 4,-9 16,-11 28,-7l-15 33z"/>
   <polygon class="fil1" points="301,759 315,706 321,708 307,760 "/>
   <polygon class="fil1" points="367,772 356,727 332,768 327,765 356,714 358,714 373,771 "/>
   <path class="fil1" d="M422 755l-22 1 10 -27 12 26zm13 15l-24 -54 -3 0 -21 56 6 2 5 -13 26 -1 6 13 5 -3z"/>
   <polygon class="fil1" points="562,736 529,703 530,750 524,750 523,692 525,691 566,732 "/>
   <path class="fil1" d="M614 697l11 -7 3 4 -17 12 -4 -7c4,-7 8,-19 2,-27 -7,-11 -21,-11 -31,-4 -10,6 -15,19 -8,30 6,8 19,9 27,8l4 6 -17 12 -3 -5 10 -7c-10,1 -20,-2 -26,-11 -9,-13 -2,-30 10,-38 12,-8 30,-8 39,5 6,9 5,20 0,29z"/>
   <polygon class="fil1" points="735,560 692,537 679,562 722,585 719,590 672,565 690,529 738,554 "/>
   <polygon class="fil1" points="749,528 698,511 706,485 711,487 704,507 719,511 725,493 730,495 724,513 746,520 753,497 758,499 "/>
   <polygon class="fil1" points="763,478 710,467 711,461 764,472 "/>
   <path class="fil1" d="M733 414c6,1 10,7 9,13l-1 9 -20 -2 1 -9c0,-7 4,-11 11,-11zm1 -6c-10,0 -17,6 -17,16l-2 16 54 5 1 -6 -24 -2 1 -9c1,-10 -5,-19 -13,-20z"/>
   <path class="fil1" d="M755 368l1 22 -27 -9 26 -13zm15 -14l-54 26 0 2 56 21 2 -6 -13 -5 -1 -26 12 -6 -2 -6z"/>
   <polygon class="fil1" points="766,336 713,345 712,339 765,330 "/>
   <path class="fil1" d="M742 265l-5 -12 5 -2 7 20 -7 2c-5,-6 -17,-13 -26,-9 -12,4 -16,17 -12,29 4,11 16,19 28,15 9,-3 13,-15 14,-24l7 -2 7 20 -5 1 -4 -12c-2,10 -8,20 -17,23 -16,5 -30,-6 -35,-19 -5,-14 0,-32 15,-37 10,-3 20,1 28,7z"/>
   <polygon class="fil1" points="732,231 730,232 699,232 688,254 685,257 668,227 673,225 685,247 696,226 724,226 710,203 715,200 "/>
   <polygon class="fil1" points="30,343 30,343 73,322 35,311 37,306 90,321 40,345 83,353 82,359 28,349 "/>
   <path class="fil1" d="M497 731c3,13 -6,24 -18,27 -14,3 -25,-4 -28,-17 -3,-13 6,-24 18,-27 14,-3 25,4 28,17zm6 -1c-3,-16 -18,-25 -35,-22 -16,4 -26,18 -23,34 4,16 18,25 35,22 16,-4 27,-18 23,-34z"/>
   <polygon class="fil1" points="491,735 459,742 458,737 490,730 "/>
   <polygon class="fil1" points="675,650 674,650 627,643 652,673 648,677 612,635 667,642 636,612 640,608 679,646 "/>
  </g>
 </g>
</svg>
