<?xml version="1.0" encoding="UTF-8"?>
<!DOCTYPE svg PUBLIC "-//W3C//DTD SVG 1.0//EN" "http://www.w3.org/TR/2001/REC-SVG-20010904/DTD/svg10.dtd">
<!-- Creator: CorelDRAW X7 -->
<svg xmlns="http://www.w3.org/2000/svg" xml:space="preserve" width="800px" height="800px" version="1.0" style="shape-rendering:geometricPrecision; text-rendering:geometricPrecision; image-rendering:optimizeQuality; fill-rule:evenodd; clip-rule:evenodd"
viewBox="0 0 800 800"
 xmlns:xlink="http://www.w3.org/1999/xlink">
 <defs>
  <style type="text/css">
   <![CDATA[
    .fil0 {fill:#C08641;fill-rule:nonzero}
   ]]>
  </style>
 </defs>
 <g id="Слой_x0020_1">
  <metadata id="CorelCorpID_0Corel-Layer"/>
  <g id="_983837536">
   <path class="fil0" d="M101 746c12,0 23,-3 23,-17 0,-10 -6,-17 -18,-17l-32 0 0 34 27 0zm-39 -45l45 0c18,0 29,10 29,26 0,11 -5,21 -16,24l0 0c11,3 13,11 14,20 1,10 0,20 6,27l-15 0c-3,-4 -1,-14 -3,-24 -1,-9 -4,-17 -16,-17l-32 0 0 41 -12 0 0 -97z"/>
   <path class="fil0" d="M198 756c-1,-11 -9,-19 -21,-19 -12,0 -19,9 -20,19l41 0zm11 20c-3,15 -14,24 -30,24 -22,0 -33,-16 -34,-37 0,-21 14,-37 33,-37 25,0 32,24 32,40l-53 0c0,13 7,23 22,23 10,0 16,-4 18,-13l12 0z"/>
   <path class="fil0" d="M246 786c11,0 15,-6 14,-21 -3,2 -9,3 -14,4 -5,1 -9,3 -9,9 0,5 4,8 9,8zm-30 -37c1,-9 5,-15 11,-18 7,-4 15,-5 23,-5 16,0 32,3 32,23l0 31c0,6 0,12 3,18l-23 0c-1,-2 -1,-4 -1,-7 -6,7 -15,9 -23,9 -14,0 -24,-7 -24,-21 0,-23 24,-21 40,-25 4,0 7,-2 7,-6 0,-5 -7,-7 -12,-7 -6,0 -10,2 -11,8l-22 0z"/>
   <polygon class="fil0" points="295,701 318,701 318,798 295,798 "/>
   <path class="fil0" d="M331 728l22 0 0 9 1 0c4,-7 11,-11 20,-11 8,0 16,3 20,11 6,-7 13,-11 22,-11 22,0 25,17 25,30l0 42 -23 0 0 -41c0,-8 -4,-12 -10,-12 -10,0 -11,7 -11,19l0 34 -23 0 0 -40c0,-8 -2,-13 -8,-13 -9,0 -12,4 -12,19l0 34 -23 0 0 -70z"/>
   <path class="fil0" d="M482 786c11,0 14,-6 14,-21 -4,2 -9,3 -14,4 -6,1 -10,3 -10,9 0,5 5,8 10,8zm-30 -37c0,-9 5,-15 11,-18 6,-4 14,-5 22,-5 17,0 33,3 33,23l0 31c0,6 0,12 3,18l-24 0c0,-2 -1,-4 -1,-7 -6,7 -15,9 -23,9 -13,0 -24,-7 -24,-21 0,-23 25,-21 41,-25 4,0 6,-2 6,-6 0,-5 -6,-7 -11,-7 -6,0 -11,2 -12,8l-21 0z"/>
   <path class="fil0" d="M561 789c15,0 21,-13 21,-26 0,-14 -6,-26 -22,-26 -16,0 -21,13 -21,27 0,13 7,25 22,25zm32 9l-11 0 0 -10 -1 0c-3,8 -12,12 -22,12 -21,0 -32,-17 -32,-37 0,-20 10,-37 32,-37 7,0 17,3 22,11l1 0 0 -36 11 0 0 97z"/>
   <path class="fil0" d="M607 728l11 0 0 15 0 0c6,-11 13,-17 26,-17l0 13c-19,0 -25,10 -25,28l0 31 -12 0 0 -70z"/>
   <path class="fil0" d="M650 728l11 0 0 70 -11 0 0 -70zm11 -13l-11 0 0 -14 11 0 0 14z"/>
   <path class="fil0" d="M706 789c15,0 21,-13 21,-26 0,-14 -6,-26 -22,-26 -15,0 -21,13 -21,27 0,13 7,25 22,25zm32 9l-11 0 0 -10 0 0c-4,8 -13,12 -23,12 -21,0 -32,-17 -32,-37 0,-20 11,-37 32,-37 7,0 17,3 23,11l0 0 0 -36 11 0 0 97z"/>
   <path class="fil0" d="M418 148l-18 6 -18 -6 18 -7 18 7zm-72 13l-17 -2 14 -10 17 2 -14 10zm136 9c-3,0 -5,-3 -5,-6 0,-3 2,-6 5,-6 3,0 6,3 6,6 0,3 -3,6 -6,6zm0 -2c3,0 5,-2 5,-4 0,-2 -2,-4 -5,-4 -2,0 -4,2 -4,4 0,2 2,4 4,4zm-110 -13c-3,0 -6,-3 -6,-6 0,-3 3,-5 6,-5 3,0 6,2 6,5 0,3 -3,6 -6,6zm0 -1c2,0 4,-2 4,-5 0,-2 -2,-4 -4,-4 -3,0 -5,2 -5,4 0,3 2,5 5,5zm-54 16c-3,0 -6,-3 -6,-6 0,-3 3,-6 6,-6 3,0 5,3 5,6 0,3 -2,6 -5,6zm0 -2c2,0 4,-2 4,-4 0,-2 -2,-4 -4,-4 -3,0 -5,2 -5,4 0,2 2,4 5,4zm110 -14c3,0 5,-2 5,-5 0,-2 -2,-4 -5,-4 -2,0 -4,2 -4,4 0,3 2,5 4,5zm0 1c-3,0 -6,-3 -6,-6 0,-3 3,-5 6,-5 3,0 6,2 6,5 0,3 -3,6 -6,6zm26 6l-14 -10 17 -2 14 10 -17 2zm29 -85c0,2 -1,5 -3,6 4,2 6,5 6,9l0 1c5,1 10,3 15,4 3,2 6,3 8,5 -5,-10 -13,-18 -26,-25zm24 69c-4,-2 -6,-5 -5,-9 1,-2 1,-3 2,-4 1,-4 -2,-9 -6,-10 -4,-1 -9,2 -10,6 0,1 0,1 0,2 -6,8 -18,4 -17,-8 6,2 11,1 13,-6 1,-5 0,-8 -5,-10 0,-3 0,-4 -1,-7 3,-1 6,-3 6,-8 0,-5 -4,-7 -8,-8 3,-2 5,-4 5,-7 0,-1 0,-1 0,-1l1 -1c25,12 32,25 34,52 -3,1 -4,3 -6,7 -2,7 1,9 7,12 -4,1 -7,2 -10,0zm-190 -69c-13,7 -21,15 -26,25 3,-2 5,-4 8,-5 5,-1 10,-3 15,-4l0 -1c0,-4 2,-7 6,-9 -1,-1 -2,-3 -3,-6zm-27 57c-2,-4 -3,-6 -6,-7 2,-27 9,-39 33,-52 2,1 2,1 2,2 0,3 2,5 5,7 -4,1 -8,3 -8,8 0,5 3,7 6,8 -1,3 -1,4 -1,7 -5,2 -6,5 -5,10 2,7 7,8 13,6 2,12 -11,16 -17,8 0,-1 0,-1 0,-2 -1,-4 -6,-7 -10,-6 -4,1 -7,6 -6,10 1,1 1,2 2,4 1,4 -1,7 -5,9 -3,2 -6,1 -10,0 6,-3 9,-5 7,-12zm240 -3c4,2 6,8 3,12 -2,4 -8,6 -12,4 -4,-3 -6,-8 -4,-13 3,-4 8,-6 13,-3zm-1 1c-4,-2 -8,-1 -11,3 -2,4 0,8 4,10 3,3 8,1 10,-3 2,-3 1,-8 -3,-10zm-143 -92c-3,0 -6,-2 -6,-6 0,-3 3,-5 6,-5 3,0 6,2 6,5 0,4 -3,6 -6,6zm0 -1c3,0 4,-2 4,-5 0,-2 -1,-4 -4,-4 -2,0 -4,2 -4,4 0,3 2,5 4,5zm14 15c-3,0 -6,-3 -6,-6 0,-3 3,-6 6,-6 3,0 6,3 6,6 0,3 -3,6 -6,6zm0 -2c2,0 4,-1 4,-4 0,-2 -2,-4 -4,-4 -2,0 -4,2 -4,4 0,3 2,4 4,4zm0 18c-3,0 -6,-3 -6,-6 0,-3 3,-6 6,-6 3,0 6,3 6,6 0,3 -3,6 -6,6zm0 -2c2,0 4,-2 4,-4 0,-2 -2,-4 -4,-4 -2,0 -4,2 -4,4 0,2 2,4 4,4zm0 18c-3,0 -6,-3 -6,-6 0,-3 3,-6 6,-6 3,0 6,3 6,6 0,3 -3,6 -6,6zm0 -2c2,0 4,-2 4,-4 0,-3 -2,-4 -4,-4 -2,0 -4,1 -4,4 0,2 2,4 4,4zm-28 -41c-3,0 -6,-3 -6,-6 0,-3 3,-6 6,-6 3,0 5,3 5,6 0,3 -2,6 -5,6zm0 -2c2,0 4,-2 4,-4 0,-2 -2,-4 -4,-4 -3,0 -5,2 -5,4 0,2 2,4 5,4zm-14 7c-3,0 -6,-3 -6,-6 0,-3 3,-5 6,-5 3,0 5,2 5,5 0,3 -2,6 -5,6zm0 -1c2,0 4,-2 4,-5 0,-2 -2,-4 -4,-4 -3,0 -5,2 -5,4 0,3 2,5 5,5zm-14 10c-3,0 -5,-3 -5,-6 0,-3 2,-6 5,-6 3,0 6,3 6,6 0,3 -3,6 -6,6zm0 -1c3,0 5,-2 5,-5 0,-2 -2,-4 -5,-4 -2,0 -4,2 -4,4 0,3 2,5 4,5zm-10 13c-3,0 -6,-3 -6,-6 0,-3 3,-6 6,-6 3,0 6,3 6,6 0,3 -3,6 -6,6zm0 -2c3,0 4,-2 4,-4 0,-2 -1,-4 -4,-4 -2,0 -4,2 -4,4 0,2 2,4 4,4zm-14 0c-3,0 -6,-2 -6,-5 0,-3 3,-6 6,-6 3,0 6,3 6,6 0,3 -3,5 -6,5zm0 -1c3,0 4,-2 4,-4 0,-3 -1,-5 -4,-5 -2,0 -4,2 -4,5 0,2 2,4 4,4zm-14 7c-3,0 -5,-3 -5,-6 0,-3 2,-5 5,-5 3,0 6,2 6,5 0,3 -3,6 -6,6zm0 -1c3,0 5,-2 5,-5 0,-2 -2,-4 -5,-4 -2,0 -4,2 -4,4 0,3 2,5 4,5zm-12 10c-4,0 -6,-2 -6,-6 0,-3 2,-5 6,-5 3,0 5,2 5,5 0,4 -2,6 -5,6zm0 -1c2,0 4,-2 4,-5 0,-2 -2,-4 -4,-4 -3,0 -5,2 -5,4 0,3 2,5 5,5zm-11 13c-3,0 -5,-2 -5,-5 0,-3 2,-6 5,-6 3,0 6,3 6,6 0,3 -3,5 -6,5zm0 -1c3,0 5,-2 5,-4 0,-3 -2,-5 -5,-5 -2,0 -4,2 -4,5 0,2 2,4 4,4zm-6 15c-4,0 -6,-2 -6,-6 0,-3 2,-5 6,-5 3,0 5,2 5,5 0,4 -2,6 -5,6zm0 -1c2,0 4,-2 4,-5 0,-2 -2,-4 -4,-4 -3,0 -5,2 -5,4 0,3 2,5 5,5zm-4 17c-3,0 -6,-3 -6,-6 0,-3 3,-6 6,-6 3,0 6,3 6,6 0,3 -3,6 -6,6zm0 -2c2,0 4,-1 4,-4 0,-2 -2,-4 -4,-4 -2,0 -4,2 -4,4 0,3 2,4 4,4zm54 -40c-3,0 -5,-2 -5,-5 0,-3 2,-6 5,-6 3,0 6,3 6,6 0,3 -3,5 -6,5zm0 -1c3,0 5,-2 5,-4 0,-3 -2,-5 -5,-5 -2,0 -4,2 -4,5 0,2 2,4 4,4zm-3 17c-4,0 -6,-2 -6,-6 0,-3 2,-5 6,-5 3,0 5,2 5,5 0,4 -2,6 -5,6zm0 -1c2,0 4,-2 4,-5 0,-2 -2,-4 -4,-4 -3,0 -5,2 -5,4 0,3 2,5 5,5zm76 15c-5,0 -9,-4 -9,-9 0,-5 4,-9 9,-9 5,0 9,4 9,9 0,5 -4,9 -9,9zm0 -1c4,0 8,-4 8,-8 0,-5 -4,-8 -8,-8 -4,0 -8,3 -8,8 0,4 4,8 8,8zm-65 9c-5,1 -10,-2 -11,-7 -1,-4 2,-9 6,-11 5,-1 10,2 12,7 1,5 -2,10 -7,11zm0 -1c4,-1 6,-6 5,-10 -1,-4 -5,-7 -9,-5 -4,1 -7,5 -6,9 1,4 5,7 10,6zm-56 28c-4,2 -10,0 -12,-4 -3,-4 -1,-10 3,-12 5,-3 10,-1 13,3 2,5 0,10 -4,13zm-1 -2c4,-2 6,-6 4,-10 -3,-4 -7,-5 -11,-3 -4,2 -5,7 -3,10 2,4 7,6 10,3zm136 -116c3,0 6,2 6,5 0,4 -3,6 -6,6 -3,0 -6,-2 -6,-6 0,-3 3,-5 6,-5zm0 1c-3,0 -4,2 -4,4 0,3 1,5 4,5 2,0 4,-2 4,-5 0,-2 -2,-4 -4,-4zm14 1c3,0 6,3 6,6 0,3 -3,6 -6,6 -3,0 -5,-3 -5,-6 0,-3 2,-6 5,-6zm0 2c-2,0 -4,2 -4,4 0,2 2,4 4,4 3,0 5,-2 5,-4 0,-2 -2,-4 -5,-4zm14 4c3,0 6,2 6,5 0,3 -3,6 -6,6 -3,0 -5,-3 -5,-6 0,-3 2,-5 5,-5zm0 1c-2,0 -4,2 -4,4 0,3 2,5 4,5 3,0 5,-2 5,-5 0,-2 -2,-4 -5,-4zm14 7c3,0 5,3 5,6 0,3 -2,6 -5,6 -4,0 -6,-3 -6,-6 0,-3 2,-6 6,-6zm0 2c-3,0 -5,2 -5,4 0,3 2,5 5,5 2,0 4,-2 4,-5 0,-2 -2,-4 -4,-4zm10 10c3,0 6,3 6,6 0,3 -3,6 -6,6 -3,0 -6,-3 -6,-6 0,-3 3,-6 6,-6zm0 2c-3,0 -4,2 -4,4 0,2 1,4 4,4 2,0 4,-2 4,-4 0,-2 -2,-4 -4,-4zm14 -3c3,0 6,3 6,6 0,3 -3,5 -6,5 -3,0 -6,-2 -6,-5 0,-3 3,-6 6,-6zm0 1c-3,0 -4,2 -4,5 0,2 1,4 4,4 2,0 4,-2 4,-4 0,-3 -2,-5 -4,-5zm14 5c3,0 5,2 5,5 0,3 -2,6 -5,6 -3,0 -6,-3 -6,-6 0,-3 3,-5 6,-5zm0 1c-3,0 -5,2 -5,4 0,3 2,5 5,5 2,0 4,-2 4,-5 0,-2 -2,-4 -4,-4zm12 8c4,0 6,2 6,5 0,4 -2,6 -6,6 -3,0 -5,-2 -5,-6 0,-3 2,-5 5,-5zm0 1c-2,0 -4,2 -4,4 0,3 2,5 4,5 3,0 5,-2 5,-5 0,-2 -2,-4 -5,-4zm11 11c3,0 5,3 5,6 0,3 -2,5 -5,5 -3,0 -6,-2 -6,-5 0,-3 3,-6 6,-6zm0 1c-3,0 -5,2 -5,5 0,2 2,4 5,4 2,0 4,-2 4,-4 0,-3 -2,-5 -4,-5zm6 13c4,0 6,2 6,5 0,4 -2,6 -6,6 -3,0 -5,-2 -5,-6 0,-3 2,-5 5,-5zm0 1c-2,0 -4,2 -4,4 0,3 2,5 4,5 3,0 5,-2 5,-5 0,-2 -2,-4 -5,-4zm4 14c3,0 6,3 6,6 0,3 -3,6 -6,6 -3,0 -6,-3 -6,-6 0,-3 3,-6 6,-6zm0 2c-2,0 -4,2 -4,4 0,3 2,4 4,4 2,0 4,-1 4,-4 0,-2 -2,-4 -4,-4zm-54 -43c3,0 5,3 5,6 0,3 -2,5 -5,5 -3,0 -6,-2 -6,-5 0,-3 3,-6 6,-6zm0 1c-3,0 -5,2 -5,5 0,2 2,4 5,4 2,0 4,-2 4,-4 0,-3 -2,-5 -4,-5zm3 15c4,0 6,2 6,5 0,4 -2,6 -6,6 -3,0 -5,-2 -5,-6 0,-3 2,-5 5,-5zm0 1c-2,0 -4,2 -4,4 0,3 2,5 4,5 3,0 5,-2 5,-5 0,-2 -2,-4 -5,-4zm-6 14c4,2 7,7 6,11 -1,5 -6,8 -11,7 -5,-1 -8,-6 -7,-11 2,-5 7,-8 12,-7zm-1 2c-4,-2 -8,1 -9,5 -1,4 1,9 5,10 5,1 9,-2 10,-6 1,-4 -2,-8 -6,-9zm1 33l-1 2c-5,-2 -11,-4 -17,-5l0 -2c5,-1 9,-4 11,-9l2 1c-1,5 1,10 5,13zm-49 -8l0 -1c4,-2 7,-4 9,-7 1,0 2,0 3,0l1 0c1,4 3,7 7,9l-1 2c-6,-1 -13,-2 -19,-3zm-61 3l-1 -2c4,-2 6,-5 7,-9l1 0c1,0 2,0 3,0 2,3 5,5 9,7l0 1c-7,1 -13,2 -19,3zm-12 0l0 2c-6,1 -12,3 -17,5l-1 -2c4,-3 6,-8 5,-13l2 -1c2,5 6,8 11,9zm-47 17l-1 -1c2,-3 4,-6 4,-9 3,0 3,-1 5,-2 3,2 6,3 10,4l0 1c-6,2 -12,5 -18,7zm98 -34l2 0c1,6 4,10 8,12l0 2c-3,0 -6,0 -9,0 -3,0 -6,0 -9,0l0 -2c4,-2 7,-6 8,-12zm91 22l1 0c1,1 2,1 3,2 0,0 1,0 2,0 0,3 2,6 4,9l-1 1c-6,-2 -12,-5 -18,-7l0 -1c4,-1 7,-2 9,-4zm-99 -89c-24,-1 -42,13 -50,32 15,-8 35,-10 52,-7l0 -4c-1,-2 -2,-3 -2,-5 0,-2 1,-3 2,-5l0 -6c-1,-2 -2,-3 -2,-5zm2 0c0,2 1,3 2,4l0 8c-1,1 -2,2 -2,4 0,2 1,3 2,4l0 8c-1,1 -2,2 -2,4 0,4 4,6 7,7 3,-1 7,-3 7,-7 0,-2 -1,-3 -1,-4l-1 -8c1,-1 2,-2 2,-4 0,-2 -1,-3 -2,-4l0 -8c1,-1 2,-2 2,-4 0,0 0,-1 0,-2 32,-2 54,20 58,50 -3,1 -4,3 -6,6 -5,-1 -8,1 -9,7 -2,7 2,10 9,11 -3,5 -7,8 -12,7 -5,-1 -7,-5 -7,-10 0,-1 1,-2 1,-4 0,-4 -4,-8 -8,-8 -5,0 -8,4 -8,8 0,1 0,2 0,3 -1,4 -5,7 -9,7 -6,0 -9,-4 -10,-9 7,0 11,-2 11,-10 0,-5 -2,-8 -7,-9 -1,-6 -4,-7 -10,-8 -6,1 -9,2 -10,8 -5,1 -7,4 -7,9 0,8 4,10 11,10 -1,5 -4,9 -10,9 -4,0 -8,-3 -9,-7 0,-1 0,-2 0,-3 0,-4 -3,-8 -8,-8 -4,0 -8,4 -8,8 0,2 1,3 1,4 0,5 -2,9 -7,10 -5,1 -9,-2 -11,-7 6,-1 10,-4 8,-11 -1,-6 -4,-8 -9,-7 -2,-3 -3,-5 -6,-6 4,-30 26,-52 58,-50 0,1 0,2 0,2zm66 32c-8,-19 -26,-33 -50,-32 0,2 -1,3 -2,5l0 6c1,2 2,3 2,5 0,2 -1,3 -2,5l0 4c17,-3 37,-1 52,7zm-149 87l-2 8 1 1c-1,0 -1,0 -1,0 -1,1 -1,1 -1,2 0,1 1,1 2,1 28,-13 58,-20 91,-20 33,0 63,7 91,20 1,1 4,-2 0,-3l1 -1 -2 -8 7 -2 0 -1c1,0 1,0 1,0 2,0 2,-2 1,-2 -30,-14 -63,-22 -99,-22 -36,0 -69,8 -99,22 -1,0 -1,2 1,2 0,0 0,0 1,0l0 1 7 2zm-4 8l-6 -3 1 -6c-2,0 -3,-3 -2,-5 -3,1 -5,-1 -6,-3 -1,-1 -1,-2 -1,-4 -5,1 -9,0 -13,-2 -11,6 -23,-9 -17,-16 -3,-5 -2,-11 2,-14 -1,-1 -1,-2 -1,-4 0,-4 3,-8 6,-9 -1,-2 -2,-4 -2,-7 0,-4 3,-8 7,-9 0,-1 -1,-3 -1,-4 0,-6 5,-10 10,-10l1 0c0,-1 0,-2 0,-3 0,-5 4,-9 10,-9 1,0 2,0 3,0 0,-5 4,-10 9,-10 2,0 4,1 5,1 1,-3 5,-6 9,-6 3,0 6,1 8,4 1,-2 4,-3 6,-3l1 0c0,0 0,-1 0,-2 0,-5 4,-10 9,-10 2,0 3,1 4,1 0,-5 4,-10 10,-10 2,0 3,1 5,2 1,-4 5,-7 9,-7 2,0 4,1 6,2 2,-2 5,-4 8,-4 1,0 2,0 3,0 1,-2 3,-3 5,-4l1 0 0 -5 -6 0 0 -9 6 0 0 -6 10 0 0 6 6 0 0 9 -6 0 0 5 1 0c2,1 4,2 5,4 1,0 2,0 3,0 3,0 6,2 8,4 2,-1 4,-2 6,-2 4,0 8,3 9,7 2,-1 3,-2 5,-2 6,0 10,5 10,10 1,0 2,-1 4,-1 5,0 9,5 9,10 0,1 0,2 0,2l1 0c2,0 5,1 6,3 2,-3 5,-4 8,-4 4,0 8,3 9,6 1,0 3,-1 5,-1 5,0 9,5 9,10 1,0 2,0 3,0 6,0 10,4 10,9 0,1 0,2 0,3l1 0c5,0 10,4 10,10 0,1 -1,3 -1,4 4,1 7,5 7,9 0,3 -1,5 -2,7 3,1 6,5 6,9 0,2 0,3 -1,4 4,3 5,9 2,14 4,4 0,11 -3,14 -4,3 -9,5 -14,2 -4,2 -8,3 -13,2 0,4 -3,8 -7,7 1,2 0,5 -2,5l1 6 -6 3c1,1 1,3 1,4 -1,2 -3,3 -5,2 -27,-13 -58,-20 -90,-20 -32,0 -63,7 -90,20 -2,1 -4,0 -5,-2 0,-1 0,-3 1,-4zm195 -16c3,1 6,-2 5,-5l-1 -2c6,2 11,2 16,-3 4,3 8,3 12,0 4,-3 7,-9 2,-13 4,-5 4,-10 -2,-13 1,-2 2,-3 2,-5 0,-5 -4,-7 -8,-8 2,-2 4,-4 4,-8 0,-5 -4,-7 -8,-8 1,-2 2,-3 2,-5 0,-5 -4,-8 -8,-8 -2,0 -3,0 -4,1 1,-2 1,-4 1,-6 0,-4 -3,-7 -8,-7 -2,0 -3,0 -5,1 0,-1 1,-2 1,-3 0,-4 -4,-8 -8,-8 -3,0 -4,1 -6,2 -1,-4 -3,-7 -8,-7 -4,0 -6,2 -7,5 -2,-3 -4,-4 -7,-4 -1,0 -2,0 -4,1 1,-2 2,-3 2,-5 0,-4 -4,-8 -8,-8 -3,0 -4,1 -6,2 0,-1 0,-2 0,-3 0,-4 -3,-8 -8,-8 -2,0 -4,1 -6,3 -1,-4 -3,-8 -8,-8 -3,0 -4,1 -6,3 -2,-3 -4,-5 -8,-5 -1,0 -2,0 -3,0 -3,-3 -5,-4 -8,-5l0 -8 6 0 0 -5 -6 0 0 -6 -6 0 0 6 -6 0 0 5 6 0 0 8c-3,1 -5,2 -8,5 -1,0 -2,0 -3,0 -4,0 -6,2 -8,5 -2,-2 -3,-3 -6,-3 -5,0 -7,4 -8,8 -2,-2 -4,-3 -6,-3 -5,0 -8,4 -8,8 0,1 0,3 0,3 -2,-1 -3,-2 -6,-2 -4,0 -8,4 -8,8 0,2 1,3 2,5 -2,-1 -3,-1 -4,-1 -3,0 -5,1 -7,4 -1,-3 -3,-5 -7,-5 -5,0 -7,3 -8,7 -2,-1 -3,-2 -6,-2 -4,0 -8,4 -8,8 0,1 1,2 1,3 -2,-1 -3,-1 -5,-1 -5,0 -8,3 -8,7 0,2 0,4 1,6 -1,-1 -2,-1 -4,-1 -4,0 -8,3 -8,8 0,2 1,3 2,5 -4,1 -8,3 -8,8 0,4 2,6 4,8 -4,1 -8,3 -8,8 0,2 1,3 2,5 -6,3 -6,8 -2,13 -8,6 4,20 14,13 5,5 10,5 16,3 -1,1 -2,3 -1,5 1,2 4,3 6,2 30,-14 64,-22 100,-22 36,0 70,8 101,22zm-116 132l15 14 13 -14c-5,-1 -10,-1 -15,-1 -3,-1 -8,0 -13,1zm-12 -4c9,-2 17,-4 26,-4 9,1 17,2 26,5l-25 26 -27 -27zm70 -19l-1 1c-14,-5 -27,-8 -42,-8 -15,0 -29,3 -43,8l-40 -41c-49,29 -83,83 -83,144 0,41 14,76 39,105l16 -16c-14,-15 -36,-48 -34,-90 1,-48 21,-84 57,-114l24 24c-28,21 -47,51 -48,87 0,53 36,97 86,109l0 28 23 0 0 -25c33,0 64,-13 86,-38l-17 -18c-17,19 -44,34 -69,32l0 -28 34 0 0 -19 -34 0 0 -22 34 0 0 -17 -57 0 0 82c-37,-12 -63,-41 -63,-82 1,-31 16,-56 41,-73l48 50 46 -49c12,8 21,16 28,29l18 -16c-8,-12 -18,-21 -30,-30l24 -24c35,24 57,71 57,114 0,39 -13,64 -34,89l19 18c24,-29 38,-65 38,-106 0,-61 -34,-115 -84,-144l-39 40zm-75 159l-51 -52c2,29 19,57 51,69l0 -17zm179 35c-18,30 -45,54 -78,68l-16 -16 -29 -31c-7,2 -14,3 -21,3l0 25 -35 0 0 -29c-51,-14 -86,-62 -86,-114 1,-9 2,-17 4,-25l-17 -17c-5,14 -8,29 -8,45 -1,32 13,67 36,89l-24 26c-29,-33 -45,-70 -45,-114 0,-64 35,-120 90,-151l40 41c13,-4 28,-7 42,-7 15,0 28,3 40,7l41 -42c56,31 91,88 91,152 0,33 -9,63 -25,90zm-126 -129l99 102c11,-19 17,-38 17,-64 0,-46 -26,-88 -51,-106l-15 15c12,9 21,20 29,33l-28 23c-6,-13 -13,-22 -25,-30l-26 27zm-204 40c0,-101 83,-183 183,-183 100,0 183,82 183,183 0,100 -83,183 -183,183 -100,0 -183,-83 -183,-183zm6 0c0,97 80,177 177,177 97,0 177,-80 177,-177 0,-97 -80,-177 -177,-177 -97,0 -177,80 -177,177zm379 0c0,-112 -90,-203 -202,-203 -112,0 -202,91 -202,203 0,111 90,202 202,202 112,0 202,-91 202,-202zm6 0c0,115 -93,208 -208,208 -115,0 -208,-93 -208,-208 0,-115 93,-209 208,-209 115,0 208,94 208,209z"/>
   <polygon class="fil0" points="91,637 91,645 71,645 71,654 89,654 89,661 71,661 71,678 62,678 62,637 "/>
   <path class="fil0" d="M168 675c-3,3 -7,4 -12,4 -6,0 -10,-1 -13,-4 -3,-3 -5,-7 -5,-12l0 -26 9 0 0 26c0,1 0,2 0,3 1,1 1,2 2,3 0,1 1,1 2,2 1,0 3,1 5,1 3,0 5,-1 6,-3 1,-1 2,-3 2,-6l0 -26 9 0 0 26c0,5 -1,9 -5,12z"/>
   <polygon class="fil0" points="232,637 249,665 249,665 249,637 257,637 257,678 248,678 231,651 231,651 231,678 223,678 223,637 "/>
   <path class="fil0" d="M324 671c2,0 3,-1 4,-1 1,0 2,-1 3,-2 1,-1 2,-2 3,-4 0,-2 1,-3 1,-6 0,-2 -1,-4 -1,-5 0,-2 -1,-3 -2,-5 -1,-1 -2,-2 -4,-2 -1,-1 -3,-1 -5,-1l-7 0 0 26 8 0zm1 -34c3,0 5,0 7,1 3,1 5,2 6,4 2,2 3,4 4,6 1,3 2,6 2,9 0,3 -1,6 -2,9 0,2 -1,4 -3,6 -2,2 -4,4 -6,5 -2,1 -5,1 -8,1l-18 0 0 -41 18 0z"/>
   <path class="fil0" d="M413 662l-6 -15 0 0 -5 15 11 0zm-1 -25l16 41 -10 0 -3 -9 -15 0 -4 9 -9 0 16 -41 9 0z"/>
   <path class="fil0" d="M499 648c0,-1 -1,-2 -2,-2 -1,-1 -2,-1 -3,-2 -1,0 -2,0 -3,0 -2,0 -4,0 -5,1 -1,1 -3,2 -3,3 -1,1 -2,3 -2,5 -1,1 -1,3 -1,5 0,2 0,3 1,5 0,1 1,3 2,4 0,2 2,3 3,3 1,1 3,2 5,2 3,0 5,-1 7,-3 1,-2 2,-4 3,-7l8 0c0,3 0,5 -1,7 -1,2 -3,4 -4,6 -2,1 -4,2 -6,3 -2,1 -4,1 -7,1 -3,0 -6,0 -8,-1 -3,-2 -5,-3 -7,-5 -1,-2 -3,-4 -4,-7 -1,-2 -1,-5 -1,-8 0,-3 0,-6 1,-9 1,-2 3,-5 4,-7 2,-2 4,-3 7,-4 2,-1 5,-2 8,-2 2,0 5,0 7,1 2,1 4,2 5,3 2,1 3,3 4,4 1,2 2,4 2,7l-9 0c0,-1 0,-2 -1,-3z"/>
   <polygon class="fil0" points="566,678 557,678 557,637 566,637 "/>
   <path class="fil0" d="M636 623l-6 10 5 0 10 -10 -9 0zm-12 40c0,1 1,3 2,4 1,2 2,3 3,3 2,1 3,2 5,2 2,0 4,-1 6,-2 1,0 2,-1 3,-3 1,-1 2,-3 2,-4 0,-2 1,-3 1,-5 0,-2 -1,-4 -1,-5 0,-2 -1,-4 -2,-5 -1,-1 -2,-2 -3,-3 -2,-1 -4,-1 -6,-1 -2,0 -3,0 -5,1 -1,1 -2,2 -3,3 -1,1 -2,3 -2,5 -1,1 -1,3 -1,5 0,2 0,3 1,5zm-9 -14c1,-2 3,-5 4,-7 2,-2 4,-3 7,-4 2,-1 5,-2 8,-2 4,0 6,1 9,2 2,1 5,2 6,4 2,2 3,5 4,7 1,3 2,6 2,9 0,3 -1,6 -2,8 -1,3 -2,5 -4,7 -1,2 -4,3 -6,5 -3,1 -5,1 -9,1 -3,0 -6,0 -8,-1 -3,-2 -5,-3 -7,-5 -1,-2 -3,-4 -4,-7 0,-2 -1,-5 -1,-8 0,-3 1,-6 1,-9z"/>
   <polygon class="fil0" points="711,637 729,665 729,665 729,637 737,637 737,678 728,678 711,651 711,651 711,678 702,678 702,637 "/>
  </g>
 </g>
</svg>
