<svg id="Layer_1" xmlns="http://www.w3.org/2000/svg" viewBox="0 0 378.1 496"><style>.st0{fill:#004a9d}</style><path class="st0" d="M124.9 312.1zm9.7-137.1c-2.1 3.1-3.9 6.2-5.5 9.6-1.1 2.3-2.1 4.7-3 7.2v.1c.9-2.5 1.9-4.9 3-7.2 1.6-3.4 3.5-6.6 5.5-9.7.1 0 0 0 0 0zm25 151.3c.5.2 1.1.4 1.7.5-.6-.1-1.1-.3-1.7-.5zm21.3-281.6c1.3-4.2 3.1-8.2 5.2-12-2.2 3.8-3.9 7.8-5.2 12zm-21.3 281.6c.5.2 1.1.4 1.7.5-.6-.1-1.1-.3-1.7-.5z"/><path class="st0" d="M124.9 312.1zm9.7-137.1c-2.1 3.1-3.9 6.2-5.5 9.6-1.1 2.3-2.1 4.7-3 7.2v.1c.9-2.5 1.9-4.9 3-7.2 1.6-3.4 3.5-6.6 5.5-9.7.1 0 0 0 0 0zm46.3-130.3c1.3-4.2 3.1-8.2 5.2-12-2.2 3.8-3.9 7.8-5.2 12z"/><path class="st0" d="M305.9 144h-10.8c16.3-13.2 26.8-33.4 26.8-56V64c0-35.3-28.7-64-64-64h-16c-22 0-41.4 11.1-52.9 28-11.5-16.9-30.9-28-52.9-28h-16C98.6 0 79.6 10.6 68 26.8c-3.7 5.1-6.6 10.8-8.6 16.9-1.9 5.6-3 11.6-3.3 17.8V88c0 1.1 0 2.2.1 3.2.3 6.4 1.4 12.7 3.3 18.6 2 6.4 4.9 12.3 8.5 17.8 4.1 6.2 9.2 11.7 14.9 16.4H72.1c-1.4 0-2.7 0-4 .1H68c-4.1.2-8.1.8-12 1.7-10.9 2.5-20.8 7.4-29.2 14.2-1.7 1.4-3.3 2.8-4.9 4.3-3.5 3.4-6.7 7.2-9.4 11.2-1.9 2.8-3.6 5.8-5.1 8.8-1.2 2.4-2.2 4.9-3.2 7.5C1.5 199.3 0 207.5 0 216v80c0 5.6 1 11 2.8 16 2.1 6 5.4 11.4 9.5 16 8.8 9.8 21.5 16 35.6 16h.2v127.5c0 3 .5 5.9 1.5 8.5 1.4 3.7 3.6 6.9 6.4 9.5 3.3 3 7.4 5.2 12 6.1 1.5.3 3.1.4 4.6.4h110.9l122-.1c13.6 0 24.6-11 24.6-24.6V344c26.5 0 48-21.5 48-48v-80c-.2-39.8-32.5-72-72.2-72zm-56.2 0c-23.8 0-44.3-15.3-52.3-36.6-1.5-4.1-2.5-8.3-3.1-12.7 2-.6 3.8-1.4 5.6-2.4 6.6-3.7 11.7-10 13.6-17.8l.2-.9c1.4-5.6 6.4-9.5 12.1-9.5h48c5.7 0 10.7 3.9 12.1 9.4l.2 1c2.5 9.9 9.9 17.4 19.2 20.2-3.3 27.8-27 49.3-55.6 49.3zm22.7 16c-3.3 9.3-12.1 16-22.5 16s-19.2-6.7-22.5-16h45zm-78.3-96.1c0-6.4 1.3-12.5 3.6-18.1 6.9-17.5 24.2-29.8 44.2-29.8h16c26.5 0 48 21.5 48 48v13c-2-1.6-3.5-3.8-4.1-6.5l-.2-1c-3.2-12.7-14.5-21.6-27.5-21.6h-48c-11.4 0-21.5 6.7-26 16.8-.7 1.5-1.2 3.1-1.7 4.8l-.2.9c-.7 2.6-2.2 4.8-4.1 6.5v-13zm-5.2 62.4c4.3 6.6 9.6 12.6 15.8 17.6h-31.4c6.1-4.9 11.4-10.9 15.6-17.6zM72.1 64c0-7.3 1.6-14.2 4.5-20.3C84.3 27.4 100.9 16 120.1 16h16c20.1 0 37.3 12.4 44.4 29.9-1.4 4.7-2.3 9.6-2.5 14.7-.1 1.1-.1 2.2-.1 3.4v.5C173.3 54.6 163.2 48 152 48h-48c-10.1 0-19.1 5.3-24.2 13.5-1.5 2.5-2.7 5.2-3.4 8.1l-.2.9c-.7 2.6-2.2 4.8-4.1 6.5V64zm4.4 45.8c-2-4.8-3.4-9.8-4-15.1 2.6-.8 5.1-2 7.3-3.5 5.8-3.8 10.1-9.7 11.9-16.8l.2-.9c1.4-5.6 6.4-9.5 12.1-9.5h48c5.7 0 10.7 3.9 12.1 9.4l.2 1c1.9 7.8 7.1 14.1 13.7 17.8.3 5.2 1.2 10.3 2.5 15.1-7.9 21.4-28.4 36.7-52.5 36.7-23.2 0-43-14.1-51.5-34.2zM169.9 264h-32v-16h32v16zm.2 15.9v48c-1.7.1-3.2 0-4.6-.2-.3 0-.6-.1-.9-.1-.9-.2-1.8-.3-2.7-.6-.2 0-.4-.1-.6-.2-.6-.2-1.2-.3-1.7-.5-.3-.1-.5-.2-.7-.3l-.9-.3c-.3-.1-.6-.3-.9-.4-.1 0-.2-.1-.4-.2s-.5-.2-.7-.3c-.2-.1-.5-.2-.7-.4-.2-.1-.5-.2-.7-.4-.5-.2-.9-.5-1.3-.8-.4-.3-.9-.5-1.3-.8-.2-.1-.4-.3-.6-.4-.2-.2-.4-.3-.6-.5s-.4-.3-.6-.5c-.8-.6-1.6-1.3-2.3-2l-.6-.6c-.3-.2-.5-.5-.7-.7-.3-.3-.6-.6-.9-1-.2-.2-.3-.4-.5-.6-.2-.3-.4-.5-.6-.8-.4-.5-.8-1-1.1-1.5-.2-.3-.4-.7-.6-1s-.4-.6-.5-.9c-2.7-4.7-4.3-10.2-4.3-16v-16h32zm-35.4-105s0 .1-.1.1c-2.1.6-4.3.9-6.5.9-10.4 0-19.2-6.7-22.5-16h43.1c-1.5 1.2-3 2.5-4.4 3.8-3.6 3.4-6.8 7.2-9.6 11.2zM16 248h32v16H16v-16zm32.1 80h-.2c-5.2 0-10.1-1.3-14.5-3.6-5.4-2.8-10-7.2-13-12.4-2.7-4.7-4.3-10.2-4.3-16v-16h32v48zm8-128c-2.2 0-4.2.9-5.7 2.3-1.4 1.5-2.3 3.5-2.3 5.7v24h-32v-16c0-9.8 2.5-19 6.9-27s10.8-14.8 18.4-19.8c4.5-2.9 9.4-5.3 14.6-6.8 5.1-1.5 10.5-2.4 16.1-2.4h16.8c.3 1.5.7 2.9 1.2 4.3 2.6 8.1 7.8 15.1 14.6 20 6.1 4.4 13.4 7.2 21.4 7.6-2.7 7.5-4.1 15.5-4.1 24v80c0 5.6 1 11 2.8 16v.1H64.1V208c0-4.4-3.6-8-8-8zm68.8 112.3c0-.1-.1-.2-.1-.2.1.1.1.1.1.2zM120 480H76c-.9 0-1.8-.1-2.6-.3-2.1-.5-4-1.5-5.5-2.9-2.4-2.2-3.9-5.4-3.9-8.9v-68h56V480zm8.1-120c-2.2 0-4.2.9-5.7 2.3-1.4 1.5-2.3 3.5-2.3 5.7v16h-56v-56h70.3c8.8 9.7 21.5 15.9 35.7 15.9V384h-34v-16c0-4.4-3.6-8-8-8zm8 120v-80h34v71.3c0 3 .5 5.9 1.5 8.6v.1h-35.5zm105.7 0h-43.9c-1.7 0-3.4-.4-4.9-1-1.6-.7-3-1.7-4.1-3-1.5-1.7-2.5-3.7-2.9-6-.1-.7-.2-1.3-.2-2v-68h56v80zm72.1-12.1c0 6.7-5.4 12.1-12.1 12.1h-43.9v-80h56v67.9zm0-83.9h-56v-16c0-4.4-3.6-8-8-8-2.2 0-4.2.9-5.6 2.3-1.5 1.5-2.4 3.5-2.4 5.7v16h-56v-56h128v56zm48-88c0 17.7-14.3 32-32 32v-48h32v16zm0-32h-32v-16h32v16zm0-32h-32v-24c0-4.4-3.6-8-8-8-2.2 0-4.2.9-5.6 2.3-1.5 1.5-2.4 3.5-2.4 5.7v104h-128V208c0-4.4-3.6-8-8-8-2.2 0-4.2.9-5.6 2.3-1.5 1.5-2.4 3.5-2.4 5.7v24h-32v-16c0-10.2 2.7-19.7 7.5-28 3.4-5.8 7.7-11 12.9-15.2 5.7-4.7 12.4-8.3 19.7-10.5 5-1.5 10.4-2.3 15.9-2.3h16.8c.3 1.3.6 2.6 1 3.8 2.6 8.5 8.1 15.9 15.2 20.9 3.3 2.3 6.9 4.1 10.7 5.4 3.9 1.2 8 1.9 12.3 1.9 19.3 0 35.5-13.8 39.2-32h16.8c30.9 0 56 25.1 56 56v16z"/><path class="st0" d="M261.5 226v55.1c0 4.4-3.6 8-8 8s-8-3.6-8-8V234h-6.6c-4.4 0-8-3.6-8-8s3.6-8 8-8h14.6c4.4 0 8 3.6 8 8z"/></svg>