<svg id="Layer_1" xmlns="http://www.w3.org/2000/svg" viewBox="0 0 252.1 555"><style>.st0{fill:#004a9d}</style><path class="st0" d="M35.8 355.3c.7.3 1.5.5 2.3.7-.8-.2-1.6-.4-2.3-.7zm0 0c.7.3 1.5.5 2.3.7-.8-.2-1.6-.4-2.3-.7z"/><path class="st0" d="M35.8 355.3c.7.3 1.5.5 2.3.7-.8-.2-1.6-.4-2.3-.7z"/><path class="st0" d="M182 144h-16.5l4.4-3.6C186.5 127 196 107.1 196 86V62c0-19.3-8.8-37.2-24.1-49C161 4.5 147.8 0 134 0h-16c-14 0-27.2 4.5-38.2 13.2l-.2.1c-5 3.9-9.3 8.6-12.9 13.8-3.6 5.3-6.4 11.1-8.2 17.3-1.4 4.6-2.2 9.4-2.4 14.2v.1c-.1 1.1-.1 2.2-.1 3.3v24c0 1.1 0 2.2.1 3.3v.8c.3 5 1.1 10 2.5 14.7 1.8 6.5 4.6 12.7 8.2 18.4 4.1 6.6 9.3 12.3 15.3 17.2l2.9 2.3 1.5 1.2H70c-1.6 0-3.2.1-4.8.2-3.6.2-7.2.8-10.7 1.5l-.2.1c-10.3 2.3-20 7.1-28.3 13.8-1.4 1.1-2.9 2.4-4.3 3.7-3.5 3.3-6.6 7-9.3 10.9-2.1 3-3.9 6.2-5.5 9.4-1.1 2.3-2.1 4.7-2.9 7-2.7 7.5-4 15.4-4 23.4v111c0 5.3.9 10.4 2.6 15.3.1.4.3.7.4 1s.2.5.3.7l.1.3c1.3 3.1 2.9 6.1 4.9 8.9l.6.9c.3.4.5.7.7.9.2.3.5.6.7.9.3.3.5.6.7.9l.1.1c.2.3.4.5.7.8 8.7 9.7 21.2 15.3 34.3 15.3h2v161.4c0 2.7.5 5.4 1.4 7.9 1.3 3.4 3.3 6.4 6 8.9 2.9 2.6 6.4 4.4 10.1 5.3 1.6.4 3.3.6 5 .6h110.9c12.4 0 22.6-10.1 22.6-22.6V371h2c25.4 0 46-20.6 46-46V214c-.1-38.6-31.5-70-70.1-70zm-13 12v156h-20V180.2l.8-.6c6.9-5.6 11.7-13.4 13.5-22l.3-1.6h5.4zm-33.2 18.1c-3.1 1.3-6.4 1.9-9.8 1.9-2.6 0-5.1-.4-7.6-1.1-7.8-2.4-14.1-8.4-16.8-16.2l-1-2.7h50.7l-1 2.7c-2.4 7-7.7 12.6-14.5 15.4zm1.2 12.4V312h-20V187l2.4.4c4.9.9 10.3.8 15.2-.4l2.4-.5zM68 62c0-6.5 1.3-12.9 3.7-18.9C79.4 24.2 97.6 12 118 12h16c27.6 0 50 22.4 50 50v17.3l-3.3-2.8c-2.4-2-4.1-4.6-4.8-7.5l-.2-1c-2.9-11.8-13.5-20.1-25.7-20.1h-48c-10.4 0-19.9 6.1-24.2 15.7-.6 1.4-1.2 2.9-1.5 4.4l-.2.9c-.8 2.9-2.4 5.5-4.8 7.5L68 79.2V62zm6 49.6c-.9-1.8-1.7-3.6-2.4-5.5-1.6-4.2-2.6-8.7-3.2-13.2l-.2-1.7 1.6-.5c1.8-.6 3.6-1.3 5.2-2.3 6.4-3.6 10.9-9.5 12.6-16.6l.2-.9c1.6-6.5 7.4-11 14.1-11h48c6.7 0 12.4 4.5 14.1 11l.2 1c2.3 9 8.9 16 17.9 18.8l1.6.5-.2 1.7c-.8 6.6-2.7 12.9-5.6 18.8C168 131.6 148.1 144 126 144c-22.2 0-42.1-12.4-52-32.4zM88.4 156l.6 2.4c.2 1 .5 1.9.8 2.8 2.5 8 7.6 15 14.4 19.8l.9.6V312h-20V156h3.3zM48 359h-2c-1.6 0-3.1-.1-4.6-.3-.3 0-.6-.1-1-.2-1-.2-1.9-.4-2.9-.6-.7-.2-1.5-.4-2.4-.7l-.8-.3-.9-.3c-.4-.2-.8-.3-1.1-.5-.1 0-.2-.1-.3-.2l-.7-.3c-.2-.1-.5-.3-.7-.4s-.5-.3-.8-.4c-.4-.2-.9-.5-1.4-.8-.4-.3-.9-.6-1.4-.9-.2-.1-.4-.3-.6-.4l-.1-.1c-.2-.2-.4-.3-.6-.4l-.6-.5c-.9-.7-1.8-1.5-2.5-2.2l-.2-.2-.5-.5c-.2-.2-.5-.5-.7-.8-.3-.3-.6-.7-.9-1-.2-.2-.3-.4-.5-.6-.2-.3-.5-.6-.7-.9-.3-.4-.7-1-1.2-1.6l-.6-.9-.1-.1c-.2-.3-.4-.7-.6-1-2.2-3.7-3.6-7.8-4.2-12L12 244h36v115zm6-159c-1.6 0-3.1.6-4.3 1.8-1.1 1.1-1.8 2.7-1.8 4.3v26h-36v-18c0-10.2 2.7-20.2 7.8-29 3.5-6 8-11.3 13.3-15.8 6-5 12.9-8.7 20.4-10.9 5.3-1.6 10.8-2.4 16.5-2.4h3v156h-13V206c.1-3.3-2.6-6-5.9-6zm66 343H74.1c-2 0-3.9-.4-5.7-1.2-1.8-.8-3.4-1.9-4.8-3.4-1.8-2-3-4.4-3.4-7-.1-.8-.2-1.6-.2-2.4V396h60v147zm72-14.1c0 7.8-6.3 14.1-14.1 14.1H132V396h60v132.9zm0-144.9h-60v-18c0-3.3-2.7-6-6-6-1.6 0-3.1.6-4.3 1.8-1.1 1.1-1.8 2.6-1.8 4.3v18h-60v-60h132V384h.1zm47.7-54.1c-2.4 16.5-16.8 29.1-33.6 29.1h-2V244h36l-.4 85.9zm.3-97.9h-36v-26c0-3.3-2.7-6-6-6-1.6 0-3.1.6-4.3 1.8-1.1 1.1-1.8 2.7-1.8 4.3v106h-11V156h2c15.3.3 29.6 6.4 40.3 17.3 10.7 10.9 16.7 25.4 16.7 40.7v18h.1z"/><path class="st0" d="M35.8 355.3c.7.3 1.5.5 2.3.7-.8-.2-1.6-.4-2.3-.7zm0 0c.7.3 1.5.5 2.3.7-.8-.2-1.6-.4-2.3-.7zm0 0c.7.3 1.5.5 2.3.7-.8-.2-1.6-.4-2.3-.7z"/></svg>