<svg id="Capa_1" xmlns="http://www.w3.org/2000/svg" viewBox="0 0 397 186.5"><style>.st0{fill:#004a9d}</style><path class="st0" d="M361.8 0H35.1C15.7 0 0 15.7 0 35.1v116.3c0 19.4 15.7 35.1 35.1 35.1h326.8c19.4 0 35.1-15.7 35.1-35.1V35.1C397 15.6 381.2 0 361.8 0zM38.3 167.1c-10.4 0-18.9-8.4-18.9-18.9V38.3c0-10.4 8.4-18.8 18.9-18.8h102.9l-4 3.5c-20.3 17.8-32 43.4-32 70.3 0 16.8 4.6 33.1 12.9 47.3v.1c.3.6.7 1.1 1 1.7.2.4.4.7.7 1.1.3.5.7 1 1 1.6.4.6.9 1.3 1.3 1.9l2.4 3.3c.3.4.6.8 1 1.2.8 1 1.6 2 2.4 2.9.3.3.6.7.9 1 .2.2.4.5.6.7.3.4.7.7 1 1.1.8.9 1.7 1.8 2.6 2.7.4.4.8.8 1.3 1.2l.1.1c.4.4.9.8 1.3 1.2.5.4.9.8 1.4 1.3l4 3.5H38.3v-.1zm214.6-24c-.8.9-1.6 1.7-2.5 2.5l-1.6 1.6c-.1.1-.2.2-.3.2-.2.1-.3.3-.5.4l-.5.5-.6.6c-.4.3-.8.7-1.2 1-.4.3-.8.7-1.2 1-.1.1-.2.2-.3.2l-1.2.9-.1.1c-.3.2-.6.5-.9.7-.1.1-.2.2-.3.2-.2.2-.5.3-.7.5-.2.1-.3.3-.5.3-.4.3-.8.5-1.1.8l-.1.1h-.1l-.9.6c-.5.3-1.1.7-1.6 1l-.9.6c-.6.3-1.1.7-1.7 1-.2.1-.4.3-.7.4-.2.1-.3.2-.5.3-7 3.7-14.6 6.3-22.7 7.6-.9.2-1.9.3-2.8.4-.4.1-.8.1-1.2.1h-.1c-.6.1-1.3.1-2 .2-.4 0-.8.1-1.2.1h-1c-.6 0-1.1.1-1.7.1h-3.4c-.6 0-1.1 0-1.7-.1h-.9c-.7 0-1.5-.1-2.2-.2h-.1c-.8-.1-1.5-.1-2.3-.2-.4 0-.8-.1-1.2-.2-9.1-1.2-17.6-4.1-25.3-8.4 0 0-.1 0-.1-.1 0 0-.1 0-.1-.1-.4-.2-.8-.4-1.1-.6l-1.5-.9c-.5-.3-1.1-.6-1.6-1-.4-.3-.8-.5-1.1-.7-.2-.1-.3-.2-.5-.3-.2-.1-.4-.3-.7-.4-.1-.1-.2-.1-.3-.2s-.2-.1-.3-.2-.2-.1-.3-.2-.2-.1-.3-.2c-.1 0-.1-.1-.2-.1l-.1-.1c-.1-.1-.2-.1-.3-.2s-.2-.2-.3-.2c-.1-.1-.3-.2-.4-.3-.1-.1-.2-.1-.2-.2-.1-.1-.3-.2-.4-.3-.1 0-.1-.1-.2-.1s-.1-.1-.2-.2c-.2-.1-.4-.3-.5-.4-.5-.4-.9-.7-1.3-1.1l-.1-.1-2.7-2.4c-.6-.5-1.2-1.1-1.7-1.7l-1-1c-.1 0-.1-.1-.2-.2s-.2-.3-.3-.4l-.5-.5-.5-.5-.8-.8-2.3-2.5h.2c-10.3-12.7-16.5-28.8-16.5-46.4 0-40.7 33.1-73.8 73.8-73.8 20.3 0 38.8 8.3 52.1 21.6C264 54.6 272.2 73 272.2 93.3c0 17.6-6.2 33.7-16.5 46.4h.2l-2.5 2.7-.5.7zm124.6 5.1c0 10.4-8.4 18.9-18.9 18.9H255.7l4-3.5c.5-.4.9-.8 1.4-1.3.4-.4.9-.8 1.3-1.2 0 0 .1-.1.2-.1.4-.4.8-.8 1.3-1.2.9-.9 1.8-1.8 2.6-2.7.3-.4.7-.7 1-1.1.2-.2.4-.5.6-.7.3-.3.6-.7.9-1 .8-1 1.6-1.9 2.4-2.9.3-.4.7-.8 1-1.2 1.7-2.2 3.3-4.4 4.7-6.7.2-.4.5-.7.7-1.1.4-.6.7-1.2 1-1.7 8.4-14.2 13-30.5 13-47.3 0-26.9-11.7-52.5-32-70.3l-4-3.5h102.9c10.4 0 18.9 8.4 18.9 18.8v109.8h-.1z"/><path class="st0" d="M226.1 106.1c0 9.8-7.5 17-20.1 19.2l-.9.1v10.8h-10.9v-10.4h-1.3c-7.8-.5-15.5-2.3-21.1-5l4.7-10.6c6.5 3.1 14.3 5 21.1 5 3.1 0 12.5 0 12.5-7.3 0-6-7-7.5-14.5-9-13.5-2.8-23.8-5.9-23.8-18.4 0-10.3 8-17.5 21.3-19.3l1-.2V50.4H205v10.5h1.2c6 .6 11.4 1.9 15.9 3.9l-4.4 10.5c-6-2.6-11.9-3.9-17.4-3.9-10.9 0-12.5 4.9-12.5 7.8 0 5.9 6.6 7.2 14.3 8.7 13.6 2.7 24 5.8 24 18.2zm107.1-2.9c-5.5 0-10-4.5-10-10s4.5-10 10-10 10 4.5 10 10-4.5 10-10 10zm-269.5 0c-5.5 0-10-4.5-10-10s4.5-10 10-10 10 4.5 10 10-4.5 10-10 10z"/></svg>