<svg id="Capa_1" xmlns="http://www.w3.org/2000/svg" viewBox="0 0 397 283.5"><style>.st0{fill:#004a9d}</style><path class="st0" d="M361.9 0H35.1C15.7 0 0 15.7 0 35.1v213.3c0 19.4 15.7 35.1 35.1 35.1h326.8c19.4 0 35.1-15.7 35.1-35.1V35.1C397 15.6 381.3 0 361.9 0zM198.5 19.5c20.4 0 38.8 8.3 52.2 21.6 13.4 13.4 21.6 31.8 21.6 52.2 0 1.2 0 2.4-.1 3.5v1.1c-.4 6.4-1.6 12.6-3.5 18.4-.1.4-.2.7-.4 1.1-.9 2.6-1.9 5.1-3.1 7.5-.1.3-.2.5-.3.7-2.9 5.8-6.4 11.2-10.7 16-.2.2-.3.4-.5.5-13.5 15.2-33.2 24.8-55.2 24.8-21.9 0-41.6-9.6-55.2-24.8-.2-.2-.3-.4-.5-.6-4.2-4.8-7.8-10.2-10.7-16-.1-.2-.2-.5-.3-.7-1.2-2.4-2.2-4.9-3.1-7.5-.1-.4-.3-.7-.4-1.1-1.9-5.8-3.1-12-3.5-18.4v-1.1c-.1-1.2-.1-2.3-.1-3.5 0-40.6 33.1-73.7 73.8-73.7zm60 167l-.1.2-2.5 3.1c-14.1 17.4-35 27.4-57.3 27.4s-43.2-10-57.3-27.4l-2.5-3.1-.1-.1v-.1h119.8zM19.5 38.3c0-10.4 8.4-18.8 18.8-18.8h102.9l-4 3.5c-20.4 17.8-32 43.4-32 70.3 0 1.2 0 2.3.1 3.5v1.1c.3 6.3 1.3 12.4 2.8 18.4.1.4.2.7.3 1.1a94.8 94.8 0 0 0 10.4 24.3c.1.2.2.4.3.5 3.6 5.8 7.9 11.3 12.7 16.2.1.1.2.2.3.4 1.6 1.7 3.3 3.2 5 4.7l4 3.5H19.5V38.3zm0 148.2h96.3v.2l.5.9c5.3 9.9 12.4 18.7 20.9 26.1l4 3.5H19.5v-30.7zM38.3 264c-10.4 0-18.8-8.4-18.8-18.8v-8.5h98.1l.6 1c5.1 8.6 11.5 16.3 19 22.9l4 3.5-102.9-.1zm160.2 0c-20.6 0-40.5-8.8-54.4-24l-3.1-3.4h115l-3.1 3.4c-14 15.2-33.8 24-54.4 24zm179-18.8c0 10.4-8.4 18.8-18.8 18.8h-103l4-3.5c7.5-6.6 13.9-14.3 19-22.9l.6-1h98.1l.1 8.6zm0-28H255.7l4-3.5c8.5-7.4 15.5-16.2 20.8-26.1l.5-.9v-.2h96.3v30.7h.2zm0-50.2H255.7l4-3.5c1.7-1.5 3.4-3.1 5-4.7.1-.1.2-.2.3-.4 4.9-4.9 9.1-10.4 12.7-16.2.1-.2.2-.4.3-.5 4.6-7.6 8.1-15.7 10.4-24.3.1-.4.2-.7.3-1.1 1.5-6 2.5-12.2 2.8-18.4v-1.1c.1-1.2.1-2.4.1-3.5 0-26.9-11.7-52.5-32-70.3l-4-3.5h102.9c10.4 0 18.8 8.4 18.8 18.8V167h.2z"/><path class="st0" d="M226.2 106.8c0 9.8-7.5 17-20.1 19.2l-.9.1v10.8h-10.9v-10.4H193c-7.8-.5-15.5-2.3-21.1-5l4.7-10.6c6.5 3.1 14.3 5 21.1 5 3.1 0 12.5 0 12.5-7.3 0-6-7-7.5-14.5-9-13.5-2.8-23.8-5.9-23.8-18.4 0-10.3 8-17.5 21.3-19.3l1-.2V51h10.9v10.5h1.2c6 .6 11.4 1.9 15.9 3.9L217.9 76c-6-2.6-11.9-3.9-17.4-3.9-10.9 0-12.5 4.9-12.5 7.8 0 5.9 6.6 7.2 14.3 8.7 13.5 2.7 23.9 5.7 23.9 18.2zm107-3c-5.5 0-10-4.5-10-10s4.5-10 10-10 10 4.5 10 10-4.5 10-10 10zm-269.4 0c-5.5 0-10-4.5-10-10s4.5-10 10-10 10 4.5 10 10-4.5 10-10 10z"/></svg>