<svg xmlns="http://www.w3.org/2000/svg" viewBox="0 0 373 325.7"><path d="M315.3 197.6c-32.2-11.8-74.2-18.7-119.1-19.6V97h90.5c4.9 0 9-4 9-9V8.9c-.2-4.9-4.2-8.9-9.2-8.9h-97c-6.3 0-11.4 5.1-11.4 11.4V178c-45.4.8-87.9 7.7-120.4 19.6C20.5 211.2 0 230.5 0 251.8s20.5 40.5 57.7 54.2c34.5 12.7 80.3 19.7 128.8 19.7s94.2-7 128.8-19.7c37.2-13.6 57.7-32.9 57.7-54.2s-20.5-40.5-57.7-54.2zM196 18h81.5v61.2H196V18zm18.1 230.1v9.9h-54v-9.9h54zm-27.6 60.7c-99.9 0-169.5-30-169.5-56.9 0-26.1 65.7-55.2 161.1-56.8v35.2h-18c-9.9 0-17.9 8-17.9 17.9V267c0 4.9 4 9 9 9h71.9c4.9 0 9-4 9-9v-18.8c0-9.9-8-17.9-17.9-17.9h-18v-35.2C290.9 197 356 225.9 356 251.9c0 26.9-69.6 56.9-169.5 56.9z" fill="#004a9d"/></svg>