<svg xmlns="http://www.w3.org/2000/svg" viewBox="0 0 279 279"><path d="M279 271.9c0 3.8-3.3 7.1-7.1 7.1H7.1c-3.8 0-7.1-3.3-7.1-7.1V7.1C0 3.2 3.2 0 7.1 0s7.1 3.2 7.1 7.1v141.8h110L253.7 15.7l-38 3.7c-1.9.1-3.7-.4-5.2-1.6l-.1-.1c-1.4-1.3-2.3-3-2.4-4.8-.2-1.9.4-3.7 1.5-5.2 1.2-1.5 3-2.5 4.8-2.6L269.5 0h1.2c1.5.2 3 .8 4 1.9 1.4 1.2 2.2 3 2.4 4.9V7l-.6 52.3c0 3.8-3.1 7.1-6.9 7.3h-.3c-1.8 0-3.5-.7-4.8-1.9-1.4-1.3-2.2-3.1-2.3-5v-.2l.9-32.9-118.3 122.3h127.1c3.9 0 7.1 3.2 7.1 7.1 0 3.8-3.3 7.1-7.1 7.1H131.1l-67.5 69.7c-1.3 1.5-3.3 2.4-5.5 2.4s-4.2-.9-5.7-2.5c-2.6-3-2.5-7.4.1-10.2l57.8-59.4H14.2v101.6h257.6c4 0 7.2 3.2 7.2 7.2z" fill="#004a9d"/></svg>